999
"DXF R12 Output" (www.mydxf.blogspot.com)
 0 
SECTION
 2 
HEADER
 9 
$ACADVER
 1 
AC1009
 9 
$EXTMIN
 10 
 0 
 20 
 0 
 9 
$EXTMAX
 10 
 8.5 
 20 
 11 
 0 
ENDSEC
 0 
SECTION
 2 
ENTITIES
0
LINE
8
Layer 1
10
3.000000
20
-3.000000
11
-3.000000
21
3.000000
0
LINE
8
Layer 1
10
0.000000
20
-5.000000
11
0.000000
21
5.000000
0
LINE
8
Layer 1
10
8.000000
20
4.000000
11
4.000000
21
8.000000
0
LINE
8
Layer 1
10
6.000000
20
2.000000
11
2.000000
21
6.000000
0
LINE
8
Layer 1
10
4.000000
20
0.000000
11
0.000000
21
4.000000
0
LINE
8
Layer 1
10
3.000000
20
-3.000000
11
-3.000000
21
3.000000
0
LINE
8
Layer 1
10
0.000000
20
-5.000000
11
0.000000
21
5.000000
0
LINE
8
Layer 1
10
8.000000
20
4.000000
11
4.000000
21
8.000000
0
LINE
8
Layer 1
10
6.000000
20
2.000000
11
2.000000
21
6.000000
0
LINE
8
Layer 1
10
4.000000
20
0.000000
11
0.000000
21
4.000000
0
LINE
8
Layer 1
10
3.000000
20
-3.000000
11
-3.000000
21
3.000000
0
LINE
8
Layer 1
10
0.000000
20
-5.000000
11
0.000000
21
5.000000
0
LINE
8
Layer 1
10
8.000000
20
4.000000
11
4.000000
21
8.000000
0
LINE
8
Layer 1
10
6.000000
20
2.000000
11
2.000000
21
6.000000
0
LINE
8
Layer 1
10
4.000000
20
0.000000
11
0.000000
21
4.000000
0
LINE
8
0
10
1261.610000
20
592.630000
11
1261.413754
21
591.150780
0
LINE
8
0
10
1261.413754
20
591.150780
11
1260.850458
21
589.795350
0
LINE
8
0
10
1260.850458
20
589.795350
11
1259.958270
21
588.629806
0
LINE
8
0
10
1259.958270
20
588.629806
11
1258.775350
21
587.720242
0
LINE
8
0
10
1258.775350
20
587.720242
11
1257.396185
21
587.150586
0
LINE
8
0
10
1257.396185
20
587.150586
11
1255.940700
21
586.960700
0
LINE
8
0
10
1255.940700
20
586.960700
11
1254.485215
21
587.150586
0
LINE
8
0
10
1254.485215
20
587.150586
11
1253.106050
21
587.720242
0
LINE
8
0
10
1253.106050
20
587.720242
11
1251.923130
21
588.629806
0
LINE
8
0
10
1251.923130
20
588.629806
11
1251.030942
21
589.795350
0
LINE
8
0
10
1251.030942
20
589.795350
11
1250.467646
21
591.150780
0
LINE
8
0
10
1250.467646
20
591.150780
11
1250.271400
21
592.630000
0
LINE
8
0
10
1250.271400
20
592.630000
11
1250.467646
21
594.109220
0
LINE
8
0
10
1250.467646
20
594.109220
11
1251.030942
21
595.464650
0
LINE
8
0
10
1251.030942
20
595.464650
11
1251.923130
21
596.630194
0
LINE
8
0
10
1251.923130
20
596.630194
11
1253.106050
21
597.539758
0
LINE
8
0
10
1253.106050
20
597.539758
11
1254.485215
21
598.109414
0
LINE
8
0
10
1254.485215
20
598.109414
11
1255.940700
21
598.299300
0
LINE
8
0
10
1255.940700
20
598.299300
11
1257.396185
21
598.109414
0
LINE
8
0
10
1257.396185
20
598.109414
11
1258.775350
21
597.539758
0
LINE
8
0
10
1258.775350
20
597.539758
11
1259.958270
21
596.630194
0
LINE
8
0
10
1259.958270
20
596.630194
11
1260.850458
21
595.464650
0
LINE
8
0
10
1260.850458
20
595.464650
11
1261.413754
21
594.109220
0
LINE
8
0
10
1261.413754
20
594.109220
11
1261.610000
21
592.630000
0
LINE
8
0
10
1261.610000
20
592.630000
11
1261.610000
21
592.630000
0
LINE
8
0
10
450.520000
20
503.433000
11
450.323749
21
501.953782
0
LINE
8
0
10
450.323749
20
501.953782
11
449.760450
21
500.598355
0
LINE
8
0
10
449.760450
20
500.598355
11
448.868263
21
499.432813
0
LINE
8
0
10
448.868263
20
499.432813
11
447.685345
21
498.523251
0
LINE
8
0
10
447.685345
20
498.523251
11
446.306182
21
497.953595
0
LINE
8
0
10
446.306182
20
497.953595
11
444.850700
21
497.763710
0
LINE
8
0
10
444.850700
20
497.763710
11
443.395218
21
497.953595
0
LINE
8
0
10
443.395218
20
497.953595
11
442.016055
21
498.523251
0
LINE
8
0
10
442.016055
20
498.523251
11
440.833137
21
499.432813
0
LINE
8
0
10
440.833137
20
499.432813
11
439.940951
21
500.598355
0
LINE
8
0
10
439.940951
20
500.598355
11
439.377655
21
501.953782
0
LINE
8
0
10
439.377655
20
501.953782
11
439.181410
21
503.433000
0
LINE
8
0
10
439.181410
20
503.433000
11
439.377658
21
504.912218
0
LINE
8
0
10
439.377658
20
504.912218
11
439.940955
21
506.267645
0
LINE
8
0
10
439.940955
20
506.267645
11
440.833142
21
507.433187
0
LINE
8
0
10
440.833142
20
507.433187
11
442.016060
21
508.342749
0
LINE
8
0
10
442.016060
20
508.342749
11
443.395223
21
508.912405
0
LINE
8
0
10
443.395223
20
508.912405
11
444.850705
21
509.102290
0
LINE
8
0
10
444.850705
20
509.102290
11
446.306187
21
508.912405
0
LINE
8
0
10
446.306187
20
508.912405
11
447.685350
21
508.342749
0
LINE
8
0
10
447.685350
20
508.342749
11
448.868268
21
507.433187
0
LINE
8
0
10
448.868268
20
507.433187
11
449.760454
21
506.267645
0
LINE
8
0
10
449.760454
20
506.267645
11
450.323750
21
504.912218
0
LINE
8
0
10
450.323750
20
504.912218
11
450.519995
21
503.433000
0
LINE
8
0
10
450.519995
20
503.433000
11
450.520000
21
503.433000
0
LINE
8
0
10
1261.610000
20
503.433000
11
1261.413754
21
501.953780
0
LINE
8
0
10
1261.413754
20
501.953780
11
1260.850458
21
500.598350
0
LINE
8
0
10
1260.850458
20
500.598350
11
1259.958270
21
499.432806
0
LINE
8
0
10
1259.958270
20
499.432806
11
1258.775350
21
498.523242
0
LINE
8
0
10
1258.775350
20
498.523242
11
1257.396185
21
497.953586
0
LINE
8
0
10
1257.396185
20
497.953586
11
1255.940700
21
497.763700
0
LINE
8
0
10
1255.940700
20
497.763700
11
1254.485215
21
497.953586
0
LINE
8
0
10
1254.485215
20
497.953586
11
1253.106050
21
498.523242
0
LINE
8
0
10
1253.106050
20
498.523242
11
1251.923130
21
499.432806
0
LINE
8
0
10
1251.923130
20
499.432806
11
1251.030942
21
500.598350
0
LINE
8
0
10
1251.030942
20
500.598350
11
1250.467646
21
501.953780
0
LINE
8
0
10
1250.467646
20
501.953780
11
1250.271400
21
503.433000
0
LINE
8
0
10
1250.271400
20
503.433000
11
1250.467646
21
504.912220
0
LINE
8
0
10
1250.467646
20
504.912220
11
1251.030942
21
506.267650
0
LINE
8
0
10
1251.030942
20
506.267650
11
1251.923130
21
507.433194
0
LINE
8
0
10
1251.923130
20
507.433194
11
1253.106050
21
508.342758
0
LINE
8
0
10
1253.106050
20
508.342758
11
1254.485215
21
508.912414
0
LINE
8
0
10
1254.485215
20
508.912414
11
1255.940700
21
509.102300
0
LINE
8
0
10
1255.940700
20
509.102300
11
1257.396185
21
508.912414
0
LINE
8
0
10
1257.396185
20
508.912414
11
1258.775350
21
508.342758
0
LINE
8
0
10
1258.775350
20
508.342758
11
1259.958270
21
507.433194
0
LINE
8
0
10
1259.958270
20
507.433194
11
1260.850458
21
506.267650
0
LINE
8
0
10
1260.850458
20
506.267650
11
1261.413754
21
504.912220
0
LINE
8
0
10
1261.413754
20
504.912220
11
1261.610000
21
503.433000
0
LINE
8
0
10
1261.610000
20
503.433000
11
1261.610000
21
503.433000
0
LINE
8
0
10
450.520000
20
592.630000
11
450.323749
21
591.150782
0
LINE
8
0
10
450.323749
20
591.150782
11
449.760450
21
589.795355
0
LINE
8
0
10
449.760450
20
589.795355
11
448.868263
21
588.629813
0
LINE
8
0
10
448.868263
20
588.629813
11
447.685345
21
587.720251
0
LINE
8
0
10
447.685345
20
587.720251
11
446.306182
21
587.150595
0
LINE
8
0
10
446.306182
20
587.150595
11
444.850700
21
586.960710
0
LINE
8
0
10
444.850700
20
586.960710
11
443.395218
21
587.150595
0
LINE
8
0
10
443.395218
20
587.150595
11
442.016055
21
587.720251
0
LINE
8
0
10
442.016055
20
587.720251
11
440.833137
21
588.629813
0
LINE
8
0
10
440.833137
20
588.629813
11
439.940951
21
589.795355
0
LINE
8
0
10
439.940951
20
589.795355
11
439.377655
21
591.150782
0
LINE
8
0
10
439.377655
20
591.150782
11
439.181410
21
592.630000
0
LINE
8
0
10
439.181410
20
592.630000
11
439.377658
21
594.109218
0
LINE
8
0
10
439.377658
20
594.109218
11
439.940955
21
595.464645
0
LINE
8
0
10
439.940955
20
595.464645
11
440.833142
21
596.630187
0
LINE
8
0
10
440.833142
20
596.630187
11
442.016060
21
597.539749
0
LINE
8
0
10
442.016060
20
597.539749
11
443.395223
21
598.109405
0
LINE
8
0
10
443.395223
20
598.109405
11
444.850705
21
598.299290
0
LINE
8
0
10
444.850705
20
598.299290
11
446.306187
21
598.109405
0
LINE
8
0
10
446.306187
20
598.109405
11
447.685350
21
597.539749
0
LINE
8
0
10
447.685350
20
597.539749
11
448.868268
21
596.630187
0
LINE
8
0
10
448.868268
20
596.630187
11
449.760454
21
595.464645
0
LINE
8
0
10
449.760454
20
595.464645
11
450.323750
21
594.109218
0
LINE
8
0
10
450.323750
20
594.109218
11
450.519995
21
592.630000
0
LINE
8
0
10
450.519995
20
592.630000
11
450.520000
21
592.630000
0
LINE
8
0
10
1264.250000
20
676.535000
11
1264.053754
21
675.055780
0
LINE
8
0
10
1264.053754
20
675.055780
11
1263.490458
21
673.700350
0
LINE
8
0
10
1263.490458
20
673.700350
11
1262.598270
21
672.534806
0
LINE
8
0
10
1262.598270
20
672.534806
11
1261.415350
21
671.625242
0
LINE
8
0
10
1261.415350
20
671.625242
11
1260.036185
21
671.055586
0
LINE
8
0
10
1260.036185
20
671.055586
11
1258.580700
21
670.865700
0
LINE
8
0
10
1258.580700
20
670.865700
11
1257.125215
21
671.055586
0
LINE
8
0
10
1257.125215
20
671.055586
11
1255.746050
21
671.625242
0
LINE
8
0
10
1255.746050
20
671.625242
11
1254.563130
21
672.534806
0
LINE
8
0
10
1254.563130
20
672.534806
11
1253.670942
21
673.700350
0
LINE
8
0
10
1253.670942
20
673.700350
11
1253.107646
21
675.055780
0
LINE
8
0
10
1253.107646
20
675.055780
11
1252.911400
21
676.535000
0
LINE
8
0
10
1252.911400
20
676.535000
11
1253.107645
21
678.014221
0
LINE
8
0
10
1253.107645
20
678.014221
11
1253.670942
21
679.369650
0
LINE
8
0
10
1253.670942
20
679.369650
11
1254.563130
21
680.535195
0
LINE
8
0
10
1254.563130
20
680.535195
11
1255.746050
21
681.444759
0
LINE
8
0
10
1255.746050
20
681.444759
11
1257.125215
21
682.014415
0
LINE
8
0
10
1257.125215
20
682.014415
11
1258.580700
21
682.204301
0
LINE
8
0
10
1258.580700
20
682.204301
11
1260.036185
21
682.014415
0
LINE
8
0
10
1260.036185
20
682.014415
11
1261.415350
21
681.444759
0
LINE
8
0
10
1261.415350
20
681.444759
11
1262.598270
21
680.535195
0
LINE
8
0
10
1262.598270
20
680.535195
11
1263.490458
21
679.369650
0
LINE
8
0
10
1263.490458
20
679.369650
11
1264.053755
21
678.014221
0
LINE
8
0
10
1264.053755
20
678.014221
11
1264.250000
21
676.535000
0
LINE
8
0
10
1264.250000
20
676.535000
11
1264.250000
21
676.535000
0
LINE
8
0
10
447.874000
20
676.535000
11
447.677749
21
675.055782
0
LINE
8
0
10
447.677749
20
675.055782
11
447.114450
21
673.700355
0
LINE
8
0
10
447.114450
20
673.700355
11
446.222263
21
672.534813
0
LINE
8
0
10
446.222263
20
672.534813
11
445.039345
21
671.625251
0
LINE
8
0
10
445.039345
20
671.625251
11
443.660182
21
671.055595
0
LINE
8
0
10
443.660182
20
671.055595
11
442.204700
21
670.865710
0
LINE
8
0
10
442.204700
20
670.865710
11
440.749218
21
671.055595
0
LINE
8
0
10
440.749218
20
671.055595
11
439.370055
21
671.625251
0
LINE
8
0
10
439.370055
20
671.625251
11
438.187137
21
672.534813
0
LINE
8
0
10
438.187137
20
672.534813
11
437.294951
21
673.700355
0
LINE
8
0
10
437.294951
20
673.700355
11
436.731655
21
675.055782
0
LINE
8
0
10
436.731655
20
675.055782
11
436.535410
21
676.535000
0
LINE
8
0
10
436.535410
20
676.535000
11
436.731658
21
678.014218
0
LINE
8
0
10
436.731658
20
678.014218
11
437.294955
21
679.369645
0
LINE
8
0
10
437.294955
20
679.369645
11
438.187142
21
680.535187
0
LINE
8
0
10
438.187142
20
680.535187
11
439.370060
21
681.444749
0
LINE
8
0
10
439.370060
20
681.444749
11
440.749223
21
682.014405
0
LINE
8
0
10
440.749223
20
682.014405
11
442.204705
21
682.204290
0
LINE
8
0
10
442.204705
20
682.204290
11
443.660187
21
682.014405
0
LINE
8
0
10
443.660187
20
682.014405
11
445.039350
21
681.444749
0
LINE
8
0
10
445.039350
20
681.444749
11
446.222268
21
680.535187
0
LINE
8
0
10
446.222268
20
680.535187
11
447.114454
21
679.369645
0
LINE
8
0
10
447.114454
20
679.369645
11
447.677750
21
678.014218
0
LINE
8
0
10
447.677750
20
678.014218
11
447.873995
21
676.535000
0
LINE
8
0
10
447.873995
20
676.535000
11
447.874000
21
676.535000
0
LINE
8
0
10
447.874000
20
419.528000
11
447.677749
21
418.048782
0
LINE
8
0
10
447.677749
20
418.048782
11
447.114450
21
416.693355
0
LINE
8
0
10
447.114450
20
416.693355
11
446.222263
21
415.527813
0
LINE
8
0
10
446.222263
20
415.527813
11
445.039345
21
414.618251
0
LINE
8
0
10
445.039345
20
414.618251
11
443.660182
21
414.048595
0
LINE
8
0
10
443.660182
20
414.048595
11
442.204700
21
413.858710
0
LINE
8
0
10
442.204700
20
413.858710
11
440.749218
21
414.048595
0
LINE
8
0
10
440.749218
20
414.048595
11
439.370055
21
414.618251
0
LINE
8
0
10
439.370055
20
414.618251
11
438.187137
21
415.527813
0
LINE
8
0
10
438.187137
20
415.527813
11
437.294951
21
416.693355
0
LINE
8
0
10
437.294951
20
416.693355
11
436.731655
21
418.048782
0
LINE
8
0
10
436.731655
20
418.048782
11
436.535410
21
419.528000
0
LINE
8
0
10
436.535410
20
419.528000
11
436.731658
21
421.007218
0
LINE
8
0
10
436.731658
20
421.007218
11
437.294955
21
422.362645
0
LINE
8
0
10
437.294955
20
422.362645
11
438.187142
21
423.528187
0
LINE
8
0
10
438.187142
20
423.528187
11
439.370060
21
424.437749
0
LINE
8
0
10
439.370060
20
424.437749
11
440.749223
21
425.007405
0
LINE
8
0
10
440.749223
20
425.007405
11
442.204705
21
425.197290
0
LINE
8
0
10
442.204705
20
425.197290
11
443.660187
21
425.007405
0
LINE
8
0
10
443.660187
20
425.007405
11
445.039350
21
424.437749
0
LINE
8
0
10
445.039350
20
424.437749
11
446.222268
21
423.528187
0
LINE
8
0
10
446.222268
20
423.528187
11
447.114454
21
422.362645
0
LINE
8
0
10
447.114454
20
422.362645
11
447.677750
21
421.007218
0
LINE
8
0
10
447.677750
20
421.007218
11
447.873995
21
419.528000
0
LINE
8
0
10
447.873995
20
419.528000
11
447.874000
21
419.528000
0
LINE
8
0
10
506.457000
20
676.535000
11
506.327502
21
675.547629
0
LINE
8
0
10
506.327502
20
675.547629
11
505.952691
21
674.642638
0
LINE
8
0
10
505.952691
20
674.642638
11
505.358038
21
673.864255
0
LINE
8
0
10
505.358038
20
673.864255
11
504.569014
21
673.256708
0
LINE
8
0
10
504.569014
20
673.256708
11
503.648764
21
672.876169
0
LINE
8
0
10
503.648764
20
672.876169
11
502.677475
21
672.749322
0
LINE
8
0
10
502.677475
20
672.749322
11
501.706186
21
672.876169
0
LINE
8
0
10
501.706186
20
672.876169
11
500.785936
21
673.256708
0
LINE
8
0
10
500.785936
20
673.256708
11
499.996912
21
673.864255
0
LINE
8
0
10
499.996912
20
673.864255
11
499.402259
21
674.642638
0
LINE
8
0
10
499.402259
20
674.642638
11
499.027448
21
675.547629
0
LINE
8
0
10
499.027448
20
675.547629
11
498.897950
21
676.535000
0
LINE
8
0
10
498.897950
20
676.535000
11
499.027448
21
677.522371
0
LINE
8
0
10
499.027448
20
677.522371
11
499.402259
21
678.427362
0
LINE
8
0
10
499.402259
20
678.427362
11
499.996912
21
679.205745
0
LINE
8
0
10
499.996912
20
679.205745
11
500.785936
21
679.813292
0
LINE
8
0
10
500.785936
20
679.813292
11
501.706186
21
680.193831
0
LINE
8
0
10
501.706186
20
680.193831
11
502.677475
21
680.320678
0
LINE
8
0
10
502.677475
20
680.320678
11
503.648764
21
680.193831
0
LINE
8
0
10
503.648764
20
680.193831
11
504.569014
21
679.813292
0
LINE
8
0
10
504.569014
20
679.813292
11
505.358038
21
679.205745
0
LINE
8
0
10
505.358038
20
679.205745
11
505.952691
21
678.427362
0
LINE
8
0
10
505.952691
20
678.427362
11
506.327502
21
677.522371
0
LINE
8
0
10
506.327502
20
677.522371
11
506.457000
21
676.535000
0
LINE
8
0
10
506.457000
20
676.535000
11
506.457000
21
676.535000
0
LINE
8
0
10
1201.890000
20
419.528000
11
1201.759169
21
418.541849
0
LINE
8
0
10
1201.759169
20
418.541849
11
1201.383636
21
417.638225
0
LINE
8
0
10
1201.383636
20
417.638225
11
1200.788842
21
416.861192
0
LINE
8
0
10
1200.788842
20
416.861192
11
1200.000225
21
416.254814
0
LINE
8
0
10
1200.000225
20
416.254814
11
1199.080777
21
415.875041
0
LINE
8
0
10
1199.080777
20
415.875041
11
1198.110450
21
415.748450
0
LINE
8
0
10
1198.110450
20
415.748450
11
1197.140123
21
415.875041
0
LINE
8
0
10
1197.140123
20
415.875041
11
1196.220675
21
416.254814
0
LINE
8
0
10
1196.220675
20
416.254814
11
1195.432058
21
416.861192
0
LINE
8
0
10
1195.432058
20
416.861192
11
1194.837264
21
417.638225
0
LINE
8
0
10
1194.837264
20
417.638225
11
1194.461731
21
418.541849
0
LINE
8
0
10
1194.461731
20
418.541849
11
1194.330900
21
419.528000
0
LINE
8
0
10
1194.330900
20
419.528000
11
1194.461731
21
420.514151
0
LINE
8
0
10
1194.461731
20
420.514151
11
1194.837263
21
421.417775
0
LINE
8
0
10
1194.837263
20
421.417775
11
1195.432058
21
422.194808
0
LINE
8
0
10
1195.432058
20
422.194808
11
1196.220675
21
422.801187
0
LINE
8
0
10
1196.220675
20
422.801187
11
1197.140122
21
423.180960
0
LINE
8
0
10
1197.140122
20
423.180960
11
1198.110450
21
423.307551
0
LINE
8
0
10
1198.110450
20
423.307551
11
1199.080778
21
423.180960
0
LINE
8
0
10
1199.080778
20
423.180960
11
1200.000225
21
422.801187
0
LINE
8
0
10
1200.000225
20
422.801187
11
1200.788842
21
422.194808
0
LINE
8
0
10
1200.788842
20
422.194808
11
1201.383637
21
421.417775
0
LINE
8
0
10
1201.383637
20
421.417775
11
1201.759169
21
420.514151
0
LINE
8
0
10
1201.759169
20
420.514151
11
1201.890000
21
419.528000
0
LINE
8
0
10
1201.890000
20
419.528000
11
1201.890000
21
419.528000
0
LINE
8
0
10
1201.890000
20
676.535000
11
1201.759169
21
675.548849
0
LINE
8
0
10
1201.759169
20
675.548849
11
1201.383636
21
674.645225
0
LINE
8
0
10
1201.383636
20
674.645225
11
1200.788842
21
673.868192
0
LINE
8
0
10
1200.788842
20
673.868192
11
1200.000225
21
673.261814
0
LINE
8
0
10
1200.000225
20
673.261814
11
1199.080777
21
672.882041
0
LINE
8
0
10
1199.080777
20
672.882041
11
1198.110450
21
672.755450
0
LINE
8
0
10
1198.110450
20
672.755450
11
1197.140123
21
672.882041
0
LINE
8
0
10
1197.140123
20
672.882041
11
1196.220675
21
673.261814
0
LINE
8
0
10
1196.220675
20
673.261814
11
1195.432058
21
673.868192
0
LINE
8
0
10
1195.432058
20
673.868192
11
1194.837264
21
674.645225
0
LINE
8
0
10
1194.837264
20
674.645225
11
1194.461731
21
675.548849
0
LINE
8
0
10
1194.461731
20
675.548849
11
1194.330900
21
676.535000
0
LINE
8
0
10
1194.330900
20
676.535000
11
1194.461731
21
677.521151
0
LINE
8
0
10
1194.461731
20
677.521151
11
1194.837263
21
678.424775
0
LINE
8
0
10
1194.837263
20
678.424775
11
1195.432058
21
679.201808
0
LINE
8
0
10
1195.432058
20
679.201808
11
1196.220675
21
679.808187
0
LINE
8
0
10
1196.220675
20
679.808187
11
1197.140122
21
680.187960
0
LINE
8
0
10
1197.140122
20
680.187960
11
1198.110450
21
680.314551
0
LINE
8
0
10
1198.110450
20
680.314551
11
1199.080778
21
680.187960
0
LINE
8
0
10
1199.080778
20
680.187960
11
1200.000225
21
679.808187
0
LINE
8
0
10
1200.000225
20
679.808187
11
1200.788842
21
679.201808
0
LINE
8
0
10
1200.788842
20
679.201808
11
1201.383637
21
678.424775
0
LINE
8
0
10
1201.383637
20
678.424775
11
1201.759169
21
677.521151
0
LINE
8
0
10
1201.759169
20
677.521151
11
1201.890000
21
676.535000
0
LINE
8
0
10
1201.890000
20
676.535000
11
1201.890000
21
676.535000
0
LINE
8
0
10
856.063000
20
419.528000
11
855.866749
21
418.048782
0
LINE
8
0
10
855.866749
20
418.048782
11
855.303450
21
416.693355
0
LINE
8
0
10
855.303450
20
416.693355
11
854.411263
21
415.527813
0
LINE
8
0
10
854.411263
20
415.527813
11
853.228345
21
414.618251
0
LINE
8
0
10
853.228345
20
414.618251
11
851.849182
21
414.048595
0
LINE
8
0
10
851.849182
20
414.048595
11
850.393700
21
413.858710
0
LINE
8
0
10
850.393700
20
413.858710
11
848.938218
21
414.048595
0
LINE
8
0
10
848.938218
20
414.048595
11
847.559055
21
414.618251
0
LINE
8
0
10
847.559055
20
414.618251
11
846.376137
21
415.527813
0
LINE
8
0
10
846.376137
20
415.527813
11
845.483951
21
416.693355
0
LINE
8
0
10
845.483951
20
416.693355
11
844.920655
21
418.048782
0
LINE
8
0
10
844.920655
20
418.048782
11
844.724410
21
419.528000
0
LINE
8
0
10
844.724410
20
419.528000
11
844.920658
21
421.007218
0
LINE
8
0
10
844.920658
20
421.007218
11
845.483955
21
422.362645
0
LINE
8
0
10
845.483955
20
422.362645
11
846.376142
21
423.528187
0
LINE
8
0
10
846.376142
20
423.528187
11
847.559060
21
424.437749
0
LINE
8
0
10
847.559060
20
424.437749
11
848.938223
21
425.007405
0
LINE
8
0
10
848.938223
20
425.007405
11
850.393705
21
425.197290
0
LINE
8
0
10
850.393705
20
425.197290
11
851.849187
21
425.007405
0
LINE
8
0
10
851.849187
20
425.007405
11
853.228350
21
424.437749
0
LINE
8
0
10
853.228350
20
424.437749
11
854.411268
21
423.528187
0
LINE
8
0
10
854.411268
20
423.528187
11
855.303454
21
422.362645
0
LINE
8
0
10
855.303454
20
422.362645
11
855.866750
21
421.007218
0
LINE
8
0
10
855.866750
20
421.007218
11
856.062995
21
419.528000
0
LINE
8
0
10
856.062995
20
419.528000
11
856.063000
21
419.528000
0
LINE
8
0
10
506.457000
20
419.528000
11
506.327502
21
418.540629
0
LINE
8
0
10
506.327502
20
418.540629
11
505.952691
21
417.635638
0
LINE
8
0
10
505.952691
20
417.635638
11
505.358038
21
416.857255
0
LINE
8
0
10
505.358038
20
416.857255
11
504.569014
21
416.249708
0
LINE
8
0
10
504.569014
20
416.249708
11
503.648764
21
415.869169
0
LINE
8
0
10
503.648764
20
415.869169
11
502.677475
21
415.742322
0
LINE
8
0
10
502.677475
20
415.742322
11
501.706186
21
415.869169
0
LINE
8
0
10
501.706186
20
415.869169
11
500.785936
21
416.249708
0
LINE
8
0
10
500.785936
20
416.249708
11
499.996912
21
416.857255
0
LINE
8
0
10
499.996912
20
416.857255
11
499.402259
21
417.635638
0
LINE
8
0
10
499.402259
20
417.635638
11
499.027448
21
418.540629
0
LINE
8
0
10
499.027448
20
418.540629
11
498.897950
21
419.528000
0
LINE
8
0
10
498.897950
20
419.528000
11
499.027448
21
420.515371
0
LINE
8
0
10
499.027448
20
420.515371
11
499.402259
21
421.420362
0
LINE
8
0
10
499.402259
20
421.420362
11
499.996912
21
422.198745
0
LINE
8
0
10
499.996912
20
422.198745
11
500.785936
21
422.806292
0
LINE
8
0
10
500.785936
20
422.806292
11
501.706186
21
423.186831
0
LINE
8
0
10
501.706186
20
423.186831
11
502.677475
21
423.313678
0
LINE
8
0
10
502.677475
20
423.313678
11
503.648764
21
423.186831
0
LINE
8
0
10
503.648764
20
423.186831
11
504.569014
21
422.806292
0
LINE
8
0
10
504.569014
20
422.806292
11
505.358038
21
422.198745
0
LINE
8
0
10
505.358038
20
422.198745
11
505.952691
21
421.420362
0
LINE
8
0
10
505.952691
20
421.420362
11
506.327502
21
420.515371
0
LINE
8
0
10
506.327502
20
420.515371
11
506.457000
21
419.528000
0
LINE
8
0
10
506.457000
20
419.528000
11
506.457000
21
419.528000
0
LINE
8
0
10
856.063000
20
676.535000
11
855.866749
21
675.055782
0
LINE
8
0
10
855.866749
20
675.055782
11
855.303450
21
673.700355
0
LINE
8
0
10
855.303450
20
673.700355
11
854.411263
21
672.534813
0
LINE
8
0
10
854.411263
20
672.534813
11
853.228345
21
671.625251
0
LINE
8
0
10
853.228345
20
671.625251
11
851.849182
21
671.055595
0
LINE
8
0
10
851.849182
20
671.055595
11
850.393700
21
670.865710
0
LINE
8
0
10
850.393700
20
670.865710
11
848.938218
21
671.055595
0
LINE
8
0
10
848.938218
20
671.055595
11
847.559055
21
671.625251
0
LINE
8
0
10
847.559055
20
671.625251
11
846.376137
21
672.534813
0
LINE
8
0
10
846.376137
20
672.534813
11
845.483951
21
673.700355
0
LINE
8
0
10
845.483951
20
673.700355
11
844.920655
21
675.055782
0
LINE
8
0
10
844.920655
20
675.055782
11
844.724410
21
676.535000
0
LINE
8
0
10
844.724410
20
676.535000
11
844.920658
21
678.014218
0
LINE
8
0
10
844.920658
20
678.014218
11
845.483955
21
679.369645
0
LINE
8
0
10
845.483955
20
679.369645
11
846.376142
21
680.535187
0
LINE
8
0
10
846.376142
20
680.535187
11
847.559060
21
681.444749
0
LINE
8
0
10
847.559060
20
681.444749
11
848.938223
21
682.014405
0
LINE
8
0
10
848.938223
20
682.014405
11
850.393705
21
682.204290
0
LINE
8
0
10
850.393705
20
682.204290
11
851.849187
21
682.014405
0
LINE
8
0
10
851.849187
20
682.014405
11
853.228350
21
681.444749
0
LINE
8
0
10
853.228350
20
681.444749
11
854.411268
21
680.535187
0
LINE
8
0
10
854.411268
20
680.535187
11
855.303454
21
679.369645
0
LINE
8
0
10
855.303454
20
679.369645
11
855.866750
21
678.014218
0
LINE
8
0
10
855.866750
20
678.014218
11
856.062995
21
676.535000
0
LINE
8
0
10
856.062995
20
676.535000
11
856.063000
21
676.535000
0
LINE
8
0
10
1264.250000
20
419.528000
11
1264.053754
21
418.048780
0
LINE
8
0
10
1264.053754
20
418.048780
11
1263.490458
21
416.693350
0
LINE
8
0
10
1263.490458
20
416.693350
11
1262.598270
21
415.527806
0
LINE
8
0
10
1262.598270
20
415.527806
11
1261.415350
21
414.618242
0
LINE
8
0
10
1261.415350
20
414.618242
11
1260.036185
21
414.048586
0
LINE
8
0
10
1260.036185
20
414.048586
11
1258.580700
21
413.858700
0
LINE
8
0
10
1258.580700
20
413.858700
11
1257.125215
21
414.048586
0
LINE
8
0
10
1257.125215
20
414.048586
11
1255.746050
21
414.618242
0
LINE
8
0
10
1255.746050
20
414.618242
11
1254.563130
21
415.527806
0
LINE
8
0
10
1254.563130
20
415.527806
11
1253.670942
21
416.693350
0
LINE
8
0
10
1253.670942
20
416.693350
11
1253.107646
21
418.048780
0
LINE
8
0
10
1253.107646
20
418.048780
11
1252.911400
21
419.528000
0
LINE
8
0
10
1252.911400
20
419.528000
11
1253.107645
21
421.007221
0
LINE
8
0
10
1253.107645
20
421.007221
11
1253.670942
21
422.362650
0
LINE
8
0
10
1253.670942
20
422.362650
11
1254.563130
21
423.528195
0
LINE
8
0
10
1254.563130
20
423.528195
11
1255.746050
21
424.437759
0
LINE
8
0
10
1255.746050
20
424.437759
11
1257.125215
21
425.007415
0
LINE
8
0
10
1257.125215
20
425.007415
11
1258.580700
21
425.197301
0
LINE
8
0
10
1258.580700
20
425.197301
11
1260.036185
21
425.007415
0
LINE
8
0
10
1260.036185
20
425.007415
11
1261.415350
21
424.437759
0
LINE
8
0
10
1261.415350
20
424.437759
11
1262.598270
21
423.528195
0
LINE
8
0
10
1262.598270
20
423.528195
11
1263.490458
21
422.362650
0
LINE
8
0
10
1263.490458
20
422.362650
11
1264.053755
21
421.007221
0
LINE
8
0
10
1264.053755
20
421.007221
11
1264.250000
21
419.528000
0
LINE
8
0
10
1264.250000
20
419.528000
11
1264.250000
21
419.528000
0
LINE
8
0
10
445.984000
20
695.433000
11
443.665417
21
695.315903
0
LINE
8
0
10
443.665417
20
695.315903
11
441.413811
21
694.972250
0
LINE
8
0
10
441.413811
20
694.972250
11
439.240580
21
694.413442
0
LINE
8
0
10
439.240580
20
694.413442
11
437.157123
21
693.650876
0
LINE
8
0
10
437.157123
20
693.650876
11
435.174838
21
692.695950
0
LINE
8
0
10
435.174838
20
692.695950
11
433.305123
21
691.560064
0
LINE
8
0
10
433.305123
20
691.560064
11
431.559377
21
690.254615
0
LINE
8
0
10
431.559377
20
690.254615
11
429.948998
21
688.791002
0
LINE
8
0
10
429.948998
20
688.791002
11
428.485385
21
687.180623
0
LINE
8
0
10
428.485385
20
687.180623
11
427.179936
21
685.434877
0
LINE
8
0
10
427.179936
20
685.434877
11
426.044050
21
683.565162
0
LINE
8
0
10
426.044050
20
683.565162
11
425.089124
21
681.582877
0
LINE
8
0
10
425.089124
20
681.582877
11
424.326558
21
679.499420
0
LINE
8
0
10
424.326558
20
679.499420
11
423.767750
21
677.326189
0
LINE
8
0
10
423.767750
20
677.326189
11
423.424097
21
675.074583
0
LINE
8
0
10
423.424097
20
675.074583
11
423.307000
21
672.756000
0
LINE
8
0
10
423.307000
20
672.756000
11
423.307000
21
423.307000
0
LINE
8
0
10
423.307000
20
423.307000
11
423.417967
21
421.065637
0
LINE
8
0
10
423.417967
20
421.065637
11
423.746762
21
418.862238
0
LINE
8
0
10
423.746762
20
418.862238
11
424.287226
21
416.711673
0
LINE
8
0
10
424.287226
20
416.711673
11
425.033199
21
414.628811
0
LINE
8
0
10
425.033199
20
414.628811
11
425.978522
21
412.628523
0
LINE
8
0
10
425.978522
20
412.628523
11
427.117036
21
410.725678
0
LINE
8
0
10
427.117036
20
410.725678
11
428.442581
21
408.935146
0
LINE
8
0
10
428.442581
20
408.935146
11
429.948998
21
407.271798
0
LINE
8
0
10
429.948998
20
407.271798
11
431.612346
21
405.765381
0
LINE
8
0
10
431.612346
20
405.765381
11
433.402878
21
404.439836
0
LINE
8
0
10
433.402878
20
404.439836
11
435.305723
21
403.301322
0
LINE
8
0
10
435.305723
20
403.301322
11
437.306011
21
402.355999
0
LINE
8
0
10
437.306011
20
402.355999
11
439.388873
21
401.610026
0
LINE
8
0
10
439.388873
20
401.610026
11
441.539438
21
401.069562
0
LINE
8
0
10
441.539438
20
401.069562
11
443.742837
21
400.740767
0
LINE
8
0
10
443.742837
20
400.740767
11
445.984200
21
400.629800
0
LINE
8
0
10
445.984200
20
400.629800
11
1254.803200
21
400.629800
0
LINE
8
0
10
1254.803200
20
400.629800
11
1257.121804
21
400.746889
0
LINE
8
0
10
1257.121804
20
400.746889
11
1259.373431
21
401.090538
0
LINE
8
0
10
1259.373431
20
401.090538
11
1261.546682
21
401.649346
0
LINE
8
0
10
1261.546682
20
401.649346
11
1263.630158
21
402.411916
0
LINE
8
0
10
1263.630158
20
402.411916
11
1265.612460
21
403.366848
0
LINE
8
0
10
1265.612460
20
403.366848
11
1267.482189
21
404.502744
0
LINE
8
0
10
1267.482189
20
404.502744
11
1269.227948
21
405.808206
0
LINE
8
0
10
1269.227948
20
405.808206
11
1270.838337
21
407.271833
0
LINE
8
0
10
1270.838337
20
407.271833
11
1272.301958
21
408.882229
0
LINE
8
0
10
1272.301958
20
408.882229
11
1273.607412
21
410.627994
0
LINE
8
0
10
1273.607412
20
410.627994
11
1274.743300
21
412.497728
0
LINE
8
0
10
1274.743300
20
412.497728
11
1275.698223
21
414.480035
0
LINE
8
0
10
1275.698223
20
414.480035
11
1276.460784
21
416.563514
0
LINE
8
0
10
1276.460784
20
416.563514
11
1277.019583
21
418.736767
0
LINE
8
0
10
1277.019583
20
418.736767
11
1277.363221
21
420.988395
0
LINE
8
0
10
1277.363221
20
420.988395
11
1277.480300
21
423.307000
0
LINE
8
0
10
1277.480300
20
423.307000
11
1277.480300
21
672.756000
0
LINE
8
0
10
1277.480300
20
672.756000
11
1277.363221
21
675.074605
0
LINE
8
0
10
1277.363221
20
675.074605
11
1277.019583
21
677.326233
0
LINE
8
0
10
1277.019583
20
677.326233
11
1276.460784
21
679.499486
0
LINE
8
0
10
1276.460784
20
679.499486
11
1275.698223
21
681.582965
0
LINE
8
0
10
1275.698223
20
681.582965
11
1274.743300
21
683.565272
0
LINE
8
0
10
1274.743300
20
683.565272
11
1273.607412
21
685.435006
0
LINE
8
0
10
1273.607412
20
685.435006
11
1272.301958
21
687.180771
0
LINE
8
0
10
1272.301958
20
687.180771
11
1270.838337
21
688.791167
0
LINE
8
0
10
1270.838337
20
688.791167
11
1269.227948
21
690.254794
0
LINE
8
0
10
1269.227948
20
690.254794
11
1267.482189
21
691.560256
0
LINE
8
0
10
1267.482189
20
691.560256
11
1265.612460
21
692.696152
0
LINE
8
0
10
1265.612460
20
692.696152
11
1263.630158
21
693.651084
0
LINE
8
0
10
1263.630158
20
693.651084
11
1261.546682
21
694.413654
0
LINE
8
0
10
1261.546682
20
694.413654
11
1259.373431
21
694.972462
0
LINE
8
0
10
1259.373431
20
694.972462
11
1257.121804
21
695.316111
0
LINE
8
0
10
1257.121804
20
695.316111
11
1254.803200
21
695.433200
0
LINE
8
0
10
1254.803200
20
695.433200
11
445.984000
21
695.433000
0
LINE
8
0
10
627.968000
20
542.208000
11
627.968000
21
558.992000
0
LINE
8
0
10
627.968000
20
558.992000
11
628.098830
21
559.978146
0
LINE
8
0
10
628.098830
20
559.978146
11
628.474361
21
560.881765
0
LINE
8
0
10
628.474361
20
560.881765
11
629.069153
21
561.658794
0
LINE
8
0
10
629.069153
20
561.658794
11
629.857765
21
562.265169
0
LINE
8
0
10
629.857765
20
562.265169
11
630.777208
21
562.644940
0
LINE
8
0
10
630.777208
20
562.644940
11
631.747530
21
562.771530
0
LINE
8
0
10
631.747530
20
562.771530
11
632.717852
21
562.644940
0
LINE
8
0
10
632.717852
20
562.644940
11
633.637295
21
562.265169
0
LINE
8
0
10
633.637295
20
562.265169
11
634.425907
21
561.658794
0
LINE
8
0
10
634.425907
20
561.658794
11
635.020699
21
560.881765
0
LINE
8
0
10
635.020699
20
560.881765
11
635.396230
21
559.978146
0
LINE
8
0
10
635.396230
20
559.978146
11
635.527060
21
558.992000
0
LINE
8
0
10
635.527060
20
558.992000
11
635.527060
21
537.070700
0
LINE
8
0
10
635.527060
20
537.070700
11
635.437402
21
536.252220
0
LINE
8
0
10
635.437402
20
536.252220
11
635.176553
21
535.481151
0
LINE
8
0
10
635.176553
20
535.481151
11
634.756701
21
534.783788
0
LINE
8
0
10
634.756701
20
534.783788
11
634.190038
21
534.186427
0
LINE
8
0
10
634.190038
20
534.186427
11
633.507491
21
533.725909
0
LINE
8
0
10
633.507491
20
533.725909
11
632.750493
21
533.426671
0
LINE
8
0
10
632.750493
20
533.426671
11
631.946987
21
533.296404
0
LINE
8
0
10
631.946987
20
533.296404
11
631.124920
21
533.342800
0
LINE
8
0
10
631.124920
20
533.342800
11
644.732820
21
456.168400
0
LINE
8
0
10
644.732820
20
456.168400
11
644.959268
21
453.856387
0
LINE
8
0
10
644.959268
20
453.856387
11
644.830580
21
451.550334
0
LINE
8
0
10
644.830580
20
451.550334
11
644.352146
21
449.290789
0
LINE
8
0
10
644.352146
20
449.290789
11
643.529360
21
447.118300
0
LINE
8
0
10
643.529360
20
447.118300
11
617.232360
21
468.479300
0
LINE
8
0
10
617.232360
20
468.479300
11
606.340760
21
530.248600
0
LINE
8
0
10
606.340760
20
530.248600
11
620.301460
21
546.141600
0
LINE
8
0
10
620.301460
20
546.141600
11
622.481251
21
545.740051
0
LINE
8
0
10
622.481251
20
545.740051
11
624.522936
21
544.931443
0
LINE
8
0
10
624.522936
20
544.931443
11
626.370508
21
543.744514
0
LINE
8
0
10
626.370508
20
543.744514
11
627.967960
21
542.208000
0
LINE
8
0
10
627.967960
20
542.208000
11
627.968000
21
542.208000
0
LINE
8
0
10
505.890000
20
553.855000
11
505.890000
21
537.071000
0
LINE
8
0
10
505.890000
20
537.071000
11
505.812141
21
536.310247
0
LINE
8
0
10
505.812141
20
536.310247
11
505.591218
21
535.601811
0
LINE
8
0
10
505.591218
20
535.601811
11
504.780832
21
534.402444
0
LINE
8
0
10
504.780832
20
534.402444
11
503.580148
21
533.594009
0
LINE
8
0
10
503.580148
20
533.594009
11
502.871354
21
533.374239
0
LINE
8
0
10
502.871354
20
533.374239
11
502.110475
21
533.297618
0
LINE
8
0
10
502.110475
20
533.297618
11
501.349596
21
533.374239
0
LINE
8
0
10
501.349596
20
533.374239
11
500.640802
21
533.594009
0
LINE
8
0
10
500.640802
20
533.594009
11
499.440118
21
534.402444
0
LINE
8
0
10
499.440118
20
534.402444
11
498.629732
21
535.601811
0
LINE
8
0
10
498.629732
20
535.601811
11
498.408809
21
536.310247
0
LINE
8
0
10
498.408809
20
536.310247
11
498.330950
21
537.071000
0
LINE
8
0
10
498.330950
20
537.071000
11
498.330950
21
558.992300
0
LINE
8
0
10
498.330950
20
558.992300
11
498.420610
21
559.810778
0
LINE
8
0
10
498.420610
20
559.810778
11
498.681460
21
560.581846
0
LINE
8
0
10
498.681460
20
560.581846
11
499.101312
21
561.279207
0
LINE
8
0
10
499.101312
20
561.279207
11
499.667976
21
561.876566
0
LINE
8
0
10
499.667976
20
561.876566
11
500.350522
21
562.337082
0
LINE
8
0
10
500.350522
20
562.337082
11
501.107520
21
562.636320
0
LINE
8
0
10
501.107520
20
562.636320
11
501.911024
21
562.766586
0
LINE
8
0
10
501.911024
20
562.766586
11
502.733090
21
562.720190
0
LINE
8
0
10
502.733090
20
562.720190
11
489.125190
21
639.894590
0
LINE
8
0
10
489.125190
20
639.894590
11
488.898742
21
642.206603
0
LINE
8
0
10
488.898742
20
642.206603
11
489.027430
21
644.512656
0
LINE
8
0
10
489.027430
20
644.512656
11
489.505864
21
646.772201
0
LINE
8
0
10
489.505864
20
646.772201
11
490.328650
21
648.944690
0
LINE
8
0
10
490.328650
20
648.944690
11
516.625650
21
627.583690
0
LINE
8
0
10
516.625650
20
627.583690
11
527.517250
21
565.814390
0
LINE
8
0
10
527.517250
20
565.814390
11
513.556550
21
549.921390
0
LINE
8
0
10
513.556550
20
549.921390
11
511.376757
21
550.322938
0
LINE
8
0
10
511.376757
20
550.322938
11
509.335069
21
551.131545
0
LINE
8
0
10
509.335069
20
551.131545
11
507.487494
21
552.318475
0
LINE
8
0
10
507.487494
20
552.318475
11
505.890040
21
553.854990
0
LINE
8
0
10
505.890040
20
553.854990
11
505.890000
21
553.855000
0
LINE
8
0
10
816.945000
20
542.208000
11
816.945000
21
558.992000
0
LINE
8
0
10
816.945000
20
558.992000
11
817.075830
21
559.978146
0
LINE
8
0
10
817.075830
20
559.978146
11
817.451361
21
560.881765
0
LINE
8
0
10
817.451361
20
560.881765
11
818.046153
21
561.658794
0
LINE
8
0
10
818.046153
20
561.658794
11
818.834765
21
562.265169
0
LINE
8
0
10
818.834765
20
562.265169
11
819.754208
21
562.644940
0
LINE
8
0
10
819.754208
20
562.644940
11
820.724530
21
562.771530
0
LINE
8
0
10
820.724530
20
562.771530
11
821.694852
21
562.644940
0
LINE
8
0
10
821.694852
20
562.644940
11
822.614295
21
562.265169
0
LINE
8
0
10
822.614295
20
562.265169
11
823.402907
21
561.658794
0
LINE
8
0
10
823.402907
20
561.658794
11
823.997699
21
560.881765
0
LINE
8
0
10
823.997699
20
560.881765
11
824.373230
21
559.978146
0
LINE
8
0
10
824.373230
20
559.978146
11
824.504060
21
558.992000
0
LINE
8
0
10
824.504060
20
558.992000
11
824.504060
21
537.070700
0
LINE
8
0
10
824.504060
20
537.070700
11
824.414402
21
536.252219
0
LINE
8
0
10
824.414402
20
536.252219
11
824.153552
21
535.481148
0
LINE
8
0
10
824.153552
20
535.481148
11
823.733700
21
534.783784
0
LINE
8
0
10
823.733700
20
534.783784
11
823.167035
21
534.186423
0
LINE
8
0
10
823.167035
20
534.186423
11
822.484486
21
533.725905
0
LINE
8
0
10
822.484486
20
533.725905
11
821.727486
21
533.426667
0
LINE
8
0
10
821.727486
20
533.426667
11
820.923979
21
533.296402
0
LINE
8
0
10
820.923979
20
533.296402
11
820.101910
21
533.342800
0
LINE
8
0
10
820.101910
20
533.342800
11
833.709810
21
456.168400
0
LINE
8
0
10
833.709810
20
456.168400
11
833.936256
21
453.856386
0
LINE
8
0
10
833.936256
20
453.856386
11
833.807565
21
451.550333
0
LINE
8
0
10
833.807565
20
451.550333
11
833.329129
21
449.290788
0
LINE
8
0
10
833.329129
20
449.290788
11
832.506340
21
447.118300
0
LINE
8
0
10
832.506340
20
447.118300
11
806.209340
21
468.479300
0
LINE
8
0
10
806.209340
20
468.479300
11
795.317740
21
530.248600
0
LINE
8
0
10
795.317740
20
530.248600
11
809.278440
21
546.141600
0
LINE
8
0
10
809.278440
20
546.141600
11
811.458233
21
545.740052
0
LINE
8
0
10
811.458233
20
545.740052
11
813.499921
21
544.931445
0
LINE
8
0
10
813.499921
20
544.931445
11
815.347496
21
543.744515
0
LINE
8
0
10
815.347496
20
543.744515
11
816.944950
21
542.208000
0
LINE
8
0
10
816.944950
20
542.208000
11
816.945000
21
542.208000
0
LINE
8
0
10
694.866000
20
553.855000
11
694.866000
21
537.071000
0
LINE
8
0
10
694.866000
20
537.071000
11
694.788141
21
536.310247
0
LINE
8
0
10
694.788141
20
536.310247
11
694.567218
21
535.601811
0
LINE
8
0
10
694.567218
20
535.601811
11
693.756832
21
534.402444
0
LINE
8
0
10
693.756832
20
534.402444
11
692.556148
21
533.594009
0
LINE
8
0
10
692.556148
20
533.594009
11
691.847354
21
533.374239
0
LINE
8
0
10
691.847354
20
533.374239
11
691.086475
21
533.297618
0
LINE
8
0
10
691.086475
20
533.297618
11
690.325596
21
533.374239
0
LINE
8
0
10
690.325596
20
533.374239
11
689.616802
21
533.594009
0
LINE
8
0
10
689.616802
20
533.594009
11
688.416118
21
534.402444
0
LINE
8
0
10
688.416118
20
534.402444
11
687.605732
21
535.601811
0
LINE
8
0
10
687.605732
20
535.601811
11
687.384809
21
536.310247
0
LINE
8
0
10
687.384809
20
536.310247
11
687.306950
21
537.071000
0
LINE
8
0
10
687.306950
20
537.071000
11
687.306950
21
558.992300
0
LINE
8
0
10
687.306950
20
558.992300
11
687.396610
21
559.810778
0
LINE
8
0
10
687.396610
20
559.810778
11
687.657460
21
560.581846
0
LINE
8
0
10
687.657460
20
560.581846
11
688.077312
21
561.279207
0
LINE
8
0
10
688.077312
20
561.279207
11
688.643976
21
561.876566
0
LINE
8
0
10
688.643976
20
561.876566
11
689.326522
21
562.337082
0
LINE
8
0
10
689.326522
20
562.337082
11
690.083520
21
562.636320
0
LINE
8
0
10
690.083520
20
562.636320
11
690.887024
21
562.766586
0
LINE
8
0
10
690.887024
20
562.766586
11
691.709090
21
562.720190
0
LINE
8
0
10
691.709090
20
562.720190
11
678.101190
21
639.894590
0
LINE
8
0
10
678.101190
20
639.894590
11
677.874742
21
642.206603
0
LINE
8
0
10
677.874742
20
642.206603
11
678.003430
21
644.512656
0
LINE
8
0
10
678.003430
20
644.512656
11
678.481864
21
646.772201
0
LINE
8
0
10
678.481864
20
646.772201
11
679.304650
21
648.944690
0
LINE
8
0
10
679.304650
20
648.944690
11
705.601650
21
627.583690
0
LINE
8
0
10
705.601650
20
627.583690
11
716.493250
21
565.814390
0
LINE
8
0
10
716.493250
20
565.814390
11
702.532550
21
549.921390
0
LINE
8
0
10
702.532550
20
549.921390
11
700.352757
21
550.322938
0
LINE
8
0
10
700.352757
20
550.322938
11
698.311069
21
551.131545
0
LINE
8
0
10
698.311069
20
551.131545
11
696.463494
21
552.318475
0
LINE
8
0
10
696.463494
20
552.318475
11
694.866040
21
553.854990
0
LINE
8
0
10
694.866040
20
553.854990
11
694.866000
21
553.855000
0
LINE
8
0
10
1005.920000
20
542.208000
11
1005.920000
21
558.992000
0
LINE
8
0
10
1005.920000
20
558.992000
11
1005.999408
21
559.751368
0
LINE
8
0
10
1005.999408
20
559.751368
11
1006.221335
21
560.458324
0
LINE
8
0
10
1006.221335
20
560.458324
11
1007.032298
21
561.654791
0
LINE
8
0
10
1007.032298
20
561.654791
11
1008.231987
21
562.460981
0
LINE
8
0
10
1008.231987
20
562.460981
11
1008.939822
21
562.680090
0
LINE
8
0
10
1008.939822
20
562.680090
11
1009.699500
21
562.756471
0
LINE
8
0
10
1009.699500
20
562.756471
11
1010.459178
21
562.680090
0
LINE
8
0
10
1010.459178
20
562.680090
11
1011.167013
21
562.460981
0
LINE
8
0
10
1011.167013
20
562.460981
11
1012.366702
21
561.654791
0
LINE
8
0
10
1012.366702
20
561.654791
11
1013.177665
21
560.458324
0
LINE
8
0
10
1013.177665
20
560.458324
11
1013.399592
21
559.751368
0
LINE
8
0
10
1013.399592
20
559.751368
11
1013.479000
21
558.992000
0
LINE
8
0
10
1013.479000
20
558.992000
11
1013.479000
21
537.070700
0
LINE
8
0
10
1013.479000
20
537.070700
11
1013.389342
21
536.252226
0
LINE
8
0
10
1013.389342
20
536.252226
11
1013.128495
21
535.481163
0
LINE
8
0
10
1013.128495
20
535.481163
11
1012.708648
21
534.783804
0
LINE
8
0
10
1012.708648
20
534.783804
11
1012.141991
21
534.186445
0
LINE
8
0
10
1012.141991
20
534.186445
11
1011.459451
21
533.725927
0
LINE
8
0
10
1011.459451
20
533.725927
11
1010.702460
21
533.426685
0
LINE
8
0
10
1010.702460
20
533.426685
11
1009.898962
21
533.296413
0
LINE
8
0
10
1009.898962
20
533.296413
11
1009.076900
21
533.342800
0
LINE
8
0
10
1009.076900
20
533.342800
11
1022.684800
21
456.168400
0
LINE
8
0
10
1022.684800
20
456.168400
11
1022.911239
21
453.856384
0
LINE
8
0
10
1022.911239
20
453.856384
11
1022.782540
21
451.550330
0
LINE
8
0
10
1022.782540
20
451.550330
11
1022.304097
21
449.290786
0
LINE
8
0
10
1022.304097
20
449.290786
11
1021.481300
21
447.118300
0
LINE
8
0
10
1021.481300
20
447.118300
11
995.184400
21
468.479300
0
LINE
8
0
10
995.184400
20
468.479300
11
984.292800
21
530.248600
0
LINE
8
0
10
984.292800
20
530.248600
11
998.253500
21
546.141600
0
LINE
8
0
10
998.253500
20
546.141600
11
1000.433304
21
545.740058
0
LINE
8
0
10
1000.433304
20
545.740058
11
1002.475003
21
544.931453
0
LINE
8
0
10
1002.475003
20
544.931453
11
1004.322588
21
543.744521
0
LINE
8
0
10
1004.322588
20
543.744521
11
1005.920050
21
542.208000
0
LINE
8
0
10
1005.920050
20
542.208000
11
1005.920000
21
542.208000
0
LINE
8
0
10
883.843000
20
553.855000
11
883.843000
21
537.071000
0
LINE
8
0
10
883.843000
20
537.071000
11
883.712170
21
536.084854
0
LINE
8
0
10
883.712170
20
536.084854
11
883.336639
21
535.181235
0
LINE
8
0
10
883.336639
20
535.181235
11
882.741847
21
534.404206
0
LINE
8
0
10
882.741847
20
534.404206
11
881.953235
21
533.797831
0
LINE
8
0
10
881.953235
20
533.797831
11
881.033792
21
533.418060
0
LINE
8
0
10
881.033792
20
533.418060
11
880.063470
21
533.291470
0
LINE
8
0
10
880.063470
20
533.291470
11
879.093148
21
533.418060
0
LINE
8
0
10
879.093148
20
533.418060
11
878.173705
21
533.797831
0
LINE
8
0
10
878.173705
20
533.797831
11
877.385093
21
534.404206
0
LINE
8
0
10
877.385093
20
534.404206
11
876.790301
21
535.181235
0
LINE
8
0
10
876.790301
20
535.181235
11
876.414770
21
536.084854
0
LINE
8
0
10
876.414770
20
536.084854
11
876.283940
21
537.071000
0
LINE
8
0
10
876.283940
20
537.071000
11
876.283940
21
558.992300
0
LINE
8
0
10
876.283940
20
558.992300
11
876.373600
21
559.810780
0
LINE
8
0
10
876.373600
20
559.810780
11
876.634451
21
560.581848
0
LINE
8
0
10
876.634451
20
560.581848
11
877.054304
21
561.279211
0
LINE
8
0
10
877.054304
20
561.279211
11
877.620969
21
561.876570
0
LINE
8
0
10
877.620969
20
561.876570
11
878.303517
21
562.337087
0
LINE
8
0
10
878.303517
20
562.337087
11
879.060517
21
562.636323
0
LINE
8
0
10
879.060517
20
562.636323
11
879.864023
21
562.766588
0
LINE
8
0
10
879.864023
20
562.766588
11
880.686090
21
562.720190
0
LINE
8
0
10
880.686090
20
562.720190
11
867.078190
21
639.894590
0
LINE
8
0
10
867.078190
20
639.894590
11
866.851744
21
642.206604
0
LINE
8
0
10
866.851744
20
642.206604
11
866.980435
21
644.512657
0
LINE
8
0
10
866.980435
20
644.512657
11
867.458871
21
646.772202
0
LINE
8
0
10
867.458871
20
646.772202
11
868.281660
21
648.944690
0
LINE
8
0
10
868.281660
20
648.944690
11
894.578660
21
627.583690
0
LINE
8
0
10
894.578660
20
627.583690
11
905.470260
21
565.814390
0
LINE
8
0
10
905.470260
20
565.814390
11
891.509560
21
549.921390
0
LINE
8
0
10
891.509560
20
549.921390
11
889.329767
21
550.322938
0
LINE
8
0
10
889.329767
20
550.322938
11
887.288079
21
551.131545
0
LINE
8
0
10
887.288079
20
551.131545
11
885.440504
21
552.318475
0
LINE
8
0
10
885.440504
20
552.318475
11
883.843050
21
553.854990
0
LINE
8
0
10
883.843050
20
553.854990
11
883.843000
21
553.855000
0
LINE
8
0
10
1194.900000
20
542.208000
11
1194.900000
21
558.992000
0
LINE
8
0
10
1194.900000
20
558.992000
11
1195.030831
21
559.978151
0
LINE
8
0
10
1195.030831
20
559.978151
11
1195.406364
21
560.881775
0
LINE
8
0
10
1195.406364
20
560.881775
11
1196.001158
21
561.658808
0
LINE
8
0
10
1196.001158
20
561.658808
11
1196.789775
21
562.265186
0
LINE
8
0
10
1196.789775
20
562.265186
11
1197.709223
21
562.644959
0
LINE
8
0
10
1197.709223
20
562.644959
11
1198.679550
21
562.771550
0
LINE
8
0
10
1198.679550
20
562.771550
11
1199.649877
21
562.644959
0
LINE
8
0
10
1199.649877
20
562.644959
11
1200.569325
21
562.265186
0
LINE
8
0
10
1200.569325
20
562.265186
11
1201.357942
21
561.658808
0
LINE
8
0
10
1201.357942
20
561.658808
11
1201.952736
21
560.881775
0
LINE
8
0
10
1201.952736
20
560.881775
11
1202.328269
21
559.978151
0
LINE
8
0
10
1202.328269
20
559.978151
11
1202.459100
21
558.992000
0
LINE
8
0
10
1202.459100
20
558.992000
11
1202.459100
21
537.070700
0
LINE
8
0
10
1202.459100
20
537.070700
11
1202.369442
21
536.252226
0
LINE
8
0
10
1202.369442
20
536.252226
11
1202.108595
21
535.481163
0
LINE
8
0
10
1202.108595
20
535.481163
11
1201.688748
21
534.783804
0
LINE
8
0
10
1201.688748
20
534.783804
11
1201.122091
21
534.186445
0
LINE
8
0
10
1201.122091
20
534.186445
11
1200.439551
21
533.725927
0
LINE
8
0
10
1200.439551
20
533.725927
11
1199.682560
21
533.426685
0
LINE
8
0
10
1199.682560
20
533.426685
11
1198.879062
21
533.296413
0
LINE
8
0
10
1198.879062
20
533.296413
11
1198.057000
21
533.342800
0
LINE
8
0
10
1198.057000
20
533.342800
11
1211.664900
21
456.168400
0
LINE
8
0
10
1211.664900
20
456.168400
11
1211.891339
21
453.856384
0
LINE
8
0
10
1211.891339
20
453.856384
11
1211.762640
21
451.550330
0
LINE
8
0
10
1211.762640
20
451.550330
11
1211.284197
21
449.290786
0
LINE
8
0
10
1211.284197
20
449.290786
11
1210.461400
21
447.118300
0
LINE
8
0
10
1210.461400
20
447.118300
11
1184.164400
21
468.479300
0
LINE
8
0
10
1184.164400
20
468.479300
11
1173.272800
21
530.248600
0
LINE
8
0
10
1173.272800
20
530.248600
11
1187.233500
21
546.141600
0
LINE
8
0
10
1187.233500
20
546.141600
11
1189.413291
21
545.740051
0
LINE
8
0
10
1189.413291
20
545.740051
11
1191.454976
21
544.931443
0
LINE
8
0
10
1191.454976
20
544.931443
11
1193.302548
21
543.744514
0
LINE
8
0
10
1193.302548
20
543.744514
11
1194.900000
21
542.208000
0
LINE
8
0
10
1194.900000
20
542.208000
11
1194.900000
21
542.208000
0
LINE
8
0
10
1072.820000
20
553.855000
11
1072.820000
21
537.071000
0
LINE
8
0
10
1072.820000
20
537.071000
11
1072.743213
21
536.309289
0
LINE
8
0
10
1072.743213
20
536.309289
11
1072.522984
21
535.599829
0
LINE
8
0
10
1072.522984
20
535.599829
11
1071.712995
21
534.398455
0
LINE
8
0
10
1071.712995
20
534.398455
11
1070.511621
21
533.588467
0
LINE
8
0
10
1070.511621
20
533.588467
11
1069.802161
21
533.368238
0
LINE
8
0
10
1069.802161
20
533.368238
11
1069.040450
21
533.291451
0
LINE
8
0
10
1069.040450
20
533.291451
11
1068.278739
21
533.368238
0
LINE
8
0
10
1068.278739
20
533.368238
11
1067.569279
21
533.588467
0
LINE
8
0
10
1067.569279
20
533.588467
11
1066.367905
21
534.398455
0
LINE
8
0
10
1066.367905
20
534.398455
11
1065.557916
21
535.599829
0
LINE
8
0
10
1065.557916
20
535.599829
11
1065.337687
21
536.309289
0
LINE
8
0
10
1065.337687
20
536.309289
11
1065.260900
21
537.071000
0
LINE
8
0
10
1065.260900
20
537.071000
11
1065.260900
21
558.992300
0
LINE
8
0
10
1065.260900
20
558.992300
11
1065.350560
21
559.810787
0
LINE
8
0
10
1065.350560
20
559.810787
11
1065.611414
21
560.581863
0
LINE
8
0
10
1065.611414
20
560.581863
11
1066.031272
21
561.279230
0
LINE
8
0
10
1066.031272
20
561.279230
11
1066.597945
21
561.876592
0
LINE
8
0
10
1066.597945
20
561.876592
11
1067.280503
21
562.337109
0
LINE
8
0
10
1067.280503
20
562.337109
11
1068.037511
21
562.636341
0
LINE
8
0
10
1068.037511
20
562.636341
11
1068.841026
21
562.766599
0
LINE
8
0
10
1068.841026
20
562.766599
11
1069.663100
21
562.720190
0
LINE
8
0
10
1069.663100
20
562.720190
11
1056.055200
21
639.894590
0
LINE
8
0
10
1056.055200
20
639.894590
11
1055.828737
21
642.206600
0
LINE
8
0
10
1055.828737
20
642.206600
11
1055.957411
21
644.512652
0
LINE
8
0
10
1055.957411
20
644.512652
11
1056.435829
21
646.772198
0
LINE
8
0
10
1056.435829
20
646.772198
11
1057.258600
21
648.944690
0
LINE
8
0
10
1057.258600
20
648.944690
11
1083.555600
21
627.583690
0
LINE
8
0
10
1083.555600
20
627.583690
11
1094.447200
21
565.814390
0
LINE
8
0
10
1094.447200
20
565.814390
11
1080.486500
21
549.921390
0
LINE
8
0
10
1080.486500
20
549.921390
11
1078.306709
21
550.322939
0
LINE
8
0
10
1078.306709
20
550.322939
11
1076.265024
21
551.131547
0
LINE
8
0
10
1076.265024
20
551.131547
11
1074.417452
21
552.318476
0
LINE
8
0
10
1074.417452
20
552.318476
11
1072.820000
21
553.854990
0
LINE
8
0
10
1072.820000
20
553.854990
11
1072.820000
21
553.855000
0
LINE
8
0
10
1172.060000
20
652.015000
11
1153.095100
21
630.425200
0
LINE
8
0
10
1153.095100
20
630.425200
11
1086.054500
21
630.425200
0
LINE
8
0
10
1086.054500
20
630.425200
11
1059.299300
21
652.158400
0
LINE
8
0
10
1059.299300
20
652.158400
11
1060.439592
21
653.390251
0
LINE
8
0
10
1060.439592
20
653.390251
11
1061.697318
21
654.478664
0
LINE
8
0
10
1061.697318
20
654.478664
11
1063.058843
21
655.417225
0
LINE
8
0
10
1063.058843
20
655.417225
11
1064.510535
21
656.199521
0
LINE
8
0
10
1064.510535
20
656.199521
11
1066.038760
21
656.819137
0
LINE
8
0
10
1066.038760
20
656.819137
11
1067.629885
21
657.269660
0
LINE
8
0
10
1067.629885
20
657.269660
11
1069.270276
21
657.544675
0
LINE
8
0
10
1069.270276
20
657.544675
11
1070.946300
21
657.637770
0
LINE
8
0
10
1070.946300
20
657.637770
11
1157.113400
21
657.637770
0
LINE
8
0
10
1157.113400
20
657.637770
11
1159.164868
21
657.544827
0
LINE
8
0
10
1159.164868
20
657.544827
11
1161.187185
21
657.268908
0
LINE
8
0
10
1161.187185
20
657.268908
11
1163.168763
21
656.814373
0
LINE
8
0
10
1163.168763
20
656.814373
11
1165.098013
21
656.185579
0
LINE
8
0
10
1165.098013
20
656.185579
11
1166.963350
21
655.386887
0
LINE
8
0
10
1166.963350
20
655.386887
11
1168.753185
21
654.422656
0
LINE
8
0
10
1168.753185
20
654.422656
11
1170.455931
21
653.297243
0
LINE
8
0
10
1170.455931
20
653.297243
11
1172.060000
21
652.015010
0
LINE
8
0
10
1172.060000
20
652.015010
11
1172.060000
21
652.015000
0
LINE
8
0
10
1095.660000
20
444.048000
11
1114.624900
21
465.637800
0
LINE
8
0
10
1114.624900
20
465.637800
11
1181.665600
21
465.637800
0
LINE
8
0
10
1181.665600
20
465.637800
11
1208.420700
21
443.904600
0
LINE
8
0
10
1208.420700
20
443.904600
11
1207.280417
21
442.672758
0
LINE
8
0
10
1207.280417
20
442.672758
11
1206.022702
21
441.584352
0
LINE
8
0
10
1206.022702
20
441.584352
11
1204.661189
21
440.645795
0
LINE
8
0
10
1204.661189
20
440.645795
11
1203.209510
21
439.863501
0
LINE
8
0
10
1203.209510
20
439.863501
11
1201.681299
21
439.243884
0
LINE
8
0
10
1201.681299
20
439.243884
11
1200.090188
21
438.793357
0
LINE
8
0
10
1200.090188
20
438.793357
11
1198.449811
21
438.518334
0
LINE
8
0
10
1198.449811
20
438.518334
11
1196.773800
21
438.425230
0
LINE
8
0
10
1196.773800
20
438.425230
11
1110.606600
21
438.425230
0
LINE
8
0
10
1110.606600
20
438.425230
11
1108.555132
21
438.518173
0
LINE
8
0
10
1108.555132
20
438.518173
11
1106.532815
21
438.794092
0
LINE
8
0
10
1106.532815
20
438.794092
11
1104.551237
21
439.248627
0
LINE
8
0
10
1104.551237
20
439.248627
11
1102.621987
21
439.877421
0
LINE
8
0
10
1102.621987
20
439.877421
11
1100.756650
21
440.676113
0
LINE
8
0
10
1100.756650
20
440.676113
11
1098.966815
21
441.640344
0
LINE
8
0
10
1098.966815
20
441.640344
11
1097.264069
21
442.765757
0
LINE
8
0
10
1097.264069
20
442.765757
11
1095.660000
21
444.047990
0
LINE
8
0
10
1095.660000
20
444.047990
11
1095.660000
21
444.048000
0
LINE
8
0
10
1179.440000
20
638.898000
11
1193.574500
21
558.737000
0
LINE
8
0
10
1193.574500
20
558.737000
11
1193.686087
21
557.201376
0
LINE
8
0
10
1193.686087
20
557.201376
11
1193.487698
21
555.690079
0
LINE
8
0
10
1193.487698
20
555.690079
11
1192.990216
21
554.249284
0
LINE
8
0
10
1192.990216
20
554.249284
11
1192.204527
21
552.925168
0
LINE
8
0
10
1192.204527
20
552.925168
11
1191.166889
21
551.787670
0
LINE
8
0
10
1191.166889
20
551.787670
11
1189.933640
21
550.891861
0
LINE
8
0
10
1189.933640
20
550.891861
11
1188.545777
21
550.261611
0
LINE
8
0
10
1188.545777
20
550.261611
11
1187.044300
21
549.920790
0
LINE
8
0
10
1187.044300
20
549.920790
11
1166.916400
21
566.270690
0
LINE
8
0
10
1166.916400
20
566.270690
11
1156.024800
21
628.039990
0
LINE
8
0
10
1156.024800
20
628.039990
11
1174.687000
21
649.285190
0
LINE
8
0
10
1174.687000
20
649.285190
11
1176.366510
21
646.932476
0
LINE
8
0
10
1176.366510
20
646.932476
11
1177.728247
21
644.395767
0
LINE
8
0
10
1177.728247
20
644.395767
11
1178.757610
21
641.706969
0
LINE
8
0
10
1178.757610
20
641.706969
11
1179.440000
21
638.897990
0
LINE
8
0
10
1179.440000
20
638.897990
11
1179.440000
21
638.898000
0
LINE
8
0
10
1216.820000
20
630.425000
11
1216.714597
21
628.769545
0
LINE
8
0
10
1216.714597
20
628.769545
11
1216.395920
21
627.163670
0
LINE
8
0
10
1216.395920
20
627.163670
11
1215.874483
21
625.625668
0
LINE
8
0
10
1215.874483
20
625.625668
11
1215.160805
21
624.173835
0
LINE
8
0
10
1215.160805
20
624.173835
11
1214.265400
21
622.826464
0
LINE
8
0
10
1214.265400
20
622.826464
11
1213.198785
21
621.601850
0
LINE
8
0
10
1213.198785
20
621.601850
11
1211.971477
21
620.518288
0
LINE
8
0
10
1211.971477
20
620.518288
11
1210.593992
21
619.594073
0
LINE
8
0
10
1210.593992
20
619.594073
11
1209.106238
21
618.860434
0
LINE
8
0
10
1209.106238
20
618.860434
11
1207.555178
21
618.336406
0
LINE
8
0
10
1207.555178
20
618.336406
11
1205.961915
21
618.021989
0
LINE
8
0
10
1205.961915
20
618.021989
11
1204.347550
21
617.917184
0
LINE
8
0
10
1204.347550
20
617.917184
11
1202.733185
21
618.021989
0
LINE
8
0
10
1202.733185
20
618.021989
11
1201.139922
21
618.336406
0
LINE
8
0
10
1201.139922
20
618.336406
11
1199.588862
21
618.860434
0
LINE
8
0
10
1199.588862
20
618.860434
11
1198.101108
21
619.594073
0
LINE
8
0
10
1198.101108
20
619.594073
11
1196.723623
21
620.518288
0
LINE
8
0
10
1196.723623
20
620.518288
11
1195.496315
21
621.601850
0
LINE
8
0
10
1195.496315
20
621.601850
11
1194.429700
21
622.826464
0
LINE
8
0
10
1194.429700
20
622.826464
11
1193.534295
21
624.173835
0
LINE
8
0
10
1193.534295
20
624.173835
11
1192.820617
21
625.625668
0
LINE
8
0
10
1192.820617
20
625.625668
11
1192.299180
21
627.163670
0
LINE
8
0
10
1192.299180
20
627.163670
11
1191.980503
21
628.769545
0
LINE
8
0
10
1191.980503
20
628.769545
11
1191.875100
21
630.425000
0
LINE
8
0
10
1191.875100
20
630.425000
11
1191.980503
21
632.080455
0
LINE
8
0
10
1191.980503
20
632.080455
11
1192.299180
21
633.686330
0
LINE
8
0
10
1192.299180
20
633.686330
11
1192.820617
21
635.224332
0
LINE
8
0
10
1192.820617
20
635.224332
11
1193.534295
21
636.676165
0
LINE
8
0
10
1193.534295
20
636.676165
11
1194.429700
21
638.023536
0
LINE
8
0
10
1194.429700
20
638.023536
11
1195.496315
21
639.248150
0
LINE
8
0
10
1195.496315
20
639.248150
11
1196.723623
21
640.331712
0
LINE
8
0
10
1196.723623
20
640.331712
11
1198.101108
21
641.255927
0
LINE
8
0
10
1198.101108
20
641.255927
11
1199.588862
21
641.989566
0
LINE
8
0
10
1199.588862
20
641.989566
11
1201.139922
21
642.513594
0
LINE
8
0
10
1201.139922
20
642.513594
11
1202.733185
21
642.828011
0
LINE
8
0
10
1202.733185
20
642.828011
11
1204.347550
21
642.932816
0
LINE
8
0
10
1204.347550
20
642.932816
11
1205.961915
21
642.828011
0
LINE
8
0
10
1205.961915
20
642.828011
11
1207.555178
21
642.513594
0
LINE
8
0
10
1207.555178
20
642.513594
11
1209.106238
21
641.989566
0
LINE
8
0
10
1209.106238
20
641.989566
11
1210.593992
21
641.255927
0
LINE
8
0
10
1210.593992
20
641.255927
11
1211.971477
21
640.331712
0
LINE
8
0
10
1211.971477
20
640.331712
11
1213.198785
21
639.248150
0
LINE
8
0
10
1213.198785
20
639.248150
11
1214.265400
21
638.023536
0
LINE
8
0
10
1214.265400
20
638.023536
11
1215.160805
21
636.676165
0
LINE
8
0
10
1215.160805
20
636.676165
11
1215.874483
21
635.224332
0
LINE
8
0
10
1215.874483
20
635.224332
11
1216.395920
21
633.686330
0
LINE
8
0
10
1216.395920
20
633.686330
11
1216.714597
21
632.080455
0
LINE
8
0
10
1216.714597
20
632.080455
11
1216.820000
21
630.425000
0
LINE
8
0
10
1216.820000
20
630.425000
11
1216.820000
21
630.425000
0
LINE
8
0
10
1068.660000
20
495.118000
11
1068.463754
21
493.638780
0
LINE
8
0
10
1068.463754
20
493.638780
11
1067.900458
21
492.283350
0
LINE
8
0
10
1067.900458
20
492.283350
11
1067.008270
21
491.117806
0
LINE
8
0
10
1067.008270
20
491.117806
11
1065.825350
21
490.208242
0
LINE
8
0
10
1065.825350
20
490.208242
11
1064.446185
21
489.638586
0
LINE
8
0
10
1064.446185
20
489.638586
11
1062.990700
21
489.448700
0
LINE
8
0
10
1062.990700
20
489.448700
11
1061.535215
21
489.638586
0
LINE
8
0
10
1061.535215
20
489.638586
11
1060.156050
21
490.208242
0
LINE
8
0
10
1060.156050
20
490.208242
11
1058.973130
21
491.117806
0
LINE
8
0
10
1058.973130
20
491.117806
11
1058.080942
21
492.283350
0
LINE
8
0
10
1058.080942
20
492.283350
11
1057.517646
21
493.638780
0
LINE
8
0
10
1057.517646
20
493.638780
11
1057.321400
21
495.118000
0
LINE
8
0
10
1057.321400
20
495.118000
11
1057.517646
21
496.597220
0
LINE
8
0
10
1057.517646
20
496.597220
11
1058.080942
21
497.952650
0
LINE
8
0
10
1058.080942
20
497.952650
11
1058.973130
21
499.118194
0
LINE
8
0
10
1058.973130
20
499.118194
11
1060.156050
21
500.027758
0
LINE
8
0
10
1060.156050
20
500.027758
11
1061.535215
21
500.597414
0
LINE
8
0
10
1061.535215
20
500.597414
11
1062.990700
21
500.787300
0
LINE
8
0
10
1062.990700
20
500.787300
11
1064.446185
21
500.597414
0
LINE
8
0
10
1064.446185
20
500.597414
11
1065.825350
21
500.027758
0
LINE
8
0
10
1065.825350
20
500.027758
11
1067.008270
21
499.118194
0
LINE
8
0
10
1067.008270
20
499.118194
11
1067.900458
21
497.952650
0
LINE
8
0
10
1067.900458
20
497.952650
11
1068.463754
21
496.597220
0
LINE
8
0
10
1068.463754
20
496.597220
11
1068.660000
21
495.118000
0
LINE
8
0
10
1068.660000
20
495.118000
11
1068.660000
21
495.118000
0
LINE
8
0
10
1139.530000
20
495.118000
11
1139.333754
21
493.638780
0
LINE
8
0
10
1139.333754
20
493.638780
11
1138.770458
21
492.283350
0
LINE
8
0
10
1138.770458
20
492.283350
11
1137.878270
21
491.117806
0
LINE
8
0
10
1137.878270
20
491.117806
11
1136.695350
21
490.208242
0
LINE
8
0
10
1136.695350
20
490.208242
11
1135.316185
21
489.638586
0
LINE
8
0
10
1135.316185
20
489.638586
11
1133.860700
21
489.448700
0
LINE
8
0
10
1133.860700
20
489.448700
11
1132.405215
21
489.638586
0
LINE
8
0
10
1132.405215
20
489.638586
11
1131.026050
21
490.208242
0
LINE
8
0
10
1131.026050
20
490.208242
11
1129.843130
21
491.117806
0
LINE
8
0
10
1129.843130
20
491.117806
11
1128.950942
21
492.283350
0
LINE
8
0
10
1128.950942
20
492.283350
11
1128.387646
21
493.638780
0
LINE
8
0
10
1128.387646
20
493.638780
11
1128.191400
21
495.118000
0
LINE
8
0
10
1128.191400
20
495.118000
11
1128.387645
21
496.597221
0
LINE
8
0
10
1128.387645
20
496.597221
11
1128.950942
21
497.952650
0
LINE
8
0
10
1128.950942
20
497.952650
11
1129.843130
21
499.118195
0
LINE
8
0
10
1129.843130
20
499.118195
11
1131.026050
21
500.027759
0
LINE
8
0
10
1131.026050
20
500.027759
11
1132.405215
21
500.597415
0
LINE
8
0
10
1132.405215
20
500.597415
11
1133.860700
21
500.787301
0
LINE
8
0
10
1133.860700
20
500.787301
11
1135.316185
21
500.597415
0
LINE
8
0
10
1135.316185
20
500.597415
11
1136.695350
21
500.027759
0
LINE
8
0
10
1136.695350
20
500.027759
11
1137.878270
21
499.118195
0
LINE
8
0
10
1137.878270
20
499.118195
11
1138.770458
21
497.952650
0
LINE
8
0
10
1138.770458
20
497.952650
11
1139.333755
21
496.597221
0
LINE
8
0
10
1139.333755
20
496.597221
11
1139.530000
21
495.118000
0
LINE
8
0
10
1139.530000
20
495.118000
11
1139.530000
21
495.118000
0
LINE
8
0
10
1139.530000
20
600.945000
11
1139.333754
21
599.465780
0
LINE
8
0
10
1139.333754
20
599.465780
11
1138.770458
21
598.110350
0
LINE
8
0
10
1138.770458
20
598.110350
11
1137.878270
21
596.944806
0
LINE
8
0
10
1137.878270
20
596.944806
11
1136.695350
21
596.035242
0
LINE
8
0
10
1136.695350
20
596.035242
11
1135.316185
21
595.465586
0
LINE
8
0
10
1135.316185
20
595.465586
11
1133.860700
21
595.275700
0
LINE
8
0
10
1133.860700
20
595.275700
11
1132.405215
21
595.465586
0
LINE
8
0
10
1132.405215
20
595.465586
11
1131.026050
21
596.035242
0
LINE
8
0
10
1131.026050
20
596.035242
11
1129.843130
21
596.944806
0
LINE
8
0
10
1129.843130
20
596.944806
11
1128.950942
21
598.110350
0
LINE
8
0
10
1128.950942
20
598.110350
11
1128.387646
21
599.465780
0
LINE
8
0
10
1128.387646
20
599.465780
11
1128.191400
21
600.945000
0
LINE
8
0
10
1128.191400
20
600.945000
11
1128.387645
21
602.424221
0
LINE
8
0
10
1128.387645
20
602.424221
11
1128.950942
21
603.779650
0
LINE
8
0
10
1128.950942
20
603.779650
11
1129.843130
21
604.945195
0
LINE
8
0
10
1129.843130
20
604.945195
11
1131.026050
21
605.854759
0
LINE
8
0
10
1131.026050
20
605.854759
11
1132.405215
21
606.424415
0
LINE
8
0
10
1132.405215
20
606.424415
11
1133.860700
21
606.614301
0
LINE
8
0
10
1133.860700
20
606.614301
11
1135.316185
21
606.424415
0
LINE
8
0
10
1135.316185
20
606.424415
11
1136.695350
21
605.854759
0
LINE
8
0
10
1136.695350
20
605.854759
11
1137.878270
21
604.945195
0
LINE
8
0
10
1137.878270
20
604.945195
11
1138.770458
21
603.779650
0
LINE
8
0
10
1138.770458
20
603.779650
11
1139.333755
21
602.424221
0
LINE
8
0
10
1139.333755
20
602.424221
11
1139.530000
21
600.945000
0
LINE
8
0
10
1139.530000
20
600.945000
11
1139.530000
21
600.945000
0
LINE
8
0
10
1075.840000
20
465.638000
11
1075.734597
21
463.982545
0
LINE
8
0
10
1075.734597
20
463.982545
11
1075.415920
21
462.376670
0
LINE
8
0
10
1075.415920
20
462.376670
11
1074.894483
21
460.838668
0
LINE
8
0
10
1074.894483
20
460.838668
11
1074.180805
21
459.386835
0
LINE
8
0
10
1074.180805
20
459.386835
11
1073.285400
21
458.039464
0
LINE
8
0
10
1073.285400
20
458.039464
11
1072.218785
21
456.814850
0
LINE
8
0
10
1072.218785
20
456.814850
11
1070.991477
21
455.731288
0
LINE
8
0
10
1070.991477
20
455.731288
11
1069.613992
21
454.807073
0
LINE
8
0
10
1069.613992
20
454.807073
11
1068.126238
21
454.073434
0
LINE
8
0
10
1068.126238
20
454.073434
11
1066.575178
21
453.549406
0
LINE
8
0
10
1066.575178
20
453.549406
11
1064.981915
21
453.234989
0
LINE
8
0
10
1064.981915
20
453.234989
11
1063.367550
21
453.130184
0
LINE
8
0
10
1063.367550
20
453.130184
11
1061.753185
21
453.234989
0
LINE
8
0
10
1061.753185
20
453.234989
11
1060.159922
21
453.549406
0
LINE
8
0
10
1060.159922
20
453.549406
11
1058.608862
21
454.073434
0
LINE
8
0
10
1058.608862
20
454.073434
11
1057.121108
21
454.807073
0
LINE
8
0
10
1057.121108
20
454.807073
11
1055.743623
21
455.731288
0
LINE
8
0
10
1055.743623
20
455.731288
11
1054.516315
21
456.814850
0
LINE
8
0
10
1054.516315
20
456.814850
11
1053.449700
21
458.039464
0
LINE
8
0
10
1053.449700
20
458.039464
11
1052.554295
21
459.386835
0
LINE
8
0
10
1052.554295
20
459.386835
11
1051.840617
21
460.838668
0
LINE
8
0
10
1051.840617
20
460.838668
11
1051.319180
21
462.376670
0
LINE
8
0
10
1051.319180
20
462.376670
11
1051.000503
21
463.982545
0
LINE
8
0
10
1051.000503
20
463.982545
11
1050.895100
21
465.638000
0
LINE
8
0
10
1050.895100
20
465.638000
11
1051.000503
21
467.293455
0
LINE
8
0
10
1051.000503
20
467.293455
11
1051.319180
21
468.899330
0
LINE
8
0
10
1051.319180
20
468.899330
11
1051.840617
21
470.437332
0
LINE
8
0
10
1051.840617
20
470.437332
11
1052.554295
21
471.889165
0
LINE
8
0
10
1052.554295
20
471.889165
11
1053.449700
21
473.236536
0
LINE
8
0
10
1053.449700
20
473.236536
11
1054.516315
21
474.461150
0
LINE
8
0
10
1054.516315
20
474.461150
11
1055.743623
21
475.544712
0
LINE
8
0
10
1055.743623
20
475.544712
11
1057.121108
21
476.468927
0
LINE
8
0
10
1057.121108
20
476.468927
11
1058.608862
21
477.202566
0
LINE
8
0
10
1058.608862
20
477.202566
11
1060.159922
21
477.726594
0
LINE
8
0
10
1060.159922
20
477.726594
11
1061.753185
21
478.041011
0
LINE
8
0
10
1061.753185
20
478.041011
11
1063.367550
21
478.145816
0
LINE
8
0
10
1063.367550
20
478.145816
11
1064.981915
21
478.041011
0
LINE
8
0
10
1064.981915
20
478.041011
11
1066.575178
21
477.726594
0
LINE
8
0
10
1066.575178
20
477.726594
11
1068.126238
21
477.202566
0
LINE
8
0
10
1068.126238
20
477.202566
11
1069.613992
21
476.468927
0
LINE
8
0
10
1069.613992
20
476.468927
11
1070.991477
21
475.544712
0
LINE
8
0
10
1070.991477
20
475.544712
11
1072.218785
21
474.461150
0
LINE
8
0
10
1072.218785
20
474.461150
11
1073.285400
21
473.236536
0
LINE
8
0
10
1073.285400
20
473.236536
11
1074.180805
21
471.889165
0
LINE
8
0
10
1074.180805
20
471.889165
11
1074.894483
21
470.437332
0
LINE
8
0
10
1074.894483
20
470.437332
11
1075.415920
21
468.899330
0
LINE
8
0
10
1075.415920
20
468.899330
11
1075.734597
21
467.293455
0
LINE
8
0
10
1075.734597
20
467.293455
11
1075.840000
21
465.638000
0
LINE
8
0
10
1075.840000
20
465.638000
11
1075.840000
21
465.638000
0
LINE
8
0
10
1210.390000
20
600.945000
11
1210.193754
21
599.465780
0
LINE
8
0
10
1210.193754
20
599.465780
11
1209.630458
21
598.110350
0
LINE
8
0
10
1209.630458
20
598.110350
11
1208.738270
21
596.944806
0
LINE
8
0
10
1208.738270
20
596.944806
11
1207.555350
21
596.035242
0
LINE
8
0
10
1207.555350
20
596.035242
11
1206.176185
21
595.465586
0
LINE
8
0
10
1206.176185
20
595.465586
11
1204.720700
21
595.275700
0
LINE
8
0
10
1204.720700
20
595.275700
11
1203.265215
21
595.465586
0
LINE
8
0
10
1203.265215
20
595.465586
11
1201.886050
21
596.035242
0
LINE
8
0
10
1201.886050
20
596.035242
11
1200.703130
21
596.944806
0
LINE
8
0
10
1200.703130
20
596.944806
11
1199.810942
21
598.110350
0
LINE
8
0
10
1199.810942
20
598.110350
11
1199.247646
21
599.465780
0
LINE
8
0
10
1199.247646
20
599.465780
11
1199.051400
21
600.945000
0
LINE
8
0
10
1199.051400
20
600.945000
11
1199.247646
21
602.424220
0
LINE
8
0
10
1199.247646
20
602.424220
11
1199.810942
21
603.779650
0
LINE
8
0
10
1199.810942
20
603.779650
11
1200.703130
21
604.945194
0
LINE
8
0
10
1200.703130
20
604.945194
11
1201.886050
21
605.854758
0
LINE
8
0
10
1201.886050
20
605.854758
11
1203.265215
21
606.424414
0
LINE
8
0
10
1203.265215
20
606.424414
11
1204.720700
21
606.614300
0
LINE
8
0
10
1204.720700
20
606.614300
11
1206.176185
21
606.424414
0
LINE
8
0
10
1206.176185
20
606.424414
11
1207.555350
21
605.854758
0
LINE
8
0
10
1207.555350
20
605.854758
11
1208.738270
21
604.945194
0
LINE
8
0
10
1208.738270
20
604.945194
11
1209.630458
21
603.779650
0
LINE
8
0
10
1209.630458
20
603.779650
11
1210.193754
21
602.424220
0
LINE
8
0
10
1210.193754
20
602.424220
11
1210.390000
21
600.945000
0
LINE
8
0
10
1210.390000
20
600.945000
11
1210.390000
21
600.945000
0
LINE
8
0
10
1095.810000
20
561.638000
11
1166.630100
21
561.638000
0
LINE
8
0
10
1166.630100
20
561.638000
11
1183.661700
21
547.803300
0
LINE
8
0
10
1183.661700
20
547.803300
11
1171.910400
21
534.425500
0
LINE
8
0
10
1171.910400
20
534.425500
11
1101.090200
21
534.425500
0
LINE
8
0
10
1101.090200
20
534.425500
11
1084.058600
21
548.260300
0
LINE
8
0
10
1084.058600
20
548.260300
11
1095.810000
21
561.638000
0
LINE
8
0
10
1080.670000
20
546.142000
11
1079.168525
21
545.801179
0
LINE
8
0
10
1079.168525
20
545.801179
11
1077.780663
21
545.170930
0
LINE
8
0
10
1077.780663
20
545.170930
11
1076.547414
21
544.275122
0
LINE
8
0
10
1076.547414
20
544.275122
11
1075.509778
21
543.137626
0
LINE
8
0
10
1075.509778
20
543.137626
11
1074.724088
21
541.813511
0
LINE
8
0
10
1074.724088
20
541.813511
11
1074.226606
21
540.372718
0
LINE
8
0
10
1074.226606
20
540.372718
11
1074.028215
21
538.861422
0
LINE
8
0
10
1074.028215
20
538.861422
11
1074.139800
21
537.325800
0
LINE
8
0
10
1074.139800
20
537.325800
11
1088.274400
21
457.164800
0
LINE
8
0
10
1088.274400
20
457.164800
11
1088.956767
21
454.355826
0
LINE
8
0
10
1088.956767
20
454.355826
11
1089.986106
21
451.667031
0
LINE
8
0
10
1089.986106
20
451.667031
11
1091.347816
21
449.130320
0
LINE
8
0
10
1091.347816
20
449.130320
11
1093.027300
21
446.777600
0
LINE
8
0
10
1093.027300
20
446.777600
11
1111.689500
21
468.022800
0
LINE
8
0
10
1111.689500
20
468.022800
11
1100.797900
21
529.792100
0
LINE
8
0
10
1100.797900
20
529.792100
11
1080.670000
21
546.142000
0
LINE
8
0
10
983.080000
20
652.015000
11
964.115000
21
630.425000
0
LINE
8
0
10
964.115000
20
630.425000
11
897.074400
21
630.425000
0
LINE
8
0
10
897.074400
20
630.425000
11
870.319200
21
652.158200
0
LINE
8
0
10
870.319200
20
652.158200
11
871.459492
21
653.390051
0
LINE
8
0
10
871.459492
20
653.390051
11
872.717218
21
654.478464
0
LINE
8
0
10
872.717218
20
654.478464
11
874.078743
21
655.417025
0
LINE
8
0
10
874.078743
20
655.417025
11
875.530435
21
656.199321
0
LINE
8
0
10
875.530435
20
656.199321
11
877.058660
21
656.818937
0
LINE
8
0
10
877.058660
20
656.818937
11
878.649785
21
657.269460
0
LINE
8
0
10
878.649785
20
657.269460
11
880.290176
21
657.544475
0
LINE
8
0
10
880.290176
20
657.544475
11
881.966200
21
657.637570
0
LINE
8
0
10
881.966200
20
657.637570
11
968.133300
21
657.637570
0
LINE
8
0
10
968.133300
20
657.637570
11
970.184768
21
657.544627
0
LINE
8
0
10
970.184768
20
657.544627
11
972.207085
21
657.268708
0
LINE
8
0
10
972.207085
20
657.268708
11
974.188663
21
656.814173
0
LINE
8
0
10
974.188663
20
656.814173
11
976.117913
21
656.185379
0
LINE
8
0
10
976.117913
20
656.185379
11
977.983250
21
655.386687
0
LINE
8
0
10
977.983250
20
655.386687
11
979.773085
21
654.422456
0
LINE
8
0
10
979.773085
20
654.422456
11
981.475831
21
653.297043
0
LINE
8
0
10
981.475831
20
653.297043
11
983.079900
21
652.014810
0
LINE
8
0
10
983.079900
20
652.014810
11
983.080000
21
652.015000
0
LINE
8
0
10
906.684000
20
444.048000
11
925.648900
21
465.637800
0
LINE
8
0
10
925.648900
20
465.637800
11
992.689500
21
465.637800
0
LINE
8
0
10
992.689500
20
465.637800
11
1019.444600
21
443.904600
0
LINE
8
0
10
1019.444600
20
443.904600
11
1018.304317
21
442.672758
0
LINE
8
0
10
1018.304317
20
442.672758
11
1017.046602
21
441.584352
0
LINE
8
0
10
1017.046602
20
441.584352
11
1015.685089
21
440.645795
0
LINE
8
0
10
1015.685089
20
440.645795
11
1014.233410
21
439.863501
0
LINE
8
0
10
1014.233410
20
439.863501
11
1012.705199
21
439.243884
0
LINE
8
0
10
1012.705199
20
439.243884
11
1011.114088
21
438.793357
0
LINE
8
0
10
1011.114088
20
438.793357
11
1009.473711
21
438.518334
0
LINE
8
0
10
1009.473711
20
438.518334
11
1007.797700
21
438.425230
0
LINE
8
0
10
1007.797700
20
438.425230
11
921.630500
21
438.425230
0
LINE
8
0
10
921.630500
20
438.425230
11
919.579032
21
438.518173
0
LINE
8
0
10
919.579032
20
438.518173
11
917.556715
21
438.794092
0
LINE
8
0
10
917.556715
20
438.794092
11
915.575137
21
439.248627
0
LINE
8
0
10
915.575137
20
439.248627
11
913.645887
21
439.877421
0
LINE
8
0
10
913.645887
20
439.877421
11
911.780550
21
440.676113
0
LINE
8
0
10
911.780550
20
440.676113
11
909.990715
21
441.640344
0
LINE
8
0
10
909.990715
20
441.640344
11
908.287969
21
442.765757
0
LINE
8
0
10
908.287969
20
442.765757
11
906.683900
21
444.047990
0
LINE
8
0
10
906.683900
20
444.047990
11
906.684000
21
444.048000
0
LINE
8
0
10
990.466000
20
638.898000
11
1004.600500
21
558.737000
0
LINE
8
0
10
1004.600500
20
558.737000
11
1004.712089
21
557.201382
0
LINE
8
0
10
1004.712089
20
557.201382
11
1004.513703
21
555.690089
0
LINE
8
0
10
1004.513703
20
555.690089
11
1004.016226
21
554.249298
0
LINE
8
0
10
1004.016226
20
554.249298
11
1003.230544
21
552.925184
0
LINE
8
0
10
1003.230544
20
552.925184
11
1002.192915
21
551.787686
0
LINE
8
0
10
1002.192915
20
551.787686
11
1000.959674
21
550.891874
0
LINE
8
0
10
1000.959674
20
550.891874
11
999.571819
21
550.261619
0
LINE
8
0
10
999.571819
20
550.261619
11
998.070350
21
549.920790
0
LINE
8
0
10
998.070350
20
549.920790
11
977.942450
21
566.270690
0
LINE
8
0
10
977.942450
20
566.270690
11
967.050850
21
628.039990
0
LINE
8
0
10
967.050850
20
628.039990
11
985.713050
21
649.285190
0
LINE
8
0
10
985.713050
20
649.285190
11
987.392539
21
646.932471
0
LINE
8
0
10
987.392539
20
646.932471
11
988.754255
21
644.395760
0
LINE
8
0
10
988.754255
20
644.395760
11
989.783598
21
641.706965
0
LINE
8
0
10
989.783598
20
641.706965
11
990.465970
21
638.897990
0
LINE
8
0
10
990.465970
20
638.897990
11
990.466000
21
638.898000
0
LINE
8
0
10
1027.840000
20
630.425000
11
1027.734597
21
628.769545
0
LINE
8
0
10
1027.734597
20
628.769545
11
1027.415920
21
627.163670
0
LINE
8
0
10
1027.415920
20
627.163670
11
1026.894483
21
625.625668
0
LINE
8
0
10
1026.894483
20
625.625668
11
1026.180805
21
624.173835
0
LINE
8
0
10
1026.180805
20
624.173835
11
1025.285400
21
622.826464
0
LINE
8
0
10
1025.285400
20
622.826464
11
1024.218785
21
621.601850
0
LINE
8
0
10
1024.218785
20
621.601850
11
1022.991477
21
620.518288
0
LINE
8
0
10
1022.991477
20
620.518288
11
1021.613992
21
619.594073
0
LINE
8
0
10
1021.613992
20
619.594073
11
1020.126238
21
618.860434
0
LINE
8
0
10
1020.126238
20
618.860434
11
1018.575178
21
618.336406
0
LINE
8
0
10
1018.575178
20
618.336406
11
1016.981915
21
618.021989
0
LINE
8
0
10
1016.981915
20
618.021989
11
1015.367550
21
617.917184
0
LINE
8
0
10
1015.367550
20
617.917184
11
1013.753185
21
618.021989
0
LINE
8
0
10
1013.753185
20
618.021989
11
1012.159922
21
618.336406
0
LINE
8
0
10
1012.159922
20
618.336406
11
1010.608862
21
618.860434
0
LINE
8
0
10
1010.608862
20
618.860434
11
1009.121108
21
619.594073
0
LINE
8
0
10
1009.121108
20
619.594073
11
1007.743623
21
620.518288
0
LINE
8
0
10
1007.743623
20
620.518288
11
1006.516315
21
621.601850
0
LINE
8
0
10
1006.516315
20
621.601850
11
1005.449700
21
622.826464
0
LINE
8
0
10
1005.449700
20
622.826464
11
1004.554295
21
624.173835
0
LINE
8
0
10
1004.554295
20
624.173835
11
1003.840617
21
625.625668
0
LINE
8
0
10
1003.840617
20
625.625668
11
1003.319180
21
627.163670
0
LINE
8
0
10
1003.319180
20
627.163670
11
1003.000503
21
628.769545
0
LINE
8
0
10
1003.000503
20
628.769545
11
1002.895100
21
630.425000
0
LINE
8
0
10
1002.895100
20
630.425000
11
1003.000503
21
632.080455
0
LINE
8
0
10
1003.000503
20
632.080455
11
1003.319180
21
633.686330
0
LINE
8
0
10
1003.319180
20
633.686330
11
1003.840617
21
635.224332
0
LINE
8
0
10
1003.840617
20
635.224332
11
1004.554295
21
636.676165
0
LINE
8
0
10
1004.554295
20
636.676165
11
1005.449700
21
638.023536
0
LINE
8
0
10
1005.449700
20
638.023536
11
1006.516315
21
639.248150
0
LINE
8
0
10
1006.516315
20
639.248150
11
1007.743623
21
640.331712
0
LINE
8
0
10
1007.743623
20
640.331712
11
1009.121108
21
641.255927
0
LINE
8
0
10
1009.121108
20
641.255927
11
1010.608862
21
641.989566
0
LINE
8
0
10
1010.608862
20
641.989566
11
1012.159922
21
642.513594
0
LINE
8
0
10
1012.159922
20
642.513594
11
1013.753185
21
642.828011
0
LINE
8
0
10
1013.753185
20
642.828011
11
1015.367550
21
642.932816
0
LINE
8
0
10
1015.367550
20
642.932816
11
1016.981915
21
642.828011
0
LINE
8
0
10
1016.981915
20
642.828011
11
1018.575178
21
642.513594
0
LINE
8
0
10
1018.575178
20
642.513594
11
1020.126238
21
641.989566
0
LINE
8
0
10
1020.126238
20
641.989566
11
1021.613992
21
641.255927
0
LINE
8
0
10
1021.613992
20
641.255927
11
1022.991477
21
640.331712
0
LINE
8
0
10
1022.991477
20
640.331712
11
1024.218785
21
639.248150
0
LINE
8
0
10
1024.218785
20
639.248150
11
1025.285400
21
638.023536
0
LINE
8
0
10
1025.285400
20
638.023536
11
1026.180805
21
636.676165
0
LINE
8
0
10
1026.180805
20
636.676165
11
1026.894483
21
635.224332
0
LINE
8
0
10
1026.894483
20
635.224332
11
1027.415920
21
633.686330
0
LINE
8
0
10
1027.415920
20
633.686330
11
1027.734597
21
632.080455
0
LINE
8
0
10
1027.734597
20
632.080455
11
1027.840000
21
630.425000
0
LINE
8
0
10
1027.840000
20
630.425000
11
1027.840000
21
630.425000
0
LINE
8
0
10
879.685000
20
495.118000
11
879.488749
21
493.638782
0
LINE
8
0
10
879.488749
20
493.638782
11
878.925450
21
492.283355
0
LINE
8
0
10
878.925450
20
492.283355
11
878.033263
21
491.117813
0
LINE
8
0
10
878.033263
20
491.117813
11
876.850345
21
490.208251
0
LINE
8
0
10
876.850345
20
490.208251
11
875.471182
21
489.638595
0
LINE
8
0
10
875.471182
20
489.638595
11
874.015700
21
489.448710
0
LINE
8
0
10
874.015700
20
489.448710
11
872.560218
21
489.638595
0
LINE
8
0
10
872.560218
20
489.638595
11
871.181055
21
490.208251
0
LINE
8
0
10
871.181055
20
490.208251
11
869.998137
21
491.117813
0
LINE
8
0
10
869.998137
20
491.117813
11
869.105951
21
492.283355
0
LINE
8
0
10
869.105951
20
492.283355
11
868.542655
21
493.638782
0
LINE
8
0
10
868.542655
20
493.638782
11
868.346410
21
495.118000
0
LINE
8
0
10
868.346410
20
495.118000
11
868.542658
21
496.597218
0
LINE
8
0
10
868.542658
20
496.597218
11
869.105955
21
497.952645
0
LINE
8
0
10
869.105955
20
497.952645
11
869.998142
21
499.118187
0
LINE
8
0
10
869.998142
20
499.118187
11
871.181060
21
500.027749
0
LINE
8
0
10
871.181060
20
500.027749
11
872.560223
21
500.597405
0
LINE
8
0
10
872.560223
20
500.597405
11
874.015705
21
500.787290
0
LINE
8
0
10
874.015705
20
500.787290
11
875.471187
21
500.597405
0
LINE
8
0
10
875.471187
20
500.597405
11
876.850350
21
500.027749
0
LINE
8
0
10
876.850350
20
500.027749
11
878.033268
21
499.118187
0
LINE
8
0
10
878.033268
20
499.118187
11
878.925454
21
497.952645
0
LINE
8
0
10
878.925454
20
497.952645
11
879.488750
21
496.597218
0
LINE
8
0
10
879.488750
20
496.597218
11
879.684995
21
495.118000
0
LINE
8
0
10
879.684995
20
495.118000
11
879.685000
21
495.118000
0
LINE
8
0
10
950.551000
20
495.118000
11
950.354749
21
493.638782
0
LINE
8
0
10
950.354749
20
493.638782
11
949.791450
21
492.283355
0
LINE
8
0
10
949.791450
20
492.283355
11
948.899263
21
491.117813
0
LINE
8
0
10
948.899263
20
491.117813
11
947.716345
21
490.208251
0
LINE
8
0
10
947.716345
20
490.208251
11
946.337182
21
489.638595
0
LINE
8
0
10
946.337182
20
489.638595
11
944.881700
21
489.448710
0
LINE
8
0
10
944.881700
20
489.448710
11
943.426218
21
489.638595
0
LINE
8
0
10
943.426218
20
489.638595
11
942.047055
21
490.208251
0
LINE
8
0
10
942.047055
20
490.208251
11
940.864137
21
491.117813
0
LINE
8
0
10
940.864137
20
491.117813
11
939.971951
21
492.283355
0
LINE
8
0
10
939.971951
20
492.283355
11
939.408655
21
493.638782
0
LINE
8
0
10
939.408655
20
493.638782
11
939.212410
21
495.118000
0
LINE
8
0
10
939.212410
20
495.118000
11
939.408658
21
496.597218
0
LINE
8
0
10
939.408658
20
496.597218
11
939.971955
21
497.952645
0
LINE
8
0
10
939.971955
20
497.952645
11
940.864142
21
499.118187
0
LINE
8
0
10
940.864142
20
499.118187
11
942.047060
21
500.027749
0
LINE
8
0
10
942.047060
20
500.027749
11
943.426223
21
500.597405
0
LINE
8
0
10
943.426223
20
500.597405
11
944.881705
21
500.787290
0
LINE
8
0
10
944.881705
20
500.787290
11
946.337187
21
500.597405
0
LINE
8
0
10
946.337187
20
500.597405
11
947.716350
21
500.027749
0
LINE
8
0
10
947.716350
20
500.027749
11
948.899268
21
499.118187
0
LINE
8
0
10
948.899268
20
499.118187
11
949.791454
21
497.952645
0
LINE
8
0
10
949.791454
20
497.952645
11
950.354750
21
496.597218
0
LINE
8
0
10
950.354750
20
496.597218
11
950.550995
21
495.118000
0
LINE
8
0
10
950.550995
20
495.118000
11
950.551000
21
495.118000
0
LINE
8
0
10
950.551000
20
600.945000
11
950.354749
21
599.465782
0
LINE
8
0
10
950.354749
20
599.465782
11
949.791450
21
598.110355
0
LINE
8
0
10
949.791450
20
598.110355
11
948.899263
21
596.944813
0
LINE
8
0
10
948.899263
20
596.944813
11
947.716345
21
596.035251
0
LINE
8
0
10
947.716345
20
596.035251
11
946.337182
21
595.465595
0
LINE
8
0
10
946.337182
20
595.465595
11
944.881700
21
595.275710
0
LINE
8
0
10
944.881700
20
595.275710
11
943.426218
21
595.465595
0
LINE
8
0
10
943.426218
20
595.465595
11
942.047055
21
596.035251
0
LINE
8
0
10
942.047055
20
596.035251
11
940.864137
21
596.944813
0
LINE
8
0
10
940.864137
20
596.944813
11
939.971951
21
598.110355
0
LINE
8
0
10
939.971951
20
598.110355
11
939.408655
21
599.465782
0
LINE
8
0
10
939.408655
20
599.465782
11
939.212410
21
600.945000
0
LINE
8
0
10
939.212410
20
600.945000
11
939.408658
21
602.424218
0
LINE
8
0
10
939.408658
20
602.424218
11
939.971955
21
603.779645
0
LINE
8
0
10
939.971955
20
603.779645
11
940.864142
21
604.945187
0
LINE
8
0
10
940.864142
20
604.945187
11
942.047060
21
605.854749
0
LINE
8
0
10
942.047060
20
605.854749
11
943.426223
21
606.424405
0
LINE
8
0
10
943.426223
20
606.424405
11
944.881705
21
606.614290
0
LINE
8
0
10
944.881705
20
606.614290
11
946.337187
21
606.424405
0
LINE
8
0
10
946.337187
20
606.424405
11
947.716350
21
605.854749
0
LINE
8
0
10
947.716350
20
605.854749
11
948.899268
21
604.945187
0
LINE
8
0
10
948.899268
20
604.945187
11
949.791454
21
603.779645
0
LINE
8
0
10
949.791454
20
603.779645
11
950.354750
21
602.424218
0
LINE
8
0
10
950.354750
20
602.424218
11
950.550995
21
600.945000
0
LINE
8
0
10
950.550995
20
600.945000
11
950.551000
21
600.945000
0
LINE
8
0
10
886.866000
20
465.638000
11
886.756300
21
463.985911
0
LINE
8
0
10
886.756300
20
463.985911
11
886.434233
21
462.383731
0
LINE
8
0
10
886.434233
20
462.383731
11
885.910292
21
460.849635
0
LINE
8
0
10
885.910292
20
460.849635
11
885.194971
21
459.401800
0
LINE
8
0
10
885.194971
20
459.401800
11
884.298763
21
458.058402
0
LINE
8
0
10
884.298763
20
458.058402
11
883.232162
21
456.837616
0
LINE
8
0
10
883.232162
20
456.837616
11
882.005659
21
455.757618
0
LINE
8
0
10
882.005659
20
455.757618
11
880.629750
21
454.836585
0
LINE
8
0
10
880.629750
20
454.836585
11
879.144157
21
454.105529
0
LINE
8
0
10
879.144157
20
454.105529
11
877.595601
21
453.583346
0
LINE
8
0
10
877.595601
20
453.583346
11
876.005069
21
453.270037
0
LINE
8
0
10
876.005069
20
453.270037
11
874.393550
21
453.165600
0
LINE
8
0
10
874.393550
20
453.165600
11
872.782031
21
453.270037
0
LINE
8
0
10
872.782031
20
453.270037
11
871.191499
21
453.583346
0
LINE
8
0
10
871.191499
20
453.583346
11
869.642943
21
454.105529
0
LINE
8
0
10
869.642943
20
454.105529
11
868.157350
21
454.836585
0
LINE
8
0
10
868.157350
20
454.836585
11
866.781441
21
455.757618
0
LINE
8
0
10
866.781441
20
455.757618
11
865.554939
21
456.837616
0
LINE
8
0
10
865.554939
20
456.837616
11
864.488339
21
458.058402
0
LINE
8
0
10
864.488339
20
458.058402
11
863.592135
21
459.401800
0
LINE
8
0
10
863.592135
20
459.401800
11
862.876820
21
460.849635
0
LINE
8
0
10
862.876820
20
460.849635
11
862.352888
21
462.383731
0
LINE
8
0
10
862.352888
20
462.383731
11
862.030833
21
463.985911
0
LINE
8
0
10
862.030833
20
463.985911
11
861.921150
21
465.638000
0
LINE
8
0
10
861.921150
20
465.638000
11
862.030842
21
467.290089
0
LINE
8
0
10
862.030842
20
467.290089
11
862.352902
21
468.892269
0
LINE
8
0
10
862.352902
20
468.892269
11
862.876839
21
470.426365
0
LINE
8
0
10
862.876839
20
470.426365
11
863.592157
21
471.874200
0
LINE
8
0
10
863.592157
20
471.874200
11
864.488363
21
473.217598
0
LINE
8
0
10
864.488363
20
473.217598
11
865.554964
21
474.438384
0
LINE
8
0
10
865.554964
20
474.438384
11
866.781466
21
475.518382
0
LINE
8
0
10
866.781466
20
475.518382
11
868.157375
21
476.439415
0
LINE
8
0
10
868.157375
20
476.439415
11
869.642968
21
477.170471
0
LINE
8
0
10
869.642968
20
477.170471
11
871.191524
21
477.692654
0
LINE
8
0
10
871.191524
20
477.692654
11
872.782056
21
478.005963
0
LINE
8
0
10
872.782056
20
478.005963
11
874.393575
21
478.110400
0
LINE
8
0
10
874.393575
20
478.110400
11
876.005094
21
478.005963
0
LINE
8
0
10
876.005094
20
478.005963
11
877.595626
21
477.692654
0
LINE
8
0
10
877.595626
20
477.692654
11
879.144182
21
477.170471
0
LINE
8
0
10
879.144182
20
477.170471
11
880.629775
21
476.439415
0
LINE
8
0
10
880.629775
20
476.439415
11
882.005684
21
475.518382
0
LINE
8
0
10
882.005684
20
475.518382
11
883.232186
21
474.438384
0
LINE
8
0
10
883.232186
20
474.438384
11
884.298786
21
473.217598
0
LINE
8
0
10
884.298786
20
473.217598
11
885.194990
21
471.874200
0
LINE
8
0
10
885.194990
20
471.874200
11
885.910305
21
470.426365
0
LINE
8
0
10
885.910305
20
470.426365
11
886.434237
21
468.892269
0
LINE
8
0
10
886.434237
20
468.892269
11
886.756292
21
467.290089
0
LINE
8
0
10
886.756292
20
467.290089
11
886.865975
21
465.638000
0
LINE
8
0
10
886.865975
20
465.638000
11
886.866000
21
465.638000
0
LINE
8
0
10
1021.420000
20
600.945000
11
1021.223754
21
599.465780
0
LINE
8
0
10
1021.223754
20
599.465780
11
1020.660458
21
598.110350
0
LINE
8
0
10
1020.660458
20
598.110350
11
1019.768270
21
596.944806
0
LINE
8
0
10
1019.768270
20
596.944806
11
1018.585350
21
596.035242
0
LINE
8
0
10
1018.585350
20
596.035242
11
1017.206185
21
595.465586
0
LINE
8
0
10
1017.206185
20
595.465586
11
1015.750700
21
595.275700
0
LINE
8
0
10
1015.750700
20
595.275700
11
1014.295215
21
595.465586
0
LINE
8
0
10
1014.295215
20
595.465586
11
1012.916050
21
596.035242
0
LINE
8
0
10
1012.916050
20
596.035242
11
1011.733130
21
596.944806
0
LINE
8
0
10
1011.733130
20
596.944806
11
1010.840942
21
598.110350
0
LINE
8
0
10
1010.840942
20
598.110350
11
1010.277646
21
599.465780
0
LINE
8
0
10
1010.277646
20
599.465780
11
1010.081400
21
600.945000
0
LINE
8
0
10
1010.081400
20
600.945000
11
1010.277645
21
602.424221
0
LINE
8
0
10
1010.277645
20
602.424221
11
1010.840942
21
603.779650
0
LINE
8
0
10
1010.840942
20
603.779650
11
1011.733130
21
604.945195
0
LINE
8
0
10
1011.733130
20
604.945195
11
1012.916050
21
605.854759
0
LINE
8
0
10
1012.916050
20
605.854759
11
1014.295215
21
606.424415
0
LINE
8
0
10
1014.295215
20
606.424415
11
1015.750700
21
606.614301
0
LINE
8
0
10
1015.750700
20
606.614301
11
1017.206185
21
606.424415
0
LINE
8
0
10
1017.206185
20
606.424415
11
1018.585350
21
605.854759
0
LINE
8
0
10
1018.585350
20
605.854759
11
1019.768270
21
604.945195
0
LINE
8
0
10
1019.768270
20
604.945195
11
1020.660458
21
603.779650
0
LINE
8
0
10
1020.660458
20
603.779650
11
1021.223755
21
602.424221
0
LINE
8
0
10
1021.223755
20
602.424221
11
1021.420000
21
600.945000
0
LINE
8
0
10
1021.420000
20
600.945000
11
1021.420000
21
600.945000
0
LINE
8
0
10
906.832000
20
561.638000
11
977.652200
21
561.638000
0
LINE
8
0
10
977.652200
20
561.638000
11
994.683000
21
547.803000
0
LINE
8
0
10
994.683000
20
547.803000
11
982.932000
21
534.425000
0
LINE
8
0
10
982.932000
20
534.425000
11
912.111800
21
534.425000
0
LINE
8
0
10
912.111800
20
534.425000
11
895.080200
21
548.259800
0
LINE
8
0
10
895.080200
20
548.259800
11
906.832000
21
561.638000
0
LINE
8
0
10
891.694000
20
546.142000
11
890.192526
21
545.801178
0
LINE
8
0
10
890.192526
20
545.801178
11
888.804666
21
545.170927
0
LINE
8
0
10
888.804666
20
545.170927
11
887.571419
21
544.275119
0
LINE
8
0
10
887.571419
20
544.275119
11
886.533784
21
543.137623
0
LINE
8
0
10
886.533784
20
543.137623
11
885.748096
21
541.813509
0
LINE
8
0
10
885.748096
20
541.813509
11
885.250615
21
540.372716
0
LINE
8
0
10
885.250615
20
540.372716
11
885.052224
21
538.861421
0
LINE
8
0
10
885.052224
20
538.861421
11
885.163810
21
537.325800
0
LINE
8
0
10
885.163810
20
537.325800
11
899.298410
21
457.164800
0
LINE
8
0
10
899.298410
20
457.164800
11
899.980782
21
454.355825
0
LINE
8
0
10
899.980782
20
454.355825
11
901.010125
21
451.667030
0
LINE
8
0
10
901.010125
20
451.667030
11
902.371841
21
449.130319
0
LINE
8
0
10
902.371841
20
449.130319
11
904.051330
21
446.777600
0
LINE
8
0
10
904.051330
20
446.777600
11
922.713530
21
468.022800
0
LINE
8
0
10
922.713530
20
468.022800
11
911.821930
21
529.792100
0
LINE
8
0
10
911.821930
20
529.792100
11
891.694000
21
546.142000
0
LINE
8
0
10
794.103000
20
652.015000
11
775.139000
21
630.425000
0
LINE
8
0
10
775.139000
20
630.425000
11
708.098400
21
630.425000
0
LINE
8
0
10
708.098400
20
630.425000
11
681.343200
21
652.158200
0
LINE
8
0
10
681.343200
20
652.158200
11
682.483492
21
653.390051
0
LINE
8
0
10
682.483492
20
653.390051
11
683.741218
21
654.478464
0
LINE
8
0
10
683.741218
20
654.478464
11
685.102743
21
655.417025
0
LINE
8
0
10
685.102743
20
655.417025
11
686.554435
21
656.199321
0
LINE
8
0
10
686.554435
20
656.199321
11
688.082660
21
656.818937
0
LINE
8
0
10
688.082660
20
656.818937
11
689.673785
21
657.269460
0
LINE
8
0
10
689.673785
20
657.269460
11
691.314176
21
657.544475
0
LINE
8
0
10
691.314176
20
657.544475
11
692.990200
21
657.637570
0
LINE
8
0
10
692.990200
20
657.637570
11
779.157300
21
657.637570
0
LINE
8
0
10
779.157300
20
657.637570
11
781.208768
21
657.544627
0
LINE
8
0
10
781.208768
20
657.544627
11
783.231085
21
657.268708
0
LINE
8
0
10
783.231085
20
657.268708
11
785.212663
21
656.814173
0
LINE
8
0
10
785.212663
20
656.814173
11
787.141913
21
656.185379
0
LINE
8
0
10
787.141913
20
656.185379
11
789.007250
21
655.386687
0
LINE
8
0
10
789.007250
20
655.386687
11
790.797085
21
654.422456
0
LINE
8
0
10
790.797085
20
654.422456
11
792.499831
21
653.297043
0
LINE
8
0
10
792.499831
20
653.297043
11
794.103900
21
652.014810
0
LINE
8
0
10
794.103900
20
652.014810
11
794.103000
21
652.015000
0
LINE
8
0
10
717.708000
20
444.048000
11
736.672900
21
465.637800
0
LINE
8
0
10
736.672900
20
465.637800
11
803.713500
21
465.637800
0
LINE
8
0
10
803.713500
20
465.637800
11
830.468700
21
443.904600
0
LINE
8
0
10
830.468700
20
443.904600
11
829.328357
21
442.672654
0
LINE
8
0
10
829.328357
20
442.672654
11
828.070565
21
441.584163
0
LINE
8
0
10
828.070565
20
441.584163
11
826.708960
21
440.645542
0
LINE
8
0
10
826.708960
20
440.645542
11
825.257179
21
439.863205
0
LINE
8
0
10
825.257179
20
439.863205
11
823.728856
21
439.243567
0
LINE
8
0
10
823.728856
20
439.243567
11
822.137628
21
438.793044
0
LINE
8
0
10
822.137628
20
438.793044
11
820.497131
21
438.518050
0
LINE
8
0
10
820.497131
20
438.518050
11
818.821000
21
438.425000
0
LINE
8
0
10
818.821000
20
438.425000
11
732.653900
21
438.425000
0
LINE
8
0
10
732.653900
20
438.425000
11
730.602432
21
438.517943
0
LINE
8
0
10
730.602432
20
438.517943
11
728.580115
21
438.793862
0
LINE
8
0
10
728.580115
20
438.793862
11
726.598537
21
439.248397
0
LINE
8
0
10
726.598537
20
439.248397
11
724.669287
21
439.877191
0
LINE
8
0
10
724.669287
20
439.877191
11
722.803950
21
440.675883
0
LINE
8
0
10
722.803950
20
440.675883
11
721.014115
21
441.640114
0
LINE
8
0
10
721.014115
20
441.640114
11
719.311369
21
442.765527
0
LINE
8
0
10
719.311369
20
442.765527
11
717.707300
21
444.047760
0
LINE
8
0
10
717.707300
20
444.047760
11
717.708000
21
444.048000
0
LINE
8
0
10
801.490000
20
638.898000
11
815.624600
21
558.737000
0
LINE
8
0
10
815.624600
20
558.737000
11
815.736188
21
557.201379
0
LINE
8
0
10
815.736188
20
557.201379
11
815.537800
21
555.690083
0
LINE
8
0
10
815.537800
20
555.690083
11
815.040320
21
554.249290
0
LINE
8
0
10
815.040320
20
554.249290
11
814.254634
21
552.925174
0
LINE
8
0
10
814.254634
20
552.925174
11
813.217000
21
551.787676
0
LINE
8
0
10
813.217000
20
551.787676
11
811.983753
21
550.891866
0
LINE
8
0
10
811.983753
20
550.891866
11
810.595894
21
550.261614
0
LINE
8
0
10
810.595894
20
550.261614
11
809.094420
21
549.920790
0
LINE
8
0
10
809.094420
20
549.920790
11
788.966520
21
566.270690
0
LINE
8
0
10
788.966520
20
566.270690
11
778.074920
21
628.039990
0
LINE
8
0
10
778.074920
20
628.039990
11
796.737120
21
649.285190
0
LINE
8
0
10
796.737120
20
649.285190
11
798.416609
21
646.932471
0
LINE
8
0
10
798.416609
20
646.932471
11
799.778325
21
644.395760
0
LINE
8
0
10
799.778325
20
644.395760
11
800.807668
21
641.706965
0
LINE
8
0
10
800.807668
20
641.706965
11
801.490040
21
638.897990
0
LINE
8
0
10
801.490040
20
638.897990
11
801.490000
21
638.898000
0
LINE
8
0
10
838.866000
20
630.425000
11
838.756300
21
628.772911
0
LINE
8
0
10
838.756300
20
628.772911
11
838.434233
21
627.170731
0
LINE
8
0
10
838.434233
20
627.170731
11
837.910292
21
625.636635
0
LINE
8
0
10
837.910292
20
625.636635
11
837.194971
21
624.188800
0
LINE
8
0
10
837.194971
20
624.188800
11
836.298763
21
622.845402
0
LINE
8
0
10
836.298763
20
622.845402
11
835.232162
21
621.624616
0
LINE
8
0
10
835.232162
20
621.624616
11
834.005659
21
620.544618
0
LINE
8
0
10
834.005659
20
620.544618
11
832.629750
21
619.623585
0
LINE
8
0
10
832.629750
20
619.623585
11
831.144157
21
618.892529
0
LINE
8
0
10
831.144157
20
618.892529
11
829.595601
21
618.370346
0
LINE
8
0
10
829.595601
20
618.370346
11
828.005069
21
618.057037
0
LINE
8
0
10
828.005069
20
618.057037
11
826.393550
21
617.952600
0
LINE
8
0
10
826.393550
20
617.952600
11
824.782031
21
618.057037
0
LINE
8
0
10
824.782031
20
618.057037
11
823.191499
21
618.370346
0
LINE
8
0
10
823.191499
20
618.370346
11
821.642943
21
618.892529
0
LINE
8
0
10
821.642943
20
618.892529
11
820.157350
21
619.623585
0
LINE
8
0
10
820.157350
20
619.623585
11
818.781441
21
620.544618
0
LINE
8
0
10
818.781441
20
620.544618
11
817.554939
21
621.624616
0
LINE
8
0
10
817.554939
20
621.624616
11
816.488339
21
622.845402
0
LINE
8
0
10
816.488339
20
622.845402
11
815.592135
21
624.188800
0
LINE
8
0
10
815.592135
20
624.188800
11
814.876820
21
625.636635
0
LINE
8
0
10
814.876820
20
625.636635
11
814.352888
21
627.170731
0
LINE
8
0
10
814.352888
20
627.170731
11
814.030833
21
628.772911
0
LINE
8
0
10
814.030833
20
628.772911
11
813.921150
21
630.425000
0
LINE
8
0
10
813.921150
20
630.425000
11
814.030842
21
632.077089
0
LINE
8
0
10
814.030842
20
632.077089
11
814.352902
21
633.679269
0
LINE
8
0
10
814.352902
20
633.679269
11
814.876839
21
635.213365
0
LINE
8
0
10
814.876839
20
635.213365
11
815.592157
21
636.661200
0
LINE
8
0
10
815.592157
20
636.661200
11
816.488363
21
638.004598
0
LINE
8
0
10
816.488363
20
638.004598
11
817.554964
21
639.225384
0
LINE
8
0
10
817.554964
20
639.225384
11
818.781466
21
640.305382
0
LINE
8
0
10
818.781466
20
640.305382
11
820.157375
21
641.226415
0
LINE
8
0
10
820.157375
20
641.226415
11
821.642968
21
641.957471
0
LINE
8
0
10
821.642968
20
641.957471
11
823.191524
21
642.479654
0
LINE
8
0
10
823.191524
20
642.479654
11
824.782056
21
642.792963
0
LINE
8
0
10
824.782056
20
642.792963
11
826.393575
21
642.897400
0
LINE
8
0
10
826.393575
20
642.897400
11
828.005094
21
642.792963
0
LINE
8
0
10
828.005094
20
642.792963
11
829.595626
21
642.479654
0
LINE
8
0
10
829.595626
20
642.479654
11
831.144182
21
641.957471
0
LINE
8
0
10
831.144182
20
641.957471
11
832.629775
21
641.226415
0
LINE
8
0
10
832.629775
20
641.226415
11
834.005684
21
640.305382
0
LINE
8
0
10
834.005684
20
640.305382
11
835.232186
21
639.225384
0
LINE
8
0
10
835.232186
20
639.225384
11
836.298786
21
638.004598
0
LINE
8
0
10
836.298786
20
638.004598
11
837.194990
21
636.661200
0
LINE
8
0
10
837.194990
20
636.661200
11
837.910305
21
635.213365
0
LINE
8
0
10
837.910305
20
635.213365
11
838.434237
21
633.679269
0
LINE
8
0
10
838.434237
20
633.679269
11
838.756292
21
632.077089
0
LINE
8
0
10
838.756292
20
632.077089
11
838.865975
21
630.425000
0
LINE
8
0
10
838.865975
20
630.425000
11
838.866000
21
630.425000
0
LINE
8
0
10
690.709000
20
495.118000
11
690.512749
21
493.638782
0
LINE
8
0
10
690.512749
20
493.638782
11
689.949450
21
492.283355
0
LINE
8
0
10
689.949450
20
492.283355
11
689.057263
21
491.117813
0
LINE
8
0
10
689.057263
20
491.117813
11
687.874345
21
490.208251
0
LINE
8
0
10
687.874345
20
490.208251
11
686.495182
21
489.638595
0
LINE
8
0
10
686.495182
20
489.638595
11
685.039700
21
489.448710
0
LINE
8
0
10
685.039700
20
489.448710
11
683.584218
21
489.638595
0
LINE
8
0
10
683.584218
20
489.638595
11
682.205055
21
490.208251
0
LINE
8
0
10
682.205055
20
490.208251
11
681.022137
21
491.117813
0
LINE
8
0
10
681.022137
20
491.117813
11
680.129951
21
492.283355
0
LINE
8
0
10
680.129951
20
492.283355
11
679.566655
21
493.638782
0
LINE
8
0
10
679.566655
20
493.638782
11
679.370410
21
495.118000
0
LINE
8
0
10
679.370410
20
495.118000
11
679.566658
21
496.597218
0
LINE
8
0
10
679.566658
20
496.597218
11
680.129955
21
497.952645
0
LINE
8
0
10
680.129955
20
497.952645
11
681.022142
21
499.118187
0
LINE
8
0
10
681.022142
20
499.118187
11
682.205060
21
500.027749
0
LINE
8
0
10
682.205060
20
500.027749
11
683.584223
21
500.597405
0
LINE
8
0
10
683.584223
20
500.597405
11
685.039705
21
500.787290
0
LINE
8
0
10
685.039705
20
500.787290
11
686.495187
21
500.597405
0
LINE
8
0
10
686.495187
20
500.597405
11
687.874350
21
500.027749
0
LINE
8
0
10
687.874350
20
500.027749
11
689.057268
21
499.118187
0
LINE
8
0
10
689.057268
20
499.118187
11
689.949454
21
497.952645
0
LINE
8
0
10
689.949454
20
497.952645
11
690.512750
21
496.597218
0
LINE
8
0
10
690.512750
20
496.597218
11
690.708995
21
495.118000
0
LINE
8
0
10
690.708995
20
495.118000
11
690.709000
21
495.118000
0
LINE
8
0
10
761.575000
20
495.118000
11
761.378749
21
493.638782
0
LINE
8
0
10
761.378749
20
493.638782
11
760.815450
21
492.283355
0
LINE
8
0
10
760.815450
20
492.283355
11
759.923263
21
491.117813
0
LINE
8
0
10
759.923263
20
491.117813
11
758.740345
21
490.208251
0
LINE
8
0
10
758.740345
20
490.208251
11
757.361182
21
489.638595
0
LINE
8
0
10
757.361182
20
489.638595
11
755.905700
21
489.448710
0
LINE
8
0
10
755.905700
20
489.448710
11
754.450218
21
489.638595
0
LINE
8
0
10
754.450218
20
489.638595
11
753.071055
21
490.208251
0
LINE
8
0
10
753.071055
20
490.208251
11
751.888137
21
491.117813
0
LINE
8
0
10
751.888137
20
491.117813
11
750.995951
21
492.283355
0
LINE
8
0
10
750.995951
20
492.283355
11
750.432655
21
493.638782
0
LINE
8
0
10
750.432655
20
493.638782
11
750.236410
21
495.118000
0
LINE
8
0
10
750.236410
20
495.118000
11
750.432658
21
496.597218
0
LINE
8
0
10
750.432658
20
496.597218
11
750.995955
21
497.952645
0
LINE
8
0
10
750.995955
20
497.952645
11
751.888142
21
499.118187
0
LINE
8
0
10
751.888142
20
499.118187
11
753.071060
21
500.027749
0
LINE
8
0
10
753.071060
20
500.027749
11
754.450223
21
500.597405
0
LINE
8
0
10
754.450223
20
500.597405
11
755.905705
21
500.787290
0
LINE
8
0
10
755.905705
20
500.787290
11
757.361187
21
500.597405
0
LINE
8
0
10
757.361187
20
500.597405
11
758.740350
21
500.027749
0
LINE
8
0
10
758.740350
20
500.027749
11
759.923268
21
499.118187
0
LINE
8
0
10
759.923268
20
499.118187
11
760.815454
21
497.952645
0
LINE
8
0
10
760.815454
20
497.952645
11
761.378750
21
496.597218
0
LINE
8
0
10
761.378750
20
496.597218
11
761.574995
21
495.118000
0
LINE
8
0
10
761.574995
20
495.118000
11
761.575000
21
495.118000
0
LINE
8
0
10
761.575000
20
600.945000
11
761.378749
21
599.465782
0
LINE
8
0
10
761.378749
20
599.465782
11
760.815450
21
598.110355
0
LINE
8
0
10
760.815450
20
598.110355
11
759.923263
21
596.944813
0
LINE
8
0
10
759.923263
20
596.944813
11
758.740345
21
596.035251
0
LINE
8
0
10
758.740345
20
596.035251
11
757.361182
21
595.465595
0
LINE
8
0
10
757.361182
20
595.465595
11
755.905700
21
595.275710
0
LINE
8
0
10
755.905700
20
595.275710
11
754.450218
21
595.465595
0
LINE
8
0
10
754.450218
20
595.465595
11
753.071055
21
596.035251
0
LINE
8
0
10
753.071055
20
596.035251
11
751.888137
21
596.944813
0
LINE
8
0
10
751.888137
20
596.944813
11
750.995951
21
598.110355
0
LINE
8
0
10
750.995951
20
598.110355
11
750.432655
21
599.465782
0
LINE
8
0
10
750.432655
20
599.465782
11
750.236410
21
600.945000
0
LINE
8
0
10
750.236410
20
600.945000
11
750.432658
21
602.424218
0
LINE
8
0
10
750.432658
20
602.424218
11
750.995955
21
603.779645
0
LINE
8
0
10
750.995955
20
603.779645
11
751.888142
21
604.945187
0
LINE
8
0
10
751.888142
20
604.945187
11
753.071060
21
605.854749
0
LINE
8
0
10
753.071060
20
605.854749
11
754.450223
21
606.424405
0
LINE
8
0
10
754.450223
20
606.424405
11
755.905705
21
606.614290
0
LINE
8
0
10
755.905705
20
606.614290
11
757.361187
21
606.424405
0
LINE
8
0
10
757.361187
20
606.424405
11
758.740350
21
605.854749
0
LINE
8
0
10
758.740350
20
605.854749
11
759.923268
21
604.945187
0
LINE
8
0
10
759.923268
20
604.945187
11
760.815454
21
603.779645
0
LINE
8
0
10
760.815454
20
603.779645
11
761.378750
21
602.424218
0
LINE
8
0
10
761.378750
20
602.424218
11
761.574995
21
600.945000
0
LINE
8
0
10
761.574995
20
600.945000
11
761.575000
21
600.945000
0
LINE
8
0
10
697.890000
20
465.638000
11
697.780300
21
463.985911
0
LINE
8
0
10
697.780300
20
463.985911
11
697.458233
21
462.383731
0
LINE
8
0
10
697.458233
20
462.383731
11
696.934292
21
460.849635
0
LINE
8
0
10
696.934292
20
460.849635
11
696.218971
21
459.401800
0
LINE
8
0
10
696.218971
20
459.401800
11
695.322763
21
458.058402
0
LINE
8
0
10
695.322763
20
458.058402
11
694.256162
21
456.837616
0
LINE
8
0
10
694.256162
20
456.837616
11
693.029659
21
455.757618
0
LINE
8
0
10
693.029659
20
455.757618
11
691.653750
21
454.836585
0
LINE
8
0
10
691.653750
20
454.836585
11
690.168157
21
454.105529
0
LINE
8
0
10
690.168157
20
454.105529
11
688.619601
21
453.583346
0
LINE
8
0
10
688.619601
20
453.583346
11
687.029069
21
453.270037
0
LINE
8
0
10
687.029069
20
453.270037
11
685.417550
21
453.165600
0
LINE
8
0
10
685.417550
20
453.165600
11
683.806031
21
453.270037
0
LINE
8
0
10
683.806031
20
453.270037
11
682.215499
21
453.583346
0
LINE
8
0
10
682.215499
20
453.583346
11
680.666943
21
454.105529
0
LINE
8
0
10
680.666943
20
454.105529
11
679.181350
21
454.836585
0
LINE
8
0
10
679.181350
20
454.836585
11
677.805441
21
455.757618
0
LINE
8
0
10
677.805441
20
455.757618
11
676.578939
21
456.837616
0
LINE
8
0
10
676.578939
20
456.837616
11
675.512339
21
458.058402
0
LINE
8
0
10
675.512339
20
458.058402
11
674.616135
21
459.401800
0
LINE
8
0
10
674.616135
20
459.401800
11
673.900820
21
460.849635
0
LINE
8
0
10
673.900820
20
460.849635
11
673.376888
21
462.383731
0
LINE
8
0
10
673.376888
20
462.383731
11
673.054833
21
463.985911
0
LINE
8
0
10
673.054833
20
463.985911
11
672.945150
21
465.638000
0
LINE
8
0
10
672.945150
20
465.638000
11
673.054842
21
467.290089
0
LINE
8
0
10
673.054842
20
467.290089
11
673.376902
21
468.892269
0
LINE
8
0
10
673.376902
20
468.892269
11
673.900839
21
470.426365
0
LINE
8
0
10
673.900839
20
470.426365
11
674.616157
21
471.874200
0
LINE
8
0
10
674.616157
20
471.874200
11
675.512363
21
473.217598
0
LINE
8
0
10
675.512363
20
473.217598
11
676.578964
21
474.438384
0
LINE
8
0
10
676.578964
20
474.438384
11
677.805466
21
475.518382
0
LINE
8
0
10
677.805466
20
475.518382
11
679.181375
21
476.439415
0
LINE
8
0
10
679.181375
20
476.439415
11
680.666968
21
477.170471
0
LINE
8
0
10
680.666968
20
477.170471
11
682.215524
21
477.692654
0
LINE
8
0
10
682.215524
20
477.692654
11
683.806056
21
478.005963
0
LINE
8
0
10
683.806056
20
478.005963
11
685.417575
21
478.110400
0
LINE
8
0
10
685.417575
20
478.110400
11
687.029094
21
478.005963
0
LINE
8
0
10
687.029094
20
478.005963
11
688.619626
21
477.692654
0
LINE
8
0
10
688.619626
20
477.692654
11
690.168182
21
477.170471
0
LINE
8
0
10
690.168182
20
477.170471
11
691.653775
21
476.439415
0
LINE
8
0
10
691.653775
20
476.439415
11
693.029684
21
475.518382
0
LINE
8
0
10
693.029684
20
475.518382
11
694.256186
21
474.438384
0
LINE
8
0
10
694.256186
20
474.438384
11
695.322786
21
473.217598
0
LINE
8
0
10
695.322786
20
473.217598
11
696.218990
21
471.874200
0
LINE
8
0
10
696.218990
20
471.874200
11
696.934305
21
470.426365
0
LINE
8
0
10
696.934305
20
470.426365
11
697.458237
21
468.892269
0
LINE
8
0
10
697.458237
20
468.892269
11
697.780292
21
467.290089
0
LINE
8
0
10
697.780292
20
467.290089
11
697.889975
21
465.638000
0
LINE
8
0
10
697.889975
20
465.638000
11
697.890000
21
465.638000
0
LINE
8
0
10
832.441000
20
600.945000
11
832.244749
21
599.465782
0
LINE
8
0
10
832.244749
20
599.465782
11
831.681450
21
598.110355
0
LINE
8
0
10
831.681450
20
598.110355
11
830.789263
21
596.944813
0
LINE
8
0
10
830.789263
20
596.944813
11
829.606345
21
596.035251
0
LINE
8
0
10
829.606345
20
596.035251
11
828.227182
21
595.465595
0
LINE
8
0
10
828.227182
20
595.465595
11
826.771700
21
595.275710
0
LINE
8
0
10
826.771700
20
595.275710
11
825.316218
21
595.465595
0
LINE
8
0
10
825.316218
20
595.465595
11
823.937055
21
596.035251
0
LINE
8
0
10
823.937055
20
596.035251
11
822.754137
21
596.944813
0
LINE
8
0
10
822.754137
20
596.944813
11
821.861951
21
598.110355
0
LINE
8
0
10
821.861951
20
598.110355
11
821.298655
21
599.465782
0
LINE
8
0
10
821.298655
20
599.465782
11
821.102410
21
600.945000
0
LINE
8
0
10
821.102410
20
600.945000
11
821.298658
21
602.424218
0
LINE
8
0
10
821.298658
20
602.424218
11
821.861955
21
603.779645
0
LINE
8
0
10
821.861955
20
603.779645
11
822.754142
21
604.945187
0
LINE
8
0
10
822.754142
20
604.945187
11
823.937060
21
605.854749
0
LINE
8
0
10
823.937060
20
605.854749
11
825.316223
21
606.424405
0
LINE
8
0
10
825.316223
20
606.424405
11
826.771705
21
606.614290
0
LINE
8
0
10
826.771705
20
606.614290
11
828.227187
21
606.424405
0
LINE
8
0
10
828.227187
20
606.424405
11
829.606350
21
605.854749
0
LINE
8
0
10
829.606350
20
605.854749
11
830.789268
21
604.945187
0
LINE
8
0
10
830.789268
20
604.945187
11
831.681454
21
603.779645
0
LINE
8
0
10
831.681454
20
603.779645
11
832.244750
21
602.424218
0
LINE
8
0
10
832.244750
20
602.424218
11
832.440995
21
600.945000
0
LINE
8
0
10
832.440995
20
600.945000
11
832.441000
21
600.945000
0
LINE
8
0
10
717.855000
20
561.638000
11
788.675200
21
561.638000
0
LINE
8
0
10
788.675200
20
561.638000
11
805.706800
21
547.803300
0
LINE
8
0
10
805.706800
20
547.803300
11
793.955500
21
534.425500
0
LINE
8
0
10
793.955500
20
534.425500
11
723.135300
21
534.425500
0
LINE
8
0
10
723.135300
20
534.425500
11
706.103700
21
548.260300
0
LINE
8
0
10
706.103700
20
548.260300
11
717.855000
21
561.638000
0
LINE
8
0
10
702.717000
20
546.142000
11
701.215526
21
545.801178
0
LINE
8
0
10
701.215526
20
545.801178
11
699.827666
21
545.170927
0
LINE
8
0
10
699.827666
20
545.170927
11
698.594419
21
544.275119
0
LINE
8
0
10
698.594419
20
544.275119
11
697.556784
21
543.137623
0
LINE
8
0
10
697.556784
20
543.137623
11
696.771096
21
541.813509
0
LINE
8
0
10
696.771096
20
541.813509
11
696.273615
21
540.372716
0
LINE
8
0
10
696.273615
20
540.372716
11
696.075224
21
538.861421
0
LINE
8
0
10
696.075224
20
538.861421
11
696.186810
21
537.325800
0
LINE
8
0
10
696.186810
20
537.325800
11
710.321410
21
457.164800
0
LINE
8
0
10
710.321410
20
457.164800
11
711.003782
21
454.355825
0
LINE
8
0
10
711.003782
20
454.355825
11
712.033125
21
451.667030
0
LINE
8
0
10
712.033125
20
451.667030
11
713.394841
21
449.130319
0
LINE
8
0
10
713.394841
20
449.130319
11
715.074330
21
446.777600
0
LINE
8
0
10
715.074330
20
446.777600
11
733.736530
21
468.022800
0
LINE
8
0
10
733.736530
20
468.022800
11
722.844930
21
529.792100
0
LINE
8
0
10
722.844930
20
529.792100
11
702.717000
21
546.142000
0
LINE
8
0
10
605.127000
20
652.015000
11
586.162000
21
630.425000
0
LINE
8
0
10
586.162000
20
630.425000
11
519.121400
21
630.425000
0
LINE
8
0
10
519.121400
20
630.425000
11
492.366200
21
652.158200
0
LINE
8
0
10
492.366200
20
652.158200
11
493.506492
21
653.390051
0
LINE
8
0
10
493.506492
20
653.390051
11
494.764218
21
654.478464
0
LINE
8
0
10
494.764218
20
654.478464
11
496.125743
21
655.417025
0
LINE
8
0
10
496.125743
20
655.417025
11
497.577435
21
656.199321
0
LINE
8
0
10
497.577435
20
656.199321
11
499.105660
21
656.818937
0
LINE
8
0
10
499.105660
20
656.818937
11
500.696785
21
657.269460
0
LINE
8
0
10
500.696785
20
657.269460
11
502.337176
21
657.544475
0
LINE
8
0
10
502.337176
20
657.544475
11
504.013200
21
657.637570
0
LINE
8
0
10
504.013200
20
657.637570
11
590.180300
21
657.637570
0
LINE
8
0
10
590.180300
20
657.637570
11
592.231768
21
657.544627
0
LINE
8
0
10
592.231768
20
657.544627
11
594.254085
21
657.268708
0
LINE
8
0
10
594.254085
20
657.268708
11
596.235663
21
656.814173
0
LINE
8
0
10
596.235663
20
656.814173
11
598.164913
21
656.185379
0
LINE
8
0
10
598.164913
20
656.185379
11
600.030250
21
655.386687
0
LINE
8
0
10
600.030250
20
655.386687
11
601.820085
21
654.422456
0
LINE
8
0
10
601.820085
20
654.422456
11
603.522831
21
653.297043
0
LINE
8
0
10
603.522831
20
653.297043
11
605.126900
21
652.014810
0
LINE
8
0
10
605.126900
20
652.014810
11
605.127000
21
652.015000
0
LINE
8
0
10
528.731000
20
444.048000
11
547.695900
21
465.637800
0
LINE
8
0
10
547.695900
20
465.637800
11
614.736500
21
465.637800
0
LINE
8
0
10
614.736500
20
465.637800
11
641.491700
21
443.904600
0
LINE
8
0
10
641.491700
20
443.904600
11
640.351408
21
442.672749
0
LINE
8
0
10
640.351408
20
442.672749
11
639.093682
21
441.584336
0
LINE
8
0
10
639.093682
20
441.584336
11
637.732157
21
440.645775
0
LINE
8
0
10
637.732157
20
440.645775
11
636.280465
21
439.863479
0
LINE
8
0
10
636.280465
20
439.863479
11
634.752240
21
439.243863
0
LINE
8
0
10
634.752240
20
439.243863
11
633.161115
21
438.793340
0
LINE
8
0
10
633.161115
20
438.793340
11
631.520724
21
438.518325
0
LINE
8
0
10
631.520724
20
438.518325
11
629.844700
21
438.425230
0
LINE
8
0
10
629.844700
20
438.425230
11
543.677600
21
438.425230
0
LINE
8
0
10
543.677600
20
438.425230
11
541.626132
21
438.518173
0
LINE
8
0
10
541.626132
20
438.518173
11
539.603815
21
438.794092
0
LINE
8
0
10
539.603815
20
438.794092
11
537.622237
21
439.248627
0
LINE
8
0
10
537.622237
20
439.248627
11
535.692987
21
439.877421
0
LINE
8
0
10
535.692987
20
439.877421
11
533.827650
21
440.676113
0
LINE
8
0
10
533.827650
20
440.676113
11
532.037815
21
441.640344
0
LINE
8
0
10
532.037815
20
441.640344
11
530.335069
21
442.765757
0
LINE
8
0
10
530.335069
20
442.765757
11
528.731000
21
444.047990
0
LINE
8
0
10
528.731000
20
444.047990
11
528.731000
21
444.048000
0
LINE
8
0
10
612.513000
20
638.898000
11
626.647600
21
558.737000
0
LINE
8
0
10
626.647600
20
558.737000
11
626.759188
21
557.201379
0
LINE
8
0
10
626.759188
20
557.201379
11
626.560800
21
555.690083
0
LINE
8
0
10
626.560800
20
555.690083
11
626.063320
21
554.249290
0
LINE
8
0
10
626.063320
20
554.249290
11
625.277634
21
552.925174
0
LINE
8
0
10
625.277634
20
552.925174
11
624.240000
21
551.787676
0
LINE
8
0
10
624.240000
20
551.787676
11
623.006753
21
550.891866
0
LINE
8
0
10
623.006753
20
550.891866
11
621.618894
21
550.261614
0
LINE
8
0
10
621.618894
20
550.261614
11
620.117420
21
549.920790
0
LINE
8
0
10
620.117420
20
549.920790
11
599.989520
21
566.270690
0
LINE
8
0
10
599.989520
20
566.270690
11
589.097920
21
628.039990
0
LINE
8
0
10
589.097920
20
628.039990
11
607.760120
21
649.285190
0
LINE
8
0
10
607.760120
20
649.285190
11
609.439609
21
646.932471
0
LINE
8
0
10
609.439609
20
646.932471
11
610.801325
21
644.395760
0
LINE
8
0
10
610.801325
20
644.395760
11
611.830668
21
641.706965
0
LINE
8
0
10
611.830668
20
641.706965
11
612.513040
21
638.897990
0
LINE
8
0
10
612.513040
20
638.897990
11
612.513000
21
638.898000
0
LINE
8
0
10
649.890000
20
630.425000
11
649.780300
21
628.772911
0
LINE
8
0
10
649.780300
20
628.772911
11
649.458233
21
627.170731
0
LINE
8
0
10
649.458233
20
627.170731
11
648.934292
21
625.636635
0
LINE
8
0
10
648.934292
20
625.636635
11
648.218971
21
624.188800
0
LINE
8
0
10
648.218971
20
624.188800
11
647.322763
21
622.845402
0
LINE
8
0
10
647.322763
20
622.845402
11
646.256162
21
621.624616
0
LINE
8
0
10
646.256162
20
621.624616
11
645.029659
21
620.544618
0
LINE
8
0
10
645.029659
20
620.544618
11
643.653750
21
619.623585
0
LINE
8
0
10
643.653750
20
619.623585
11
642.168157
21
618.892529
0
LINE
8
0
10
642.168157
20
618.892529
11
640.619601
21
618.370346
0
LINE
8
0
10
640.619601
20
618.370346
11
639.029069
21
618.057037
0
LINE
8
0
10
639.029069
20
618.057037
11
637.417550
21
617.952600
0
LINE
8
0
10
637.417550
20
617.952600
11
635.806031
21
618.057037
0
LINE
8
0
10
635.806031
20
618.057037
11
634.215499
21
618.370346
0
LINE
8
0
10
634.215499
20
618.370346
11
632.666943
21
618.892529
0
LINE
8
0
10
632.666943
20
618.892529
11
631.181350
21
619.623585
0
LINE
8
0
10
631.181350
20
619.623585
11
629.805441
21
620.544618
0
LINE
8
0
10
629.805441
20
620.544618
11
628.578939
21
621.624616
0
LINE
8
0
10
628.578939
20
621.624616
11
627.512339
21
622.845402
0
LINE
8
0
10
627.512339
20
622.845402
11
626.616135
21
624.188800
0
LINE
8
0
10
626.616135
20
624.188800
11
625.900820
21
625.636635
0
LINE
8
0
10
625.900820
20
625.636635
11
625.376888
21
627.170731
0
LINE
8
0
10
625.376888
20
627.170731
11
625.054833
21
628.772911
0
LINE
8
0
10
625.054833
20
628.772911
11
624.945150
21
630.425000
0
LINE
8
0
10
624.945150
20
630.425000
11
625.054842
21
632.077089
0
LINE
8
0
10
625.054842
20
632.077089
11
625.376902
21
633.679269
0
LINE
8
0
10
625.376902
20
633.679269
11
625.900839
21
635.213365
0
LINE
8
0
10
625.900839
20
635.213365
11
626.616157
21
636.661200
0
LINE
8
0
10
626.616157
20
636.661200
11
627.512363
21
638.004598
0
LINE
8
0
10
627.512363
20
638.004598
11
628.578964
21
639.225384
0
LINE
8
0
10
628.578964
20
639.225384
11
629.805466
21
640.305382
0
LINE
8
0
10
629.805466
20
640.305382
11
631.181375
21
641.226415
0
LINE
8
0
10
631.181375
20
641.226415
11
632.666968
21
641.957471
0
LINE
8
0
10
632.666968
20
641.957471
11
634.215524
21
642.479654
0
LINE
8
0
10
634.215524
20
642.479654
11
635.806056
21
642.792963
0
LINE
8
0
10
635.806056
20
642.792963
11
637.417575
21
642.897400
0
LINE
8
0
10
637.417575
20
642.897400
11
639.029094
21
642.792963
0
LINE
8
0
10
639.029094
20
642.792963
11
640.619626
21
642.479654
0
LINE
8
0
10
640.619626
20
642.479654
11
642.168182
21
641.957471
0
LINE
8
0
10
642.168182
20
641.957471
11
643.653775
21
641.226415
0
LINE
8
0
10
643.653775
20
641.226415
11
645.029684
21
640.305382
0
LINE
8
0
10
645.029684
20
640.305382
11
646.256186
21
639.225384
0
LINE
8
0
10
646.256186
20
639.225384
11
647.322786
21
638.004598
0
LINE
8
0
10
647.322786
20
638.004598
11
648.218990
21
636.661200
0
LINE
8
0
10
648.218990
20
636.661200
11
648.934305
21
635.213365
0
LINE
8
0
10
648.934305
20
635.213365
11
649.458237
21
633.679269
0
LINE
8
0
10
649.458237
20
633.679269
11
649.780292
21
632.077089
0
LINE
8
0
10
649.780292
20
632.077089
11
649.889975
21
630.425000
0
LINE
8
0
10
649.889975
20
630.425000
11
649.890000
21
630.425000
0
LINE
8
0
10
501.732000
20
495.118000
11
501.535749
21
493.638782
0
LINE
8
0
10
501.535749
20
493.638782
11
500.972450
21
492.283355
0
LINE
8
0
10
500.972450
20
492.283355
11
500.080263
21
491.117813
0
LINE
8
0
10
500.080263
20
491.117813
11
498.897345
21
490.208251
0
LINE
8
0
10
498.897345
20
490.208251
11
497.518182
21
489.638595
0
LINE
8
0
10
497.518182
20
489.638595
11
496.062700
21
489.448710
0
LINE
8
0
10
496.062700
20
489.448710
11
494.607218
21
489.638595
0
LINE
8
0
10
494.607218
20
489.638595
11
493.228055
21
490.208251
0
LINE
8
0
10
493.228055
20
490.208251
11
492.045137
21
491.117813
0
LINE
8
0
10
492.045137
20
491.117813
11
491.152951
21
492.283355
0
LINE
8
0
10
491.152951
20
492.283355
11
490.589655
21
493.638782
0
LINE
8
0
10
490.589655
20
493.638782
11
490.393410
21
495.118000
0
LINE
8
0
10
490.393410
20
495.118000
11
490.589658
21
496.597218
0
LINE
8
0
10
490.589658
20
496.597218
11
491.152955
21
497.952645
0
LINE
8
0
10
491.152955
20
497.952645
11
492.045142
21
499.118187
0
LINE
8
0
10
492.045142
20
499.118187
11
493.228060
21
500.027749
0
LINE
8
0
10
493.228060
20
500.027749
11
494.607223
21
500.597405
0
LINE
8
0
10
494.607223
20
500.597405
11
496.062705
21
500.787290
0
LINE
8
0
10
496.062705
20
500.787290
11
497.518187
21
500.597405
0
LINE
8
0
10
497.518187
20
500.597405
11
498.897350
21
500.027749
0
LINE
8
0
10
498.897350
20
500.027749
11
500.080268
21
499.118187
0
LINE
8
0
10
500.080268
20
499.118187
11
500.972454
21
497.952645
0
LINE
8
0
10
500.972454
20
497.952645
11
501.535750
21
496.597218
0
LINE
8
0
10
501.535750
20
496.597218
11
501.731995
21
495.118000
0
LINE
8
0
10
501.731995
20
495.118000
11
501.732000
21
495.118000
0
LINE
8
0
10
572.598000
20
495.118000
11
572.401749
21
493.638782
0
LINE
8
0
10
572.401749
20
493.638782
11
571.838450
21
492.283355
0
LINE
8
0
10
571.838450
20
492.283355
11
570.946263
21
491.117813
0
LINE
8
0
10
570.946263
20
491.117813
11
569.763345
21
490.208251
0
LINE
8
0
10
569.763345
20
490.208251
11
568.384182
21
489.638595
0
LINE
8
0
10
568.384182
20
489.638595
11
566.928700
21
489.448710
0
LINE
8
0
10
566.928700
20
489.448710
11
565.473218
21
489.638595
0
LINE
8
0
10
565.473218
20
489.638595
11
564.094055
21
490.208251
0
LINE
8
0
10
564.094055
20
490.208251
11
562.911137
21
491.117813
0
LINE
8
0
10
562.911137
20
491.117813
11
562.018951
21
492.283355
0
LINE
8
0
10
562.018951
20
492.283355
11
561.455655
21
493.638782
0
LINE
8
0
10
561.455655
20
493.638782
11
561.259410
21
495.118000
0
LINE
8
0
10
561.259410
20
495.118000
11
561.455658
21
496.597218
0
LINE
8
0
10
561.455658
20
496.597218
11
562.018955
21
497.952645
0
LINE
8
0
10
562.018955
20
497.952645
11
562.911142
21
499.118187
0
LINE
8
0
10
562.911142
20
499.118187
11
564.094060
21
500.027749
0
LINE
8
0
10
564.094060
20
500.027749
11
565.473223
21
500.597405
0
LINE
8
0
10
565.473223
20
500.597405
11
566.928705
21
500.787290
0
LINE
8
0
10
566.928705
20
500.787290
11
568.384187
21
500.597405
0
LINE
8
0
10
568.384187
20
500.597405
11
569.763350
21
500.027749
0
LINE
8
0
10
569.763350
20
500.027749
11
570.946268
21
499.118187
0
LINE
8
0
10
570.946268
20
499.118187
11
571.838454
21
497.952645
0
LINE
8
0
10
571.838454
20
497.952645
11
572.401750
21
496.597218
0
LINE
8
0
10
572.401750
20
496.597218
11
572.597995
21
495.118000
0
LINE
8
0
10
572.597995
20
495.118000
11
572.598000
21
495.118000
0
LINE
8
0
10
572.598000
20
600.945000
11
572.401749
21
599.465782
0
LINE
8
0
10
572.401749
20
599.465782
11
571.838450
21
598.110355
0
LINE
8
0
10
571.838450
20
598.110355
11
570.946263
21
596.944813
0
LINE
8
0
10
570.946263
20
596.944813
11
569.763345
21
596.035251
0
LINE
8
0
10
569.763345
20
596.035251
11
568.384182
21
595.465595
0
LINE
8
0
10
568.384182
20
595.465595
11
566.928700
21
595.275710
0
LINE
8
0
10
566.928700
20
595.275710
11
565.473218
21
595.465595
0
LINE
8
0
10
565.473218
20
595.465595
11
564.094055
21
596.035251
0
LINE
8
0
10
564.094055
20
596.035251
11
562.911137
21
596.944813
0
LINE
8
0
10
562.911137
20
596.944813
11
562.018951
21
598.110355
0
LINE
8
0
10
562.018951
20
598.110355
11
561.455655
21
599.465782
0
LINE
8
0
10
561.455655
20
599.465782
11
561.259410
21
600.945000
0
LINE
8
0
10
561.259410
20
600.945000
11
561.455658
21
602.424218
0
LINE
8
0
10
561.455658
20
602.424218
11
562.018955
21
603.779645
0
LINE
8
0
10
562.018955
20
603.779645
11
562.911142
21
604.945187
0
LINE
8
0
10
562.911142
20
604.945187
11
564.094060
21
605.854749
0
LINE
8
0
10
564.094060
20
605.854749
11
565.473223
21
606.424405
0
LINE
8
0
10
565.473223
20
606.424405
11
566.928705
21
606.614290
0
LINE
8
0
10
566.928705
20
606.614290
11
568.384187
21
606.424405
0
LINE
8
0
10
568.384187
20
606.424405
11
569.763350
21
605.854749
0
LINE
8
0
10
569.763350
20
605.854749
11
570.946268
21
604.945187
0
LINE
8
0
10
570.946268
20
604.945187
11
571.838454
21
603.779645
0
LINE
8
0
10
571.838454
20
603.779645
11
572.401750
21
602.424218
0
LINE
8
0
10
572.401750
20
602.424218
11
572.597995
21
600.945000
0
LINE
8
0
10
572.597995
20
600.945000
11
572.598000
21
600.945000
0
LINE
8
0
10
508.913000
20
465.638000
11
508.803300
21
463.985911
0
LINE
8
0
10
508.803300
20
463.985911
11
508.481233
21
462.383731
0
LINE
8
0
10
508.481233
20
462.383731
11
507.957292
21
460.849635
0
LINE
8
0
10
507.957292
20
460.849635
11
507.241971
21
459.401800
0
LINE
8
0
10
507.241971
20
459.401800
11
506.345763
21
458.058402
0
LINE
8
0
10
506.345763
20
458.058402
11
505.279162
21
456.837616
0
LINE
8
0
10
505.279162
20
456.837616
11
504.052659
21
455.757618
0
LINE
8
0
10
504.052659
20
455.757618
11
502.676750
21
454.836585
0
LINE
8
0
10
502.676750
20
454.836585
11
501.191157
21
454.105529
0
LINE
8
0
10
501.191157
20
454.105529
11
499.642601
21
453.583346
0
LINE
8
0
10
499.642601
20
453.583346
11
498.052069
21
453.270037
0
LINE
8
0
10
498.052069
20
453.270037
11
496.440550
21
453.165600
0
LINE
8
0
10
496.440550
20
453.165600
11
494.829031
21
453.270037
0
LINE
8
0
10
494.829031
20
453.270037
11
493.238499
21
453.583346
0
LINE
8
0
10
493.238499
20
453.583346
11
491.689943
21
454.105529
0
LINE
8
0
10
491.689943
20
454.105529
11
490.204350
21
454.836585
0
LINE
8
0
10
490.204350
20
454.836585
11
488.828441
21
455.757618
0
LINE
8
0
10
488.828441
20
455.757618
11
487.601939
21
456.837616
0
LINE
8
0
10
487.601939
20
456.837616
11
486.535339
21
458.058402
0
LINE
8
0
10
486.535339
20
458.058402
11
485.639135
21
459.401800
0
LINE
8
0
10
485.639135
20
459.401800
11
484.923820
21
460.849635
0
LINE
8
0
10
484.923820
20
460.849635
11
484.399888
21
462.383731
0
LINE
8
0
10
484.399888
20
462.383731
11
484.077833
21
463.985911
0
LINE
8
0
10
484.077833
20
463.985911
11
483.968150
21
465.638000
0
LINE
8
0
10
483.968150
20
465.638000
11
484.077842
21
467.290089
0
LINE
8
0
10
484.077842
20
467.290089
11
484.399902
21
468.892269
0
LINE
8
0
10
484.399902
20
468.892269
11
484.923839
21
470.426365
0
LINE
8
0
10
484.923839
20
470.426365
11
485.639157
21
471.874200
0
LINE
8
0
10
485.639157
20
471.874200
11
486.535363
21
473.217598
0
LINE
8
0
10
486.535363
20
473.217598
11
487.601964
21
474.438384
0
LINE
8
0
10
487.601964
20
474.438384
11
488.828466
21
475.518382
0
LINE
8
0
10
488.828466
20
475.518382
11
490.204375
21
476.439415
0
LINE
8
0
10
490.204375
20
476.439415
11
491.689968
21
477.170471
0
LINE
8
0
10
491.689968
20
477.170471
11
493.238524
21
477.692654
0
LINE
8
0
10
493.238524
20
477.692654
11
494.829056
21
478.005963
0
LINE
8
0
10
494.829056
20
478.005963
11
496.440575
21
478.110400
0
LINE
8
0
10
496.440575
20
478.110400
11
498.052094
21
478.005963
0
LINE
8
0
10
498.052094
20
478.005963
11
499.642626
21
477.692654
0
LINE
8
0
10
499.642626
20
477.692654
11
501.191182
21
477.170471
0
LINE
8
0
10
501.191182
20
477.170471
11
502.676775
21
476.439415
0
LINE
8
0
10
502.676775
20
476.439415
11
504.052684
21
475.518382
0
LINE
8
0
10
504.052684
20
475.518382
11
505.279186
21
474.438384
0
LINE
8
0
10
505.279186
20
474.438384
11
506.345786
21
473.217598
0
LINE
8
0
10
506.345786
20
473.217598
11
507.241990
21
471.874200
0
LINE
8
0
10
507.241990
20
471.874200
11
507.957305
21
470.426365
0
LINE
8
0
10
507.957305
20
470.426365
11
508.481237
21
468.892269
0
LINE
8
0
10
508.481237
20
468.892269
11
508.803292
21
467.290089
0
LINE
8
0
10
508.803292
20
467.290089
11
508.912975
21
465.638000
0
LINE
8
0
10
508.912975
20
465.638000
11
508.913000
21
465.638000
0
LINE
8
0
10
643.465000
20
600.945000
11
643.268749
21
599.465782
0
LINE
8
0
10
643.268749
20
599.465782
11
642.705450
21
598.110355
0
LINE
8
0
10
642.705450
20
598.110355
11
641.813263
21
596.944813
0
LINE
8
0
10
641.813263
20
596.944813
11
640.630345
21
596.035251
0
LINE
8
0
10
640.630345
20
596.035251
11
639.251182
21
595.465595
0
LINE
8
0
10
639.251182
20
595.465595
11
637.795700
21
595.275710
0
LINE
8
0
10
637.795700
20
595.275710
11
636.340218
21
595.465595
0
LINE
8
0
10
636.340218
20
595.465595
11
634.961055
21
596.035251
0
LINE
8
0
10
634.961055
20
596.035251
11
633.778137
21
596.944813
0
LINE
8
0
10
633.778137
20
596.944813
11
632.885951
21
598.110355
0
LINE
8
0
10
632.885951
20
598.110355
11
632.322655
21
599.465782
0
LINE
8
0
10
632.322655
20
599.465782
11
632.126410
21
600.945000
0
LINE
8
0
10
632.126410
20
600.945000
11
632.322658
21
602.424218
0
LINE
8
0
10
632.322658
20
602.424218
11
632.885955
21
603.779645
0
LINE
8
0
10
632.885955
20
603.779645
11
633.778142
21
604.945187
0
LINE
8
0
10
633.778142
20
604.945187
11
634.961060
21
605.854749
0
LINE
8
0
10
634.961060
20
605.854749
11
636.340223
21
606.424405
0
LINE
8
0
10
636.340223
20
606.424405
11
637.795705
21
606.614290
0
LINE
8
0
10
637.795705
20
606.614290
11
639.251187
21
606.424405
0
LINE
8
0
10
639.251187
20
606.424405
11
640.630350
21
605.854749
0
LINE
8
0
10
640.630350
20
605.854749
11
641.813268
21
604.945187
0
LINE
8
0
10
641.813268
20
604.945187
11
642.705454
21
603.779645
0
LINE
8
0
10
642.705454
20
603.779645
11
643.268750
21
602.424218
0
LINE
8
0
10
643.268750
20
602.424218
11
643.464995
21
600.945000
0
LINE
8
0
10
643.464995
20
600.945000
11
643.465000
21
600.945000
0
LINE
8
0
10
528.879000
20
561.638000
11
599.699200
21
561.638000
0
LINE
8
0
10
599.699200
20
561.638000
11
616.730800
21
547.803300
0
LINE
8
0
10
616.730800
20
547.803300
11
604.979500
21
534.425500
0
LINE
8
0
10
604.979500
20
534.425500
11
534.159300
21
534.425500
0
LINE
8
0
10
534.159300
20
534.425500
11
517.127700
21
548.260300
0
LINE
8
0
10
517.127700
20
548.260300
11
528.879000
21
561.638000
0
LINE
8
0
10
513.741000
20
546.142000
11
512.239528
21
545.801176
0
LINE
8
0
10
512.239528
20
545.801176
11
510.851669
21
545.170924
0
LINE
8
0
10
510.851669
20
545.170924
11
509.618424
21
544.275115
0
LINE
8
0
10
509.618424
20
544.275115
11
508.580790
21
543.137619
0
LINE
8
0
10
508.580790
20
543.137619
11
507.795104
21
541.813506
0
LINE
8
0
10
507.795104
20
541.813506
11
507.297624
21
540.372714
0
LINE
8
0
10
507.297624
20
540.372714
11
507.099234
21
538.861420
0
LINE
8
0
10
507.099234
20
538.861420
11
507.210820
21
537.325800
0
LINE
8
0
10
507.210820
20
537.325800
11
521.345420
21
457.164800
0
LINE
8
0
10
521.345420
20
457.164800
11
522.027789
21
454.355826
0
LINE
8
0
10
522.027789
20
454.355826
11
523.057130
21
451.667030
0
LINE
8
0
10
523.057130
20
451.667030
11
524.418844
21
449.130320
0
LINE
8
0
10
524.418844
20
449.130320
11
526.098330
21
446.777600
0
LINE
8
0
10
526.098330
20
446.777600
11
544.760530
21
468.022800
0
LINE
8
0
10
544.760530
20
468.022800
11
533.868930
21
529.792100
0
LINE
8
0
10
533.868930
20
529.792100
11
513.741000
21
546.142000
0
LINE
8
Layer 1
10
208.530000
20
129.423000
11
208.329038
21
128.673000
0
LINE
8
Layer 1
10
208.329038
20
128.673000
11
207.780000
21
128.123962
0
LINE
8
Layer 1
10
207.780000
20
128.123962
11
207.030000
21
127.923000
0
LINE
8
Layer 1
10
207.030000
20
127.923000
11
206.280000
21
128.123962
0
LINE
8
Layer 1
10
206.280000
20
128.123962
11
205.730962
21
128.673000
0
LINE
8
Layer 1
10
205.730962
20
128.673000
11
205.530000
21
129.423000
0
LINE
8
Layer 1
10
205.530000
20
129.423000
11
205.730962
21
130.173000
0
LINE
8
Layer 1
10
205.730962
20
130.173000
11
206.280000
21
130.722038
0
LINE
8
Layer 1
10
206.280000
20
130.722038
11
207.030000
21
130.923000
0
LINE
8
Layer 1
10
207.030000
20
130.923000
11
207.780000
21
130.722038
0
LINE
8
Layer 1
10
207.780000
20
130.722038
11
208.329038
21
130.173000
0
LINE
8
Layer 1
10
208.329038
20
130.173000
11
208.530000
21
129.423000
0
LINE
8
Layer 1
10
208.530000
20
129.423000
11
208.530000
21
129.423000
0
LINE
8
Layer 1
10
8.029790
20
129.423000
11
7.896871
21
128.921660
0
LINE
8
Layer 1
10
7.896871
20
128.921660
11
7.530703
21
128.554331
0
LINE
8
Layer 1
10
7.530703
20
128.554331
11
7.029785
21
128.419828
0
LINE
8
Layer 1
10
7.029785
20
128.419828
11
6.528867
21
128.554331
0
LINE
8
Layer 1
10
6.528867
20
128.554331
11
6.162699
21
128.921660
0
LINE
8
Layer 1
10
6.162699
20
128.921660
11
6.029780
21
129.423000
0
LINE
8
Layer 1
10
6.029780
20
129.423000
11
6.162699
21
129.924340
0
LINE
8
Layer 1
10
6.162699
20
129.924340
11
6.528867
21
130.291669
0
LINE
8
Layer 1
10
6.528867
20
130.291669
11
7.029785
21
130.426172
0
LINE
8
Layer 1
10
7.029785
20
130.426172
11
7.530703
21
130.291669
0
LINE
8
Layer 1
10
7.530703
20
130.291669
11
7.896871
21
129.924340
0
LINE
8
Layer 1
10
7.896871
20
129.924340
11
8.029790
21
129.423000
0
LINE
8
Layer 1
10
8.029790
20
129.423000
11
8.029790
21
129.423000
0
LINE
8
Layer 1
10
100.530000
20
129.423000
11
100.329038
21
128.673000
0
LINE
8
Layer 1
10
100.329038
20
128.673000
11
99.780000
21
128.123962
0
LINE
8
Layer 1
10
99.780000
20
128.123962
11
99.030000
21
127.923000
0
LINE
8
Layer 1
10
99.030000
20
127.923000
11
98.280000
21
128.123962
0
LINE
8
Layer 1
10
98.280000
20
128.123962
11
97.730962
21
128.673000
0
LINE
8
Layer 1
10
97.730962
20
128.673000
11
97.530000
21
129.423000
0
LINE
8
Layer 1
10
97.530000
20
129.423000
11
97.730962
21
130.173000
0
LINE
8
Layer 1
10
97.730962
20
130.173000
11
98.280000
21
130.722038
0
LINE
8
Layer 1
10
98.280000
20
130.722038
11
99.030000
21
130.923000
0
LINE
8
Layer 1
10
99.030000
20
130.923000
11
99.780000
21
130.722038
0
LINE
8
Layer 1
10
99.780000
20
130.722038
11
100.329038
21
130.173000
0
LINE
8
Layer 1
10
100.329038
20
130.173000
11
100.530000
21
129.423000
0
LINE
8
Layer 1
10
100.530000
20
129.423000
11
100.530000
21
129.423000
0
LINE
8
Layer 1
10
192.030000
20
129.423000
11
191.896025
21
128.923000
0
LINE
8
Layer 1
10
191.896025
20
128.923000
11
191.530000
21
128.556975
0
LINE
8
Layer 1
10
191.530000
20
128.556975
11
191.030000
21
128.423000
0
LINE
8
Layer 1
10
191.030000
20
128.423000
11
190.530000
21
128.556975
0
LINE
8
Layer 1
10
190.530000
20
128.556975
11
190.163975
21
128.923000
0
LINE
8
Layer 1
10
190.163975
20
128.923000
11
190.030000
21
129.423000
0
LINE
8
Layer 1
10
190.030000
20
129.423000
11
190.163975
21
129.923000
0
LINE
8
Layer 1
10
190.163975
20
129.923000
11
190.530000
21
130.289025
0
LINE
8
Layer 1
10
190.530000
20
130.289025
11
191.030000
21
130.423000
0
LINE
8
Layer 1
10
191.030000
20
130.423000
11
191.530000
21
130.289025
0
LINE
8
Layer 1
10
191.530000
20
130.289025
11
191.896025
21
129.923000
0
LINE
8
Layer 1
10
191.896025
20
129.923000
11
192.030000
21
129.423000
0
LINE
8
Layer 1
10
192.030000
20
129.423000
11
192.030000
21
129.423000
0
LINE
8
Layer 1
10
-7.470220
20
129.423000
11
-7.671182
21
128.673000
0
LINE
8
Layer 1
10
-7.671182
20
128.673000
11
-8.220220
21
128.123962
0
LINE
8
Layer 1
10
-8.220220
20
128.123962
11
-8.970220
21
127.923000
0
LINE
8
Layer 1
10
-8.970220
20
127.923000
11
-9.720220
21
128.123962
0
LINE
8
Layer 1
10
-9.720220
20
128.123962
11
-10.269258
21
128.673000
0
LINE
8
Layer 1
10
-10.269258
20
128.673000
11
-10.470220
21
129.423000
0
LINE
8
Layer 1
10
-10.470220
20
129.423000
11
-10.269258
21
130.173000
0
LINE
8
Layer 1
10
-10.269258
20
130.173000
11
-9.720220
21
130.722038
0
LINE
8
Layer 1
10
-9.720220
20
130.722038
11
-8.970220
21
130.923000
0
LINE
8
Layer 1
10
-8.970220
20
130.923000
11
-8.220220
21
130.722038
0
LINE
8
Layer 1
10
-8.220220
20
130.722038
11
-7.671182
21
130.173000
0
LINE
8
Layer 1
10
-7.671182
20
130.173000
11
-7.470220
21
129.423000
0
LINE
8
Layer 1
10
-7.470220
20
129.423000
11
-7.470220
21
129.423000
0
LINE
8
Layer 1
10
206.030000
20
124.423000
11
207.239210
21
124.544899
0
LINE
8
Layer 1
10
207.239210
20
124.544899
11
208.365471
21
124.894510
0
LINE
8
Layer 1
10
208.365471
20
124.894510
11
209.384658
21
125.447705
0
LINE
8
Layer 1
10
209.384658
20
125.447705
11
210.272641
21
126.180359
0
LINE
8
Layer 1
10
210.272641
20
126.180359
11
211.005295
21
127.068342
0
LINE
8
Layer 1
10
211.005295
20
127.068342
11
211.558490
21
128.087529
0
LINE
8
Layer 1
10
211.558490
20
128.087529
11
211.908101
21
129.213790
0
LINE
8
Layer 1
10
211.908101
20
129.213790
11
212.030000
21
130.423000
0
LINE
8
Layer 1
10
212.030000
20
130.423000
11
212.030000
21
147.623000
0
LINE
8
Layer 1
10
212.030000
20
147.623000
11
202.030000
21
147.623000
0
LINE
8
Layer 1
10
202.030000
20
147.623000
11
202.030000
21
134.423000
0
LINE
8
Layer 1
10
202.030000
20
134.423000
11
-3.970210
21
134.423000
0
LINE
8
Layer 1
10
-3.970210
20
134.423000
11
-3.970210
21
147.623000
0
LINE
8
Layer 1
10
-3.970210
20
147.623000
11
-13.970200
21
147.623000
0
LINE
8
Layer 1
10
-13.970200
20
147.623000
11
-13.970200
21
130.423000
0
LINE
8
Layer 1
10
-13.970200
20
130.423000
11
-13.848302
21
129.213794
0
LINE
8
Layer 1
10
-13.848302
20
129.213794
11
-13.498692
21
128.087534
0
LINE
8
Layer 1
10
-13.498692
20
128.087534
11
-12.945498
21
127.068349
0
LINE
8
Layer 1
10
-12.945498
20
127.068349
11
-12.212847
21
126.180366
0
LINE
8
Layer 1
10
-12.212847
20
126.180366
11
-11.324867
21
125.447712
0
LINE
8
Layer 1
10
-11.324867
20
125.447712
11
-10.305684
21
124.894515
0
LINE
8
Layer 1
10
-10.305684
20
124.894515
11
-9.179426
21
124.544902
0
LINE
8
Layer 1
10
-9.179426
20
124.544902
11
-7.970220
21
124.423000
0
LINE
8
Layer 1
10
-7.470220
20
197.423000
11
-7.671182
21
196.673000
0
LINE
8
Layer 1
10
-7.671182
20
196.673000
11
-8.220220
21
196.123962
0
LINE
8
Layer 1
10
-8.220220
20
196.123962
11
-8.970220
21
195.923000
0
LINE
8
Layer 1
10
-8.970220
20
195.923000
11
-9.720220
21
196.123962
0
LINE
8
Layer 1
10
-9.720220
20
196.123962
11
-10.269258
21
196.673000
0
LINE
8
Layer 1
10
-10.269258
20
196.673000
11
-10.470220
21
197.423000
0
LINE
8
Layer 1
10
-10.470220
20
197.423000
11
-10.269258
21
198.173000
0
LINE
8
Layer 1
10
-10.269258
20
198.173000
11
-9.720220
21
198.722038
0
LINE
8
Layer 1
10
-9.720220
20
198.722038
11
-8.970220
21
198.923000
0
LINE
8
Layer 1
10
-8.970220
20
198.923000
11
-8.220220
21
198.722038
0
LINE
8
Layer 1
10
-8.220220
20
198.722038
11
-7.671182
21
198.173000
0
LINE
8
Layer 1
10
-7.671182
20
198.173000
11
-7.470220
21
197.423000
0
LINE
8
Layer 1
10
-7.470220
20
197.423000
11
-7.470220
21
197.423000
0
LINE
8
Layer 1
10
208.530000
20
197.423000
11
208.329038
21
196.673000
0
LINE
8
Layer 1
10
208.329038
20
196.673000
11
207.780000
21
196.123962
0
LINE
8
Layer 1
10
207.780000
20
196.123962
11
207.030000
21
195.923000
0
LINE
8
Layer 1
10
207.030000
20
195.923000
11
206.280000
21
196.123962
0
LINE
8
Layer 1
10
206.280000
20
196.123962
11
205.730962
21
196.673000
0
LINE
8
Layer 1
10
205.730962
20
196.673000
11
205.530000
21
197.423000
0
LINE
8
Layer 1
10
205.530000
20
197.423000
11
205.730962
21
198.173000
0
LINE
8
Layer 1
10
205.730962
20
198.173000
11
206.280000
21
198.722038
0
LINE
8
Layer 1
10
206.280000
20
198.722038
11
207.030000
21
198.923000
0
LINE
8
Layer 1
10
207.030000
20
198.923000
11
207.780000
21
198.722038
0
LINE
8
Layer 1
10
207.780000
20
198.722038
11
208.329038
21
198.173000
0
LINE
8
Layer 1
10
208.329038
20
198.173000
11
208.530000
21
197.423000
0
LINE
8
Layer 1
10
208.530000
20
197.423000
11
208.530000
21
197.423000
0
LINE
8
Layer 1
10
192.030000
20
197.423000
11
191.896025
21
196.923000
0
LINE
8
Layer 1
10
191.896025
20
196.923000
11
191.530000
21
196.556975
0
LINE
8
Layer 1
10
191.530000
20
196.556975
11
191.030000
21
196.423000
0
LINE
8
Layer 1
10
191.030000
20
196.423000
11
190.530000
21
196.556975
0
LINE
8
Layer 1
10
190.530000
20
196.556975
11
190.163975
21
196.923000
0
LINE
8
Layer 1
10
190.163975
20
196.923000
11
190.030000
21
197.423000
0
LINE
8
Layer 1
10
190.030000
20
197.423000
11
190.163975
21
197.923000
0
LINE
8
Layer 1
10
190.163975
20
197.923000
11
190.530000
21
198.289025
0
LINE
8
Layer 1
10
190.530000
20
198.289025
11
191.030000
21
198.423000
0
LINE
8
Layer 1
10
191.030000
20
198.423000
11
191.530000
21
198.289025
0
LINE
8
Layer 1
10
191.530000
20
198.289025
11
191.896025
21
197.923000
0
LINE
8
Layer 1
10
191.896025
20
197.923000
11
192.030000
21
197.423000
0
LINE
8
Layer 1
10
192.030000
20
197.423000
11
192.030000
21
197.423000
0
LINE
8
Layer 1
10
8.029790
20
197.423000
11
7.896871
21
196.921660
0
LINE
8
Layer 1
10
7.896871
20
196.921660
11
7.530703
21
196.554331
0
LINE
8
Layer 1
10
7.530703
20
196.554331
11
7.029785
21
196.419828
0
LINE
8
Layer 1
10
7.029785
20
196.419828
11
6.528867
21
196.554331
0
LINE
8
Layer 1
10
6.528867
20
196.554331
11
6.162699
21
196.921660
0
LINE
8
Layer 1
10
6.162699
20
196.921660
11
6.029780
21
197.423000
0
LINE
8
Layer 1
10
6.029780
20
197.423000
11
6.162699
21
197.924340
0
LINE
8
Layer 1
10
6.162699
20
197.924340
11
6.528867
21
198.291669
0
LINE
8
Layer 1
10
6.528867
20
198.291669
11
7.029785
21
198.426172
0
LINE
8
Layer 1
10
7.029785
20
198.426172
11
7.530703
21
198.291669
0
LINE
8
Layer 1
10
7.530703
20
198.291669
11
7.896871
21
197.924340
0
LINE
8
Layer 1
10
7.896871
20
197.924340
11
8.029790
21
197.423000
0
LINE
8
Layer 1
10
8.029790
20
197.423000
11
8.029790
21
197.423000
0
LINE
8
Layer 1
10
100.530000
20
197.423000
11
100.329038
21
196.673000
0
LINE
8
Layer 1
10
100.329038
20
196.673000
11
99.780000
21
196.123962
0
LINE
8
Layer 1
10
99.780000
20
196.123962
11
99.030000
21
195.923000
0
LINE
8
Layer 1
10
99.030000
20
195.923000
11
98.280000
21
196.123962
0
LINE
8
Layer 1
10
98.280000
20
196.123962
11
97.730962
21
196.673000
0
LINE
8
Layer 1
10
97.730962
20
196.673000
11
97.530000
21
197.423000
0
LINE
8
Layer 1
10
97.530000
20
197.423000
11
97.730962
21
198.173000
0
LINE
8
Layer 1
10
97.730962
20
198.173000
11
98.280000
21
198.722038
0
LINE
8
Layer 1
10
98.280000
20
198.722038
11
99.030000
21
198.923000
0
LINE
8
Layer 1
10
99.030000
20
198.923000
11
99.780000
21
198.722038
0
LINE
8
Layer 1
10
99.780000
20
198.722038
11
100.329038
21
198.173000
0
LINE
8
Layer 1
10
100.329038
20
198.173000
11
100.530000
21
197.423000
0
LINE
8
Layer 1
10
100.530000
20
197.423000
11
100.530000
21
197.423000
0
LINE
8
Layer 1
10
-3.970210
20
179.223000
11
-3.970210
21
192.423000
0
LINE
8
Layer 1
10
-3.970210
20
192.423000
11
202.030000
21
192.423000
0
LINE
8
Layer 1
10
202.030000
20
192.423000
11
202.030000
21
179.223000
0
LINE
8
Layer 1
10
212.030000
20
179.223000
11
212.030000
21
196.423000
0
LINE
8
Layer 1
10
212.030000
20
196.423000
11
211.908101
21
197.632210
0
LINE
8
Layer 1
10
211.908101
20
197.632210
11
211.558490
21
198.758471
0
LINE
8
Layer 1
10
211.558490
20
198.758471
11
211.005295
21
199.777658
0
LINE
8
Layer 1
10
211.005295
20
199.777658
11
210.272641
21
200.665641
0
LINE
8
Layer 1
10
210.272641
20
200.665641
11
209.384658
21
201.398295
0
LINE
8
Layer 1
10
209.384658
20
201.398295
11
208.365471
21
201.951490
0
LINE
8
Layer 1
10
208.365471
20
201.951490
11
207.239210
21
202.301101
0
LINE
8
Layer 1
10
207.239210
20
202.301101
11
206.030000
21
202.423000
0
LINE
8
Layer 1
10
206.030000
20
202.423000
11
-7.970230
21
202.423000
0
LINE
8
Layer 1
10
-7.970230
20
202.423000
11
-9.179436
21
202.301098
0
LINE
8
Layer 1
10
-9.179436
20
202.301098
11
-10.305694
21
201.951485
0
LINE
8
Layer 1
10
-10.305694
20
201.951485
11
-11.324877
21
201.398288
0
LINE
8
Layer 1
10
-11.324877
20
201.398288
11
-12.212857
21
200.665634
0
LINE
8
Layer 1
10
-12.212857
20
200.665634
11
-12.945508
21
199.777651
0
LINE
8
Layer 1
10
-12.945508
20
199.777651
11
-13.498702
21
198.758466
0
LINE
8
Layer 1
10
-13.498702
20
198.758466
11
-13.848312
21
197.632206
0
LINE
8
Layer 1
10
-13.848312
20
197.632206
11
-13.970210
21
196.423000
0
LINE
8
Layer 1
10
-13.970210
20
196.423000
11
-13.970210
21
179.223000
0
LINE
8
0
10
-1249.130000
20
676.535000
11
-1249.210738
21
675.281567
0
LINE
8
0
10
-1249.210738
20
675.281567
11
-1249.452860
21
674.065762
0
LINE
8
0
10
-1249.452860
20
674.065762
11
-1249.848405
21
672.901421
0
LINE
8
0
10
-1249.848405
20
672.901421
11
-1250.389409
21
671.802378
0
LINE
8
0
10
-1250.389409
20
671.802378
11
-1251.067911
21
670.782467
0
LINE
8
0
10
-1251.067911
20
670.782467
11
-1251.875948
21
669.855525
0
LINE
8
0
10
-1251.875948
20
669.855525
11
-1252.805558
21
669.035385
0
LINE
8
0
10
-1252.805558
20
669.035385
11
-1253.848779
21
668.335883
0
LINE
8
0
10
-1253.848779
20
668.335883
11
-1254.975416
21
667.780632
0
LINE
8
0
10
-1254.975416
20
667.780632
11
-1256.149940
21
667.384025
0
LINE
8
0
10
-1256.149940
20
667.384025
11
-1257.356389
21
667.146060
0
LINE
8
0
10
-1257.356389
20
667.146060
11
-1258.578800
21
667.066739
0
LINE
8
0
10
-1258.578800
20
667.066739
11
-1259.801211
21
667.146060
0
LINE
8
0
10
-1259.801211
20
667.146060
11
-1261.007660
21
667.384025
0
LINE
8
0
10
-1261.007660
20
667.384025
11
-1262.182184
21
667.780632
0
LINE
8
0
10
-1262.182184
20
667.780632
11
-1263.308821
21
668.335883
0
LINE
8
0
10
-1263.308821
20
668.335883
11
-1264.352042
21
669.035385
0
LINE
8
0
10
-1264.352042
20
669.035385
11
-1265.281652
21
669.855525
0
LINE
8
0
10
-1265.281652
20
669.855525
11
-1266.089689
21
670.782467
0
LINE
8
0
10
-1266.089689
20
670.782467
11
-1266.768191
21
671.802378
0
LINE
8
0
10
-1266.768191
20
671.802378
11
-1267.309195
21
672.901421
0
LINE
8
0
10
-1267.309195
20
672.901421
11
-1267.704740
21
674.065762
0
LINE
8
0
10
-1267.704740
20
674.065762
11
-1267.946862
21
675.281567
0
LINE
8
0
10
-1267.946862
20
675.281567
11
-1268.027600
21
676.535000
0
LINE
8
0
10
-1268.027600
20
676.535000
11
-1267.946862
21
677.788433
0
LINE
8
0
10
-1267.946862
20
677.788433
11
-1267.704740
21
679.004238
0
LINE
8
0
10
-1267.704740
20
679.004238
11
-1267.309195
21
680.168579
0
LINE
8
0
10
-1267.309195
20
680.168579
11
-1266.768191
21
681.267622
0
LINE
8
0
10
-1266.768191
20
681.267622
11
-1266.089689
21
682.287533
0
LINE
8
0
10
-1266.089689
20
682.287533
11
-1265.281652
21
683.214475
0
LINE
8
0
10
-1265.281652
20
683.214475
11
-1264.352042
21
684.034615
0
LINE
8
0
10
-1264.352042
20
684.034615
11
-1263.308821
21
684.734117
0
LINE
8
0
10
-1263.308821
20
684.734117
11
-1262.182184
21
685.289368
0
LINE
8
0
10
-1262.182184
20
685.289368
11
-1261.007660
21
685.685975
0
LINE
8
0
10
-1261.007660
20
685.685975
11
-1259.801211
21
685.923940
0
LINE
8
0
10
-1259.801211
20
685.923940
11
-1258.578800
21
686.003261
0
LINE
8
0
10
-1258.578800
20
686.003261
11
-1257.356389
21
685.923940
0
LINE
8
0
10
-1257.356389
20
685.923940
11
-1256.149940
21
685.685975
0
LINE
8
0
10
-1256.149940
20
685.685975
11
-1254.975416
21
685.289368
0
LINE
8
0
10
-1254.975416
20
685.289368
11
-1253.848779
21
684.734117
0
LINE
8
0
10
-1253.848779
20
684.734117
11
-1252.805558
21
684.034615
0
LINE
8
0
10
-1252.805558
20
684.034615
11
-1251.875948
21
683.214475
0
LINE
8
0
10
-1251.875948
20
683.214475
11
-1251.067911
21
682.287533
0
LINE
8
0
10
-1251.067911
20
682.287533
11
-1250.389409
21
681.267622
0
LINE
8
0
10
-1250.389409
20
681.267622
11
-1249.848405
21
680.168579
0
LINE
8
0
10
-1249.848405
20
680.168579
11
-1249.452860
21
679.004238
0
LINE
8
0
10
-1249.452860
20
679.004238
11
-1249.210738
21
677.788433
0
LINE
8
0
10
-1249.210738
20
677.788433
11
-1249.130000
21
676.535000
0
LINE
8
0
10
-1249.130000
20
676.535000
11
-1249.130000
21
676.535000
0
LINE
8
0
10
-1011.970000
20
600.945000
11
-1012.100831
21
599.958849
0
LINE
8
0
10
-1012.100831
20
599.958849
11
-1012.476364
21
599.055225
0
LINE
8
0
10
-1012.476364
20
599.055225
11
-1013.071158
21
598.278192
0
LINE
8
0
10
-1013.071158
20
598.278192
11
-1013.859775
21
597.671814
0
LINE
8
0
10
-1013.859775
20
597.671814
11
-1014.779223
21
597.292041
0
LINE
8
0
10
-1014.779223
20
597.292041
11
-1015.749550
21
597.165450
0
LINE
8
0
10
-1015.749550
20
597.165450
11
-1016.719877
21
597.292041
0
LINE
8
0
10
-1016.719877
20
597.292041
11
-1017.639325
21
597.671814
0
LINE
8
0
10
-1017.639325
20
597.671814
11
-1018.427942
21
598.278192
0
LINE
8
0
10
-1018.427942
20
598.278192
11
-1019.022736
21
599.055225
0
LINE
8
0
10
-1019.022736
20
599.055225
11
-1019.398269
21
599.958849
0
LINE
8
0
10
-1019.398269
20
599.958849
11
-1019.529100
21
600.945000
0
LINE
8
0
10
-1019.529100
20
600.945000
11
-1019.398269
21
601.931151
0
LINE
8
0
10
-1019.398269
20
601.931151
11
-1019.022736
21
602.834775
0
LINE
8
0
10
-1019.022736
20
602.834775
11
-1018.427942
21
603.611808
0
LINE
8
0
10
-1018.427942
20
603.611808
11
-1017.639325
21
604.218186
0
LINE
8
0
10
-1017.639325
20
604.218186
11
-1016.719877
21
604.597959
0
LINE
8
0
10
-1016.719877
20
604.597959
11
-1015.749550
21
604.724550
0
LINE
8
0
10
-1015.749550
20
604.724550
11
-1014.779223
21
604.597959
0
LINE
8
0
10
-1014.779223
20
604.597959
11
-1013.859775
21
604.218186
0
LINE
8
0
10
-1013.859775
20
604.218186
11
-1013.071158
21
603.611808
0
LINE
8
0
10
-1013.071158
20
603.611808
11
-1012.476364
21
602.834775
0
LINE
8
0
10
-1012.476364
20
602.834775
11
-1012.100831
21
601.931151
0
LINE
8
0
10
-1012.100831
20
601.931151
11
-1011.970000
21
600.945000
0
LINE
8
0
10
-1011.970000
20
600.945000
11
-1011.970000
21
600.945000
0
LINE
8
0
10
-822.992000
20
600.945000
11
-823.121498
21
599.957629
0
LINE
8
0
10
-823.121498
20
599.957629
11
-823.496309
21
599.052638
0
LINE
8
0
10
-823.496309
20
599.052638
11
-824.090962
21
598.274255
0
LINE
8
0
10
-824.090962
20
598.274255
11
-824.879986
21
597.666708
0
LINE
8
0
10
-824.879986
20
597.666708
11
-825.800236
21
597.286169
0
LINE
8
0
10
-825.800236
20
597.286169
11
-826.771525
21
597.159322
0
LINE
8
0
10
-826.771525
20
597.159322
11
-827.742814
21
597.286169
0
LINE
8
0
10
-827.742814
20
597.286169
11
-828.663064
21
597.666708
0
LINE
8
0
10
-828.663064
20
597.666708
11
-829.452088
21
598.274255
0
LINE
8
0
10
-829.452088
20
598.274255
11
-830.046741
21
599.052638
0
LINE
8
0
10
-830.046741
20
599.052638
11
-830.421552
21
599.957629
0
LINE
8
0
10
-830.421552
20
599.957629
11
-830.551050
21
600.945000
0
LINE
8
0
10
-830.551050
20
600.945000
11
-830.421552
21
601.932371
0
LINE
8
0
10
-830.421552
20
601.932371
11
-830.046741
21
602.837362
0
LINE
8
0
10
-830.046741
20
602.837362
11
-829.452088
21
603.615745
0
LINE
8
0
10
-829.452088
20
603.615745
11
-828.663064
21
604.223292
0
LINE
8
0
10
-828.663064
20
604.223292
11
-827.742814
21
604.603831
0
LINE
8
0
10
-827.742814
20
604.603831
11
-826.771525
21
604.730678
0
LINE
8
0
10
-826.771525
20
604.730678
11
-825.800236
21
604.603831
0
LINE
8
0
10
-825.800236
20
604.603831
11
-824.879986
21
604.223292
0
LINE
8
0
10
-824.879986
20
604.223292
11
-824.090962
21
603.615745
0
LINE
8
0
10
-824.090962
20
603.615745
11
-823.496309
21
602.837362
0
LINE
8
0
10
-823.496309
20
602.837362
11
-823.121498
21
601.932371
0
LINE
8
0
10
-823.121498
20
601.932371
11
-822.992000
21
600.945000
0
LINE
8
0
10
-822.992000
20
600.945000
11
-822.992000
21
600.945000
0
LINE
8
0
10
-432.756000
20
676.535000
11
-432.836738
21
675.281567
0
LINE
8
0
10
-432.836738
20
675.281567
11
-433.078860
21
674.065762
0
LINE
8
0
10
-433.078860
20
674.065762
11
-433.474405
21
672.901421
0
LINE
8
0
10
-433.474405
20
672.901421
11
-434.015409
21
671.802378
0
LINE
8
0
10
-434.015409
20
671.802378
11
-434.693911
21
670.782467
0
LINE
8
0
10
-434.693911
20
670.782467
11
-435.501948
21
669.855525
0
LINE
8
0
10
-435.501948
20
669.855525
11
-436.431558
21
669.035385
0
LINE
8
0
10
-436.431558
20
669.035385
11
-437.474779
21
668.335883
0
LINE
8
0
10
-437.474779
20
668.335883
11
-438.601416
21
667.780632
0
LINE
8
0
10
-438.601416
20
667.780632
11
-439.775940
21
667.384025
0
LINE
8
0
10
-439.775940
20
667.384025
11
-440.982389
21
667.146060
0
LINE
8
0
10
-440.982389
20
667.146060
11
-442.204800
21
667.066739
0
LINE
8
0
10
-442.204800
20
667.066739
11
-443.427211
21
667.146060
0
LINE
8
0
10
-443.427211
20
667.146060
11
-444.633660
21
667.384025
0
LINE
8
0
10
-444.633660
20
667.384025
11
-445.808184
21
667.780632
0
LINE
8
0
10
-445.808184
20
667.780632
11
-446.934821
21
668.335883
0
LINE
8
0
10
-446.934821
20
668.335883
11
-447.978042
21
669.035385
0
LINE
8
0
10
-447.978042
20
669.035385
11
-448.907652
21
669.855525
0
LINE
8
0
10
-448.907652
20
669.855525
11
-449.715689
21
670.782467
0
LINE
8
0
10
-449.715689
20
670.782467
11
-450.394191
21
671.802378
0
LINE
8
0
10
-450.394191
20
671.802378
11
-450.935195
21
672.901421
0
LINE
8
0
10
-450.935195
20
672.901421
11
-451.330740
21
674.065762
0
LINE
8
0
10
-451.330740
20
674.065762
11
-451.572862
21
675.281567
0
LINE
8
0
10
-451.572862
20
675.281567
11
-451.653600
21
676.535000
0
LINE
8
0
10
-451.653600
20
676.535000
11
-451.572862
21
677.788433
0
LINE
8
0
10
-451.572862
20
677.788433
11
-451.330740
21
679.004238
0
LINE
8
0
10
-451.330740
20
679.004238
11
-450.935195
21
680.168579
0
LINE
8
0
10
-450.935195
20
680.168579
11
-450.394191
21
681.267622
0
LINE
8
0
10
-450.394191
20
681.267622
11
-449.715689
21
682.287533
0
LINE
8
0
10
-449.715689
20
682.287533
11
-448.907652
21
683.214475
0
LINE
8
0
10
-448.907652
20
683.214475
11
-447.978042
21
684.034615
0
LINE
8
0
10
-447.978042
20
684.034615
11
-446.934821
21
684.734117
0
LINE
8
0
10
-446.934821
20
684.734117
11
-445.808184
21
685.289368
0
LINE
8
0
10
-445.808184
20
685.289368
11
-444.633660
21
685.685975
0
LINE
8
0
10
-444.633660
20
685.685975
11
-443.427211
21
685.923940
0
LINE
8
0
10
-443.427211
20
685.923940
11
-442.204800
21
686.003261
0
LINE
8
0
10
-442.204800
20
686.003261
11
-440.982389
21
685.923940
0
LINE
8
0
10
-440.982389
20
685.923940
11
-439.775940
21
685.685975
0
LINE
8
0
10
-439.775940
20
685.685975
11
-438.601416
21
685.289368
0
LINE
8
0
10
-438.601416
20
685.289368
11
-437.474779
21
684.734117
0
LINE
8
0
10
-437.474779
20
684.734117
11
-436.431558
21
684.034615
0
LINE
8
0
10
-436.431558
20
684.034615
11
-435.501948
21
683.214475
0
LINE
8
0
10
-435.501948
20
683.214475
11
-434.693911
21
682.287533
0
LINE
8
0
10
-434.693911
20
682.287533
11
-434.015409
21
681.267622
0
LINE
8
0
10
-434.015409
20
681.267622
11
-433.474405
21
680.168579
0
LINE
8
0
10
-433.474405
20
680.168579
11
-433.078860
21
679.004238
0
LINE
8
0
10
-433.078860
20
679.004238
11
-432.836738
21
677.788433
0
LINE
8
0
10
-432.836738
20
677.788433
11
-432.756000
21
676.535000
0
LINE
8
0
10
-432.756000
20
676.535000
11
-432.756000
21
676.535000
0
LINE
8
0
10
-432.756000
20
419.528000
11
-432.836738
21
418.274567
0
LINE
8
0
10
-432.836738
20
418.274567
11
-433.078860
21
417.058762
0
LINE
8
0
10
-433.078860
20
417.058762
11
-433.474405
21
415.894421
0
LINE
8
0
10
-433.474405
20
415.894421
11
-434.015409
21
414.795378
0
LINE
8
0
10
-434.015409
20
414.795378
11
-434.693911
21
413.775467
0
LINE
8
0
10
-434.693911
20
413.775467
11
-435.501948
21
412.848525
0
LINE
8
0
10
-435.501948
20
412.848525
11
-436.431558
21
412.028385
0
LINE
8
0
10
-436.431558
20
412.028385
11
-437.474779
21
411.328883
0
LINE
8
0
10
-437.474779
20
411.328883
11
-438.601416
21
410.773632
0
LINE
8
0
10
-438.601416
20
410.773632
11
-439.775940
21
410.377025
0
LINE
8
0
10
-439.775940
20
410.377025
11
-440.982389
21
410.139060
0
LINE
8
0
10
-440.982389
20
410.139060
11
-442.204800
21
410.059739
0
LINE
8
0
10
-442.204800
20
410.059739
11
-443.427211
21
410.139060
0
LINE
8
0
10
-443.427211
20
410.139060
11
-444.633660
21
410.377025
0
LINE
8
0
10
-444.633660
20
410.377025
11
-445.808184
21
410.773632
0
LINE
8
0
10
-445.808184
20
410.773632
11
-446.934821
21
411.328883
0
LINE
8
0
10
-446.934821
20
411.328883
11
-447.978042
21
412.028385
0
LINE
8
0
10
-447.978042
20
412.028385
11
-448.907652
21
412.848525
0
LINE
8
0
10
-448.907652
20
412.848525
11
-449.715689
21
413.775467
0
LINE
8
0
10
-449.715689
20
413.775467
11
-450.394191
21
414.795378
0
LINE
8
0
10
-450.394191
20
414.795378
11
-450.935195
21
415.894421
0
LINE
8
0
10
-450.935195
20
415.894421
11
-451.330740
21
417.058762
0
LINE
8
0
10
-451.330740
20
417.058762
11
-451.572862
21
418.274567
0
LINE
8
0
10
-451.572862
20
418.274567
11
-451.653600
21
419.528000
0
LINE
8
0
10
-451.653600
20
419.528000
11
-451.572862
21
420.781433
0
LINE
8
0
10
-451.572862
20
420.781433
11
-451.330740
21
421.997238
0
LINE
8
0
10
-451.330740
20
421.997238
11
-450.935195
21
423.161579
0
LINE
8
0
10
-450.935195
20
423.161579
11
-450.394191
21
424.260622
0
LINE
8
0
10
-450.394191
20
424.260622
11
-449.715689
21
425.280533
0
LINE
8
0
10
-449.715689
20
425.280533
11
-448.907652
21
426.207475
0
LINE
8
0
10
-448.907652
20
426.207475
11
-447.978042
21
427.027615
0
LINE
8
0
10
-447.978042
20
427.027615
11
-446.934821
21
427.727117
0
LINE
8
0
10
-446.934821
20
427.727117
11
-445.808184
21
428.282368
0
LINE
8
0
10
-445.808184
20
428.282368
11
-444.633660
21
428.678975
0
LINE
8
0
10
-444.633660
20
428.678975
11
-443.427211
21
428.916940
0
LINE
8
0
10
-443.427211
20
428.916940
11
-442.204800
21
428.996261
0
LINE
8
0
10
-442.204800
20
428.996261
11
-440.982389
21
428.916940
0
LINE
8
0
10
-440.982389
20
428.916940
11
-439.775940
21
428.678975
0
LINE
8
0
10
-439.775940
20
428.678975
11
-438.601416
21
428.282368
0
LINE
8
0
10
-438.601416
20
428.282368
11
-437.474779
21
427.727117
0
LINE
8
0
10
-437.474779
20
427.727117
11
-436.431558
21
427.027615
0
LINE
8
0
10
-436.431558
20
427.027615
11
-435.501948
21
426.207475
0
LINE
8
0
10
-435.501948
20
426.207475
11
-434.693911
21
425.280533
0
LINE
8
0
10
-434.693911
20
425.280533
11
-434.015409
21
424.260622
0
LINE
8
0
10
-434.015409
20
424.260622
11
-433.474405
21
423.161579
0
LINE
8
0
10
-433.474405
20
423.161579
11
-433.078860
21
421.997238
0
LINE
8
0
10
-433.078860
20
421.997238
11
-432.836738
21
420.781433
0
LINE
8
0
10
-432.836738
20
420.781433
11
-432.756000
21
419.528000
0
LINE
8
0
10
-432.756000
20
419.528000
11
-432.756000
21
419.528000
0
LINE
8
0
10
-497.008000
20
676.535000
11
-497.204251
21
675.055782
0
LINE
8
0
10
-497.204251
20
675.055782
11
-497.767550
21
673.700355
0
LINE
8
0
10
-497.767550
20
673.700355
11
-498.659737
21
672.534813
0
LINE
8
0
10
-498.659737
20
672.534813
11
-499.842655
21
671.625251
0
LINE
8
0
10
-499.842655
20
671.625251
11
-501.221818
21
671.055595
0
LINE
8
0
10
-501.221818
20
671.055595
11
-502.677300
21
670.865710
0
LINE
8
0
10
-502.677300
20
670.865710
11
-504.132782
21
671.055595
0
LINE
8
0
10
-504.132782
20
671.055595
11
-505.511945
21
671.625251
0
LINE
8
0
10
-505.511945
20
671.625251
11
-506.694863
21
672.534813
0
LINE
8
0
10
-506.694863
20
672.534813
11
-507.587049
21
673.700355
0
LINE
8
0
10
-507.587049
20
673.700355
11
-508.150345
21
675.055782
0
LINE
8
0
10
-508.150345
20
675.055782
11
-508.346590
21
676.535000
0
LINE
8
0
10
-508.346590
20
676.535000
11
-508.150342
21
678.014218
0
LINE
8
0
10
-508.150342
20
678.014218
11
-507.587045
21
679.369645
0
LINE
8
0
10
-507.587045
20
679.369645
11
-506.694858
21
680.535187
0
LINE
8
0
10
-506.694858
20
680.535187
11
-505.511940
21
681.444749
0
LINE
8
0
10
-505.511940
20
681.444749
11
-504.132777
21
682.014405
0
LINE
8
0
10
-504.132777
20
682.014405
11
-502.677295
21
682.204290
0
LINE
8
0
10
-502.677295
20
682.204290
11
-501.221813
21
682.014405
0
LINE
8
0
10
-501.221813
20
682.014405
11
-499.842650
21
681.444749
0
LINE
8
0
10
-499.842650
20
681.444749
11
-498.659732
21
680.535187
0
LINE
8
0
10
-498.659732
20
680.535187
11
-497.767546
21
679.369645
0
LINE
8
0
10
-497.767546
20
679.369645
11
-497.204250
21
678.014218
0
LINE
8
0
10
-497.204250
20
678.014218
11
-497.008005
21
676.535000
0
LINE
8
0
10
-497.008005
20
676.535000
11
-497.008000
21
676.535000
0
LINE
8
0
10
-870.236000
20
495.118000
11
-870.366830
21
494.131854
0
LINE
8
0
10
-870.366830
20
494.131854
11
-870.742361
21
493.228235
0
LINE
8
0
10
-870.742361
20
493.228235
11
-871.337153
21
492.451206
0
LINE
8
0
10
-871.337153
20
492.451206
11
-872.125765
21
491.844831
0
LINE
8
0
10
-872.125765
20
491.844831
11
-873.045208
21
491.465060
0
LINE
8
0
10
-873.045208
20
491.465060
11
-874.015530
21
491.338470
0
LINE
8
0
10
-874.015530
20
491.338470
11
-874.985852
21
491.465060
0
LINE
8
0
10
-874.985852
20
491.465060
11
-875.905295
21
491.844831
0
LINE
8
0
10
-875.905295
20
491.844831
11
-876.693907
21
492.451206
0
LINE
8
0
10
-876.693907
20
492.451206
11
-877.288699
21
493.228235
0
LINE
8
0
10
-877.288699
20
493.228235
11
-877.664230
21
494.131854
0
LINE
8
0
10
-877.664230
20
494.131854
11
-877.795060
21
495.118000
0
LINE
8
0
10
-877.795060
20
495.118000
11
-877.664230
21
496.104146
0
LINE
8
0
10
-877.664230
20
496.104146
11
-877.288699
21
497.007765
0
LINE
8
0
10
-877.288699
20
497.007765
11
-876.693907
21
497.784794
0
LINE
8
0
10
-876.693907
20
497.784794
11
-875.905295
21
498.391169
0
LINE
8
0
10
-875.905295
20
498.391169
11
-874.985852
21
498.770940
0
LINE
8
0
10
-874.985852
20
498.770940
11
-874.015530
21
498.897530
0
LINE
8
0
10
-874.015530
20
498.897530
11
-873.045208
21
498.770940
0
LINE
8
0
10
-873.045208
20
498.770940
11
-872.125765
21
498.391169
0
LINE
8
0
10
-872.125765
20
498.391169
11
-871.337153
21
497.784794
0
LINE
8
0
10
-871.337153
20
497.784794
11
-870.742361
21
497.007765
0
LINE
8
0
10
-870.742361
20
497.007765
11
-870.366830
21
496.104146
0
LINE
8
0
10
-870.366830
20
496.104146
11
-870.236000
21
495.118000
0
LINE
8
0
10
-870.236000
20
495.118000
11
-870.236000
21
495.118000
0
LINE
8
0
10
-1059.210000
20
495.118000
11
-1059.340831
21
494.131849
0
LINE
8
0
10
-1059.340831
20
494.131849
11
-1059.716363
21
493.228225
0
LINE
8
0
10
-1059.716363
20
493.228225
11
-1060.311158
21
492.451192
0
LINE
8
0
10
-1060.311158
20
492.451192
11
-1061.099775
21
491.844813
0
LINE
8
0
10
-1061.099775
20
491.844813
11
-1062.019222
21
491.465040
0
LINE
8
0
10
-1062.019222
20
491.465040
11
-1062.989550
21
491.338449
0
LINE
8
0
10
-1062.989550
20
491.338449
11
-1063.959878
21
491.465040
0
LINE
8
0
10
-1063.959878
20
491.465040
11
-1064.879325
21
491.844813
0
LINE
8
0
10
-1064.879325
20
491.844813
11
-1065.667942
21
492.451192
0
LINE
8
0
10
-1065.667942
20
492.451192
11
-1066.262737
21
493.228225
0
LINE
8
0
10
-1066.262737
20
493.228225
11
-1066.638269
21
494.131849
0
LINE
8
0
10
-1066.638269
20
494.131849
11
-1066.769100
21
495.118000
0
LINE
8
0
10
-1066.769100
20
495.118000
11
-1066.638269
21
496.104151
0
LINE
8
0
10
-1066.638269
20
496.104151
11
-1066.262737
21
497.007775
0
LINE
8
0
10
-1066.262737
20
497.007775
11
-1065.667942
21
497.784808
0
LINE
8
0
10
-1065.667942
20
497.784808
11
-1064.879325
21
498.391187
0
LINE
8
0
10
-1064.879325
20
498.391187
11
-1063.959878
21
498.770960
0
LINE
8
0
10
-1063.959878
20
498.770960
11
-1062.989550
21
498.897551
0
LINE
8
0
10
-1062.989550
20
498.897551
11
-1062.019222
21
498.770960
0
LINE
8
0
10
-1062.019222
20
498.770960
11
-1061.099775
21
498.391187
0
LINE
8
0
10
-1061.099775
20
498.391187
11
-1060.311158
21
497.784808
0
LINE
8
0
10
-1060.311158
20
497.784808
11
-1059.716363
21
497.007775
0
LINE
8
0
10
-1059.716363
20
497.007775
11
-1059.340831
21
496.104151
0
LINE
8
0
10
-1059.340831
20
496.104151
11
-1059.210000
21
495.118000
0
LINE
8
0
10
-1059.210000
20
495.118000
11
-1059.210000
21
495.118000
0
LINE
8
0
10
-1192.440000
20
419.528000
11
-1192.636246
21
418.048780
0
LINE
8
0
10
-1192.636246
20
418.048780
11
-1193.199542
21
416.693350
0
LINE
8
0
10
-1193.199542
20
416.693350
11
-1194.091730
21
415.527806
0
LINE
8
0
10
-1194.091730
20
415.527806
11
-1195.274650
21
414.618242
0
LINE
8
0
10
-1195.274650
20
414.618242
11
-1196.653815
21
414.048586
0
LINE
8
0
10
-1196.653815
20
414.048586
11
-1198.109300
21
413.858700
0
LINE
8
0
10
-1198.109300
20
413.858700
11
-1199.564785
21
414.048586
0
LINE
8
0
10
-1199.564785
20
414.048586
11
-1200.943950
21
414.618242
0
LINE
8
0
10
-1200.943950
20
414.618242
11
-1202.126870
21
415.527806
0
LINE
8
0
10
-1202.126870
20
415.527806
11
-1203.019058
21
416.693350
0
LINE
8
0
10
-1203.019058
20
416.693350
11
-1203.582354
21
418.048780
0
LINE
8
0
10
-1203.582354
20
418.048780
11
-1203.778600
21
419.528000
0
LINE
8
0
10
-1203.778600
20
419.528000
11
-1203.582354
21
421.007220
0
LINE
8
0
10
-1203.582354
20
421.007220
11
-1203.019058
21
422.362650
0
LINE
8
0
10
-1203.019058
20
422.362650
11
-1202.126870
21
423.528194
0
LINE
8
0
10
-1202.126870
20
423.528194
11
-1200.943950
21
424.437758
0
LINE
8
0
10
-1200.943950
20
424.437758
11
-1199.564785
21
425.007414
0
LINE
8
0
10
-1199.564785
20
425.007414
11
-1198.109300
21
425.197300
0
LINE
8
0
10
-1198.109300
20
425.197300
11
-1196.653815
21
425.007414
0
LINE
8
0
10
-1196.653815
20
425.007414
11
-1195.274650
21
424.437758
0
LINE
8
0
10
-1195.274650
20
424.437758
11
-1194.091730
21
423.528194
0
LINE
8
0
10
-1194.091730
20
423.528194
11
-1193.199542
21
422.362650
0
LINE
8
0
10
-1193.199542
20
422.362650
11
-1192.636246
21
421.007220
0
LINE
8
0
10
-1192.636246
20
421.007220
11
-1192.440000
21
419.528000
0
LINE
8
0
10
-1192.440000
20
419.528000
11
-1192.440000
21
419.528000
0
LINE
8
0
10
-1192.440000
20
676.535000
11
-1192.636246
21
675.055780
0
LINE
8
0
10
-1192.636246
20
675.055780
11
-1193.199542
21
673.700350
0
LINE
8
0
10
-1193.199542
20
673.700350
11
-1194.091730
21
672.534806
0
LINE
8
0
10
-1194.091730
20
672.534806
11
-1195.274650
21
671.625242
0
LINE
8
0
10
-1195.274650
20
671.625242
11
-1196.653815
21
671.055586
0
LINE
8
0
10
-1196.653815
20
671.055586
11
-1198.109300
21
670.865700
0
LINE
8
0
10
-1198.109300
20
670.865700
11
-1199.564785
21
671.055586
0
LINE
8
0
10
-1199.564785
20
671.055586
11
-1200.943950
21
671.625242
0
LINE
8
0
10
-1200.943950
20
671.625242
11
-1202.126870
21
672.534806
0
LINE
8
0
10
-1202.126870
20
672.534806
11
-1203.019058
21
673.700350
0
LINE
8
0
10
-1203.019058
20
673.700350
11
-1203.582354
21
675.055780
0
LINE
8
0
10
-1203.582354
20
675.055780
11
-1203.778600
21
676.535000
0
LINE
8
0
10
-1203.778600
20
676.535000
11
-1203.582354
21
678.014220
0
LINE
8
0
10
-1203.582354
20
678.014220
11
-1203.019058
21
679.369650
0
LINE
8
0
10
-1203.019058
20
679.369650
11
-1202.126870
21
680.535194
0
LINE
8
0
10
-1202.126870
20
680.535194
11
-1200.943950
21
681.444758
0
LINE
8
0
10
-1200.943950
20
681.444758
11
-1199.564785
21
682.014414
0
LINE
8
0
10
-1199.564785
20
682.014414
11
-1198.109300
21
682.204300
0
LINE
8
0
10
-1198.109300
20
682.204300
11
-1196.653815
21
682.014414
0
LINE
8
0
10
-1196.653815
20
682.014414
11
-1195.274650
21
681.444758
0
LINE
8
0
10
-1195.274650
20
681.444758
11
-1194.091730
21
680.535194
0
LINE
8
0
10
-1194.091730
20
680.535194
11
-1193.199542
21
679.369650
0
LINE
8
0
10
-1193.199542
20
679.369650
11
-1192.636246
21
678.014220
0
LINE
8
0
10
-1192.636246
20
678.014220
11
-1192.440000
21
676.535000
0
LINE
8
0
10
-1192.440000
20
676.535000
11
-1192.440000
21
676.535000
0
LINE
8
0
10
-840.945000
20
419.528000
11
-841.025738
21
418.274567
0
LINE
8
0
10
-841.025738
20
418.274567
11
-841.267860
21
417.058762
0
LINE
8
0
10
-841.267860
20
417.058762
11
-841.663405
21
415.894421
0
LINE
8
0
10
-841.663405
20
415.894421
11
-842.204409
21
414.795378
0
LINE
8
0
10
-842.204409
20
414.795378
11
-842.882911
21
413.775467
0
LINE
8
0
10
-842.882911
20
413.775467
11
-843.690948
21
412.848525
0
LINE
8
0
10
-843.690948
20
412.848525
11
-844.620558
21
412.028385
0
LINE
8
0
10
-844.620558
20
412.028385
11
-845.663779
21
411.328883
0
LINE
8
0
10
-845.663779
20
411.328883
11
-846.790416
21
410.773632
0
LINE
8
0
10
-846.790416
20
410.773632
11
-847.964940
21
410.377025
0
LINE
8
0
10
-847.964940
20
410.377025
11
-849.171389
21
410.139060
0
LINE
8
0
10
-849.171389
20
410.139060
11
-850.393800
21
410.059739
0
LINE
8
0
10
-850.393800
20
410.059739
11
-851.616211
21
410.139060
0
LINE
8
0
10
-851.616211
20
410.139060
11
-852.822660
21
410.377025
0
LINE
8
0
10
-852.822660
20
410.377025
11
-853.997184
21
410.773632
0
LINE
8
0
10
-853.997184
20
410.773632
11
-855.123821
21
411.328883
0
LINE
8
0
10
-855.123821
20
411.328883
11
-856.167042
21
412.028385
0
LINE
8
0
10
-856.167042
20
412.028385
11
-857.096652
21
412.848525
0
LINE
8
0
10
-857.096652
20
412.848525
11
-857.904689
21
413.775467
0
LINE
8
0
10
-857.904689
20
413.775467
11
-858.583191
21
414.795378
0
LINE
8
0
10
-858.583191
20
414.795378
11
-859.124195
21
415.894421
0
LINE
8
0
10
-859.124195
20
415.894421
11
-859.519740
21
417.058762
0
LINE
8
0
10
-859.519740
20
417.058762
11
-859.761862
21
418.274567
0
LINE
8
0
10
-859.761862
20
418.274567
11
-859.842600
21
419.528000
0
LINE
8
0
10
-859.842600
20
419.528000
11
-859.761862
21
420.781433
0
LINE
8
0
10
-859.761862
20
420.781433
11
-859.519740
21
421.997238
0
LINE
8
0
10
-859.519740
20
421.997238
11
-859.124195
21
423.161579
0
LINE
8
0
10
-859.124195
20
423.161579
11
-858.583191
21
424.260622
0
LINE
8
0
10
-858.583191
20
424.260622
11
-857.904689
21
425.280533
0
LINE
8
0
10
-857.904689
20
425.280533
11
-857.096652
21
426.207475
0
LINE
8
0
10
-857.096652
20
426.207475
11
-856.167042
21
427.027615
0
LINE
8
0
10
-856.167042
20
427.027615
11
-855.123821
21
427.727117
0
LINE
8
0
10
-855.123821
20
427.727117
11
-853.997184
21
428.282368
0
LINE
8
0
10
-853.997184
20
428.282368
11
-852.822660
21
428.678975
0
LINE
8
0
10
-852.822660
20
428.678975
11
-851.616211
21
428.916940
0
LINE
8
0
10
-851.616211
20
428.916940
11
-850.393800
21
428.996261
0
LINE
8
0
10
-850.393800
20
428.996261
11
-849.171389
21
428.916940
0
LINE
8
0
10
-849.171389
20
428.916940
11
-847.964940
21
428.678975
0
LINE
8
0
10
-847.964940
20
428.678975
11
-846.790416
21
428.282368
0
LINE
8
0
10
-846.790416
20
428.282368
11
-845.663779
21
427.727117
0
LINE
8
0
10
-845.663779
20
427.727117
11
-844.620558
21
427.027615
0
LINE
8
0
10
-844.620558
20
427.027615
11
-843.690948
21
426.207475
0
LINE
8
0
10
-843.690948
20
426.207475
11
-842.882911
21
425.280533
0
LINE
8
0
10
-842.882911
20
425.280533
11
-842.204409
21
424.260622
0
LINE
8
0
10
-842.204409
20
424.260622
11
-841.663405
21
423.161579
0
LINE
8
0
10
-841.663405
20
423.161579
11
-841.267860
21
421.997238
0
LINE
8
0
10
-841.267860
20
421.997238
11
-841.025738
21
420.781433
0
LINE
8
0
10
-841.025738
20
420.781433
11
-840.945000
21
419.528000
0
LINE
8
0
10
-840.945000
20
419.528000
11
-840.945000
21
419.528000
0
LINE
8
0
10
-681.260000
20
495.118000
11
-681.390830
21
494.131854
0
LINE
8
0
10
-681.390830
20
494.131854
11
-681.766361
21
493.228235
0
LINE
8
0
10
-681.766361
20
493.228235
11
-682.361153
21
492.451206
0
LINE
8
0
10
-682.361153
20
492.451206
11
-683.149765
21
491.844831
0
LINE
8
0
10
-683.149765
20
491.844831
11
-684.069208
21
491.465060
0
LINE
8
0
10
-684.069208
20
491.465060
11
-685.039530
21
491.338470
0
LINE
8
0
10
-685.039530
20
491.338470
11
-686.009852
21
491.465060
0
LINE
8
0
10
-686.009852
20
491.465060
11
-686.929295
21
491.844831
0
LINE
8
0
10
-686.929295
20
491.844831
11
-687.717907
21
492.451206
0
LINE
8
0
10
-687.717907
20
492.451206
11
-688.312699
21
493.228235
0
LINE
8
0
10
-688.312699
20
493.228235
11
-688.688230
21
494.131854
0
LINE
8
0
10
-688.688230
20
494.131854
11
-688.819060
21
495.118000
0
LINE
8
0
10
-688.819060
20
495.118000
11
-688.688230
21
496.104146
0
LINE
8
0
10
-688.688230
20
496.104146
11
-688.312699
21
497.007765
0
LINE
8
0
10
-688.312699
20
497.007765
11
-687.717907
21
497.784794
0
LINE
8
0
10
-687.717907
20
497.784794
11
-686.929295
21
498.391169
0
LINE
8
0
10
-686.929295
20
498.391169
11
-686.009852
21
498.770940
0
LINE
8
0
10
-686.009852
20
498.770940
11
-685.039530
21
498.897530
0
LINE
8
0
10
-685.039530
20
498.897530
11
-684.069208
21
498.770940
0
LINE
8
0
10
-684.069208
20
498.770940
11
-683.149765
21
498.391169
0
LINE
8
0
10
-683.149765
20
498.391169
11
-682.361153
21
497.784794
0
LINE
8
0
10
-682.361153
20
497.784794
11
-681.766361
21
497.007765
0
LINE
8
0
10
-681.766361
20
497.007765
11
-681.390830
21
496.104146
0
LINE
8
0
10
-681.390830
20
496.104146
11
-681.260000
21
495.118000
0
LINE
8
0
10
-681.260000
20
495.118000
11
-681.260000
21
495.118000
0
LINE
8
0
10
-492.283000
20
495.118000
11
-492.413830
21
494.131854
0
LINE
8
0
10
-492.413830
20
494.131854
11
-492.789361
21
493.228235
0
LINE
8
0
10
-492.789361
20
493.228235
11
-493.384153
21
492.451206
0
LINE
8
0
10
-493.384153
20
492.451206
11
-494.172765
21
491.844831
0
LINE
8
0
10
-494.172765
20
491.844831
11
-495.092208
21
491.465060
0
LINE
8
0
10
-495.092208
20
491.465060
11
-496.062530
21
491.338470
0
LINE
8
0
10
-496.062530
20
491.338470
11
-497.032852
21
491.465060
0
LINE
8
0
10
-497.032852
20
491.465060
11
-497.952295
21
491.844831
0
LINE
8
0
10
-497.952295
20
491.844831
11
-498.740907
21
492.451206
0
LINE
8
0
10
-498.740907
20
492.451206
11
-499.335699
21
493.228235
0
LINE
8
0
10
-499.335699
20
493.228235
11
-499.711230
21
494.131854
0
LINE
8
0
10
-499.711230
20
494.131854
11
-499.842060
21
495.118000
0
LINE
8
0
10
-499.842060
20
495.118000
11
-499.711230
21
496.104146
0
LINE
8
0
10
-499.711230
20
496.104146
11
-499.335699
21
497.007765
0
LINE
8
0
10
-499.335699
20
497.007765
11
-498.740907
21
497.784794
0
LINE
8
0
10
-498.740907
20
497.784794
11
-497.952295
21
498.391169
0
LINE
8
0
10
-497.952295
20
498.391169
11
-497.032852
21
498.770940
0
LINE
8
0
10
-497.032852
20
498.770940
11
-496.062530
21
498.897530
0
LINE
8
0
10
-496.062530
20
498.897530
11
-495.092208
21
498.770940
0
LINE
8
0
10
-495.092208
20
498.770940
11
-494.172765
21
498.391169
0
LINE
8
0
10
-494.172765
20
498.391169
11
-493.384153
21
497.784794
0
LINE
8
0
10
-493.384153
20
497.784794
11
-492.789361
21
497.007765
0
LINE
8
0
10
-492.789361
20
497.007765
11
-492.413830
21
496.104146
0
LINE
8
0
10
-492.413830
20
496.104146
11
-492.283000
21
495.118000
0
LINE
8
0
10
-492.283000
20
495.118000
11
-492.283000
21
495.118000
0
LINE
8
0
10
-497.008000
20
419.528000
11
-497.204251
21
418.048782
0
LINE
8
0
10
-497.204251
20
418.048782
11
-497.767550
21
416.693355
0
LINE
8
0
10
-497.767550
20
416.693355
11
-498.659737
21
415.527813
0
LINE
8
0
10
-498.659737
20
415.527813
11
-499.842655
21
414.618251
0
LINE
8
0
10
-499.842655
20
414.618251
11
-501.221818
21
414.048595
0
LINE
8
0
10
-501.221818
20
414.048595
11
-502.677300
21
413.858710
0
LINE
8
0
10
-502.677300
20
413.858710
11
-504.132782
21
414.048595
0
LINE
8
0
10
-504.132782
20
414.048595
11
-505.511945
21
414.618251
0
LINE
8
0
10
-505.511945
20
414.618251
11
-506.694863
21
415.527813
0
LINE
8
0
10
-506.694863
20
415.527813
11
-507.587049
21
416.693355
0
LINE
8
0
10
-507.587049
20
416.693355
11
-508.150345
21
418.048782
0
LINE
8
0
10
-508.150345
20
418.048782
11
-508.346590
21
419.528000
0
LINE
8
0
10
-508.346590
20
419.528000
11
-508.150342
21
421.007218
0
LINE
8
0
10
-508.150342
20
421.007218
11
-507.587045
21
422.362645
0
LINE
8
0
10
-507.587045
20
422.362645
11
-506.694858
21
423.528187
0
LINE
8
0
10
-506.694858
20
423.528187
11
-505.511940
21
424.437749
0
LINE
8
0
10
-505.511940
20
424.437749
11
-504.132777
21
425.007405
0
LINE
8
0
10
-504.132777
20
425.007405
11
-502.677295
21
425.197290
0
LINE
8
0
10
-502.677295
20
425.197290
11
-501.221813
21
425.007405
0
LINE
8
0
10
-501.221813
20
425.007405
11
-499.842650
21
424.437749
0
LINE
8
0
10
-499.842650
20
424.437749
11
-498.659732
21
423.528187
0
LINE
8
0
10
-498.659732
20
423.528187
11
-497.767546
21
422.362645
0
LINE
8
0
10
-497.767546
20
422.362645
11
-497.204250
21
421.007218
0
LINE
8
0
10
-497.204250
20
421.007218
11
-497.008005
21
419.528000
0
LINE
8
0
10
-497.008005
20
419.528000
11
-497.008000
21
419.528000
0
LINE
8
0
10
-634.016000
20
600.945000
11
-634.145498
21
599.957629
0
LINE
8
0
10
-634.145498
20
599.957629
11
-634.520309
21
599.052638
0
LINE
8
0
10
-634.520309
20
599.052638
11
-635.114962
21
598.274255
0
LINE
8
0
10
-635.114962
20
598.274255
11
-635.903986
21
597.666708
0
LINE
8
0
10
-635.903986
20
597.666708
11
-636.824236
21
597.286169
0
LINE
8
0
10
-636.824236
20
597.286169
11
-637.795525
21
597.159322
0
LINE
8
0
10
-637.795525
20
597.159322
11
-638.766814
21
597.286169
0
LINE
8
0
10
-638.766814
20
597.286169
11
-639.687064
21
597.666708
0
LINE
8
0
10
-639.687064
20
597.666708
11
-640.476088
21
598.274255
0
LINE
8
0
10
-640.476088
20
598.274255
11
-641.070741
21
599.052638
0
LINE
8
0
10
-641.070741
20
599.052638
11
-641.445552
21
599.957629
0
LINE
8
0
10
-641.445552
20
599.957629
11
-641.575050
21
600.945000
0
LINE
8
0
10
-641.575050
20
600.945000
11
-641.445552
21
601.932371
0
LINE
8
0
10
-641.445552
20
601.932371
11
-641.070741
21
602.837362
0
LINE
8
0
10
-641.070741
20
602.837362
11
-640.476088
21
603.615745
0
LINE
8
0
10
-640.476088
20
603.615745
11
-639.687064
21
604.223292
0
LINE
8
0
10
-639.687064
20
604.223292
11
-638.766814
21
604.603831
0
LINE
8
0
10
-638.766814
20
604.603831
11
-637.795525
21
604.730678
0
LINE
8
0
10
-637.795525
20
604.730678
11
-636.824236
21
604.603831
0
LINE
8
0
10
-636.824236
20
604.603831
11
-635.903986
21
604.223292
0
LINE
8
0
10
-635.903986
20
604.223292
11
-635.114962
21
603.615745
0
LINE
8
0
10
-635.114962
20
603.615745
11
-634.520309
21
602.837362
0
LINE
8
0
10
-634.520309
20
602.837362
11
-634.145498
21
601.932371
0
LINE
8
0
10
-634.145498
20
601.932371
11
-634.016000
21
600.945000
0
LINE
8
0
10
-634.016000
20
600.945000
11
-634.016000
21
600.945000
0
LINE
8
0
10
-840.945000
20
676.535000
11
-841.025738
21
675.281567
0
LINE
8
0
10
-841.025738
20
675.281567
11
-841.267860
21
674.065762
0
LINE
8
0
10
-841.267860
20
674.065762
11
-841.663405
21
672.901421
0
LINE
8
0
10
-841.663405
20
672.901421
11
-842.204409
21
671.802378
0
LINE
8
0
10
-842.204409
20
671.802378
11
-842.882911
21
670.782467
0
LINE
8
0
10
-842.882911
20
670.782467
11
-843.690948
21
669.855525
0
LINE
8
0
10
-843.690948
20
669.855525
11
-844.620558
21
669.035385
0
LINE
8
0
10
-844.620558
20
669.035385
11
-845.663779
21
668.335883
0
LINE
8
0
10
-845.663779
20
668.335883
11
-846.790416
21
667.780632
0
LINE
8
0
10
-846.790416
20
667.780632
11
-847.964940
21
667.384025
0
LINE
8
0
10
-847.964940
20
667.384025
11
-849.171389
21
667.146060
0
LINE
8
0
10
-849.171389
20
667.146060
11
-850.393800
21
667.066739
0
LINE
8
0
10
-850.393800
20
667.066739
11
-851.616211
21
667.146060
0
LINE
8
0
10
-851.616211
20
667.146060
11
-852.822660
21
667.384025
0
LINE
8
0
10
-852.822660
20
667.384025
11
-853.997184
21
667.780632
0
LINE
8
0
10
-853.997184
20
667.780632
11
-855.123821
21
668.335883
0
LINE
8
0
10
-855.123821
20
668.335883
11
-856.167042
21
669.035385
0
LINE
8
0
10
-856.167042
20
669.035385
11
-857.096652
21
669.855525
0
LINE
8
0
10
-857.096652
20
669.855525
11
-857.904689
21
670.782467
0
LINE
8
0
10
-857.904689
20
670.782467
11
-858.583191
21
671.802378
0
LINE
8
0
10
-858.583191
20
671.802378
11
-859.124195
21
672.901421
0
LINE
8
0
10
-859.124195
20
672.901421
11
-859.519740
21
674.065762
0
LINE
8
0
10
-859.519740
20
674.065762
11
-859.761862
21
675.281567
0
LINE
8
0
10
-859.761862
20
675.281567
11
-859.842600
21
676.535000
0
LINE
8
0
10
-859.842600
20
676.535000
11
-859.761862
21
677.788433
0
LINE
8
0
10
-859.761862
20
677.788433
11
-859.519740
21
679.004238
0
LINE
8
0
10
-859.519740
20
679.004238
11
-859.124195
21
680.168579
0
LINE
8
0
10
-859.124195
20
680.168579
11
-858.583191
21
681.267622
0
LINE
8
0
10
-858.583191
20
681.267622
11
-857.904689
21
682.287533
0
LINE
8
0
10
-857.904689
20
682.287533
11
-857.096652
21
683.214475
0
LINE
8
0
10
-857.096652
20
683.214475
11
-856.167042
21
684.034615
0
LINE
8
0
10
-856.167042
20
684.034615
11
-855.123821
21
684.734117
0
LINE
8
0
10
-855.123821
20
684.734117
11
-853.997184
21
685.289368
0
LINE
8
0
10
-853.997184
20
685.289368
11
-852.822660
21
685.685975
0
LINE
8
0
10
-852.822660
20
685.685975
11
-851.616211
21
685.923940
0
LINE
8
0
10
-851.616211
20
685.923940
11
-850.393800
21
686.003261
0
LINE
8
0
10
-850.393800
20
686.003261
11
-849.171389
21
685.923940
0
LINE
8
0
10
-849.171389
20
685.923940
11
-847.964940
21
685.685975
0
LINE
8
0
10
-847.964940
20
685.685975
11
-846.790416
21
685.289368
0
LINE
8
0
10
-846.790416
20
685.289368
11
-845.663779
21
684.734117
0
LINE
8
0
10
-845.663779
20
684.734117
11
-844.620558
21
684.034615
0
LINE
8
0
10
-844.620558
20
684.034615
11
-843.690948
21
683.214475
0
LINE
8
0
10
-843.690948
20
683.214475
11
-842.882911
21
682.287533
0
LINE
8
0
10
-842.882911
20
682.287533
11
-842.204409
21
681.267622
0
LINE
8
0
10
-842.204409
20
681.267622
11
-841.663405
21
680.168579
0
LINE
8
0
10
-841.663405
20
680.168579
11
-841.267860
21
679.004238
0
LINE
8
0
10
-841.267860
20
679.004238
11
-841.025738
21
677.788433
0
LINE
8
0
10
-841.025738
20
677.788433
11
-840.945000
21
676.535000
0
LINE
8
0
10
-840.945000
20
676.535000
11
-840.945000
21
676.535000
0
LINE
8
0
10
-1200.940000
20
600.945000
11
-1201.067561
21
599.955856
0
LINE
8
0
10
-1201.067561
20
599.955856
11
-1201.441323
21
599.048877
0
LINE
8
0
10
-1201.441323
20
599.048877
11
-1202.035771
21
598.268531
0
LINE
8
0
10
-1202.035771
20
598.268531
11
-1202.825390
21
597.659285
0
LINE
8
0
10
-1202.825390
20
597.659285
11
-1203.746811
21
597.277630
0
LINE
8
0
10
-1203.746811
20
597.277630
11
-1204.719500
21
597.150411
0
LINE
8
0
10
-1204.719500
20
597.150411
11
-1205.692189
21
597.277630
0
LINE
8
0
10
-1205.692189
20
597.277630
11
-1206.613610
21
597.659285
0
LINE
8
0
10
-1206.613610
20
597.659285
11
-1207.403229
21
598.268531
0
LINE
8
0
10
-1207.403229
20
598.268531
11
-1207.997677
21
599.048877
0
LINE
8
0
10
-1207.997677
20
599.048877
11
-1208.371439
21
599.955856
0
LINE
8
0
10
-1208.371439
20
599.955856
11
-1208.499000
21
600.945000
0
LINE
8
0
10
-1208.499000
20
600.945000
11
-1208.371439
21
601.934144
0
LINE
8
0
10
-1208.371439
20
601.934144
11
-1207.997677
21
602.841123
0
LINE
8
0
10
-1207.997677
20
602.841123
11
-1207.403229
21
603.621469
0
LINE
8
0
10
-1207.403229
20
603.621469
11
-1206.613610
21
604.230715
0
LINE
8
0
10
-1206.613610
20
604.230715
11
-1205.692189
21
604.612370
0
LINE
8
0
10
-1205.692189
20
604.612370
11
-1204.719500
21
604.739589
0
LINE
8
0
10
-1204.719500
20
604.739589
11
-1203.746811
21
604.612370
0
LINE
8
0
10
-1203.746811
20
604.612370
11
-1202.825390
21
604.230715
0
LINE
8
0
10
-1202.825390
20
604.230715
11
-1202.035771
21
603.621469
0
LINE
8
0
10
-1202.035771
20
603.621469
11
-1201.441323
21
602.841123
0
LINE
8
0
10
-1201.441323
20
602.841123
11
-1201.067561
21
601.934144
0
LINE
8
0
10
-1201.067561
20
601.934144
11
-1200.940000
21
600.945000
0
LINE
8
0
10
-1200.940000
20
600.945000
11
-1200.940000
21
600.945000
0
LINE
8
0
10
-1249.130000
20
419.528000
11
-1249.210738
21
418.274567
0
LINE
8
0
10
-1249.210738
20
418.274567
11
-1249.452860
21
417.058762
0
LINE
8
0
10
-1249.452860
20
417.058762
11
-1249.848405
21
415.894421
0
LINE
8
0
10
-1249.848405
20
415.894421
11
-1250.389409
21
414.795378
0
LINE
8
0
10
-1250.389409
20
414.795378
11
-1251.067911
21
413.775467
0
LINE
8
0
10
-1251.067911
20
413.775467
11
-1251.875948
21
412.848525
0
LINE
8
0
10
-1251.875948
20
412.848525
11
-1252.805558
21
412.028385
0
LINE
8
0
10
-1252.805558
20
412.028385
11
-1253.848779
21
411.328883
0
LINE
8
0
10
-1253.848779
20
411.328883
11
-1254.975416
21
410.773632
0
LINE
8
0
10
-1254.975416
20
410.773632
11
-1256.149940
21
410.377025
0
LINE
8
0
10
-1256.149940
20
410.377025
11
-1257.356389
21
410.139060
0
LINE
8
0
10
-1257.356389
20
410.139060
11
-1258.578800
21
410.059739
0
LINE
8
0
10
-1258.578800
20
410.059739
11
-1259.801211
21
410.139060
0
LINE
8
0
10
-1259.801211
20
410.139060
11
-1261.007660
21
410.377025
0
LINE
8
0
10
-1261.007660
20
410.377025
11
-1262.182184
21
410.773632
0
LINE
8
0
10
-1262.182184
20
410.773632
11
-1263.308821
21
411.328883
0
LINE
8
0
10
-1263.308821
20
411.328883
11
-1264.352042
21
412.028385
0
LINE
8
0
10
-1264.352042
20
412.028385
11
-1265.281652
21
412.848525
0
LINE
8
0
10
-1265.281652
20
412.848525
11
-1266.089689
21
413.775467
0
LINE
8
0
10
-1266.089689
20
413.775467
11
-1266.768191
21
414.795378
0
LINE
8
0
10
-1266.768191
20
414.795378
11
-1267.309195
21
415.894421
0
LINE
8
0
10
-1267.309195
20
415.894421
11
-1267.704740
21
417.058762
0
LINE
8
0
10
-1267.704740
20
417.058762
11
-1267.946862
21
418.274567
0
LINE
8
0
10
-1267.946862
20
418.274567
11
-1268.027600
21
419.528000
0
LINE
8
0
10
-1268.027600
20
419.528000
11
-1267.946862
21
420.781433
0
LINE
8
0
10
-1267.946862
20
420.781433
11
-1267.704740
21
421.997238
0
LINE
8
0
10
-1267.704740
20
421.997238
11
-1267.309195
21
423.161579
0
LINE
8
0
10
-1267.309195
20
423.161579
11
-1266.768191
21
424.260622
0
LINE
8
0
10
-1266.768191
20
424.260622
11
-1266.089689
21
425.280533
0
LINE
8
0
10
-1266.089689
20
425.280533
11
-1265.281652
21
426.207475
0
LINE
8
0
10
-1265.281652
20
426.207475
11
-1264.352042
21
427.027615
0
LINE
8
0
10
-1264.352042
20
427.027615
11
-1263.308821
21
427.727117
0
LINE
8
0
10
-1263.308821
20
427.727117
11
-1262.182184
21
428.282368
0
LINE
8
0
10
-1262.182184
20
428.282368
11
-1261.007660
21
428.678975
0
LINE
8
0
10
-1261.007660
20
428.678975
11
-1259.801211
21
428.916940
0
LINE
8
0
10
-1259.801211
20
428.916940
11
-1258.578800
21
428.996261
0
LINE
8
0
10
-1258.578800
20
428.996261
11
-1257.356389
21
428.916940
0
LINE
8
0
10
-1257.356389
20
428.916940
11
-1256.149940
21
428.678975
0
LINE
8
0
10
-1256.149940
20
428.678975
11
-1254.975416
21
428.282368
0
LINE
8
0
10
-1254.975416
20
428.282368
11
-1253.848779
21
427.727117
0
LINE
8
0
10
-1253.848779
20
427.727117
11
-1252.805558
21
427.027615
0
LINE
8
0
10
-1252.805558
20
427.027615
11
-1251.875948
21
426.207475
0
LINE
8
0
10
-1251.875948
20
426.207475
11
-1251.067911
21
425.280533
0
LINE
8
0
10
-1251.067911
20
425.280533
11
-1250.389409
21
424.260622
0
LINE
8
0
10
-1250.389409
20
424.260622
11
-1249.848405
21
423.161579
0
LINE
8
0
10
-1249.848405
20
423.161579
11
-1249.452860
21
421.997238
0
LINE
8
0
10
-1249.452860
20
421.997238
11
-1249.210738
21
420.781433
0
LINE
8
0
10
-1249.210738
20
420.781433
11
-1249.130000
21
419.528000
0
LINE
8
0
10
-1249.130000
20
419.528000
11
-1249.130000
21
419.528000
0
LINE
8
0
10
-445.984000
20
400.630000
11
-443.665383
21
400.747080
0
LINE
8
0
10
-443.665383
20
400.747080
11
-441.413745
21
401.090719
0
LINE
8
0
10
-441.413745
20
401.090719
11
-439.240484
21
401.649520
0
LINE
8
0
10
-439.240484
20
401.649520
11
-437.156998
21
402.412083
0
LINE
8
0
10
-437.156998
20
402.412083
11
-435.174687
21
403.367010
0
LINE
8
0
10
-435.174687
20
403.367010
11
-433.304949
21
404.502902
0
LINE
8
0
10
-433.304949
20
404.502902
11
-431.559183
21
405.808361
0
LINE
8
0
10
-431.559183
20
405.808361
11
-429.948787
21
407.271988
0
LINE
8
0
10
-429.948787
20
407.271988
11
-428.485161
21
408.882383
0
LINE
8
0
10
-428.485161
20
408.882383
11
-427.179702
21
410.628149
0
LINE
8
0
10
-427.179702
20
410.628149
11
-426.043810
21
412.497887
0
LINE
8
0
10
-426.043810
20
412.497887
11
-425.088883
21
414.480198
0
LINE
8
0
10
-425.088883
20
414.480198
11
-424.326320
21
416.563684
0
LINE
8
0
10
-424.326320
20
416.563684
11
-423.767519
21
418.736945
0
LINE
8
0
10
-423.767519
20
418.736945
11
-423.423880
21
420.988583
0
LINE
8
0
10
-423.423880
20
420.988583
11
-423.306800
21
423.307200
0
LINE
8
0
10
-423.306800
20
423.307200
11
-423.306800
21
488.315100
0
LINE
8
0
10
-423.306800
20
488.315100
11
-466.393400
21
488.315100
0
LINE
8
0
10
-466.393400
20
488.315100
11
-466.393400
21
607.748100
0
LINE
8
0
10
-466.393400
20
607.748100
11
-423.306800
21
607.748100
0
LINE
8
0
10
-423.306800
20
607.748100
11
-423.306800
21
672.756000
0
LINE
8
0
10
-423.306800
20
672.756000
11
-423.423880
21
675.074617
0
LINE
8
0
10
-423.423880
20
675.074617
11
-423.767519
21
677.326255
0
LINE
8
0
10
-423.767519
20
677.326255
11
-424.326320
21
679.499516
0
LINE
8
0
10
-424.326320
20
679.499516
11
-425.088883
21
681.583002
0
LINE
8
0
10
-425.088883
20
681.583002
11
-426.043810
21
683.565313
0
LINE
8
0
10
-426.043810
20
683.565313
11
-427.179702
21
685.435051
0
LINE
8
0
10
-427.179702
20
685.435051
11
-428.485161
21
687.180817
0
LINE
8
0
10
-428.485161
20
687.180817
11
-429.948787
21
688.791213
0
LINE
8
0
10
-429.948787
20
688.791213
11
-431.559183
21
690.254839
0
LINE
8
0
10
-431.559183
20
690.254839
11
-433.304949
21
691.560298
0
LINE
8
0
10
-433.304949
20
691.560298
11
-435.174687
21
692.696190
0
LINE
8
0
10
-435.174687
20
692.696190
11
-437.156998
21
693.651117
0
LINE
8
0
10
-437.156998
20
693.651117
11
-439.240484
21
694.413680
0
LINE
8
0
10
-439.240484
20
694.413680
11
-441.413745
21
694.972481
0
LINE
8
0
10
-441.413745
20
694.972481
11
-443.665383
21
695.316120
0
LINE
8
0
10
-443.665383
20
695.316120
11
-445.984000
21
695.433200
0
LINE
8
0
10
-445.984000
20
695.433200
11
-1254.803000
21
695.433200
0
LINE
8
0
10
-1254.803000
20
695.433200
11
-1257.121599
21
695.316114
0
LINE
8
0
10
-1257.121599
20
695.316114
11
-1259.373222
21
694.972470
0
LINE
8
0
10
-1259.373222
20
694.972470
11
-1261.546470
21
694.413666
0
LINE
8
0
10
-1261.546470
20
694.413666
11
-1263.629944
21
693.651100
0
LINE
8
0
10
-1263.629944
20
693.651100
11
-1265.612245
21
692.696172
0
LINE
8
0
10
-1265.612245
20
692.696172
11
-1267.481975
21
691.560280
0
LINE
8
0
10
-1267.481975
20
691.560280
11
-1269.227735
21
690.254822
0
LINE
8
0
10
-1269.227735
20
690.254822
11
-1270.838125
21
688.791197
0
LINE
8
0
10
-1270.838125
20
688.791197
11
-1272.301747
21
687.180804
0
LINE
8
0
10
-1272.301747
20
687.180804
11
-1273.607203
21
685.435040
0
LINE
8
0
10
-1273.607203
20
685.435040
11
-1274.743093
21
683.565305
0
LINE
8
0
10
-1274.743093
20
683.565305
11
-1275.698019
21
681.582996
0
LINE
8
0
10
-1275.698019
20
681.582996
11
-1276.460581
21
679.499513
0
LINE
8
0
10
-1276.460581
20
679.499513
11
-1277.019381
21
677.326253
0
LINE
8
0
10
-1277.019381
20
677.326253
11
-1277.363021
21
675.074616
0
LINE
8
0
10
-1277.363021
20
675.074616
11
-1277.480100
21
672.756000
0
LINE
8
0
10
-1277.480100
20
672.756000
11
-1277.480100
21
607.748100
0
LINE
8
0
10
-1277.480100
20
607.748100
11
-1234.393500
21
607.748100
0
LINE
8
0
10
-1234.393500
20
607.748100
11
-1234.393500
21
488.315000
0
LINE
8
0
10
-1234.393500
20
488.315000
11
-1277.480100
21
488.315000
0
LINE
8
0
10
-1277.480100
20
488.315000
11
-1277.480100
21
423.307100
0
LINE
8
0
10
-1277.480100
20
423.307100
11
-1277.363021
21
420.988501
0
LINE
8
0
10
-1277.363021
20
420.988501
11
-1277.019381
21
418.736878
0
LINE
8
0
10
-1277.019381
20
418.736878
11
-1276.460581
21
416.563630
0
LINE
8
0
10
-1276.460581
20
416.563630
11
-1275.698019
21
414.480155
0
LINE
8
0
10
-1275.698019
20
414.480155
11
-1274.743093
21
412.497852
0
LINE
8
0
10
-1274.743093
20
412.497852
11
-1273.607203
21
410.628120
0
LINE
8
0
10
-1273.607203
20
410.628120
11
-1272.301747
21
408.882357
0
LINE
8
0
10
-1272.301747
20
408.882357
11
-1270.838125
21
407.271962
0
LINE
8
0
10
-1270.838125
20
407.271962
11
-1269.227735
21
405.808335
0
LINE
8
0
10
-1269.227735
20
405.808335
11
-1267.481975
21
404.502872
0
LINE
8
0
10
-1267.481975
20
404.502872
11
-1265.612245
21
403.366974
0
LINE
8
0
10
-1265.612245
20
403.366974
11
-1263.629944
21
402.412039
0
LINE
8
0
10
-1263.629944
20
402.412039
11
-1261.546470
21
401.649465
0
LINE
8
0
10
-1261.546470
20
401.649465
11
-1259.373222
21
401.090652
0
LINE
8
0
10
-1259.373222
20
401.090652
11
-1257.121599
21
400.746997
0
LINE
8
0
10
-1257.121599
20
400.746997
11
-1254.803000
21
400.629900
 0 
ENDSEC
 0 
EOF