<?xml version="1.0" encoding="UTF-8" standalone="no"?>
<svg
   xmlns:dc="http://purl.org/dc/elements/1.1/"
   xmlns:cc="http://creativecommons.org/ns#"
   xmlns:rdf="http://www.w3.org/1999/02/22-rdf-syntax-ns#"
   xmlns:svg="http://www.w3.org/2000/svg"
   xmlns="http://www.w3.org/2000/svg"
   xmlns:sodipodi="http://sodipodi.sourceforge.net/DTD/sodipodi-0.dtd"
   xmlns:inkscape="http://www.inkscape.org/namespaces/inkscape"
   sodipodi:docname="panel_ergo_mdf6mm_450x880.svg"
   inkscape:version="1.0 (4035a4fb49, 2020-05-01)"
   id="svg8"
   version="1.1"
   viewBox="0 0 450.26459 880.26459"
   height="880.26459mm"
   width="450.26459mm">
  <defs
     id="defs2">
    <marker
       id="DistanceX"
       orient="auto"
       refX="0"
       refY="0"
       style="overflow:visible">
      <path
         d="M 3,-3 -3,3 M 0,-5 V 5"
         style="stroke:#000000;stroke-width:0.5"
         id="path833" />
    </marker>
    <pattern
       id="Hatch"
       patternUnits="userSpaceOnUse"
       width="8"
       height="8"
       x="0"
       y="0">
      <path
         d="M8 4 l-4,4"
         stroke="#000000"
         stroke-width="0.25"
         linecap="square"
         id="path836" />
      <path
         d="M6 2 l-4,4"
         stroke="#000000"
         stroke-width="0.25"
         linecap="square"
         id="path838" />
      <path
         d="M4 0 l-4,4"
         stroke="#000000"
         stroke-width="0.25"
         linecap="square"
         id="path840" />
    </pattern>
    <symbol
       id="*MODEL_SPACE" />
    <symbol
       id="*PAPER_SPACE" />
  </defs>
  <sodipodi:namedview
     inkscape:window-maximized="1"
     inkscape:window-y="-8"
     inkscape:window-x="-8"
     inkscape:window-height="1057"
     inkscape:window-width="1920"
     fit-margin-bottom="0"
     fit-margin-right="0"
     fit-margin-left="0"
     fit-margin-top="0"
     showgrid="false"
     inkscape:document-rotation="0"
     inkscape:current-layer="layer1"
     inkscape:document-units="mm"
     inkscape:cy="1711.1359"
     inkscape:cx="128.34515"
     inkscape:zoom="0.175"
     inkscape:pageshadow="2"
     inkscape:pageopacity="0.0"
     borderopacity="1.0"
     bordercolor="#666666"
     pagecolor="#ffffff"
     id="base" />
  <metadata
     id="metadata5">
    <rdf:RDF>
      <cc:Work
         rdf:about="">
        <dc:format>image/svg+xml</dc:format>
        <dc:type
           rdf:resource="http://purl.org/dc/dcmitype/StillImage" />
        <dc:title></dc:title>
      </cc:Work>
    </rdf:RDF>
  </metadata>
  <g
     transform="translate(101.1561,307.84062)"
     id="layer1"
     inkscape:groupmode="layer"
     inkscape:label="Capa 1">
    <g
       transform="matrix(0.26458333,0,0,0.26458333,-101.02381,275.29167)"
       inkscape:label="0"
       id="g1219">
      <path
         d="m 1262.3622,11.338583 a 3.779528,3.779528 0 1 0 -7.559,0 3.779528,3.779528 0 1 0 7.559,0 z"
         style="fill:none;stroke:#000000"
         id="path847" />
      <path
         d="m 445.98425,268.34646 a 3.779528,3.779528 0 1 0 -7.55905,0 3.779528,3.779528 0 1 0 7.55905,0 z"
         style="fill:none;stroke:#000000"
         id="path849" />
      <path
         d="m 1262.3622,268.34646 a 3.779528,3.779528 0 1 0 -7.559,0 3.779528,3.779528 0 1 0 7.559,0 z"
         style="fill:none;stroke:#000000"
         id="path851" />
      <path
         d="m 445.98425,11.338583 a 3.779528,3.779528 0 1 0 -7.55905,0 3.779528,3.779528 0 1 0 7.55905,0 z"
         style="fill:none;stroke:#000000"
         id="path853" />
      <path
         d="m 634.96063,-548.0315 a 3.77953,3.77953 0 1 0 -7.55906,0 3.77953,3.77953 0 1 0 7.55906,0 z"
         style="fill:none;stroke:#000000"
         id="path855" />
      <path
         d="m 634.96063,-956.22047 a 3.77953,3.77953 0 1 0 -7.55906,0 3.77953,3.77953 0 1 0 7.55906,0 z"
         style="fill:none;stroke:#000000"
         id="path857" />
      <path
         d="m 634.96063,-805.03937 a 3.77953,3.77953 0 1 0 -7.55906,0 3.77953,3.77953 0 1 0 7.55906,0 z"
         style="fill:none;stroke:#000000"
         id="path859" />
      <path
         d="m 634.96063,-1213.2283 a 3.77953,3.77953 0 1 0 -7.55906,0 3.77953,3.77953 0 1 0 7.55906,0 z"
         style="fill:none;stroke:#000000"
         id="path861" />
      <path
         d="m 1073.3858,-805.03937 a 3.779528,3.779528 0 1 0 -7.559,0 3.779528,3.779528 0 1 0 7.559,0 z"
         style="fill:none;stroke:#000000"
         id="path863" />
      <path
         d="m 1073.3858,-1213.2283 a 3.779528,3.779528 0 1 0 -7.559,0 3.779528,3.779528 0 1 0 7.559,0 z"
         style="fill:none;stroke:#000000"
         id="path865" />
      <path
         d="m 1073.3858,-548.0315 a 3.779528,3.779528 0 1 0 -7.559,0 3.779528,3.779528 0 1 0 7.559,0 z"
         style="fill:none;stroke:#000000"
         id="path867" />
      <path
         d="m 1073.3858,-956.22047 a 3.779528,3.779528 0 1 0 -7.559,0 3.779528,3.779528 0 1 0 7.559,0 z"
         style="fill:none;stroke:#000000"
         id="path869" />
      <path
         d="m 445.98425,676.53543 a 3.779528,3.779528 0 1 0 -7.55905,0 3.779528,3.779528 0 1 0 7.55905,0 z"
         style="fill:none;stroke:#000000"
         id="path871" />
      <path
         d="m 1167.874,-396.85039 a 3.779528,3.779528 0 1 0 -7.559,0 3.779528,3.779528 0 1 0 7.559,0 z"
         style="fill:none;stroke:#000000"
         id="path873" />
      <path
         d="m 634.96063,-1364.4094 a 3.77953,3.77953 0 1 0 -7.55906,0 3.77953,3.77953 0 1 0 7.55906,0 z"
         style="fill:none;stroke:#000000"
         id="path875" />
      <path
         d="m 634.96063,-1621.4173 a 3.77953,3.77953 0 1 0 -7.55906,0 3.77953,3.77953 0 1 0 7.55906,0 z"
         style="fill:none;stroke:#000000"
         id="path877" />
      <path
         d="m 854.17323,-2165.6693 a 3.77953,3.77953 0 1 0 -7.55906,0 3.77953,3.77953 0 1 0 7.55906,0 z"
         style="fill:none;stroke:#000000"
         id="path879" />
      <path
         d="m 1167.874,-139.84252 a 3.779528,3.779528 0 1 0 -7.559,0 3.779528,3.779528 0 1 0 7.559,0 z"
         style="fill:none;stroke:#000000"
         id="path881" />
      <path
         d="m 445.98425,419.52756 a 3.779528,3.779528 0 1 0 -7.55905,0 3.779528,3.779528 0 1 0 7.55905,0 z"
         style="fill:none;stroke:#000000"
         id="path883" />
      <path
         d="m 1262.3622,676.53543 a 3.779528,3.779528 0 1 0 -7.559,0 3.779528,3.779528 0 1 0 7.559,0 z"
         style="fill:none;stroke:#000000"
         id="path885" />
      <path
         d="m 540.47244,-139.84252 a 3.779528,3.779528 0 1 0 -7.55905,0 3.779528,3.779528 0 1 0 7.55905,0 z"
         style="fill:none;stroke:#000000"
         id="path887" />
      <path
         d="m 1073.3858,-1364.4094 a 3.779528,3.779528 0 1 0 -7.559,0 3.779528,3.779528 0 1 0 7.559,0 z"
         style="fill:none;stroke:#000000"
         id="path889" />
      <path
         d="m 1073.3858,-1621.4173 a 3.779528,3.779528 0 1 0 -7.559,0 3.779528,3.779528 0 1 0 7.559,0 z"
         style="fill:none;stroke:#000000"
         id="path891" />
      <path
         d="m 540.47244,-396.85039 a 3.779528,3.779528 0 1 0 -7.55905,0 3.779528,3.779528 0 1 0 7.55905,0 z"
         style="fill:none;stroke:#000000"
         id="path893" />
      <path
         d="m 1262.3622,419.52756 a 3.779528,3.779528 0 1 0 -7.559,0 3.779528,3.779528 0 1 0 7.559,0 z"
         style="fill:none;stroke:#000000"
         id="path895" />
      <path
         d="m 854.17323,1084.7244 a 3.77953,3.77953 0 1 0 -7.55906,0 3.77953,3.77953 0 1 0 7.55906,0 z"
         style="fill:none;stroke:#000000"
         id="path897" />
      <path
         d="m 983.07985,-1388.9299 -18.96491,-21.5898 h -67.04063 l -26.75518,21.7332 a 15.11811,15.11811 0 0 0 11.64697,5.4794 h 86.16714 a 22.677165,22.677165 0 0 0 14.94661,-5.6228 z"
         style="fill:none;stroke:#000000"
         id="path899" />
      <path
         d="m 906.68393,-1596.8969 18.96491,21.5898 h 67.04063 l 26.75513,-21.7332 a 15.11811,15.11811 0 0 0 -11.6469,-5.4794 h -86.16716 a 22.677165,22.677165 0 0 0 -14.94661,5.6228 z"
         style="fill:none;stroke:#000000"
         id="path901" />
      <path
         d="m 990.46589,-1402.0464 14.13451,-80.161 a 7.559055,7.559055 0 0 0 -6.53015,-8.8162 l -20.1279,16.3499 -10.89159,61.7693 18.66221,21.2452 a 22.677165,22.677165 0 0 0 4.75292,-10.3872 z"
         style="fill:none;stroke:#000000"
         id="path903" />
      <path
         d="m 1027.8425,-1410.5197 a 12.47245,12.47245 0 1 0 -24.9449,0 12.47245,12.47245 0 1 0 24.9449,0 z"
         style="fill:none;stroke:#000000"
         id="path905" />
      <path
         d="m 886.86614,-1575.3071 a 12.472441,12.472441 0 1 0 -24.94488,0 12.472441,12.472441 0 1 0 24.94488,0 z"
         style="fill:none;stroke:#000000"
         id="path907" />
      <path
         d="m 881.29735,-1481.6942 -14.21968,80.6438 a 15.11811,15.11811 0 0 0 1.20347,9.0501 l 26.29698,-21.3611 10.89159,-61.7692 -13.96068,-15.893 a 11.338583,11.338583 0 0 0 -10.21168,9.3294 z"
         style="fill:none;stroke:#000000"
         id="path909" />
      <path
         d="m 1008.4664,-1504.1325 a 11.338583,11.338583 0 0 1 -10.21165,9.3293 l -13.96068,-15.8929 10.89159,-61.7693 26.29694,-21.361 a 15.11811,15.11811 0 0 1 1.2035,9.0501 z"
         style="fill:none;stroke:#000000"
         id="path911" />
      <path
         d="m 906.83168,-1479.3071 h 70.82017 l 17.03159,-13.8347 -11.75134,-13.3779 h -70.82017 l -17.03159,13.8348 z"
         style="fill:none;stroke:#000000"
         id="path913" />
      <path
         d="m 891.69353,-1494.8032 a 7.559055,7.559055 0 0 1 -6.53019,-8.8162 l 14.13455,-80.161 a 22.677165,22.677165 0 0 1 4.75292,-10.3872 l 18.66221,21.2453 -10.89159,61.7693 z"
         style="fill:none;stroke:#000000"
         id="path915" />
      <path
         d="m 794.10347,-1388.9299 -18.96491,-21.5898 h -67.04063 l -26.75518,21.7332 a 15.11811,15.11811 0 0 0 11.64698,5.4794 h 86.16713 a 22.677165,22.677165 0 0 0 14.94661,-5.6228 z"
         style="fill:none;stroke:#000000"
         id="path917" />
      <path
         d="m 717.70755,-1596.8969 18.96491,21.5898 h 67.04064 l 26.75517,-21.7332 a 15.11811,15.11811 0 0 0 -11.64697,-5.4794 h -86.16714 a 22.677165,22.677165 0 0 0 -14.94661,5.6228 z"
         style="fill:none;stroke:#000000"
         id="path919" />
      <path
         d="m 801.48951,-1402.0464 14.13455,-80.161 a 7.559055,7.559055 0 0 0 -6.53018,-8.8162 l -20.12791,16.3499 -10.89159,61.7693 18.66221,21.2452 a 22.677165,22.677165 0 0 0 4.75292,-10.3872 z"
         style="fill:none;stroke:#000000"
         id="path921" />
      <path
         d="m 838.86614,-1410.5197 a 12.472441,12.472441 0 1 0 -24.94488,0 12.472441,12.472441 0 1 0 24.94488,0 z"
         style="fill:none;stroke:#000000"
         id="path923" />
      <path
         d="m 697.88976,-1575.3071 a 12.472441,12.472441 0 1 0 -24.94488,0 12.472441,12.472441 0 1 0 24.94488,0 z"
         style="fill:none;stroke:#000000"
         id="path925" />
      <path
         d="m 692.32097,-1481.6942 -14.21967,80.6438 a 15.11811,15.11811 0 0 0 1.20346,9.0501 l 26.29698,-21.3611 10.89159,-61.7692 -13.96068,-15.893 a 11.338583,11.338583 0 0 0 -10.21168,9.3294 z"
         style="fill:none;stroke:#000000"
         id="path927" />
      <path
         d="m 819.49005,-1504.1325 a 11.338583,11.338583 0 0 1 -10.21168,9.3293 l -13.96068,-15.8929 10.89159,-61.7693 26.29698,-21.361 a 15.11811,15.11811 0 0 1 1.20347,9.0501 z"
         style="fill:none;stroke:#000000"
         id="path929" />
      <path
         d="m 717.85531,-1479.3071 h 70.82016 l 17.03159,-13.8347 -11.75134,-13.3779 h -70.82017 l -17.03159,13.8348 z"
         style="fill:none;stroke:#000000"
         id="path931" />
      <path
         d="m 702.71715,-1494.8032 a 7.559055,7.559055 0 0 1 -6.53019,-8.8162 l 14.13455,-80.161 a 22.677165,22.677165 0 0 1 4.75292,-10.3872 l 18.66221,21.2453 -10.89159,61.7693 z"
         style="fill:none;stroke:#000000"
         id="path933" />
      <path
         d="m 794.10347,-980.74087 -18.96491,-21.58983 h -67.04063 l -26.75518,21.73322 a 15.11811,15.11811 0 0 0 11.64698,5.47937 h 86.16713 a 22.677165,22.677165 0 0 0 14.94661,-5.62276 z"
         style="fill:none;stroke:#000000"
         id="path935" />
      <path
         d="m 717.70755,-1188.7079 18.96491,21.5898 h 67.04064 l 26.75517,-21.7332 a 15.11811,15.11811 0 0 0 -11.64697,-5.4794 h -86.16714 a 22.677165,22.677165 0 0 0 -14.94661,5.6228 z"
         style="fill:none;stroke:#000000"
         id="path937" />
      <path
         d="m 801.48951,-993.85743 14.13455,-80.16097 a 7.559055,7.559055 0 0 0 -6.53018,-8.8162 l -20.12791,16.3498 -10.89159,61.7693 18.66221,21.24527 a 22.677165,22.677165 0 0 0 4.75292,-10.3872 z"
         style="fill:none;stroke:#000000"
         id="path939" />
      <path
         d="m 838.86614,-1002.3307 a 12.472441,12.472441 0 1 0 -24.94488,0 12.472441,12.472441 0 1 0 24.94488,0 z"
         style="fill:none;stroke:#000000"
         id="path941" />
      <path
         d="m 697.88976,-1167.1181 a 12.472441,12.472441 0 1 0 -24.94488,0 12.472441,12.472441 0 1 0 24.94488,0 z"
         style="fill:none;stroke:#000000"
         id="path943" />
      <path
         d="m 692.32097,-1073.5052 -14.21967,80.64375 a 15.11811,15.11811 0 0 0 1.20346,9.05009 l 26.29698,-21.36104 10.89159,-61.7693 -13.96068,-15.8929 a 11.338583,11.338583 0 0 0 -10.21168,9.3294 z"
         style="fill:none;stroke:#000000"
         id="path945" />
      <path
         d="m 819.49005,-1095.9436 a 11.338583,11.338583 0 0 1 -10.21168,9.3294 l -13.96068,-15.8929 10.89159,-61.7693 26.29698,-21.3611 a 15.11811,15.11811 0 0 1 1.20347,9.0501 z"
         style="fill:none;stroke:#000000"
         id="path947" />
      <path
         d="m 717.85531,-1071.1181 h 70.82016 l 17.03159,-13.8348 -11.75134,-13.3778 h -70.82017 l -17.03159,13.8347 z"
         style="fill:none;stroke:#000000"
         id="path949" />
      <path
         d="m 702.71715,-1086.6142 a 7.559055,7.559055 0 0 1 -6.53019,-8.8162 l 14.13455,-80.161 a 22.677165,22.677165 0 0 1 4.75292,-10.3872 l 18.66221,21.2453 -10.89159,61.7692 z"
         style="fill:none;stroke:#000000"
         id="path951" />
      <path
         d="m 983.07985,-980.74087 -18.96491,-21.58983 h -67.04063 l -26.75518,21.73322 a 15.11811,15.11811 0 0 0 11.64697,5.47937 h 86.16714 a 22.677165,22.677165 0 0 0 14.94661,-5.62276 z"
         style="fill:none;stroke:#000000"
         id="path953" />
      <path
         d="m 906.68393,-1188.7079 18.96491,21.5898 h 67.04063 l 26.75513,-21.7332 a 15.11811,15.11811 0 0 0 -11.6469,-5.4794 h -86.16716 a 22.677165,22.677165 0 0 0 -14.94661,5.6228 z"
         style="fill:none;stroke:#000000"
         id="path955" />
      <path
         d="m 990.46589,-993.85743 14.13451,-80.16097 a 7.559055,7.559055 0 0 0 -6.53015,-8.8162 l -20.1279,16.3498 -10.89159,61.7693 18.66221,21.24527 a 22.677165,22.677165 0 0 0 4.75292,-10.3872 z"
         style="fill:none;stroke:#000000"
         id="path957" />
      <path
         d="m 1027.8425,-1002.3307 a 12.47245,12.47245 0 1 0 -24.9449,0 12.47245,12.47245 0 1 0 24.9449,0 z"
         style="fill:none;stroke:#000000"
         id="path959" />
      <path
         d="m 886.86614,-1167.1181 a 12.472441,12.472441 0 1 0 -24.94488,0 12.472441,12.472441 0 1 0 24.94488,0 z"
         style="fill:none;stroke:#000000"
         id="path961" />
      <path
         d="m 881.29735,-1073.5052 -14.21968,80.64375 a 15.11811,15.11811 0 0 0 1.20347,9.05009 l 26.29698,-21.36104 10.89159,-61.7693 -13.96068,-15.8929 a 11.338583,11.338583 0 0 0 -10.21168,9.3294 z"
         style="fill:none;stroke:#000000"
         id="path963" />
      <path
         d="m 1008.4664,-1095.9436 a 11.338583,11.338583 0 0 1 -10.21165,9.3294 l -13.96068,-15.8929 10.89159,-61.7693 26.29694,-21.3611 a 15.11811,15.11811 0 0 1 1.2035,9.0501 z"
         style="fill:none;stroke:#000000"
         id="path965" />
      <path
         d="m 906.83168,-1071.1181 h 70.82017 l 17.03159,-13.8348 -11.75134,-13.3778 h -70.82017 l -17.03159,13.8347 z"
         style="fill:none;stroke:#000000"
         id="path967" />
      <path
         d="m 891.69353,-1086.6142 a 7.559055,7.559055 0 0 1 -6.53019,-8.8162 l 14.13455,-80.161 a 22.677165,22.677165 0 0 1 4.75292,-10.3872 l 18.66221,21.2453 -10.89159,61.7692 z"
         style="fill:none;stroke:#000000"
         id="path969" />
      <path
         d="m 983.07985,-572.5519 -18.96491,-21.58983 h -67.04063 l -26.75518,21.73322 a 15.11811,15.11811 0 0 0 11.64697,5.47938 h 86.16714 a 22.677165,22.677165 0 0 0 14.94661,-5.62277 z"
         style="fill:none;stroke:#000000"
         id="path971" />
      <path
         d="m 906.68393,-780.51897 18.96491,21.58984 h 67.04063 l 26.75513,-21.73323 a 15.11811,15.11811 0 0 0 -11.6469,-5.47937 h -86.16716 a 22.677165,22.677165 0 0 0 -14.94661,5.62276 z"
         style="fill:none;stroke:#000000"
         id="path973" />
      <path
         d="m 990.46589,-585.66845 14.13451,-80.16101 a 7.559055,7.559055 0 0 0 -6.53015,-8.81621 l -20.1279,16.34989 -10.89159,61.76929 18.66221,21.24524 a 22.677165,22.677165 0 0 0 4.75292,-10.3872 z"
         style="fill:none;stroke:#000000"
         id="path975" />
      <path
         d="m 1027.8425,-594.14173 a 12.47245,12.47245 0 1 0 -24.9449,0 12.47245,12.47245 0 1 0 24.9449,0 z"
         style="fill:none;stroke:#000000"
         id="path977" />
      <path
         d="m 886.86614,-758.92913 a 12.472441,12.472441 0 1 0 -24.94488,0 12.472441,12.472441 0 1 0 24.94488,0 z"
         style="fill:none;stroke:#000000"
         id="path979" />
      <path
         d="m 881.29735,-665.31627 -14.21968,80.64379 a 15.11811,15.11811 0 0 0 1.20347,9.0501 l 26.29698,-21.36103 10.89159,-61.76929 -13.96068,-15.89297 a 11.338583,11.338583 0 0 0 -10.21168,9.3294 z"
         style="fill:none;stroke:#000000"
         id="path981" />
      <path
         d="m 1008.4664,-687.7546 a 11.338583,11.338583 0 0 1 -10.21165,9.3294 l -13.96068,-15.89297 10.89159,-61.76928 26.29694,-21.36104 a 15.11811,15.11811 0 0 1 1.2035,9.0501 z"
         style="fill:none;stroke:#000000"
         id="path983" />
      <path
         d="m 906.83168,-662.92913 h 70.82017 l 17.03159,-13.83476 -11.75134,-13.37784 h -70.82017 l -17.03159,13.83476 z"
         style="fill:none;stroke:#000000"
         id="path985" />
      <path
         d="m 891.69353,-678.4252 a 7.559055,7.559055 0 0 1 -6.53019,-8.8162 l 14.13455,-80.16102 a 22.677165,22.677165 0 0 1 4.75292,-10.38719 l 18.66221,21.24524 -10.89159,61.76928 z"
         style="fill:none;stroke:#000000"
         id="path987" />
      <path
         d="m 794.10347,-572.5519 -18.96491,-21.58983 h -67.04063 l -26.75518,21.73322 a 15.11811,15.11811 0 0 0 11.64698,5.47938 h 86.16713 a 22.677165,22.677165 0 0 0 14.94661,-5.62277 z"
         style="fill:none;stroke:#000000"
         id="path989" />
      <path
         d="m 717.70755,-780.51897 18.96491,21.58984 h 67.04064 l 26.75517,-21.73323 a 15.11811,15.11811 0 0 0 -11.64697,-5.47937 h -86.16714 a 22.677165,22.677165 0 0 0 -14.94661,5.62276 z"
         style="fill:none;stroke:#000000"
         id="path991" />
      <path
         d="m 801.48951,-585.66845 14.13455,-80.16101 a 7.559055,7.559055 0 0 0 -6.53018,-8.81621 l -20.12791,16.34989 -10.89159,61.76929 18.66221,21.24524 a 22.677165,22.677165 0 0 0 4.75292,-10.3872 z"
         style="fill:none;stroke:#000000"
         id="path993" />
      <path
         d="m 838.86614,-594.14173 a 12.472441,12.472441 0 1 0 -24.94488,0 12.472441,12.472441 0 1 0 24.94488,0 z"
         style="fill:none;stroke:#000000"
         id="path995" />
      <path
         d="m 697.88976,-758.92913 a 12.472441,12.472441 0 1 0 -24.94488,0 12.472441,12.472441 0 1 0 24.94488,0 z"
         style="fill:none;stroke:#000000"
         id="path997" />
      <path
         d="m 692.32097,-665.31627 -14.21967,80.64379 a 15.11811,15.11811 0 0 0 1.20346,9.0501 l 26.29698,-21.36103 10.89159,-61.76929 -13.96068,-15.89297 a 11.338583,11.338583 0 0 0 -10.21168,9.3294 z"
         style="fill:none;stroke:#000000"
         id="path999" />
      <path
         d="m 819.49005,-687.7546 a 11.338583,11.338583 0 0 1 -10.21168,9.3294 l -13.96068,-15.89297 10.89159,-61.76928 26.29698,-21.36104 a 15.11811,15.11811 0 0 1 1.20347,9.0501 z"
         style="fill:none;stroke:#000000"
         id="path1001" />
      <path
         d="m 717.85531,-662.92913 h 70.82016 l 17.03159,-13.83476 -11.75134,-13.37784 h -70.82017 l -17.03159,13.83476 z"
         style="fill:none;stroke:#000000"
         id="path1003" />
      <path
         d="m 702.71715,-678.4252 a 7.559055,7.559055 0 0 1 -6.53019,-8.8162 l 14.13455,-80.16102 a 22.677165,22.677165 0 0 1 4.75292,-10.38719 l 18.66221,21.24524 -10.89159,61.76928 z"
         style="fill:none;stroke:#000000"
         id="path1005" />
      <path
         d="m 1077.568,-164.36292 -18.9649,-21.58984 h -67.0406 l -26.75518,21.73323 a 15.11811,15.11811 0 0 0 11.64697,5.47937 h 86.16711 a 22.677165,22.677165 0 0 0 14.9466,-5.62276 z"
         style="fill:none;stroke:#000000"
         id="path1007" />
      <path
         d="m 1001.1721,-372.32999 18.9649,21.58983 h 67.0407 l 26.7551,-21.73322 a 15.11811,15.11811 0 0 0 -11.6469,-5.47938 h -86.1672 a 22.677165,22.677165 0 0 0 -14.9466,5.62277 z"
         style="fill:none;stroke:#000000"
         id="path1009" />
      <path
         d="m 1084.9541,-177.47947 14.1345,-80.16102 a 7.559055,7.559055 0 0 0 -6.5302,-8.8162 l -20.1279,16.34989 -10.8916,61.76928 18.6623,21.24524 a 22.677165,22.677165 0 0 0 4.7529,-10.38719 z"
         style="fill:none;stroke:#000000"
         id="path1011" />
      <path
         d="m 1122.3307,-185.95276 a 12.47245,12.47245 0 1 0 -24.9449,0 12.47245,12.47245 0 1 0 24.9449,0 z"
         style="fill:none;stroke:#000000"
         id="path1013" />
      <path
         d="m 981.35433,-350.74016 a 12.472441,12.472441 0 1 0 -24.94488,0 12.472441,12.472441 0 1 0 24.94488,0 z"
         style="fill:none;stroke:#000000"
         id="path1015" />
      <path
         d="m 975.78554,-257.12729 -14.21968,80.64379 a 15.11811,15.11811 0 0 0 1.20347,9.0501 l 26.29698,-21.36104 10.89159,-61.76928 -13.96068,-15.89297 a 11.338583,11.338583 0 0 0 -10.21168,9.3294 z"
         style="fill:none;stroke:#000000"
         id="path1017" />
      <path
         d="m 1102.9546,-279.56562 a 11.338583,11.338583 0 0 1 -10.2117,9.3294 l -13.9606,-15.89297 10.8915,-61.76929 26.297,-21.36103 a 15.11811,15.11811 0 0 1 1.2035,9.0501 z"
         style="fill:none;stroke:#000000"
         id="path1019" />
      <path
         d="m 1001.3199,-254.74016 h 70.8201 l 17.0316,-13.83476 -11.7513,-13.37784 h -70.8202 l -17.03157,13.83476 z"
         style="fill:none;stroke:#000000"
         id="path1021" />
      <path
         d="m 986.18172,-270.23622 a 7.559055,7.559055 0 0 1 -6.53019,-8.81621 l 14.13455,-80.16101 a 22.677165,22.677165 0 0 1 4.75292,-10.3872 l 18.6622,21.24524 -10.8916,61.76929 z"
         style="fill:none;stroke:#000000"
         id="path1023" />
      <path
         d="m 888.59166,-164.36292 -18.96491,-21.58984 h -67.04063 l -26.75518,21.73323 a 15.11811,15.11811 0 0 0 11.64698,5.47937 h 86.16713 a 22.677165,22.677165 0 0 0 14.94661,-5.62276 z"
         style="fill:none;stroke:#000000"
         id="path1025" />
      <path
         d="m 812.19574,-372.32999 18.96491,21.58983 h 67.04063 l 26.75518,-21.73322 a 15.11811,15.11811 0 0 0 -11.64697,-5.47938 h -86.16714 a 22.677165,22.677165 0 0 0 -14.94661,5.62277 z"
         style="fill:none;stroke:#000000"
         id="path1027" />
      <path
         d="m 895.9777,-177.47947 14.13455,-80.16102 a 7.559055,7.559055 0 0 0 -6.53019,-8.8162 l -20.1279,16.34989 -10.89159,61.76928 18.66221,21.24524 a 22.677165,22.677165 0 0 0 4.75292,-10.38719 z"
         style="fill:none;stroke:#000000"
         id="path1029" />
      <path
         d="m 933.35433,-185.95276 a 12.472441,12.472441 0 1 0 -24.94488,0 12.472441,12.472441 0 1 0 24.94488,0 z"
         style="fill:none;stroke:#000000"
         id="path1031" />
      <path
         d="m 792.37795,-350.74016 a 12.472441,12.472441 0 1 0 -24.94488,0 12.472441,12.472441 0 1 0 24.94488,0 z"
         style="fill:none;stroke:#000000"
         id="path1033" />
      <path
         d="m 786.80916,-257.12729 -14.21968,80.64379 a 15.11811,15.11811 0 0 0 1.20347,9.0501 l 26.29698,-21.36104 10.89159,-61.76928 -13.96068,-15.89297 a 11.338583,11.338583 0 0 0 -10.21168,9.3294 z"
         style="fill:none;stroke:#000000"
         id="path1035" />
      <path
         d="m 913.97824,-279.56562 a 11.338583,11.338583 0 0 1 -10.21168,9.3294 l -13.96068,-15.89297 10.89159,-61.76929 26.29698,-21.36103 a 15.11811,15.11811 0 0 1 1.20347,9.0501 z"
         style="fill:none;stroke:#000000"
         id="path1037" />
      <path
         d="m 812.34349,-254.74016 h 70.82017 l 17.03159,-13.83476 -11.75134,-13.37784 h -70.82017 l -17.03159,13.83476 z"
         style="fill:none;stroke:#000000"
         id="path1039" />
      <path
         d="m 797.20534,-270.23622 a 7.559055,7.559055 0 0 1 -6.53019,-8.81621 l 14.13455,-80.16101 a 22.677165,22.677165 0 0 1 4.75292,-10.3872 l 18.66221,21.24524 -10.89159,61.76929 z"
         style="fill:none;stroke:#000000"
         id="path1041" />
      <path
         d="m 699.61529,-164.36292 -18.96491,-21.58984 h -67.04064 l -26.75518,21.73323 a 15.11811,15.11811 0 0 0 11.64698,5.47937 h 86.16713 a 22.677165,22.677165 0 0 0 14.94662,-5.62276 z"
         style="fill:none;stroke:#000000"
         id="path1043" />
      <path
         d="m 623.21936,-372.32999 18.96491,21.58983 h 67.04064 l 26.75517,-21.73322 a 15.11811,15.11811 0 0 0 -11.64697,-5.47938 h -86.16714 a 22.677165,22.677165 0 0 0 -14.94661,5.62277 z"
         style="fill:none;stroke:#000000"
         id="path1045" />
      <path
         d="m 707.00132,-177.47947 14.13455,-80.16102 a 7.559055,7.559055 0 0 0 -6.53018,-8.8162 l -20.12791,16.34989 -10.89159,61.76928 18.66221,21.24524 a 22.677165,22.677165 0 0 0 4.75292,-10.38719 z"
         style="fill:none;stroke:#000000"
         id="path1047" />
      <path
         d="m 744.37795,-185.95276 a 12.472441,12.472441 0 1 0 -24.94488,0 12.472441,12.472441 0 1 0 24.94488,0 z"
         style="fill:none;stroke:#000000"
         id="path1049" />
      <path
         d="m 603.40157,-350.74016 a 12.472441,12.472441 0 1 0 -24.94488,0 12.472441,12.472441 0 1 0 24.94488,0 z"
         style="fill:none;stroke:#000000"
         id="path1051" />
      <path
         d="m 597.83278,-257.12729 -14.21967,80.64379 a 15.11811,15.11811 0 0 0 1.20346,9.0501 l 26.29698,-21.36104 10.89159,-61.76928 -13.96068,-15.89297 a 11.338583,11.338583 0 0 0 -10.21168,9.3294 z"
         style="fill:none;stroke:#000000"
         id="path1053" />
      <path
         d="m 725.00186,-279.56562 a 11.338583,11.338583 0 0 1 -10.21167,9.3294 l -13.96069,-15.89297 10.89159,-61.76929 26.29699,-21.36103 a 15.11811,15.11811 0 0 1 1.20346,9.0501 z"
         style="fill:none;stroke:#000000"
         id="path1055" />
      <path
         d="m 623.36712,-254.74016 h 70.82016 l 17.03159,-13.83476 -11.75134,-13.37784 h -70.82016 l -17.0316,13.83476 z"
         style="fill:none;stroke:#000000"
         id="path1057" />
      <path
         d="m 608.22896,-270.23622 a 7.559055,7.559055 0 0 1 -6.53019,-8.81621 l 14.13455,-80.16101 a 22.677165,22.677165 0 0 1 4.75292,-10.3872 l 18.66222,21.24524 -10.8916,61.76929 z"
         style="fill:none;stroke:#000000"
         id="path1059" />
      <path
         d="m 1172.0562,243.82605 -18.9649,-21.58983 h -67.0406 l -26.7552,21.73322 a 15.11811,15.11811 0 0 0 11.647,5.47938 h 86.1671 a 22.677165,22.677165 0 0 0 14.9466,-5.62277 z"
         style="fill:none;stroke:#000000"
         id="path1061" />
      <path
         d="m 1095.6603,35.858985 18.9649,21.589834 h 67.0407 l 26.7551,-21.733225 a 15.11811,15.11811 0 0 0 -11.6469,-5.479374 h -86.1672 a 22.677165,22.677165 0 0 0 -14.9466,5.622765 z"
         style="fill:none;stroke:#000000"
         id="path1063" />
      <path
         d="m 1179.4423,230.7095 14.1345,-80.16101 a 7.559055,7.559055 0 0 0 -6.5302,-8.81621 l -20.1279,16.3499 -10.8916,61.76928 18.6622,21.24524 a 22.677165,22.677165 0 0 0 4.753,-10.3872 z"
         style="fill:none;stroke:#000000"
         id="path1065" />
      <path
         d="m 1216.8189,222.23622 a 12.47245,12.47245 0 1 0 -24.9449,0 12.47245,12.47245 0 1 0 24.9449,0 z"
         style="fill:none;stroke:#000000"
         id="path1067" />
      <path
         d="m 1075.8425,57.448819 a 12.47245,12.47245 0 1 0 -24.9449,0 12.47245,12.47245 0 1 0 24.9449,0 z"
         style="fill:none;stroke:#000000"
         id="path1069" />
      <path
         d="m 1070.2737,151.06168 -14.2196,80.6438 a 15.11811,15.11811 0 0 0 1.2034,9.05009 l 26.297,-21.36103 10.8916,-61.76928 -13.9607,-15.89298 a 11.338583,11.338583 0 0 0 -10.2117,9.3294 z"
         style="fill:none;stroke:#000000"
         id="path1071" />
      <path
         d="m 1197.4428,128.62336 a 11.338583,11.338583 0 0 1 -10.2117,9.3294 l -13.9607,-15.89298 10.8916,-61.76928 26.297,-21.361035 a 15.11811,15.11811 0 0 1 1.2035,9.050098 z"
         style="fill:none;stroke:#000000"
         id="path1073" />
      <path
         d="m 1095.8081,153.44882 h 70.8201 l 17.0316,-13.83476 -11.7513,-13.37784 h -70.8202 l -17.0316,13.83476 z"
         style="fill:none;stroke:#000000"
         id="path1075" />
      <path
         d="m 1080.6699,137.95276 a 7.559055,7.559055 0 0 1 -6.5302,-8.81621 l 14.1346,-80.161013 a 22.677165,22.677165 0 0 1 4.7529,-10.387196 l 18.6622,21.24524 -10.8916,61.769279 z"
         style="fill:none;stroke:#000000"
         id="path1077" />
      <path
         d="m 983.07985,243.82605 -18.96491,-21.58983 h -67.04063 l -26.75518,21.73322 a 15.11811,15.11811 0 0 0 11.64697,5.47938 h 86.16714 a 22.677165,22.677165 0 0 0 14.94661,-5.62277 z"
         style="fill:none;stroke:#000000"
         id="path1079" />
      <path
         d="m 906.68393,35.858985 18.96491,21.589834 h 67.04063 l 26.75513,-21.733225 a 15.11811,15.11811 0 0 0 -11.6469,-5.479374 h -86.16716 a 22.677165,22.677165 0 0 0 -14.94661,5.622765 z"
         style="fill:none;stroke:#000000"
         id="path1081" />
      <path
         d="m 990.46589,230.7095 14.13451,-80.16101 a 7.559055,7.559055 0 0 0 -6.53015,-8.81621 l -20.1279,16.3499 -10.89159,61.76928 18.66221,21.24524 a 22.677165,22.677165 0 0 0 4.75292,-10.3872 z"
         style="fill:none;stroke:#000000"
         id="path1083" />
      <path
         d="m 1027.8425,222.23622 a 12.47245,12.47245 0 1 0 -24.9449,0 12.47245,12.47245 0 1 0 24.9449,0 z"
         style="fill:none;stroke:#000000"
         id="path1085" />
      <path
         d="m 886.86614,57.448819 a 12.472441,12.472441 0 1 0 -24.94488,0 12.472441,12.472441 0 1 0 24.94488,0 z"
         style="fill:none;stroke:#000000"
         id="path1087" />
      <path
         d="m 881.29735,151.06168 -14.21968,80.6438 a 15.11811,15.11811 0 0 0 1.20347,9.05009 l 26.29698,-21.36103 10.89159,-61.76928 -13.96068,-15.89298 a 11.338583,11.338583 0 0 0 -10.21168,9.3294 z"
         style="fill:none;stroke:#000000"
         id="path1089" />
      <path
         d="m 1008.4664,128.62336 a 11.338583,11.338583 0 0 1 -10.21165,9.3294 L 984.29407,122.05978 995.18566,60.2905 1021.4826,38.929465 a 15.11811,15.11811 0 0 1 1.2035,9.050098 z"
         style="fill:none;stroke:#000000"
         id="path1091" />
      <path
         d="m 906.83168,153.44882 h 70.82017 l 17.03159,-13.83476 -11.75134,-13.37784 h -70.82017 l -17.03159,13.83476 z"
         style="fill:none;stroke:#000000"
         id="path1093" />
      <path
         d="m 891.69353,137.95276 a 7.559055,7.559055 0 0 1 -6.53019,-8.81621 l 14.13455,-80.161013 a 22.677165,22.677165 0 0 1 4.75292,-10.387196 l 18.66221,21.24524 -10.89159,61.769279 z"
         style="fill:none;stroke:#000000"
         id="path1095" />
      <path
         d="m 794.10347,243.82605 -18.96491,-21.58983 h -67.04063 l -26.75518,21.73322 a 15.11811,15.11811 0 0 0 11.64698,5.47938 h 86.16713 a 22.677165,22.677165 0 0 0 14.94661,-5.62277 z"
         style="fill:none;stroke:#000000"
         id="path1097" />
      <path
         d="m 717.70755,35.858985 18.96491,21.589834 H 803.7131 L 830.46827,35.715594 A 15.11811,15.11811 0 0 0 818.8213,30.23622 h -86.16714 a 22.677165,22.677165 0 0 0 -14.94661,5.622765 z"
         style="fill:none;stroke:#000000"
         id="path1099" />
      <path
         d="m 801.48951,230.7095 14.13455,-80.16101 a 7.559055,7.559055 0 0 0 -6.53018,-8.81621 l -20.12791,16.3499 -10.89159,61.76928 18.66221,21.24524 a 22.677165,22.677165 0 0 0 4.75292,-10.3872 z"
         style="fill:none;stroke:#000000"
         id="path1101" />
      <path
         d="m 838.86614,222.23622 a 12.472441,12.472441 0 1 0 -24.94488,0 12.472441,12.472441 0 1 0 24.94488,0 z"
         style="fill:none;stroke:#000000"
         id="path1103" />
      <path
         d="m 697.88976,57.448819 a 12.472441,12.472441 0 1 0 -24.94488,0 12.472441,12.472441 0 1 0 24.94488,0 z"
         style="fill:none;stroke:#000000"
         id="path1105" />
      <path
         d="m 692.32097,151.06168 -14.21967,80.6438 a 15.11811,15.11811 0 0 0 1.20346,9.05009 l 26.29698,-21.36103 10.89159,-61.76928 -13.96068,-15.89298 a 11.338583,11.338583 0 0 0 -10.21168,9.3294 z"
         style="fill:none;stroke:#000000"
         id="path1107" />
      <path
         d="m 819.49005,128.62336 a 11.338583,11.338583 0 0 1 -10.21168,9.3294 L 795.31769,122.05978 806.20928,60.2905 832.50626,38.929465 a 15.11811,15.11811 0 0 1 1.20347,9.050098 z"
         style="fill:none;stroke:#000000"
         id="path1109" />
      <path
         d="m 717.85531,153.44882 h 70.82016 l 17.03159,-13.83476 -11.75134,-13.37784 h -70.82017 l -17.03159,13.83476 z"
         style="fill:none;stroke:#000000"
         id="path1111" />
      <path
         d="m 702.71715,137.95276 a 7.559055,7.559055 0 0 1 -6.53019,-8.81621 l 14.13455,-80.161013 a 22.677165,22.677165 0 0 1 4.75292,-10.387196 l 18.66221,21.24524 -10.89159,61.769279 z"
         style="fill:none;stroke:#000000"
         id="path1113" />
      <path
         d="m 605.1271,243.82605 -18.96491,-21.58983 h -67.04064 l -26.75518,21.73322 a 15.11811,15.11811 0 0 0 11.64698,5.47938 h 86.16713 a 22.677165,22.677165 0 0 0 14.94662,-5.62277 z"
         style="fill:none;stroke:#000000"
         id="path1115" />
      <path
         d="m 528.73117,35.858985 18.96491,21.589834 h 67.04064 L 641.49189,35.715594 A 15.11811,15.11811 0 0 0 629.84492,30.23622 h -86.16714 a 22.677165,22.677165 0 0 0 -14.94661,5.622765 z"
         style="fill:none;stroke:#000000"
         id="path1117" />
      <path
         d="m 612.51313,230.7095 14.13455,-80.16101 a 7.559055,7.559055 0 0 0 -6.53018,-8.81621 l -20.12791,16.3499 -10.89159,61.76928 18.66221,21.24524 a 22.677165,22.677165 0 0 0 4.75292,-10.3872 z"
         style="fill:none;stroke:#000000"
         id="path1119" />
      <path
         d="m 649.88976,222.23622 a 12.472441,12.472441 0 1 0 -24.94488,0 12.472441,12.472441 0 1 0 24.94488,0 z"
         style="fill:none;stroke:#000000"
         id="path1121" />
      <path
         d="m 508.91339,57.448819 a 12.472445,12.472445 0 1 0 -24.94489,0 12.472445,12.472445 0 1 0 24.94489,0 z"
         style="fill:none;stroke:#000000"
         id="path1123" />
      <path
         d="m 503.34459,151.06168 -14.21967,80.6438 a 15.11811,15.11811 0 0 0 1.20346,9.05009 l 26.29698,-21.36103 10.8916,-61.76928 -13.96069,-15.89298 a 11.338583,11.338583 0 0 0 -10.21168,9.3294 z"
         style="fill:none;stroke:#000000"
         id="path1125" />
      <path
         d="m 630.51367,128.62336 a 11.338583,11.338583 0 0 1 -10.21167,9.3294 L 606.34131,122.05978 617.2329,60.2905 643.52989,38.929465 a 15.11811,15.11811 0 0 1 1.20346,9.050098 z"
         style="fill:none;stroke:#000000"
         id="path1127" />
      <path
         d="m 528.87893,153.44882 h 70.82016 l 17.03159,-13.83476 -11.75134,-13.37784 h -70.82016 l -17.0316,13.83476 z"
         style="fill:none;stroke:#000000"
         id="path1129" />
      <path
         d="m 513.74077,137.95276 a 7.559055,7.559055 0 0 1 -6.53018,-8.81621 l 14.13455,-80.161013 a 22.677165,22.677165 0 0 1 4.75291,-10.387196 l 18.66222,21.24524 -10.89159,61.769279 z"
         style="fill:none;stroke:#000000"
         id="path1131" />
      <path
         d="m 1172.0562,652.01503 -18.9649,-21.58983 h -67.0406 l -26.7552,21.73322 a 15.11811,15.11811 0 0 0 11.647,5.47937 h 86.1671 a 22.677165,22.677165 0 0 0 14.9466,-5.62276 z"
         style="fill:none;stroke:#000000"
         id="path1133" />
      <path
         d="m 1095.6603,444.04796 18.9649,21.58983 h 67.0407 l 26.7551,-21.73322 a 15.11811,15.11811 0 0 0 -11.6469,-5.47937 h -86.1672 a 22.677165,22.677165 0 0 0 -14.9466,5.62276 z"
         style="fill:none;stroke:#000000"
         id="path1135" />
      <path
         d="m 1179.4423,638.89848 14.1345,-80.16101 a 7.559055,7.559055 0 0 0 -6.5302,-8.81621 l -20.1279,16.34989 -10.8916,61.76928 18.6622,21.24524 a 22.677165,22.677165 0 0 0 4.753,-10.38719 z"
         style="fill:none;stroke:#000000"
         id="path1137" />
      <path
         d="m 1216.8189,630.4252 a 12.47245,12.47245 0 1 0 -24.9449,0 12.47245,12.47245 0 1 0 24.9449,0 z"
         style="fill:none;stroke:#000000"
         id="path1139" />
      <path
         d="m 1075.8425,465.63779 a 12.47245,12.47245 0 1 0 -24.9449,0 12.47245,12.47245 0 1 0 24.9449,0 z"
         style="fill:none;stroke:#000000"
         id="path1141" />
      <path
         d="m 1070.2737,559.25066 -14.2196,80.64379 a 15.11811,15.11811 0 0 0 1.2034,9.0501 l 26.297,-21.36103 10.8916,-61.76928 -13.9607,-15.89298 a 11.338583,11.338583 0 0 0 -10.2117,9.3294 z"
         style="fill:none;stroke:#000000"
         id="path1143" />
      <path
         d="m 1197.4428,536.81233 a 11.338583,11.338583 0 0 1 -10.2117,9.3294 l -13.9607,-15.89297 10.8916,-61.76928 26.297,-21.36104 a 15.11811,15.11811 0 0 1 1.2035,9.0501 z"
         style="fill:none;stroke:#000000"
         id="path1145" />
      <path
         d="m 1095.8081,561.63779 h 70.8201 l 17.0316,-13.83475 -11.7513,-13.37784 h -70.8202 l -17.0316,13.83476 z"
         style="fill:none;stroke:#000000"
         id="path1147" />
      <path
         d="m 1080.6699,546.14173 a 7.559055,7.559055 0 0 1 -6.5302,-8.8162 l 14.1346,-80.16102 a 22.677165,22.677165 0 0 1 4.7529,-10.38719 l 18.6622,21.24524 -10.8916,61.76928 z"
         style="fill:none;stroke:#000000"
         id="path1149" />
      <path
         d="M 983.07985,652.01503 964.11494,630.4252 h -67.04063 l -26.75518,21.73322 a 15.11811,15.11811 0 0 0 11.64697,5.47937 h 86.16714 a 22.677165,22.677165 0 0 0 14.94661,-5.62276 z"
         style="fill:none;stroke:#000000"
         id="path1151" />
      <path
         d="m 906.68393,444.04796 18.96491,21.58983 h 67.04063 l 26.75513,-21.73322 a 15.11811,15.11811 0 0 0 -11.6469,-5.47937 h -86.16716 a 22.677165,22.677165 0 0 0 -14.94661,5.62276 z"
         style="fill:none;stroke:#000000"
         id="path1153" />
      <path
         d="m 990.46589,638.89848 14.13451,-80.16101 a 7.559055,7.559055 0 0 0 -6.53015,-8.81621 l -20.1279,16.34989 -10.89159,61.76928 18.66221,21.24524 a 22.677165,22.677165 0 0 0 4.75292,-10.38719 z"
         style="fill:none;stroke:#000000"
         id="path1155" />
      <path
         d="m 1027.8425,630.4252 a 12.47245,12.47245 0 1 0 -24.9449,0 12.47245,12.47245 0 1 0 24.9449,0 z"
         style="fill:none;stroke:#000000"
         id="path1157" />
      <path
         d="m 886.86614,465.63779 a 12.472441,12.472441 0 1 0 -24.94488,0 12.472441,12.472441 0 1 0 24.94488,0 z"
         style="fill:none;stroke:#000000"
         id="path1159" />
      <path
         d="m 881.29735,559.25066 -14.21968,80.64379 a 15.11811,15.11811 0 0 0 1.20347,9.0501 l 26.29698,-21.36103 10.89159,-61.76928 -13.96068,-15.89298 a 11.338583,11.338583 0 0 0 -10.21168,9.3294 z"
         style="fill:none;stroke:#000000"
         id="path1161" />
      <path
         d="m 1008.4664,536.81233 a 11.338583,11.338583 0 0 1 -10.21165,9.3294 l -13.96068,-15.89297 10.89159,-61.76928 26.29694,-21.36104 a 15.11811,15.11811 0 0 1 1.2035,9.0501 z"
         style="fill:none;stroke:#000000"
         id="path1163" />
      <path
         d="m 906.83168,561.63779 h 70.82017 L 994.68344,547.80304 982.9321,534.4252 h -70.82017 l -17.03159,13.83476 z"
         style="fill:none;stroke:#000000"
         id="path1165" />
      <path
         d="m 891.69353,546.14173 a 7.559055,7.559055 0 0 1 -6.53019,-8.8162 l 14.13455,-80.16102 a 22.677165,22.677165 0 0 1 4.75292,-10.38719 l 18.66221,21.24524 -10.89159,61.76928 z"
         style="fill:none;stroke:#000000"
         id="path1167" />
      <path
         d="M 794.10347,652.01503 775.13856,630.4252 h -67.04063 l -26.75518,21.73322 a 15.11811,15.11811 0 0 0 11.64698,5.47937 h 86.16713 a 22.677165,22.677165 0 0 0 14.94661,-5.62276 z"
         style="fill:none;stroke:#000000"
         id="path1169" />
      <path
         d="m 717.70755,444.04796 18.96491,21.58983 h 67.04064 l 26.75517,-21.73322 A 15.11811,15.11811 0 0 0 818.8213,438.4252 h -86.16714 a 22.677165,22.677165 0 0 0 -14.94661,5.62276 z"
         style="fill:none;stroke:#000000"
         id="path1171" />
      <path
         d="m 801.48951,638.89848 14.13455,-80.16101 a 7.559055,7.559055 0 0 0 -6.53018,-8.81621 l -20.12791,16.34989 -10.89159,61.76928 18.66221,21.24524 a 22.677165,22.677165 0 0 0 4.75292,-10.38719 z"
         style="fill:none;stroke:#000000"
         id="path1173" />
      <path
         d="m 838.86614,630.4252 a 12.472441,12.472441 0 1 0 -24.94488,0 12.472441,12.472441 0 1 0 24.94488,0 z"
         style="fill:none;stroke:#000000"
         id="path1175" />
      <path
         d="m 697.88976,465.63779 a 12.472441,12.472441 0 1 0 -24.94488,0 12.472441,12.472441 0 1 0 24.94488,0 z"
         style="fill:none;stroke:#000000"
         id="path1177" />
      <path
         d="m 692.32097,559.25066 -14.21967,80.64379 a 15.11811,15.11811 0 0 0 1.20346,9.0501 l 26.29698,-21.36103 10.89159,-61.76928 -13.96068,-15.89298 a 11.338583,11.338583 0 0 0 -10.21168,9.3294 z"
         style="fill:none;stroke:#000000"
         id="path1179" />
      <path
         d="m 819.49005,536.81233 a 11.338583,11.338583 0 0 1 -10.21168,9.3294 l -13.96068,-15.89297 10.89159,-61.76928 26.29698,-21.36104 a 15.11811,15.11811 0 0 1 1.20347,9.0501 z"
         style="fill:none;stroke:#000000"
         id="path1181" />
      <path
         d="m 717.85531,561.63779 h 70.82016 l 17.03159,-13.83475 -11.75134,-13.37784 h -70.82017 l -17.03159,13.83476 z"
         style="fill:none;stroke:#000000"
         id="path1183" />
      <path
         d="m 702.71715,546.14173 a 7.559055,7.559055 0 0 1 -6.53019,-8.8162 l 14.13455,-80.16102 a 22.677165,22.677165 0 0 1 4.75292,-10.38719 l 18.66221,21.24524 -10.89159,61.76928 z"
         style="fill:none;stroke:#000000"
         id="path1185" />
      <path
         d="M 605.1271,652.01503 586.16219,630.4252 h -67.04064 l -26.75518,21.73322 a 15.11811,15.11811 0 0 0 11.64698,5.47937 h 86.16713 a 22.677165,22.677165 0 0 0 14.94662,-5.62276 z"
         style="fill:none;stroke:#000000"
         id="path1187" />
      <path
         d="m 528.73117,444.04796 18.96491,21.58983 h 67.04064 l 26.75517,-21.73322 a 15.11811,15.11811 0 0 0 -11.64697,-5.47937 h -86.16714 a 22.677165,22.677165 0 0 0 -14.94661,5.62276 z"
         style="fill:none;stroke:#000000"
         id="path1189" />
      <path
         d="m 612.51313,638.89848 14.13455,-80.16101 a 7.559055,7.559055 0 0 0 -6.53018,-8.81621 l -20.12791,16.34989 -10.89159,61.76928 18.66221,21.24524 a 22.677165,22.677165 0 0 0 4.75292,-10.38719 z"
         style="fill:none;stroke:#000000"
         id="path1191" />
      <path
         d="m 649.88976,630.4252 a 12.472441,12.472441 0 1 0 -24.94488,0 12.472441,12.472441 0 1 0 24.94488,0 z"
         style="fill:none;stroke:#000000"
         id="path1193" />
      <path
         d="m 508.91339,465.63779 a 12.472445,12.472445 0 1 0 -24.94489,0 12.472445,12.472445 0 1 0 24.94489,0 z"
         style="fill:none;stroke:#000000"
         id="path1195" />
      <path
         d="m 503.34459,559.25066 -14.21967,80.64379 a 15.11811,15.11811 0 0 0 1.20346,9.0501 l 26.29698,-21.36103 10.8916,-61.76928 -13.96069,-15.89298 a 11.338583,11.338583 0 0 0 -10.21168,9.3294 z"
         style="fill:none;stroke:#000000"
         id="path1197" />
      <path
         d="m 630.51367,536.81233 a 11.338583,11.338583 0 0 1 -10.21167,9.3294 l -13.96069,-15.89297 10.89159,-61.76928 26.29699,-21.36104 a 15.11811,15.11811 0 0 1 1.20346,9.0501 z"
         style="fill:none;stroke:#000000"
         id="path1199" />
      <path
         d="m 528.87893,561.63779 h 70.82016 l 17.03159,-13.83475 -11.75134,-13.37784 h -70.82016 l -17.0316,13.83476 z"
         style="fill:none;stroke:#000000"
         id="path1201" />
      <path
         d="m 513.74077,546.14173 a 7.559055,7.559055 0 0 1 -6.53018,-8.8162 l 14.13455,-80.16102 a 22.677165,22.677165 0 0 1 4.75291,-10.38719 l 18.66222,21.24524 -10.89159,61.76928 z"
         style="fill:none;stroke:#000000"
         id="path1203" />
      <path
         d="m 1613.8583,1009.1339 a 26.4567,26.4567 0 1 0 -52.9134,0 26.4567,26.4567 0 1 0 52.9134,0 z"
         style="fill:none;stroke:#000000"
         id="path1205" />
      <path
         d="m 139.84252,-540.47244 a 26.456693,26.456693 0 1 0 -52.913386,0 26.456693,26.456693 0 1 0 52.913386,0 z"
         style="fill:none;stroke:#000000"
         id="path1207" />
      <path
         d="m 1613.8583,-2090.0787 a 26.4567,26.4567 0 1 0 -52.9134,0 26.4567,26.4567 0 1 0 52.9134,0 z"
         style="fill:none;stroke:#000000"
         id="path1209" />
      <path
         d="m 1613.8583,-540.47244 a 26.4567,26.4567 0 1 0 -52.9134,0 26.4567,26.4567 0 1 0 52.9134,0 z"
         style="fill:none;stroke:#000000"
         id="path1211" />
      <path
         d="m 139.84252,1009.1339 a 26.456693,26.456693 0 1 0 -52.913386,0 26.456693,26.456693 0 1 0 52.913386,0 z"
         style="fill:none;stroke:#000000"
         id="path1213" />
      <path
         d="m 139.84252,-2090.0787 a 26.456693,26.456693 0 1 0 -52.913386,0 26.456693,26.456693 0 1 0 52.913386,0 z"
         style="fill:none;stroke:#000000"
         id="path1215" />
      <path
         d="m 0,-2127.9683 a 96.377953,96.377953 0 0 1 75.496298,-75.4963 H 1625.2911 a 96.377953,96.377953 0 0 1 75.4963,75.4963 v 3174.9917 a 96.377953,96.377953 0 0 1 -75.4963,75.4963 H 75.496298 A 96.377953,96.377953 0 0 1 0,1047.0234 Z"
         style="fill:none;stroke:#000000"
         id="path1217" />
    </g>
  </g>
</svg>
