0
SECTION
2
HEADER
9
$INSUNITS
70
4
9
$ACADVER
1
AC1014
9
$HANDSEED
5
FFFF
0
ENDSEC
0
SECTION
2
TABLES
0
TABLE
2
VPORT
5
8
100
AcDbSymbolTable
0
ENDTAB
0
TABLE
2
LTYPE
5
5
100
AcDbSymbolTable
0
LTYPE
5
14
100
AcDbSymbolTableRecord
100
AcDbLinetypeTableRecord
2
BYBLOCK
70
0
0
LTYPE
5
15
100
AcDbSymbolTableRecord
100
AcDbLinetypeTableRecord
2
BYLAYER
70
0
0
ENDTAB
0
TABLE
2
LAYER
5
2
100
AcDbSymbolTable
70
2
0
LAYER
5
50
100
AcDbSymbolTableRecord
100
AcDbLayerTableRecord
2
0
70
0
6
CONTINUOUS
0
ENDTAB
0
TABLE
2
STYLE
5
3
100
AcDbSymbolTable
70
1
0
STYLE
5
11
100
AcDbSymbolTableRecord
100
AcDbTextStyleTableRecord
2
STANDARD
70
0
0
ENDTAB
0
TABLE
2
VIEW
5
6
100
AcDbSymbolTable
70
0
0
ENDTAB
0
TABLE
2
UCS
5
7
100
AcDbSymbolTable
70
0
0
ENDTAB
0
TABLE
2
APPID
5
9
100
AcDbSymbolTable
70
2
0
APPID
5
12
100
AcDbSymbolTableRecord
100
AcDbRegAppTableRecord
2
ACAD
70
0
0
ENDTAB
0
TABLE
2
DIMSTYLE
5
A
100
AcDbSymbolTable
70
1
0
ENDTAB
0
TABLE
2
BLOCK_RECORD
5
1
100
AcDbSymbolTable
70
1
0
BLOCK_RECORD
5
1F
100
AcDbSymbolTableRecord
100
AcDbBlockTableRecord
2
*MODEL_SPACE
0
BLOCK_RECORD
5
1B
100
AcDbSymbolTableRecord
100
AcDbBlockTableRecord
2
*PAPER_SPACE
0
ENDTAB
0
ENDSEC
0
SECTION
2
BLOCKS
0
BLOCK
5
20
100
AcDbEntity
100
AcDbBlockBegin
2
*MODEL_SPACE
0
ENDBLK
5
21
100
AcDbEntity
100
AcDbBlockEnd
0
BLOCK
5
1C
100
AcDbEntity
100
AcDbBlockBegin
2
*PAPER_SPACE
0
ENDBLK
5
1D
100
AcDbEntity
100
AcDbBlockEnd
0
ENDSEC
0
SECTION
2
ENTITIES
0
CIRCLE
5
100
100
AcDbEntity
8
0
100
AcDbCircle
10
333.00000000000023
20
294
30
0
40
1.0000000000000142
210
0
220
0
230
1
0
CIRCLE
5
101
100
AcDbEntity
8
0
100
AcDbCircle
10
117.00000000000024
20
225.99999999999997
30
0
40
0.99999999999999645
210
0
220
0
230
1
0
CIRCLE
5
102
100
AcDbEntity
8
0
100
AcDbCircle
10
333.00000000000023
20
225.99999999999997
30
0
40
1.0000000000000142
210
0
220
0
230
1
0
CIRCLE
5
103
100
AcDbEntity
8
0
100
AcDbCircle
10
117.00000000000024
20
294
30
0
40
0.99999999999999645
210
0
220
0
230
1
0
CIRCLE
5
104
100
AcDbEntity
8
0
100
AcDbCircle
10
167.00000000000014
20
441.99999999999937
30
0
40
1.0000000000000497
210
0
220
0
230
1
0
CIRCLE
5
105
100
AcDbEntity
8
0
100
AcDbCircle
10
167.00000000000014
20
549.99999999999943
30
0
40
1.0000000000000497
210
0
220
0
230
1
0
CIRCLE
5
106
100
AcDbEntity
8
0
100
AcDbCircle
10
167.00000000000014
20
509.99999999999937
30
0
40
1.0000000000000497
210
0
220
0
230
1
0
CIRCLE
5
107
100
AcDbEntity
8
0
100
AcDbCircle
10
167.00000000000014
20
617.99999999999943
30
0
40
1.0000000000000497
210
0
220
0
230
1
0
CIRCLE
5
108
100
AcDbEntity
8
0
100
AcDbCircle
10
283.00000000000017
20
509.99999999999937
30
0
40
1.0000000000000497
210
0
220
0
230
1
0
CIRCLE
5
109
100
AcDbEntity
8
0
100
AcDbCircle
10
283.00000000000017
20
617.99999999999943
30
0
40
1.0000000000000497
210
0
220
0
230
1
0
CIRCLE
5
110
100
AcDbEntity
8
0
100
AcDbCircle
10
283.00000000000017
20
441.99999999999937
30
0
40
1.0000000000000497
210
0
220
0
230
1
0
CIRCLE
5
111
100
AcDbEntity
8
0
100
AcDbCircle
10
283.00000000000017
20
549.99999999999943
30
0
40
1.0000000000000497
210
0
220
0
230
1
0
CIRCLE
5
112
100
AcDbEntity
8
0
100
AcDbCircle
10
117.00000000000024
20
117.99999999999997
30
0
40
0.99999999999999645
210
0
220
0
230
1
0
CIRCLE
5
113
100
AcDbEntity
8
0
100
AcDbCircle
10
308.00000000000011
20
401.99999999999989
30
0
40
1.0000000000000142
210
0
220
0
230
1
0
CIRCLE
5
114
100
AcDbEntity
8
0
100
AcDbCircle
10
167.00000000000014
20
657.99999999999943
30
0
40
1.0000000000000497
210
0
220
0
230
1
0
CIRCLE
5
115
100
AcDbEntity
8
0
100
AcDbCircle
10
167.00000000000014
20
725.99999999999932
30
0
40
1.0000000000000497
210
0
220
0
230
1
0
CIRCLE
5
116
100
AcDbEntity
8
0
100
AcDbCircle
10
225.00000000000011
20
870
30
0
40
0.99999999999997868
210
0
220
0
230
1
0
CIRCLE
5
117
100
AcDbEntity
8
0
100
AcDbCircle
10
308.00000000000011
20
333.99999999999989
30
0
40
1.0000000000000142
210
0
220
0
230
1
0
CIRCLE
5
118
100
AcDbEntity
8
0
100
AcDbCircle
10
117.00000000000024
20
186
30
0
40
0.99999999999999645
210
0
220
0
230
1
0
CIRCLE
5
119
100
AcDbEntity
8
0
100
AcDbCircle
10
333.00000000000023
20
117.99999999999997
30
0
40
1.0000000000000142
210
0
220
0
230
1
0
CIRCLE
5
120
100
AcDbEntity
8
0
100
AcDbCircle
10
142.00000000000017
20
333.99999999999989
30
0
40
1.000000000000032
210
0
220
0
230
1
0
CIRCLE
5
121
100
AcDbEntity
8
0
100
AcDbCircle
10
283.00000000000017
20
657.99999999999943
30
0
40
1.0000000000000497
210
0
220
0
230
1
0
CIRCLE
5
122
100
AcDbEntity
8
0
100
AcDbCircle
10
283.00000000000017
20
725.99999999999932
30
0
40
1.0000000000000497
210
0
220
0
230
1
0
CIRCLE
5
123
100
AcDbEntity
8
0
100
AcDbCircle
10
142.00000000000017
20
401.99999999999989
30
0
40
1.000000000000032
210
0
220
0
230
1
0
CIRCLE
5
124
100
AcDbEntity
8
0
100
AcDbCircle
10
333.00000000000023
20
186
30
0
40
1.0000000000000142
210
0
220
0
230
1
0
CIRCLE
5
125
100
AcDbEntity
8
0
100
AcDbCircle
10
224.99999999999994
20
9.9999999999999964
30
0
40
1.0000000000000142
210
0
220
0
230
1
0
LWPOLYLINE
5
126
100
AcDbEntity
8
0
100
AcDbPolyline
90
6
70
1
43
0.0
10
260.10654450828099
20
664.48768981581634
10
255.08874525898631
20
670.19999999999936
10
237.35091008431706
20
670.19999999999936
10
230.27193656916296
20
664.44975098605778
42
0.22347937751590988
10
233.35353192983087
20
662.99999999999943
10
256.15191977239033
20
662.99999999999943
42
0.18187316544872639
0
LWPOLYLINE
5
127
100
AcDbEntity
8
0
100
AcDbPolyline
90
6
70
1
43
0.0
10
239.89345549171793
20
719.51231018418241
10
244.91125474101267
20
713.79999999999939
10
262.649089915682
20
713.79999999999939
10
269.72806343083613
20
719.55024901394097
42
0.22347937751595387
10
266.64646807016817
20
720.99999999999932
10
243.84808022760868
20
720.99999999999932
42
0.18187316544871499
0
LWPOLYLINE
5
128
100
AcDbEntity
8
0
100
AcDbPolyline
90
6
70
1
43
0.0
10
262.06076629046356
20
667.95811093399777
10
265.80053246557833
20
689.16737885254759
42
0.42991751857592125
10
264.07275465264939
20
691.49999999999932
10
258.74724630108295
20
687.17409044803162
10
255.86551290507549
20
670.8309682302696
10
260.80322339451862
20
665.20983184874592
42
0.1279932571369434
0
CIRCLE
5
129
100
AcDbEntity
8
0
100
AcDbCircle
10
268.64999999999952
20
670.19999999999936
30
0
40
3.3000000000000007
210
0
220
-0
230
1
0
CIRCLE
5
130
100
AcDbEntity
8
0
100
AcDbCircle
10
231.34999999999951
20
713.79999999999939
30
0
40
3.2999999999999998
210
0
220
-0
230
1
0
LWPOLYLINE
5
131
100
AcDbEntity
8
0
100
AcDbPolyline
90
6
70
1
43
0.0
10
233.17659037688176
20
689.03159652019895
10
229.41430091778201
20
667.69459271066705
42
0.15458156081626387
10
229.73271738957021
20
665.30008763018816
10
236.6904609382114
20
670.95186156240948
10
239.57219433421881
20
687.29498378017138
10
235.87843006883463
20
691.49999999999932
42
0.34028312511265346
0
LWPOLYLINE
5
132
100
AcDbEntity
8
0
100
AcDbPolyline
90
6
70
1
43
0.0
10
266.82340962311719
20
694.96840347979992
42
-0.34028312511270487
10
264.12156993116446
20
692.49999999999943
10
260.42780566578023
20
696.70501621982737
10
263.30953906178769
20
713.0481384375895
10
270.26728261042899
20
718.69991236981082
42
-0.15458156081627583
10
270.58569908221699
20
716.3054072893317
0
LWPOLYLINE
5
133
100
AcDbEntity
8
0
100
AcDbPolyline
90
6
70
1
43
0.0
10
239.93254943101763
20
688.39999999999941
10
258.67038460568699
20
688.39999999999941
10
263.17665988870834
20
692.06044666606931
10
260.06745056898131
20
695.59999999999945
10
241.32961539431204
20
695.59999999999945
10
236.82334011129069
20
691.93955333392955
0
LWPOLYLINE
5
134
100
AcDbEntity
8
0
100
AcDbPolyline
90
6
70
1
43
0.0
10
235.92724534734967
20
692.49999999999943
42
-0.42991751857597083
10
234.19946753442062
20
694.83262114745128
10
237.93923370953522
20
716.0418890660012
42
-0.12799325713693699
10
239.19677660548035
20
718.79016815125283
10
244.13448709492343
20
713.16903176972926
10
241.25275369891602
20
696.82590955196713
0
LWPOLYLINE
5
135
100
AcDbEntity
8
0
100
AcDbPolyline
90
6
70
1
43
0.0
10
210.10654450828105
20
664.48768981581634
10
205.08874525898636
20
670.19999999999936
10
187.35091008431712
20
670.19999999999936
10
180.27193656916302
20
664.44975098605778
42
0.22347937751590988
10
183.35353192983092
20
662.99999999999943
10
206.15191977239039
20
662.99999999999943
42
0.18187316544872639
0
LWPOLYLINE
5
136
100
AcDbEntity
8
0
100
AcDbPolyline
90
6
70
1
43
0.0
10
189.89345549171802
20
719.51231018418241
10
194.91125474101273
20
713.79999999999939
10
212.64908991568205
20
713.79999999999939
10
219.72806343083619
20
719.55024901394097
42
0.22347937751595387
10
216.64646807016823
20
720.99999999999932
10
193.84808022760876
20
720.99999999999932
42
0.18187316544871499
0
LWPOLYLINE
5
137
100
AcDbEntity
8
0
100
AcDbPolyline
90
6
70
1
43
0.0
10
212.06076629046365
20
667.95811093399777
10
215.80053246557841
20
689.16737885254759
42
0.42991751857592125
10
214.07275465264945
20
691.49999999999932
10
208.74724630108304
20
687.17409044803162
10
205.86551290507558
20
670.8309682302696
10
210.80322339451871
20
665.20983184874592
42
0.1279932571369434
0
CIRCLE
5
138
100
AcDbEntity
8
0
100
AcDbCircle
10
218.64999999999958
20
670.19999999999936
30
0
40
3.3000000000000007
210
0
220
-0
230
1
0
CIRCLE
5
139
100
AcDbEntity
8
0
100
AcDbCircle
10
181.3499999999996
20
713.79999999999939
30
0
40
3.2999999999999998
210
0
220
-0
230
1
0
LWPOLYLINE
5
140
100
AcDbEntity
8
0
100
AcDbPolyline
90
6
70
1
43
0.0
10
183.17659037688185
20
689.03159652019895
10
179.4143009177821
20
667.69459271066705
42
0.15458156081626387
10
179.73271738957027
20
665.30008763018816
10
186.69046093821149
20
670.95186156240948
10
189.57219433421886
20
687.29498378017138
10
185.87843006883472
20
691.49999999999932
42
0.34028312511265346
0
LWPOLYLINE
5
141
100
AcDbEntity
8
0
100
AcDbPolyline
90
6
70
1
43
0.0
10
216.82340962311727
20
694.96840347979992
42
-0.34028312511270487
10
214.12156993116452
20
692.49999999999943
10
210.42780566578031
20
696.70501621982737
10
213.30953906178775
20
713.0481384375895
10
220.26728261042905
20
718.69991236981082
42
-0.15458156081627583
10
220.58569908221705
20
716.3054072893317
0
LWPOLYLINE
5
142
100
AcDbEntity
8
0
100
AcDbPolyline
90
6
70
1
43
0.0
10
189.93254943101772
20
688.39999999999941
10
208.67038460568705
20
688.39999999999941
10
213.1766598887084
20
692.06044666606931
10
210.0674505689814
20
695.59999999999945
10
191.3296153943121
20
695.59999999999945
10
186.82334011129075
20
691.93955333392955
0
LWPOLYLINE
5
143
100
AcDbEntity
8
0
100
AcDbPolyline
90
6
70
1
43
0.0
10
185.92724534734973
20
692.49999999999943
42
-0.42991751857597083
10
184.19946753442071
20
694.83262114745128
10
187.9392337095353
20
716.0418890660012
42
-0.12799325713693699
10
189.19677660548044
20
718.79016815125283
10
194.13448709492349
20
713.16903176972926
10
191.25275369891611
20
696.82590955196713
0
LWPOLYLINE
5
144
100
AcDbEntity
8
0
100
AcDbPolyline
90
6
70
1
43
0.0
10
210.10654450828099
20
556.48768981581691
10
205.08874525898631
20
562.19999999999993
10
187.35091008431706
20
562.19999999999993
10
180.27193656916293
20
556.44975098605835
42
0.22347937751594243
10
183.35353192983087
20
554.99999999999989
10
206.15191977239027
20
554.99999999999989
42
0.18187316544874274
0
LWPOLYLINE
5
145
100
AcDbEntity
8
0
100
AcDbPolyline
90
6
70
1
43
0.0
10
189.89345549171793
20
611.51231018418298
10
194.91125474101267
20
605.79999999999995
10
212.649089915682
20
605.79999999999995
10
219.72806343083607
20
611.55024901394154
42
0.22347937751594243
10
216.64646807016817
20
612.99999999999989
10
193.84808022760868
20
613
42
0.18187316544871193
0
LWPOLYLINE
5
146
100
AcDbEntity
8
0
100
AcDbPolyline
90
6
70
1
43
0.0
10
212.06076629046356
20
559.95811093399834
10
215.80053246557836
20
581.16737885254804
42
0.42991751857590538
10
214.07275465264939
20
583.5
10
208.74724630108295
20
579.17409044803208
10
205.86551290507549
20
562.83096823027006
10
210.80322339451857
20
557.20983184874649
42
0.12799325713695406
0
CIRCLE
5
147
100
AcDbEntity
8
0
100
AcDbCircle
10
218.64999999999952
20
562.19999999999993
30
0
40
3.3000000000000007
210
0
220
-0
230
1
0
CIRCLE
5
148
100
AcDbEntity
8
0
100
AcDbCircle
10
181.34999999999951
20
605.79999999999995
30
0
40
3.2999999999999998
210
0
220
-0
230
1
0
LWPOLYLINE
5
149
100
AcDbEntity
8
0
100
AcDbPolyline
90
6
70
1
43
0.0
10
183.17659037688176
20
581.0315965201994
10
179.41430091778201
20
559.69459271066762
42
0.15458156081627633
10
179.73271738957021
20
557.30008763018873
10
186.6904609382114
20
562.95186156240993
10
189.57219433421881
20
579.29498378017183
10
185.87843006883463
20
583.5
42
0.34028312511266323
0
LWPOLYLINE
5
150
100
AcDbEntity
8
0
100
AcDbPolyline
90
6
70
1
43
0.0
10
216.82340962311727
20
586.96840347980037
42
-0.34028312511267406
10
214.1215699311644
20
584.5
10
210.42780566578023
20
588.70501621982794
10
213.30953906178766
20
605.04813843758996
10
220.26728261042888
20
610.69991236981116
42
-0.15458156081627186
10
220.58569908221699
20
608.30540728933227
0
LWPOLYLINE
5
151
100
AcDbEntity
8
0
100
AcDbPolyline
90
6
70
1
43
0.0
10
189.93254943101763
20
580.39999999999986
10
208.67038460568696
20
580.39999999999986
10
213.17665988870831
20
584.06044666606977
10
210.06745056898131
20
587.59999999999991
10
191.32961539431204
20
587.59999999999991
10
186.82334011129069
20
583.93955333393001
0
LWPOLYLINE
5
152
100
AcDbEntity
8
0
100
AcDbPolyline
90
6
70
1
43
0.0
10
185.92724534734967
20
584.5
42
-0.42991751857593297
10
184.19946753442062
20
586.83262114745173
10
187.93923370953513
20
608.04188906600166
42
-0.12799325713693879
10
189.19677660548035
20
610.79016815125351
10
194.13448709492343
20
605.16903176972971
10
191.25275369891602
20
588.8259095519677
0
LWPOLYLINE
5
153
100
AcDbEntity
8
0
100
AcDbPolyline
90
6
70
1
43
0.0
10
260.10654450828093
20
556.48768981581691
10
255.08874525898625
20
562.19999999999993
10
237.35091008431704
20
562.19999999999993
10
230.2719365691629
20
556.44975098605835
42
0.22347937751594604
10
233.35353192983081
20
554.99999999999989
10
256.15191977239027
20
554.99999999999989
42
0.18187316544874321
0
LWPOLYLINE
5
154
100
AcDbEntity
8
0
100
AcDbPolyline
90
6
70
1
43
0.0
10
239.8934554917179
20
611.51231018418298
10
244.91125474101264
20
605.79999999999995
10
262.64908991568194
20
605.79999999999995
10
269.72806343083607
20
611.55024901394154
42
0.22347937751594604
10
266.64646807016811
20
612.99999999999989
10
243.84808022760865
20
613
42
0.18187316544872068
0
LWPOLYLINE
5
155
100
AcDbEntity
8
0
100
AcDbPolyline
90
6
70
1
43
0.0
10
262.0607662904635
20
559.95811093399834
10
265.80053246557833
20
581.16737885254804
42
0.42991751857590538
10
264.07275465264934
20
583.5
10
258.74724630108295
20
579.17409044803208
10
255.86551290507549
20
562.83096823027006
10
260.80322339451857
20
557.20983184874638
42
0.12799325713695694
0
CIRCLE
5
156
100
AcDbEntity
8
0
100
AcDbCircle
10
268.64999999999947
20
562.19999999999993
30
0
40
3.3000000000000007
210
0
220
-0
230
1
0
CIRCLE
5
157
100
AcDbEntity
8
0
100
AcDbCircle
10
231.34999999999948
20
605.79999999999995
30
0
40
3.2999999999999998
210
0
220
-0
230
1
0
LWPOLYLINE
5
158
100
AcDbEntity
8
0
100
AcDbPolyline
90
6
70
1
43
0.0
10
233.17659037688173
20
581.0315965201994
10
229.41430091778199
20
559.69459271066762
42
0.15458156081627672
10
229.73271738957015
20
557.30008763018873
10
236.69046093821137
20
562.95186156240993
10
239.57219433421875
20
579.29498378017183
10
235.8784300688346
20
583.5
42
0.34028312511266323
0
LWPOLYLINE
5
159
100
AcDbEntity
8
0
100
AcDbPolyline
90
6
70
1
43
0.0
10
266.82340962311719
20
586.96840347980037
42
-0.34028312511266595
10
264.12156993116434
20
584.49999999999989
10
260.42780566578023
20
588.70501621982794
10
263.30953906178763
20
605.04813843758996
10
270.26728261042888
20
610.69991236981116
42
-0.1545815608162722
10
270.58569908221693
20
608.30540728933227
0
LWPOLYLINE
5
160
100
AcDbEntity
8
0
100
AcDbPolyline
90
6
70
1
43
0.0
10
239.93254943101761
20
580.39999999999986
10
258.67038460568693
20
580.39999999999986
10
263.17665988870829
20
584.06044666606977
10
260.06745056898131
20
587.59999999999991
10
241.32961539431199
20
587.59999999999991
10
236.82334011129063
20
583.93955333393001
0
LWPOLYLINE
5
161
100
AcDbEntity
8
0
100
AcDbPolyline
90
6
70
1
43
0.0
10
235.92724534734964
20
584.49999999999989
42
-0.42991751857592808
10
234.19946753442059
20
586.83262114745173
10
237.93923370953524
20
608.04188906600154
42
-0.12799325713694049
10
239.19677660548032
20
610.7901681512534
10
244.1344870949234
20
605.16903176972971
10
241.252753698916
20
588.8259095519677
0
LWPOLYLINE
5
162
100
AcDbEntity
8
0
100
AcDbPolyline
90
6
70
1
43
0.0
10
260.10654450828105
20
448.48768981581685
10
255.08874525898636
20
454.19999999999987
10
237.35091008431712
20
454.19999999999987
10
230.27193656916299
20
448.44975098605829
42
0.2234793775159388
10
233.35353192983092
20
446.99999999999989
10
256.15191977239033
20
446.99999999999989
42
0.18187316544874274
0
LWPOLYLINE
5
163
100
AcDbEntity
8
0
100
AcDbPolyline
90
6
70
1
43
0.0
10
239.89345549171802
20
503.51231018418287
10
244.91125474101273
20
497.79999999999984
10
262.64908991568205
20
497.79999999999984
10
269.72806343083613
20
503.55024901394142
42
0.2234793775159388
10
266.64646807016823
20
504.99999999999989
10
243.84808022760876
20
504.99999999999994
42
0.18187316544871193
0
LWPOLYLINE
5
164
100
AcDbEntity
8
0
100
AcDbPolyline
90
6
70
1
43
0.0
10
262.06076629046368
20
451.95811093399834
10
265.80053246557844
20
473.16737885254804
42
0.42991751857593291
10
264.07275465264945
20
475.49999999999989
10
258.74724630108301
20
471.17409044803202
10
255.86551290507558
20
454.83096823027006
10
260.80322339451862
20
449.20983184874643
42
0.12799325713695406
0
CIRCLE
5
165
100
AcDbEntity
8
0
100
AcDbCircle
10
268.64999999999958
20
454.19999999999987
30
0
40
3.3000000000000007
210
0
220
-0
230
1
0
CIRCLE
5
166
100
AcDbEntity
8
0
100
AcDbCircle
10
231.3499999999996
20
497.79999999999984
30
0
40
3.2999999999999998
210
0
220
-0
230
1
0
LWPOLYLINE
5
167
100
AcDbEntity
8
0
100
AcDbPolyline
90
6
70
1
43
0.0
10
233.17659037688185
20
473.03159652019934
10
229.4143009177821
20
451.69459271066762
42
0.154581560816276
10
229.73271738957027
20
449.30008763018867
10
236.69046093821149
20
454.95186156240993
10
239.57219433421886
20
471.29498378017183
10
235.87843006883472
20
475.49999999999989
42
0.34028312511266917
0
LWPOLYLINE
5
168
100
AcDbEntity
8
0
100
AcDbPolyline
90
6
70
1
43
0.0
10
266.82340962311724
20
478.96840347980037
42
-0.34028312511268699
10
264.12156993116446
20
476.49999999999989
10
260.42780566578028
20
480.70501621982794
10
263.30953906178775
20
497.0481384375899
10
270.26728261042888
20
502.69991236981105
42
-0.15458156081627142
10
270.58569908221705
20
500.30540728933215
0
LWPOLYLINE
5
169
100
AcDbEntity
8
0
100
AcDbPolyline
90
6
70
1
43
0.0
10
239.93254943101772
20
472.39999999999986
10
258.67038460568705
20
472.39999999999986
10
263.1766598887084
20
476.06044666606977
10
260.06745056898137
20
479.59999999999985
10
241.3296153943121
20
479.59999999999985
10
236.82334011129075
20
475.93955333393001
0
LWPOLYLINE
5
170
100
AcDbEntity
8
0
100
AcDbPolyline
90
6
70
1
43
0.0
10
235.92724534734973
20
476.49999999999983
42
-0.42991751857594945
10
234.19946753442071
20
478.83262114745173
10
237.93923370953522
20
500.04188906600154
42
-0.12799325713693879
10
239.19677660548044
20
502.79016815125345
10
244.13448709492349
20
497.16903176972971
10
241.25275369891611
20
480.8259095519677
0
LWPOLYLINE
5
171
100
AcDbEntity
8
0
100
AcDbPolyline
90
6
70
1
43
0.0
10
210.10654450828105
20
448.48768981581685
10
205.08874525898636
20
454.19999999999987
10
187.35091008431712
20
454.19999999999987
10
180.27193656916299
20
448.44975098605829
42
0.2234793775159388
10
183.35353192983092
20
446.99999999999989
10
206.15191977239036
20
446.99999999999989
42
0.18187316544874274
0
LWPOLYLINE
5
172
100
AcDbEntity
8
0
100
AcDbPolyline
90
6
70
1
43
0.0
10
189.89345549171802
20
503.51231018418287
10
194.91125474101273
20
497.79999999999984
10
212.64908991568205
20
497.79999999999984
10
219.72806343083616
20
503.55024901394142
42
0.2234793775159388
10
216.64646807016823
20
504.99999999999989
10
193.84808022760876
20
504.99999999999994
42
0.18187316544871193
0
LWPOLYLINE
5
173
100
AcDbEntity
8
0
100
AcDbPolyline
90
6
70
1
43
0.0
10
212.06076629046365
20
451.95811093399834
10
215.80053246557841
20
473.16737885254804
42
0.42991751857593291
10
214.07275465264945
20
475.49999999999989
10
208.74724630108304
20
471.17409044803202
10
205.86551290507558
20
454.83096823027006
10
210.80322339451865
20
449.20983184874643
42
0.12799325713695406
0
CIRCLE
5
174
100
AcDbEntity
8
0
100
AcDbCircle
10
218.64999999999958
20
454.19999999999987
30
0
40
3.3000000000000007
210
0
220
-0
230
1
0
CIRCLE
5
175
100
AcDbEntity
8
0
100
AcDbCircle
10
181.3499999999996
20
497.79999999999984
30
0
40
3.2999999999999998
210
0
220
-0
230
1
0
LWPOLYLINE
5
176
100
AcDbEntity
8
0
100
AcDbPolyline
90
6
70
1
43
0.0
10
183.17659037688185
20
473.03159652019934
10
179.4143009177821
20
451.69459271066762
42
0.154581560816276
10
179.73271738957027
20
449.30008763018867
10
186.69046093821149
20
454.95186156240993
10
189.57219433421886
20
471.29498378017183
10
185.87843006883472
20
475.49999999999989
42
0.34028312511266917
0
LWPOLYLINE
5
177
100
AcDbEntity
8
0
100
AcDbPolyline
90
6
70
1
43
0.0
10
216.82340962311724
20
478.96840347980037
42
-0.34028312511268699
10
214.12156993116446
20
476.49999999999989
10
210.42780566578031
20
480.70501621982794
10
213.30953906178775
20
497.0481384375899
10
220.26728261042891
20
502.69991236981105
42
-0.15458156081627142
10
220.58569908221705
20
500.30540728933215
0
LWPOLYLINE
5
178
100
AcDbEntity
8
0
100
AcDbPolyline
90
6
70
1
43
0.0
10
189.93254943101772
20
472.39999999999986
10
208.67038460568705
20
472.39999999999986
10
213.1766598887084
20
476.06044666606977
10
210.0674505689814
20
479.59999999999985
10
191.3296153943121
20
479.59999999999985
10
186.82334011129075
20
475.93955333393001
0
LWPOLYLINE
5
179
100
AcDbEntity
8
0
100
AcDbPolyline
90
6
70
1
43
0.0
10
185.92724534734973
20
476.49999999999983
42
-0.42991751857594945
10
184.19946753442071
20
478.83262114745173
10
187.93923370953522
20
500.04188906600154
42
-0.12799325713693879
10
189.19677660548044
20
502.79016815125345
10
194.13448709492349
20
497.16903176972971
10
191.25275369891611
20
480.8259095519677
0
LWPOLYLINE
5
180
100
AcDbEntity
8
0
100
AcDbPolyline
90
6
70
1
43
0.0
10
285.10654450828144
20
340.48768981581691
10
280.08874525898676
20
346.19999999999993
10
262.35091008431755
20
346.19999999999993
10
255.27193656916339
20
340.44975098605835
42
0.22347937751594243
10
258.35353192983132
20
338.99999999999989
10
281.15191977239073
20
338.99999999999989
42
0.18187316544874321
0
LWPOLYLINE
5
181
100
AcDbEntity
8
0
100
AcDbPolyline
90
6
70
1
43
0.0
10
264.89345549171838
20
395.51231018418292
10
269.91125474101312
20
389.7999999999999
10
287.64908991568245
20
389.7999999999999
10
294.72806343083653
20
395.55024901394148
42
0.22347937751594243
10
291.64646807016862
20
396.99999999999989
10
268.84808022760916
20
396.99999999999994
42
0.18187316544872276
0
LWPOLYLINE
5
182
100
AcDbEntity
8
0
100
AcDbPolyline
90
6
70
1
43
0.0
10
287.06076629046402
20
343.95811093399834
10
290.80053246557884
20
365.16737885254804
42
0.42991751857593291
10
289.07275465264985
20
367.49999999999994
10
283.74724630108341
20
363.17409044803208
10
280.865512905076
20
346.83096823027006
10
285.80322339451902
20
341.20983184874638
42
0.12799325713695694
0
CIRCLE
5
183
100
AcDbEntity
8
0
100
AcDbCircle
10
293.64999999999998
20
346.19999999999993
30
0
40
3.3000000000000007
210
0
220
-0
230
1
0
CIRCLE
5
184
100
AcDbEntity
8
0
100
AcDbCircle
10
256.34999999999997
20
389.7999999999999
30
0
40
3.2999999999999998
210
0
220
-0
230
1
0
LWPOLYLINE
5
185
100
AcDbEntity
8
0
100
AcDbPolyline
90
6
70
1
43
0.0
10
258.17659037688225
20
365.0315965201994
10
254.41430091778247
20
343.69459271066768
42
0.15458156081627633
10
254.73271738957067
20
341.30008763018873
10
261.69046093821186
20
346.95186156240993
10
264.57219433421926
20
363.29498378017183
10
260.87843006883509
20
367.49999999999994
42
0.34028312511266917
0
LWPOLYLINE
5
186
100
AcDbEntity
8
0
100
AcDbPolyline
90
6
70
1
43
0.0
10
291.82340962311764
20
370.96840347980043
42
-0.34028312511267733
10
289.1215699311648
20
368.49999999999989
10
285.42780566578068
20
372.70501621982794
10
288.30953906178814
20
389.04813843758996
10
295.26728261042933
20
394.6999123698111
42
-0.15458156081627186
10
295.58569908221745
20
392.30540728933221
0
LWPOLYLINE
5
187
100
AcDbEntity
8
0
100
AcDbPolyline
90
6
70
1
43
0.0
10
264.93254943101812
20
364.39999999999992
10
283.67038460568745
20
364.39999999999992
10
288.1766598887088
20
368.06044666606977
10
285.06745056898183
20
371.59999999999991
10
266.3296153943125
20
371.59999999999991
10
261.82334011129115
20
367.93955333393001
0
LWPOLYLINE
5
188
100
AcDbEntity
8
0
100
AcDbPolyline
90
6
70
1
43
0.0
10
260.92724534735009
20
368.49999999999989
42
-0.42991751857594335
10
259.1994675344211
20
370.83262114745173
10
262.93923370953576
20
392.04188906600154
42
-0.12799325713694115
10
264.19677660548081
20
394.7901681512534
10
269.13448709492388
20
389.16903176972971
10
266.25275369891648
20
372.82590955196775
0
LWPOLYLINE
5
189
100
AcDbEntity
8
0
100
AcDbPolyline
90
6
70
1
43
0.0
10
235.10654450828139
20
340.48768981581691
10
230.08874525898671
20
346.19999999999993
10
212.35091008431743
20
346.19999999999993
10
205.2719365691633
20
340.44975098605835
42
0.22347937751594243
10
208.35353192983123
20
338.99999999999989
10
231.15191977239067
20
338.99999999999989
42
0.18187316544874321
0
LWPOLYLINE
5
190
100
AcDbEntity
8
0
100
AcDbPolyline
90
6
70
1
43
0.0
10
214.89345549171833
20
395.51231018418292
10
219.91125474101307
20
389.7999999999999
10
237.64908991568237
20
389.7999999999999
10
244.72806343083647
20
395.55024901394148
42
0.22347937751594243
10
241.64646807016854
20
396.99999999999989
10
218.84808022760907
20
396.99999999999994
42
0.18187316544872276
0
LWPOLYLINE
5
191
100
AcDbEntity
8
0
100
AcDbPolyline
90
6
70
1
43
0.0
10
237.06076629046393
20
343.95811093399834
10
240.80053246557873
20
365.16737885254804
42
0.42991751857593291
10
239.07275465264976
20
367.49999999999994
10
233.74724630108335
20
363.17409044803208
10
230.86551290507595
20
346.83096823027006
10
235.80322339451897
20
341.20983184874638
42
0.12799325713695694
0
CIRCLE
5
192
100
AcDbEntity
8
0
100
AcDbCircle
10
243.64999999999986
20
346.19999999999993
30
0
40
3.3000000000000007
210
0
220
-0
230
1
0
CIRCLE
5
193
100
AcDbEntity
8
0
100
AcDbCircle
10
206.34999999999991
20
389.7999999999999
30
0
40
3.2999999999999998
210
0
220
-0
230
1
0
LWPOLYLINE
5
194
100
AcDbEntity
8
0
100
AcDbPolyline
90
6
70
1
43
0.0
10
208.17659037688216
20
365.0315965201994
10
204.41430091778241
20
343.69459271066768
42
0.15458156081627633
10
204.73271738957061
20
341.30008763018873
10
211.6904609382118
20
346.95186156240993
10
214.5721943342192
20
363.29498378017183
10
210.87843006883503
20
367.49999999999994
42
0.34028312511266917
0
LWPOLYLINE
5
195
100
AcDbEntity
8
0
100
AcDbPolyline
90
6
70
1
43
0.0
10
241.82340962311758
20
370.96840347980043
42
-0.34028312511267733
10
239.12156993116474
20
368.49999999999989
10
235.42780566578062
20
372.70501621982794
10
238.30953906178806
20
389.04813843758996
10
245.26728261042928
20
394.6999123698111
42
-0.15458156081627186
10
245.58569908221739
20
392.30540728933221
0
LWPOLYLINE
5
196
100
AcDbEntity
8
0
100
AcDbPolyline
90
6
70
1
43
0.0
10
214.93254943101803
20
364.39999999999992
10
233.67038460568736
20
364.39999999999992
10
238.17665988870871
20
368.06044666606977
10
235.06745056898177
20
371.59999999999991
10
216.32961539431244
20
371.59999999999991
10
211.82334011129109
20
367.93955333393001
0
LWPOLYLINE
5
197
100
AcDbEntity
8
0
100
AcDbPolyline
90
6
70
1
43
0.0
10
210.92724534735004
20
368.49999999999989
42
-0.42991751857594335
10
209.19946753442102
20
370.83262114745173
10
212.9392337095357
20
392.04188906600154
42
-0.12799325713694115
10
214.19677660548075
20
394.7901681512534
10
219.13448709492383
20
389.16903176972971
10
216.25275369891642
20
372.82590955196775
0
LWPOLYLINE
5
198
100
AcDbEntity
8
0
100
AcDbPolyline
90
6
70
1
43
0.0
10
185.10654450828153
20
340.48768981581696
10
180.08874525898682
20
346.19999999999999
10
162.3509100843176
20
346.19999999999999
10
155.27193656916347
20
340.4497509860584
42
0.22347937751594929
10
158.35353192983138
20
339
10
181.15191977239081
20
339
42
0.18187316544874321
0
LWPOLYLINE
5
199
100
AcDbEntity
8
0
100
AcDbPolyline
90
6
70
1
43
0.0
10
164.89345549171847
20
395.51231018418298
10
169.91125474101321
20
389.79999999999995
10
187.64908991568251
20
389.79999999999995
10
194.72806343083661
20
395.55024901394154
42
0.22347937751594604
10
191.64646807016868
20
396.99999999999994
10
168.84808022760922
20
397
42
0.18187316544872068
0
LWPOLYLINE
5
200
100
AcDbEntity
8
0
100
AcDbPolyline
90
6
70
1
43
0.0
10
187.06076629046407
20
343.95811093399846
10
190.8005324655789
20
365.16737885254815
42
0.42991751857590538
10
189.07275465264991
20
367.5
10
183.74724630108349
20
363.17409044803213
10
180.86551290507606
20
346.83096823027017
10
185.80322339451911
20
341.20983184874649
42
0.12799325713695694
0
CIRCLE
5
201
100
AcDbEntity
8
0
100
AcDbCircle
10
193.65000000000003
20
346.19999999999999
30
0
40
3.3000000000000007
210
0
220
-0
230
1
0
CIRCLE
5
202
100
AcDbEntity
8
0
100
AcDbCircle
10
156.35000000000002
20
389.79999999999995
30
0
40
3.2999999999999998
210
0
220
-0
230
1
0
LWPOLYLINE
5
203
100
AcDbEntity
8
0
100
AcDbPolyline
90
6
70
1
43
0.0
10
158.1765903768823
20
365.03159652019946
10
154.41430091778255
20
343.69459271066773
42
0.15458156081627775
10
154.73271738957072
20
341.30008763018878
10
161.69046093821194
20
346.95186156240999
10
164.57219433421932
20
363.29498378017195
10
160.87843006883517
20
367.5
42
0.34028312511266323
0
LWPOLYLINE
5
204
100
AcDbEntity
8
0
100
AcDbPolyline
90
6
70
1
43
0.0
10
191.82340962311775
20
370.96840347980043
42
-0.34028312511266595
10
189.12156993116491
20
368.49999999999994
10
185.42780566578077
20
372.70501621982805
10
188.3095390617882
20
389.04813843759001
10
195.26728261042945
20
394.69991236981122
42
-0.1545815608162722
10
195.58569908221753
20
392.30540728933227
0
LWPOLYLINE
5
205
100
AcDbEntity
8
0
100
AcDbPolyline
90
6
70
1
43
0.0
10
164.93254943101817
20
364.39999999999998
10
183.6703846056875
20
364.39999999999998
10
188.17665988870885
20
368.06044666606988
10
185.06745056898188
20
371.59999999999997
10
166.32961539431255
20
371.59999999999997
10
161.8233401112912
20
367.93955333393006
0
LWPOLYLINE
5
206
100
AcDbEntity
8
0
100
AcDbPolyline
90
6
70
1
43
0.0
10
160.92724534735021
20
368.49999999999994
42
-0.42991751857592808
10
159.19946753442116
20
370.83262114745185
10
162.93923370953581
20
392.0418890660016
42
-0.12799325713694049
10
164.19677660548089
20
394.79016815125351
10
169.13448709492397
20
389.16903176972983
10
166.25275369891656
20
372.82590955196781
0
LWPOLYLINE
5
207
100
AcDbEntity
8
0
100
AcDbPolyline
90
6
70
1
43
0.0
10
310.1065445082815
20
232.48768981581708
10
305.08874525898682
20
238.20000000000007
10
287.35091008431755
20
238.20000000000007
10
280.27193656916342
20
232.44975098605849
42
0.2234793775159406
10
283.35353192983132
20
231.00000000000009
10
306.15191977239084
20
231.00000000000011
42
0.18187316544872834
0
LWPOLYLINE
5
208
100
AcDbEntity
8
0
100
AcDbPolyline
90
6
70
1
43
0.0
10
289.89345549171844
20
287.51231018418304
10
294.91125474101318
20
281.80000000000013
10
312.64908991568245
20
281.80000000000007
10
319.72806343083658
20
287.55024901394165
42
0.2234793775159406
10
316.64646807016868
20
289.00000000000011
10
293.84808022760916
20
289.00000000000011
42
0.18187316544874291
0
LWPOLYLINE
5
209
100
AcDbEntity
8
0
100
AcDbPolyline
90
6
70
1
43
0.0
10
312.06076629046407
20
235.95811093399848
10
315.80053246557884
20
257.16737885254821
42
0.42991751857593224
10
314.07275465264991
20
259.50000000000006
10
308.74724630108346
20
255.17409044803225
10
305.865512905076
20
238.83096823027029
10
310.80322339451908
20
233.20983184874655
42
0.12799325713694942
0
CIRCLE
5
210
100
AcDbEntity
8
0
100
AcDbCircle
10
318.65000000000003
20
238.20000000000007
30
0
40
3.3000000000000007
210
0
220
-0
230
1
0
CIRCLE
5
211
100
AcDbEntity
8
0
100
AcDbCircle
10
281.35000000000002
20
281.80000000000013
30
0
40
3.2999999999999998
210
0
220
-0
230
1
0
LWPOLYLINE
5
212
100
AcDbEntity
8
0
100
AcDbPolyline
90
6
70
1
43
0.0
10
283.17659037688225
20
257.03159652019957
10
279.4143009177825
20
235.69459271066779
42
0.154581560816276
10
279.73271738957072
20
233.30008763018884
10
286.69046093821191
20
238.9518615624101
10
289.57219433421932
20
255.29498378017206
10
285.87843006883514
20
259.50000000000011
42
0.34028312511265485
0
LWPOLYLINE
5
213
100
AcDbEntity
8
0
100
AcDbPolyline
90
6
70
1
43
0.0
10
316.82340962311764
20
262.96840347980066
42
-0.34028312511266828
10
314.12156993116491
20
260.50000000000006
10
310.42780566578074
20
264.70501621982811
10
313.30953906178814
20
281.04813843759013
10
320.26728261042933
20
286.69991236981127
42
-0.15458156081627494
10
320.5856990822175
20
284.30540728933232
0
LWPOLYLINE
5
214
100
AcDbEntity
8
0
100
AcDbPolyline
90
6
70
1
43
0.0
10
289.93254943101812
20
256.40000000000009
10
308.67038460568745
20
256.40000000000009
10
313.1766598887088
20
260.06044666606999
10
310.06745056898183
20
263.60000000000008
10
291.32961539431255
20
263.60000000000008
10
286.8233401112912
20
259.93955333393018
0
LWPOLYLINE
5
215
100
AcDbEntity
8
0
100
AcDbPolyline
90
6
70
1
43
0.0
10
285.92724534735015
20
260.50000000000006
42
-0.42991751857594362
10
284.1994675344211
20
262.8326211474519
10
287.93923370953604
20
284.04188906600166
42
-0.12799325713695153
10
289.19677660548086
20
286.79016815125357
10
294.13448709492394
20
281.16903176972988
10
291.25275369891654
20
264.82590955196792
0
LWPOLYLINE
5
216
100
AcDbEntity
8
0
100
AcDbPolyline
90
6
70
1
43
0.0
10
260.1065445082815
20
232.48768981581702
10
255.08874525898679
20
238.19999999999999
10
237.35091008431755
20
238.19999999999999
10
230.27193656916342
20
232.4497509860584
42
0.2234793775159406
10
233.35353192983135
20
231
10
256.15191977239084
20
231.00000000000006
42
0.18187316544872834
0
LWPOLYLINE
5
217
100
AcDbEntity
8
0
100
AcDbPolyline
90
6
70
1
43
0.0
10
239.89345549171844
20
287.51231018418298
10
244.91125474101318
20
281.80000000000001
10
262.64908991568245
20
281.80000000000001
10
269.72806343083658
20
287.5502490139416
42
0.2234793775159406
10
266.64646807016868
20
289
10
243.84808022760919
20
289
42
0.18187316544874291
0
LWPOLYLINE
5
218
100
AcDbEntity
8
0
100
AcDbPolyline
90
6
70
1
43
0.0
10
262.06076629046407
20
235.95811093399843
10
265.80053246557884
20
257.16737885254815
42
0.42991751857593224
10
264.07275465264991
20
259.5
10
258.74724630108346
20
255.17409044803216
10
255.865512905076
20
238.8309682302702
10
260.80322339451908
20
233.20983184874649
42
0.12799325713694942
0
CIRCLE
5
219
100
AcDbEntity
8
0
100
AcDbCircle
10
268.65000000000003
20
238.19999999999999
30
0
40
3.3000000000000007
210
0
220
-0
230
1
0
CIRCLE
5
220
100
AcDbEntity
8
0
100
AcDbCircle
10
231.35000000000002
20
281.80000000000001
30
0
40
3.2999999999999998
210
0
220
-0
230
1
0
LWPOLYLINE
5
221
100
AcDbEntity
8
0
100
AcDbPolyline
90
6
70
1
43
0.0
10
233.17659037688227
20
257.03159652019951
10
229.4143009177825
20
235.69459271066773
42
0.154581560816276
10
229.73271738957069
20
233.30008763018878
10
236.69046093821191
20
238.95186156241004
10
239.57219433421929
20
255.29498378017198
10
235.87843006883514
20
259.5
42
0.34028312511265485
0
LWPOLYLINE
5
222
100
AcDbEntity
8
0
100
AcDbPolyline
90
6
70
1
43
0.0
10
266.82340962311764
20
262.9684034798006
42
-0.34028312511266828
10
264.12156993116491
20
260.5
10
260.42780566578074
20
264.705016219828
10
263.30953906178814
20
281.04813843759007
10
270.26728261042933
20
286.69991236981116
42
-0.15458156081627436
10
270.58569908221745
20
284.30540728933227
0
LWPOLYLINE
5
223
100
AcDbEntity
8
0
100
AcDbPolyline
90
6
70
1
43
0.0
10
239.93254943101815
20
256.39999999999998
10
258.67038460568745
20
256.39999999999998
10
263.1766598887088
20
260.06044666606988
10
260.06745056898183
20
263.60000000000002
10
241.32961539431253
20
263.60000000000002
10
236.82334011129117
20
259.93955333393012
0
LWPOLYLINE
5
224
100
AcDbEntity
8
0
100
AcDbPolyline
90
6
70
1
43
0.0
10
235.92724534735015
20
260.5
42
-0.42991751857594362
10
234.1994675344211
20
262.83262114745179
10
237.93923370953604
20
284.0418890660016
42
-0.12799325713695153
10
239.19677660548086
20
286.79016815125351
10
244.13448709492394
20
281.16903176972983
10
241.25275369891654
20
264.82590955196781
0
LWPOLYLINE
5
225
100
AcDbEntity
8
0
100
AcDbPolyline
90
6
70
1
43
0.0
10
210.1065445082815
20
232.48768981581708
10
205.08874525898679
20
238.20000000000007
10
187.35091008431755
20
238.20000000000007
10
180.27193656916342
20
232.44975098605849
42
0.2234793775159406
10
183.35353192983135
20
231.00000000000009
10
206.15191977239081
20
231.00000000000011
42
0.18187316544872834
0
LWPOLYLINE
5
226
100
AcDbEntity
8
0
100
AcDbPolyline
90
6
70
1
43
0.0
10
189.89345549171844
20
287.51231018418304
10
194.91125474101318
20
281.80000000000013
10
212.64908991568248
20
281.80000000000007
10
219.72806343083658
20
287.55024901394165
42
0.2234793775159406
10
216.64646807016865
20
289.00000000000011
10
193.84808022760919
20
289.00000000000011
42
0.18187316544874291
0
LWPOLYLINE
5
227
100
AcDbEntity
8
0
100
AcDbPolyline
90
6
70
1
43
0.0
10
212.06076629046407
20
235.95811093399848
10
215.80053246557884
20
257.16737885254821
42
0.42991751857593224
10
214.07275465264988
20
259.50000000000006
10
208.74724630108346
20
255.17409044803225
10
205.865512905076
20
238.83096823027029
10
210.80322339451908
20
233.20983184874655
42
0.12799325713694942
0
CIRCLE
5
228
100
AcDbEntity
8
0
100
AcDbCircle
10
218.65000000000003
20
238.20000000000007
30
0
40
3.3000000000000007
210
0
220
-0
230
1
0
CIRCLE
5
229
100
AcDbEntity
8
0
100
AcDbCircle
10
181.35000000000002
20
281.80000000000013
30
0
40
3.2999999999999998
210
0
220
-0
230
1
0
LWPOLYLINE
5
230
100
AcDbEntity
8
0
100
AcDbPolyline
90
6
70
1
43
0.0
10
183.17659037688227
20
257.03159652019957
10
179.4143009177825
20
235.69459271066779
42
0.154581560816276
10
179.73271738957069
20
233.30008763018884
10
186.69046093821191
20
238.9518615624101
10
189.57219433421929
20
255.29498378017206
10
185.87843006883514
20
259.50000000000011
42
0.34028312511265485
0
LWPOLYLINE
5
231
100
AcDbEntity
8
0
100
AcDbPolyline
90
6
70
1
43
0.0
10
216.82340962311767
20
262.96840347980066
42
-0.34028312511266828
10
214.12156993116491
20
260.50000000000006
10
210.42780566578074
20
264.70501621982811
10
213.30953906178817
20
281.04813843759013
10
220.26728261042933
20
286.69991236981127
42
-0.15458156081627436
10
220.58569908221745
20
284.30540728933232
0
LWPOLYLINE
5
232
100
AcDbEntity
8
0
100
AcDbPolyline
90
6
70
1
43
0.0
10
189.93254943101815
20
256.40000000000009
10
208.67038460568747
20
256.40000000000009
10
213.17665988870883
20
260.06044666606999
10
210.06745056898183
20
263.60000000000008
10
191.32961539431253
20
263.60000000000008
10
186.82334011129117
20
259.93955333393018
0
LWPOLYLINE
5
233
100
AcDbEntity
8
0
100
AcDbPolyline
90
6
70
1
43
0.0
10
185.92724534735015
20
260.50000000000006
42
-0.42991751857594362
10
184.1994675344211
20
262.8326211474519
10
187.93923370953604
20
284.04188906600166
42
-0.12799325713695153
10
189.19677660548086
20
286.79016815125357
10
194.13448709492394
20
281.16903176972988
10
191.25275369891654
20
264.82590955196792
0
LWPOLYLINE
5
234
100
AcDbEntity
8
0
100
AcDbPolyline
90
6
70
1
43
0.0
10
160.10654450828153
20
232.48768981581702
10
155.08874525898682
20
238.19999999999999
10
137.3509100843176
20
238.19999999999999
10
130.27193656916347
20
232.4497509860584
42
0.22347937751594568
10
133.35353192983138
20
231
10
156.15191977239084
20
231.00000000000006
42
0.18187316544872958
0
LWPOLYLINE
5
235
100
AcDbEntity
8
0
100
AcDbPolyline
90
6
70
1
43
0.0
10
139.8934554917185
20
287.51231018418298
10
144.91125474101318
20
281.80000000000001
10
162.64908991568251
20
281.80000000000001
10
169.72806343083661
20
287.5502490139416
42
0.22347937751594424
10
166.64646807016868
20
289
10
143.84808022760919
20
289.00000000000006
42
0.18187316544872978
0
LWPOLYLINE
5
236
100
AcDbEntity
8
0
100
AcDbPolyline
90
6
70
1
43
0.0
10
162.06076629046407
20
235.95811093399843
10
165.8005324655789
20
257.16737885254815
42
0.42991751857592769
10
164.07275465264991
20
259.5
10
158.74724630108349
20
255.17409044803216
10
155.86551290507606
20
238.8309682302702
10
160.80322339451911
20
233.20983184874649
42
0.12799325713694998
0
CIRCLE
5
237
100
AcDbEntity
8
0
100
AcDbCircle
10
168.65000000000003
20
238.19999999999999
30
0
40
3.3000000000000007
210
0
220
-0
230
1
0
CIRCLE
5
238
100
AcDbEntity
8
0
100
AcDbCircle
10
131.35000000000002
20
281.80000000000001
30
0
40
3.2999999999999998
210
0
220
-0
230
1
0
LWPOLYLINE
5
239
100
AcDbEntity
8
0
100
AcDbPolyline
90
6
70
1
43
0.0
10
133.1765903768823
20
257.03159652019951
10
129.41430091778255
20
235.69459271066773
42
0.15458156081627727
10
129.73271738957072
20
233.30008763018878
10
136.69046093821194
20
238.95186156241004
10
139.57219433421932
20
255.29498378017198
10
135.87843006883514
20
259.5
42
0.34028312511264885
0
LWPOLYLINE
5
240
100
AcDbEntity
8
0
100
AcDbPolyline
90
6
70
1
43
0.0
10
166.82340962311773
20
262.96840347980054
42
-0.34028312511266595
10
164.12156993116491
20
260.5
10
160.42780566578077
20
264.705016219828
10
163.3095390617882
20
281.04813843759007
10
170.26728261042936
20
286.69991236981116
42
-0.15458156081627469
10
170.5856990822175
20
284.30540728933227
0
LWPOLYLINE
5
241
100
AcDbEntity
8
0
100
AcDbPolyline
90
6
70
1
43
0.0
10
139.9325494310182
20
256.39999999999998
10
158.6703846056875
20
256.39999999999998
10
163.17665988870885
20
260.06044666606988
10
160.06745056898188
20
263.60000000000002
10
141.32961539431258
20
263.60000000000002
10
136.8233401112912
20
259.93955333393012
0
LWPOLYLINE
5
242
100
AcDbEntity
8
0
100
AcDbPolyline
90
6
70
1
43
0.0
10
135.92724534735018
20
260.5
42
-0.42991751857593252
10
134.19946753442116
20
262.83262114745185
10
137.9392337095359
20
284.0418890660016
42
-0.12799325713694545
10
139.19677660548089
20
286.79016815125351
10
144.13448709492394
20
281.16903176972983
10
141.25275369891656
20
264.82590955196781
0
LWPOLYLINE
5
243
100
AcDbEntity
8
0
100
AcDbPolyline
90
6
70
1
43
0.0
10
310.1065445082815
20
124.48768981581701
10
305.08874525898682
20
130.19999999999999
10
287.3509100843176
20
130.20000000000002
10
280.27193656916347
20
124.44975098605843
42
0.22347937751592825
10
283.35353192983138
20
123
10
306.15191977239084
20
123
42
0.18187316544873289
0
LWPOLYLINE
5
244
100
AcDbEntity
8
0
100
AcDbPolyline
90
6
70
1
43
0.0
10
289.8934554917185
20
179.51231018418298
10
294.91125474101318
20
173.80000000000001
10
312.64908991568251
20
173.80000000000001
10
319.72806343083664
20
179.55024901394157
42
0.22347937751594424
10
316.64646807016868
20
181
10
293.84808022760922
20
181
42
0.18187316544873733
0
LWPOLYLINE
5
245
100
AcDbEntity
8
0
100
AcDbPolyline
90
6
70
1
43
0.0
10
312.06076629046407
20
127.95811093399841
10
315.8005324655789
20
149.16737885254815
42
0.42991751857593002
10
314.07275465264991
20
151.5
10
308.74724630108352
20
147.17409044803216
10
305.86551290507606
20
130.8309682302702
10
310.80322339451914
20
125.20983184874649
42
0.1279932571369507
0
CIRCLE
5
246
100
AcDbEntity
8
0
100
AcDbCircle
10
318.65000000000003
20
130.19999999999999
30
0
40
3.3000000000000007
210
0
220
-0
230
1
0
CIRCLE
5
247
100
AcDbEntity
8
0
100
AcDbCircle
10
281.35000000000002
20
173.80000000000001
30
0
40
3.2999999999999998
210
0
220
-0
230
1
0
LWPOLYLINE
5
248
100
AcDbEntity
8
0
100
AcDbPolyline
90
6
70
1
43
0.0
10
283.1765903768823
20
149.03159652019949
10
279.41430091778255
20
127.69459271066772
42
0.15458156081626848
10
279.73271738957072
20
125.30008763018878
10
286.69046093821191
20
130.95186156241002
10
289.57219433421932
20
147.29498378017195
10
285.8784300688352
20
151.50000000000003
42
0.34028312511266345
0
LWPOLYLINE
5
249
100
AcDbEntity
8
0
100
AcDbPolyline
90
6
70
1
43
0.0
10
316.82340962311775
20
154.96840347980051
42
-0.34028312511265951
10
314.12156993116486
20
152.5
10
310.4278056657808
20
156.705016219828
10
313.3095390617882
20
173.04813843759004
10
320.26728261042939
20
178.69991236981119
42
-0.15458156081627469
10
320.5856990822175
20
176.30540728933227
0
LWPOLYLINE
5
250
100
AcDbEntity
8
0
100
AcDbPolyline
90
6
70
1
43
0.0
10
289.93254943101817
20
148.40000000000001
10
308.6703846056875
20
148.40000000000001
10
313.17665988870885
20
152.06044666606988
10
310.06745056898188
20
155.59999999999999
10
291.32961539431255
20
155.60000000000002
10
286.8233401112912
20
151.93955333393012
0
LWPOLYLINE
5
251
100
AcDbEntity
8
0
100
AcDbPolyline
90
6
70
1
43
0.0
10
285.92724534735021
20
152.5
42
-0.4299175185759323
10
284.19946753442116
20
154.83262114745185
10
287.9392337095361
20
176.0418890660016
42
-0.12799325713694748
10
289.19677660548092
20
178.79016815125345
10
294.13448709492394
20
173.16903176972986
10
291.25275369891659
20
156.82590955196784
0
LWPOLYLINE
5
252
100
AcDbEntity
8
0
100
AcDbPolyline
90
6
70
1
43
0.0
10
260.1065445082815
20
124.48768981581702
10
255.08874525898682
20
130.20000000000002
10
237.3509100843176
20
130.20000000000005
10
230.27193656916347
20
124.44975098605845
42
0.22347937751592914
10
233.35353192983138
20
123.00000000000003
10
256.15191977239084
20
123.00000000000003
42
0.18187316544873389
0
LWPOLYLINE
5
253
100
AcDbEntity
8
0
100
AcDbPolyline
90
6
70
1
43
0.0
10
239.89345549171847
20
179.51231018418301
10
244.91125474101321
20
173.80000000000001
10
262.64908991568251
20
173.80000000000001
10
269.72806343083664
20
179.5502490139416
42
0.22347937751594416
10
266.64646807016868
20
181
10
243.84808022760922
20
181.00000000000006
42
0.18187316544873539
0
LWPOLYLINE
5
254
100
AcDbEntity
8
0
100
AcDbPolyline
90
6
70
1
43
0.0
10
262.06076629046407
20
127.95811093399843
10
265.8005324655789
20
149.16737885254818
42
0.42991751857593002
10
264.07275465264991
20
151.50000000000003
10
258.74724630108352
20
147.17409044803219
10
255.86551290507606
20
130.83096823027023
10
260.80322339451914
20
125.2098318487465
42
0.12799325713695092
0
CIRCLE
5
255
100
AcDbEntity
8
0
100
AcDbCircle
10
268.65000000000003
20
130.20000000000002
30
0
40
3.3000000000000007
210
0
220
-0
230
1
0
CIRCLE
5
256
100
AcDbEntity
8
0
100
AcDbCircle
10
231.35000000000005
20
173.80000000000001
30
0
40
3.2999999999999998
210
0
220
-0
230
1
0
LWPOLYLINE
5
257
100
AcDbEntity
8
0
100
AcDbPolyline
90
6
70
1
43
0.0
10
233.1765903768823
20
149.03159652019949
10
229.41430091778255
20
127.69459271066773
42
0.15458156081626856
10
229.73271738957072
20
125.30008763018881
10
236.69046093821194
20
130.95186156241002
10
239.57219433421932
20
147.29498378017198
10
235.87843006883517
20
151.50000000000003
42
0.34028312511266201
0
LWPOLYLINE
5
258
100
AcDbEntity
8
0
100
AcDbPolyline
90
6
70
1
43
0.0
10
266.82340962311775
20
154.96840347980054
42
-0.34028312511265707
10
264.12156993116491
20
152.50000000000003
10
260.4278056657808
20
156.70501621982802
10
263.3095390617882
20
173.04813843759007
10
270.26728261042939
20
178.69991236981122
42
-0.15458156081627469
10
270.5856990822175
20
176.30540728933229
0
LWPOLYLINE
5
259
100
AcDbEntity
8
0
100
AcDbPolyline
90
6
70
1
43
0.0
10
239.93254943101817
20
148.40000000000003
10
258.6703846056875
20
148.40000000000003
10
263.17665988870885
20
152.06044666606994
10
260.06745056898188
20
155.60000000000002
10
241.32961539431255
20
155.60000000000002
10
236.8233401112912
20
151.93955333393012
0
LWPOLYLINE
5
260
100
AcDbEntity
8
0
100
AcDbPolyline
90
6
70
1
43
0.0
10
235.92724534735021
20
152.50000000000003
42
-0.4299175185759323
10
234.19946753442116
20
154.83262114745187
10
237.93923370953598
20
176.04188906600157
42
-0.12799325713694826
10
239.19677660548092
20
178.79016815125351
10
244.13448709492397
20
173.16903176972986
10
241.25275369891656
20
156.82590955196784
0
LWPOLYLINE
5
261
100
AcDbEntity
8
0
100
AcDbPolyline
90
6
70
1
43
0.0
10
210.10654450828153
20
124.48768981581705
10
205.08874525898682
20
130.20000000000005
10
187.3509100843176
20
130.20000000000005
10
180.27193656916347
20
124.44975098605846
42
0.22347937751592825
10
183.35353192983138
20
123.00000000000004
10
206.15191977239084
20
123.00000000000004
42
0.18187316544873289
0
LWPOLYLINE
5
262
100
AcDbEntity
8
0
100
AcDbPolyline
90
6
70
1
43
0.0
10
189.89345549171847
20
179.51231018418301
10
194.91125474101321
20
173.80000000000007
10
212.64908991568251
20
173.80000000000001
10
219.72806343083661
20
179.5502490139416
42
0.22347937751594424
10
216.64646807016868
20
181.00000000000006
10
193.84808022760922
20
181.00000000000006
42
0.18187316544874046
0
LWPOLYLINE
5
263
100
AcDbEntity
8
0
100
AcDbPolyline
90
6
70
1
43
0.0
10
212.06076629046407
20
127.95811093399846
10
215.8005324655789
20
149.16737885254821
42
0.42991751857593002
10
214.07275465264991
20
151.50000000000003
10
208.74724630108349
20
147.17409044803222
10
205.86551290507606
20
130.83096823027023
10
210.80322339451911
20
125.20983184874652
42
0.1279932571369507
0
CIRCLE
5
264
100
AcDbEntity
8
0
100
AcDbCircle
10
218.65000000000003
20
130.20000000000005
30
0
40
3.3000000000000007
210
0
220
-0
230
1
0
CIRCLE
5
265
100
AcDbEntity
8
0
100
AcDbCircle
10
181.35000000000005
20
173.80000000000007
30
0
40
3.2999999999999998
210
0
220
-0
230
1
0
LWPOLYLINE
5
266
100
AcDbEntity
8
0
100
AcDbPolyline
90
6
70
1
43
0.0
10
183.1765903768823
20
149.03159652019951
10
179.41430091778255
20
127.69459271066776
42
0.15458156081626848
10
179.73271738957072
20
125.30008763018883
10
186.69046093821194
20
130.95186156241004
10
189.57219433421932
20
147.294983780172
10
185.87843006883517
20
151.50000000000006
42
0.34028312511266345
0
LWPOLYLINE
5
267
100
AcDbEntity
8
0
100
AcDbPolyline
90
6
70
1
43
0.0
10
216.82340962311775
20
154.96840347980057
42
-0.34028312511265951
10
214.12156993116486
20
152.50000000000003
10
210.42780566578077
20
156.70501621982805
10
213.3095390617882
20
173.04813843759007
10
220.26728261042936
20
178.69991236981122
42
-0.15458156081627469
10
220.5856990822175
20
176.30540728933229
0
LWPOLYLINE
5
268
100
AcDbEntity
8
0
100
AcDbPolyline
90
6
70
1
43
0.0
10
189.93254943101817
20
148.40000000000006
10
208.6703846056875
20
148.40000000000003
10
213.17665988870885
20
152.06044666606994
10
210.06745056898188
20
155.60000000000005
10
191.32961539431255
20
155.60000000000005
10
186.8233401112912
20
151.93955333393015
0
LWPOLYLINE
5
269
100
AcDbEntity
8
0
100
AcDbPolyline
90
6
70
1
43
0.0
10
185.92724534735021
20
152.50000000000003
42
-0.4299175185759323
10
184.19946753442116
20
154.8326211474519
10
187.93923370953604
20
176.0418890660016
42
-0.12799325713695028
10
189.19677660548089
20
178.79016815125354
10
194.13448709492397
20
173.16903176972986
10
191.25275369891656
20
156.82590955196787
0
LWPOLYLINE
5
270
100
AcDbEntity
8
0
100
AcDbPolyline
90
6
70
1
43
0.0
10
160.10654450828153
20
124.48768981581702
10
155.08874525898682
20
130.20000000000002
10
137.3509100843176
20
130.20000000000005
10
130.27193656916347
20
124.44975098605843
42
0.22347937751592661
10
133.35353192983138
20
123.00000000000003
10
156.15191977239087
20
123.00000000000003
42
0.18187316544872975
0
LWPOLYLINE
5
271
100
AcDbEntity
8
0
100
AcDbPolyline
90
6
70
1
43
0.0
10
139.8934554917185
20
179.51231018418301
10
144.91125474101318
20
173.80000000000001
10
162.64908991568251
20
173.80000000000001
10
169.72806343083661
20
179.5502490139416
42
0.22347937751594416
10
166.64646807016868
20
181
10
143.84808022760919
20
181.00000000000006
42
0.18187316544873675
0
LWPOLYLINE
5
272
100
AcDbEntity
8
0
100
AcDbPolyline
90
6
70
1
43
0.0
10
162.06076629046407
20
127.95811093399843
10
165.8005324655789
20
149.16737885254818
42
0.42991751857593002
10
164.07275465264991
20
151.50000000000003
10
158.74724630108349
20
147.17409044803219
10
155.86551290507606
20
130.83096823027023
10
160.80322339451911
20
125.2098318487465
42
0.12799325713694931
0
CIRCLE
5
273
100
AcDbEntity
8
0
100
AcDbCircle
10
168.65000000000003
20
130.20000000000002
30
0
40
3.3000000000000007
210
0
220
-0
230
1
0
CIRCLE
5
274
100
AcDbEntity
8
0
100
AcDbCircle
10
131.35000000000002
20
173.80000000000001
30
0
40
3.2999999999999998
210
0
220
-0
230
1
0
LWPOLYLINE
5
275
100
AcDbEntity
8
0
100
AcDbPolyline
90
6
70
1
43
0.0
10
133.1765903768823
20
149.03159652019949
10
129.41430091778255
20
127.69459271066773
42
0.15458156081626848
10
129.73271738957072
20
125.30008763018881
10
136.69046093821194
20
130.95186156241002
10
139.57219433421932
20
147.29498378017198
10
135.87843006883514
20
151.50000000000003
42
0.34028312511265185
0
LWPOLYLINE
5
276
100
AcDbEntity
8
0
100
AcDbPolyline
90
6
70
1
43
0.0
10
166.82340962311773
20
154.96840347980054
42
-0.34028312511265707
10
164.12156993116491
20
152.50000000000003
10
160.42780566578077
20
156.70501621982802
10
163.3095390617882
20
173.04813843759007
10
170.26728261042936
20
178.69991236981122
42
-0.15458156081627469
10
170.5856990822175
20
176.30540728933229
0
LWPOLYLINE
5
277
100
AcDbEntity
8
0
100
AcDbPolyline
90
6
70
1
43
0.0
10
139.9325494310182
20
148.40000000000003
10
158.6703846056875
20
148.40000000000003
10
163.17665988870885
20
152.06044666606994
10
160.06745056898188
20
155.60000000000002
10
141.32961539431258
20
155.60000000000002
10
136.8233401112912
20
151.93955333393012
0
LWPOLYLINE
5
278
100
AcDbEntity
8
0
100
AcDbPolyline
90
6
70
1
43
0.0
10
135.92724534735018
20
152.50000000000003
42
-0.4299175185759328
10
134.19946753442116
20
154.83262114745187
10
137.93923370953598
20
176.0418890660016
42
-0.12799325713695098
10
139.19677660548092
20
178.79016815125354
10
144.13448709492394
20
173.16903176972986
10
141.25275369891656
20
156.82590955196784
0
CIRCLE
5
279
100
AcDbEntity
8
0
100
AcDbCircle
10
420
20
30
30
0
40
7.0000000000000284
210
0
220
-0
230
1
0
CIRCLE
5
280
100
AcDbEntity
8
0
100
AcDbCircle
10
30
20
440
30
0
40
7.0000000000000018
210
0
220
-0
230
1
0
CIRCLE
5
281
100
AcDbEntity
8
0
100
AcDbCircle
10
420
20
850
30
0
40
7.0000000000000284
210
0
220
-0
230
1
0
CIRCLE
5
282
100
AcDbEntity
8
0
100
AcDbCircle
10
420
20
440
30
0
40
7.0000000000000284
210
0
220
-0
230
1
0
CIRCLE
5
283
100
AcDbEntity
8
0
100
AcDbCircle
10
30
20
30
30
0
40
7.0000000000000018
210
0
220
-0
230
1
0
CIRCLE
5
284
100
AcDbEntity
8
0
100
AcDbCircle
10
30
20
850
30
0
40
7.0000000000000018
210
0
220
-0
230
1
0
LWPOLYLINE
5
285
100
AcDbEntity
8
0
100
AcDbPolyline
90
8
70
1
43
0.0
10
-3.9968028886505635e-14
20
860.02493781056046
42
-0.30225227699893964
10
19.975062189439754
20
880
10
430.02493781056046
20
880.00000000000011
42
-0.30225227699893797
10
450
20
860.02493781056046
10
449.99999999999994
20
19.975062189439562
42
-0.30225227699893603
10
430.02493781056035
20
-4.4408920985006262e-15
10
19.975062189439534
20
4.4408920985006262e-15
42
-0.30225227699892265
10
2.6645352591003757e-13
20
19.975062189438262
0
ENDSEC
0
SECTION
2
OBJECTS
0
DICTIONARY
5
C
100
AcDbDictionary
3
ACAD_GROUP
350
D
3
ACAD_MLINESTYLE
350
17
0
DICTIONARY
5
D
100
AcDbDictionary
0
DICTIONARY
5
1A
330
C
100
AcDbDictionary
0
DICTIONARY
5
17
100
AcDbDictionary
0
ENDSEC
0
EOF
