999
"DXF R12 Output" (www.mydxf.blogspot.com)
 0 
SECTION
 2 
HEADER
 9 
$ACADVER
 1 
AC1009
 9 
$EXTMIN
 10 
 0 
 20 
 0 
 9 
$EXTMAX
 10 
 8.5 
 20 
 11 
 0 
ENDSEC
 0 
SECTION
 2 
ENTITIES
0
LINE
8
Layer 1
10
3.000000
20
-3.000000
11
-3.000000
21
3.000000
0
LINE
8
Layer 1
10
0.000000
20
-5.000000
11
0.000000
21
5.000000
0
LINE
8
Layer 1
10
8.000000
20
4.000000
11
4.000000
21
8.000000
0
LINE
8
Layer 1
10
6.000000
20
2.000000
11
2.000000
21
6.000000
0
LINE
8
Layer 1
10
4.000000
20
0.000000
11
0.000000
21
4.000000
0
LINE
8
Layer 1
10
3.000000
20
-3.000000
11
-3.000000
21
3.000000
0
LINE
8
Layer 1
10
0.000000
20
-5.000000
11
0.000000
21
5.000000
0
LINE
8
Layer 1
10
8.000000
20
4.000000
11
4.000000
21
8.000000
0
LINE
8
Layer 1
10
6.000000
20
2.000000
11
2.000000
21
6.000000
0
LINE
8
Layer 1
10
4.000000
20
0.000000
11
0.000000
21
4.000000
0
LINE
8
Layer 1
10
3.000000
20
-3.000000
11
-3.000000
21
3.000000
0
LINE
8
Layer 1
10
0.000000
20
-5.000000
11
0.000000
21
5.000000
0
LINE
8
Layer 1
10
8.000000
20
4.000000
11
4.000000
21
8.000000
0
LINE
8
Layer 1
10
6.000000
20
2.000000
11
2.000000
21
6.000000
0
LINE
8
Layer 1
10
4.000000
20
0.000000
11
0.000000
21
4.000000
0
LINE
8
0
10
1167.120000
20
-223.748000
11
1166.923754
21
-225.227220
0
LINE
8
0
10
1166.923754
20
-225.227220
11
1166.360458
21
-226.582650
0
LINE
8
0
10
1166.360458
20
-226.582650
11
1165.468270
21
-227.748194
0
LINE
8
0
10
1165.468270
20
-227.748194
11
1164.285350
21
-228.657758
0
LINE
8
0
10
1164.285350
20
-228.657758
11
1162.906185
21
-229.227414
0
LINE
8
0
10
1162.906185
20
-229.227414
11
1161.450700
21
-229.417300
0
LINE
8
0
10
1161.450700
20
-229.417300
11
1159.995215
21
-229.227414
0
LINE
8
0
10
1159.995215
20
-229.227414
11
1158.616050
21
-228.657758
0
LINE
8
0
10
1158.616050
20
-228.657758
11
1157.433130
21
-227.748194
0
LINE
8
0
10
1157.433130
20
-227.748194
11
1156.540942
21
-226.582650
0
LINE
8
0
10
1156.540942
20
-226.582650
11
1155.977646
21
-225.227220
0
LINE
8
0
10
1155.977646
20
-225.227220
11
1155.781400
21
-223.748000
0
LINE
8
0
10
1155.781400
20
-223.748000
11
1155.977645
21
-222.268779
0
LINE
8
0
10
1155.977645
20
-222.268779
11
1156.540942
21
-220.913350
0
LINE
8
0
10
1156.540942
20
-220.913350
11
1157.433130
21
-219.747805
0
LINE
8
0
10
1157.433130
20
-219.747805
11
1158.616050
21
-218.838241
0
LINE
8
0
10
1158.616050
20
-218.838241
11
1159.995215
21
-218.268585
0
LINE
8
0
10
1159.995215
20
-218.268585
11
1161.450700
21
-218.078699
0
LINE
8
0
10
1161.450700
20
-218.078699
11
1162.906185
21
-218.268585
0
LINE
8
0
10
1162.906185
20
-218.268585
11
1164.285350
21
-218.838241
0
LINE
8
0
10
1164.285350
20
-218.838241
11
1165.468270
21
-219.747805
0
LINE
8
0
10
1165.468270
20
-219.747805
11
1166.360458
21
-220.913350
0
LINE
8
0
10
1166.360458
20
-220.913350
11
1166.923755
21
-222.268779
0
LINE
8
0
10
1166.923755
20
-222.268779
11
1167.120000
21
-223.748000
0
LINE
8
0
10
1167.120000
20
-223.748000
11
1167.120000
21
-223.748000
0
LINE
8
0
10
545.008000
20
-312.945000
11
544.811749
21
-314.424218
0
LINE
8
0
10
544.811749
20
-314.424218
11
544.248450
21
-315.779645
0
LINE
8
0
10
544.248450
20
-315.779645
11
543.356263
21
-316.945187
0
LINE
8
0
10
543.356263
20
-316.945187
11
542.173345
21
-317.854749
0
LINE
8
0
10
542.173345
20
-317.854749
11
540.794182
21
-318.424405
0
LINE
8
0
10
540.794182
20
-318.424405
11
539.338700
21
-318.614290
0
LINE
8
0
10
539.338700
20
-318.614290
11
537.883218
21
-318.424405
0
LINE
8
0
10
537.883218
20
-318.424405
11
536.504055
21
-317.854749
0
LINE
8
0
10
536.504055
20
-317.854749
11
535.321137
21
-316.945187
0
LINE
8
0
10
535.321137
20
-316.945187
11
534.428951
21
-315.779645
0
LINE
8
0
10
534.428951
20
-315.779645
11
533.865655
21
-314.424218
0
LINE
8
0
10
533.865655
20
-314.424218
11
533.669410
21
-312.945000
0
LINE
8
0
10
533.669410
20
-312.945000
11
533.865658
21
-311.465782
0
LINE
8
0
10
533.865658
20
-311.465782
11
534.428955
21
-310.110355
0
LINE
8
0
10
534.428955
20
-310.110355
11
535.321142
21
-308.944813
0
LINE
8
0
10
535.321142
20
-308.944813
11
536.504060
21
-308.035251
0
LINE
8
0
10
536.504060
20
-308.035251
11
537.883223
21
-307.465595
0
LINE
8
0
10
537.883223
20
-307.465595
11
539.338705
21
-307.275710
0
LINE
8
0
10
539.338705
20
-307.275710
11
540.794187
21
-307.465595
0
LINE
8
0
10
540.794187
20
-307.465595
11
542.173350
21
-308.035251
0
LINE
8
0
10
542.173350
20
-308.035251
11
543.356268
21
-308.944813
0
LINE
8
0
10
543.356268
20
-308.944813
11
544.248454
21
-310.110355
0
LINE
8
0
10
544.248454
20
-310.110355
11
544.811750
21
-311.465782
0
LINE
8
0
10
544.811750
20
-311.465782
11
545.007995
21
-312.945000
0
LINE
8
0
10
545.007995
20
-312.945000
11
545.008000
21
-312.945000
0
LINE
8
0
10
1167.120000
20
-312.945000
11
1166.923754
21
-314.424220
0
LINE
8
0
10
1166.923754
20
-314.424220
11
1166.360458
21
-315.779650
0
LINE
8
0
10
1166.360458
20
-315.779650
11
1165.468270
21
-316.945194
0
LINE
8
0
10
1165.468270
20
-316.945194
11
1164.285350
21
-317.854758
0
LINE
8
0
10
1164.285350
20
-317.854758
11
1162.906185
21
-318.424414
0
LINE
8
0
10
1162.906185
20
-318.424414
11
1161.450700
21
-318.614300
0
LINE
8
0
10
1161.450700
20
-318.614300
11
1159.995215
21
-318.424414
0
LINE
8
0
10
1159.995215
20
-318.424414
11
1158.616050
21
-317.854758
0
LINE
8
0
10
1158.616050
20
-317.854758
11
1157.433130
21
-316.945194
0
LINE
8
0
10
1157.433130
20
-316.945194
11
1156.540942
21
-315.779650
0
LINE
8
0
10
1156.540942
20
-315.779650
11
1155.977646
21
-314.424220
0
LINE
8
0
10
1155.977646
20
-314.424220
11
1155.781400
21
-312.945000
0
LINE
8
0
10
1155.781400
20
-312.945000
11
1155.977645
21
-311.465779
0
LINE
8
0
10
1155.977645
20
-311.465779
11
1156.540942
21
-310.110350
0
LINE
8
0
10
1156.540942
20
-310.110350
11
1157.433130
21
-308.944805
0
LINE
8
0
10
1157.433130
20
-308.944805
11
1158.616050
21
-308.035241
0
LINE
8
0
10
1158.616050
20
-308.035241
11
1159.995215
21
-307.465585
0
LINE
8
0
10
1159.995215
20
-307.465585
11
1161.450700
21
-307.275699
0
LINE
8
0
10
1161.450700
20
-307.275699
11
1162.906185
21
-307.465585
0
LINE
8
0
10
1162.906185
20
-307.465585
11
1164.285350
21
-308.035241
0
LINE
8
0
10
1164.285350
20
-308.035241
11
1165.468270
21
-308.944805
0
LINE
8
0
10
1165.468270
20
-308.944805
11
1166.360458
21
-310.110350
0
LINE
8
0
10
1166.360458
20
-310.110350
11
1166.923755
21
-311.465779
0
LINE
8
0
10
1166.923755
20
-311.465779
11
1167.120000
21
-312.945000
0
LINE
8
0
10
1167.120000
20
-312.945000
11
1167.120000
21
-312.945000
0
LINE
8
0
10
545.008000
20
-223.748000
11
544.811749
21
-225.227218
0
LINE
8
0
10
544.811749
20
-225.227218
11
544.248450
21
-226.582645
0
LINE
8
0
10
544.248450
20
-226.582645
11
543.356263
21
-227.748187
0
LINE
8
0
10
543.356263
20
-227.748187
11
542.173345
21
-228.657749
0
LINE
8
0
10
542.173345
20
-228.657749
11
540.794182
21
-229.227405
0
LINE
8
0
10
540.794182
20
-229.227405
11
539.338700
21
-229.417290
0
LINE
8
0
10
539.338700
20
-229.417290
11
537.883218
21
-229.227405
0
LINE
8
0
10
537.883218
20
-229.227405
11
536.504055
21
-228.657749
0
LINE
8
0
10
536.504055
20
-228.657749
11
535.321137
21
-227.748187
0
LINE
8
0
10
535.321137
20
-227.748187
11
534.428951
21
-226.582645
0
LINE
8
0
10
534.428951
20
-226.582645
11
533.865655
21
-225.227218
0
LINE
8
0
10
533.865655
20
-225.227218
11
533.669410
21
-223.748000
0
LINE
8
0
10
533.669410
20
-223.748000
11
533.865658
21
-222.268782
0
LINE
8
0
10
533.865658
20
-222.268782
11
534.428955
21
-220.913355
0
LINE
8
0
10
534.428955
20
-220.913355
11
535.321142
21
-219.747813
0
LINE
8
0
10
535.321142
20
-219.747813
11
536.504060
21
-218.838251
0
LINE
8
0
10
536.504060
20
-218.838251
11
537.883223
21
-218.268595
0
LINE
8
0
10
537.883223
20
-218.268595
11
539.338705
21
-218.078710
0
LINE
8
0
10
539.338705
20
-218.078710
11
540.794187
21
-218.268595
0
LINE
8
0
10
540.794187
20
-218.268595
11
542.173350
21
-218.838251
0
LINE
8
0
10
542.173350
20
-218.838251
11
543.356268
21
-219.747813
0
LINE
8
0
10
543.356268
20
-219.747813
11
544.248454
21
-220.913355
0
LINE
8
0
10
544.248454
20
-220.913355
11
544.811750
21
-222.268782
0
LINE
8
0
10
544.811750
20
-222.268782
11
545.007995
21
-223.748000
0
LINE
8
0
10
545.007995
20
-223.748000
11
545.008000
21
-223.748000
0
LINE
8
0
10
1126.300000
20
-139.843000
11
1126.172439
21
-140.832144
0
LINE
8
0
10
1126.172439
20
-140.832144
11
1125.798677
21
-141.739123
0
LINE
8
0
10
1125.798677
20
-141.739123
11
1125.204229
21
-142.519469
0
LINE
8
0
10
1125.204229
20
-142.519469
11
1124.414610
21
-143.128715
0
LINE
8
0
10
1124.414610
20
-143.128715
11
1123.493189
21
-143.510370
0
LINE
8
0
10
1123.493189
20
-143.510370
11
1122.520500
21
-143.637589
0
LINE
8
0
10
1122.520500
20
-143.637589
11
1121.547811
21
-143.510370
0
LINE
8
0
10
1121.547811
20
-143.510370
11
1120.626390
21
-143.128715
0
LINE
8
0
10
1120.626390
20
-143.128715
11
1119.836771
21
-142.519469
0
LINE
8
0
10
1119.836771
20
-142.519469
11
1119.242323
21
-141.739123
0
LINE
8
0
10
1119.242323
20
-141.739123
11
1118.868561
21
-140.832144
0
LINE
8
0
10
1118.868561
20
-140.832144
11
1118.741000
21
-139.843000
0
LINE
8
0
10
1118.741000
20
-139.843000
11
1118.868561
21
-138.853856
0
LINE
8
0
10
1118.868561
20
-138.853856
11
1119.242323
21
-137.946877
0
LINE
8
0
10
1119.242323
20
-137.946877
11
1119.836771
21
-137.166531
0
LINE
8
0
10
1119.836771
20
-137.166531
11
1120.626390
21
-136.557285
0
LINE
8
0
10
1120.626390
20
-136.557285
11
1121.547811
21
-136.175630
0
LINE
8
0
10
1121.547811
20
-136.175630
11
1122.520500
21
-136.048411
0
LINE
8
0
10
1122.520500
20
-136.048411
11
1123.493189
21
-136.175630
0
LINE
8
0
10
1123.493189
20
-136.175630
11
1124.414610
21
-136.557285
0
LINE
8
0
10
1124.414610
20
-136.557285
11
1125.204229
21
-137.166531
0
LINE
8
0
10
1125.204229
20
-137.166531
11
1125.798677
21
-137.946877
0
LINE
8
0
10
1125.798677
20
-137.946877
11
1126.172439
21
-138.853856
0
LINE
8
0
10
1126.172439
20
-138.853856
11
1126.300000
21
-139.843000
0
LINE
8
0
10
1126.300000
20
-139.843000
11
1126.300000
21
-139.843000
0
LINE
8
0
10
856.063000
20
-139.843000
11
855.866749
21
-141.322218
0
LINE
8
0
10
855.866749
20
-141.322218
11
855.303450
21
-142.677645
0
LINE
8
0
10
855.303450
20
-142.677645
11
854.411263
21
-143.843187
0
LINE
8
0
10
854.411263
20
-143.843187
11
853.228345
21
-144.752749
0
LINE
8
0
10
853.228345
20
-144.752749
11
851.849182
21
-145.322405
0
LINE
8
0
10
851.849182
20
-145.322405
11
850.393700
21
-145.512290
0
LINE
8
0
10
850.393700
20
-145.512290
11
848.938218
21
-145.322405
0
LINE
8
0
10
848.938218
20
-145.322405
11
847.559055
21
-144.752749
0
LINE
8
0
10
847.559055
20
-144.752749
11
846.376137
21
-143.843187
0
LINE
8
0
10
846.376137
20
-143.843187
11
845.483951
21
-142.677645
0
LINE
8
0
10
845.483951
20
-142.677645
11
844.920655
21
-141.322218
0
LINE
8
0
10
844.920655
20
-141.322218
11
844.724410
21
-139.843000
0
LINE
8
0
10
844.724410
20
-139.843000
11
844.920658
21
-138.363782
0
LINE
8
0
10
844.920658
20
-138.363782
11
845.483955
21
-137.008355
0
LINE
8
0
10
845.483955
20
-137.008355
11
846.376142
21
-135.842813
0
LINE
8
0
10
846.376142
20
-135.842813
11
847.559060
21
-134.933251
0
LINE
8
0
10
847.559060
20
-134.933251
11
848.938223
21
-134.363595
0
LINE
8
0
10
848.938223
20
-134.363595
11
850.393705
21
-134.173710
0
LINE
8
0
10
850.393705
20
-134.173710
11
851.849187
21
-134.363595
0
LINE
8
0
10
851.849187
20
-134.363595
11
853.228350
21
-134.933251
0
LINE
8
0
10
853.228350
20
-134.933251
11
854.411268
21
-135.842813
0
LINE
8
0
10
854.411268
20
-135.842813
11
855.303454
21
-137.008355
0
LINE
8
0
10
855.303454
20
-137.008355
11
855.866750
21
-138.363782
0
LINE
8
0
10
855.866750
20
-138.363782
11
856.062995
21
-139.843000
0
LINE
8
0
10
856.062995
20
-139.843000
11
856.063000
21
-139.843000
0
LINE
8
0
10
582.047000
20
-396.850000
11
581.917502
21
-397.837371
0
LINE
8
0
10
581.917502
20
-397.837371
11
581.542691
21
-398.742362
0
LINE
8
0
10
581.542691
20
-398.742362
11
580.948038
21
-399.520745
0
LINE
8
0
10
580.948038
20
-399.520745
11
580.159014
21
-400.128292
0
LINE
8
0
10
580.159014
20
-400.128292
11
579.238764
21
-400.508831
0
LINE
8
0
10
579.238764
20
-400.508831
11
578.267475
21
-400.635678
0
LINE
8
0
10
578.267475
20
-400.635678
11
577.296186
21
-400.508831
0
LINE
8
0
10
577.296186
20
-400.508831
11
576.375936
21
-400.128292
0
LINE
8
0
10
576.375936
20
-400.128292
11
575.586912
21
-399.520745
0
LINE
8
0
10
575.586912
20
-399.520745
11
574.992259
21
-398.742362
0
LINE
8
0
10
574.992259
20
-398.742362
11
574.617448
21
-397.837371
0
LINE
8
0
10
574.617448
20
-397.837371
11
574.487950
21
-396.850000
0
LINE
8
0
10
574.487950
20
-396.850000
11
574.617448
21
-395.862629
0
LINE
8
0
10
574.617448
20
-395.862629
11
574.992259
21
-394.957638
0
LINE
8
0
10
574.992259
20
-394.957638
11
575.586912
21
-394.179255
0
LINE
8
0
10
575.586912
20
-394.179255
11
576.375936
21
-393.571708
0
LINE
8
0
10
576.375936
20
-393.571708
11
577.296186
21
-393.191169
0
LINE
8
0
10
577.296186
20
-393.191169
11
578.267475
21
-393.064322
0
LINE
8
0
10
578.267475
20
-393.064322
11
579.238764
21
-393.191169
0
LINE
8
0
10
579.238764
20
-393.191169
11
580.159014
21
-393.571708
0
LINE
8
0
10
580.159014
20
-393.571708
11
580.948038
21
-394.179255
0
LINE
8
0
10
580.948038
20
-394.179255
11
581.542691
21
-394.957638
0
LINE
8
0
10
581.542691
20
-394.957638
11
581.917502
21
-395.862629
0
LINE
8
0
10
581.917502
20
-395.862629
11
582.047000
21
-396.850000
0
LINE
8
0
10
582.047000
20
-396.850000
11
582.047000
21
-396.850000
0
LINE
8
0
10
582.047000
20
-139.843000
11
581.917502
21
-140.830371
0
LINE
8
0
10
581.917502
20
-140.830371
11
581.542691
21
-141.735362
0
LINE
8
0
10
581.542691
20
-141.735362
11
580.948038
21
-142.513745
0
LINE
8
0
10
580.948038
20
-142.513745
11
580.159014
21
-143.121292
0
LINE
8
0
10
580.159014
20
-143.121292
11
579.238764
21
-143.501831
0
LINE
8
0
10
579.238764
20
-143.501831
11
578.267475
21
-143.628678
0
LINE
8
0
10
578.267475
20
-143.628678
11
577.296186
21
-143.501831
0
LINE
8
0
10
577.296186
20
-143.501831
11
576.375936
21
-143.121292
0
LINE
8
0
10
576.375936
20
-143.121292
11
575.586912
21
-142.513745
0
LINE
8
0
10
575.586912
20
-142.513745
11
574.992259
21
-141.735362
0
LINE
8
0
10
574.992259
20
-141.735362
11
574.617448
21
-140.830371
0
LINE
8
0
10
574.617448
20
-140.830371
11
574.487950
21
-139.843000
0
LINE
8
0
10
574.487950
20
-139.843000
11
574.617448
21
-138.855629
0
LINE
8
0
10
574.617448
20
-138.855629
11
574.992259
21
-137.950638
0
LINE
8
0
10
574.992259
20
-137.950638
11
575.586912
21
-137.172255
0
LINE
8
0
10
575.586912
20
-137.172255
11
576.375936
21
-136.564708
0
LINE
8
0
10
576.375936
20
-136.564708
11
577.296186
21
-136.184169
0
LINE
8
0
10
577.296186
20
-136.184169
11
578.267475
21
-136.057322
0
LINE
8
0
10
578.267475
20
-136.057322
11
579.238764
21
-136.184169
0
LINE
8
0
10
579.238764
20
-136.184169
11
580.159014
21
-136.564708
0
LINE
8
0
10
580.159014
20
-136.564708
11
580.948038
21
-137.172255
0
LINE
8
0
10
580.948038
20
-137.172255
11
581.542691
21
-137.950638
0
LINE
8
0
10
581.542691
20
-137.950638
11
581.917502
21
-138.855629
0
LINE
8
0
10
581.917502
20
-138.855629
11
582.047000
21
-139.843000
0
LINE
8
0
10
582.047000
20
-139.843000
11
582.047000
21
-139.843000
0
LINE
8
0
10
856.063000
20
-396.850000
11
855.866749
21
-398.329218
0
LINE
8
0
10
855.866749
20
-398.329218
11
855.303450
21
-399.684645
0
LINE
8
0
10
855.303450
20
-399.684645
11
854.411263
21
-400.850187
0
LINE
8
0
10
854.411263
20
-400.850187
11
853.228345
21
-401.759749
0
LINE
8
0
10
853.228345
20
-401.759749
11
851.849182
21
-402.329405
0
LINE
8
0
10
851.849182
20
-402.329405
11
850.393700
21
-402.519290
0
LINE
8
0
10
850.393700
20
-402.519290
11
848.938218
21
-402.329405
0
LINE
8
0
10
848.938218
20
-402.329405
11
847.559055
21
-401.759749
0
LINE
8
0
10
847.559055
20
-401.759749
11
846.376137
21
-400.850187
0
LINE
8
0
10
846.376137
20
-400.850187
11
845.483951
21
-399.684645
0
LINE
8
0
10
845.483951
20
-399.684645
11
844.920655
21
-398.329218
0
LINE
8
0
10
844.920655
20
-398.329218
11
844.724410
21
-396.850000
0
LINE
8
0
10
844.724410
20
-396.850000
11
844.920658
21
-395.370782
0
LINE
8
0
10
844.920658
20
-395.370782
11
845.483955
21
-394.015355
0
LINE
8
0
10
845.483955
20
-394.015355
11
846.376142
21
-392.849813
0
LINE
8
0
10
846.376142
20
-392.849813
11
847.559060
21
-391.940251
0
LINE
8
0
10
847.559060
20
-391.940251
11
848.938223
21
-391.370595
0
LINE
8
0
10
848.938223
20
-391.370595
11
850.393705
21
-391.180710
0
LINE
8
0
10
850.393705
20
-391.180710
11
851.849187
21
-391.370595
0
LINE
8
0
10
851.849187
20
-391.370595
11
853.228350
21
-391.940251
0
LINE
8
0
10
853.228350
20
-391.940251
11
854.411268
21
-392.849813
0
LINE
8
0
10
854.411268
20
-392.849813
11
855.303454
21
-394.015355
0
LINE
8
0
10
855.303454
20
-394.015355
11
855.866750
21
-395.370782
0
LINE
8
0
10
855.866750
20
-395.370782
11
856.062995
21
-396.850000
0
LINE
8
0
10
856.062995
20
-396.850000
11
856.063000
21
-396.850000
0
LINE
8
0
10
1126.300000
20
-396.850000
11
1126.172439
21
-397.839144
0
LINE
8
0
10
1126.172439
20
-397.839144
11
1125.798677
21
-398.746123
0
LINE
8
0
10
1125.798677
20
-398.746123
11
1125.204229
21
-399.526469
0
LINE
8
0
10
1125.204229
20
-399.526469
11
1124.414610
21
-400.135715
0
LINE
8
0
10
1124.414610
20
-400.135715
11
1123.493189
21
-400.517370
0
LINE
8
0
10
1123.493189
20
-400.517370
11
1122.520500
21
-400.644589
0
LINE
8
0
10
1122.520500
20
-400.644589
11
1121.547811
21
-400.517370
0
LINE
8
0
10
1121.547811
20
-400.517370
11
1120.626390
21
-400.135715
0
LINE
8
0
10
1120.626390
20
-400.135715
11
1119.836771
21
-399.526469
0
LINE
8
0
10
1119.836771
20
-399.526469
11
1119.242323
21
-398.746123
0
LINE
8
0
10
1119.242323
20
-398.746123
11
1118.868561
21
-397.839144
0
LINE
8
0
10
1118.868561
20
-397.839144
11
1118.741000
21
-396.850000
0
LINE
8
0
10
1118.741000
20
-396.850000
11
1118.868561
21
-395.860856
0
LINE
8
0
10
1118.868561
20
-395.860856
11
1119.242323
21
-394.953877
0
LINE
8
0
10
1119.242323
20
-394.953877
11
1119.836771
21
-394.173531
0
LINE
8
0
10
1119.836771
20
-394.173531
11
1120.626390
21
-393.564285
0
LINE
8
0
10
1120.626390
20
-393.564285
11
1121.547811
21
-393.182630
0
LINE
8
0
10
1121.547811
20
-393.182630
11
1122.520500
21
-393.055411
0
LINE
8
0
10
1122.520500
20
-393.055411
11
1123.493189
21
-393.182630
0
LINE
8
0
10
1123.493189
20
-393.182630
11
1124.414610
21
-393.564285
0
LINE
8
0
10
1124.414610
20
-393.564285
11
1125.204229
21
-394.173531
0
LINE
8
0
10
1125.204229
20
-394.173531
11
1125.798677
21
-394.953877
0
LINE
8
0
10
1125.798677
20
-394.953877
11
1126.172439
21
-395.860856
0
LINE
8
0
10
1126.172439
20
-395.860856
11
1126.300000
21
-396.850000
0
LINE
8
0
10
1126.300000
20
-396.850000
11
1126.300000
21
-396.850000
0
LINE
8
0
10
542.362000
20
-139.843000
11
542.165749
21
-141.322218
0
LINE
8
0
10
542.165749
20
-141.322218
11
541.602450
21
-142.677645
0
LINE
8
0
10
541.602450
20
-142.677645
11
540.710263
21
-143.843187
0
LINE
8
0
10
540.710263
20
-143.843187
11
539.527345
21
-144.752749
0
LINE
8
0
10
539.527345
20
-144.752749
11
538.148182
21
-145.322405
0
LINE
8
0
10
538.148182
20
-145.322405
11
536.692700
21
-145.512290
0
LINE
8
0
10
536.692700
20
-145.512290
11
535.237218
21
-145.322405
0
LINE
8
0
10
535.237218
20
-145.322405
11
533.858055
21
-144.752749
0
LINE
8
0
10
533.858055
20
-144.752749
11
532.675137
21
-143.843187
0
LINE
8
0
10
532.675137
20
-143.843187
11
531.782951
21
-142.677645
0
LINE
8
0
10
531.782951
20
-142.677645
11
531.219655
21
-141.322218
0
LINE
8
0
10
531.219655
20
-141.322218
11
531.023410
21
-139.843000
0
LINE
8
0
10
531.023410
20
-139.843000
11
531.219658
21
-138.363782
0
LINE
8
0
10
531.219658
20
-138.363782
11
531.782955
21
-137.008355
0
LINE
8
0
10
531.782955
20
-137.008355
11
532.675142
21
-135.842813
0
LINE
8
0
10
532.675142
20
-135.842813
11
533.858060
21
-134.933251
0
LINE
8
0
10
533.858060
20
-134.933251
11
535.237223
21
-134.363595
0
LINE
8
0
10
535.237223
20
-134.363595
11
536.692705
21
-134.173710
0
LINE
8
0
10
536.692705
20
-134.173710
11
538.148187
21
-134.363595
0
LINE
8
0
10
538.148187
20
-134.363595
11
539.527350
21
-134.933251
0
LINE
8
0
10
539.527350
20
-134.933251
11
540.710268
21
-135.842813
0
LINE
8
0
10
540.710268
20
-135.842813
11
541.602454
21
-137.008355
0
LINE
8
0
10
541.602454
20
-137.008355
11
542.165750
21
-138.363782
0
LINE
8
0
10
542.165750
20
-138.363782
11
542.361995
21
-139.843000
0
LINE
8
0
10
542.361995
20
-139.843000
11
542.362000
21
-139.843000
0
LINE
8
0
10
1169.760000
20
-139.843000
11
1169.563754
21
-141.322220
0
LINE
8
0
10
1169.563754
20
-141.322220
11
1169.000458
21
-142.677650
0
LINE
8
0
10
1169.000458
20
-142.677650
11
1168.108270
21
-143.843194
0
LINE
8
0
10
1168.108270
20
-143.843194
11
1166.925350
21
-144.752758
0
LINE
8
0
10
1166.925350
20
-144.752758
11
1165.546185
21
-145.322414
0
LINE
8
0
10
1165.546185
20
-145.322414
11
1164.090700
21
-145.512300
0
LINE
8
0
10
1164.090700
20
-145.512300
11
1162.635215
21
-145.322414
0
LINE
8
0
10
1162.635215
20
-145.322414
11
1161.256050
21
-144.752758
0
LINE
8
0
10
1161.256050
20
-144.752758
11
1160.073130
21
-143.843194
0
LINE
8
0
10
1160.073130
20
-143.843194
11
1159.180942
21
-142.677650
0
LINE
8
0
10
1159.180942
20
-142.677650
11
1158.617646
21
-141.322220
0
LINE
8
0
10
1158.617646
20
-141.322220
11
1158.421400
21
-139.843000
0
LINE
8
0
10
1158.421400
20
-139.843000
11
1158.617646
21
-138.363780
0
LINE
8
0
10
1158.617646
20
-138.363780
11
1159.180942
21
-137.008350
0
LINE
8
0
10
1159.180942
20
-137.008350
11
1160.073130
21
-135.842806
0
LINE
8
0
10
1160.073130
20
-135.842806
11
1161.256050
21
-134.933242
0
LINE
8
0
10
1161.256050
20
-134.933242
11
1162.635215
21
-134.363586
0
LINE
8
0
10
1162.635215
20
-134.363586
11
1164.090700
21
-134.173700
0
LINE
8
0
10
1164.090700
20
-134.173700
11
1165.546185
21
-134.363586
0
LINE
8
0
10
1165.546185
20
-134.363586
11
1166.925350
21
-134.933242
0
LINE
8
0
10
1166.925350
20
-134.933242
11
1168.108270
21
-135.842806
0
LINE
8
0
10
1168.108270
20
-135.842806
11
1169.000458
21
-137.008350
0
LINE
8
0
10
1169.000458
20
-137.008350
11
1169.563754
21
-138.363780
0
LINE
8
0
10
1169.563754
20
-138.363780
11
1169.760000
21
-139.843000
0
LINE
8
0
10
1169.760000
20
-139.843000
11
1169.760000
21
-139.843000
0
LINE
8
0
10
542.362000
20
-396.850000
11
542.165749
21
-398.329218
0
LINE
8
0
10
542.165749
20
-398.329218
11
541.602450
21
-399.684645
0
LINE
8
0
10
541.602450
20
-399.684645
11
540.710263
21
-400.850187
0
LINE
8
0
10
540.710263
20
-400.850187
11
539.527345
21
-401.759749
0
LINE
8
0
10
539.527345
20
-401.759749
11
538.148182
21
-402.329405
0
LINE
8
0
10
538.148182
20
-402.329405
11
536.692700
21
-402.519290
0
LINE
8
0
10
536.692700
20
-402.519290
11
535.237218
21
-402.329405
0
LINE
8
0
10
535.237218
20
-402.329405
11
533.858055
21
-401.759749
0
LINE
8
0
10
533.858055
20
-401.759749
11
532.675137
21
-400.850187
0
LINE
8
0
10
532.675137
20
-400.850187
11
531.782951
21
-399.684645
0
LINE
8
0
10
531.782951
20
-399.684645
11
531.219655
21
-398.329218
0
LINE
8
0
10
531.219655
20
-398.329218
11
531.023410
21
-396.850000
0
LINE
8
0
10
531.023410
20
-396.850000
11
531.219658
21
-395.370782
0
LINE
8
0
10
531.219658
20
-395.370782
11
531.782955
21
-394.015355
0
LINE
8
0
10
531.782955
20
-394.015355
11
532.675142
21
-392.849813
0
LINE
8
0
10
532.675142
20
-392.849813
11
533.858060
21
-391.940251
0
LINE
8
0
10
533.858060
20
-391.940251
11
535.237223
21
-391.370595
0
LINE
8
0
10
535.237223
20
-391.370595
11
536.692705
21
-391.180710
0
LINE
8
0
10
536.692705
20
-391.180710
11
538.148187
21
-391.370595
0
LINE
8
0
10
538.148187
20
-391.370595
11
539.527350
21
-391.940251
0
LINE
8
0
10
539.527350
20
-391.940251
11
540.710268
21
-392.849813
0
LINE
8
0
10
540.710268
20
-392.849813
11
541.602454
21
-394.015355
0
LINE
8
0
10
541.602454
20
-394.015355
11
542.165750
21
-395.370782
0
LINE
8
0
10
542.165750
20
-395.370782
11
542.361995
21
-396.850000
0
LINE
8
0
10
542.361995
20
-396.850000
11
542.362000
21
-396.850000
0
LINE
8
0
10
1169.760000
20
-396.850000
11
1169.563754
21
-398.329220
0
LINE
8
0
10
1169.563754
20
-398.329220
11
1169.000458
21
-399.684650
0
LINE
8
0
10
1169.000458
20
-399.684650
11
1168.108270
21
-400.850194
0
LINE
8
0
10
1168.108270
20
-400.850194
11
1166.925350
21
-401.759758
0
LINE
8
0
10
1166.925350
20
-401.759758
11
1165.546185
21
-402.329414
0
LINE
8
0
10
1165.546185
20
-402.329414
11
1164.090700
21
-402.519300
0
LINE
8
0
10
1164.090700
20
-402.519300
11
1162.635215
21
-402.329414
0
LINE
8
0
10
1162.635215
20
-402.329414
11
1161.256050
21
-401.759758
0
LINE
8
0
10
1161.256050
20
-401.759758
11
1160.073130
21
-400.850194
0
LINE
8
0
10
1160.073130
20
-400.850194
11
1159.180942
21
-399.684650
0
LINE
8
0
10
1159.180942
20
-399.684650
11
1158.617646
21
-398.329220
0
LINE
8
0
10
1158.617646
20
-398.329220
11
1158.421400
21
-396.850000
0
LINE
8
0
10
1158.421400
20
-396.850000
11
1158.617646
21
-395.370780
0
LINE
8
0
10
1158.617646
20
-395.370780
11
1159.180942
21
-394.015350
0
LINE
8
0
10
1159.180942
20
-394.015350
11
1160.073130
21
-392.849806
0
LINE
8
0
10
1160.073130
20
-392.849806
11
1161.256050
21
-391.940242
0
LINE
8
0
10
1161.256050
20
-391.940242
11
1162.635215
21
-391.370586
0
LINE
8
0
10
1162.635215
20
-391.370586
11
1164.090700
21
-391.180700
0
LINE
8
0
10
1164.090700
20
-391.180700
11
1165.546185
21
-391.370586
0
LINE
8
0
10
1165.546185
20
-391.370586
11
1166.925350
21
-391.940242
0
LINE
8
0
10
1166.925350
20
-391.940242
11
1168.108270
21
-392.849806
0
LINE
8
0
10
1168.108270
20
-392.849806
11
1169.000458
21
-394.015350
0
LINE
8
0
10
1169.000458
20
-394.015350
11
1169.563754
21
-395.370780
0
LINE
8
0
10
1169.563754
20
-395.370780
11
1169.760000
21
-396.850000
0
LINE
8
0
10
1169.760000
20
-396.850000
11
1169.760000
21
-396.850000
0
LINE
8
0
10
540.472000
20
-120.945000
11
538.230637
21
-121.055967
0
LINE
8
0
10
538.230637
20
-121.055967
11
536.027238
21
-121.384762
0
LINE
8
0
10
536.027238
20
-121.384762
11
533.876673
21
-121.925226
0
LINE
8
0
10
533.876673
20
-121.925226
11
531.793811
21
-122.671199
0
LINE
8
0
10
531.793811
20
-122.671199
11
529.793523
21
-123.616522
0
LINE
8
0
10
529.793523
20
-123.616522
11
527.890678
21
-124.755036
0
LINE
8
0
10
527.890678
20
-124.755036
11
526.100146
21
-126.080581
0
LINE
8
0
10
526.100146
20
-126.080581
11
524.436798
21
-127.586998
0
LINE
8
0
10
524.436798
20
-127.586998
11
522.930381
21
-129.250346
0
LINE
8
0
10
522.930381
20
-129.250346
11
521.604836
21
-131.040878
0
LINE
8
0
10
521.604836
20
-131.040878
11
520.466322
21
-132.943723
0
LINE
8
0
10
520.466322
20
-132.943723
11
519.520999
21
-134.944011
0
LINE
8
0
10
519.520999
20
-134.944011
11
518.775026
21
-137.026873
0
LINE
8
0
10
518.775026
20
-137.026873
11
518.234562
21
-139.177438
0
LINE
8
0
10
518.234562
20
-139.177438
11
517.905767
21
-141.380837
0
LINE
8
0
10
517.905767
20
-141.380837
11
517.794800
21
-143.622200
0
LINE
8
0
10
517.794800
20
-143.622200
11
517.794800
21
-393.071200
0
LINE
8
0
10
517.794800
20
-393.071200
11
517.905767
21
-395.312563
0
LINE
8
0
10
517.905767
20
-395.312563
11
518.234562
21
-397.515962
0
LINE
8
0
10
518.234562
20
-397.515962
11
518.775026
21
-399.666527
0
LINE
8
0
10
518.775026
20
-399.666527
11
519.520999
21
-401.749389
0
LINE
8
0
10
519.520999
20
-401.749389
11
520.466322
21
-403.749677
0
LINE
8
0
10
520.466322
20
-403.749677
11
521.604836
21
-405.652522
0
LINE
8
0
10
521.604836
20
-405.652522
11
522.930381
21
-407.443054
0
LINE
8
0
10
522.930381
20
-407.443054
11
524.436798
21
-409.106402
0
LINE
8
0
10
524.436798
20
-409.106402
11
526.100146
21
-410.612819
0
LINE
8
0
10
526.100146
20
-410.612819
11
527.890678
21
-411.938364
0
LINE
8
0
10
527.890678
20
-411.938364
11
529.793523
21
-413.076878
0
LINE
8
0
10
529.793523
20
-413.076878
11
531.793811
21
-414.022201
0
LINE
8
0
10
531.793811
20
-414.022201
11
533.876673
21
-414.768174
0
LINE
8
0
10
533.876673
20
-414.768174
11
536.027238
21
-415.308638
0
LINE
8
0
10
536.027238
20
-415.308638
11
538.230637
21
-415.637433
0
LINE
8
0
10
538.230637
20
-415.637433
11
540.472000
21
-415.748400
0
LINE
8
0
10
540.472000
20
-415.748400
11
1160.320000
21
-415.748400
0
LINE
8
0
10
1160.320000
20
-415.748400
11
1162.638604
21
-415.631311
0
LINE
8
0
10
1162.638604
20
-415.631311
11
1164.890231
21
-415.287662
0
LINE
8
0
10
1164.890231
20
-415.287662
11
1167.063482
21
-414.728854
0
LINE
8
0
10
1167.063482
20
-414.728854
11
1169.146958
21
-413.966284
0
LINE
8
0
10
1169.146958
20
-413.966284
11
1171.129260
21
-413.011352
0
LINE
8
0
10
1171.129260
20
-413.011352
11
1172.998989
21
-411.875456
0
LINE
8
0
10
1172.998989
20
-411.875456
11
1174.744748
21
-410.569994
0
LINE
8
0
10
1174.744748
20
-410.569994
11
1176.355137
21
-409.106367
0
LINE
8
0
10
1176.355137
20
-409.106367
11
1177.818758
21
-407.495971
0
LINE
8
0
10
1177.818758
20
-407.495971
11
1179.124212
21
-405.750206
0
LINE
8
0
10
1179.124212
20
-405.750206
11
1180.260100
21
-403.880472
0
LINE
8
0
10
1180.260100
20
-403.880472
11
1181.215023
21
-401.898165
0
LINE
8
0
10
1181.215023
20
-401.898165
11
1181.977584
21
-399.814686
0
LINE
8
0
10
1181.977584
20
-399.814686
11
1182.536383
21
-397.641433
0
LINE
8
0
10
1182.536383
20
-397.641433
11
1182.880021
21
-395.389805
0
LINE
8
0
10
1182.880021
20
-395.389805
11
1182.997100
21
-393.071200
0
LINE
8
0
10
1182.997100
20
-393.071200
11
1182.997100
21
-143.622200
0
LINE
8
0
10
1182.997100
20
-143.622200
11
1182.880021
21
-141.303595
0
LINE
8
0
10
1182.880021
20
-141.303595
11
1182.536383
21
-139.051967
0
LINE
8
0
10
1182.536383
20
-139.051967
11
1181.977584
21
-136.878714
0
LINE
8
0
10
1181.977584
20
-136.878714
11
1181.215023
21
-134.795235
0
LINE
8
0
10
1181.215023
20
-134.795235
11
1180.260100
21
-132.812928
0
LINE
8
0
10
1180.260100
20
-132.812928
11
1179.124212
21
-130.943194
0
LINE
8
0
10
1179.124212
20
-130.943194
11
1177.818758
21
-129.197429
0
LINE
8
0
10
1177.818758
20
-129.197429
11
1176.355137
21
-127.587033
0
LINE
8
0
10
1176.355137
20
-127.587033
11
1174.744748
21
-126.123406
0
LINE
8
0
10
1174.744748
20
-126.123406
11
1172.998989
21
-124.817944
0
LINE
8
0
10
1172.998989
20
-124.817944
11
1171.129260
21
-123.682048
0
LINE
8
0
10
1171.129260
20
-123.682048
11
1169.146958
21
-122.727116
0
LINE
8
0
10
1169.146958
20
-122.727116
11
1167.063482
21
-121.964546
0
LINE
8
0
10
1167.063482
20
-121.964546
11
1164.890231
21
-121.405738
0
LINE
8
0
10
1164.890231
20
-121.405738
11
1162.638604
21
-121.062089
0
LINE
8
0
10
1162.638604
20
-121.062089
11
1160.320000
21
-120.945000
0
LINE
8
0
10
1160.320000
20
-120.945000
11
540.472000
21
-120.945000
0
LINE
8
0
10
722.457000
20
-274.170000
11
722.457000
21
-257.386000
0
LINE
8
0
10
722.457000
20
-257.386000
11
722.587830
21
-256.399854
0
LINE
8
0
10
722.587830
20
-256.399854
11
722.963361
21
-255.496235
0
LINE
8
0
10
722.963361
20
-255.496235
11
723.558153
21
-254.719206
0
LINE
8
0
10
723.558153
20
-254.719206
11
724.346765
21
-254.112831
0
LINE
8
0
10
724.346765
20
-254.112831
11
725.266208
21
-253.733060
0
LINE
8
0
10
725.266208
20
-253.733060
11
726.236530
21
-253.606470
0
LINE
8
0
10
726.236530
20
-253.606470
11
727.206852
21
-253.733060
0
LINE
8
0
10
727.206852
20
-253.733060
11
728.126295
21
-254.112831
0
LINE
8
0
10
728.126295
20
-254.112831
11
728.914907
21
-254.719206
0
LINE
8
0
10
728.914907
20
-254.719206
11
729.509699
21
-255.496235
0
LINE
8
0
10
729.509699
20
-255.496235
11
729.885230
21
-256.399854
0
LINE
8
0
10
729.885230
20
-256.399854
11
730.016060
21
-257.386000
0
LINE
8
0
10
730.016060
20
-257.386000
11
730.016060
21
-279.307300
0
LINE
8
0
10
730.016060
20
-279.307300
11
729.926400
21
-280.125780
0
LINE
8
0
10
729.926400
20
-280.125780
11
729.665549
21
-280.896848
0
LINE
8
0
10
729.665549
20
-280.896848
11
729.245696
21
-281.594211
0
LINE
8
0
10
729.245696
20
-281.594211
11
728.679031
21
-282.191570
0
LINE
8
0
10
728.679031
20
-282.191570
11
727.996483
21
-282.652087
0
LINE
8
0
10
727.996483
20
-282.652087
11
727.239483
21
-282.951323
0
LINE
8
0
10
727.239483
20
-282.951323
11
726.435977
21
-283.081588
0
LINE
8
0
10
726.435977
20
-283.081588
11
725.613910
21
-283.035190
0
LINE
8
0
10
725.613910
20
-283.035190
11
739.221810
21
-360.209590
0
LINE
8
0
10
739.221810
20
-360.209590
11
739.448258
21
-362.521603
0
LINE
8
0
10
739.448258
20
-362.521603
11
739.319570
21
-364.827656
0
LINE
8
0
10
739.319570
20
-364.827656
11
738.841136
21
-367.087201
0
LINE
8
0
10
738.841136
20
-367.087201
11
738.018350
21
-369.259690
0
LINE
8
0
10
738.018350
20
-369.259690
11
711.721350
21
-347.898690
0
LINE
8
0
10
711.721350
20
-347.898690
11
700.829750
21
-286.129390
0
LINE
8
0
10
700.829750
20
-286.129390
11
714.790450
21
-270.236390
0
LINE
8
0
10
714.790450
20
-270.236390
11
716.970241
21
-270.637939
0
LINE
8
0
10
716.970241
20
-270.637939
11
719.011926
21
-271.446547
0
LINE
8
0
10
719.011926
20
-271.446547
11
720.859498
21
-272.633476
0
LINE
8
0
10
720.859498
20
-272.633476
11
722.456950
21
-274.169990
0
LINE
8
0
10
722.456950
20
-274.169990
11
722.457000
21
-274.170000
0
LINE
8
0
10
600.378000
20
-262.523000
11
600.378000
21
-279.307000
0
LINE
8
0
10
600.378000
20
-279.307000
11
600.300141
21
-280.067753
0
LINE
8
0
10
600.300141
20
-280.067753
11
600.079218
21
-280.776189
0
LINE
8
0
10
600.079218
20
-280.776189
11
599.268832
21
-281.975556
0
LINE
8
0
10
599.268832
20
-281.975556
11
598.068148
21
-282.783991
0
LINE
8
0
10
598.068148
20
-282.783991
11
597.359354
21
-283.003761
0
LINE
8
0
10
597.359354
20
-283.003761
11
596.598475
21
-283.080382
0
LINE
8
0
10
596.598475
20
-283.080382
11
595.837596
21
-283.003761
0
LINE
8
0
10
595.837596
20
-283.003761
11
595.128802
21
-282.783991
0
LINE
8
0
10
595.128802
20
-282.783991
11
593.928118
21
-281.975556
0
LINE
8
0
10
593.928118
20
-281.975556
11
593.117732
21
-280.776189
0
LINE
8
0
10
593.117732
20
-280.776189
11
592.896809
21
-280.067753
0
LINE
8
0
10
592.896809
20
-280.067753
11
592.818950
21
-279.307000
0
LINE
8
0
10
592.818950
20
-279.307000
11
592.818950
21
-257.385700
0
LINE
8
0
10
592.818950
20
-257.385700
11
592.908608
21
-256.567220
0
LINE
8
0
10
592.908608
20
-256.567220
11
593.169457
21
-255.796151
0
LINE
8
0
10
593.169457
20
-255.796151
11
593.589309
21
-255.098788
0
LINE
8
0
10
593.589309
20
-255.098788
11
594.155972
21
-254.501427
0
LINE
8
0
10
594.155972
20
-254.501427
11
594.838519
21
-254.040909
0
LINE
8
0
10
594.838519
20
-254.040909
11
595.595517
21
-253.741671
0
LINE
8
0
10
595.595517
20
-253.741671
11
596.399023
21
-253.611404
0
LINE
8
0
10
596.399023
20
-253.611404
11
597.221090
21
-253.657800
0
LINE
8
0
10
597.221090
20
-253.657800
11
583.613190
21
-176.483400
0
LINE
8
0
10
583.613190
20
-176.483400
11
583.386742
21
-174.171387
0
LINE
8
0
10
583.386742
20
-174.171387
11
583.515430
21
-171.865334
0
LINE
8
0
10
583.515430
20
-171.865334
11
583.993864
21
-169.605789
0
LINE
8
0
10
583.993864
20
-169.605789
11
584.816650
21
-167.433300
0
LINE
8
0
10
584.816650
20
-167.433300
11
611.113650
21
-188.794300
0
LINE
8
0
10
611.113650
20
-188.794300
11
622.005250
21
-250.563600
0
LINE
8
0
10
622.005250
20
-250.563600
11
608.044550
21
-266.456600
0
LINE
8
0
10
608.044550
20
-266.456600
11
605.864757
21
-266.055052
0
LINE
8
0
10
605.864757
20
-266.055052
11
603.823069
21
-265.246445
0
LINE
8
0
10
603.823069
20
-265.246445
11
601.975494
21
-264.059515
0
LINE
8
0
10
601.975494
20
-264.059515
11
600.378040
21
-262.523000
0
LINE
8
0
10
600.378040
20
-262.523000
11
600.378000
21
-262.523000
0
LINE
8
0
10
911.433000
20
-274.170000
11
911.433000
21
-257.386000
0
LINE
8
0
10
911.433000
20
-257.386000
11
911.563830
21
-256.399854
0
LINE
8
0
10
911.563830
20
-256.399854
11
911.939361
21
-255.496235
0
LINE
8
0
10
911.939361
20
-255.496235
11
912.534153
21
-254.719206
0
LINE
8
0
10
912.534153
20
-254.719206
11
913.322765
21
-254.112831
0
LINE
8
0
10
913.322765
20
-254.112831
11
914.242208
21
-253.733060
0
LINE
8
0
10
914.242208
20
-253.733060
11
915.212530
21
-253.606470
0
LINE
8
0
10
915.212530
20
-253.606470
11
916.182852
21
-253.733060
0
LINE
8
0
10
916.182852
20
-253.733060
11
917.102295
21
-254.112831
0
LINE
8
0
10
917.102295
20
-254.112831
11
917.890907
21
-254.719206
0
LINE
8
0
10
917.890907
20
-254.719206
11
918.485699
21
-255.496235
0
LINE
8
0
10
918.485699
20
-255.496235
11
918.861230
21
-256.399854
0
LINE
8
0
10
918.861230
20
-256.399854
11
918.992060
21
-257.386000
0
LINE
8
0
10
918.992060
20
-257.386000
11
918.992060
21
-279.307300
0
LINE
8
0
10
918.992060
20
-279.307300
11
918.902400
21
-280.125780
0
LINE
8
0
10
918.902400
20
-280.125780
11
918.641549
21
-280.896848
0
LINE
8
0
10
918.641549
20
-280.896848
11
918.221696
21
-281.594211
0
LINE
8
0
10
918.221696
20
-281.594211
11
917.655031
21
-282.191570
0
LINE
8
0
10
917.655031
20
-282.191570
11
916.972483
21
-282.652087
0
LINE
8
0
10
916.972483
20
-282.652087
11
916.215483
21
-282.951323
0
LINE
8
0
10
916.215483
20
-282.951323
11
915.411977
21
-283.081588
0
LINE
8
0
10
915.411977
20
-283.081588
11
914.589910
21
-283.035190
0
LINE
8
0
10
914.589910
20
-283.035190
11
928.197810
21
-360.209590
0
LINE
8
0
10
928.197810
20
-360.209590
11
928.424256
21
-362.521604
0
LINE
8
0
10
928.424256
20
-362.521604
11
928.295565
21
-364.827657
0
LINE
8
0
10
928.295565
20
-364.827657
11
927.817129
21
-367.087202
0
LINE
8
0
10
927.817129
20
-367.087202
11
926.994340
21
-369.259690
0
LINE
8
0
10
926.994340
20
-369.259690
11
900.697340
21
-347.898690
0
LINE
8
0
10
900.697340
20
-347.898690
11
889.805740
21
-286.129390
0
LINE
8
0
10
889.805740
20
-286.129390
11
903.766440
21
-270.236390
0
LINE
8
0
10
903.766440
20
-270.236390
11
905.946233
21
-270.637938
0
LINE
8
0
10
905.946233
20
-270.637938
11
907.987921
21
-271.446545
0
LINE
8
0
10
907.987921
20
-271.446545
11
909.835496
21
-272.633475
0
LINE
8
0
10
909.835496
20
-272.633475
11
911.432950
21
-274.169990
0
LINE
8
0
10
911.432950
20
-274.169990
11
911.433000
21
-274.170000
0
LINE
8
0
10
789.354000
20
-262.523000
11
789.354000
21
-279.307000
0
LINE
8
0
10
789.354000
20
-279.307000
11
789.276141
21
-280.067753
0
LINE
8
0
10
789.276141
20
-280.067753
11
789.055218
21
-280.776189
0
LINE
8
0
10
789.055218
20
-280.776189
11
788.244832
21
-281.975556
0
LINE
8
0
10
788.244832
20
-281.975556
11
787.044148
21
-282.783991
0
LINE
8
0
10
787.044148
20
-282.783991
11
786.335354
21
-283.003761
0
LINE
8
0
10
786.335354
20
-283.003761
11
785.574475
21
-283.080382
0
LINE
8
0
10
785.574475
20
-283.080382
11
784.813596
21
-283.003761
0
LINE
8
0
10
784.813596
20
-283.003761
11
784.104802
21
-282.783991
0
LINE
8
0
10
784.104802
20
-282.783991
11
782.904118
21
-281.975556
0
LINE
8
0
10
782.904118
20
-281.975556
11
782.093732
21
-280.776189
0
LINE
8
0
10
782.093732
20
-280.776189
11
781.872809
21
-280.067753
0
LINE
8
0
10
781.872809
20
-280.067753
11
781.794950
21
-279.307000
0
LINE
8
0
10
781.794950
20
-279.307000
11
781.794950
21
-257.385700
0
LINE
8
0
10
781.794950
20
-257.385700
11
781.884608
21
-256.567220
0
LINE
8
0
10
781.884608
20
-256.567220
11
782.145457
21
-255.796151
0
LINE
8
0
10
782.145457
20
-255.796151
11
782.565309
21
-255.098788
0
LINE
8
0
10
782.565309
20
-255.098788
11
783.131972
21
-254.501427
0
LINE
8
0
10
783.131972
20
-254.501427
11
783.814519
21
-254.040909
0
LINE
8
0
10
783.814519
20
-254.040909
11
784.571517
21
-253.741671
0
LINE
8
0
10
784.571517
20
-253.741671
11
785.375023
21
-253.611404
0
LINE
8
0
10
785.375023
20
-253.611404
11
786.197090
21
-253.657800
0
LINE
8
0
10
786.197090
20
-253.657800
11
772.589190
21
-176.483400
0
LINE
8
0
10
772.589190
20
-176.483400
11
772.362744
21
-174.171386
0
LINE
8
0
10
772.362744
20
-174.171386
11
772.491435
21
-171.865333
0
LINE
8
0
10
772.491435
20
-171.865333
11
772.969871
21
-169.605788
0
LINE
8
0
10
772.969871
20
-169.605788
11
773.792660
21
-167.433300
0
LINE
8
0
10
773.792660
20
-167.433300
11
800.089660
21
-188.794300
0
LINE
8
0
10
800.089660
20
-188.794300
11
810.981260
21
-250.563600
0
LINE
8
0
10
810.981260
20
-250.563600
11
797.020560
21
-266.456600
0
LINE
8
0
10
797.020560
20
-266.456600
11
794.840767
21
-266.055052
0
LINE
8
0
10
794.840767
20
-266.055052
11
792.799079
21
-265.246445
0
LINE
8
0
10
792.799079
20
-265.246445
11
790.951504
21
-264.059515
0
LINE
8
0
10
790.951504
20
-264.059515
11
789.354050
21
-262.523000
0
LINE
8
0
10
789.354050
20
-262.523000
11
789.354000
21
-262.523000
0
LINE
8
0
10
1100.410000
20
-274.170000
11
1100.410000
21
-257.386000
0
LINE
8
0
10
1100.410000
20
-257.386000
11
1100.486787
21
-256.624289
0
LINE
8
0
10
1100.486787
20
-256.624289
11
1100.707016
21
-255.914829
0
LINE
8
0
10
1100.707016
20
-255.914829
11
1101.517005
21
-254.713455
0
LINE
8
0
10
1101.517005
20
-254.713455
11
1102.718379
21
-253.903467
0
LINE
8
0
10
1102.718379
20
-253.903467
11
1103.427839
21
-253.683238
0
LINE
8
0
10
1103.427839
20
-253.683238
11
1104.189550
21
-253.606451
0
LINE
8
0
10
1104.189550
20
-253.606451
11
1104.951261
21
-253.683238
0
LINE
8
0
10
1104.951261
20
-253.683238
11
1105.660721
21
-253.903467
0
LINE
8
0
10
1105.660721
20
-253.903467
11
1106.862095
21
-254.713455
0
LINE
8
0
10
1106.862095
20
-254.713455
11
1107.672084
21
-255.914829
0
LINE
8
0
10
1107.672084
20
-255.914829
11
1107.892313
21
-256.624289
0
LINE
8
0
10
1107.892313
20
-256.624289
11
1107.969100
21
-257.386000
0
LINE
8
0
10
1107.969100
20
-257.386000
11
1107.969100
21
-279.307300
0
LINE
8
0
10
1107.969100
20
-279.307300
11
1107.879440
21
-280.125772
0
LINE
8
0
10
1107.879440
20
-280.125772
11
1107.618592
21
-280.896834
0
LINE
8
0
10
1107.618592
20
-280.896834
11
1107.198744
21
-281.594191
0
LINE
8
0
10
1107.198744
20
-281.594191
11
1106.632087
21
-282.191548
0
LINE
8
0
10
1106.632087
20
-282.191548
11
1105.949548
21
-282.652065
0
LINE
8
0
10
1105.949548
20
-282.652065
11
1105.192558
21
-282.951305
0
LINE
8
0
10
1105.192558
20
-282.951305
11
1104.389061
21
-283.081577
0
LINE
8
0
10
1104.389061
20
-283.081577
11
1103.567000
21
-283.035190
0
LINE
8
0
10
1103.567000
20
-283.035190
11
1117.174900
21
-360.209590
0
LINE
8
0
10
1117.174900
20
-360.209590
11
1117.401339
21
-362.521606
0
LINE
8
0
10
1117.401339
20
-362.521606
11
1117.272640
21
-364.827660
0
LINE
8
0
10
1117.272640
20
-364.827660
11
1116.794197
21
-367.087204
0
LINE
8
0
10
1116.794197
20
-367.087204
11
1115.971400
21
-369.259690
0
LINE
8
0
10
1115.971400
20
-369.259690
11
1089.674400
21
-347.898690
0
LINE
8
0
10
1089.674400
20
-347.898690
11
1078.782900
21
-286.129390
0
LINE
8
0
10
1078.782900
20
-286.129390
11
1092.743500
21
-270.236390
0
LINE
8
0
10
1092.743500
20
-270.236390
11
1094.923291
21
-270.637939
0
LINE
8
0
10
1094.923291
20
-270.637939
11
1096.964976
21
-271.446547
0
LINE
8
0
10
1096.964976
20
-271.446547
11
1098.812548
21
-272.633476
0
LINE
8
0
10
1098.812548
20
-272.633476
11
1100.410000
21
-274.169990
0
LINE
8
0
10
1100.410000
20
-274.169990
11
1100.410000
21
-274.170000
0
LINE
8
0
10
978.331000
20
-262.523000
11
978.331000
21
-279.307000
0
LINE
8
0
10
978.331000
20
-279.307000
11
978.200170
21
-280.293146
0
LINE
8
0
10
978.200170
20
-280.293146
11
977.824639
21
-281.196765
0
LINE
8
0
10
977.824639
20
-281.196765
11
977.229847
21
-281.973794
0
LINE
8
0
10
977.229847
20
-281.973794
11
976.441235
21
-282.580169
0
LINE
8
0
10
976.441235
20
-282.580169
11
975.521792
21
-282.959940
0
LINE
8
0
10
975.521792
20
-282.959940
11
974.551470
21
-283.086530
0
LINE
8
0
10
974.551470
20
-283.086530
11
973.581148
21
-282.959940
0
LINE
8
0
10
973.581148
20
-282.959940
11
972.661705
21
-282.580169
0
LINE
8
0
10
972.661705
20
-282.580169
11
971.873093
21
-281.973794
0
LINE
8
0
10
971.873093
20
-281.973794
11
971.278301
21
-281.196765
0
LINE
8
0
10
971.278301
20
-281.196765
11
970.902770
21
-280.293146
0
LINE
8
0
10
970.902770
20
-280.293146
11
970.771940
21
-279.307000
0
LINE
8
0
10
970.771940
20
-279.307000
11
970.771940
21
-257.385700
0
LINE
8
0
10
970.771940
20
-257.385700
11
970.861598
21
-256.567219
0
LINE
8
0
10
970.861598
20
-256.567219
11
971.122448
21
-255.796148
0
LINE
8
0
10
971.122448
20
-255.796148
11
971.542300
21
-255.098784
0
LINE
8
0
10
971.542300
20
-255.098784
11
972.108965
21
-254.501423
0
LINE
8
0
10
972.108965
20
-254.501423
11
972.791514
21
-254.040905
0
LINE
8
0
10
972.791514
20
-254.040905
11
973.548514
21
-253.741667
0
LINE
8
0
10
973.548514
20
-253.741667
11
974.352021
21
-253.611402
0
LINE
8
0
10
974.352021
20
-253.611402
11
975.174090
21
-253.657800
0
LINE
8
0
10
975.174090
20
-253.657800
11
961.566190
21
-176.483400
0
LINE
8
0
10
961.566190
20
-176.483400
11
961.339744
21
-174.171386
0
LINE
8
0
10
961.339744
20
-174.171386
11
961.468435
21
-171.865333
0
LINE
8
0
10
961.468435
20
-171.865333
11
961.946871
21
-169.605788
0
LINE
8
0
10
961.946871
20
-169.605788
11
962.769660
21
-167.433300
0
LINE
8
0
10
962.769660
20
-167.433300
11
989.066660
21
-188.794300
0
LINE
8
0
10
989.066660
20
-188.794300
11
999.958260
21
-250.563600
0
LINE
8
0
10
999.958260
20
-250.563600
11
985.997560
21
-266.456600
0
LINE
8
0
10
985.997560
20
-266.456600
11
983.817767
21
-266.055052
0
LINE
8
0
10
983.817767
20
-266.055052
11
981.776079
21
-265.246445
0
LINE
8
0
10
981.776079
20
-265.246445
11
979.928504
21
-264.059515
0
LINE
8
0
10
979.928504
20
-264.059515
11
978.331050
21
-262.523000
0
LINE
8
0
10
978.331050
20
-262.523000
11
978.331000
21
-262.523000
0
LINE
8
0
10
1077.570000
20
-164.363000
11
1058.605100
21
-185.952800
0
LINE
8
0
10
1058.605100
20
-185.952800
11
991.564500
21
-185.952800
0
LINE
8
0
10
991.564500
20
-185.952800
11
964.809300
21
-164.219600
0
LINE
8
0
10
964.809300
20
-164.219600
11
965.949592
21
-162.987749
0
LINE
8
0
10
965.949592
20
-162.987749
11
967.207318
21
-161.899336
0
LINE
8
0
10
967.207318
20
-161.899336
11
968.568843
21
-160.960775
0
LINE
8
0
10
968.568843
20
-160.960775
11
970.020535
21
-160.178479
0
LINE
8
0
10
970.020535
20
-160.178479
11
971.548760
21
-159.558863
0
LINE
8
0
10
971.548760
20
-159.558863
11
973.139885
21
-159.108340
0
LINE
8
0
10
973.139885
20
-159.108340
11
974.780276
21
-158.833325
0
LINE
8
0
10
974.780276
20
-158.833325
11
976.456300
21
-158.740230
0
LINE
8
0
10
976.456300
20
-158.740230
11
1062.623400
21
-158.740230
0
LINE
8
0
10
1062.623400
20
-158.740230
11
1064.674868
21
-158.833173
0
LINE
8
0
10
1064.674868
20
-158.833173
11
1066.697185
21
-159.109092
0
LINE
8
0
10
1066.697185
20
-159.109092
11
1068.678763
21
-159.563627
0
LINE
8
0
10
1068.678763
20
-159.563627
11
1070.608013
21
-160.192421
0
LINE
8
0
10
1070.608013
20
-160.192421
11
1072.473350
21
-160.991113
0
LINE
8
0
10
1072.473350
20
-160.991113
11
1074.263185
21
-161.955344
0
LINE
8
0
10
1074.263185
20
-161.955344
11
1075.965931
21
-163.080757
0
LINE
8
0
10
1075.965931
20
-163.080757
11
1077.570000
21
-164.362990
0
LINE
8
0
10
1077.570000
20
-164.362990
11
1077.570000
21
-164.363000
0
LINE
8
0
10
1001.170000
20
-372.330000
11
1020.134900
21
-350.740200
0
LINE
8
0
10
1020.134900
20
-350.740200
11
1087.175600
21
-350.740200
0
LINE
8
0
10
1087.175600
20
-350.740200
11
1113.930700
21
-372.473400
0
LINE
8
0
10
1113.930700
20
-372.473400
11
1112.790417
21
-373.705243
0
LINE
8
0
10
1112.790417
20
-373.705243
11
1111.532703
21
-374.793651
0
LINE
8
0
10
1111.532703
20
-374.793651
11
1110.171190
21
-375.732209
0
LINE
8
0
10
1110.171190
20
-375.732209
11
1108.719511
21
-376.514505
0
LINE
8
0
10
1108.719511
20
-376.514505
11
1107.191300
21
-377.134123
0
LINE
8
0
10
1107.191300
20
-377.134123
11
1105.600189
21
-377.584651
0
LINE
8
0
10
1105.600189
20
-377.584651
11
1103.959811
21
-377.859675
0
LINE
8
0
10
1103.959811
20
-377.859675
11
1102.283800
21
-377.952780
0
LINE
8
0
10
1102.283800
20
-377.952780
11
1016.116600
21
-377.952780
0
LINE
8
0
10
1016.116600
20
-377.952780
11
1014.065131
21
-377.859836
0
LINE
8
0
10
1014.065131
20
-377.859836
11
1012.042814
21
-377.583916
0
LINE
8
0
10
1012.042814
20
-377.583916
11
1010.061237
21
-377.129379
0
LINE
8
0
10
1010.061237
20
-377.129379
11
1008.131986
21
-376.500585
0
LINE
8
0
10
1008.131986
20
-376.500585
11
1006.266649
21
-375.701891
0
LINE
8
0
10
1006.266649
20
-375.701891
11
1004.476814
21
-374.737658
0
LINE
8
0
10
1004.476814
20
-374.737658
11
1002.774069
21
-373.612245
0
LINE
8
0
10
1002.774069
20
-373.612245
11
1001.170000
21
-372.330010
0
LINE
8
0
10
1001.170000
20
-372.330010
11
1001.170000
21
-372.330000
0
LINE
8
0
10
1084.950000
20
-177.479000
11
1099.084500
21
-257.640000
0
LINE
8
0
10
1099.084500
20
-257.640000
11
1099.196085
21
-259.175622
0
LINE
8
0
10
1099.196085
20
-259.175622
11
1098.997694
21
-260.686918
0
LINE
8
0
10
1098.997694
20
-260.686918
11
1098.500212
21
-262.127711
0
LINE
8
0
10
1098.500212
20
-262.127711
11
1097.714522
21
-263.451826
0
LINE
8
0
10
1097.714522
20
-263.451826
11
1096.676886
21
-264.589322
0
LINE
8
0
10
1096.676886
20
-264.589322
11
1095.443637
21
-265.485130
0
LINE
8
0
10
1095.443637
20
-265.485130
11
1094.055775
21
-266.115379
0
LINE
8
0
10
1094.055775
20
-266.115379
11
1092.554300
21
-266.456200
0
LINE
8
0
10
1092.554300
20
-266.456200
11
1072.426400
21
-250.106300
0
LINE
8
0
10
1072.426400
20
-250.106300
11
1061.534800
21
-188.337000
0
LINE
8
0
10
1061.534800
20
-188.337000
11
1080.197100
21
-167.091800
0
LINE
8
0
10
1080.197100
20
-167.091800
11
1081.876584
21
-169.444520
0
LINE
8
0
10
1081.876584
20
-169.444520
11
1083.238294
21
-171.981231
0
LINE
8
0
10
1083.238294
20
-171.981231
11
1084.267633
21
-174.670026
0
LINE
8
0
10
1084.267633
20
-174.670026
11
1084.950000
21
-177.479000
0
LINE
8
0
10
1084.950000
20
-177.479000
11
1084.950000
21
-177.479000
0
LINE
8
0
10
1122.330000
20
-185.953000
11
1122.224597
21
-187.608455
0
LINE
8
0
10
1122.224597
20
-187.608455
11
1121.905920
21
-189.214330
0
LINE
8
0
10
1121.905920
20
-189.214330
11
1121.384483
21
-190.752332
0
LINE
8
0
10
1121.384483
20
-190.752332
11
1120.670805
21
-192.204165
0
LINE
8
0
10
1120.670805
20
-192.204165
11
1119.775400
21
-193.551536
0
LINE
8
0
10
1119.775400
20
-193.551536
11
1118.708785
21
-194.776150
0
LINE
8
0
10
1118.708785
20
-194.776150
11
1117.481477
21
-195.859712
0
LINE
8
0
10
1117.481477
20
-195.859712
11
1116.103992
21
-196.783927
0
LINE
8
0
10
1116.103992
20
-196.783927
11
1114.616238
21
-197.517566
0
LINE
8
0
10
1114.616238
20
-197.517566
11
1113.065178
21
-198.041594
0
LINE
8
0
10
1113.065178
20
-198.041594
11
1111.471915
21
-198.356011
0
LINE
8
0
10
1111.471915
20
-198.356011
11
1109.857550
21
-198.460816
0
LINE
8
0
10
1109.857550
20
-198.460816
11
1108.243185
21
-198.356011
0
LINE
8
0
10
1108.243185
20
-198.356011
11
1106.649922
21
-198.041594
0
LINE
8
0
10
1106.649922
20
-198.041594
11
1105.098862
21
-197.517566
0
LINE
8
0
10
1105.098862
20
-197.517566
11
1103.611108
21
-196.783927
0
LINE
8
0
10
1103.611108
20
-196.783927
11
1102.233623
21
-195.859712
0
LINE
8
0
10
1102.233623
20
-195.859712
11
1101.006315
21
-194.776150
0
LINE
8
0
10
1101.006315
20
-194.776150
11
1099.939700
21
-193.551536
0
LINE
8
0
10
1099.939700
20
-193.551536
11
1099.044295
21
-192.204165
0
LINE
8
0
10
1099.044295
20
-192.204165
11
1098.330617
21
-190.752332
0
LINE
8
0
10
1098.330617
20
-190.752332
11
1097.809180
21
-189.214330
0
LINE
8
0
10
1097.809180
20
-189.214330
11
1097.490503
21
-187.608455
0
LINE
8
0
10
1097.490503
20
-187.608455
11
1097.385100
21
-185.953000
0
LINE
8
0
10
1097.385100
20
-185.953000
11
1097.490503
21
-184.297545
0
LINE
8
0
10
1097.490503
20
-184.297545
11
1097.809180
21
-182.691670
0
LINE
8
0
10
1097.809180
20
-182.691670
11
1098.330617
21
-181.153668
0
LINE
8
0
10
1098.330617
20
-181.153668
11
1099.044295
21
-179.701835
0
LINE
8
0
10
1099.044295
20
-179.701835
11
1099.939700
21
-178.354464
0
LINE
8
0
10
1099.939700
20
-178.354464
11
1101.006315
21
-177.129850
0
LINE
8
0
10
1101.006315
20
-177.129850
11
1102.233623
21
-176.046288
0
LINE
8
0
10
1102.233623
20
-176.046288
11
1103.611108
21
-175.122073
0
LINE
8
0
10
1103.611108
20
-175.122073
11
1105.098862
21
-174.388434
0
LINE
8
0
10
1105.098862
20
-174.388434
11
1106.649922
21
-173.864406
0
LINE
8
0
10
1106.649922
20
-173.864406
11
1108.243185
21
-173.549989
0
LINE
8
0
10
1108.243185
20
-173.549989
11
1109.857550
21
-173.445184
0
LINE
8
0
10
1109.857550
20
-173.445184
11
1111.471915
21
-173.549989
0
LINE
8
0
10
1111.471915
20
-173.549989
11
1113.065178
21
-173.864406
0
LINE
8
0
10
1113.065178
20
-173.864406
11
1114.616238
21
-174.388434
0
LINE
8
0
10
1114.616238
20
-174.388434
11
1116.103992
21
-175.122073
0
LINE
8
0
10
1116.103992
20
-175.122073
11
1117.481477
21
-176.046288
0
LINE
8
0
10
1117.481477
20
-176.046288
11
1118.708785
21
-177.129850
0
LINE
8
0
10
1118.708785
20
-177.129850
11
1119.775400
21
-178.354464
0
LINE
8
0
10
1119.775400
20
-178.354464
11
1120.670805
21
-179.701835
0
LINE
8
0
10
1120.670805
20
-179.701835
11
1121.384483
21
-181.153668
0
LINE
8
0
10
1121.384483
20
-181.153668
11
1121.905920
21
-182.691670
0
LINE
8
0
10
1121.905920
20
-182.691670
11
1122.224597
21
-184.297545
0
LINE
8
0
10
1122.224597
20
-184.297545
11
1122.330000
21
-185.953000
0
LINE
8
0
10
1122.330000
20
-185.953000
11
1122.330000
21
-185.953000
0
LINE
8
0
10
974.173000
20
-321.260000
11
973.976749
21
-322.739218
0
LINE
8
0
10
973.976749
20
-322.739218
11
973.413450
21
-324.094645
0
LINE
8
0
10
973.413450
20
-324.094645
11
972.521263
21
-325.260187
0
LINE
8
0
10
972.521263
20
-325.260187
11
971.338345
21
-326.169749
0
LINE
8
0
10
971.338345
20
-326.169749
11
969.959182
21
-326.739405
0
LINE
8
0
10
969.959182
20
-326.739405
11
968.503700
21
-326.929290
0
LINE
8
0
10
968.503700
20
-326.929290
11
967.048218
21
-326.739405
0
LINE
8
0
10
967.048218
20
-326.739405
11
965.669055
21
-326.169749
0
LINE
8
0
10
965.669055
20
-326.169749
11
964.486137
21
-325.260187
0
LINE
8
0
10
964.486137
20
-325.260187
11
963.593951
21
-324.094645
0
LINE
8
0
10
963.593951
20
-324.094645
11
963.030655
21
-322.739218
0
LINE
8
0
10
963.030655
20
-322.739218
11
962.834410
21
-321.260000
0
LINE
8
0
10
962.834410
20
-321.260000
11
963.030658
21
-319.780782
0
LINE
8
0
10
963.030658
20
-319.780782
11
963.593955
21
-318.425355
0
LINE
8
0
10
963.593955
20
-318.425355
11
964.486142
21
-317.259813
0
LINE
8
0
10
964.486142
20
-317.259813
11
965.669060
21
-316.350251
0
LINE
8
0
10
965.669060
20
-316.350251
11
967.048223
21
-315.780595
0
LINE
8
0
10
967.048223
20
-315.780595
11
968.503705
21
-315.590710
0
LINE
8
0
10
968.503705
20
-315.590710
11
969.959187
21
-315.780595
0
LINE
8
0
10
969.959187
20
-315.780595
11
971.338350
21
-316.350251
0
LINE
8
0
10
971.338350
20
-316.350251
11
972.521268
21
-317.259813
0
LINE
8
0
10
972.521268
20
-317.259813
11
973.413454
21
-318.425355
0
LINE
8
0
10
973.413454
20
-318.425355
11
973.976750
21
-319.780782
0
LINE
8
0
10
973.976750
20
-319.780782
11
974.172995
21
-321.260000
0
LINE
8
0
10
974.172995
20
-321.260000
11
974.173000
21
-321.260000
0
LINE
8
0
10
1045.040000
20
-321.260000
11
1044.843754
21
-322.739220
0
LINE
8
0
10
1044.843754
20
-322.739220
11
1044.280458
21
-324.094650
0
LINE
8
0
10
1044.280458
20
-324.094650
11
1043.388270
21
-325.260194
0
LINE
8
0
10
1043.388270
20
-325.260194
11
1042.205350
21
-326.169758
0
LINE
8
0
10
1042.205350
20
-326.169758
11
1040.826185
21
-326.739414
0
LINE
8
0
10
1040.826185
20
-326.739414
11
1039.370700
21
-326.929300
0
LINE
8
0
10
1039.370700
20
-326.929300
11
1037.915215
21
-326.739414
0
LINE
8
0
10
1037.915215
20
-326.739414
11
1036.536050
21
-326.169758
0
LINE
8
0
10
1036.536050
20
-326.169758
11
1035.353130
21
-325.260194
0
LINE
8
0
10
1035.353130
20
-325.260194
11
1034.460942
21
-324.094650
0
LINE
8
0
10
1034.460942
20
-324.094650
11
1033.897646
21
-322.739220
0
LINE
8
0
10
1033.897646
20
-322.739220
11
1033.701400
21
-321.260000
0
LINE
8
0
10
1033.701400
20
-321.260000
11
1033.897646
21
-319.780780
0
LINE
8
0
10
1033.897646
20
-319.780780
11
1034.460942
21
-318.425350
0
LINE
8
0
10
1034.460942
20
-318.425350
11
1035.353130
21
-317.259806
0
LINE
8
0
10
1035.353130
20
-317.259806
11
1036.536050
21
-316.350242
0
LINE
8
0
10
1036.536050
20
-316.350242
11
1037.915215
21
-315.780586
0
LINE
8
0
10
1037.915215
20
-315.780586
11
1039.370700
21
-315.590700
0
LINE
8
0
10
1039.370700
20
-315.590700
11
1040.826185
21
-315.780586
0
LINE
8
0
10
1040.826185
20
-315.780586
11
1042.205350
21
-316.350242
0
LINE
8
0
10
1042.205350
20
-316.350242
11
1043.388270
21
-317.259806
0
LINE
8
0
10
1043.388270
20
-317.259806
11
1044.280458
21
-318.425350
0
LINE
8
0
10
1044.280458
20
-318.425350
11
1044.843754
21
-319.780780
0
LINE
8
0
10
1044.843754
20
-319.780780
11
1045.040000
21
-321.260000
0
LINE
8
0
10
1045.040000
20
-321.260000
11
1045.040000
21
-321.260000
0
LINE
8
0
10
1045.040000
20
-215.433000
11
1044.843754
21
-216.912220
0
LINE
8
0
10
1044.843754
20
-216.912220
11
1044.280458
21
-218.267650
0
LINE
8
0
10
1044.280458
20
-218.267650
11
1043.388270
21
-219.433194
0
LINE
8
0
10
1043.388270
20
-219.433194
11
1042.205350
21
-220.342758
0
LINE
8
0
10
1042.205350
20
-220.342758
11
1040.826185
21
-220.912414
0
LINE
8
0
10
1040.826185
20
-220.912414
11
1039.370700
21
-221.102300
0
LINE
8
0
10
1039.370700
20
-221.102300
11
1037.915215
21
-220.912414
0
LINE
8
0
10
1037.915215
20
-220.912414
11
1036.536050
21
-220.342758
0
LINE
8
0
10
1036.536050
20
-220.342758
11
1035.353130
21
-219.433194
0
LINE
8
0
10
1035.353130
20
-219.433194
11
1034.460942
21
-218.267650
0
LINE
8
0
10
1034.460942
20
-218.267650
11
1033.897646
21
-216.912220
0
LINE
8
0
10
1033.897646
20
-216.912220
11
1033.701400
21
-215.433000
0
LINE
8
0
10
1033.701400
20
-215.433000
11
1033.897646
21
-213.953780
0
LINE
8
0
10
1033.897646
20
-213.953780
11
1034.460942
21
-212.598350
0
LINE
8
0
10
1034.460942
20
-212.598350
11
1035.353130
21
-211.432806
0
LINE
8
0
10
1035.353130
20
-211.432806
11
1036.536050
21
-210.523242
0
LINE
8
0
10
1036.536050
20
-210.523242
11
1037.915215
21
-209.953586
0
LINE
8
0
10
1037.915215
20
-209.953586
11
1039.370700
21
-209.763700
0
LINE
8
0
10
1039.370700
20
-209.763700
11
1040.826185
21
-209.953586
0
LINE
8
0
10
1040.826185
20
-209.953586
11
1042.205350
21
-210.523242
0
LINE
8
0
10
1042.205350
20
-210.523242
11
1043.388270
21
-211.432806
0
LINE
8
0
10
1043.388270
20
-211.432806
11
1044.280458
21
-212.598350
0
LINE
8
0
10
1044.280458
20
-212.598350
11
1044.843754
21
-213.953780
0
LINE
8
0
10
1044.843754
20
-213.953780
11
1045.040000
21
-215.433000
0
LINE
8
0
10
1045.040000
20
-215.433000
11
1045.040000
21
-215.433000
0
LINE
8
0
10
981.354000
20
-350.740000
11
981.244300
21
-352.392089
0
LINE
8
0
10
981.244300
20
-352.392089
11
980.922233
21
-353.994269
0
LINE
8
0
10
980.922233
20
-353.994269
11
980.398292
21
-355.528365
0
LINE
8
0
10
980.398292
20
-355.528365
11
979.682971
21
-356.976200
0
LINE
8
0
10
979.682971
20
-356.976200
11
978.786763
21
-358.319598
0
LINE
8
0
10
978.786763
20
-358.319598
11
977.720162
21
-359.540384
0
LINE
8
0
10
977.720162
20
-359.540384
11
976.493659
21
-360.620382
0
LINE
8
0
10
976.493659
20
-360.620382
11
975.117750
21
-361.541415
0
LINE
8
0
10
975.117750
20
-361.541415
11
973.632157
21
-362.272471
0
LINE
8
0
10
973.632157
20
-362.272471
11
972.083601
21
-362.794654
0
LINE
8
0
10
972.083601
20
-362.794654
11
970.493069
21
-363.107963
0
LINE
8
0
10
970.493069
20
-363.107963
11
968.881550
21
-363.212400
0
LINE
8
0
10
968.881550
20
-363.212400
11
967.270031
21
-363.107963
0
LINE
8
0
10
967.270031
20
-363.107963
11
965.679499
21
-362.794654
0
LINE
8
0
10
965.679499
20
-362.794654
11
964.130943
21
-362.272471
0
LINE
8
0
10
964.130943
20
-362.272471
11
962.645350
21
-361.541415
0
LINE
8
0
10
962.645350
20
-361.541415
11
961.269441
21
-360.620382
0
LINE
8
0
10
961.269441
20
-360.620382
11
960.042939
21
-359.540384
0
LINE
8
0
10
960.042939
20
-359.540384
11
958.976339
21
-358.319598
0
LINE
8
0
10
958.976339
20
-358.319598
11
958.080135
21
-356.976200
0
LINE
8
0
10
958.080135
20
-356.976200
11
957.364820
21
-355.528365
0
LINE
8
0
10
957.364820
20
-355.528365
11
956.840888
21
-353.994269
0
LINE
8
0
10
956.840888
20
-353.994269
11
956.518833
21
-352.392089
0
LINE
8
0
10
956.518833
20
-352.392089
11
956.409150
21
-350.740000
0
LINE
8
0
10
956.409150
20
-350.740000
11
956.518842
21
-349.087911
0
LINE
8
0
10
956.518842
20
-349.087911
11
956.840902
21
-347.485731
0
LINE
8
0
10
956.840902
20
-347.485731
11
957.364839
21
-345.951635
0
LINE
8
0
10
957.364839
20
-345.951635
11
958.080157
21
-344.503800
0
LINE
8
0
10
958.080157
20
-344.503800
11
958.976363
21
-343.160402
0
LINE
8
0
10
958.976363
20
-343.160402
11
960.042964
21
-341.939616
0
LINE
8
0
10
960.042964
20
-341.939616
11
961.269466
21
-340.859618
0
LINE
8
0
10
961.269466
20
-340.859618
11
962.645375
21
-339.938585
0
LINE
8
0
10
962.645375
20
-339.938585
11
964.130968
21
-339.207529
0
LINE
8
0
10
964.130968
20
-339.207529
11
965.679524
21
-338.685346
0
LINE
8
0
10
965.679524
20
-338.685346
11
967.270056
21
-338.372037
0
LINE
8
0
10
967.270056
20
-338.372037
11
968.881575
21
-338.267600
0
LINE
8
0
10
968.881575
20
-338.267600
11
970.493094
21
-338.372037
0
LINE
8
0
10
970.493094
20
-338.372037
11
972.083626
21
-338.685346
0
LINE
8
0
10
972.083626
20
-338.685346
11
973.632182
21
-339.207529
0
LINE
8
0
10
973.632182
20
-339.207529
11
975.117775
21
-339.938585
0
LINE
8
0
10
975.117775
20
-339.938585
11
976.493684
21
-340.859618
0
LINE
8
0
10
976.493684
20
-340.859618
11
977.720186
21
-341.939616
0
LINE
8
0
10
977.720186
20
-341.939616
11
978.786786
21
-343.160402
0
LINE
8
0
10
978.786786
20
-343.160402
11
979.682990
21
-344.503800
0
LINE
8
0
10
979.682990
20
-344.503800
11
980.398305
21
-345.951635
0
LINE
8
0
10
980.398305
20
-345.951635
11
980.922237
21
-347.485731
0
LINE
8
0
10
980.922237
20
-347.485731
11
981.244292
21
-349.087911
0
LINE
8
0
10
981.244292
20
-349.087911
11
981.353975
21
-350.740000
0
LINE
8
0
10
981.353975
20
-350.740000
11
981.354000
21
-350.740000
0
LINE
8
0
10
1115.910000
20
-215.433000
11
1115.713754
21
-216.912220
0
LINE
8
0
10
1115.713754
20
-216.912220
11
1115.150458
21
-218.267650
0
LINE
8
0
10
1115.150458
20
-218.267650
11
1114.258270
21
-219.433194
0
LINE
8
0
10
1114.258270
20
-219.433194
11
1113.075350
21
-220.342758
0
LINE
8
0
10
1113.075350
20
-220.342758
11
1111.696185
21
-220.912414
0
LINE
8
0
10
1111.696185
20
-220.912414
11
1110.240700
21
-221.102300
0
LINE
8
0
10
1110.240700
20
-221.102300
11
1108.785215
21
-220.912414
0
LINE
8
0
10
1108.785215
20
-220.912414
11
1107.406050
21
-220.342758
0
LINE
8
0
10
1107.406050
20
-220.342758
11
1106.223130
21
-219.433194
0
LINE
8
0
10
1106.223130
20
-219.433194
11
1105.330942
21
-218.267650
0
LINE
8
0
10
1105.330942
20
-218.267650
11
1104.767646
21
-216.912220
0
LINE
8
0
10
1104.767646
20
-216.912220
11
1104.571400
21
-215.433000
0
LINE
8
0
10
1104.571400
20
-215.433000
11
1104.767646
21
-213.953780
0
LINE
8
0
10
1104.767646
20
-213.953780
11
1105.330942
21
-212.598350
0
LINE
8
0
10
1105.330942
20
-212.598350
11
1106.223130
21
-211.432806
0
LINE
8
0
10
1106.223130
20
-211.432806
11
1107.406050
21
-210.523242
0
LINE
8
0
10
1107.406050
20
-210.523242
11
1108.785215
21
-209.953586
0
LINE
8
0
10
1108.785215
20
-209.953586
11
1110.240700
21
-209.763700
0
LINE
8
0
10
1110.240700
20
-209.763700
11
1111.696185
21
-209.953586
0
LINE
8
0
10
1111.696185
20
-209.953586
11
1113.075350
21
-210.523242
0
LINE
8
0
10
1113.075350
20
-210.523242
11
1114.258270
21
-211.432806
0
LINE
8
0
10
1114.258270
20
-211.432806
11
1115.150458
21
-212.598350
0
LINE
8
0
10
1115.150458
20
-212.598350
11
1115.713754
21
-213.953780
0
LINE
8
0
10
1115.713754
20
-213.953780
11
1115.910000
21
-215.433000
0
LINE
8
0
10
1115.910000
20
-215.433000
11
1115.910000
21
-215.433000
0
LINE
8
0
10
1001.320000
20
-254.740000
11
1072.140100
21
-254.740000
0
LINE
8
0
10
1072.140100
20
-254.740000
11
1089.171700
21
-268.574800
0
LINE
8
0
10
1089.171700
20
-268.574800
11
1077.420400
21
-281.952600
0
LINE
8
0
10
1077.420400
20
-281.952600
11
1006.600200
21
-281.952600
0
LINE
8
0
10
1006.600200
20
-281.952600
11
989.568600
21
-268.117800
0
LINE
8
0
10
989.568600
20
-268.117800
11
1001.320000
21
-254.740000
0
LINE
8
0
10
986.182000
20
-270.236000
11
984.680525
21
-270.576822
0
LINE
8
0
10
984.680525
20
-270.576822
11
983.292663
21
-271.207074
0
LINE
8
0
10
983.292663
20
-271.207074
11
982.059416
21
-272.102883
0
LINE
8
0
10
982.059416
20
-272.102883
11
981.021780
21
-273.240381
0
LINE
8
0
10
981.021780
20
-273.240381
11
980.236092
21
-274.564497
0
LINE
8
0
10
980.236092
20
-274.564497
11
979.738611
21
-276.005291
0
LINE
8
0
10
979.738611
20
-276.005291
11
979.540222
21
-277.516587
0
LINE
8
0
10
979.540222
20
-277.516587
11
979.651810
21
-279.052210
0
LINE
8
0
10
979.651810
20
-279.052210
11
993.786410
21
-359.213210
0
LINE
8
0
10
993.786410
20
-359.213210
11
994.468782
21
-362.022185
0
LINE
8
0
10
994.468782
20
-362.022185
11
995.498125
21
-364.710980
0
LINE
8
0
10
995.498125
20
-364.710980
11
996.859841
21
-367.247691
0
LINE
8
0
10
996.859841
20
-367.247691
11
998.539330
21
-369.600410
0
LINE
8
0
10
998.539330
20
-369.600410
11
1017.201530
21
-348.355210
0
LINE
8
0
10
1017.201530
20
-348.355210
11
1006.309930
21
-286.585910
0
LINE
8
0
10
1006.309930
20
-286.585910
11
986.182000
21
-270.236000
0
LINE
8
0
10
888.592000
20
-164.363000
11
869.627100
21
-185.952800
0
LINE
8
0
10
869.627100
20
-185.952800
11
802.586500
21
-185.952800
0
LINE
8
0
10
802.586500
20
-185.952800
11
775.831300
21
-164.219600
0
LINE
8
0
10
775.831300
20
-164.219600
11
776.971592
21
-162.987749
0
LINE
8
0
10
776.971592
20
-162.987749
11
778.229318
21
-161.899336
0
LINE
8
0
10
778.229318
20
-161.899336
11
779.590843
21
-160.960775
0
LINE
8
0
10
779.590843
20
-160.960775
11
781.042535
21
-160.178479
0
LINE
8
0
10
781.042535
20
-160.178479
11
782.570760
21
-159.558863
0
LINE
8
0
10
782.570760
20
-159.558863
11
784.161885
21
-159.108340
0
LINE
8
0
10
784.161885
20
-159.108340
11
785.802276
21
-158.833325
0
LINE
8
0
10
785.802276
20
-158.833325
11
787.478300
21
-158.740230
0
LINE
8
0
10
787.478300
20
-158.740230
11
873.645400
21
-158.740230
0
LINE
8
0
10
873.645400
20
-158.740230
11
875.696868
21
-158.833173
0
LINE
8
0
10
875.696868
20
-158.833173
11
877.719185
21
-159.109092
0
LINE
8
0
10
877.719185
20
-159.109092
11
879.700763
21
-159.563627
0
LINE
8
0
10
879.700763
20
-159.563627
11
881.630013
21
-160.192421
0
LINE
8
0
10
881.630013
20
-160.192421
11
883.495350
21
-160.991113
0
LINE
8
0
10
883.495350
20
-160.991113
11
885.285185
21
-161.955344
0
LINE
8
0
10
885.285185
20
-161.955344
11
886.987931
21
-163.080757
0
LINE
8
0
10
886.987931
20
-163.080757
11
888.592000
21
-164.362990
0
LINE
8
0
10
888.592000
20
-164.362990
11
888.592000
21
-164.363000
0
LINE
8
0
10
812.196000
20
-372.330000
11
831.160900
21
-350.740200
0
LINE
8
0
10
831.160900
20
-350.740200
11
898.201500
21
-350.740200
0
LINE
8
0
10
898.201500
20
-350.740200
11
924.956700
21
-372.473400
0
LINE
8
0
10
924.956700
20
-372.473400
11
923.816408
21
-373.705252
0
LINE
8
0
10
923.816408
20
-373.705252
11
922.558683
21
-374.793667
0
LINE
8
0
10
922.558683
20
-374.793667
11
921.197158
21
-375.732229
0
LINE
8
0
10
921.197158
20
-375.732229
11
919.745466
21
-376.514526
0
LINE
8
0
10
919.745466
20
-376.514526
11
918.217241
21
-377.134143
0
LINE
8
0
10
918.217241
20
-377.134143
11
916.626116
21
-377.584667
0
LINE
8
0
10
916.626116
20
-377.584667
11
914.985725
21
-377.859684
0
LINE
8
0
10
914.985725
20
-377.859684
11
913.309700
21
-377.952780
0
LINE
8
0
10
913.309700
20
-377.952780
11
827.142600
21
-377.952780
0
LINE
8
0
10
827.142600
20
-377.952780
11
825.091131
21
-377.859836
0
LINE
8
0
10
825.091131
20
-377.859836
11
823.068814
21
-377.583916
0
LINE
8
0
10
823.068814
20
-377.583916
11
821.087237
21
-377.129379
0
LINE
8
0
10
821.087237
20
-377.129379
11
819.157986
21
-376.500585
0
LINE
8
0
10
819.157986
20
-376.500585
11
817.292649
21
-375.701891
0
LINE
8
0
10
817.292649
20
-375.701891
11
815.502814
21
-374.737658
0
LINE
8
0
10
815.502814
20
-374.737658
11
813.800069
21
-373.612245
0
LINE
8
0
10
813.800069
20
-373.612245
11
812.196000
21
-372.330010
0
LINE
8
0
10
812.196000
20
-372.330010
11
812.196000
21
-372.330000
0
LINE
8
0
10
895.978000
20
-177.479000
11
910.112600
21
-257.640000
0
LINE
8
0
10
910.112600
20
-257.640000
11
910.224186
21
-259.175621
0
LINE
8
0
10
910.224186
20
-259.175621
11
910.025795
21
-260.686916
0
LINE
8
0
10
910.025795
20
-260.686916
11
909.528314
21
-262.127709
0
LINE
8
0
10
909.528314
20
-262.127709
11
908.742626
21
-263.451823
0
LINE
8
0
10
908.742626
20
-263.451823
11
907.704991
21
-264.589319
0
LINE
8
0
10
907.704991
20
-264.589319
11
906.471744
21
-265.485127
0
LINE
8
0
10
906.471744
20
-265.485127
11
905.083884
21
-266.115378
0
LINE
8
0
10
905.083884
20
-266.115378
11
903.582410
21
-266.456200
0
LINE
8
0
10
903.582410
20
-266.456200
11
883.454510
21
-250.106300
0
LINE
8
0
10
883.454510
20
-250.106300
11
872.562910
21
-188.337000
0
LINE
8
0
10
872.562910
20
-188.337000
11
891.225110
21
-167.091800
0
LINE
8
0
10
891.225110
20
-167.091800
11
892.904599
21
-169.444519
0
LINE
8
0
10
892.904599
20
-169.444519
11
894.266315
21
-171.981230
0
LINE
8
0
10
894.266315
20
-171.981230
11
895.295658
21
-174.670025
0
LINE
8
0
10
895.295658
20
-174.670025
11
895.978030
21
-177.479000
0
LINE
8
0
10
895.978030
20
-177.479000
11
895.978000
21
-177.479000
0
LINE
8
0
10
933.354000
20
-185.953000
11
933.244300
21
-187.605089
0
LINE
8
0
10
933.244300
20
-187.605089
11
932.922233
21
-189.207269
0
LINE
8
0
10
932.922233
20
-189.207269
11
932.398292
21
-190.741365
0
LINE
8
0
10
932.398292
20
-190.741365
11
931.682971
21
-192.189200
0
LINE
8
0
10
931.682971
20
-192.189200
11
930.786763
21
-193.532598
0
LINE
8
0
10
930.786763
20
-193.532598
11
929.720162
21
-194.753384
0
LINE
8
0
10
929.720162
20
-194.753384
11
928.493659
21
-195.833382
0
LINE
8
0
10
928.493659
20
-195.833382
11
927.117750
21
-196.754415
0
LINE
8
0
10
927.117750
20
-196.754415
11
925.632157
21
-197.485471
0
LINE
8
0
10
925.632157
20
-197.485471
11
924.083601
21
-198.007654
0
LINE
8
0
10
924.083601
20
-198.007654
11
922.493069
21
-198.320963
0
LINE
8
0
10
922.493069
20
-198.320963
11
920.881550
21
-198.425400
0
LINE
8
0
10
920.881550
20
-198.425400
11
919.270031
21
-198.320963
0
LINE
8
0
10
919.270031
20
-198.320963
11
917.679499
21
-198.007654
0
LINE
8
0
10
917.679499
20
-198.007654
11
916.130943
21
-197.485471
0
LINE
8
0
10
916.130943
20
-197.485471
11
914.645350
21
-196.754415
0
LINE
8
0
10
914.645350
20
-196.754415
11
913.269441
21
-195.833382
0
LINE
8
0
10
913.269441
20
-195.833382
11
912.042939
21
-194.753384
0
LINE
8
0
10
912.042939
20
-194.753384
11
910.976339
21
-193.532598
0
LINE
8
0
10
910.976339
20
-193.532598
11
910.080135
21
-192.189200
0
LINE
8
0
10
910.080135
20
-192.189200
11
909.364820
21
-190.741365
0
LINE
8
0
10
909.364820
20
-190.741365
11
908.840888
21
-189.207269
0
LINE
8
0
10
908.840888
20
-189.207269
11
908.518833
21
-187.605089
0
LINE
8
0
10
908.518833
20
-187.605089
11
908.409150
21
-185.953000
0
LINE
8
0
10
908.409150
20
-185.953000
11
908.518842
21
-184.300911
0
LINE
8
0
10
908.518842
20
-184.300911
11
908.840902
21
-182.698731
0
LINE
8
0
10
908.840902
20
-182.698731
11
909.364839
21
-181.164635
0
LINE
8
0
10
909.364839
20
-181.164635
11
910.080157
21
-179.716800
0
LINE
8
0
10
910.080157
20
-179.716800
11
910.976363
21
-178.373402
0
LINE
8
0
10
910.976363
20
-178.373402
11
912.042964
21
-177.152616
0
LINE
8
0
10
912.042964
20
-177.152616
11
913.269466
21
-176.072618
0
LINE
8
0
10
913.269466
20
-176.072618
11
914.645375
21
-175.151585
0
LINE
8
0
10
914.645375
20
-175.151585
11
916.130968
21
-174.420529
0
LINE
8
0
10
916.130968
20
-174.420529
11
917.679524
21
-173.898346
0
LINE
8
0
10
917.679524
20
-173.898346
11
919.270056
21
-173.585037
0
LINE
8
0
10
919.270056
20
-173.585037
11
920.881575
21
-173.480600
0
LINE
8
0
10
920.881575
20
-173.480600
11
922.493094
21
-173.585037
0
LINE
8
0
10
922.493094
20
-173.585037
11
924.083626
21
-173.898346
0
LINE
8
0
10
924.083626
20
-173.898346
11
925.632182
21
-174.420529
0
LINE
8
0
10
925.632182
20
-174.420529
11
927.117775
21
-175.151585
0
LINE
8
0
10
927.117775
20
-175.151585
11
928.493684
21
-176.072618
0
LINE
8
0
10
928.493684
20
-176.072618
11
929.720186
21
-177.152616
0
LINE
8
0
10
929.720186
20
-177.152616
11
930.786786
21
-178.373402
0
LINE
8
0
10
930.786786
20
-178.373402
11
931.682990
21
-179.716800
0
LINE
8
0
10
931.682990
20
-179.716800
11
932.398305
21
-181.164635
0
LINE
8
0
10
932.398305
20
-181.164635
11
932.922237
21
-182.698731
0
LINE
8
0
10
932.922237
20
-182.698731
11
933.244292
21
-184.300911
0
LINE
8
0
10
933.244292
20
-184.300911
11
933.353975
21
-185.953000
0
LINE
8
0
10
933.353975
20
-185.953000
11
933.354000
21
-185.953000
0
LINE
8
0
10
785.197000
20
-321.260000
11
785.000749
21
-322.739218
0
LINE
8
0
10
785.000749
20
-322.739218
11
784.437450
21
-324.094645
0
LINE
8
0
10
784.437450
20
-324.094645
11
783.545263
21
-325.260187
0
LINE
8
0
10
783.545263
20
-325.260187
11
782.362345
21
-326.169749
0
LINE
8
0
10
782.362345
20
-326.169749
11
780.983182
21
-326.739405
0
LINE
8
0
10
780.983182
20
-326.739405
11
779.527700
21
-326.929290
0
LINE
8
0
10
779.527700
20
-326.929290
11
778.072218
21
-326.739405
0
LINE
8
0
10
778.072218
20
-326.739405
11
776.693055
21
-326.169749
0
LINE
8
0
10
776.693055
20
-326.169749
11
775.510137
21
-325.260187
0
LINE
8
0
10
775.510137
20
-325.260187
11
774.617951
21
-324.094645
0
LINE
8
0
10
774.617951
20
-324.094645
11
774.054655
21
-322.739218
0
LINE
8
0
10
774.054655
20
-322.739218
11
773.858410
21
-321.260000
0
LINE
8
0
10
773.858410
20
-321.260000
11
774.054658
21
-319.780782
0
LINE
8
0
10
774.054658
20
-319.780782
11
774.617955
21
-318.425355
0
LINE
8
0
10
774.617955
20
-318.425355
11
775.510142
21
-317.259813
0
LINE
8
0
10
775.510142
20
-317.259813
11
776.693060
21
-316.350251
0
LINE
8
0
10
776.693060
20
-316.350251
11
778.072223
21
-315.780595
0
LINE
8
0
10
778.072223
20
-315.780595
11
779.527705
21
-315.590710
0
LINE
8
0
10
779.527705
20
-315.590710
11
780.983187
21
-315.780595
0
LINE
8
0
10
780.983187
20
-315.780595
11
782.362350
21
-316.350251
0
LINE
8
0
10
782.362350
20
-316.350251
11
783.545268
21
-317.259813
0
LINE
8
0
10
783.545268
20
-317.259813
11
784.437454
21
-318.425355
0
LINE
8
0
10
784.437454
20
-318.425355
11
785.000750
21
-319.780782
0
LINE
8
0
10
785.000750
20
-319.780782
11
785.196995
21
-321.260000
0
LINE
8
0
10
785.196995
20
-321.260000
11
785.197000
21
-321.260000
0
LINE
8
0
10
856.063000
20
-321.260000
11
855.866749
21
-322.739218
0
LINE
8
0
10
855.866749
20
-322.739218
11
855.303450
21
-324.094645
0
LINE
8
0
10
855.303450
20
-324.094645
11
854.411263
21
-325.260187
0
LINE
8
0
10
854.411263
20
-325.260187
11
853.228345
21
-326.169749
0
LINE
8
0
10
853.228345
20
-326.169749
11
851.849182
21
-326.739405
0
LINE
8
0
10
851.849182
20
-326.739405
11
850.393700
21
-326.929290
0
LINE
8
0
10
850.393700
20
-326.929290
11
848.938218
21
-326.739405
0
LINE
8
0
10
848.938218
20
-326.739405
11
847.559055
21
-326.169749
0
LINE
8
0
10
847.559055
20
-326.169749
11
846.376137
21
-325.260187
0
LINE
8
0
10
846.376137
20
-325.260187
11
845.483951
21
-324.094645
0
LINE
8
0
10
845.483951
20
-324.094645
11
844.920655
21
-322.739218
0
LINE
8
0
10
844.920655
20
-322.739218
11
844.724410
21
-321.260000
0
LINE
8
0
10
844.724410
20
-321.260000
11
844.920658
21
-319.780782
0
LINE
8
0
10
844.920658
20
-319.780782
11
845.483955
21
-318.425355
0
LINE
8
0
10
845.483955
20
-318.425355
11
846.376142
21
-317.259813
0
LINE
8
0
10
846.376142
20
-317.259813
11
847.559060
21
-316.350251
0
LINE
8
0
10
847.559060
20
-316.350251
11
848.938223
21
-315.780595
0
LINE
8
0
10
848.938223
20
-315.780595
11
850.393705
21
-315.590710
0
LINE
8
0
10
850.393705
20
-315.590710
11
851.849187
21
-315.780595
0
LINE
8
0
10
851.849187
20
-315.780595
11
853.228350
21
-316.350251
0
LINE
8
0
10
853.228350
20
-316.350251
11
854.411268
21
-317.259813
0
LINE
8
0
10
854.411268
20
-317.259813
11
855.303454
21
-318.425355
0
LINE
8
0
10
855.303454
20
-318.425355
11
855.866750
21
-319.780782
0
LINE
8
0
10
855.866750
20
-319.780782
11
856.062995
21
-321.260000
0
LINE
8
0
10
856.062995
20
-321.260000
11
856.063000
21
-321.260000
0
LINE
8
0
10
856.063000
20
-215.433000
11
855.866749
21
-216.912218
0
LINE
8
0
10
855.866749
20
-216.912218
11
855.303450
21
-218.267645
0
LINE
8
0
10
855.303450
20
-218.267645
11
854.411263
21
-219.433187
0
LINE
8
0
10
854.411263
20
-219.433187
11
853.228345
21
-220.342749
0
LINE
8
0
10
853.228345
20
-220.342749
11
851.849182
21
-220.912405
0
LINE
8
0
10
851.849182
20
-220.912405
11
850.393700
21
-221.102290
0
LINE
8
0
10
850.393700
20
-221.102290
11
848.938218
21
-220.912405
0
LINE
8
0
10
848.938218
20
-220.912405
11
847.559055
21
-220.342749
0
LINE
8
0
10
847.559055
20
-220.342749
11
846.376137
21
-219.433187
0
LINE
8
0
10
846.376137
20
-219.433187
11
845.483951
21
-218.267645
0
LINE
8
0
10
845.483951
20
-218.267645
11
844.920655
21
-216.912218
0
LINE
8
0
10
844.920655
20
-216.912218
11
844.724410
21
-215.433000
0
LINE
8
0
10
844.724410
20
-215.433000
11
844.920658
21
-213.953782
0
LINE
8
0
10
844.920658
20
-213.953782
11
845.483955
21
-212.598355
0
LINE
8
0
10
845.483955
20
-212.598355
11
846.376142
21
-211.432813
0
LINE
8
0
10
846.376142
20
-211.432813
11
847.559060
21
-210.523251
0
LINE
8
0
10
847.559060
20
-210.523251
11
848.938223
21
-209.953595
0
LINE
8
0
10
848.938223
20
-209.953595
11
850.393705
21
-209.763710
0
LINE
8
0
10
850.393705
20
-209.763710
11
851.849187
21
-209.953595
0
LINE
8
0
10
851.849187
20
-209.953595
11
853.228350
21
-210.523251
0
LINE
8
0
10
853.228350
20
-210.523251
11
854.411268
21
-211.432813
0
LINE
8
0
10
854.411268
20
-211.432813
11
855.303454
21
-212.598355
0
LINE
8
0
10
855.303454
20
-212.598355
11
855.866750
21
-213.953782
0
LINE
8
0
10
855.866750
20
-213.953782
11
856.062995
21
-215.433000
0
LINE
8
0
10
856.062995
20
-215.433000
11
856.063000
21
-215.433000
0
LINE
8
0
10
792.378000
20
-350.740000
11
792.268300
21
-352.392089
0
LINE
8
0
10
792.268300
20
-352.392089
11
791.946233
21
-353.994269
0
LINE
8
0
10
791.946233
20
-353.994269
11
791.422292
21
-355.528365
0
LINE
8
0
10
791.422292
20
-355.528365
11
790.706971
21
-356.976200
0
LINE
8
0
10
790.706971
20
-356.976200
11
789.810763
21
-358.319598
0
LINE
8
0
10
789.810763
20
-358.319598
11
788.744162
21
-359.540384
0
LINE
8
0
10
788.744162
20
-359.540384
11
787.517659
21
-360.620382
0
LINE
8
0
10
787.517659
20
-360.620382
11
786.141750
21
-361.541415
0
LINE
8
0
10
786.141750
20
-361.541415
11
784.656157
21
-362.272471
0
LINE
8
0
10
784.656157
20
-362.272471
11
783.107601
21
-362.794654
0
LINE
8
0
10
783.107601
20
-362.794654
11
781.517069
21
-363.107963
0
LINE
8
0
10
781.517069
20
-363.107963
11
779.905550
21
-363.212400
0
LINE
8
0
10
779.905550
20
-363.212400
11
778.294031
21
-363.107963
0
LINE
8
0
10
778.294031
20
-363.107963
11
776.703499
21
-362.794654
0
LINE
8
0
10
776.703499
20
-362.794654
11
775.154943
21
-362.272471
0
LINE
8
0
10
775.154943
20
-362.272471
11
773.669350
21
-361.541415
0
LINE
8
0
10
773.669350
20
-361.541415
11
772.293441
21
-360.620382
0
LINE
8
0
10
772.293441
20
-360.620382
11
771.066939
21
-359.540384
0
LINE
8
0
10
771.066939
20
-359.540384
11
770.000339
21
-358.319598
0
LINE
8
0
10
770.000339
20
-358.319598
11
769.104135
21
-356.976200
0
LINE
8
0
10
769.104135
20
-356.976200
11
768.388820
21
-355.528365
0
LINE
8
0
10
768.388820
20
-355.528365
11
767.864888
21
-353.994269
0
LINE
8
0
10
767.864888
20
-353.994269
11
767.542833
21
-352.392089
0
LINE
8
0
10
767.542833
20
-352.392089
11
767.433150
21
-350.740000
0
LINE
8
0
10
767.433150
20
-350.740000
11
767.542842
21
-349.087911
0
LINE
8
0
10
767.542842
20
-349.087911
11
767.864902
21
-347.485731
0
LINE
8
0
10
767.864902
20
-347.485731
11
768.388839
21
-345.951635
0
LINE
8
0
10
768.388839
20
-345.951635
11
769.104157
21
-344.503800
0
LINE
8
0
10
769.104157
20
-344.503800
11
770.000363
21
-343.160402
0
LINE
8
0
10
770.000363
20
-343.160402
11
771.066964
21
-341.939616
0
LINE
8
0
10
771.066964
20
-341.939616
11
772.293466
21
-340.859618
0
LINE
8
0
10
772.293466
20
-340.859618
11
773.669375
21
-339.938585
0
LINE
8
0
10
773.669375
20
-339.938585
11
775.154968
21
-339.207529
0
LINE
8
0
10
775.154968
20
-339.207529
11
776.703524
21
-338.685346
0
LINE
8
0
10
776.703524
20
-338.685346
11
778.294056
21
-338.372037
0
LINE
8
0
10
778.294056
20
-338.372037
11
779.905575
21
-338.267600
0
LINE
8
0
10
779.905575
20
-338.267600
11
781.517094
21
-338.372037
0
LINE
8
0
10
781.517094
20
-338.372037
11
783.107626
21
-338.685346
0
LINE
8
0
10
783.107626
20
-338.685346
11
784.656182
21
-339.207529
0
LINE
8
0
10
784.656182
20
-339.207529
11
786.141775
21
-339.938585
0
LINE
8
0
10
786.141775
20
-339.938585
11
787.517684
21
-340.859618
0
LINE
8
0
10
787.517684
20
-340.859618
11
788.744186
21
-341.939616
0
LINE
8
0
10
788.744186
20
-341.939616
11
789.810786
21
-343.160402
0
LINE
8
0
10
789.810786
20
-343.160402
11
790.706990
21
-344.503800
0
LINE
8
0
10
790.706990
20
-344.503800
11
791.422305
21
-345.951635
0
LINE
8
0
10
791.422305
20
-345.951635
11
791.946237
21
-347.485731
0
LINE
8
0
10
791.946237
20
-347.485731
11
792.268292
21
-349.087911
0
LINE
8
0
10
792.268292
20
-349.087911
11
792.377975
21
-350.740000
0
LINE
8
0
10
792.377975
20
-350.740000
11
792.378000
21
-350.740000
0
LINE
8
0
10
926.929000
20
-215.433000
11
926.732749
21
-216.912218
0
LINE
8
0
10
926.732749
20
-216.912218
11
926.169450
21
-218.267645
0
LINE
8
0
10
926.169450
20
-218.267645
11
925.277263
21
-219.433187
0
LINE
8
0
10
925.277263
20
-219.433187
11
924.094345
21
-220.342749
0
LINE
8
0
10
924.094345
20
-220.342749
11
922.715182
21
-220.912405
0
LINE
8
0
10
922.715182
20
-220.912405
11
921.259700
21
-221.102290
0
LINE
8
0
10
921.259700
20
-221.102290
11
919.804218
21
-220.912405
0
LINE
8
0
10
919.804218
20
-220.912405
11
918.425055
21
-220.342749
0
LINE
8
0
10
918.425055
20
-220.342749
11
917.242137
21
-219.433187
0
LINE
8
0
10
917.242137
20
-219.433187
11
916.349951
21
-218.267645
0
LINE
8
0
10
916.349951
20
-218.267645
11
915.786655
21
-216.912218
0
LINE
8
0
10
915.786655
20
-216.912218
11
915.590410
21
-215.433000
0
LINE
8
0
10
915.590410
20
-215.433000
11
915.786658
21
-213.953782
0
LINE
8
0
10
915.786658
20
-213.953782
11
916.349955
21
-212.598355
0
LINE
8
0
10
916.349955
20
-212.598355
11
917.242142
21
-211.432813
0
LINE
8
0
10
917.242142
20
-211.432813
11
918.425060
21
-210.523251
0
LINE
8
0
10
918.425060
20
-210.523251
11
919.804223
21
-209.953595
0
LINE
8
0
10
919.804223
20
-209.953595
11
921.259705
21
-209.763710
0
LINE
8
0
10
921.259705
20
-209.763710
11
922.715187
21
-209.953595
0
LINE
8
0
10
922.715187
20
-209.953595
11
924.094350
21
-210.523251
0
LINE
8
0
10
924.094350
20
-210.523251
11
925.277268
21
-211.432813
0
LINE
8
0
10
925.277268
20
-211.432813
11
926.169454
21
-212.598355
0
LINE
8
0
10
926.169454
20
-212.598355
11
926.732750
21
-213.953782
0
LINE
8
0
10
926.732750
20
-213.953782
11
926.928995
21
-215.433000
0
LINE
8
0
10
926.928995
20
-215.433000
11
926.929000
21
-215.433000
0
LINE
8
0
10
812.343000
20
-254.740000
11
883.163200
21
-254.740000
0
LINE
8
0
10
883.163200
20
-254.740000
11
900.194800
21
-268.574800
0
LINE
8
0
10
900.194800
20
-268.574800
11
888.443500
21
-281.952600
0
LINE
8
0
10
888.443500
20
-281.952600
11
817.623300
21
-281.952600
0
LINE
8
0
10
817.623300
20
-281.952600
11
800.591700
21
-268.117800
0
LINE
8
0
10
800.591700
20
-268.117800
11
812.343000
21
-254.740000
0
LINE
8
0
10
797.205000
20
-270.236000
11
795.703525
21
-270.576822
0
LINE
8
0
10
795.703525
20
-270.576822
11
794.315663
21
-271.207074
0
LINE
8
0
10
794.315663
20
-271.207074
11
793.082416
21
-272.102883
0
LINE
8
0
10
793.082416
20
-272.102883
11
792.044780
21
-273.240381
0
LINE
8
0
10
792.044780
20
-273.240381
11
791.259092
21
-274.564497
0
LINE
8
0
10
791.259092
20
-274.564497
11
790.761611
21
-276.005291
0
LINE
8
0
10
790.761611
20
-276.005291
11
790.563222
21
-277.516587
0
LINE
8
0
10
790.563222
20
-277.516587
11
790.674810
21
-279.052210
0
LINE
8
0
10
790.674810
20
-279.052210
11
804.809410
21
-359.213210
0
LINE
8
0
10
804.809410
20
-359.213210
11
805.491782
21
-362.022185
0
LINE
8
0
10
805.491782
20
-362.022185
11
806.521125
21
-364.710980
0
LINE
8
0
10
806.521125
20
-364.710980
11
807.882841
21
-367.247691
0
LINE
8
0
10
807.882841
20
-367.247691
11
809.562330
21
-369.600410
0
LINE
8
0
10
809.562330
20
-369.600410
11
828.224530
21
-348.355210
0
LINE
8
0
10
828.224530
20
-348.355210
11
817.332930
21
-286.585910
0
LINE
8
0
10
817.332930
20
-286.585910
11
797.205000
21
-270.236000
0
LINE
8
0
10
699.615000
20
-164.363000
11
680.650100
21
-185.952800
0
LINE
8
0
10
680.650100
20
-185.952800
11
613.609500
21
-185.952800
0
LINE
8
0
10
613.609500
20
-185.952800
11
586.854300
21
-164.219600
0
LINE
8
0
10
586.854300
20
-164.219600
11
587.994592
21
-162.987749
0
LINE
8
0
10
587.994592
20
-162.987749
11
589.252318
21
-161.899336
0
LINE
8
0
10
589.252318
20
-161.899336
11
590.613843
21
-160.960775
0
LINE
8
0
10
590.613843
20
-160.960775
11
592.065535
21
-160.178479
0
LINE
8
0
10
592.065535
20
-160.178479
11
593.593760
21
-159.558863
0
LINE
8
0
10
593.593760
20
-159.558863
11
595.184885
21
-159.108340
0
LINE
8
0
10
595.184885
20
-159.108340
11
596.825276
21
-158.833325
0
LINE
8
0
10
596.825276
20
-158.833325
11
598.501300
21
-158.740230
0
LINE
8
0
10
598.501300
20
-158.740230
11
684.668400
21
-158.740230
0
LINE
8
0
10
684.668400
20
-158.740230
11
686.719868
21
-158.833173
0
LINE
8
0
10
686.719868
20
-158.833173
11
688.742185
21
-159.109092
0
LINE
8
0
10
688.742185
20
-159.109092
11
690.723763
21
-159.563627
0
LINE
8
0
10
690.723763
20
-159.563627
11
692.653013
21
-160.192421
0
LINE
8
0
10
692.653013
20
-160.192421
11
694.518350
21
-160.991113
0
LINE
8
0
10
694.518350
20
-160.991113
11
696.308185
21
-161.955344
0
LINE
8
0
10
696.308185
20
-161.955344
11
698.010931
21
-163.080757
0
LINE
8
0
10
698.010931
20
-163.080757
11
699.615000
21
-164.362990
0
LINE
8
0
10
699.615000
20
-164.362990
11
699.615000
21
-164.363000
0
LINE
8
0
10
623.219000
20
-372.330000
11
642.183900
21
-350.740200
0
LINE
8
0
10
642.183900
20
-350.740200
11
709.224500
21
-350.740200
0
LINE
8
0
10
709.224500
20
-350.740200
11
735.979700
21
-372.473400
0
LINE
8
0
10
735.979700
20
-372.473400
11
734.839408
21
-373.705252
0
LINE
8
0
10
734.839408
20
-373.705252
11
733.581683
21
-374.793667
0
LINE
8
0
10
733.581683
20
-374.793667
11
732.220158
21
-375.732229
0
LINE
8
0
10
732.220158
20
-375.732229
11
730.768466
21
-376.514526
0
LINE
8
0
10
730.768466
20
-376.514526
11
729.240241
21
-377.134143
0
LINE
8
0
10
729.240241
20
-377.134143
11
727.649116
21
-377.584667
0
LINE
8
0
10
727.649116
20
-377.584667
11
726.008725
21
-377.859684
0
LINE
8
0
10
726.008725
20
-377.859684
11
724.332700
21
-377.952780
0
LINE
8
0
10
724.332700
20
-377.952780
11
638.165600
21
-377.952780
0
LINE
8
0
10
638.165600
20
-377.952780
11
636.114131
21
-377.859836
0
LINE
8
0
10
636.114131
20
-377.859836
11
634.091814
21
-377.583916
0
LINE
8
0
10
634.091814
20
-377.583916
11
632.110237
21
-377.129379
0
LINE
8
0
10
632.110237
20
-377.129379
11
630.180986
21
-376.500585
0
LINE
8
0
10
630.180986
20
-376.500585
11
628.315649
21
-375.701891
0
LINE
8
0
10
628.315649
20
-375.701891
11
626.525814
21
-374.737658
0
LINE
8
0
10
626.525814
20
-374.737658
11
624.823069
21
-373.612245
0
LINE
8
0
10
624.823069
20
-373.612245
11
623.219000
21
-372.330010
0
LINE
8
0
10
623.219000
20
-372.330010
11
623.219000
21
-372.330000
0
LINE
8
0
10
707.001000
20
-177.479000
11
721.135600
21
-257.640000
0
LINE
8
0
10
721.135600
20
-257.640000
11
721.247186
21
-259.175620
0
LINE
8
0
10
721.247186
20
-259.175620
11
721.048796
21
-260.686914
0
LINE
8
0
10
721.048796
20
-260.686914
11
720.551316
21
-262.127706
0
LINE
8
0
10
720.551316
20
-262.127706
11
719.765630
21
-263.451819
0
LINE
8
0
10
719.765630
20
-263.451819
11
718.727996
21
-264.589315
0
LINE
8
0
10
718.727996
20
-264.589315
11
717.494751
21
-265.485124
0
LINE
8
0
10
717.494751
20
-265.485124
11
716.106892
21
-266.115376
0
LINE
8
0
10
716.106892
20
-266.115376
11
714.605420
21
-266.456200
0
LINE
8
0
10
714.605420
20
-266.456200
11
694.477520
21
-250.106300
0
LINE
8
0
10
694.477520
20
-250.106300
11
683.585920
21
-188.337000
0
LINE
8
0
10
683.585920
20
-188.337000
11
702.248120
21
-167.091800
0
LINE
8
0
10
702.248120
20
-167.091800
11
703.927609
21
-169.444519
0
LINE
8
0
10
703.927609
20
-169.444519
11
705.289325
21
-171.981230
0
LINE
8
0
10
705.289325
20
-171.981230
11
706.318668
21
-174.670025
0
LINE
8
0
10
706.318668
20
-174.670025
11
707.001040
21
-177.479000
0
LINE
8
0
10
707.001040
20
-177.479000
11
707.001000
21
-177.479000
0
LINE
8
0
10
744.378000
20
-185.953000
11
744.268300
21
-187.605089
0
LINE
8
0
10
744.268300
20
-187.605089
11
743.946233
21
-189.207269
0
LINE
8
0
10
743.946233
20
-189.207269
11
743.422292
21
-190.741365
0
LINE
8
0
10
743.422292
20
-190.741365
11
742.706971
21
-192.189200
0
LINE
8
0
10
742.706971
20
-192.189200
11
741.810763
21
-193.532598
0
LINE
8
0
10
741.810763
20
-193.532598
11
740.744162
21
-194.753384
0
LINE
8
0
10
740.744162
20
-194.753384
11
739.517659
21
-195.833382
0
LINE
8
0
10
739.517659
20
-195.833382
11
738.141750
21
-196.754415
0
LINE
8
0
10
738.141750
20
-196.754415
11
736.656157
21
-197.485471
0
LINE
8
0
10
736.656157
20
-197.485471
11
735.107601
21
-198.007654
0
LINE
8
0
10
735.107601
20
-198.007654
11
733.517069
21
-198.320963
0
LINE
8
0
10
733.517069
20
-198.320963
11
731.905550
21
-198.425400
0
LINE
8
0
10
731.905550
20
-198.425400
11
730.294031
21
-198.320963
0
LINE
8
0
10
730.294031
20
-198.320963
11
728.703499
21
-198.007654
0
LINE
8
0
10
728.703499
20
-198.007654
11
727.154943
21
-197.485471
0
LINE
8
0
10
727.154943
20
-197.485471
11
725.669350
21
-196.754415
0
LINE
8
0
10
725.669350
20
-196.754415
11
724.293441
21
-195.833382
0
LINE
8
0
10
724.293441
20
-195.833382
11
723.066939
21
-194.753384
0
LINE
8
0
10
723.066939
20
-194.753384
11
722.000339
21
-193.532598
0
LINE
8
0
10
722.000339
20
-193.532598
11
721.104135
21
-192.189200
0
LINE
8
0
10
721.104135
20
-192.189200
11
720.388820
21
-190.741365
0
LINE
8
0
10
720.388820
20
-190.741365
11
719.864888
21
-189.207269
0
LINE
8
0
10
719.864888
20
-189.207269
11
719.542833
21
-187.605089
0
LINE
8
0
10
719.542833
20
-187.605089
11
719.433150
21
-185.953000
0
LINE
8
0
10
719.433150
20
-185.953000
11
719.542842
21
-184.300911
0
LINE
8
0
10
719.542842
20
-184.300911
11
719.864902
21
-182.698731
0
LINE
8
0
10
719.864902
20
-182.698731
11
720.388839
21
-181.164635
0
LINE
8
0
10
720.388839
20
-181.164635
11
721.104157
21
-179.716800
0
LINE
8
0
10
721.104157
20
-179.716800
11
722.000363
21
-178.373402
0
LINE
8
0
10
722.000363
20
-178.373402
11
723.066964
21
-177.152616
0
LINE
8
0
10
723.066964
20
-177.152616
11
724.293466
21
-176.072618
0
LINE
8
0
10
724.293466
20
-176.072618
11
725.669375
21
-175.151585
0
LINE
8
0
10
725.669375
20
-175.151585
11
727.154968
21
-174.420529
0
LINE
8
0
10
727.154968
20
-174.420529
11
728.703524
21
-173.898346
0
LINE
8
0
10
728.703524
20
-173.898346
11
730.294056
21
-173.585037
0
LINE
8
0
10
730.294056
20
-173.585037
11
731.905575
21
-173.480600
0
LINE
8
0
10
731.905575
20
-173.480600
11
733.517094
21
-173.585037
0
LINE
8
0
10
733.517094
20
-173.585037
11
735.107626
21
-173.898346
0
LINE
8
0
10
735.107626
20
-173.898346
11
736.656182
21
-174.420529
0
LINE
8
0
10
736.656182
20
-174.420529
11
738.141775
21
-175.151585
0
LINE
8
0
10
738.141775
20
-175.151585
11
739.517684
21
-176.072618
0
LINE
8
0
10
739.517684
20
-176.072618
11
740.744186
21
-177.152616
0
LINE
8
0
10
740.744186
20
-177.152616
11
741.810786
21
-178.373402
0
LINE
8
0
10
741.810786
20
-178.373402
11
742.706990
21
-179.716800
0
LINE
8
0
10
742.706990
20
-179.716800
11
743.422305
21
-181.164635
0
LINE
8
0
10
743.422305
20
-181.164635
11
743.946237
21
-182.698731
0
LINE
8
0
10
743.946237
20
-182.698731
11
744.268292
21
-184.300911
0
LINE
8
0
10
744.268292
20
-184.300911
11
744.377975
21
-185.953000
0
LINE
8
0
10
744.377975
20
-185.953000
11
744.378000
21
-185.953000
0
LINE
8
0
10
596.220000
20
-321.260000
11
596.023749
21
-322.739218
0
LINE
8
0
10
596.023749
20
-322.739218
11
595.460450
21
-324.094645
0
LINE
8
0
10
595.460450
20
-324.094645
11
594.568263
21
-325.260187
0
LINE
8
0
10
594.568263
20
-325.260187
11
593.385345
21
-326.169749
0
LINE
8
0
10
593.385345
20
-326.169749
11
592.006182
21
-326.739405
0
LINE
8
0
10
592.006182
20
-326.739405
11
590.550700
21
-326.929290
0
LINE
8
0
10
590.550700
20
-326.929290
11
589.095218
21
-326.739405
0
LINE
8
0
10
589.095218
20
-326.739405
11
587.716055
21
-326.169749
0
LINE
8
0
10
587.716055
20
-326.169749
11
586.533137
21
-325.260187
0
LINE
8
0
10
586.533137
20
-325.260187
11
585.640951
21
-324.094645
0
LINE
8
0
10
585.640951
20
-324.094645
11
585.077655
21
-322.739218
0
LINE
8
0
10
585.077655
20
-322.739218
11
584.881410
21
-321.260000
0
LINE
8
0
10
584.881410
20
-321.260000
11
585.077658
21
-319.780782
0
LINE
8
0
10
585.077658
20
-319.780782
11
585.640955
21
-318.425355
0
LINE
8
0
10
585.640955
20
-318.425355
11
586.533142
21
-317.259813
0
LINE
8
0
10
586.533142
20
-317.259813
11
587.716060
21
-316.350251
0
LINE
8
0
10
587.716060
20
-316.350251
11
589.095223
21
-315.780595
0
LINE
8
0
10
589.095223
20
-315.780595
11
590.550705
21
-315.590710
0
LINE
8
0
10
590.550705
20
-315.590710
11
592.006187
21
-315.780595
0
LINE
8
0
10
592.006187
20
-315.780595
11
593.385350
21
-316.350251
0
LINE
8
0
10
593.385350
20
-316.350251
11
594.568268
21
-317.259813
0
LINE
8
0
10
594.568268
20
-317.259813
11
595.460454
21
-318.425355
0
LINE
8
0
10
595.460454
20
-318.425355
11
596.023750
21
-319.780782
0
LINE
8
0
10
596.023750
20
-319.780782
11
596.219995
21
-321.260000
0
LINE
8
0
10
596.219995
20
-321.260000
11
596.220000
21
-321.260000
0
LINE
8
0
10
667.087000
20
-321.260000
11
666.890749
21
-322.739218
0
LINE
8
0
10
666.890749
20
-322.739218
11
666.327450
21
-324.094645
0
LINE
8
0
10
666.327450
20
-324.094645
11
665.435263
21
-325.260187
0
LINE
8
0
10
665.435263
20
-325.260187
11
664.252345
21
-326.169749
0
LINE
8
0
10
664.252345
20
-326.169749
11
662.873182
21
-326.739405
0
LINE
8
0
10
662.873182
20
-326.739405
11
661.417700
21
-326.929290
0
LINE
8
0
10
661.417700
20
-326.929290
11
659.962218
21
-326.739405
0
LINE
8
0
10
659.962218
20
-326.739405
11
658.583055
21
-326.169749
0
LINE
8
0
10
658.583055
20
-326.169749
11
657.400137
21
-325.260187
0
LINE
8
0
10
657.400137
20
-325.260187
11
656.507951
21
-324.094645
0
LINE
8
0
10
656.507951
20
-324.094645
11
655.944655
21
-322.739218
0
LINE
8
0
10
655.944655
20
-322.739218
11
655.748410
21
-321.260000
0
LINE
8
0
10
655.748410
20
-321.260000
11
655.944658
21
-319.780782
0
LINE
8
0
10
655.944658
20
-319.780782
11
656.507955
21
-318.425355
0
LINE
8
0
10
656.507955
20
-318.425355
11
657.400142
21
-317.259813
0
LINE
8
0
10
657.400142
20
-317.259813
11
658.583060
21
-316.350251
0
LINE
8
0
10
658.583060
20
-316.350251
11
659.962223
21
-315.780595
0
LINE
8
0
10
659.962223
20
-315.780595
11
661.417705
21
-315.590710
0
LINE
8
0
10
661.417705
20
-315.590710
11
662.873187
21
-315.780595
0
LINE
8
0
10
662.873187
20
-315.780595
11
664.252350
21
-316.350251
0
LINE
8
0
10
664.252350
20
-316.350251
11
665.435268
21
-317.259813
0
LINE
8
0
10
665.435268
20
-317.259813
11
666.327454
21
-318.425355
0
LINE
8
0
10
666.327454
20
-318.425355
11
666.890750
21
-319.780782
0
LINE
8
0
10
666.890750
20
-319.780782
11
667.086995
21
-321.260000
0
LINE
8
0
10
667.086995
20
-321.260000
11
667.087000
21
-321.260000
0
LINE
8
0
10
667.087000
20
-215.433000
11
666.890749
21
-216.912218
0
LINE
8
0
10
666.890749
20
-216.912218
11
666.327450
21
-218.267645
0
LINE
8
0
10
666.327450
20
-218.267645
11
665.435263
21
-219.433187
0
LINE
8
0
10
665.435263
20
-219.433187
11
664.252345
21
-220.342749
0
LINE
8
0
10
664.252345
20
-220.342749
11
662.873182
21
-220.912405
0
LINE
8
0
10
662.873182
20
-220.912405
11
661.417700
21
-221.102290
0
LINE
8
0
10
661.417700
20
-221.102290
11
659.962218
21
-220.912405
0
LINE
8
0
10
659.962218
20
-220.912405
11
658.583055
21
-220.342749
0
LINE
8
0
10
658.583055
20
-220.342749
11
657.400137
21
-219.433187
0
LINE
8
0
10
657.400137
20
-219.433187
11
656.507951
21
-218.267645
0
LINE
8
0
10
656.507951
20
-218.267645
11
655.944655
21
-216.912218
0
LINE
8
0
10
655.944655
20
-216.912218
11
655.748410
21
-215.433000
0
LINE
8
0
10
655.748410
20
-215.433000
11
655.944658
21
-213.953782
0
LINE
8
0
10
655.944658
20
-213.953782
11
656.507955
21
-212.598355
0
LINE
8
0
10
656.507955
20
-212.598355
11
657.400142
21
-211.432813
0
LINE
8
0
10
657.400142
20
-211.432813
11
658.583060
21
-210.523251
0
LINE
8
0
10
658.583060
20
-210.523251
11
659.962223
21
-209.953595
0
LINE
8
0
10
659.962223
20
-209.953595
11
661.417705
21
-209.763710
0
LINE
8
0
10
661.417705
20
-209.763710
11
662.873187
21
-209.953595
0
LINE
8
0
10
662.873187
20
-209.953595
11
664.252350
21
-210.523251
0
LINE
8
0
10
664.252350
20
-210.523251
11
665.435268
21
-211.432813
0
LINE
8
0
10
665.435268
20
-211.432813
11
666.327454
21
-212.598355
0
LINE
8
0
10
666.327454
20
-212.598355
11
666.890750
21
-213.953782
0
LINE
8
0
10
666.890750
20
-213.953782
11
667.086995
21
-215.433000
0
LINE
8
0
10
667.086995
20
-215.433000
11
667.087000
21
-215.433000
0
LINE
8
0
10
603.402000
20
-350.740000
11
603.292300
21
-352.392089
0
LINE
8
0
10
603.292300
20
-352.392089
11
602.970233
21
-353.994269
0
LINE
8
0
10
602.970233
20
-353.994269
11
602.446292
21
-355.528365
0
LINE
8
0
10
602.446292
20
-355.528365
11
601.730971
21
-356.976200
0
LINE
8
0
10
601.730971
20
-356.976200
11
600.834763
21
-358.319598
0
LINE
8
0
10
600.834763
20
-358.319598
11
599.768162
21
-359.540384
0
LINE
8
0
10
599.768162
20
-359.540384
11
598.541659
21
-360.620382
0
LINE
8
0
10
598.541659
20
-360.620382
11
597.165750
21
-361.541415
0
LINE
8
0
10
597.165750
20
-361.541415
11
595.680157
21
-362.272471
0
LINE
8
0
10
595.680157
20
-362.272471
11
594.131601
21
-362.794654
0
LINE
8
0
10
594.131601
20
-362.794654
11
592.541069
21
-363.107963
0
LINE
8
0
10
592.541069
20
-363.107963
11
590.929550
21
-363.212400
0
LINE
8
0
10
590.929550
20
-363.212400
11
589.318031
21
-363.107963
0
LINE
8
0
10
589.318031
20
-363.107963
11
587.727499
21
-362.794654
0
LINE
8
0
10
587.727499
20
-362.794654
11
586.178943
21
-362.272471
0
LINE
8
0
10
586.178943
20
-362.272471
11
584.693350
21
-361.541415
0
LINE
8
0
10
584.693350
20
-361.541415
11
583.317441
21
-360.620382
0
LINE
8
0
10
583.317441
20
-360.620382
11
582.090939
21
-359.540384
0
LINE
8
0
10
582.090939
20
-359.540384
11
581.024339
21
-358.319598
0
LINE
8
0
10
581.024339
20
-358.319598
11
580.128135
21
-356.976200
0
LINE
8
0
10
580.128135
20
-356.976200
11
579.412820
21
-355.528365
0
LINE
8
0
10
579.412820
20
-355.528365
11
578.888888
21
-353.994269
0
LINE
8
0
10
578.888888
20
-353.994269
11
578.566833
21
-352.392089
0
LINE
8
0
10
578.566833
20
-352.392089
11
578.457150
21
-350.740000
0
LINE
8
0
10
578.457150
20
-350.740000
11
578.566842
21
-349.087911
0
LINE
8
0
10
578.566842
20
-349.087911
11
578.888902
21
-347.485731
0
LINE
8
0
10
578.888902
20
-347.485731
11
579.412839
21
-345.951635
0
LINE
8
0
10
579.412839
20
-345.951635
11
580.128157
21
-344.503800
0
LINE
8
0
10
580.128157
20
-344.503800
11
581.024363
21
-343.160402
0
LINE
8
0
10
581.024363
20
-343.160402
11
582.090964
21
-341.939616
0
LINE
8
0
10
582.090964
20
-341.939616
11
583.317466
21
-340.859618
0
LINE
8
0
10
583.317466
20
-340.859618
11
584.693375
21
-339.938585
0
LINE
8
0
10
584.693375
20
-339.938585
11
586.178968
21
-339.207529
0
LINE
8
0
10
586.178968
20
-339.207529
11
587.727524
21
-338.685346
0
LINE
8
0
10
587.727524
20
-338.685346
11
589.318056
21
-338.372037
0
LINE
8
0
10
589.318056
20
-338.372037
11
590.929575
21
-338.267600
0
LINE
8
0
10
590.929575
20
-338.267600
11
592.541094
21
-338.372037
0
LINE
8
0
10
592.541094
20
-338.372037
11
594.131626
21
-338.685346
0
LINE
8
0
10
594.131626
20
-338.685346
11
595.680182
21
-339.207529
0
LINE
8
0
10
595.680182
20
-339.207529
11
597.165775
21
-339.938585
0
LINE
8
0
10
597.165775
20
-339.938585
11
598.541684
21
-340.859618
0
LINE
8
0
10
598.541684
20
-340.859618
11
599.768186
21
-341.939616
0
LINE
8
0
10
599.768186
20
-341.939616
11
600.834786
21
-343.160402
0
LINE
8
0
10
600.834786
20
-343.160402
11
601.730990
21
-344.503800
0
LINE
8
0
10
601.730990
20
-344.503800
11
602.446305
21
-345.951635
0
LINE
8
0
10
602.446305
20
-345.951635
11
602.970237
21
-347.485731
0
LINE
8
0
10
602.970237
20
-347.485731
11
603.292292
21
-349.087911
0
LINE
8
0
10
603.292292
20
-349.087911
11
603.401975
21
-350.740000
0
LINE
8
0
10
603.401975
20
-350.740000
11
603.402000
21
-350.740000
0
LINE
8
0
10
737.953000
20
-215.433000
11
737.756749
21
-216.912218
0
LINE
8
0
10
737.756749
20
-216.912218
11
737.193450
21
-218.267645
0
LINE
8
0
10
737.193450
20
-218.267645
11
736.301263
21
-219.433187
0
LINE
8
0
10
736.301263
20
-219.433187
11
735.118345
21
-220.342749
0
LINE
8
0
10
735.118345
20
-220.342749
11
733.739182
21
-220.912405
0
LINE
8
0
10
733.739182
20
-220.912405
11
732.283700
21
-221.102290
0
LINE
8
0
10
732.283700
20
-221.102290
11
730.828218
21
-220.912405
0
LINE
8
0
10
730.828218
20
-220.912405
11
729.449055
21
-220.342749
0
LINE
8
0
10
729.449055
20
-220.342749
11
728.266137
21
-219.433187
0
LINE
8
0
10
728.266137
20
-219.433187
11
727.373951
21
-218.267645
0
LINE
8
0
10
727.373951
20
-218.267645
11
726.810655
21
-216.912218
0
LINE
8
0
10
726.810655
20
-216.912218
11
726.614410
21
-215.433000
0
LINE
8
0
10
726.614410
20
-215.433000
11
726.810658
21
-213.953782
0
LINE
8
0
10
726.810658
20
-213.953782
11
727.373955
21
-212.598355
0
LINE
8
0
10
727.373955
20
-212.598355
11
728.266142
21
-211.432813
0
LINE
8
0
10
728.266142
20
-211.432813
11
729.449060
21
-210.523251
0
LINE
8
0
10
729.449060
20
-210.523251
11
730.828223
21
-209.953595
0
LINE
8
0
10
730.828223
20
-209.953595
11
732.283705
21
-209.763710
0
LINE
8
0
10
732.283705
20
-209.763710
11
733.739187
21
-209.953595
0
LINE
8
0
10
733.739187
20
-209.953595
11
735.118350
21
-210.523251
0
LINE
8
0
10
735.118350
20
-210.523251
11
736.301268
21
-211.432813
0
LINE
8
0
10
736.301268
20
-211.432813
11
737.193454
21
-212.598355
0
LINE
8
0
10
737.193454
20
-212.598355
11
737.756750
21
-213.953782
0
LINE
8
0
10
737.756750
20
-213.953782
11
737.952995
21
-215.433000
0
LINE
8
0
10
737.952995
20
-215.433000
11
737.953000
21
-215.433000
0
LINE
8
0
10
623.367000
20
-254.740000
11
694.187200
21
-254.740000
0
LINE
8
0
10
694.187200
20
-254.740000
11
711.218800
21
-268.574800
0
LINE
8
0
10
711.218800
20
-268.574800
11
699.467500
21
-281.952600
0
LINE
8
0
10
699.467500
20
-281.952600
11
628.647300
21
-281.952600
0
LINE
8
0
10
628.647300
20
-281.952600
11
611.615700
21
-268.117800
0
LINE
8
0
10
611.615700
20
-268.117800
11
623.367000
21
-254.740000
0
LINE
8
0
10
608.229000
20
-270.236000
11
606.727525
21
-270.576822
0
LINE
8
0
10
606.727525
20
-270.576822
11
605.339663
21
-271.207074
0
LINE
8
0
10
605.339663
20
-271.207074
11
604.106416
21
-272.102883
0
LINE
8
0
10
604.106416
20
-272.102883
11
603.068780
21
-273.240381
0
LINE
8
0
10
603.068780
20
-273.240381
11
602.283092
21
-274.564497
0
LINE
8
0
10
602.283092
20
-274.564497
11
601.785611
21
-276.005291
0
LINE
8
0
10
601.785611
20
-276.005291
11
601.587222
21
-277.516587
0
LINE
8
0
10
601.587222
20
-277.516587
11
601.698810
21
-279.052210
0
LINE
8
0
10
601.698810
20
-279.052210
11
615.833410
21
-359.213210
0
LINE
8
0
10
615.833410
20
-359.213210
11
616.515782
21
-362.022185
0
LINE
8
0
10
616.515782
20
-362.022185
11
617.545125
21
-364.710980
0
LINE
8
0
10
617.545125
20
-364.710980
11
618.906841
21
-367.247691
0
LINE
8
0
10
618.906841
20
-367.247691
11
620.586330
21
-369.600410
0
LINE
8
0
10
620.586330
20
-369.600410
11
639.248530
21
-348.355210
0
LINE
8
0
10
639.248530
20
-348.355210
11
628.356930
21
-286.585910
0
LINE
8
0
10
628.356930
20
-286.585910
11
608.229000
21
-270.236000
0
LINE
8
Layer 1
10
178.833000
20
109.768000
11
178.699025
21
109.268000
0
LINE
8
Layer 1
10
178.699025
20
109.268000
11
178.333000
21
108.901975
0
LINE
8
Layer 1
10
178.333000
20
108.901975
11
177.833000
21
108.768000
0
LINE
8
Layer 1
10
177.833000
20
108.768000
11
177.333000
21
108.901975
0
LINE
8
Layer 1
10
177.333000
20
108.901975
11
176.966975
21
109.268000
0
LINE
8
Layer 1
10
176.966975
20
109.268000
11
176.833000
21
109.768000
0
LINE
8
Layer 1
10
176.833000
20
109.768000
11
176.966975
21
110.268000
0
LINE
8
Layer 1
10
176.966975
20
110.268000
11
177.333000
21
110.634025
0
LINE
8
Layer 1
10
177.333000
20
110.634025
11
177.833000
21
110.768000
0
LINE
8
Layer 1
10
177.833000
20
110.768000
11
178.333000
21
110.634025
0
LINE
8
Layer 1
10
178.333000
20
110.634025
11
178.699025
21
110.268000
0
LINE
8
Layer 1
10
178.699025
20
110.268000
11
178.833000
21
109.768000
0
LINE
8
Layer 1
10
178.833000
20
109.768000
11
178.833000
21
109.768000
0
LINE
8
Layer 1
10
107.333000
20
109.768000
11
107.132038
21
109.018000
0
LINE
8
Layer 1
10
107.132038
20
109.018000
11
106.583000
21
108.468962
0
LINE
8
Layer 1
10
106.583000
20
108.468962
11
105.833000
21
108.268000
0
LINE
8
Layer 1
10
105.833000
20
108.268000
11
105.083000
21
108.468962
0
LINE
8
Layer 1
10
105.083000
20
108.468962
11
104.533962
21
109.018000
0
LINE
8
Layer 1
10
104.533962
20
109.018000
11
104.333000
21
109.768000
0
LINE
8
Layer 1
10
104.333000
20
109.768000
11
104.533962
21
110.518000
0
LINE
8
Layer 1
10
104.533962
20
110.518000
11
105.083000
21
111.067038
0
LINE
8
Layer 1
10
105.083000
20
111.067038
11
105.833000
21
111.268000
0
LINE
8
Layer 1
10
105.833000
20
111.268000
11
106.583000
21
111.067038
0
LINE
8
Layer 1
10
106.583000
20
111.067038
11
107.132038
21
110.518000
0
LINE
8
Layer 1
10
107.132038
20
110.518000
11
107.333000
21
109.768000
0
LINE
8
Layer 1
10
107.333000
20
109.768000
11
107.333000
21
109.768000
0
LINE
8
Layer 1
10
34.833300
20
109.768000
11
34.700822
21
109.266112
0
LINE
8
Layer 1
10
34.700822
20
109.266112
11
34.334600
21
108.898249
0
LINE
8
Layer 1
10
34.334600
20
108.898249
11
33.833310
21
108.763528
0
LINE
8
Layer 1
10
33.833310
20
108.763528
11
33.332020
21
108.898249
0
LINE
8
Layer 1
10
33.332020
20
108.898249
11
32.965798
21
109.266112
0
LINE
8
Layer 1
10
32.965798
20
109.266112
11
32.833320
21
109.768000
0
LINE
8
Layer 1
10
32.833320
20
109.768000
11
32.965798
21
110.269888
0
LINE
8
Layer 1
10
32.965798
20
110.269888
11
33.332020
21
110.637751
0
LINE
8
Layer 1
10
33.332020
20
110.637751
11
33.833310
21
110.772472
0
LINE
8
Layer 1
10
33.833310
20
110.772472
11
34.334600
21
110.637751
0
LINE
8
Layer 1
10
34.334600
20
110.637751
11
34.700822
21
110.269888
0
LINE
8
Layer 1
10
34.700822
20
110.269888
11
34.833300
21
109.768000
0
LINE
8
Layer 1
10
34.833300
20
109.768000
11
34.833300
21
109.768000
0
LINE
8
Layer 1
10
190.333000
20
109.768000
11
190.132038
21
109.018000
0
LINE
8
Layer 1
10
190.132038
20
109.018000
11
189.583000
21
108.468962
0
LINE
8
Layer 1
10
189.583000
20
108.468962
11
188.833000
21
108.268000
0
LINE
8
Layer 1
10
188.833000
20
108.268000
11
188.083000
21
108.468962
0
LINE
8
Layer 1
10
188.083000
20
108.468962
11
187.533962
21
109.018000
0
LINE
8
Layer 1
10
187.533962
20
109.018000
11
187.333000
21
109.768000
0
LINE
8
Layer 1
10
187.333000
20
109.768000
11
187.533962
21
110.518000
0
LINE
8
Layer 1
10
187.533962
20
110.518000
11
188.083000
21
111.067038
0
LINE
8
Layer 1
10
188.083000
20
111.067038
11
188.833000
21
111.268000
0
LINE
8
Layer 1
10
188.833000
20
111.268000
11
189.583000
21
111.067038
0
LINE
8
Layer 1
10
189.583000
20
111.067038
11
190.132038
21
110.518000
0
LINE
8
Layer 1
10
190.132038
20
110.518000
11
190.333000
21
109.768000
0
LINE
8
Layer 1
10
190.333000
20
109.768000
11
190.333000
21
109.768000
0
LINE
8
Layer 1
10
24.333300
20
109.768000
11
24.132338
21
109.018000
0
LINE
8
Layer 1
10
24.132338
20
109.018000
11
23.583300
21
108.468962
0
LINE
8
Layer 1
10
23.583300
20
108.468962
11
22.833300
21
108.268000
0
LINE
8
Layer 1
10
22.833300
20
108.268000
11
22.083300
21
108.468962
0
LINE
8
Layer 1
10
22.083300
20
108.468962
11
21.534262
21
109.018000
0
LINE
8
Layer 1
10
21.534262
20
109.018000
11
21.333300
21
109.768000
0
LINE
8
Layer 1
10
21.333300
20
109.768000
11
21.534262
21
110.518000
0
LINE
8
Layer 1
10
21.534262
20
110.518000
11
22.083300
21
111.067038
0
LINE
8
Layer 1
10
22.083300
20
111.067038
11
22.833300
21
111.268000
0
LINE
8
Layer 1
10
22.833300
20
111.268000
11
23.583300
21
111.067038
0
LINE
8
Layer 1
10
23.583300
20
111.067038
11
24.132338
21
110.518000
0
LINE
8
Layer 1
10
24.132338
20
110.518000
11
24.333300
21
109.768000
0
LINE
8
Layer 1
10
24.333300
20
109.768000
11
24.333300
21
109.768000
0
LINE
8
Layer 1
10
187.833000
20
104.768000
11
189.042210
21
104.889899
0
LINE
8
Layer 1
10
189.042210
20
104.889899
11
190.168471
21
105.239510
0
LINE
8
Layer 1
10
190.168471
20
105.239510
11
191.187658
21
105.792705
0
LINE
8
Layer 1
10
191.187658
20
105.792705
11
192.075641
21
106.525359
0
LINE
8
Layer 1
10
192.075641
20
106.525359
11
192.808295
21
107.413342
0
LINE
8
Layer 1
10
192.808295
20
107.413342
11
193.361490
21
108.432529
0
LINE
8
Layer 1
10
193.361490
20
108.432529
11
193.711101
21
109.558790
0
LINE
8
Layer 1
10
193.711101
20
109.558790
11
193.833000
21
110.768000
0
LINE
8
Layer 1
10
193.833000
20
110.768000
11
193.833000
21
127.968000
0
LINE
8
Layer 1
10
193.833000
20
127.968000
11
183.833000
21
127.968000
0
LINE
8
Layer 1
10
183.833000
20
127.968000
11
183.833000
21
114.768000
0
LINE
8
Layer 1
10
183.833000
20
114.768000
11
27.833300
21
114.768000
0
LINE
8
Layer 1
10
27.833300
20
114.768000
11
27.833300
21
127.968000
0
LINE
8
Layer 1
10
27.833300
20
127.968000
11
17.833320
21
127.968000
0
LINE
8
Layer 1
10
17.833320
20
127.968000
11
17.833320
21
110.768000
0
LINE
8
Layer 1
10
17.833320
20
110.768000
11
17.955218
21
109.558794
0
LINE
8
Layer 1
10
17.955218
20
109.558794
11
18.304828
21
108.432534
0
LINE
8
Layer 1
10
18.304828
20
108.432534
11
18.858022
21
107.413349
0
LINE
8
Layer 1
10
18.858022
20
107.413349
11
19.590673
21
106.525366
0
LINE
8
Layer 1
10
19.590673
20
106.525366
11
20.478653
21
105.792712
0
LINE
8
Layer 1
10
20.478653
20
105.792712
11
21.497836
21
105.239515
0
LINE
8
Layer 1
10
21.497836
20
105.239515
11
22.624094
21
104.889902
0
LINE
8
Layer 1
10
22.624094
20
104.889902
11
23.833300
21
104.768000
0
LINE
8
Layer 1
10
34.833300
20
177.768000
11
34.700822
21
177.266112
0
LINE
8
Layer 1
10
34.700822
20
177.266112
11
34.334600
21
176.898249
0
LINE
8
Layer 1
10
34.334600
20
176.898249
11
33.833310
21
176.763528
0
LINE
8
Layer 1
10
33.833310
20
176.763528
11
33.332020
21
176.898249
0
LINE
8
Layer 1
10
33.332020
20
176.898249
11
32.965798
21
177.266112
0
LINE
8
Layer 1
10
32.965798
20
177.266112
11
32.833320
21
177.768000
0
LINE
8
Layer 1
10
32.833320
20
177.768000
11
32.965798
21
178.269888
0
LINE
8
Layer 1
10
32.965798
20
178.269888
11
33.332020
21
178.637751
0
LINE
8
Layer 1
10
33.332020
20
178.637751
11
33.833310
21
178.772472
0
LINE
8
Layer 1
10
33.833310
20
178.772472
11
34.334600
21
178.637751
0
LINE
8
Layer 1
10
34.334600
20
178.637751
11
34.700822
21
178.269888
0
LINE
8
Layer 1
10
34.700822
20
178.269888
11
34.833300
21
177.768000
0
LINE
8
Layer 1
10
34.833300
20
177.768000
11
34.833300
21
177.768000
0
LINE
8
Layer 1
10
107.333000
20
177.768000
11
107.132038
21
177.018000
0
LINE
8
Layer 1
10
107.132038
20
177.018000
11
106.583000
21
176.468962
0
LINE
8
Layer 1
10
106.583000
20
176.468962
11
105.833000
21
176.268000
0
LINE
8
Layer 1
10
105.833000
20
176.268000
11
105.083000
21
176.468962
0
LINE
8
Layer 1
10
105.083000
20
176.468962
11
104.533962
21
177.018000
0
LINE
8
Layer 1
10
104.533962
20
177.018000
11
104.333000
21
177.768000
0
LINE
8
Layer 1
10
104.333000
20
177.768000
11
104.533962
21
178.518000
0
LINE
8
Layer 1
10
104.533962
20
178.518000
11
105.083000
21
179.067038
0
LINE
8
Layer 1
10
105.083000
20
179.067038
11
105.833000
21
179.268000
0
LINE
8
Layer 1
10
105.833000
20
179.268000
11
106.583000
21
179.067038
0
LINE
8
Layer 1
10
106.583000
20
179.067038
11
107.132038
21
178.518000
0
LINE
8
Layer 1
10
107.132038
20
178.518000
11
107.333000
21
177.768000
0
LINE
8
Layer 1
10
107.333000
20
177.768000
11
107.333000
21
177.768000
0
LINE
8
Layer 1
10
178.833000
20
177.768000
11
178.699025
21
177.268000
0
LINE
8
Layer 1
10
178.699025
20
177.268000
11
178.333000
21
176.901975
0
LINE
8
Layer 1
10
178.333000
20
176.901975
11
177.833000
21
176.768000
0
LINE
8
Layer 1
10
177.833000
20
176.768000
11
177.333000
21
176.901975
0
LINE
8
Layer 1
10
177.333000
20
176.901975
11
176.966975
21
177.268000
0
LINE
8
Layer 1
10
176.966975
20
177.268000
11
176.833000
21
177.768000
0
LINE
8
Layer 1
10
176.833000
20
177.768000
11
176.966975
21
178.268000
0
LINE
8
Layer 1
10
176.966975
20
178.268000
11
177.333000
21
178.634025
0
LINE
8
Layer 1
10
177.333000
20
178.634025
11
177.833000
21
178.768000
0
LINE
8
Layer 1
10
177.833000
20
178.768000
11
178.333000
21
178.634025
0
LINE
8
Layer 1
10
178.333000
20
178.634025
11
178.699025
21
178.268000
0
LINE
8
Layer 1
10
178.699025
20
178.268000
11
178.833000
21
177.768000
0
LINE
8
Layer 1
10
178.833000
20
177.768000
11
178.833000
21
177.768000
0
LINE
8
Layer 1
10
190.333000
20
177.768000
11
190.132038
21
177.018000
0
LINE
8
Layer 1
10
190.132038
20
177.018000
11
189.583000
21
176.468962
0
LINE
8
Layer 1
10
189.583000
20
176.468962
11
188.833000
21
176.268000
0
LINE
8
Layer 1
10
188.833000
20
176.268000
11
188.083000
21
176.468962
0
LINE
8
Layer 1
10
188.083000
20
176.468962
11
187.533962
21
177.018000
0
LINE
8
Layer 1
10
187.533962
20
177.018000
11
187.333000
21
177.768000
0
LINE
8
Layer 1
10
187.333000
20
177.768000
11
187.533962
21
178.518000
0
LINE
8
Layer 1
10
187.533962
20
178.518000
11
188.083000
21
179.067038
0
LINE
8
Layer 1
10
188.083000
20
179.067038
11
188.833000
21
179.268000
0
LINE
8
Layer 1
10
188.833000
20
179.268000
11
189.583000
21
179.067038
0
LINE
8
Layer 1
10
189.583000
20
179.067038
11
190.132038
21
178.518000
0
LINE
8
Layer 1
10
190.132038
20
178.518000
11
190.333000
21
177.768000
0
LINE
8
Layer 1
10
190.333000
20
177.768000
11
190.333000
21
177.768000
0
LINE
8
Layer 1
10
24.333300
20
177.768000
11
24.132338
21
177.018000
0
LINE
8
Layer 1
10
24.132338
20
177.018000
11
23.583300
21
176.468962
0
LINE
8
Layer 1
10
23.583300
20
176.468962
11
22.833300
21
176.268000
0
LINE
8
Layer 1
10
22.833300
20
176.268000
11
22.083300
21
176.468962
0
LINE
8
Layer 1
10
22.083300
20
176.468962
11
21.534262
21
177.018000
0
LINE
8
Layer 1
10
21.534262
20
177.018000
11
21.333300
21
177.768000
0
LINE
8
Layer 1
10
21.333300
20
177.768000
11
21.534262
21
178.518000
0
LINE
8
Layer 1
10
21.534262
20
178.518000
11
22.083300
21
179.067038
0
LINE
8
Layer 1
10
22.083300
20
179.067038
11
22.833300
21
179.268000
0
LINE
8
Layer 1
10
22.833300
20
179.268000
11
23.583300
21
179.067038
0
LINE
8
Layer 1
10
23.583300
20
179.067038
11
24.132338
21
178.518000
0
LINE
8
Layer 1
10
24.132338
20
178.518000
11
24.333300
21
177.768000
0
LINE
8
Layer 1
10
24.333300
20
177.768000
11
24.333300
21
177.768000
0
LINE
8
Layer 1
10
27.833300
20
159.568000
11
27.833300
21
172.768000
0
LINE
8
Layer 1
10
27.833300
20
172.768000
11
183.833000
21
172.768000
0
LINE
8
Layer 1
10
183.833000
20
172.768000
11
183.833000
21
159.568000
0
LINE
8
Layer 1
10
193.833000
20
159.568000
11
193.833000
21
176.768000
0
LINE
8
Layer 1
10
193.833000
20
176.768000
11
193.711101
21
177.977210
0
LINE
8
Layer 1
10
193.711101
20
177.977210
11
193.361490
21
179.103471
0
LINE
8
Layer 1
10
193.361490
20
179.103471
11
192.808295
21
180.122658
0
LINE
8
Layer 1
10
192.808295
20
180.122658
11
192.075641
21
181.010641
0
LINE
8
Layer 1
10
192.075641
20
181.010641
11
191.187658
21
181.743295
0
LINE
8
Layer 1
10
191.187658
20
181.743295
11
190.168471
21
182.296490
0
LINE
8
Layer 1
10
190.168471
20
182.296490
11
189.042210
21
182.646101
0
LINE
8
Layer 1
10
189.042210
20
182.646101
11
187.833000
21
182.768000
0
LINE
8
Layer 1
10
187.833000
20
182.768000
11
23.833300
21
182.768000
0
LINE
8
Layer 1
10
23.833300
20
182.768000
11
22.624094
21
182.646098
0
LINE
8
Layer 1
10
22.624094
20
182.646098
11
21.497836
21
182.296485
0
LINE
8
Layer 1
10
21.497836
20
182.296485
11
20.478653
21
181.743288
0
LINE
8
Layer 1
10
20.478653
20
181.743288
11
19.590673
21
181.010634
0
LINE
8
Layer 1
10
19.590673
20
181.010634
11
18.858022
21
180.122651
0
LINE
8
Layer 1
10
18.858022
20
180.122651
11
18.304828
21
179.103466
0
LINE
8
Layer 1
10
18.304828
20
179.103466
11
17.955218
21
177.977206
0
LINE
8
Layer 1
10
17.955218
20
177.977206
11
17.833320
21
176.768000
0
LINE
8
Layer 1
10
17.833320
20
176.768000
11
17.833320
21
159.568000
0
LINE
8
0
10
-840.945000
20
-396.850000
11
-841.025738
21
-398.103433
0
LINE
8
0
10
-841.025738
20
-398.103433
11
-841.267860
21
-399.319238
0
LINE
8
0
10
-841.267860
20
-399.319238
11
-841.663405
21
-400.483579
0
LINE
8
0
10
-841.663405
20
-400.483579
11
-842.204409
21
-401.582622
0
LINE
8
0
10
-842.204409
20
-401.582622
11
-842.882911
21
-402.602533
0
LINE
8
0
10
-842.882911
20
-402.602533
11
-843.690948
21
-403.529475
0
LINE
8
0
10
-843.690948
20
-403.529475
11
-844.620558
21
-404.349615
0
LINE
8
0
10
-844.620558
20
-404.349615
11
-845.663779
21
-405.049117
0
LINE
8
0
10
-845.663779
20
-405.049117
11
-846.790416
21
-405.604368
0
LINE
8
0
10
-846.790416
20
-405.604368
11
-847.964940
21
-406.000975
0
LINE
8
0
10
-847.964940
20
-406.000975
11
-849.171389
21
-406.238940
0
LINE
8
0
10
-849.171389
20
-406.238940
11
-850.393800
21
-406.318261
0
LINE
8
0
10
-850.393800
20
-406.318261
11
-851.616211
21
-406.238940
0
LINE
8
0
10
-851.616211
20
-406.238940
11
-852.822660
21
-406.000975
0
LINE
8
0
10
-852.822660
20
-406.000975
11
-853.997184
21
-405.604368
0
LINE
8
0
10
-853.997184
20
-405.604368
11
-855.123821
21
-405.049117
0
LINE
8
0
10
-855.123821
20
-405.049117
11
-856.167042
21
-404.349615
0
LINE
8
0
10
-856.167042
20
-404.349615
11
-857.096652
21
-403.529475
0
LINE
8
0
10
-857.096652
20
-403.529475
11
-857.904689
21
-402.602533
0
LINE
8
0
10
-857.904689
20
-402.602533
11
-858.583191
21
-401.582622
0
LINE
8
0
10
-858.583191
20
-401.582622
11
-859.124195
21
-400.483579
0
LINE
8
0
10
-859.124195
20
-400.483579
11
-859.519740
21
-399.319238
0
LINE
8
0
10
-859.519740
20
-399.319238
11
-859.761862
21
-398.103433
0
LINE
8
0
10
-859.761862
20
-398.103433
11
-859.842600
21
-396.850000
0
LINE
8
0
10
-859.842600
20
-396.850000
11
-859.761862
21
-395.596567
0
LINE
8
0
10
-859.761862
20
-395.596567
11
-859.519740
21
-394.380762
0
LINE
8
0
10
-859.519740
20
-394.380762
11
-859.124195
21
-393.216421
0
LINE
8
0
10
-859.124195
20
-393.216421
11
-858.583191
21
-392.117378
0
LINE
8
0
10
-858.583191
20
-392.117378
11
-857.904689
21
-391.097467
0
LINE
8
0
10
-857.904689
20
-391.097467
11
-857.096652
21
-390.170525
0
LINE
8
0
10
-857.096652
20
-390.170525
11
-856.167042
21
-389.350385
0
LINE
8
0
10
-856.167042
20
-389.350385
11
-855.123821
21
-388.650883
0
LINE
8
0
10
-855.123821
20
-388.650883
11
-853.997184
21
-388.095632
0
LINE
8
0
10
-853.997184
20
-388.095632
11
-852.822660
21
-387.699025
0
LINE
8
0
10
-852.822660
20
-387.699025
11
-851.616211
21
-387.461060
0
LINE
8
0
10
-851.616211
20
-387.461060
11
-850.393800
21
-387.381739
0
LINE
8
0
10
-850.393800
20
-387.381739
11
-849.171389
21
-387.461060
0
LINE
8
0
10
-849.171389
20
-387.461060
11
-847.964940
21
-387.699025
0
LINE
8
0
10
-847.964940
20
-387.699025
11
-846.790416
21
-388.095632
0
LINE
8
0
10
-846.790416
20
-388.095632
11
-845.663779
21
-388.650883
0
LINE
8
0
10
-845.663779
20
-388.650883
11
-844.620558
21
-389.350385
0
LINE
8
0
10
-844.620558
20
-389.350385
11
-843.690948
21
-390.170525
0
LINE
8
0
10
-843.690948
20
-390.170525
11
-842.882911
21
-391.097467
0
LINE
8
0
10
-842.882911
20
-391.097467
11
-842.204409
21
-392.117378
0
LINE
8
0
10
-842.204409
20
-392.117378
11
-841.663405
21
-393.216421
0
LINE
8
0
10
-841.663405
20
-393.216421
11
-841.267860
21
-394.380762
0
LINE
8
0
10
-841.267860
20
-394.380762
11
-841.025738
21
-395.596567
0
LINE
8
0
10
-841.025738
20
-395.596567
11
-840.945000
21
-396.850000
0
LINE
8
0
10
-840.945000
20
-396.850000
11
-840.945000
21
-396.850000
0
LINE
8
0
10
-840.945000
20
-139.843000
11
-841.025738
21
-141.096433
0
LINE
8
0
10
-841.025738
20
-141.096433
11
-841.267860
21
-142.312238
0
LINE
8
0
10
-841.267860
20
-142.312238
11
-841.663405
21
-143.476579
0
LINE
8
0
10
-841.663405
20
-143.476579
11
-842.204409
21
-144.575622
0
LINE
8
0
10
-842.204409
20
-144.575622
11
-842.882911
21
-145.595533
0
LINE
8
0
10
-842.882911
20
-145.595533
11
-843.690948
21
-146.522475
0
LINE
8
0
10
-843.690948
20
-146.522475
11
-844.620558
21
-147.342615
0
LINE
8
0
10
-844.620558
20
-147.342615
11
-845.663779
21
-148.042117
0
LINE
8
0
10
-845.663779
20
-148.042117
11
-846.790416
21
-148.597368
0
LINE
8
0
10
-846.790416
20
-148.597368
11
-847.964940
21
-148.993975
0
LINE
8
0
10
-847.964940
20
-148.993975
11
-849.171389
21
-149.231940
0
LINE
8
0
10
-849.171389
20
-149.231940
11
-850.393800
21
-149.311261
0
LINE
8
0
10
-850.393800
20
-149.311261
11
-851.616211
21
-149.231940
0
LINE
8
0
10
-851.616211
20
-149.231940
11
-852.822660
21
-148.993975
0
LINE
8
0
10
-852.822660
20
-148.993975
11
-853.997184
21
-148.597368
0
LINE
8
0
10
-853.997184
20
-148.597368
11
-855.123821
21
-148.042117
0
LINE
8
0
10
-855.123821
20
-148.042117
11
-856.167042
21
-147.342615
0
LINE
8
0
10
-856.167042
20
-147.342615
11
-857.096652
21
-146.522475
0
LINE
8
0
10
-857.096652
20
-146.522475
11
-857.904689
21
-145.595533
0
LINE
8
0
10
-857.904689
20
-145.595533
11
-858.583191
21
-144.575622
0
LINE
8
0
10
-858.583191
20
-144.575622
11
-859.124195
21
-143.476579
0
LINE
8
0
10
-859.124195
20
-143.476579
11
-859.519740
21
-142.312238
0
LINE
8
0
10
-859.519740
20
-142.312238
11
-859.761862
21
-141.096433
0
LINE
8
0
10
-859.761862
20
-141.096433
11
-859.842600
21
-139.843000
0
LINE
8
0
10
-859.842600
20
-139.843000
11
-859.761862
21
-138.589567
0
LINE
8
0
10
-859.761862
20
-138.589567
11
-859.519740
21
-137.373762
0
LINE
8
0
10
-859.519740
20
-137.373762
11
-859.124195
21
-136.209421
0
LINE
8
0
10
-859.124195
20
-136.209421
11
-858.583191
21
-135.110378
0
LINE
8
0
10
-858.583191
20
-135.110378
11
-857.904689
21
-134.090467
0
LINE
8
0
10
-857.904689
20
-134.090467
11
-857.096652
21
-133.163525
0
LINE
8
0
10
-857.096652
20
-133.163525
11
-856.167042
21
-132.343385
0
LINE
8
0
10
-856.167042
20
-132.343385
11
-855.123821
21
-131.643883
0
LINE
8
0
10
-855.123821
20
-131.643883
11
-853.997184
21
-131.088632
0
LINE
8
0
10
-853.997184
20
-131.088632
11
-852.822660
21
-130.692025
0
LINE
8
0
10
-852.822660
20
-130.692025
11
-851.616211
21
-130.454060
0
LINE
8
0
10
-851.616211
20
-130.454060
11
-850.393800
21
-130.374739
0
LINE
8
0
10
-850.393800
20
-130.374739
11
-849.171389
21
-130.454060
0
LINE
8
0
10
-849.171389
20
-130.454060
11
-847.964940
21
-130.692025
0
LINE
8
0
10
-847.964940
20
-130.692025
11
-846.790416
21
-131.088632
0
LINE
8
0
10
-846.790416
20
-131.088632
11
-845.663779
21
-131.643883
0
LINE
8
0
10
-845.663779
20
-131.643883
11
-844.620558
21
-132.343385
0
LINE
8
0
10
-844.620558
20
-132.343385
11
-843.690948
21
-133.163525
0
LINE
8
0
10
-843.690948
20
-133.163525
11
-842.882911
21
-134.090467
0
LINE
8
0
10
-842.882911
20
-134.090467
11
-842.204409
21
-135.110378
0
LINE
8
0
10
-842.204409
20
-135.110378
11
-841.663405
21
-136.209421
0
LINE
8
0
10
-841.663405
20
-136.209421
11
-841.267860
21
-137.373762
0
LINE
8
0
10
-841.267860
20
-137.373762
11
-841.025738
21
-138.589567
0
LINE
8
0
10
-841.025738
20
-138.589567
11
-840.945000
21
-139.843000
0
LINE
8
0
10
-840.945000
20
-139.843000
11
-840.945000
21
-139.843000
0
LINE
8
0
10
-1106.460000
20
-215.433000
11
-1106.587561
21
-216.422144
0
LINE
8
0
10
-1106.587561
20
-216.422144
11
-1106.961323
21
-217.329123
0
LINE
8
0
10
-1106.961323
20
-217.329123
11
-1107.555771
21
-218.109469
0
LINE
8
0
10
-1107.555771
20
-218.109469
11
-1108.345390
21
-218.718715
0
LINE
8
0
10
-1108.345390
20
-218.718715
11
-1109.266811
21
-219.100370
0
LINE
8
0
10
-1109.266811
20
-219.100370
11
-1110.239500
21
-219.227589
0
LINE
8
0
10
-1110.239500
20
-219.227589
11
-1111.212189
21
-219.100370
0
LINE
8
0
10
-1111.212189
20
-219.100370
11
-1112.133610
21
-218.718715
0
LINE
8
0
10
-1112.133610
20
-218.718715
11
-1112.923229
21
-218.109469
0
LINE
8
0
10
-1112.923229
20
-218.109469
11
-1113.517677
21
-217.329123
0
LINE
8
0
10
-1113.517677
20
-217.329123
11
-1113.891439
21
-216.422144
0
LINE
8
0
10
-1113.891439
20
-216.422144
11
-1114.019000
21
-215.433000
0
LINE
8
0
10
-1114.019000
20
-215.433000
11
-1113.891439
21
-214.443856
0
LINE
8
0
10
-1113.891439
20
-214.443856
11
-1113.517677
21
-213.536877
0
LINE
8
0
10
-1113.517677
20
-213.536877
11
-1112.923229
21
-212.756531
0
LINE
8
0
10
-1112.923229
20
-212.756531
11
-1112.133610
21
-212.147285
0
LINE
8
0
10
-1112.133610
20
-212.147285
11
-1111.212189
21
-211.765630
0
LINE
8
0
10
-1111.212189
20
-211.765630
11
-1110.239500
21
-211.638411
0
LINE
8
0
10
-1110.239500
20
-211.638411
11
-1109.266811
21
-211.765630
0
LINE
8
0
10
-1109.266811
20
-211.765630
11
-1108.345390
21
-212.147285
0
LINE
8
0
10
-1108.345390
20
-212.147285
11
-1107.555771
21
-212.756531
0
LINE
8
0
10
-1107.555771
20
-212.756531
11
-1106.961323
21
-213.536877
0
LINE
8
0
10
-1106.961323
20
-213.536877
11
-1106.587561
21
-214.443856
0
LINE
8
0
10
-1106.587561
20
-214.443856
11
-1106.460000
21
-215.433000
0
LINE
8
0
10
-1106.460000
20
-215.433000
11
-1106.460000
21
-215.433000
0
LINE
8
0
10
-917.480000
20
-215.433000
11
-917.609498
21
-216.420371
0
LINE
8
0
10
-917.609498
20
-216.420371
11
-917.984309
21
-217.325362
0
LINE
8
0
10
-917.984309
20
-217.325362
11
-918.578962
21
-218.103745
0
LINE
8
0
10
-918.578962
20
-218.103745
11
-919.367986
21
-218.711292
0
LINE
8
0
10
-919.367986
20
-218.711292
11
-920.288236
21
-219.091831
0
LINE
8
0
10
-920.288236
20
-219.091831
11
-921.259525
21
-219.218678
0
LINE
8
0
10
-921.259525
20
-219.218678
11
-922.230814
21
-219.091831
0
LINE
8
0
10
-922.230814
20
-219.091831
11
-923.151064
21
-218.711292
0
LINE
8
0
10
-923.151064
20
-218.711292
11
-923.940088
21
-218.103745
0
LINE
8
0
10
-923.940088
20
-218.103745
11
-924.534741
21
-217.325362
0
LINE
8
0
10
-924.534741
20
-217.325362
11
-924.909552
21
-216.420371
0
LINE
8
0
10
-924.909552
20
-216.420371
11
-925.039050
21
-215.433000
0
LINE
8
0
10
-925.039050
20
-215.433000
11
-924.909552
21
-214.445629
0
LINE
8
0
10
-924.909552
20
-214.445629
11
-924.534741
21
-213.540638
0
LINE
8
0
10
-924.534741
20
-213.540638
11
-923.940088
21
-212.762255
0
LINE
8
0
10
-923.940088
20
-212.762255
11
-923.151064
21
-212.154708
0
LINE
8
0
10
-923.151064
20
-212.154708
11
-922.230814
21
-211.774169
0
LINE
8
0
10
-922.230814
20
-211.774169
11
-921.259525
21
-211.647322
0
LINE
8
0
10
-921.259525
20
-211.647322
11
-920.288236
21
-211.774169
0
LINE
8
0
10
-920.288236
20
-211.774169
11
-919.367986
21
-212.154708
0
LINE
8
0
10
-919.367986
20
-212.154708
11
-918.578962
21
-212.762255
0
LINE
8
0
10
-918.578962
20
-212.762255
11
-917.984309
21
-213.540638
0
LINE
8
0
10
-917.984309
20
-213.540638
11
-917.609498
21
-214.445629
0
LINE
8
0
10
-917.609498
20
-214.445629
11
-917.480000
21
-215.433000
0
LINE
8
0
10
-917.480000
20
-215.433000
11
-917.480000
21
-215.433000
0
LINE
8
0
10
-586.772000
20
-321.260000
11
-586.902830
21
-322.246146
0
LINE
8
0
10
-586.902830
20
-322.246146
11
-587.278361
21
-323.149765
0
LINE
8
0
10
-587.278361
20
-323.149765
11
-587.873153
21
-323.926794
0
LINE
8
0
10
-587.873153
20
-323.926794
11
-588.661765
21
-324.533169
0
LINE
8
0
10
-588.661765
20
-324.533169
11
-589.581208
21
-324.912940
0
LINE
8
0
10
-589.581208
20
-324.912940
11
-590.551530
21
-325.039530
0
LINE
8
0
10
-590.551530
20
-325.039530
11
-591.521852
21
-324.912940
0
LINE
8
0
10
-591.521852
20
-324.912940
11
-592.441295
21
-324.533169
0
LINE
8
0
10
-592.441295
20
-324.533169
11
-593.229907
21
-323.926794
0
LINE
8
0
10
-593.229907
20
-323.926794
11
-593.824699
21
-323.149765
0
LINE
8
0
10
-593.824699
20
-323.149765
11
-594.200230
21
-322.246146
0
LINE
8
0
10
-594.200230
20
-322.246146
11
-594.331060
21
-321.260000
0
LINE
8
0
10
-594.331060
20
-321.260000
11
-594.200230
21
-320.273854
0
LINE
8
0
10
-594.200230
20
-320.273854
11
-593.824699
21
-319.370235
0
LINE
8
0
10
-593.824699
20
-319.370235
11
-593.229907
21
-318.593206
0
LINE
8
0
10
-593.229907
20
-318.593206
11
-592.441295
21
-317.986831
0
LINE
8
0
10
-592.441295
20
-317.986831
11
-591.521852
21
-317.607060
0
LINE
8
0
10
-591.521852
20
-317.607060
11
-590.551530
21
-317.480470
0
LINE
8
0
10
-590.551530
20
-317.480470
11
-589.581208
21
-317.607060
0
LINE
8
0
10
-589.581208
20
-317.607060
11
-588.661765
21
-317.986831
0
LINE
8
0
10
-588.661765
20
-317.986831
11
-587.873153
21
-318.593206
0
LINE
8
0
10
-587.873153
20
-318.593206
11
-587.278361
21
-319.370235
0
LINE
8
0
10
-587.278361
20
-319.370235
11
-586.902830
21
-320.273854
0
LINE
8
0
10
-586.902830
20
-320.273854
11
-586.772000
21
-321.260000
0
LINE
8
0
10
-586.772000
20
-321.260000
11
-586.772000
21
-321.260000
0
LINE
8
0
10
-728.504000
20
-215.433000
11
-728.633498
21
-216.420371
0
LINE
8
0
10
-728.633498
20
-216.420371
11
-729.008309
21
-217.325362
0
LINE
8
0
10
-729.008309
20
-217.325362
11
-729.602962
21
-218.103745
0
LINE
8
0
10
-729.602962
20
-218.103745
11
-730.391986
21
-218.711292
0
LINE
8
0
10
-730.391986
20
-218.711292
11
-731.312236
21
-219.091831
0
LINE
8
0
10
-731.312236
20
-219.091831
11
-732.283525
21
-219.218678
0
LINE
8
0
10
-732.283525
20
-219.218678
11
-733.254814
21
-219.091831
0
LINE
8
0
10
-733.254814
20
-219.091831
11
-734.175064
21
-218.711292
0
LINE
8
0
10
-734.175064
20
-218.711292
11
-734.964088
21
-218.103745
0
LINE
8
0
10
-734.964088
20
-218.103745
11
-735.558741
21
-217.325362
0
LINE
8
0
10
-735.558741
20
-217.325362
11
-735.933552
21
-216.420371
0
LINE
8
0
10
-735.933552
20
-216.420371
11
-736.063050
21
-215.433000
0
LINE
8
0
10
-736.063050
20
-215.433000
11
-735.933552
21
-214.445629
0
LINE
8
0
10
-735.933552
20
-214.445629
11
-735.558741
21
-213.540638
0
LINE
8
0
10
-735.558741
20
-213.540638
11
-734.964088
21
-212.762255
0
LINE
8
0
10
-734.964088
20
-212.762255
11
-734.175064
21
-212.154708
0
LINE
8
0
10
-734.175064
20
-212.154708
11
-733.254814
21
-211.774169
0
LINE
8
0
10
-733.254814
20
-211.774169
11
-732.283525
21
-211.647322
0
LINE
8
0
10
-732.283525
20
-211.647322
11
-731.312236
21
-211.774169
0
LINE
8
0
10
-731.312236
20
-211.774169
11
-730.391986
21
-212.154708
0
LINE
8
0
10
-730.391986
20
-212.154708
11
-729.602962
21
-212.762255
0
LINE
8
0
10
-729.602962
20
-212.762255
11
-729.008309
21
-213.540638
0
LINE
8
0
10
-729.008309
20
-213.540638
11
-728.633498
21
-214.445629
0
LINE
8
0
10
-728.633498
20
-214.445629
11
-728.504000
21
-215.433000
0
LINE
8
0
10
-728.504000
20
-215.433000
11
-728.504000
21
-215.433000
0
LINE
8
0
10
-775.748000
20
-321.260000
11
-775.878830
21
-322.246146
0
LINE
8
0
10
-775.878830
20
-322.246146
11
-776.254361
21
-323.149765
0
LINE
8
0
10
-776.254361
20
-323.149765
11
-776.849153
21
-323.926794
0
LINE
8
0
10
-776.849153
20
-323.926794
11
-777.637765
21
-324.533169
0
LINE
8
0
10
-777.637765
20
-324.533169
11
-778.557208
21
-324.912940
0
LINE
8
0
10
-778.557208
20
-324.912940
11
-779.527530
21
-325.039530
0
LINE
8
0
10
-779.527530
20
-325.039530
11
-780.497852
21
-324.912940
0
LINE
8
0
10
-780.497852
20
-324.912940
11
-781.417295
21
-324.533169
0
LINE
8
0
10
-781.417295
20
-324.533169
11
-782.205907
21
-323.926794
0
LINE
8
0
10
-782.205907
20
-323.926794
11
-782.800699
21
-323.149765
0
LINE
8
0
10
-782.800699
20
-323.149765
11
-783.176230
21
-322.246146
0
LINE
8
0
10
-783.176230
20
-322.246146
11
-783.307060
21
-321.260000
0
LINE
8
0
10
-783.307060
20
-321.260000
11
-783.176230
21
-320.273854
0
LINE
8
0
10
-783.176230
20
-320.273854
11
-782.800699
21
-319.370235
0
LINE
8
0
10
-782.800699
20
-319.370235
11
-782.205907
21
-318.593206
0
LINE
8
0
10
-782.205907
20
-318.593206
11
-781.417295
21
-317.986831
0
LINE
8
0
10
-781.417295
20
-317.986831
11
-780.497852
21
-317.607060
0
LINE
8
0
10
-780.497852
20
-317.607060
11
-779.527530
21
-317.480470
0
LINE
8
0
10
-779.527530
20
-317.480470
11
-778.557208
21
-317.607060
0
LINE
8
0
10
-778.557208
20
-317.607060
11
-777.637765
21
-317.986831
0
LINE
8
0
10
-777.637765
20
-317.986831
11
-776.849153
21
-318.593206
0
LINE
8
0
10
-776.849153
20
-318.593206
11
-776.254361
21
-319.370235
0
LINE
8
0
10
-776.254361
20
-319.370235
11
-775.878830
21
-320.273854
0
LINE
8
0
10
-775.878830
20
-320.273854
11
-775.748000
21
-321.260000
0
LINE
8
0
10
-775.748000
20
-321.260000
11
-775.748000
21
-321.260000
0
LINE
8
0
10
-1116.850000
20
-139.843000
11
-1117.046246
21
-141.322220
0
LINE
8
0
10
-1117.046246
20
-141.322220
11
-1117.609542
21
-142.677650
0
LINE
8
0
10
-1117.609542
20
-142.677650
11
-1118.501730
21
-143.843194
0
LINE
8
0
10
-1118.501730
20
-143.843194
11
-1119.684650
21
-144.752758
0
LINE
8
0
10
-1119.684650
20
-144.752758
11
-1121.063815
21
-145.322414
0
LINE
8
0
10
-1121.063815
20
-145.322414
11
-1122.519300
21
-145.512300
0
LINE
8
0
10
-1122.519300
20
-145.512300
11
-1123.974785
21
-145.322414
0
LINE
8
0
10
-1123.974785
20
-145.322414
11
-1125.353950
21
-144.752758
0
LINE
8
0
10
-1125.353950
20
-144.752758
11
-1126.536870
21
-143.843194
0
LINE
8
0
10
-1126.536870
20
-143.843194
11
-1127.429058
21
-142.677650
0
LINE
8
0
10
-1127.429058
20
-142.677650
11
-1127.992354
21
-141.322220
0
LINE
8
0
10
-1127.992354
20
-141.322220
11
-1128.188600
21
-139.843000
0
LINE
8
0
10
-1128.188600
20
-139.843000
11
-1127.992354
21
-138.363780
0
LINE
8
0
10
-1127.992354
20
-138.363780
11
-1127.429058
21
-137.008350
0
LINE
8
0
10
-1127.429058
20
-137.008350
11
-1126.536870
21
-135.842806
0
LINE
8
0
10
-1126.536870
20
-135.842806
11
-1125.353950
21
-134.933242
0
LINE
8
0
10
-1125.353950
20
-134.933242
11
-1123.974785
21
-134.363586
0
LINE
8
0
10
-1123.974785
20
-134.363586
11
-1122.519300
21
-134.173700
0
LINE
8
0
10
-1122.519300
20
-134.173700
11
-1121.063815
21
-134.363586
0
LINE
8
0
10
-1121.063815
20
-134.363586
11
-1119.684650
21
-134.933242
0
LINE
8
0
10
-1119.684650
20
-134.933242
11
-1118.501730
21
-135.842806
0
LINE
8
0
10
-1118.501730
20
-135.842806
11
-1117.609542
21
-137.008350
0
LINE
8
0
10
-1117.609542
20
-137.008350
11
-1117.046246
21
-138.363780
0
LINE
8
0
10
-1117.046246
20
-138.363780
11
-1116.850000
21
-139.843000
0
LINE
8
0
10
-1116.850000
20
-139.843000
11
-1116.850000
21
-139.843000
0
LINE
8
0
10
-964.724000
20
-321.260000
11
-964.853498
21
-322.247371
0
LINE
8
0
10
-964.853498
20
-322.247371
11
-965.228309
21
-323.152362
0
LINE
8
0
10
-965.228309
20
-323.152362
11
-965.822962
21
-323.930745
0
LINE
8
0
10
-965.822962
20
-323.930745
11
-966.611986
21
-324.538292
0
LINE
8
0
10
-966.611986
20
-324.538292
11
-967.532236
21
-324.918831
0
LINE
8
0
10
-967.532236
20
-324.918831
11
-968.503525
21
-325.045678
0
LINE
8
0
10
-968.503525
20
-325.045678
11
-969.474814
21
-324.918831
0
LINE
8
0
10
-969.474814
20
-324.918831
11
-970.395064
21
-324.538292
0
LINE
8
0
10
-970.395064
20
-324.538292
11
-971.184088
21
-323.930745
0
LINE
8
0
10
-971.184088
20
-323.930745
11
-971.778741
21
-323.152362
0
LINE
8
0
10
-971.778741
20
-323.152362
11
-972.153552
21
-322.247371
0
LINE
8
0
10
-972.153552
20
-322.247371
11
-972.283050
21
-321.260000
0
LINE
8
0
10
-972.283050
20
-321.260000
11
-972.153552
21
-320.272629
0
LINE
8
0
10
-972.153552
20
-320.272629
11
-971.778741
21
-319.367638
0
LINE
8
0
10
-971.778741
20
-319.367638
11
-971.184088
21
-318.589255
0
LINE
8
0
10
-971.184088
20
-318.589255
11
-970.395064
21
-317.981708
0
LINE
8
0
10
-970.395064
20
-317.981708
11
-969.474814
21
-317.601169
0
LINE
8
0
10
-969.474814
20
-317.601169
11
-968.503525
21
-317.474322
0
LINE
8
0
10
-968.503525
20
-317.474322
11
-967.532236
21
-317.601169
0
LINE
8
0
10
-967.532236
20
-317.601169
11
-966.611986
21
-317.981708
0
LINE
8
0
10
-966.611986
20
-317.981708
11
-965.822962
21
-318.589255
0
LINE
8
0
10
-965.822962
20
-318.589255
11
-965.228309
21
-319.367638
0
LINE
8
0
10
-965.228309
20
-319.367638
11
-964.853498
21
-320.272629
0
LINE
8
0
10
-964.853498
20
-320.272629
11
-964.724000
21
-321.260000
0
LINE
8
0
10
-964.724000
20
-321.260000
11
-964.724000
21
-321.260000
0
LINE
8
0
10
-572.598000
20
-396.850000
11
-572.794251
21
-398.329218
0
LINE
8
0
10
-572.794251
20
-398.329218
11
-573.357550
21
-399.684645
0
LINE
8
0
10
-573.357550
20
-399.684645
11
-574.249737
21
-400.850187
0
LINE
8
0
10
-574.249737
20
-400.850187
11
-575.432655
21
-401.759749
0
LINE
8
0
10
-575.432655
20
-401.759749
11
-576.811818
21
-402.329405
0
LINE
8
0
10
-576.811818
20
-402.329405
11
-578.267300
21
-402.519290
0
LINE
8
0
10
-578.267300
20
-402.519290
11
-579.722782
21
-402.329405
0
LINE
8
0
10
-579.722782
20
-402.329405
11
-581.101945
21
-401.759749
0
LINE
8
0
10
-581.101945
20
-401.759749
11
-582.284863
21
-400.850187
0
LINE
8
0
10
-582.284863
20
-400.850187
11
-583.177049
21
-399.684645
0
LINE
8
0
10
-583.177049
20
-399.684645
11
-583.740345
21
-398.329218
0
LINE
8
0
10
-583.740345
20
-398.329218
11
-583.936590
21
-396.850000
0
LINE
8
0
10
-583.936590
20
-396.850000
11
-583.740342
21
-395.370782
0
LINE
8
0
10
-583.740342
20
-395.370782
11
-583.177045
21
-394.015355
0
LINE
8
0
10
-583.177045
20
-394.015355
11
-582.284858
21
-392.849813
0
LINE
8
0
10
-582.284858
20
-392.849813
11
-581.101940
21
-391.940251
0
LINE
8
0
10
-581.101940
20
-391.940251
11
-579.722777
21
-391.370595
0
LINE
8
0
10
-579.722777
20
-391.370595
11
-578.267295
21
-391.180710
0
LINE
8
0
10
-578.267295
20
-391.180710
11
-576.811813
21
-391.370595
0
LINE
8
0
10
-576.811813
20
-391.370595
11
-575.432650
21
-391.940251
0
LINE
8
0
10
-575.432650
20
-391.940251
11
-574.249732
21
-392.849813
0
LINE
8
0
10
-574.249732
20
-392.849813
11
-573.357546
21
-394.015355
0
LINE
8
0
10
-573.357546
20
-394.015355
11
-572.794250
21
-395.370782
0
LINE
8
0
10
-572.794250
20
-395.370782
11
-572.598005
21
-396.850000
0
LINE
8
0
10
-572.598005
20
-396.850000
11
-572.598000
21
-396.850000
0
LINE
8
0
10
-572.598000
20
-139.843000
11
-572.794251
21
-141.322218
0
LINE
8
0
10
-572.794251
20
-141.322218
11
-573.357550
21
-142.677645
0
LINE
8
0
10
-573.357550
20
-142.677645
11
-574.249737
21
-143.843187
0
LINE
8
0
10
-574.249737
20
-143.843187
11
-575.432655
21
-144.752749
0
LINE
8
0
10
-575.432655
20
-144.752749
11
-576.811818
21
-145.322405
0
LINE
8
0
10
-576.811818
20
-145.322405
11
-578.267300
21
-145.512290
0
LINE
8
0
10
-578.267300
20
-145.512290
11
-579.722782
21
-145.322405
0
LINE
8
0
10
-579.722782
20
-145.322405
11
-581.101945
21
-144.752749
0
LINE
8
0
10
-581.101945
20
-144.752749
11
-582.284863
21
-143.843187
0
LINE
8
0
10
-582.284863
20
-143.843187
11
-583.177049
21
-142.677645
0
LINE
8
0
10
-583.177049
20
-142.677645
11
-583.740345
21
-141.322218
0
LINE
8
0
10
-583.740345
20
-141.322218
11
-583.936590
21
-139.843000
0
LINE
8
0
10
-583.936590
20
-139.843000
11
-583.740342
21
-138.363782
0
LINE
8
0
10
-583.740342
20
-138.363782
11
-583.177045
21
-137.008355
0
LINE
8
0
10
-583.177045
20
-137.008355
11
-582.284858
21
-135.842813
0
LINE
8
0
10
-582.284858
20
-135.842813
11
-581.101940
21
-134.933251
0
LINE
8
0
10
-581.101940
20
-134.933251
11
-579.722777
21
-134.363595
0
LINE
8
0
10
-579.722777
20
-134.363595
11
-578.267295
21
-134.173710
0
LINE
8
0
10
-578.267295
20
-134.173710
11
-576.811813
21
-134.363595
0
LINE
8
0
10
-576.811813
20
-134.363595
11
-575.432650
21
-134.933251
0
LINE
8
0
10
-575.432650
20
-134.933251
11
-574.249732
21
-135.842813
0
LINE
8
0
10
-574.249732
20
-135.842813
11
-573.357546
21
-137.008355
0
LINE
8
0
10
-573.357546
20
-137.008355
11
-572.794250
21
-138.363782
0
LINE
8
0
10
-572.794250
20
-138.363782
11
-572.598005
21
-139.843000
0
LINE
8
0
10
-572.598005
20
-139.843000
11
-572.598000
21
-139.843000
0
LINE
8
0
10
-1116.850000
20
-396.850000
11
-1117.046246
21
-398.329220
0
LINE
8
0
10
-1117.046246
20
-398.329220
11
-1117.609542
21
-399.684650
0
LINE
8
0
10
-1117.609542
20
-399.684650
11
-1118.501730
21
-400.850194
0
LINE
8
0
10
-1118.501730
20
-400.850194
11
-1119.684650
21
-401.759758
0
LINE
8
0
10
-1119.684650
20
-401.759758
11
-1121.063815
21
-402.329414
0
LINE
8
0
10
-1121.063815
20
-402.329414
11
-1122.519300
21
-402.519300
0
LINE
8
0
10
-1122.519300
20
-402.519300
11
-1123.974785
21
-402.329414
0
LINE
8
0
10
-1123.974785
20
-402.329414
11
-1125.353950
21
-401.759758
0
LINE
8
0
10
-1125.353950
20
-401.759758
11
-1126.536870
21
-400.850194
0
LINE
8
0
10
-1126.536870
20
-400.850194
11
-1127.429058
21
-399.684650
0
LINE
8
0
10
-1127.429058
20
-399.684650
11
-1127.992354
21
-398.329220
0
LINE
8
0
10
-1127.992354
20
-398.329220
11
-1128.188600
21
-396.850000
0
LINE
8
0
10
-1128.188600
20
-396.850000
11
-1127.992354
21
-395.370780
0
LINE
8
0
10
-1127.992354
20
-395.370780
11
-1127.429058
21
-394.015350
0
LINE
8
0
10
-1127.429058
20
-394.015350
11
-1126.536870
21
-392.849806
0
LINE
8
0
10
-1126.536870
20
-392.849806
11
-1125.353950
21
-391.940242
0
LINE
8
0
10
-1125.353950
20
-391.940242
11
-1123.974785
21
-391.370586
0
LINE
8
0
10
-1123.974785
20
-391.370586
11
-1122.519300
21
-391.180700
0
LINE
8
0
10
-1122.519300
20
-391.180700
11
-1121.063815
21
-391.370586
0
LINE
8
0
10
-1121.063815
20
-391.370586
11
-1119.684650
21
-391.940242
0
LINE
8
0
10
-1119.684650
20
-391.940242
11
-1118.501730
21
-392.849806
0
LINE
8
0
10
-1118.501730
20
-392.849806
11
-1117.609542
21
-394.015350
0
LINE
8
0
10
-1117.609542
20
-394.015350
11
-1117.046246
21
-395.370780
0
LINE
8
0
10
-1117.046246
20
-395.370780
11
-1116.850000
21
-396.850000
0
LINE
8
0
10
-1116.850000
20
-396.850000
11
-1116.850000
21
-396.850000
0
LINE
8
0
10
-527.244000
20
-139.843000
11
-527.324738
21
-141.096433
0
LINE
8
0
10
-527.324738
20
-141.096433
11
-527.566860
21
-142.312238
0
LINE
8
0
10
-527.566860
20
-142.312238
11
-527.962405
21
-143.476579
0
LINE
8
0
10
-527.962405
20
-143.476579
11
-528.503409
21
-144.575622
0
LINE
8
0
10
-528.503409
20
-144.575622
11
-529.181911
21
-145.595533
0
LINE
8
0
10
-529.181911
20
-145.595533
11
-529.989948
21
-146.522475
0
LINE
8
0
10
-529.989948
20
-146.522475
11
-530.919558
21
-147.342615
0
LINE
8
0
10
-530.919558
20
-147.342615
11
-531.962779
21
-148.042117
0
LINE
8
0
10
-531.962779
20
-148.042117
11
-533.089416
21
-148.597368
0
LINE
8
0
10
-533.089416
20
-148.597368
11
-534.263940
21
-148.993975
0
LINE
8
0
10
-534.263940
20
-148.993975
11
-535.470389
21
-149.231940
0
LINE
8
0
10
-535.470389
20
-149.231940
11
-536.692800
21
-149.311261
0
LINE
8
0
10
-536.692800
20
-149.311261
11
-537.915211
21
-149.231940
0
LINE
8
0
10
-537.915211
20
-149.231940
11
-539.121660
21
-148.993975
0
LINE
8
0
10
-539.121660
20
-148.993975
11
-540.296184
21
-148.597368
0
LINE
8
0
10
-540.296184
20
-148.597368
11
-541.422821
21
-148.042117
0
LINE
8
0
10
-541.422821
20
-148.042117
11
-542.466042
21
-147.342615
0
LINE
8
0
10
-542.466042
20
-147.342615
11
-543.395652
21
-146.522475
0
LINE
8
0
10
-543.395652
20
-146.522475
11
-544.203689
21
-145.595533
0
LINE
8
0
10
-544.203689
20
-145.595533
11
-544.882191
21
-144.575622
0
LINE
8
0
10
-544.882191
20
-144.575622
11
-545.423195
21
-143.476579
0
LINE
8
0
10
-545.423195
20
-143.476579
11
-545.818740
21
-142.312238
0
LINE
8
0
10
-545.818740
20
-142.312238
11
-546.060862
21
-141.096433
0
LINE
8
0
10
-546.060862
20
-141.096433
11
-546.141600
21
-139.843000
0
LINE
8
0
10
-546.141600
20
-139.843000
11
-546.060862
21
-138.589567
0
LINE
8
0
10
-546.060862
20
-138.589567
11
-545.818740
21
-137.373762
0
LINE
8
0
10
-545.818740
20
-137.373762
11
-545.423195
21
-136.209421
0
LINE
8
0
10
-545.423195
20
-136.209421
11
-544.882191
21
-135.110378
0
LINE
8
0
10
-544.882191
20
-135.110378
11
-544.203689
21
-134.090467
0
LINE
8
0
10
-544.203689
20
-134.090467
11
-543.395652
21
-133.163525
0
LINE
8
0
10
-543.395652
20
-133.163525
11
-542.466042
21
-132.343385
0
LINE
8
0
10
-542.466042
20
-132.343385
11
-541.422821
21
-131.643883
0
LINE
8
0
10
-541.422821
20
-131.643883
11
-540.296184
21
-131.088632
0
LINE
8
0
10
-540.296184
20
-131.088632
11
-539.121660
21
-130.692025
0
LINE
8
0
10
-539.121660
20
-130.692025
11
-537.915211
21
-130.454060
0
LINE
8
0
10
-537.915211
20
-130.454060
11
-536.692800
21
-130.374739
0
LINE
8
0
10
-536.692800
20
-130.374739
11
-535.470389
21
-130.454060
0
LINE
8
0
10
-535.470389
20
-130.454060
11
-534.263940
21
-130.692025
0
LINE
8
0
10
-534.263940
20
-130.692025
11
-533.089416
21
-131.088632
0
LINE
8
0
10
-533.089416
20
-131.088632
11
-531.962779
21
-131.643883
0
LINE
8
0
10
-531.962779
20
-131.643883
11
-530.919558
21
-132.343385
0
LINE
8
0
10
-530.919558
20
-132.343385
11
-529.989948
21
-133.163525
0
LINE
8
0
10
-529.989948
20
-133.163525
11
-529.181911
21
-134.090467
0
LINE
8
0
10
-529.181911
20
-134.090467
11
-528.503409
21
-135.110378
0
LINE
8
0
10
-528.503409
20
-135.110378
11
-527.962405
21
-136.209421
0
LINE
8
0
10
-527.962405
20
-136.209421
11
-527.566860
21
-137.373762
0
LINE
8
0
10
-527.566860
20
-137.373762
11
-527.324738
21
-138.589567
0
LINE
8
0
10
-527.324738
20
-138.589567
11
-527.244000
21
-139.843000
0
LINE
8
0
10
-527.244000
20
-139.843000
11
-527.244000
21
-139.843000
0
LINE
8
0
10
-1154.650000
20
-139.843000
11
-1154.730738
21
-141.096433
0
LINE
8
0
10
-1154.730738
20
-141.096433
11
-1154.972860
21
-142.312238
0
LINE
8
0
10
-1154.972860
20
-142.312238
11
-1155.368405
21
-143.476579
0
LINE
8
0
10
-1155.368405
20
-143.476579
11
-1155.909409
21
-144.575622
0
LINE
8
0
10
-1155.909409
20
-144.575622
11
-1156.587911
21
-145.595533
0
LINE
8
0
10
-1156.587911
20
-145.595533
11
-1157.395948
21
-146.522475
0
LINE
8
0
10
-1157.395948
20
-146.522475
11
-1158.325558
21
-147.342615
0
LINE
8
0
10
-1158.325558
20
-147.342615
11
-1159.368779
21
-148.042117
0
LINE
8
0
10
-1159.368779
20
-148.042117
11
-1160.495416
21
-148.597368
0
LINE
8
0
10
-1160.495416
20
-148.597368
11
-1161.669940
21
-148.993975
0
LINE
8
0
10
-1161.669940
20
-148.993975
11
-1162.876389
21
-149.231940
0
LINE
8
0
10
-1162.876389
20
-149.231940
11
-1164.098800
21
-149.311261
0
LINE
8
0
10
-1164.098800
20
-149.311261
11
-1165.321211
21
-149.231940
0
LINE
8
0
10
-1165.321211
20
-149.231940
11
-1166.527660
21
-148.993975
0
LINE
8
0
10
-1166.527660
20
-148.993975
11
-1167.702184
21
-148.597368
0
LINE
8
0
10
-1167.702184
20
-148.597368
11
-1168.828821
21
-148.042117
0
LINE
8
0
10
-1168.828821
20
-148.042117
11
-1169.872042
21
-147.342615
0
LINE
8
0
10
-1169.872042
20
-147.342615
11
-1170.801652
21
-146.522475
0
LINE
8
0
10
-1170.801652
20
-146.522475
11
-1171.609689
21
-145.595533
0
LINE
8
0
10
-1171.609689
20
-145.595533
11
-1172.288191
21
-144.575622
0
LINE
8
0
10
-1172.288191
20
-144.575622
11
-1172.829195
21
-143.476579
0
LINE
8
0
10
-1172.829195
20
-143.476579
11
-1173.224740
21
-142.312238
0
LINE
8
0
10
-1173.224740
20
-142.312238
11
-1173.466862
21
-141.096433
0
LINE
8
0
10
-1173.466862
20
-141.096433
11
-1173.547600
21
-139.843000
0
LINE
8
0
10
-1173.547600
20
-139.843000
11
-1173.466862
21
-138.589567
0
LINE
8
0
10
-1173.466862
20
-138.589567
11
-1173.224740
21
-137.373762
0
LINE
8
0
10
-1173.224740
20
-137.373762
11
-1172.829195
21
-136.209421
0
LINE
8
0
10
-1172.829195
20
-136.209421
11
-1172.288191
21
-135.110378
0
LINE
8
0
10
-1172.288191
20
-135.110378
11
-1171.609689
21
-134.090467
0
LINE
8
0
10
-1171.609689
20
-134.090467
11
-1170.801652
21
-133.163525
0
LINE
8
0
10
-1170.801652
20
-133.163525
11
-1169.872042
21
-132.343385
0
LINE
8
0
10
-1169.872042
20
-132.343385
11
-1168.828821
21
-131.643883
0
LINE
8
0
10
-1168.828821
20
-131.643883
11
-1167.702184
21
-131.088632
0
LINE
8
0
10
-1167.702184
20
-131.088632
11
-1166.527660
21
-130.692025
0
LINE
8
0
10
-1166.527660
20
-130.692025
11
-1165.321211
21
-130.454060
0
LINE
8
0
10
-1165.321211
20
-130.454060
11
-1164.098800
21
-130.374739
0
LINE
8
0
10
-1164.098800
20
-130.374739
11
-1162.876389
21
-130.454060
0
LINE
8
0
10
-1162.876389
20
-130.454060
11
-1161.669940
21
-130.692025
0
LINE
8
0
10
-1161.669940
20
-130.692025
11
-1160.495416
21
-131.088632
0
LINE
8
0
10
-1160.495416
20
-131.088632
11
-1159.368779
21
-131.643883
0
LINE
8
0
10
-1159.368779
20
-131.643883
11
-1158.325558
21
-132.343385
0
LINE
8
0
10
-1158.325558
20
-132.343385
11
-1157.395948
21
-133.163525
0
LINE
8
0
10
-1157.395948
20
-133.163525
11
-1156.587911
21
-134.090467
0
LINE
8
0
10
-1156.587911
20
-134.090467
11
-1155.909409
21
-135.110378
0
LINE
8
0
10
-1155.909409
20
-135.110378
11
-1155.368405
21
-136.209421
0
LINE
8
0
10
-1155.368405
20
-136.209421
11
-1154.972860
21
-137.373762
0
LINE
8
0
10
-1154.972860
20
-137.373762
11
-1154.730738
21
-138.589567
0
LINE
8
0
10
-1154.730738
20
-138.589567
11
-1154.650000
21
-139.843000
0
LINE
8
0
10
-1154.650000
20
-139.843000
11
-1154.650000
21
-139.843000
0
LINE
8
0
10
-527.244000
20
-396.850000
11
-527.324738
21
-398.103433
0
LINE
8
0
10
-527.324738
20
-398.103433
11
-527.566860
21
-399.319238
0
LINE
8
0
10
-527.566860
20
-399.319238
11
-527.962405
21
-400.483579
0
LINE
8
0
10
-527.962405
20
-400.483579
11
-528.503409
21
-401.582622
0
LINE
8
0
10
-528.503409
20
-401.582622
11
-529.181911
21
-402.602533
0
LINE
8
0
10
-529.181911
20
-402.602533
11
-529.989948
21
-403.529475
0
LINE
8
0
10
-529.989948
20
-403.529475
11
-530.919558
21
-404.349615
0
LINE
8
0
10
-530.919558
20
-404.349615
11
-531.962779
21
-405.049117
0
LINE
8
0
10
-531.962779
20
-405.049117
11
-533.089416
21
-405.604368
0
LINE
8
0
10
-533.089416
20
-405.604368
11
-534.263940
21
-406.000975
0
LINE
8
0
10
-534.263940
20
-406.000975
11
-535.470389
21
-406.238940
0
LINE
8
0
10
-535.470389
20
-406.238940
11
-536.692800
21
-406.318261
0
LINE
8
0
10
-536.692800
20
-406.318261
11
-537.915211
21
-406.238940
0
LINE
8
0
10
-537.915211
20
-406.238940
11
-539.121660
21
-406.000975
0
LINE
8
0
10
-539.121660
20
-406.000975
11
-540.296184
21
-405.604368
0
LINE
8
0
10
-540.296184
20
-405.604368
11
-541.422821
21
-405.049117
0
LINE
8
0
10
-541.422821
20
-405.049117
11
-542.466042
21
-404.349615
0
LINE
8
0
10
-542.466042
20
-404.349615
11
-543.395652
21
-403.529475
0
LINE
8
0
10
-543.395652
20
-403.529475
11
-544.203689
21
-402.602533
0
LINE
8
0
10
-544.203689
20
-402.602533
11
-544.882191
21
-401.582622
0
LINE
8
0
10
-544.882191
20
-401.582622
11
-545.423195
21
-400.483579
0
LINE
8
0
10
-545.423195
20
-400.483579
11
-545.818740
21
-399.319238
0
LINE
8
0
10
-545.818740
20
-399.319238
11
-546.060862
21
-398.103433
0
LINE
8
0
10
-546.060862
20
-398.103433
11
-546.141600
21
-396.850000
0
LINE
8
0
10
-546.141600
20
-396.850000
11
-546.060862
21
-395.596567
0
LINE
8
0
10
-546.060862
20
-395.596567
11
-545.818740
21
-394.380762
0
LINE
8
0
10
-545.818740
20
-394.380762
11
-545.423195
21
-393.216421
0
LINE
8
0
10
-545.423195
20
-393.216421
11
-544.882191
21
-392.117378
0
LINE
8
0
10
-544.882191
20
-392.117378
11
-544.203689
21
-391.097467
0
LINE
8
0
10
-544.203689
20
-391.097467
11
-543.395652
21
-390.170525
0
LINE
8
0
10
-543.395652
20
-390.170525
11
-542.466042
21
-389.350385
0
LINE
8
0
10
-542.466042
20
-389.350385
11
-541.422821
21
-388.650883
0
LINE
8
0
10
-541.422821
20
-388.650883
11
-540.296184
21
-388.095632
0
LINE
8
0
10
-540.296184
20
-388.095632
11
-539.121660
21
-387.699025
0
LINE
8
0
10
-539.121660
20
-387.699025
11
-537.915211
21
-387.461060
0
LINE
8
0
10
-537.915211
20
-387.461060
11
-536.692800
21
-387.381739
0
LINE
8
0
10
-536.692800
20
-387.381739
11
-535.470389
21
-387.461060
0
LINE
8
0
10
-535.470389
20
-387.461060
11
-534.263940
21
-387.699025
0
LINE
8
0
10
-534.263940
20
-387.699025
11
-533.089416
21
-388.095632
0
LINE
8
0
10
-533.089416
20
-388.095632
11
-531.962779
21
-388.650883
0
LINE
8
0
10
-531.962779
20
-388.650883
11
-530.919558
21
-389.350385
0
LINE
8
0
10
-530.919558
20
-389.350385
11
-529.989948
21
-390.170525
0
LINE
8
0
10
-529.989948
20
-390.170525
11
-529.181911
21
-391.097467
0
LINE
8
0
10
-529.181911
20
-391.097467
11
-528.503409
21
-392.117378
0
LINE
8
0
10
-528.503409
20
-392.117378
11
-527.962405
21
-393.216421
0
LINE
8
0
10
-527.962405
20
-393.216421
11
-527.566860
21
-394.380762
0
LINE
8
0
10
-527.566860
20
-394.380762
11
-527.324738
21
-395.596567
0
LINE
8
0
10
-527.324738
20
-395.596567
11
-527.244000
21
-396.850000
0
LINE
8
0
10
-527.244000
20
-396.850000
11
-527.244000
21
-396.850000
0
LINE
8
0
10
-1154.650000
20
-396.850000
11
-1154.730738
21
-398.103433
0
LINE
8
0
10
-1154.730738
20
-398.103433
11
-1154.972860
21
-399.319238
0
LINE
8
0
10
-1154.972860
20
-399.319238
11
-1155.368405
21
-400.483579
0
LINE
8
0
10
-1155.368405
20
-400.483579
11
-1155.909409
21
-401.582622
0
LINE
8
0
10
-1155.909409
20
-401.582622
11
-1156.587911
21
-402.602533
0
LINE
8
0
10
-1156.587911
20
-402.602533
11
-1157.395948
21
-403.529475
0
LINE
8
0
10
-1157.395948
20
-403.529475
11
-1158.325558
21
-404.349615
0
LINE
8
0
10
-1158.325558
20
-404.349615
11
-1159.368779
21
-405.049117
0
LINE
8
0
10
-1159.368779
20
-405.049117
11
-1160.495416
21
-405.604368
0
LINE
8
0
10
-1160.495416
20
-405.604368
11
-1161.669940
21
-406.000975
0
LINE
8
0
10
-1161.669940
20
-406.000975
11
-1162.876389
21
-406.238940
0
LINE
8
0
10
-1162.876389
20
-406.238940
11
-1164.098800
21
-406.318261
0
LINE
8
0
10
-1164.098800
20
-406.318261
11
-1165.321211
21
-406.238940
0
LINE
8
0
10
-1165.321211
20
-406.238940
11
-1166.527660
21
-406.000975
0
LINE
8
0
10
-1166.527660
20
-406.000975
11
-1167.702184
21
-405.604368
0
LINE
8
0
10
-1167.702184
20
-405.604368
11
-1168.828821
21
-405.049117
0
LINE
8
0
10
-1168.828821
20
-405.049117
11
-1169.872042
21
-404.349615
0
LINE
8
0
10
-1169.872042
20
-404.349615
11
-1170.801652
21
-403.529475
0
LINE
8
0
10
-1170.801652
20
-403.529475
11
-1171.609689
21
-402.602533
0
LINE
8
0
10
-1171.609689
20
-402.602533
11
-1172.288191
21
-401.582622
0
LINE
8
0
10
-1172.288191
20
-401.582622
11
-1172.829195
21
-400.483579
0
LINE
8
0
10
-1172.829195
20
-400.483579
11
-1173.224740
21
-399.319238
0
LINE
8
0
10
-1173.224740
20
-399.319238
11
-1173.466862
21
-398.103433
0
LINE
8
0
10
-1173.466862
20
-398.103433
11
-1173.547600
21
-396.850000
0
LINE
8
0
10
-1173.547600
20
-396.850000
11
-1173.466862
21
-395.596567
0
LINE
8
0
10
-1173.466862
20
-395.596567
11
-1173.224740
21
-394.380762
0
LINE
8
0
10
-1173.224740
20
-394.380762
11
-1172.829195
21
-393.216421
0
LINE
8
0
10
-1172.829195
20
-393.216421
11
-1172.288191
21
-392.117378
0
LINE
8
0
10
-1172.288191
20
-392.117378
11
-1171.609689
21
-391.097467
0
LINE
8
0
10
-1171.609689
20
-391.097467
11
-1170.801652
21
-390.170525
0
LINE
8
0
10
-1170.801652
20
-390.170525
11
-1169.872042
21
-389.350385
0
LINE
8
0
10
-1169.872042
20
-389.350385
11
-1168.828821
21
-388.650883
0
LINE
8
0
10
-1168.828821
20
-388.650883
11
-1167.702184
21
-388.095632
0
LINE
8
0
10
-1167.702184
20
-388.095632
11
-1166.527660
21
-387.699025
0
LINE
8
0
10
-1166.527660
20
-387.699025
11
-1165.321211
21
-387.461060
0
LINE
8
0
10
-1165.321211
20
-387.461060
11
-1164.098800
21
-387.381739
0
LINE
8
0
10
-1164.098800
20
-387.381739
11
-1162.876389
21
-387.461060
0
LINE
8
0
10
-1162.876389
20
-387.461060
11
-1161.669940
21
-387.699025
0
LINE
8
0
10
-1161.669940
20
-387.699025
11
-1160.495416
21
-388.095632
0
LINE
8
0
10
-1160.495416
20
-388.095632
11
-1159.368779
21
-388.650883
0
LINE
8
0
10
-1159.368779
20
-388.650883
11
-1158.325558
21
-389.350385
0
LINE
8
0
10
-1158.325558
20
-389.350385
11
-1157.395948
21
-390.170525
0
LINE
8
0
10
-1157.395948
20
-390.170525
11
-1156.587911
21
-391.097467
0
LINE
8
0
10
-1156.587911
20
-391.097467
11
-1155.909409
21
-392.117378
0
LINE
8
0
10
-1155.909409
20
-392.117378
11
-1155.368405
21
-393.216421
0
LINE
8
0
10
-1155.368405
20
-393.216421
11
-1154.972860
21
-394.380762
0
LINE
8
0
10
-1154.972860
20
-394.380762
11
-1154.730738
21
-395.596567
0
LINE
8
0
10
-1154.730738
20
-395.596567
11
-1154.650000
21
-396.850000
0
LINE
8
0
10
-1154.650000
20
-396.850000
11
-1154.650000
21
-396.850000
0
LINE
8
0
10
-540.472000
20
-415.748000
11
-538.153383
21
-415.630920
0
LINE
8
0
10
-538.153383
20
-415.630920
11
-535.901745
21
-415.287281
0
LINE
8
0
10
-535.901745
20
-415.287281
11
-533.728484
21
-414.728480
0
LINE
8
0
10
-533.728484
20
-414.728480
11
-531.644998
21
-413.965917
0
LINE
8
0
10
-531.644998
20
-413.965917
11
-529.662687
21
-413.010990
0
LINE
8
0
10
-529.662687
20
-413.010990
11
-527.792949
21
-411.875098
0
LINE
8
0
10
-527.792949
20
-411.875098
11
-526.047183
21
-410.569639
0
LINE
8
0
10
-526.047183
20
-410.569639
11
-524.436787
21
-409.106013
0
LINE
8
0
10
-524.436787
20
-409.106013
11
-522.973161
21
-407.495617
0
LINE
8
0
10
-522.973161
20
-407.495617
11
-521.667702
21
-405.749851
0
LINE
8
0
10
-521.667702
20
-405.749851
11
-520.531810
21
-403.880113
0
LINE
8
0
10
-520.531810
20
-403.880113
11
-519.576883
21
-401.897802
0
LINE
8
0
10
-519.576883
20
-401.897802
11
-518.814320
21
-399.814316
0
LINE
8
0
10
-518.814320
20
-399.814316
11
-518.255519
21
-397.641055
0
LINE
8
0
10
-518.255519
20
-397.641055
11
-517.911880
21
-395.389417
0
LINE
8
0
10
-517.911880
20
-395.389417
11
-517.794800
21
-393.070800
0
LINE
8
0
10
-517.794800
20
-393.070800
11
-517.794800
21
-328.062900
0
LINE
8
0
10
-517.794800
20
-328.062900
11
-560.881400
21
-328.062900
0
LINE
8
0
10
-560.881400
20
-328.062900
11
-560.881400
21
-208.629900
0
LINE
8
0
10
-560.881400
20
-208.629900
11
-517.794800
21
-208.629900
0
LINE
8
0
10
-517.794800
20
-208.629900
11
-517.794800
21
-143.622000
0
LINE
8
0
10
-517.794800
20
-143.622000
11
-517.911880
21
-141.303383
0
LINE
8
0
10
-517.911880
20
-141.303383
11
-518.255519
21
-139.051745
0
LINE
8
0
10
-518.255519
20
-139.051745
11
-518.814320
21
-136.878484
0
LINE
8
0
10
-518.814320
20
-136.878484
11
-519.576883
21
-134.794998
0
LINE
8
0
10
-519.576883
20
-134.794998
11
-520.531810
21
-132.812687
0
LINE
8
0
10
-520.531810
20
-132.812687
11
-521.667702
21
-130.942949
0
LINE
8
0
10
-521.667702
20
-130.942949
11
-522.973161
21
-129.197183
0
LINE
8
0
10
-522.973161
20
-129.197183
11
-524.436788
21
-127.586787
0
LINE
8
0
10
-524.436788
20
-127.586787
11
-526.047183
21
-126.123161
0
LINE
8
0
10
-526.047183
20
-126.123161
11
-527.792949
21
-124.817702
0
LINE
8
0
10
-527.792949
20
-124.817702
11
-529.662687
21
-123.681810
0
LINE
8
0
10
-529.662687
20
-123.681810
11
-531.644998
21
-122.726883
0
LINE
8
0
10
-531.644998
20
-122.726883
11
-533.728484
21
-121.964320
0
LINE
8
0
10
-533.728484
20
-121.964320
11
-535.901745
21
-121.405519
0
LINE
8
0
10
-535.901745
20
-121.405519
11
-538.153383
21
-121.061880
0
LINE
8
0
10
-538.153383
20
-121.061880
11
-540.472000
21
-120.944800
0
LINE
8
0
10
-540.472000
20
-120.944800
11
-1160.320000
21
-120.944800
0
LINE
8
0
10
-1160.320000
20
-120.944800
11
-1162.638599
21
-121.061886
0
LINE
8
0
10
-1162.638599
20
-121.061886
11
-1164.890222
21
-121.405530
0
LINE
8
0
10
-1164.890222
20
-121.405530
11
-1167.063470
21
-121.964334
0
LINE
8
0
10
-1167.063470
20
-121.964334
11
-1169.146944
21
-122.726900
0
LINE
8
0
10
-1169.146944
20
-122.726900
11
-1171.129245
21
-123.681828
0
LINE
8
0
10
-1171.129245
20
-123.681828
11
-1172.998975
21
-124.817720
0
LINE
8
0
10
-1172.998975
20
-124.817720
11
-1174.744735
21
-126.123178
0
LINE
8
0
10
-1174.744735
20
-126.123178
11
-1176.355125
21
-127.586802
0
LINE
8
0
10
-1176.355125
20
-127.586802
11
-1177.818747
21
-129.197196
0
LINE
8
0
10
-1177.818747
20
-129.197196
11
-1179.124203
21
-130.942960
0
LINE
8
0
10
-1179.124203
20
-130.942960
11
-1180.260093
21
-132.812695
0
LINE
8
0
10
-1180.260093
20
-132.812695
11
-1181.215019
21
-134.795004
0
LINE
8
0
10
-1181.215019
20
-134.795004
11
-1181.977581
21
-136.878487
0
LINE
8
0
10
-1181.977581
20
-136.878487
11
-1182.536381
21
-139.051747
0
LINE
8
0
10
-1182.536381
20
-139.051747
11
-1182.880021
21
-141.303384
0
LINE
8
0
10
-1182.880021
20
-141.303384
11
-1182.997100
21
-143.622000
0
LINE
8
0
10
-1182.997100
20
-143.622000
11
-1182.997100
21
-208.629900
0
LINE
8
0
10
-1182.997100
20
-208.629900
11
-1139.910500
21
-208.629900
0
LINE
8
0
10
-1139.910500
20
-208.629900
11
-1139.910500
21
-328.062900
0
LINE
8
0
10
-1139.910500
20
-328.062900
11
-1182.997100
21
-328.062900
0
LINE
8
0
10
-1182.997100
20
-328.062900
11
-1182.997100
21
-393.070800
0
LINE
8
0
10
-1182.997100
20
-393.070800
11
-1182.880021
21
-395.389399
0
LINE
8
0
10
-1182.880021
20
-395.389399
11
-1182.536381
21
-397.641022
0
LINE
8
0
10
-1182.536381
20
-397.641022
11
-1181.977581
21
-399.814270
0
LINE
8
0
10
-1181.977581
20
-399.814270
11
-1181.215019
21
-401.897745
0
LINE
8
0
10
-1181.215019
20
-401.897745
11
-1180.260093
21
-403.880048
0
LINE
8
0
10
-1180.260093
20
-403.880048
11
-1179.124203
21
-405.749780
0
LINE
8
0
10
-1179.124203
20
-405.749780
11
-1177.818747
21
-407.495543
0
LINE
8
0
10
-1177.818747
20
-407.495543
11
-1176.355125
21
-409.105937
0
LINE
8
0
10
-1176.355125
20
-409.105937
11
-1174.744735
21
-410.569565
0
LINE
8
0
10
-1174.744735
20
-410.569565
11
-1172.998975
21
-411.875028
0
LINE
8
0
10
-1172.998975
20
-411.875028
11
-1171.129245
21
-413.010926
0
LINE
8
0
10
-1171.129245
20
-413.010926
11
-1169.146944
21
-413.965861
0
LINE
8
0
10
-1169.146944
20
-413.965861
11
-1167.063470
21
-414.728435
0
LINE
8
0
10
-1167.063470
20
-414.728435
11
-1164.890222
21
-415.287248
0
LINE
8
0
10
-1164.890222
20
-415.287248
11
-1162.638599
21
-415.630903
0
LINE
8
0
10
-1162.638599
20
-415.630903
11
-1160.320000
21
-415.748000
 0 
ENDSEC
 0 
EOF