0
SECTION
2
HEADER
9
$INSUNITS
70
4
9
$ACADVER
1
AC1014
9
$HANDSEED
5
FFFF
0
ENDSEC
0
SECTION
2
TABLES
0
TABLE
2
VPORT
5
8
100
AcDbSymbolTable
0
ENDTAB
0
TABLE
2
LTYPE
5
5
100
AcDbSymbolTable
0
LTYPE
5
14
100
AcDbSymbolTableRecord
100
AcDbLinetypeTableRecord
2
BYBLOCK
70
0
0
LTYPE
5
15
100
AcDbSymbolTableRecord
100
AcDbLinetypeTableRecord
2
BYLAYER
70
0
0
ENDTAB
0
TABLE
2
LAYER
5
2
100
AcDbSymbolTable
70
2
0
LAYER
5
50
100
AcDbSymbolTableRecord
100
AcDbLayerTableRecord
2
0
70
0
6
CONTINUOUS
0
ENDTAB
0
TABLE
2
STYLE
5
3
100
AcDbSymbolTable
70
1
0
STYLE
5
11
100
AcDbSymbolTableRecord
100
AcDbTextStyleTableRecord
2
STANDARD
70
0
0
ENDTAB
0
TABLE
2
VIEW
5
6
100
AcDbSymbolTable
70
0
0
ENDTAB
0
TABLE
2
UCS
5
7
100
AcDbSymbolTable
70
0
0
ENDTAB
0
TABLE
2
APPID
5
9
100
AcDbSymbolTable
70
2
0
APPID
5
12
100
AcDbSymbolTableRecord
100
AcDbRegAppTableRecord
2
ACAD
70
0
0
ENDTAB
0
TABLE
2
DIMSTYLE
5
A
100
AcDbSymbolTable
70
1
0
ENDTAB
0
TABLE
2
BLOCK_RECORD
5
1
100
AcDbSymbolTable
70
1
0
BLOCK_RECORD
5
1F
100
AcDbSymbolTableRecord
100
AcDbBlockTableRecord
2
*MODEL_SPACE
0
BLOCK_RECORD
5
1B
100
AcDbSymbolTableRecord
100
AcDbBlockTableRecord
2
*PAPER_SPACE
0
ENDTAB
0
ENDSEC
0
SECTION
2
BLOCKS
0
BLOCK
5
20
100
AcDbEntity
100
AcDbBlockBegin
2
*MODEL_SPACE
0
ENDBLK
5
21
100
AcDbEntity
100
AcDbBlockEnd
0
BLOCK
5
1C
100
AcDbEntity
100
AcDbBlockBegin
2
*PAPER_SPACE
0
ENDBLK
5
1D
100
AcDbEntity
100
AcDbBlockEnd
0
ENDSEC
0
SECTION
2
ENTITIES
0
CIRCLE
5
100
100
AcDbEntity
8
0
100
AcDbCircle
10
272.00000000000017
20
657.99999999999932
30
0
40
0.99999999999997868
210
0
220
-0
230
1
0
CIRCLE
5
101
100
AcDbEntity
8
0
100
AcDbCircle
10
178.00000000000017
20
725.99999999999932
30
0
40
0.99999999999997868
210
0
220
-0
230
1
0
CIRCLE
5
102
100
AcDbEntity
8
0
100
AcDbCircle
10
272.00000000000017
20
725.99999999999932
30
0
40
0.99999999999997868
210
0
220
-0
230
1
0
CIRCLE
5
103
100
AcDbEntity
8
0
100
AcDbCircle
10
178.00000000000017
20
657.99999999999932
30
0
40
0.99999999999997868
210
0
220
-0
230
1
0
CIRCLE
5
104
100
AcDbEntity
8
0
100
AcDbCircle
10
167.7000000000001
20
680.19999999999959
30
0
40
1.4999999999999858
210
0
220
0
230
1
0
CIRCLE
5
105
100
AcDbEntity
8
0
100
AcDbCircle
10
282.30000000000013
20
703.79999999999939
30
0
40
1.4999999999999858
210
0
220
0
230
1
0
CIRCLE
5
106
100
AcDbEntity
8
0
100
AcDbCircle
10
167.7000000000001
20
703.7999999999995
30
0
40
1.4999999999999858
210
0
220
0
230
1
0
CIRCLE
5
107
100
AcDbEntity
8
0
100
AcDbCircle
10
282.30000000000013
20
680.19999999999925
30
0
40
1.4999999999999858
210
0
220
0
230
1
0
CIRCLE
5
108
100
AcDbEntity
8
0
100
AcDbCircle
10
283.00000000000017
20
657.99999999999943
30
0
40
1.4999999999999858
210
0
220
-0
230
1
0
CIRCLE
5
109
100
AcDbEntity
8
0
100
AcDbCircle
10
167.00000000000014
20
725.99999999999932
30
0
40
1.4999999999999858
210
0
220
-0
230
1
0
CIRCLE
5
110
100
AcDbEntity
8
0
100
AcDbCircle
10
283.00000000000017
20
725.99999999999932
30
0
40
1.4999999999999858
210
0
220
-0
230
1
0
CIRCLE
5
111
100
AcDbEntity
8
0
100
AcDbCircle
10
167.00000000000014
20
657.99999999999943
30
0
40
1.4999999999999858
210
0
220
-0
230
1
0
LWPOLYLINE
5
112
100
AcDbEntity
8
0
100
AcDbPolyline
90
8
70
1
43
0.0
10
288.00000000000017
20
658.99999999999932
42
-0.41421356237311413
10
282.00000000000011
20
652.99999999999943
10
168.00000000000011
20
652.99999999999955
42
-0.41421356237310025
10
162.00000000000011
20
658.99999999999955
10
162.00000000000006
20
724.99999999999943
42
-0.41421356237310025
10
168.00000000000011
20
730.99999999999932
10
282.00000000000011
20
730.99999999999932
42
-0.41421356237310025
10
288.00000000000011
20
724.99999999999943
0
LWPOLYLINE
5
113
100
AcDbEntity
8
0
100
AcDbPolyline
90
6
70
1
43
0.0
10
260.10654450828099
20
664.48768981581634
10
255.08874525898631
20
670.19999999999936
10
237.35091008431706
20
670.19999999999936
10
230.27193656916296
20
664.44975098605778
42
0.22347937751590988
10
233.35353192983087
20
662.99999999999943
10
256.15191977239033
20
662.99999999999943
42
0.18187316544872639
0
LWPOLYLINE
5
114
100
AcDbEntity
8
0
100
AcDbPolyline
90
6
70
1
43
0.0
10
239.89345549171793
20
719.51231018418241
10
244.91125474101267
20
713.79999999999939
10
262.649089915682
20
713.79999999999939
10
269.72806343083613
20
719.55024901394097
42
0.22347937751595387
10
266.64646807016817
20
720.99999999999932
10
243.84808022760868
20
720.99999999999932
42
0.18187316544871499
0
LWPOLYLINE
5
115
100
AcDbEntity
8
0
100
AcDbPolyline
90
6
70
1
43
0.0
10
262.06076629046356
20
667.95811093399777
10
265.80053246557833
20
689.16737885254759
42
0.42991751857592125
10
264.07275465264939
20
691.49999999999932
10
258.74724630108295
20
687.17409044803162
10
255.86551290507549
20
670.8309682302696
10
260.80322339451862
20
665.20983184874592
42
0.1279932571369434
0
CIRCLE
5
116
100
AcDbEntity
8
0
100
AcDbCircle
10
268.64999999999952
20
670.19999999999936
30
0
40
3.3000000000000007
210
0
220
-0
230
1
0
CIRCLE
5
117
100
AcDbEntity
8
0
100
AcDbCircle
10
231.24999999999949
20
705.99999999999932
30
0
40
1.499999999999998
210
0
220
-0
230
1
0
CIRCLE
5
118
100
AcDbEntity
8
0
100
AcDbCircle
10
249.99999999999949
20
705.99999999999932
30
0
40
1.4999999999999991
210
0
220
-0
230
1
0
CIRCLE
5
119
100
AcDbEntity
8
0
100
AcDbCircle
10
249.99999999999949
20
677.99999999999943
30
0
40
1.4999999999999991
210
0
220
-0
230
1
0
CIRCLE
5
120
100
AcDbEntity
8
0
100
AcDbCircle
10
231.34999999999951
20
713.79999999999939
30
0
40
3.2999999999999998
210
0
220
-0
230
1
0
CIRCLE
5
121
100
AcDbEntity
8
0
100
AcDbCircle
10
268.74999999999949
20
677.99999999999943
30
0
40
1.4999999999999947
210
0
220
-0
230
1
0
LWPOLYLINE
5
122
100
AcDbEntity
8
0
100
AcDbPolyline
90
6
70
1
43
0.0
10
239.93254943101763
20
688.39999999999941
10
258.67038460568699
20
688.39999999999941
10
263.17665988870834
20
692.06044666606931
10
260.06745056898131
20
695.59999999999945
10
241.32961539431204
20
695.59999999999945
10
236.82334011129069
20
691.93955333392955
0
LWPOLYLINE
5
123
100
AcDbEntity
8
0
100
AcDbPolyline
90
6
70
1
43
0.0
10
235.92724534734967
20
692.49999999999943
42
-0.42991751857597083
10
234.19946753442062
20
694.83262114745128
10
237.93923370953522
20
716.0418890660012
42
-0.12799325713693699
10
239.19677660548035
20
718.79016815125283
10
244.13448709492343
20
713.16903176972926
10
241.25275369891602
20
696.82590955196713
0
LWPOLYLINE
5
124
100
AcDbEntity
8
0
100
AcDbPolyline
90
6
70
1
43
0.0
10
210.10654450828105
20
664.48768981581634
10
205.08874525898636
20
670.19999999999936
10
187.35091008431712
20
670.19999999999936
10
180.27193656916302
20
664.44975098605778
42
0.22347937751590988
10
183.35353192983092
20
662.99999999999943
10
206.15191977239039
20
662.99999999999943
42
0.18187316544872639
0
LWPOLYLINE
5
125
100
AcDbEntity
8
0
100
AcDbPolyline
90
6
70
1
43
0.0
10
189.89345549171802
20
719.51231018418241
10
194.91125474101273
20
713.79999999999939
10
212.64908991568205
20
713.79999999999939
10
219.72806343083619
20
719.55024901394097
42
0.22347937751595387
10
216.64646807016823
20
720.99999999999932
10
193.84808022760876
20
720.99999999999932
42
0.18187316544871499
0
LWPOLYLINE
5
126
100
AcDbEntity
8
0
100
AcDbPolyline
90
6
70
1
43
0.0
10
212.06076629046365
20
667.95811093399777
10
215.80053246557841
20
689.16737885254759
42
0.42991751857592125
10
214.07275465264945
20
691.49999999999932
10
208.74724630108304
20
687.17409044803162
10
205.86551290507558
20
670.8309682302696
10
210.80322339451871
20
665.20983184874592
42
0.1279932571369434
0
CIRCLE
5
127
100
AcDbEntity
8
0
100
AcDbCircle
10
218.64999999999958
20
670.19999999999936
30
0
40
3.3000000000000007
210
0
220
-0
230
1
0
CIRCLE
5
128
100
AcDbEntity
8
0
100
AcDbCircle
10
181.24999999999957
20
705.99999999999932
30
0
40
1.499999999999998
210
0
220
-0
230
1
0
CIRCLE
5
129
100
AcDbEntity
8
0
100
AcDbCircle
10
199.99999999999957
20
705.99999999999932
30
0
40
1.4999999999999991
210
0
220
-0
230
1
0
CIRCLE
5
130
100
AcDbEntity
8
0
100
AcDbCircle
10
199.99999999999957
20
677.99999999999943
30
0
40
1.4999999999999991
210
0
220
-0
230
1
0
CIRCLE
5
131
100
AcDbEntity
8
0
100
AcDbCircle
10
181.3499999999996
20
713.79999999999939
30
0
40
3.2999999999999998
210
0
220
-0
230
1
0
CIRCLE
5
132
100
AcDbEntity
8
0
100
AcDbCircle
10
218.74999999999957
20
677.99999999999943
30
0
40
1.4999999999999947
210
0
220
-0
230
1
0
LWPOLYLINE
5
133
100
AcDbEntity
8
0
100
AcDbPolyline
90
6
70
1
43
0.0
10
189.93254943101772
20
688.39999999999941
10
208.67038460568705
20
688.39999999999941
10
213.1766598887084
20
692.06044666606931
10
210.0674505689814
20
695.59999999999945
10
191.3296153943121
20
695.59999999999945
10
186.82334011129075
20
691.93955333392955
0
LWPOLYLINE
5
134
100
AcDbEntity
8
0
100
AcDbPolyline
90
6
70
1
43
0.0
10
185.92724534734973
20
692.49999999999943
42
-0.42991751857597083
10
184.19946753442071
20
694.83262114745128
10
187.9392337095353
20
716.0418890660012
42
-0.12799325713693699
10
189.19677660548044
20
718.79016815125283
10
194.13448709492349
20
713.16903176972926
10
191.25275369891611
20
696.82590955196713
0
LWPOLYLINE
5
135
100
AcDbEntity
8
0
100
AcDbPolyline
90
10
70
1
43
0.0
10
233.84999999999991
20
690.4592352655709
10
233.84999999999991
20
694.89999999999998
42
0.99999999999999989
10
231.84999999999988
20
694.89999999999998
10
231.84999999999991
20
689.09999999999991
42
0.46355765119470943
10
233.01473374156257
20
688.11366192692833
10
229.41430091778201
20
667.69459271066705
42
0.15458156081626387
10
229.73271738957021
20
665.30008763018816
10
236.6904609382114
20
670.95186156240948
10
239.57219433421881
20
687.29498378017138
10
235.87843006883463
20
691.49999999999955
42
0.19739002005069592
0
LWPOLYLINE
5
136
100
AcDbEntity
8
0
100
AcDbPolyline
90
10
70
1
43
0.0
10
266.14999999999986
20
693.54076473442888
10
266.14999999999992
20
689.09999999999991
42
0.99999999999999989
10
268.14999999999992
20
689.09999999999991
10
268.14999999999992
20
694.89999999999998
42
0.4635576511948265
10
266.98526625843664
20
695.88633807307156
10
270.58569908221699
20
716.3054072893317
42
0.15458156081627578
10
270.26728261042882
20
718.69991236981059
10
263.30953906178769
20
713.0481384375895
10
260.42780566578023
20
696.70501621982737
10
264.1215699311644
20
692.49999999999932
42
0.19739002005084305
0
LWPOLYLINE
5
137
100
AcDbEntity
8
0
100
AcDbPolyline
90
10
70
1
43
0.0
10
183.84999999999991
20
690.45923526557078
10
183.84999999999991
20
694.89999999999998
42
0.99999999999999989
10
181.84999999999988
20
694.89999999999998
10
181.84999999999988
20
689.09999999999991
42
0.46355765119470943
10
183.01473374156259
20
688.11366192692833
10
179.4143009177821
20
667.69459271066705
42
0.15458156081626387
10
179.73271738957027
20
665.30008763018816
10
186.69046093821149
20
670.95186156240948
10
189.57219433421886
20
687.29498378017138
10
185.87843006883472
20
691.49999999999955
42
0.19739002005079073
0
LWPOLYLINE
5
138
100
AcDbEntity
8
0
100
AcDbPolyline
90
10
70
1
43
0.0
10
216.14999999999986
20
693.54076473442876
10
216.14999999999992
20
689.09999999999991
42
0.99999999999999989
10
218.14999999999995
20
689.09999999999991
10
218.14999999999992
20
694.89999999999998
42
0.46355765119481585
10
216.98526625843675
20
695.88633807307156
10
220.58569908221705
20
716.3054072893317
42
0.15458156081627578
10
220.26728261042888
20
718.69991236981059
10
213.30953906178775
20
713.0481384375895
10
210.42780566578031
20
696.70501621982737
10
214.12156993116446
20
692.49999999999932
42
0.19739002005079728
0
ENDSEC
0
SECTION
2
OBJECTS
0
DICTIONARY
5
C
100
AcDbDictionary
3
ACAD_GROUP
350
D
3
ACAD_MLINESTYLE
350
17
0
DICTIONARY
5
D
100
AcDbDictionary
0
DICTIONARY
5
1A
330
C
100
AcDbDictionary
0
DICTIONARY
5
17
100
AcDbDictionary
0
ENDSEC
0
EOF
