  0
SECTION
  2
HEADER
  9
$ACADVER
  1
AC1014
  9
$HANDSEED
  5
FFFF
  9
$MEASUREMENT
 70
     1
  0
ENDSEC
  0
SECTION
  2
TABLES
  0
TABLE
  2
VPORT
  5
8
330
0
100
AcDbSymbolTable
 70
     4
  0
VPORT
  5
2E
330
8
100
AcDbSymbolTableRecord
100
AcDbViewportTableRecord
  2
*ACTIVE
 70
     0
 10
0.0
 20
0.0
 11
1.0
 21
1.0
 12
210.0
 22
148.5
 13
0.0
 23
0.0
 14
10.0
 24
10.0
 15
10.0
 25
10.0
 16
0.0
 26
0.0
 36
1.0
 17
0.0
 27
0.0
 37
0.0
 40
341.0
 41
1.24
 42
50.0
 43
0.0
 44
0.0
 50
0.0
 51
0.0
 71
     0
 72
   100
 73
     1
 74
     3
 75
     0
 76
     0
 77
     0
 78
     0
  0
ENDTAB
  0
TABLE
  2
LTYPE
  5
5
330
0
100
AcDbSymbolTable
 70
     1
  0
LTYPE
  5
14
330
5
100
AcDbSymbolTableRecord
100
AcDbLinetypeTableRecord
  2
BYBLOCK
 70
     0
  3

 72
    65
 73
     0
 40
0.0
  0
LTYPE
  5
15
330
5
100
AcDbSymbolTableRecord
100
AcDbLinetypeTableRecord
  2
BYLAYER
 70
     0
  3

 72
    65
 73
     0
 40
0.0
  0
LTYPE
  5
16
330
5
100
AcDbSymbolTableRecord
100
AcDbLinetypeTableRecord
  2
CONTINUOUS
 70
     0
  3
Solid line
 72
    65
 73
     0
 40
0.0
  0
ENDTAB
  0
TABLE
  2
LAYER
  5
2
100
AcDbSymbolTable
 70
2
  0
LAYER
  5
50
100
AcDbSymbolTableRecord
100
AcDbLayerTableRecord
  2
0
 70
0
  6
CONTINUOUS
  0
LAYER
  5
51
100
AcDbSymbolTableRecord
100
AcDbLayerTableRecord
  2
Layer_1
 70
0
  6
CONTINUOUS
  0
ENDTAB
  0
TABLE
  2
STYLE
  5
3
330
0
100
AcDbSymbolTable
 70
     1
  0
STYLE
  5
11
330
3
100
AcDbSymbolTableRecord
100
AcDbTextStyleTableRecord
  2
STANDARD
 70
     0
 40
0.0
 41
1.0
 50
0.0
 71
     0
 42
2.5
  3
txt
  4

  0
ENDTAB
  0
TABLE
  2
VIEW
  5
6
330
0
100
AcDbSymbolTable
 70
     0
  0
ENDTAB
  0
TABLE
  2
UCS
  5
7
330
0
100
AcDbSymbolTable
 70
     0
  0
ENDTAB
  0
TABLE
  2
APPID
  5
9
330
0
100
AcDbSymbolTable
 70
     2
  0
APPID
  5
12
330
9
100
AcDbSymbolTableRecord
100
AcDbRegAppTableRecord
  2
ACAD
 70
     0
  0
ENDTAB
  0
TABLE
  2
DIMSTYLE
  5
A
330
0
100
AcDbSymbolTable
 70
     1
  0
DIMSTYLE
105
27
330
A
100
AcDbSymbolTableRecord
100
AcDbDimStyleTableRecord
  2
ISO-25
 70
     0
  3

  4

  5

  6

  7

 40
1.0
 41
2.5
 42
0.625
 43
3.75
 44
1.25
 45
0.0
 46
0.0
 47
0.0
 48
0.0
140
2.5
141
2.5
142
0.0
143
0.03937007874016
144
1.0
145
0.0
146
1.0
147
0.625
 71
     0
 72
     0
 73
     0
 74
     0
 75
     0
 76
     0
 77
     1
 78
     8
170
     0
171
     3
172
     1
173
     0
174
     0
175
     0
176
     0
177
     0
178
     0
270
     2
271
     2
272
     2
273
     2
274
     3
340
11
275
     0
280
     0
281
     0
282
     0
283
     0
284
     8
285
     0
286
     0
287
     3
288
     0
  0
ENDTAB
  0
TABLE
  2
BLOCK_RECORD
  5
1
330
0
100
AcDbSymbolTable
 70
     1
  0
BLOCK_RECORD
  5
1F
330
1
100
AcDbSymbolTableRecord
100
AcDbBlockTableRecord
  2
*MODEL_SPACE
  0
BLOCK_RECORD
  5
1B
330
1
100
AcDbSymbolTableRecord
100
AcDbBlockTableRecord
  2
*PAPER_SPACE
  0
ENDTAB
  0
ENDSEC
  0
SECTION
  2
BLOCKS
  0
BLOCK
  5
20
330
1F
100
AcDbEntity
  8
0
100
AcDbBlockBegin
  2
*MODEL_SPACE
 70
     0
 10
0.0
 20
0.0
 30
0.0
  3
*MODEL_SPACE
  1

  0
ENDBLK
  5
21
330
1F
100
AcDbEntity
  8
0
100
AcDbBlockEnd
  0
BLOCK
  5
1C
330
1B
100
AcDbEntity
 67
     1
  8
0
100
AcDbBlockBegin
  2
*PAPER_SPACE
  1

  0
ENDBLK
  5
1D
330
1B
100
AcDbEntity
 67
     1
  8
0
100
AcDbBlockEnd
  0
ENDSEC
  0
SECTION
  2
ENTITIES
  0
SPLINE
  5
100
100
AcDbEntity
  8
Layer_1
 62
7
100
AcDbSpline
 70
8
 71
3
 72
8
 73
4
 74
0
 40
0
 40
0
 40
0
 40
0
 40
1
 40
1
 40
1
 40
1
 10
111.099993
 20
129.500028
 30
0.0
 10
111.101372
 20
129.858207
 30
0.0
 10
110.911077
 20
130.189771
 30
0.0
 10
110.601111
 20
130.369260
 30
0.0
  0
SPLINE
  5
101
100
AcDbEntity
  8
Layer_1
 62
7
100
AcDbSpline
 70
8
 71
3
 72
8
 73
4
 74
0
 40
0
 40
0
 40
0
 40
0
 40
1
 40
1
 40
1
 40
1
 10
110.601111
 20
130.369260
 30
0.0
 10
110.291146
 20
130.548749
 30
0.0
 10
109.908855
 20
130.548749
 30
0.0
 10
109.598890
 20
130.369260
 30
0.0
  0
SPLINE
  5
102
100
AcDbEntity
  8
Layer_1
 62
7
100
AcDbSpline
 70
8
 71
3
 72
8
 73
4
 74
0
 40
0
 40
0
 40
0
 40
0
 40
1
 40
1
 40
1
 40
1
 10
109.598890
 20
130.369260
 30
0.0
 10
109.288925
 20
130.189771
 30
0.0
 10
109.098629
 20
129.858207
 30
0.0
 10
109.100008
 20
129.500028
 30
0.0
  0
SPLINE
  5
103
100
AcDbEntity
  8
Layer_1
 62
7
100
AcDbSpline
 70
8
 71
3
 72
8
 73
4
 74
0
 40
0
 40
0
 40
0
 40
0
 40
1
 40
1
 40
1
 40
1
 10
109.100008
 20
129.500028
 30
0.0
 10
109.098629
 20
129.141848
 30
0.0
 10
109.288925
 20
128.810284
 30
0.0
 10
109.598890
 20
128.630795
 30
0.0
  0
SPLINE
  5
104
100
AcDbEntity
  8
Layer_1
 62
7
100
AcDbSpline
 70
8
 71
3
 72
8
 73
4
 74
0
 40
0
 40
0
 40
0
 40
0
 40
1
 40
1
 40
1
 40
1
 10
109.598890
 20
128.630795
 30
0.0
 10
109.908855
 20
128.451306
 30
0.0
 10
110.291146
 20
128.451306
 30
0.0
 10
110.601111
 20
128.630795
 30
0.0
  0
SPLINE
  5
105
100
AcDbEntity
  8
Layer_1
 62
7
100
AcDbSpline
 70
8
 71
3
 72
8
 73
4
 74
0
 40
0
 40
0
 40
0
 40
0
 40
1
 40
1
 40
1
 40
1
 10
110.601111
 20
128.630795
 30
0.0
 10
110.911077
 20
128.810284
 30
0.0
 10
111.101372
 20
129.141848
 30
0.0
 10
111.099993
 20
129.500028
 30
0.0
  0
SPLINE
  5
106
100
AcDbEntity
  8
Layer_1
 62
7
100
AcDbSpline
 70
8
 71
3
 72
8
 73
4
 74
0
 40
0
 40
0
 40
0
 40
0
 40
1
 40
1
 40
1
 40
1
 10
17.100000
 20
197.500034
 30
0.0
 10
17.100450
 20
197.857599
 30
0.0
 10
16.909950
 20
198.188196
 30
0.0
 10
16.600364
 20
198.367109
 30
0.0
  0
SPLINE
  5
107
100
AcDbEntity
  8
Layer_1
 62
7
100
AcDbSpline
 70
8
 71
3
 72
8
 73
4
 74
0
 40
0
 40
0
 40
0
 40
0
 40
1
 40
1
 40
1
 40
1
 10
16.600364
 20
198.367109
 30
0.0
 10
16.290778
 20
198.546022
 30
0.0
 10
15.909223
 20
198.546022
 30
0.0
 10
15.599637
 20
198.367109
 30
0.0
  0
SPLINE
  5
108
100
AcDbEntity
  8
Layer_1
 62
7
100
AcDbSpline
 70
8
 71
3
 72
8
 73
4
 74
0
 40
0
 40
0
 40
0
 40
0
 40
1
 40
1
 40
1
 40
1
 10
15.599637
 20
198.367109
 30
0.0
 10
15.290051
 20
198.188196
 30
0.0
 10
15.099551
 20
197.857599
 30
0.0
 10
15.100001
 20
197.500034
 30
0.0
  0
SPLINE
  5
109
100
AcDbEntity
  8
Layer_1
 62
7
100
AcDbSpline
 70
8
 71
3
 72
8
 73
4
 74
0
 40
0
 40
0
 40
0
 40
0
 40
1
 40
1
 40
1
 40
1
 10
15.100001
 20
197.500034
 30
0.0
 10
15.099551
 20
197.142468
 30
0.0
 10
15.290051
 20
196.811871
 30
0.0
 10
15.599637
 20
196.632958
 30
0.0
  0
SPLINE
  5
10a
100
AcDbEntity
  8
Layer_1
 62
7
100
AcDbSpline
 70
8
 71
3
 72
8
 73
4
 74
0
 40
0
 40
0
 40
0
 40
0
 40
1
 40
1
 40
1
 40
1
 10
15.599637
 20
196.632958
 30
0.0
 10
15.909223
 20
196.454045
 30
0.0
 10
16.290778
 20
196.454045
 30
0.0
 10
16.600364
 20
196.632958
 30
0.0
  0
SPLINE
  5
10b
100
AcDbEntity
  8
Layer_1
 62
7
100
AcDbSpline
 70
8
 71
3
 72
8
 73
4
 74
0
 40
0
 40
0
 40
0
 40
0
 40
1
 40
1
 40
1
 40
1
 10
16.600364
 20
196.632958
 30
0.0
 10
16.909950
 20
196.811871
 30
0.0
 10
17.100450
 20
197.142468
 30
0.0
 10
17.100000
 20
197.500034
 30
0.0
  0
LWPOLYLINE
  5
10c
100
AcDbEntity
  8
Layer_1
 62
7
100
AcDbPolyline
 90
1
 70
1
 10
111.099993
 20
129.500028
 30
0.0
  0
SPLINE
  5
10d
100
AcDbEntity
  8
Layer_1
 62
7
100
AcDbSpline
 70
8
 71
3
 72
8
 73
4
 74
0
 40
0
 40
0
 40
0
 40
0
 40
1
 40
1
 40
1
 40
1
 10
111.099993
 20
197.500034
 30
0.0
 10
111.101372
 20
197.858213
 30
0.0
 10
110.911077
 20
198.189777
 30
0.0
 10
110.601111
 20
198.369266
 30
0.0
  0
SPLINE
  5
10e
100
AcDbEntity
  8
Layer_1
 62
7
100
AcDbSpline
 70
8
 71
3
 72
8
 73
4
 74
0
 40
0
 40
0
 40
0
 40
0
 40
1
 40
1
 40
1
 40
1
 10
110.601111
 20
198.369266
 30
0.0
 10
110.291146
 20
198.548755
 30
0.0
 10
109.908855
 20
198.548755
 30
0.0
 10
109.598890
 20
198.369266
 30
0.0
  0
SPLINE
  5
10f
100
AcDbEntity
  8
Layer_1
 62
7
100
AcDbSpline
 70
8
 71
3
 72
8
 73
4
 74
0
 40
0
 40
0
 40
0
 40
0
 40
1
 40
1
 40
1
 40
1
 10
109.598890
 20
198.369266
 30
0.0
 10
109.288925
 20
198.189777
 30
0.0
 10
109.098629
 20
197.858213
 30
0.0
 10
109.100008
 20
197.500034
 30
0.0
  0
SPLINE
  5
110
100
AcDbEntity
  8
Layer_1
 62
7
100
AcDbSpline
 70
8
 71
3
 72
8
 73
4
 74
0
 40
0
 40
0
 40
0
 40
0
 40
1
 40
1
 40
1
 40
1
 10
109.100008
 20
197.500034
 30
0.0
 10
109.098629
 20
197.141854
 30
0.0
 10
109.288925
 20
196.810290
 30
0.0
 10
109.598890
 20
196.630801
 30
0.0
  0
SPLINE
  5
111
100
AcDbEntity
  8
Layer_1
 62
7
100
AcDbSpline
 70
8
 71
3
 72
8
 73
4
 74
0
 40
0
 40
0
 40
0
 40
0
 40
1
 40
1
 40
1
 40
1
 10
109.598890
 20
196.630801
 30
0.0
 10
109.908855
 20
196.451312
 30
0.0
 10
110.291146
 20
196.451312
 30
0.0
 10
110.601111
 20
196.630801
 30
0.0
  0
SPLINE
  5
112
100
AcDbEntity
  8
Layer_1
 62
7
100
AcDbSpline
 70
8
 71
3
 72
8
 73
4
 74
0
 40
0
 40
0
 40
0
 40
0
 40
1
 40
1
 40
1
 40
1
 10
110.601111
 20
196.630801
 30
0.0
 10
110.911077
 20
196.810290
 30
0.0
 10
111.101372
 20
197.141854
 30
0.0
 10
111.099993
 20
197.500034
 30
0.0
  0
LWPOLYLINE
  5
113
100
AcDbEntity
  8
Layer_1
 62
7
100
AcDbPolyline
 90
1
 70
1
 10
17.100000
 20
197.500034
 30
0.0
  0
SPLINE
  5
114
100
AcDbEntity
  8
Layer_1
 62
7
100
AcDbSpline
 70
8
 71
3
 72
8
 73
4
 74
0
 40
0
 40
0
 40
0
 40
0
 40
1
 40
1
 40
1
 40
1
 10
17.100000
 20
129.500028
 30
0.0
 10
17.100450
 20
129.857593
 30
0.0
 10
16.909950
 20
130.188190
 30
0.0
 10
16.600364
 20
130.367103
 30
0.0
  0
SPLINE
  5
115
100
AcDbEntity
  8
Layer_1
 62
7
100
AcDbSpline
 70
8
 71
3
 72
8
 73
4
 74
0
 40
0
 40
0
 40
0
 40
0
 40
1
 40
1
 40
1
 40
1
 10
16.600364
 20
130.367103
 30
0.0
 10
16.290778
 20
130.546016
 30
0.0
 10
15.909223
 20
130.546016
 30
0.0
 10
15.599637
 20
130.367103
 30
0.0
  0
SPLINE
  5
116
100
AcDbEntity
  8
Layer_1
 62
7
100
AcDbSpline
 70
8
 71
3
 72
8
 73
4
 74
0
 40
0
 40
0
 40
0
 40
0
 40
1
 40
1
 40
1
 40
1
 10
15.599637
 20
130.367103
 30
0.0
 10
15.290051
 20
130.188190
 30
0.0
 10
15.099551
 20
129.857593
 30
0.0
 10
15.100001
 20
129.500028
 30
0.0
  0
SPLINE
  5
117
100
AcDbEntity
  8
Layer_1
 62
7
100
AcDbSpline
 70
8
 71
3
 72
8
 73
4
 74
0
 40
0
 40
0
 40
0
 40
0
 40
1
 40
1
 40
1
 40
1
 10
15.100001
 20
129.500028
 30
0.0
 10
15.099551
 20
129.142462
 30
0.0
 10
15.290051
 20
128.811865
 30
0.0
 10
15.599637
 20
128.632952
 30
0.0
  0
SPLINE
  5
118
100
AcDbEntity
  8
Layer_1
 62
7
100
AcDbSpline
 70
8
 71
3
 72
8
 73
4
 74
0
 40
0
 40
0
 40
0
 40
0
 40
1
 40
1
 40
1
 40
1
 10
15.599637
 20
128.632952
 30
0.0
 10
15.909223
 20
128.454039
 30
0.0
 10
16.290778
 20
128.454039
 30
0.0
 10
16.600364
 20
128.632952
 30
0.0
  0
SPLINE
  5
119
100
AcDbEntity
  8
Layer_1
 62
7
100
AcDbSpline
 70
8
 71
3
 72
8
 73
4
 74
0
 40
0
 40
0
 40
0
 40
0
 40
1
 40
1
 40
1
 40
1
 10
16.600364
 20
128.632952
 30
0.0
 10
16.909950
 20
128.811865
 30
0.0
 10
17.100450
 20
129.142462
 30
0.0
 10
17.100000
 20
129.500028
 30
0.0
  0
LWPOLYLINE
  5
11a
100
AcDbEntity
  8
Layer_1
 62
7
100
AcDbPolyline
 90
1
 70
1
 10
111.099993
 20
197.500034
 30
0.0
  0
SPLINE
  5
11b
100
AcDbEntity
  8
Layer_1
 62
7
100
AcDbSpline
 70
8
 71
3
 72
8
 73
4
 74
0
 40
0
 40
0
 40
0
 40
0
 40
1
 40
1
 40
1
 40
1
 10
7.300000
 20
151.700051
 30
0.0
 10
7.300390
 20
152.236209
 30
0.0
 10
7.014577
 20
152.731806
 30
0.0
 10
6.550315
 20
152.999998
 30
0.0
  0
SPLINE
  5
11c
100
AcDbEntity
  8
Layer_1
 62
7
100
AcDbSpline
 70
8
 71
3
 72
8
 73
4
 74
0
 40
0
 40
0
 40
0
 40
0
 40
1
 40
1
 40
1
 40
1
 10
6.550315
 20
152.999998
 30
0.0
 10
6.086054
 20
153.268190
 30
0.0
 10
5.513947
 20
153.268190
 30
0.0
 10
5.049685
 20
152.999998
 30
0.0
  0
SPLINE
  5
11d
100
AcDbEntity
  8
Layer_1
 62
7
100
AcDbSpline
 70
8
 71
3
 72
8
 73
4
 74
0
 40
0
 40
0
 40
0
 40
0
 40
1
 40
1
 40
1
 40
1
 10
5.049685
 20
152.999998
 30
0.0
 10
4.585424
 20
152.731806
 30
0.0
 10
4.299611
 20
152.236209
 30
0.0
 10
4.300001
 20
151.700051
 30
0.0
  0
SPLINE
  5
11e
100
AcDbEntity
  8
Layer_1
 62
7
100
AcDbSpline
 70
8
 71
3
 72
8
 73
4
 74
0
 40
0
 40
0
 40
0
 40
0
 40
1
 40
1
 40
1
 40
1
 10
4.300001
 20
151.700051
 30
0.0
 10
4.299611
 20
151.163892
 30
0.0
 10
4.585424
 20
150.668295
 30
0.0
 10
5.049685
 20
150.400103
 30
0.0
  0
SPLINE
  5
11f
100
AcDbEntity
  8
Layer_1
 62
7
100
AcDbSpline
 70
8
 71
3
 72
8
 73
4
 74
0
 40
0
 40
0
 40
0
 40
0
 40
1
 40
1
 40
1
 40
1
 10
5.049685
 20
150.400103
 30
0.0
 10
5.513947
 20
150.131911
 30
0.0
 10
6.086054
 20
150.131911
 30
0.0
 10
6.550315
 20
150.400103
 30
0.0
  0
SPLINE
  5
120
100
AcDbEntity
  8
Layer_1
 62
7
100
AcDbSpline
 70
8
 71
3
 72
8
 73
4
 74
0
 40
0
 40
0
 40
0
 40
0
 40
1
 40
1
 40
1
 40
1
 10
6.550315
 20
150.400103
 30
0.0
 10
7.014577
 20
150.668295
 30
0.0
 10
7.300390
 20
151.163892
 30
0.0
 10
7.300000
 20
151.700051
 30
0.0
  0
LWPOLYLINE
  5
121
100
AcDbEntity
  8
Layer_1
 62
7
100
AcDbPolyline
 90
1
 70
1
 10
17.100000
 20
129.500028
 30
0.0
  0
SPLINE
  5
122
100
AcDbEntity
  8
Layer_1
 62
7
100
AcDbSpline
 70
8
 71
3
 72
8
 73
4
 74
0
 40
0
 40
0
 40
0
 40
0
 40
1
 40
1
 40
1
 40
1
 10
121.899994
 20
175.300037
 30
0.0
 10
121.899994
 20
175.835936
 30
0.0
 10
121.614095
 20
176.331127
 30
0.0
 10
121.149993
 20
176.599077
 30
0.0
  0
SPLINE
  5
123
100
AcDbEntity
  8
Layer_1
 62
7
100
AcDbSpline
 70
8
 71
3
 72
8
 73
4
 74
0
 40
0
 40
0
 40
0
 40
0
 40
1
 40
1
 40
1
 40
1
 10
121.149993
 20
176.599077
 30
0.0
 10
120.685890
 20
176.867027
 30
0.0
 10
120.114093
 20
176.867027
 30
0.0
 10
119.649990
 20
176.599077
 30
0.0
  0
SPLINE
  5
124
100
AcDbEntity
  8
Layer_1
 62
7
100
AcDbSpline
 70
8
 71
3
 72
8
 73
4
 74
0
 40
0
 40
0
 40
0
 40
0
 40
1
 40
1
 40
1
 40
1
 10
119.649990
 20
176.599077
 30
0.0
 10
119.185888
 20
176.331127
 30
0.0
 10
118.899989
 20
175.835936
 30
0.0
 10
118.899989
 20
175.300037
 30
0.0
  0
SPLINE
  5
125
100
AcDbEntity
  8
Layer_1
 62
7
100
AcDbSpline
 70
8
 71
3
 72
8
 73
4
 74
0
 40
0
 40
0
 40
0
 40
0
 40
1
 40
1
 40
1
 40
1
 10
118.899989
 20
175.300037
 30
0.0
 10
118.899989
 20
174.764138
 30
0.0
 10
119.185888
 20
174.268946
 30
0.0
 10
119.649990
 20
174.000997
 30
0.0
  0
SPLINE
  5
126
100
AcDbEntity
  8
Layer_1
 62
7
100
AcDbSpline
 70
8
 71
3
 72
8
 73
4
 74
0
 40
0
 40
0
 40
0
 40
0
 40
1
 40
1
 40
1
 40
1
 10
119.649990
 20
174.000997
 30
0.0
 10
120.114093
 20
173.733047
 30
0.0
 10
120.685890
 20
173.733047
 30
0.0
 10
121.149993
 20
174.000997
 30
0.0
  0
SPLINE
  5
127
100
AcDbEntity
  8
Layer_1
 62
7
100
AcDbSpline
 70
8
 71
3
 72
8
 73
4
 74
0
 40
0
 40
0
 40
0
 40
0
 40
1
 40
1
 40
1
 40
1
 10
121.149993
 20
174.000997
 30
0.0
 10
121.614095
 20
174.268946
 30
0.0
 10
121.899994
 20
174.764138
 30
0.0
 10
121.899994
 20
175.300037
 30
0.0
  0
LWPOLYLINE
  5
128
100
AcDbEntity
  8
Layer_1
 62
7
100
AcDbPolyline
 90
1
 70
1
 10
7.300000
 20
151.700051
 30
0.0
  0
SPLINE
  5
129
100
AcDbEntity
  8
Layer_1
 62
7
100
AcDbSpline
 70
8
 71
3
 72
8
 73
4
 74
0
 40
0
 40
0
 40
0
 40
0
 40
1
 40
1
 40
1
 40
1
 10
7.300000
 20
175.300037
 30
0.0
 10
7.300390
 20
175.836195
 30
0.0
 10
7.014577
 20
176.331793
 30
0.0
 10
6.550315
 20
176.599984
 30
0.0
  0
SPLINE
  5
12a
100
AcDbEntity
  8
Layer_1
 62
7
100
AcDbSpline
 70
8
 71
3
 72
8
 73
4
 74
0
 40
0
 40
0
 40
0
 40
0
 40
1
 40
1
 40
1
 40
1
 10
6.550315
 20
176.599984
 30
0.0
 10
6.086054
 20
176.868176
 30
0.0
 10
5.513947
 20
176.868176
 30
0.0
 10
5.049685
 20
176.599984
 30
0.0
  0
SPLINE
  5
12b
100
AcDbEntity
  8
Layer_1
 62
7
100
AcDbSpline
 70
8
 71
3
 72
8
 73
4
 74
0
 40
0
 40
0
 40
0
 40
0
 40
1
 40
1
 40
1
 40
1
 10
5.049685
 20
176.599984
 30
0.0
 10
4.585424
 20
176.331793
 30
0.0
 10
4.299611
 20
175.836195
 30
0.0
 10
4.300001
 20
175.300037
 30
0.0
  0
SPLINE
  5
12c
100
AcDbEntity
  8
Layer_1
 62
7
100
AcDbSpline
 70
8
 71
3
 72
8
 73
4
 74
0
 40
0
 40
0
 40
0
 40
0
 40
1
 40
1
 40
1
 40
1
 10
4.300001
 20
175.300037
 30
0.0
 10
4.299611
 20
174.763879
 30
0.0
 10
4.585424
 20
174.268281
 30
0.0
 10
5.049685
 20
174.000090
 30
0.0
  0
SPLINE
  5
12d
100
AcDbEntity
  8
Layer_1
 62
7
100
AcDbSpline
 70
8
 71
3
 72
8
 73
4
 74
0
 40
0
 40
0
 40
0
 40
0
 40
1
 40
1
 40
1
 40
1
 10
5.049685
 20
174.000090
 30
0.0
 10
5.513947
 20
173.731898
 30
0.0
 10
6.086054
 20
173.731898
 30
0.0
 10
6.550315
 20
174.000090
 30
0.0
  0
SPLINE
  5
12e
100
AcDbEntity
  8
Layer_1
 62
7
100
AcDbSpline
 70
8
 71
3
 72
8
 73
4
 74
0
 40
0
 40
0
 40
0
 40
0
 40
1
 40
1
 40
1
 40
1
 10
6.550315
 20
174.000090
 30
0.0
 10
7.014577
 20
174.268281
 30
0.0
 10
7.300390
 20
174.763879
 30
0.0
 10
7.300000
 20
175.300037
 30
0.0
  0
LWPOLYLINE
  5
12f
100
AcDbEntity
  8
Layer_1
 62
7
100
AcDbPolyline
 90
1
 70
1
 10
121.899994
 20
175.300037
 30
0.0
  0
SPLINE
  5
130
100
AcDbEntity
  8
Layer_1
 62
7
100
AcDbSpline
 70
8
 71
3
 72
8
 73
4
 74
0
 40
0
 40
0
 40
0
 40
0
 40
1
 40
1
 40
1
 40
1
 10
121.899994
 20
151.700051
 30
0.0
 10
121.899994
 20
152.235950
 30
0.0
 10
121.614095
 20
152.731141
 30
0.0
 10
121.149993
 20
152.999091
 30
0.0
  0
SPLINE
  5
131
100
AcDbEntity
  8
Layer_1
 62
7
100
AcDbSpline
 70
8
 71
3
 72
8
 73
4
 74
0
 40
0
 40
0
 40
0
 40
0
 40
1
 40
1
 40
1
 40
1
 10
121.149993
 20
152.999091
 30
0.0
 10
120.685890
 20
153.267040
 30
0.0
 10
120.114093
 20
153.267040
 30
0.0
 10
119.649990
 20
152.999091
 30
0.0
  0
SPLINE
  5
132
100
AcDbEntity
  8
Layer_1
 62
7
100
AcDbSpline
 70
8
 71
3
 72
8
 73
4
 74
0
 40
0
 40
0
 40
0
 40
0
 40
1
 40
1
 40
1
 40
1
 10
119.649990
 20
152.999091
 30
0.0
 10
119.185888
 20
152.731141
 30
0.0
 10
118.899989
 20
152.235950
 30
0.0
 10
118.899989
 20
151.700051
 30
0.0
  0
SPLINE
  5
133
100
AcDbEntity
  8
Layer_1
 62
7
100
AcDbSpline
 70
8
 71
3
 72
8
 73
4
 74
0
 40
0
 40
0
 40
0
 40
0
 40
1
 40
1
 40
1
 40
1
 10
118.899989
 20
151.700051
 30
0.0
 10
118.899989
 20
151.164151
 30
0.0
 10
119.185888
 20
150.668960
 30
0.0
 10
119.649990
 20
150.401010
 30
0.0
  0
SPLINE
  5
134
100
AcDbEntity
  8
Layer_1
 62
7
100
AcDbSpline
 70
8
 71
3
 72
8
 73
4
 74
0
 40
0
 40
0
 40
0
 40
0
 40
1
 40
1
 40
1
 40
1
 10
119.649990
 20
150.401010
 30
0.0
 10
120.114093
 20
150.133061
 30
0.0
 10
120.685890
 20
150.133061
 30
0.0
 10
121.149993
 20
150.401010
 30
0.0
  0
SPLINE
  5
135
100
AcDbEntity
  8
Layer_1
 62
7
100
AcDbSpline
 70
8
 71
3
 72
8
 73
4
 74
0
 40
0
 40
0
 40
0
 40
0
 40
1
 40
1
 40
1
 40
1
 10
121.149993
 20
150.401010
 30
0.0
 10
121.614095
 20
150.668960
 30
0.0
 10
121.899994
 20
151.164151
 30
0.0
 10
121.899994
 20
151.700051
 30
0.0
  0
LWPOLYLINE
  5
136
100
AcDbEntity
  8
Layer_1
 62
7
100
AcDbPolyline
 90
1
 70
1
 10
7.300000
 20
175.300037
 30
0.0
  0
SPLINE
  5
137
100
AcDbEntity
  8
Layer_1
 62
7
100
AcDbSpline
 70
8
 71
3
 72
8
 73
4
 74
0
 40
0
 40
0
 40
0
 40
0
 40
1
 40
1
 40
1
 40
1
 10
122.600002
 20
129.500028
 30
0.0
 10
122.600002
 20
130.035927
 30
0.0
 10
122.314103
 20
130.531118
 30
0.0
 10
121.850001
 20
130.799068
 30
0.0
  0
SPLINE
  5
138
100
AcDbEntity
  8
Layer_1
 62
7
100
AcDbSpline
 70
8
 71
3
 72
8
 73
4
 74
0
 40
0
 40
0
 40
0
 40
0
 40
1
 40
1
 40
1
 40
1
 10
121.850001
 20
130.799068
 30
0.0
 10
121.385898
 20
131.067017
 30
0.0
 10
120.814101
 20
131.067017
 30
0.0
 10
120.349999
 20
130.799068
 30
0.0
  0
SPLINE
  5
139
100
AcDbEntity
  8
Layer_1
 62
7
100
AcDbSpline
 70
8
 71
3
 72
8
 73
4
 74
0
 40
0
 40
0
 40
0
 40
0
 40
1
 40
1
 40
1
 40
1
 10
120.349999
 20
130.799068
 30
0.0
 10
119.885896
 20
130.531118
 30
0.0
 10
119.599997
 20
130.035927
 30
0.0
 10
119.599997
 20
129.500028
 30
0.0
  0
SPLINE
  5
13a
100
AcDbEntity
  8
Layer_1
 62
7
100
AcDbSpline
 70
8
 71
3
 72
8
 73
4
 74
0
 40
0
 40
0
 40
0
 40
0
 40
1
 40
1
 40
1
 40
1
 10
119.599997
 20
129.500028
 30
0.0
 10
119.599997
 20
128.964128
 30
0.0
 10
119.885896
 20
128.468937
 30
0.0
 10
120.349999
 20
128.200987
 30
0.0
  0
SPLINE
  5
13b
100
AcDbEntity
  8
Layer_1
 62
7
100
AcDbSpline
 70
8
 71
3
 72
8
 73
4
 74
0
 40
0
 40
0
 40
0
 40
0
 40
1
 40
1
 40
1
 40
1
 10
120.349999
 20
128.200987
 30
0.0
 10
120.814101
 20
127.933038
 30
0.0
 10
121.385898
 20
127.933038
 30
0.0
 10
121.850001
 20
128.200987
 30
0.0
  0
SPLINE
  5
13c
100
AcDbEntity
  8
Layer_1
 62
7
100
AcDbSpline
 70
8
 71
3
 72
8
 73
4
 74
0
 40
0
 40
0
 40
0
 40
0
 40
1
 40
1
 40
1
 40
1
 10
121.850001
 20
128.200987
 30
0.0
 10
122.314103
 20
128.468937
 30
0.0
 10
122.600002
 20
128.964128
 30
0.0
 10
122.600002
 20
129.500028
 30
0.0
  0
LWPOLYLINE
  5
13d
100
AcDbEntity
  8
Layer_1
 62
7
100
AcDbPolyline
 90
1
 70
1
 10
121.899994
 20
151.700051
 30
0.0
  0
SPLINE
  5
13e
100
AcDbEntity
  8
Layer_1
 62
7
100
AcDbSpline
 70
8
 71
3
 72
8
 73
4
 74
0
 40
0
 40
0
 40
0
 40
0
 40
1
 40
1
 40
1
 40
1
 10
6.600000
 20
197.500034
 30
0.0
 10
6.600390
 20
198.036192
 30
0.0
 10
6.314577
 20
198.531789
 30
0.0
 10
5.850315
 20
198.799981
 30
0.0
  0
SPLINE
  5
13f
100
AcDbEntity
  8
Layer_1
 62
7
100
AcDbSpline
 70
8
 71
3
 72
8
 73
4
 74
0
 40
0
 40
0
 40
0
 40
0
 40
1
 40
1
 40
1
 40
1
 10
5.850315
 20
198.799981
 30
0.0
 10
5.386054
 20
199.068173
 30
0.0
 10
4.813947
 20
199.068173
 30
0.0
 10
4.349685
 20
198.799981
 30
0.0
  0
SPLINE
  5
140
100
AcDbEntity
  8
Layer_1
 62
7
100
AcDbSpline
 70
8
 71
3
 72
8
 73
4
 74
0
 40
0
 40
0
 40
0
 40
0
 40
1
 40
1
 40
1
 40
1
 10
4.349685
 20
198.799981
 30
0.0
 10
3.885424
 20
198.531789
 30
0.0
 10
3.599611
 20
198.036192
 30
0.0
 10
3.600001
 20
197.500034
 30
0.0
  0
SPLINE
  5
141
100
AcDbEntity
  8
Layer_1
 62
7
100
AcDbSpline
 70
8
 71
3
 72
8
 73
4
 74
0
 40
0
 40
0
 40
0
 40
0
 40
1
 40
1
 40
1
 40
1
 10
3.600001
 20
197.500034
 30
0.0
 10
3.599611
 20
196.963875
 30
0.0
 10
3.885424
 20
196.468278
 30
0.0
 10
4.349685
 20
196.200086
 30
0.0
  0
SPLINE
  5
142
100
AcDbEntity
  8
Layer_1
 62
7
100
AcDbSpline
 70
8
 71
3
 72
8
 73
4
 74
0
 40
0
 40
0
 40
0
 40
0
 40
1
 40
1
 40
1
 40
1
 10
4.349685
 20
196.200086
 30
0.0
 10
4.813947
 20
195.931894
 30
0.0
 10
5.386054
 20
195.931894
 30
0.0
 10
5.850315
 20
196.200086
 30
0.0
  0
SPLINE
  5
143
100
AcDbEntity
  8
Layer_1
 62
7
100
AcDbSpline
 70
8
 71
3
 72
8
 73
4
 74
0
 40
0
 40
0
 40
0
 40
0
 40
1
 40
1
 40
1
 40
1
 10
5.850315
 20
196.200086
 30
0.0
 10
6.314577
 20
196.468278
 30
0.0
 10
6.600390
 20
196.963875
 30
0.0
 10
6.600000
 20
197.500034
 30
0.0
  0
LWPOLYLINE
  5
144
100
AcDbEntity
  8
Layer_1
 62
7
100
AcDbPolyline
 90
1
 70
1
 10
122.600002
 20
129.500028
 30
0.0
  0
SPLINE
  5
145
100
AcDbEntity
  8
Layer_1
 62
7
100
AcDbSpline
 70
8
 71
3
 72
8
 73
4
 74
0
 40
0
 40
0
 40
0
 40
0
 40
1
 40
1
 40
1
 40
1
 10
122.600002
 20
197.500034
 30
0.0
 10
122.600002
 20
198.035933
 30
0.0
 10
122.314103
 20
198.531124
 30
0.0
 10
121.850001
 20
198.799074
 30
0.0
  0
SPLINE
  5
146
100
AcDbEntity
  8
Layer_1
 62
7
100
AcDbSpline
 70
8
 71
3
 72
8
 73
4
 74
0
 40
0
 40
0
 40
0
 40
0
 40
1
 40
1
 40
1
 40
1
 10
121.850001
 20
198.799074
 30
0.0
 10
121.385898
 20
199.067023
 30
0.0
 10
120.814101
 20
199.067023
 30
0.0
 10
120.349999
 20
198.799074
 30
0.0
  0
SPLINE
  5
147
100
AcDbEntity
  8
Layer_1
 62
7
100
AcDbSpline
 70
8
 71
3
 72
8
 73
4
 74
0
 40
0
 40
0
 40
0
 40
0
 40
1
 40
1
 40
1
 40
1
 10
120.349999
 20
198.799074
 30
0.0
 10
119.885896
 20
198.531124
 30
0.0
 10
119.599997
 20
198.035933
 30
0.0
 10
119.599997
 20
197.500034
 30
0.0
  0
SPLINE
  5
148
100
AcDbEntity
  8
Layer_1
 62
7
100
AcDbSpline
 70
8
 71
3
 72
8
 73
4
 74
0
 40
0
 40
0
 40
0
 40
0
 40
1
 40
1
 40
1
 40
1
 10
119.599997
 20
197.500034
 30
0.0
 10
119.599997
 20
196.964134
 30
0.0
 10
119.885896
 20
196.468943
 30
0.0
 10
120.349999
 20
196.200993
 30
0.0
  0
SPLINE
  5
149
100
AcDbEntity
  8
Layer_1
 62
7
100
AcDbSpline
 70
8
 71
3
 72
8
 73
4
 74
0
 40
0
 40
0
 40
0
 40
0
 40
1
 40
1
 40
1
 40
1
 10
120.349999
 20
196.200993
 30
0.0
 10
120.814101
 20
195.933044
 30
0.0
 10
121.385898
 20
195.933044
 30
0.0
 10
121.850001
 20
196.200993
 30
0.0
  0
SPLINE
  5
14a
100
AcDbEntity
  8
Layer_1
 62
7
100
AcDbSpline
 70
8
 71
3
 72
8
 73
4
 74
0
 40
0
 40
0
 40
0
 40
0
 40
1
 40
1
 40
1
 40
1
 10
121.850001
 20
196.200993
 30
0.0
 10
122.314103
 20
196.468943
 30
0.0
 10
122.600002
 20
196.964134
 30
0.0
 10
122.600002
 20
197.500034
 30
0.0
  0
LWPOLYLINE
  5
14b
100
AcDbEntity
  8
Layer_1
 62
7
100
AcDbPolyline
 90
1
 70
1
 10
6.600000
 20
197.500034
 30
0.0
  0
SPLINE
  5
14c
100
AcDbEntity
  8
Layer_1
 62
7
100
AcDbSpline
 70
8
 71
3
 72
8
 73
4
 74
0
 40
0
 40
0
 40
0
 40
0
 40
1
 40
1
 40
1
 40
1
 10
6.600000
 20
129.500028
 30
0.0
 10
6.600390
 20
130.036186
 30
0.0
 10
6.314577
 20
130.531783
 30
0.0
 10
5.850315
 20
130.799975
 30
0.0
  0
SPLINE
  5
14d
100
AcDbEntity
  8
Layer_1
 62
7
100
AcDbSpline
 70
8
 71
3
 72
8
 73
4
 74
0
 40
0
 40
0
 40
0
 40
0
 40
1
 40
1
 40
1
 40
1
 10
5.850315
 20
130.799975
 30
0.0
 10
5.386054
 20
131.068167
 30
0.0
 10
4.813947
 20
131.068167
 30
0.0
 10
4.349685
 20
130.799975
 30
0.0
  0
SPLINE
  5
14e
100
AcDbEntity
  8
Layer_1
 62
7
100
AcDbSpline
 70
8
 71
3
 72
8
 73
4
 74
0
 40
0
 40
0
 40
0
 40
0
 40
1
 40
1
 40
1
 40
1
 10
4.349685
 20
130.799975
 30
0.0
 10
3.885424
 20
130.531783
 30
0.0
 10
3.599611
 20
130.036186
 30
0.0
 10
3.600001
 20
129.500028
 30
0.0
  0
SPLINE
  5
14f
100
AcDbEntity
  8
Layer_1
 62
7
100
AcDbSpline
 70
8
 71
3
 72
8
 73
4
 74
0
 40
0
 40
0
 40
0
 40
0
 40
1
 40
1
 40
1
 40
1
 10
3.600001
 20
129.500028
 30
0.0
 10
3.599611
 20
128.963869
 30
0.0
 10
3.885424
 20
128.468272
 30
0.0
 10
4.349685
 20
128.200080
 30
0.0
  0
SPLINE
  5
150
100
AcDbEntity
  8
Layer_1
 62
7
100
AcDbSpline
 70
8
 71
3
 72
8
 73
4
 74
0
 40
0
 40
0
 40
0
 40
0
 40
1
 40
1
 40
1
 40
1
 10
4.349685
 20
128.200080
 30
0.0
 10
4.813947
 20
127.931888
 30
0.0
 10
5.386054
 20
127.931888
 30
0.0
 10
5.850315
 20
128.200080
 30
0.0
  0
SPLINE
  5
151
100
AcDbEntity
  8
Layer_1
 62
7
100
AcDbSpline
 70
8
 71
3
 72
8
 73
4
 74
0
 40
0
 40
0
 40
0
 40
0
 40
1
 40
1
 40
1
 40
1
 10
5.850315
 20
128.200080
 30
0.0
 10
6.314577
 20
128.468272
 30
0.0
 10
6.600390
 20
128.963869
 30
0.0
 10
6.600000
 20
129.500028
 30
0.0
  0
LWPOLYLINE
  5
152
100
AcDbEntity
  8
Layer_1
 62
7
100
AcDbPolyline
 90
1
 70
1
 10
122.600002
 20
197.500034
 30
0.0
  0
SPLINE
  5
153
100
AcDbEntity
  8
Layer_1
 62
7
100
AcDbSpline
 70
8
 71
3
 72
8
 73
4
 74
0
 40
0
 40
0
 40
0
 40
0
 40
1
 40
1
 40
1
 40
1
 10
126.099990
 20
130.500047
 30
0.0
 10
126.099995
 20
127.186341
 30
0.0
 10
123.413712
 20
124.500047
 30
0.0
 10
120.100007
 20
124.500038
 30
0.0
  0
SPLINE
  5
154
100
AcDbEntity
  8
Layer_1
 62
7
100
AcDbSpline
 70
8
 71
3
 72
8
 73
4
 74
0
 40
0
 40
0
 40
0
 40
0
 40
1
 40
1
 40
1
 40
1
 10
120.100007
 20
124.500038
 30
0.0
 10
120.100007
 20
124.500038
 30
0.0
 10
6.100001
 20
124.500038
 30
0.0
 10
6.100001
 20
124.500038
 30
0.0
  0
SPLINE
  5
155
100
AcDbEntity
  8
Layer_1
 62
7
100
AcDbSpline
 70
8
 71
3
 72
8
 73
4
 74
0
 40
0
 40
0
 40
0
 40
0
 40
1
 40
1
 40
1
 40
1
 10
6.100001
 20
124.500038
 30
0.0
 10
4.508700
 20
124.500037
 30
0.0
 10
2.982575
 20
125.132179
 30
0.0
 10
1.857356
 20
126.257400
 30
0.0
  0
SPLINE
  5
156
100
AcDbEntity
  8
Layer_1
 62
7
100
AcDbSpline
 70
8
 71
3
 72
8
 73
4
 74
0
 40
0
 40
0
 40
0
 40
0
 40
1
 40
1
 40
1
 40
1
 10
1.857356
 20
126.257400
 30
0.0
 10
0.732137
 20
127.382620
 30
0.0
 10
0.099997
 20
128.908746
 30
0.0
 10
0.100000
 20
130.500047
 30
0.0
  0
SPLINE
  5
157
100
AcDbEntity
  8
Layer_1
 62
7
100
AcDbSpline
 70
8
 71
3
 72
8
 73
4
 74
0
 40
0
 40
0
 40
0
 40
0
 40
1
 40
1
 40
1
 40
1
 10
0.100000
 20
130.500047
 30
0.0
 10
0.100000
 20
130.500047
 30
0.0
 10
0.100000
 20
196.500041
 30
0.0
 10
0.100000
 20
196.500041
 30
0.0
  0
SPLINE
  5
158
100
AcDbEntity
  8
Layer_1
 62
7
100
AcDbSpline
 70
8
 71
3
 72
8
 73
4
 74
0
 40
0
 40
0
 40
0
 40
0
 40
1
 40
1
 40
1
 40
1
 10
0.100000
 20
196.500041
 30
0.0
 10
0.099997
 20
198.091342
 30
0.0
 10
0.732137
 20
199.617468
 30
0.0
 10
1.857356
 20
200.742688
 30
0.0
  0
SPLINE
  5
159
100
AcDbEntity
  8
Layer_1
 62
7
100
AcDbSpline
 70
8
 71
3
 72
8
 73
4
 74
0
 40
0
 40
0
 40
0
 40
0
 40
1
 40
1
 40
1
 40
1
 10
1.857356
 20
200.742688
 30
0.0
 10
2.982575
 20
201.867908
 30
0.0
 10
4.508700
 20
202.500050
 30
0.0
 10
6.100001
 20
202.500050
 30
0.0
  0
LWPOLYLINE
  5
15a
100
AcDbEntity
  8
Layer_1
 62
7
100
AcDbPolyline
 90
1
 70
1
 10
6.600000
 20
129.500028
 30
0.0
  0
SPLINE
  5
15b
100
AcDbEntity
  8
Layer_1
 62
7
100
AcDbSpline
 70
8
 71
3
 72
8
 73
4
 74
0
 40
0
 40
0
 40
0
 40
0
 40
1
 40
1
 40
1
 40
1
 10
120.100007
 20
202.500050
 30
0.0
 10
123.413712
 20
202.500040
 30
0.0
 10
126.099995
 20
199.813746
 30
0.0
 10
126.099990
 20
196.500041
 30
0.0
  0
LWPOLYLINE
  5
15c
100
AcDbEntity
  8
Layer_1
 62
7
100
AcDbPolyline
 90
2
 70
0
 10
6.100001
 20
202.500050
 30
0.0
 10
120.100007
 20
202.500050
 30
0.0
  0
LWPOLYLINE
  5
15d
100
AcDbEntity
  8
Layer_1
 62
7
100
AcDbPolyline
 90
2
 70
0
 10
126.099990
 20
196.500041
 30
0.0
 10
126.099990
 20
130.500047
 30
0.0
  0
SPLINE
  5
15e
100
AcDbEntity
  8
Layer_1
 62
7
100
AcDbSpline
 70
8
 71
3
 72
8
 73
4
 74
0
 40
0
 40
0
 40
0
 40
0
 40
1
 40
1
 40
1
 40
1
 10
75.450911
 20
141.700044
 30
0.0
 10
75.450911
 20
141.700044
 30
0.0
 10
68.371937
 20
135.949802
 30
0.0
 10
68.371937
 20
135.949802
 30
0.0
  0
SPLINE
  5
15f
100
AcDbEntity
  8
Layer_1
 62
7
100
AcDbSpline
 70
8
 71
3
 72
8
 73
4
 74
0
 40
0
 40
0
 40
0
 40
0
 40
1
 40
1
 40
1
 40
1
 10
68.371937
 20
135.949802
 30
0.0
 10
69.131839
 20
135.031569
 30
0.0
 10
70.261640
 20
134.500046
 30
0.0
 10
71.453531
 20
134.500044
 30
0.0
  0
SPLINE
  5
160
100
AcDbEntity
  8
Layer_1
 62
7
100
AcDbSpline
 70
8
 71
3
 72
8
 73
4
 74
0
 40
0
 40
0
 40
0
 40
0
 40
1
 40
1
 40
1
 40
1
 10
71.453531
 20
134.500044
 30
0.0
 10
71.453531
 20
134.500044
 30
0.0
 10
94.251920
 20
134.500044
 30
0.0
 10
94.251920
 20
134.500044
 30
0.0
  0
SPLINE
  5
161
100
AcDbEntity
  8
Layer_1
 62
7
100
AcDbSpline
 70
8
 71
3
 72
8
 73
4
 74
0
 40
0
 40
0
 40
0
 40
0
 40
1
 40
1
 40
1
 40
1
 10
94.251920
 20
134.500044
 30
0.0
 10
95.706906
 20
134.500047
 30
0.0
 10
97.112321
 20
135.028753
 30
0.0
 10
98.206543
 20
135.987743
 30
0.0
  0
LWPOLYLINE
  5
162
100
AcDbEntity
  8
Layer_1
 62
7
100
AcDbPolyline
 90
3
 70
0
 10
98.206543
 20
135.987743
 30
0.0
 10
93.188744
 20
141.700044
 30
0.0
 10
75.450911
 20
141.700044
 30
0.0
  0
LWPOLYLINE
  5
163
100
AcDbEntity
  8
Layer_1
 62
7
100
AcDbPolyline
 90
1
 70
1
 10
98.206543
 20
135.987743
 30
0.0
  0
SPLINE
  5
164
100
AcDbEntity
  8
Layer_1
 62
7
100
AcDbSpline
 70
8
 71
3
 72
8
 73
4
 74
0
 40
0
 40
0
 40
0
 40
0
 40
1
 40
1
 40
1
 40
1
 10
107.828050
 20
191.050286
 30
0.0
 10
107.068152
 20
191.968514
 30
0.0
 10
105.938359
 20
192.500036
 30
0.0
 10
104.746474
 20
192.500044
 30
0.0
  0
SPLINE
  5
165
100
AcDbEntity
  8
Layer_1
 62
7
100
AcDbSpline
 70
8
 71
3
 72
8
 73
4
 74
0
 40
0
 40
0
 40
0
 40
0
 40
1
 40
1
 40
1
 40
1
 10
104.746474
 20
192.500044
 30
0.0
 10
104.746474
 20
192.500044
 30
0.0
 10
81.948080
 20
192.500044
 30
0.0
 10
81.948080
 20
192.500044
 30
0.0
  0
SPLINE
  5
166
100
AcDbEntity
  8
Layer_1
 62
7
100
AcDbSpline
 70
8
 71
3
 72
8
 73
4
 74
0
 40
0
 40
0
 40
0
 40
0
 40
1
 40
1
 40
1
 40
1
 10
81.948080
 20
192.500044
 30
0.0
 10
80.493094
 20
192.500041
 30
0.0
 10
79.087679
 20
191.971334
 30
0.0
 10
77.993456
 20
191.012344
 30
0.0
  0
LWPOLYLINE
  5
167
100
AcDbEntity
  8
Layer_1
 62
7
100
AcDbPolyline
 90
4
 70
0
 10
77.993456
 20
191.012344
 30
0.0
 10
83.011255
 20
185.300043
 30
0.0
 10
100.749089
 20
185.300043
 30
0.0
 10
107.828050
 20
191.050286
 30
0.0
  0
SPLINE
  5
168
100
AcDbEntity
  8
Layer_1
 62
7
100
AcDbSpline
 70
8
 71
3
 72
8
 73
4
 74
0
 40
0
 40
0
 40
0
 40
0
 40
1
 40
1
 40
1
 40
1
 10
100.160766
 20
139.458150
 30
0.0
 10
100.160766
 20
139.458150
 30
0.0
 10
103.900522
 20
160.667415
 30
0.0
 10
103.900522
 20
160.667415
 30
0.0
  0
SPLINE
  5
169
100
AcDbEntity
  8
Layer_1
 62
7
100
AcDbSpline
 70
8
 71
3
 72
8
 73
4
 74
0
 40
0
 40
0
 40
0
 40
0
 40
1
 40
1
 40
1
 40
1
 10
103.900522
 20
160.667415
 30
0.0
 10
103.995843
 20
161.208007
 30
0.0
 10
103.864781
 20
161.764015
 30
0.0
 10
103.538053
 20
162.205122
 30
0.0
  0
SPLINE
  5
16a
100
AcDbEntity
  8
Layer_1
 62
7
100
AcDbSpline
 70
8
 71
3
 72
8
 73
4
 74
0
 40
0
 40
0
 40
0
 40
0
 40
1
 40
1
 40
1
 40
1
 10
103.538053
 20
162.205122
 30
0.0
 10
103.211326
 20
162.646229
 30
0.0
 10
102.717657
 20
162.933656
 30
0.0
 10
102.172753
 20
163.000034
 30
0.0
  0
LWPOLYLINE
  5
16b
100
AcDbEntity
  8
Layer_1
 62
7
100
AcDbPolyline
 90
1
 70
1
 10
77.993456
 20
191.012344
 30
0.0
  0
SPLINE
  5
16c
100
AcDbEntity
  8
Layer_1
 62
7
100
AcDbSpline
 70
8
 71
3
 72
8
 73
4
 74
0
 40
0
 40
0
 40
0
 40
0
 40
1
 40
1
 40
1
 40
1
 10
93.965513
 20
142.330996
 30
0.0
 10
93.965513
 20
142.330996
 30
0.0
 10
98.903223
 20
136.709870
 30
0.0
 10
98.903223
 20
136.709870
 30
0.0
  0
SPLINE
  5
16d
100
AcDbEntity
  8
Layer_1
 62
7
100
AcDbSpline
 70
8
 71
3
 72
8
 73
4
 74
0
 40
0
 40
0
 40
0
 40
0
 40
1
 40
1
 40
1
 40
1
 10
98.903223
 20
136.709870
 30
0.0
 10
99.550045
 20
137.503651
 30
0.0
 10
99.982960
 20
138.449760
 30
0.0
 10
100.160766
 20
139.458150
 30
0.0
  0
LWPOLYLINE
  5
16e
100
AcDbEntity
  8
Layer_1
 62
7
100
AcDbPolyline
 90
3
 70
0
 10
102.172753
 20
163.000034
 30
0.0
 10
96.847247
 20
158.674123
 30
0.0
 10
93.965513
 20
142.330996
 30
0.0
  0
SPLINE
  5
16f
100
AcDbEntity
  8
Layer_1
 62
7
100
AcDbSpline
 70
8
 71
3
 72
8
 73
4
 74
0
 40
0
 40
0
 40
0
 40
0
 40
1
 40
1
 40
1
 40
1
 10
110.049994
 20
141.700044
 30
0.0
 10
110.049994
 20
142.879022
 30
0.0
 10
109.421017
 20
143.968441
 30
0.0
 10
108.399993
 20
144.557930
 30
0.0
  0
SPLINE
  5
170
100
AcDbEntity
  8
Layer_1
 62
7
100
AcDbSpline
 70
8
 71
3
 72
8
 73
4
 74
0
 40
0
 40
0
 40
0
 40
0
 40
1
 40
1
 40
1
 40
1
 10
108.399993
 20
144.557930
 30
0.0
 10
107.378969
 20
145.147419
 30
0.0
 10
106.121015
 20
145.147419
 30
0.0
 10
105.099991
 20
144.557930
 30
0.0
  0
SPLINE
  5
171
100
AcDbEntity
  8
Layer_1
 62
7
100
AcDbSpline
 70
8
 71
3
 72
8
 73
4
 74
0
 40
0
 40
0
 40
0
 40
0
 40
1
 40
1
 40
1
 40
1
 10
105.099991
 20
144.557930
 30
0.0
 10
104.078967
 20
143.968441
 30
0.0
 10
103.449990
 20
142.879022
 30
0.0
 10
103.449990
 20
141.700044
 30
0.0
  0
SPLINE
  5
172
100
AcDbEntity
  8
Layer_1
 62
7
100
AcDbSpline
 70
8
 71
3
 72
8
 73
4
 74
0
 40
0
 40
0
 40
0
 40
0
 40
1
 40
1
 40
1
 40
1
 10
103.449990
 20
141.700044
 30
0.0
 10
103.449990
 20
140.521067
 30
0.0
 10
104.078967
 20
139.431647
 30
0.0
 10
105.099991
 20
138.842158
 30
0.0
  0
SPLINE
  5
173
100
AcDbEntity
  8
Layer_1
 62
7
100
AcDbSpline
 70
8
 71
3
 72
8
 73
4
 74
0
 40
0
 40
0
 40
0
 40
0
 40
1
 40
1
 40
1
 40
1
 10
105.099991
 20
138.842158
 30
0.0
 10
106.121015
 20
138.252670
 30
0.0
 10
107.378969
 20
138.252670
 30
0.0
 10
108.399993
 20
138.842158
 30
0.0
  0
SPLINE
  5
174
100
AcDbEntity
  8
Layer_1
 62
7
100
AcDbSpline
 70
8
 71
3
 72
8
 73
4
 74
0
 40
0
 40
0
 40
0
 40
0
 40
1
 40
1
 40
1
 40
1
 10
108.399993
 20
138.842158
 30
0.0
 10
109.421017
 20
139.431647
 30
0.0
 10
110.049994
 20
140.521067
 30
0.0
 10
110.049994
 20
141.700044
 30
0.0
  0
LWPOLYLINE
  5
175
100
AcDbEntity
  8
Layer_1
 62
7
100
AcDbPolyline
 90
1
 70
1
 10
100.160766
 20
139.458150
 30
0.0
  0
SPLINE
  5
176
100
AcDbEntity
  8
Layer_1
 62
7
100
AcDbSpline
 70
8
 71
3
 72
8
 73
4
 74
0
 40
0
 40
0
 40
0
 40
0
 40
1
 40
1
 40
1
 40
1
 10
70.850000
 20
177.500047
 30
0.0
 10
70.850319
 20
178.036158
 30
0.0
 10
70.564490
 20
178.531681
 30
0.0
 10
70.100258
 20
178.799828
 30
0.0
  0
SPLINE
  5
177
100
AcDbEntity
  8
Layer_1
 62
7
100
AcDbSpline
 70
8
 71
3
 72
8
 73
4
 74
0
 40
0
 40
0
 40
0
 40
0
 40
1
 40
1
 40
1
 40
1
 10
70.100258
 20
178.799828
 30
0.0
 10
69.636025
 20
179.067975
 30
0.0
 10
69.063976
 20
179.067975
 30
0.0
 10
68.599743
 20
178.799828
 30
0.0
  0
SPLINE
  5
178
100
AcDbEntity
  8
Layer_1
 62
7
100
AcDbSpline
 70
8
 71
3
 72
8
 73
4
 74
0
 40
0
 40
0
 40
0
 40
0
 40
1
 40
1
 40
1
 40
1
 10
68.599743
 20
178.799828
 30
0.0
 10
68.135511
 20
178.531681
 30
0.0
 10
67.849683
 20
178.036158
 30
0.0
 10
67.850001
 20
177.500047
 30
0.0
  0
SPLINE
  5
179
100
AcDbEntity
  8
Layer_1
 62
7
100
AcDbSpline
 70
8
 71
3
 72
8
 73
4
 74
0
 40
0
 40
0
 40
0
 40
0
 40
1
 40
1
 40
1
 40
1
 10
67.850001
 20
177.500047
 30
0.0
 10
67.849683
 20
176.963937
 30
0.0
 10
68.135511
 20
176.468414
 30
0.0
 10
68.599743
 20
176.200267
 30
0.0
  0
SPLINE
  5
17a
100
AcDbEntity
  8
Layer_1
 62
7
100
AcDbSpline
 70
8
 71
3
 72
8
 73
4
 74
0
 40
0
 40
0
 40
0
 40
0
 40
1
 40
1
 40
1
 40
1
 10
68.599743
 20
176.200267
 30
0.0
 10
69.063976
 20
175.932120
 30
0.0
 10
69.636025
 20
175.932120
 30
0.0
 10
70.100258
 20
176.200267
 30
0.0
  0
SPLINE
  5
17b
100
AcDbEntity
  8
Layer_1
 62
7
100
AcDbSpline
 70
8
 71
3
 72
8
 73
4
 74
0
 40
0
 40
0
 40
0
 40
0
 40
1
 40
1
 40
1
 40
1
 10
70.100258
 20
176.200267
 30
0.0
 10
70.564490
 20
176.468414
 30
0.0
 10
70.850319
 20
176.963937
 30
0.0
 10
70.850000
 20
177.500047
 30
0.0
  0
LWPOLYLINE
  5
17c
100
AcDbEntity
  8
Layer_1
 62
7
100
AcDbPolyline
 90
1
 70
1
 10
110.049994
 20
141.700044
 30
0.0
  0
SPLINE
  5
17d
100
AcDbEntity
  8
Layer_1
 62
7
100
AcDbSpline
 70
8
 71
3
 72
8
 73
4
 74
0
 40
0
 40
0
 40
0
 40
0
 40
1
 40
1
 40
1
 40
1
 10
89.600000
 20
177.500047
 30
0.0
 10
89.600390
 20
178.036205
 30
0.0
 10
89.314577
 20
178.531803
 30
0.0
 10
88.850315
 20
178.799995
 30
0.0
  0
SPLINE
  5
17e
100
AcDbEntity
  8
Layer_1
 62
7
100
AcDbSpline
 70
8
 71
3
 72
8
 73
4
 74
0
 40
0
 40
0
 40
0
 40
0
 40
1
 40
1
 40
1
 40
1
 10
88.850315
 20
178.799995
 30
0.0
 10
88.386053
 20
179.068186
 30
0.0
 10
87.813947
 20
179.068186
 30
0.0
 10
87.349685
 20
178.799995
 30
0.0
  0
SPLINE
  5
17f
100
AcDbEntity
  8
Layer_1
 62
7
100
AcDbSpline
 70
8
 71
3
 72
8
 73
4
 74
0
 40
0
 40
0
 40
0
 40
0
 40
1
 40
1
 40
1
 40
1
 10
87.349685
 20
178.799995
 30
0.0
 10
86.885423
 20
178.531803
 30
0.0
 10
86.599610
 20
178.036205
 30
0.0
 10
86.600000
 20
177.500047
 30
0.0
  0
SPLINE
  5
180
100
AcDbEntity
  8
Layer_1
 62
7
100
AcDbSpline
 70
8
 71
3
 72
8
 73
4
 74
0
 40
0
 40
0
 40
0
 40
0
 40
1
 40
1
 40
1
 40
1
 10
86.600000
 20
177.500047
 30
0.0
 10
86.599610
 20
176.963889
 30
0.0
 10
86.885423
 20
176.468292
 30
0.0
 10
87.349685
 20
176.200100
 30
0.0
  0
SPLINE
  5
181
100
AcDbEntity
  8
Layer_1
 62
7
100
AcDbSpline
 70
8
 71
3
 72
8
 73
4
 74
0
 40
0
 40
0
 40
0
 40
0
 40
1
 40
1
 40
1
 40
1
 10
87.349685
 20
176.200100
 30
0.0
 10
87.813947
 20
175.931908
 30
0.0
 10
88.386053
 20
175.931908
 30
0.0
 10
88.850315
 20
176.200100
 30
0.0
  0
SPLINE
  5
182
100
AcDbEntity
  8
Layer_1
 62
7
100
AcDbSpline
 70
8
 71
3
 72
8
 73
4
 74
0
 40
0
 40
0
 40
0
 40
0
 40
1
 40
1
 40
1
 40
1
 10
88.850315
 20
176.200100
 30
0.0
 10
89.314577
 20
176.468292
 30
0.0
 10
89.600390
 20
176.963889
 30
0.0
 10
89.600000
 20
177.500047
 30
0.0
  0
LWPOLYLINE
  5
183
100
AcDbEntity
  8
Layer_1
 62
7
100
AcDbPolyline
 90
1
 70
1
 10
70.850000
 20
177.500047
 30
0.0
  0
SPLINE
  5
184
100
AcDbEntity
  8
Layer_1
 62
7
100
AcDbSpline
 70
8
 71
3
 72
8
 73
4
 74
0
 40
0
 40
0
 40
0
 40
0
 40
1
 40
1
 40
1
 40
1
 10
89.600000
 20
149.500040
 30
0.0
 10
89.600390
 20
150.036198
 30
0.0
 10
89.314577
 20
150.531796
 30
0.0
 10
88.850315
 20
150.799988
 30
0.0
  0
SPLINE
  5
185
100
AcDbEntity
  8
Layer_1
 62
7
100
AcDbSpline
 70
8
 71
3
 72
8
 73
4
 74
0
 40
0
 40
0
 40
0
 40
0
 40
1
 40
1
 40
1
 40
1
 10
88.850315
 20
150.799988
 30
0.0
 10
88.386053
 20
151.068179
 30
0.0
 10
87.813947
 20
151.068179
 30
0.0
 10
87.349685
 20
150.799988
 30
0.0
  0
SPLINE
  5
186
100
AcDbEntity
  8
Layer_1
 62
7
100
AcDbSpline
 70
8
 71
3
 72
8
 73
4
 74
0
 40
0
 40
0
 40
0
 40
0
 40
1
 40
1
 40
1
 40
1
 10
87.349685
 20
150.799988
 30
0.0
 10
86.885423
 20
150.531796
 30
0.0
 10
86.599610
 20
150.036198
 30
0.0
 10
86.600000
 20
149.500040
 30
0.0
  0
SPLINE
  5
187
100
AcDbEntity
  8
Layer_1
 62
7
100
AcDbSpline
 70
8
 71
3
 72
8
 73
4
 74
0
 40
0
 40
0
 40
0
 40
0
 40
1
 40
1
 40
1
 40
1
 10
86.600000
 20
149.500040
 30
0.0
 10
86.599610
 20
148.963882
 30
0.0
 10
86.885423
 20
148.468285
 30
0.0
 10
87.349685
 20
148.200093
 30
0.0
  0
SPLINE
  5
188
100
AcDbEntity
  8
Layer_1
 62
7
100
AcDbSpline
 70
8
 71
3
 72
8
 73
4
 74
0
 40
0
 40
0
 40
0
 40
0
 40
1
 40
1
 40
1
 40
1
 10
87.349685
 20
148.200093
 30
0.0
 10
87.813947
 20
147.931901
 30
0.0
 10
88.386053
 20
147.931901
 30
0.0
 10
88.850315
 20
148.200093
 30
0.0
  0
SPLINE
  5
189
100
AcDbEntity
  8
Layer_1
 62
7
100
AcDbSpline
 70
8
 71
3
 72
8
 73
4
 74
0
 40
0
 40
0
 40
0
 40
0
 40
1
 40
1
 40
1
 40
1
 10
88.850315
 20
148.200093
 30
0.0
 10
89.314577
 20
148.468285
 30
0.0
 10
89.600390
 20
148.963882
 30
0.0
 10
89.600000
 20
149.500040
 30
0.0
  0
LWPOLYLINE
  5
18a
100
AcDbEntity
  8
Layer_1
 62
7
100
AcDbPolyline
 90
1
 70
1
 10
89.600000
 20
177.500047
 30
0.0
  0
SPLINE
  5
18b
100
AcDbEntity
  8
Layer_1
 62
7
100
AcDbSpline
 70
8
 71
3
 72
8
 73
4
 74
0
 40
0
 40
0
 40
0
 40
0
 40
1
 40
1
 40
1
 40
1
 10
72.750000
 20
185.300043
 30
0.0
 10
72.750472
 20
186.479334
 30
0.0
 10
72.121599
 20
187.569246
 30
0.0
 10
71.100381
 20
188.159028
 30
0.0
  0
SPLINE
  5
18c
100
AcDbEntity
  8
Layer_1
 62
7
100
AcDbSpline
 70
8
 71
3
 72
8
 73
4
 74
0
 40
0
 40
0
 40
0
 40
0
 40
1
 40
1
 40
1
 40
1
 10
71.100381
 20
188.159028
 30
0.0
 10
70.079164
 20
188.748810
 30
0.0
 10
68.820836
 20
188.748810
 30
0.0
 10
67.799618
 20
188.159028
 30
0.0
  0
SPLINE
  5
18d
100
AcDbEntity
  8
Layer_1
 62
7
100
AcDbSpline
 70
8
 71
3
 72
8
 73
4
 74
0
 40
0
 40
0
 40
0
 40
0
 40
1
 40
1
 40
1
 40
1
 10
67.799618
 20
188.159028
 30
0.0
 10
66.778401
 20
187.569246
 30
0.0
 10
66.149528
 20
186.479334
 30
0.0
 10
66.150000
 20
185.300043
 30
0.0
  0
SPLINE
  5
18e
100
AcDbEntity
  8
Layer_1
 62
7
100
AcDbSpline
 70
8
 71
3
 72
8
 73
4
 74
0
 40
0
 40
0
 40
0
 40
0
 40
1
 40
1
 40
1
 40
1
 10
66.150000
 20
185.300043
 30
0.0
 10
66.149528
 20
184.120752
 30
0.0
 10
66.778401
 20
183.030840
 30
0.0
 10
67.799618
 20
182.441058
 30
0.0
  0
SPLINE
  5
18f
100
AcDbEntity
  8
Layer_1
 62
7
100
AcDbSpline
 70
8
 71
3
 72
8
 73
4
 74
0
 40
0
 40
0
 40
0
 40
0
 40
1
 40
1
 40
1
 40
1
 10
67.799618
 20
182.441058
 30
0.0
 10
68.820836
 20
181.851276
 30
0.0
 10
70.079164
 20
181.851276
 30
0.0
 10
71.100381
 20
182.441058
 30
0.0
  0
SPLINE
  5
190
100
AcDbEntity
  8
Layer_1
 62
7
100
AcDbSpline
 70
8
 71
3
 72
8
 73
4
 74
0
 40
0
 40
0
 40
0
 40
0
 40
1
 40
1
 40
1
 40
1
 10
71.100381
 20
182.441058
 30
0.0
 10
72.121599
 20
183.030840
 30
0.0
 10
72.750472
 20
184.120752
 30
0.0
 10
72.750000
 20
185.300043
 30
0.0
  0
LWPOLYLINE
  5
191
100
AcDbEntity
  8
Layer_1
 62
7
100
AcDbPolyline
 90
1
 70
1
 10
89.600000
 20
149.500040
 30
0.0
  0
SPLINE
  5
192
100
AcDbEntity
  8
Layer_1
 62
7
100
AcDbSpline
 70
8
 71
3
 72
8
 73
4
 74
0
 40
0
 40
0
 40
0
 40
0
 40
1
 40
1
 40
1
 40
1
 10
108.349994
 20
149.500040
 30
0.0
 10
108.349994
 20
150.035939
 30
0.0
 10
108.064095
 20
150.531131
 30
0.0
 10
107.599992
 20
150.799080
 30
0.0
  0
SPLINE
  5
193
100
AcDbEntity
  8
Layer_1
 62
7
100
AcDbSpline
 70
8
 71
3
 72
8
 73
4
 74
0
 40
0
 40
0
 40
0
 40
0
 40
1
 40
1
 40
1
 40
1
 10
107.599992
 20
150.799080
 30
0.0
 10
107.135890
 20
151.067030
 30
0.0
 10
106.564092
 20
151.067030
 30
0.0
 10
106.099990
 20
150.799080
 30
0.0
  0
SPLINE
  5
194
100
AcDbEntity
  8
Layer_1
 62
7
100
AcDbSpline
 70
8
 71
3
 72
8
 73
4
 74
0
 40
0
 40
0
 40
0
 40
0
 40
1
 40
1
 40
1
 40
1
 10
106.099990
 20
150.799080
 30
0.0
 10
105.635888
 20
150.531131
 30
0.0
 10
105.349989
 20
150.035939
 30
0.0
 10
105.349989
 20
149.500040
 30
0.0
  0
SPLINE
  5
195
100
AcDbEntity
  8
Layer_1
 62
7
100
AcDbSpline
 70
8
 71
3
 72
8
 73
4
 74
0
 40
0
 40
0
 40
0
 40
0
 40
1
 40
1
 40
1
 40
1
 10
105.349989
 20
149.500040
 30
0.0
 10
105.349989
 20
148.964141
 30
0.0
 10
105.635888
 20
148.468950
 30
0.0
 10
106.099990
 20
148.201000
 30
0.0
  0
SPLINE
  5
196
100
AcDbEntity
  8
Layer_1
 62
7
100
AcDbSpline
 70
8
 71
3
 72
8
 73
4
 74
0
 40
0
 40
0
 40
0
 40
0
 40
1
 40
1
 40
1
 40
1
 10
106.099990
 20
148.201000
 30
0.0
 10
106.564092
 20
147.933050
 30
0.0
 10
107.135890
 20
147.933050
 30
0.0
 10
107.599992
 20
148.201000
 30
0.0
  0
SPLINE
  5
197
100
AcDbEntity
  8
Layer_1
 62
7
100
AcDbSpline
 70
8
 71
3
 72
8
 73
4
 74
0
 40
0
 40
0
 40
0
 40
0
 40
1
 40
1
 40
1
 40
1
 10
107.599992
 20
148.201000
 30
0.0
 10
108.064095
 20
148.468950
 30
0.0
 10
108.349994
 20
148.964141
 30
0.0
 10
108.349994
 20
149.500040
 30
0.0
  0
LWPOLYLINE
  5
198
100
AcDbEntity
  8
Layer_1
 62
7
100
AcDbPolyline
 90
1
 70
1
 10
72.750000
 20
185.300043
 30
0.0
  0
LWPOLYLINE
  5
199
100
AcDbEntity
  8
Layer_1
 62
7
100
AcDbPolyline
 90
1
 70
1
 10
108.349994
 20
149.500040
 30
0.0
  0
SPLINE
  5
19a
100
AcDbEntity
  8
Layer_1
 62
7
100
AcDbSpline
 70
8
 71
3
 72
8
 73
4
 74
0
 40
0
 40
0
 40
0
 40
0
 40
1
 40
1
 40
1
 40
1
 10
74.027247
 20
164.000053
 30
0.0
 10
73.482341
 20
164.066429
 30
0.0
 10
72.988670
 20
164.353855
 30
0.0
 10
72.661940
 20
164.794962
 30
0.0
  0
SPLINE
  5
19b
100
AcDbEntity
  8
Layer_1
 62
7
100
AcDbSpline
 70
8
 71
3
 72
8
 73
4
 74
0
 40
0
 40
0
 40
0
 40
0
 40
1
 40
1
 40
1
 40
1
 10
72.661940
 20
164.794962
 30
0.0
 10
72.335210
 20
165.236069
 30
0.0
 10
72.204146
 20
165.792079
 30
0.0
 10
72.299467
 20
166.332673
 30
0.0
  0
SPLINE
  5
19c
100
AcDbEntity
  8
Layer_1
 62
7
100
AcDbSpline
 70
8
 71
3
 72
8
 73
4
 74
0
 40
0
 40
0
 40
0
 40
0
 40
1
 40
1
 40
1
 40
1
 10
72.299467
 20
166.332673
 30
0.0
 10
72.299467
 20
166.332673
 30
0.0
 10
76.039233
 20
187.541937
 30
0.0
 10
76.039233
 20
187.541937
 30
0.0
  0
SPLINE
  5
19d
100
AcDbEntity
  8
Layer_1
 62
7
100
AcDbSpline
 70
8
 71
3
 72
8
 73
4
 74
0
 40
0
 40
0
 40
0
 40
0
 40
1
 40
1
 40
1
 40
1
 10
76.039233
 20
187.541937
 30
0.0
 10
76.217040
 20
188.550328
 30
0.0
 10
76.649955
 20
189.496436
 30
0.0
 10
77.296777
 20
190.290217
 30
0.0
  0
LWPOLYLINE
  5
19e
100
AcDbEntity
  8
Layer_1
 62
7
100
AcDbPolyline
 90
6
 70
1
 10
78.032549
 20
159.900044
 30
0.0
 10
96.770385
 20
159.900044
 30
0.0
 10
101.276660
 20
163.560475
 30
0.0
 10
98.167451
 20
167.100044
 30
0.0
 10
79.429615
 20
167.100044
 30
0.0
 10
74.923340
 20
163.439586
 30
0.0
  0
LWPOLYLINE
  5
19f
100
AcDbEntity
  8
Layer_1
 62
7
100
AcDbPolyline
 90
4
 70
0
 10
77.296777
 20
190.290217
 30
0.0
 10
82.234486
 20
184.669065
 30
0.0
 10
79.352753
 20
168.325938
 30
0.0
 10
74.027247
 20
164.000053
 30
0.0
  0
SPLINE
  5
1a0
100
AcDbEntity
  8
Layer_1
 62
7
100
AcDbSpline
 70
8
 71
3
 72
8
 73
4
 74
0
 40
0
 40
0
 40
0
 40
0
 40
1
 40
1
 40
1
 40
1
 10
25.450911
 20
141.700044
 30
0.0
 10
25.450911
 20
141.700044
 30
0.0
 10
18.371937
 20
135.949802
 30
0.0
 10
18.371937
 20
135.949802
 30
0.0
  0
SPLINE
  5
1a1
100
AcDbEntity
  8
Layer_1
 62
7
100
AcDbSpline
 70
8
 71
3
 72
8
 73
4
 74
0
 40
0
 40
0
 40
0
 40
0
 40
1
 40
1
 40
1
 40
1
 10
18.371937
 20
135.949802
 30
0.0
 10
19.131840
 20
135.031568
 30
0.0
 10
20.261642
 20
134.500045
 30
0.0
 10
21.453533
 20
134.500044
 30
0.0
  0
SPLINE
  5
1a2
100
AcDbEntity
  8
Layer_1
 62
7
100
AcDbSpline
 70
8
 71
3
 72
8
 73
4
 74
0
 40
0
 40
0
 40
0
 40
0
 40
1
 40
1
 40
1
 40
1
 10
21.453533
 20
134.500044
 30
0.0
 10
21.453533
 20
134.500044
 30
0.0
 10
44.251920
 20
134.500044
 30
0.0
 10
44.251920
 20
134.500044
 30
0.0
  0
SPLINE
  5
1a3
100
AcDbEntity
  8
Layer_1
 62
7
100
AcDbSpline
 70
8
 71
3
 72
8
 73
4
 74
0
 40
0
 40
0
 40
0
 40
0
 40
1
 40
1
 40
1
 40
1
 10
44.251920
 20
134.500044
 30
0.0
 10
45.706906
 20
134.500047
 30
0.0
 10
47.112321
 20
135.028753
 30
0.0
 10
48.206543
 20
135.987743
 30
0.0
  0
LWPOLYLINE
  5
1a4
100
AcDbEntity
  8
Layer_1
 62
7
100
AcDbPolyline
 90
3
 70
0
 10
48.206543
 20
135.987743
 30
0.0
 10
43.188744
 20
141.700044
 30
0.0
 10
25.450911
 20
141.700044
 30
0.0
  0
LWPOLYLINE
  5
1a5
100
AcDbEntity
  8
Layer_1
 62
7
100
AcDbPolyline
 90
1
 70
1
 10
48.206543
 20
135.987743
 30
0.0
  0
SPLINE
  5
1a6
100
AcDbEntity
  8
Layer_1
 62
7
100
AcDbSpline
 70
8
 71
3
 72
8
 73
4
 74
0
 40
0
 40
0
 40
0
 40
0
 40
1
 40
1
 40
1
 40
1
 10
57.828063
 20
191.050286
 30
0.0
 10
57.068161
 20
191.968519
 30
0.0
 10
55.938360
 20
192.500042
 30
0.0
 10
54.746469
 20
192.500044
 30
0.0
  0
SPLINE
  5
1a7
100
AcDbEntity
  8
Layer_1
 62
7
100
AcDbSpline
 70
8
 71
3
 72
8
 73
4
 74
0
 40
0
 40
0
 40
0
 40
0
 40
1
 40
1
 40
1
 40
1
 10
54.746469
 20
192.500044
 30
0.0
 10
54.746469
 20
192.500044
 30
0.0
 10
31.948080
 20
192.500044
 30
0.0
 10
31.948080
 20
192.500044
 30
0.0
  0
SPLINE
  5
1a8
100
AcDbEntity
  8
Layer_1
 62
7
100
AcDbSpline
 70
8
 71
3
 72
8
 73
4
 74
0
 40
0
 40
0
 40
0
 40
0
 40
1
 40
1
 40
1
 40
1
 10
31.948080
 20
192.500044
 30
0.0
 10
30.493094
 20
192.500041
 30
0.0
 10
29.087679
 20
191.971334
 30
0.0
 10
27.993457
 20
191.012344
 30
0.0
  0
LWPOLYLINE
  5
1a9
100
AcDbEntity
  8
Layer_1
 62
7
100
AcDbPolyline
 90
4
 70
0
 10
27.993457
 20
191.012344
 30
0.0
 10
33.011256
 20
185.300043
 30
0.0
 10
50.749091
 20
185.300043
 30
0.0
 10
57.828063
 20
191.050286
 30
0.0
  0
LWPOLYLINE
  5
1aa
100
AcDbEntity
  8
Layer_1
 62
7
100
AcDbPolyline
 90
1
 70
1
 10
27.993457
 20
191.012344
 30
0.0
  0
SPLINE
  5
1ab
100
AcDbEntity
  8
Layer_1
 62
7
100
AcDbSpline
 70
8
 71
3
 72
8
 73
4
 74
0
 40
0
 40
0
 40
0
 40
0
 40
1
 40
1
 40
1
 40
1
 10
53.900533
 20
160.667415
 30
0.0
 10
53.995854
 20
161.208008
 30
0.0
 10
53.864790
 20
161.764018
 30
0.0
 10
53.538061
 20
162.205125
 30
0.0
  0
SPLINE
  5
1ac
100
AcDbEntity
  8
Layer_1
 62
7
100
AcDbSpline
 70
8
 71
3
 72
8
 73
4
 74
0
 40
0
 40
0
 40
0
 40
0
 40
1
 40
1
 40
1
 40
1
 10
53.538061
 20
162.205125
 30
0.0
 10
53.211332
 20
162.646232
 30
0.0
 10
52.717661
 20
162.933658
 30
0.0
 10
52.172756
 20
163.000034
 30
0.0
  0
LWPOLYLINE
  5
1ad
100
AcDbEntity
  8
Layer_1
 62
7
100
AcDbPolyline
 90
2
 70
0
 10
50.160767
 20
139.458150
 30
0.0
 10
53.900533
 20
160.667415
 30
0.0
  0
SPLINE
  5
1ae
100
AcDbEntity
  8
Layer_1
 62
7
100
AcDbSpline
 70
8
 71
3
 72
8
 73
4
 74
0
 40
0
 40
0
 40
0
 40
0
 40
1
 40
1
 40
1
 40
1
 10
43.965513
 20
142.330996
 30
0.0
 10
43.965513
 20
142.330996
 30
0.0
 10
48.903223
 20
136.709870
 30
0.0
 10
48.903223
 20
136.709870
 30
0.0
  0
SPLINE
  5
1af
100
AcDbEntity
  8
Layer_1
 62
7
100
AcDbSpline
 70
8
 71
3
 72
8
 73
4
 74
0
 40
0
 40
0
 40
0
 40
0
 40
1
 40
1
 40
1
 40
1
 10
48.903223
 20
136.709870
 30
0.0
 10
49.550045
 20
137.503651
 30
0.0
 10
49.982960
 20
138.449760
 30
0.0
 10
50.160767
 20
139.458150
 30
0.0
  0
LWPOLYLINE
  5
1b0
100
AcDbEntity
  8
Layer_1
 62
7
100
AcDbPolyline
 90
3
 70
0
 10
52.172756
 20
163.000034
 30
0.0
 10
46.847247
 20
158.674123
 30
0.0
 10
43.965513
 20
142.330996
 30
0.0
  0
SPLINE
  5
1b1
100
AcDbEntity
  8
Layer_1
 62
7
100
AcDbSpline
 70
8
 71
3
 72
8
 73
4
 74
0
 40
0
 40
0
 40
0
 40
0
 40
1
 40
1
 40
1
 40
1
 10
60.050000
 20
141.700044
 30
0.0
 10
60.050472
 20
142.879335
 30
0.0
 10
59.421599
 20
143.969247
 30
0.0
 10
58.400381
 20
144.559029
 30
0.0
  0
SPLINE
  5
1b2
100
AcDbEntity
  8
Layer_1
 62
7
100
AcDbSpline
 70
8
 71
3
 72
8
 73
4
 74
0
 40
0
 40
0
 40
0
 40
0
 40
1
 40
1
 40
1
 40
1
 10
58.400381
 20
144.559029
 30
0.0
 10
57.379164
 20
145.148811
 30
0.0
 10
56.120836
 20
145.148811
 30
0.0
 10
55.099619
 20
144.559029
 30
0.0
  0
SPLINE
  5
1b3
100
AcDbEntity
  8
Layer_1
 62
7
100
AcDbSpline
 70
8
 71
3
 72
8
 73
4
 74
0
 40
0
 40
0
 40
0
 40
0
 40
1
 40
1
 40
1
 40
1
 10
55.099619
 20
144.559029
 30
0.0
 10
54.078401
 20
143.969247
 30
0.0
 10
53.449528
 20
142.879335
 30
0.0
 10
53.450000
 20
141.700044
 30
0.0
  0
SPLINE
  5
1b4
100
AcDbEntity
  8
Layer_1
 62
7
100
AcDbSpline
 70
8
 71
3
 72
8
 73
4
 74
0
 40
0
 40
0
 40
0
 40
0
 40
1
 40
1
 40
1
 40
1
 10
53.450000
 20
141.700044
 30
0.0
 10
53.449528
 20
140.520753
 30
0.0
 10
54.078401
 20
139.430841
 30
0.0
 10
55.099619
 20
138.841059
 30
0.0
  0
SPLINE
  5
1b5
100
AcDbEntity
  8
Layer_1
 62
7
100
AcDbSpline
 70
8
 71
3
 72
8
 73
4
 74
0
 40
0
 40
0
 40
0
 40
0
 40
1
 40
1
 40
1
 40
1
 10
55.099619
 20
138.841059
 30
0.0
 10
56.120836
 20
138.251277
 30
0.0
 10
57.379164
 20
138.251277
 30
0.0
 10
58.400381
 20
138.841059
 30
0.0
  0
SPLINE
  5
1b6
100
AcDbEntity
  8
Layer_1
 62
7
100
AcDbSpline
 70
8
 71
3
 72
8
 73
4
 74
0
 40
0
 40
0
 40
0
 40
0
 40
1
 40
1
 40
1
 40
1
 10
58.400381
 20
138.841059
 30
0.0
 10
59.421599
 20
139.430841
 30
0.0
 10
60.050472
 20
140.520753
 30
0.0
 10
60.050000
 20
141.700044
 30
0.0
  0
LWPOLYLINE
  5
1b7
100
AcDbEntity
  8
Layer_1
 62
7
100
AcDbPolyline
 90
1
 70
1
 10
50.160767
 20
139.458150
 30
0.0
  0
SPLINE
  5
1b8
100
AcDbEntity
  8
Layer_1
 62
7
100
AcDbSpline
 70
8
 71
3
 72
8
 73
4
 74
0
 40
0
 40
0
 40
0
 40
0
 40
1
 40
1
 40
1
 40
1
 10
20.850000
 20
177.500047
 30
0.0
 10
20.850319
 20
178.036158
 30
0.0
 10
20.564490
 20
178.531681
 30
0.0
 10
20.100258
 20
178.799828
 30
0.0
  0
SPLINE
  5
1b9
100
AcDbEntity
  8
Layer_1
 62
7
100
AcDbSpline
 70
8
 71
3
 72
8
 73
4
 74
0
 40
0
 40
0
 40
0
 40
0
 40
1
 40
1
 40
1
 40
1
 10
20.100258
 20
178.799828
 30
0.0
 10
19.636026
 20
179.067975
 30
0.0
 10
19.063976
 20
179.067975
 30
0.0
 10
18.599744
 20
178.799828
 30
0.0
  0
SPLINE
  5
1ba
100
AcDbEntity
  8
Layer_1
 62
7
100
AcDbSpline
 70
8
 71
3
 72
8
 73
4
 74
0
 40
0
 40
0
 40
0
 40
0
 40
1
 40
1
 40
1
 40
1
 10
18.599744
 20
178.799828
 30
0.0
 10
18.135511
 20
178.531681
 30
0.0
 10
17.849683
 20
178.036158
 30
0.0
 10
17.850001
 20
177.500047
 30
0.0
  0
SPLINE
  5
1bb
100
AcDbEntity
  8
Layer_1
 62
7
100
AcDbSpline
 70
8
 71
3
 72
8
 73
4
 74
0
 40
0
 40
0
 40
0
 40
0
 40
1
 40
1
 40
1
 40
1
 10
17.850001
 20
177.500047
 30
0.0
 10
17.849683
 20
176.963937
 30
0.0
 10
18.135511
 20
176.468414
 30
0.0
 10
18.599744
 20
176.200267
 30
0.0
  0
SPLINE
  5
1bc
100
AcDbEntity
  8
Layer_1
 62
7
100
AcDbSpline
 70
8
 71
3
 72
8
 73
4
 74
0
 40
0
 40
0
 40
0
 40
0
 40
1
 40
1
 40
1
 40
1
 10
18.599744
 20
176.200267
 30
0.0
 10
19.063976
 20
175.932120
 30
0.0
 10
19.636026
 20
175.932120
 30
0.0
 10
20.100258
 20
176.200267
 30
0.0
  0
SPLINE
  5
1bd
100
AcDbEntity
  8
Layer_1
 62
7
100
AcDbSpline
 70
8
 71
3
 72
8
 73
4
 74
0
 40
0
 40
0
 40
0
 40
0
 40
1
 40
1
 40
1
 40
1
 10
20.100258
 20
176.200267
 30
0.0
 10
20.564490
 20
176.468414
 30
0.0
 10
20.850319
 20
176.963937
 30
0.0
 10
20.850000
 20
177.500047
 30
0.0
  0
LWPOLYLINE
  5
1be
100
AcDbEntity
  8
Layer_1
 62
7
100
AcDbPolyline
 90
1
 70
1
 10
60.050000
 20
141.700044
 30
0.0
  0
SPLINE
  5
1bf
100
AcDbEntity
  8
Layer_1
 62
7
100
AcDbSpline
 70
8
 71
3
 72
8
 73
4
 74
0
 40
0
 40
0
 40
0
 40
0
 40
1
 40
1
 40
1
 40
1
 10
39.600000
 20
177.500047
 30
0.0
 10
39.600390
 20
178.036205
 30
0.0
 10
39.314577
 20
178.531803
 30
0.0
 10
38.850315
 20
178.799995
 30
0.0
  0
SPLINE
  5
1c0
100
AcDbEntity
  8
Layer_1
 62
7
100
AcDbSpline
 70
8
 71
3
 72
8
 73
4
 74
0
 40
0
 40
0
 40
0
 40
0
 40
1
 40
1
 40
1
 40
1
 10
38.850315
 20
178.799995
 30
0.0
 10
38.386053
 20
179.068186
 30
0.0
 10
37.813947
 20
179.068186
 30
0.0
 10
37.349685
 20
178.799995
 30
0.0
  0
SPLINE
  5
1c1
100
AcDbEntity
  8
Layer_1
 62
7
100
AcDbSpline
 70
8
 71
3
 72
8
 73
4
 74
0
 40
0
 40
0
 40
0
 40
0
 40
1
 40
1
 40
1
 40
1
 10
37.349685
 20
178.799995
 30
0.0
 10
36.885423
 20
178.531803
 30
0.0
 10
36.599610
 20
178.036205
 30
0.0
 10
36.600000
 20
177.500047
 30
0.0
  0
SPLINE
  5
1c2
100
AcDbEntity
  8
Layer_1
 62
7
100
AcDbSpline
 70
8
 71
3
 72
8
 73
4
 74
0
 40
0
 40
0
 40
0
 40
0
 40
1
 40
1
 40
1
 40
1
 10
36.600000
 20
177.500047
 30
0.0
 10
36.599610
 20
176.963889
 30
0.0
 10
36.885423
 20
176.468292
 30
0.0
 10
37.349685
 20
176.200100
 30
0.0
  0
SPLINE
  5
1c3
100
AcDbEntity
  8
Layer_1
 62
7
100
AcDbSpline
 70
8
 71
3
 72
8
 73
4
 74
0
 40
0
 40
0
 40
0
 40
0
 40
1
 40
1
 40
1
 40
1
 10
37.349685
 20
176.200100
 30
0.0
 10
37.813947
 20
175.931908
 30
0.0
 10
38.386053
 20
175.931908
 30
0.0
 10
38.850315
 20
176.200100
 30
0.0
  0
SPLINE
  5
1c4
100
AcDbEntity
  8
Layer_1
 62
7
100
AcDbSpline
 70
8
 71
3
 72
8
 73
4
 74
0
 40
0
 40
0
 40
0
 40
0
 40
1
 40
1
 40
1
 40
1
 10
38.850315
 20
176.200100
 30
0.0
 10
39.314577
 20
176.468292
 30
0.0
 10
39.600390
 20
176.963889
 30
0.0
 10
39.600000
 20
177.500047
 30
0.0
  0
LWPOLYLINE
  5
1c5
100
AcDbEntity
  8
Layer_1
 62
7
100
AcDbPolyline
 90
1
 70
1
 10
20.850000
 20
177.500047
 30
0.0
  0
SPLINE
  5
1c6
100
AcDbEntity
  8
Layer_1
 62
7
100
AcDbSpline
 70
8
 71
3
 72
8
 73
4
 74
0
 40
0
 40
0
 40
0
 40
0
 40
1
 40
1
 40
1
 40
1
 10
39.600000
 20
149.500040
 30
0.0
 10
39.600390
 20
150.036198
 30
0.0
 10
39.314577
 20
150.531796
 30
0.0
 10
38.850315
 20
150.799988
 30
0.0
  0
SPLINE
  5
1c7
100
AcDbEntity
  8
Layer_1
 62
7
100
AcDbSpline
 70
8
 71
3
 72
8
 73
4
 74
0
 40
0
 40
0
 40
0
 40
0
 40
1
 40
1
 40
1
 40
1
 10
38.850315
 20
150.799988
 30
0.0
 10
38.386053
 20
151.068179
 30
0.0
 10
37.813947
 20
151.068179
 30
0.0
 10
37.349685
 20
150.799988
 30
0.0
  0
SPLINE
  5
1c8
100
AcDbEntity
  8
Layer_1
 62
7
100
AcDbSpline
 70
8
 71
3
 72
8
 73
4
 74
0
 40
0
 40
0
 40
0
 40
0
 40
1
 40
1
 40
1
 40
1
 10
37.349685
 20
150.799988
 30
0.0
 10
36.885423
 20
150.531796
 30
0.0
 10
36.599610
 20
150.036198
 30
0.0
 10
36.600000
 20
149.500040
 30
0.0
  0
SPLINE
  5
1c9
100
AcDbEntity
  8
Layer_1
 62
7
100
AcDbSpline
 70
8
 71
3
 72
8
 73
4
 74
0
 40
0
 40
0
 40
0
 40
0
 40
1
 40
1
 40
1
 40
1
 10
36.600000
 20
149.500040
 30
0.0
 10
36.599610
 20
148.963882
 30
0.0
 10
36.885423
 20
148.468285
 30
0.0
 10
37.349685
 20
148.200093
 30
0.0
  0
SPLINE
  5
1ca
100
AcDbEntity
  8
Layer_1
 62
7
100
AcDbSpline
 70
8
 71
3
 72
8
 73
4
 74
0
 40
0
 40
0
 40
0
 40
0
 40
1
 40
1
 40
1
 40
1
 10
37.349685
 20
148.200093
 30
0.0
 10
37.813947
 20
147.931901
 30
0.0
 10
38.386053
 20
147.931901
 30
0.0
 10
38.850315
 20
148.200093
 30
0.0
  0
SPLINE
  5
1cb
100
AcDbEntity
  8
Layer_1
 62
7
100
AcDbSpline
 70
8
 71
3
 72
8
 73
4
 74
0
 40
0
 40
0
 40
0
 40
0
 40
1
 40
1
 40
1
 40
1
 10
38.850315
 20
148.200093
 30
0.0
 10
39.314577
 20
148.468285
 30
0.0
 10
39.600390
 20
148.963882
 30
0.0
 10
39.600000
 20
149.500040
 30
0.0
  0
LWPOLYLINE
  5
1cc
100
AcDbEntity
  8
Layer_1
 62
7
100
AcDbPolyline
 90
1
 70
1
 10
39.600000
 20
177.500047
 30
0.0
  0
SPLINE
  5
1cd
100
AcDbEntity
  8
Layer_1
 62
7
100
AcDbSpline
 70
8
 71
3
 72
8
 73
4
 74
0
 40
0
 40
0
 40
0
 40
0
 40
1
 40
1
 40
1
 40
1
 10
22.750000
 20
185.300043
 30
0.0
 10
22.750472
 20
186.479334
 30
0.0
 10
22.121599
 20
187.569246
 30
0.0
 10
21.100381
 20
188.159028
 30
0.0
  0
SPLINE
  5
1ce
100
AcDbEntity
  8
Layer_1
 62
7
100
AcDbSpline
 70
8
 71
3
 72
8
 73
4
 74
0
 40
0
 40
0
 40
0
 40
0
 40
1
 40
1
 40
1
 40
1
 10
21.100381
 20
188.159028
 30
0.0
 10
20.079164
 20
188.748810
 30
0.0
 10
18.820836
 20
188.748810
 30
0.0
 10
17.799619
 20
188.159028
 30
0.0
  0
SPLINE
  5
1cf
100
AcDbEntity
  8
Layer_1
 62
7
100
AcDbSpline
 70
8
 71
3
 72
8
 73
4
 74
0
 40
0
 40
0
 40
0
 40
0
 40
1
 40
1
 40
1
 40
1
 10
17.799619
 20
188.159028
 30
0.0
 10
16.778401
 20
187.569246
 30
0.0
 10
16.149528
 20
186.479334
 30
0.0
 10
16.150000
 20
185.300043
 30
0.0
  0
SPLINE
  5
1d0
100
AcDbEntity
  8
Layer_1
 62
7
100
AcDbSpline
 70
8
 71
3
 72
8
 73
4
 74
0
 40
0
 40
0
 40
0
 40
0
 40
1
 40
1
 40
1
 40
1
 10
16.150000
 20
185.300043
 30
0.0
 10
16.149528
 20
184.120752
 30
0.0
 10
16.778401
 20
183.030840
 30
0.0
 10
17.799619
 20
182.441058
 30
0.0
  0
SPLINE
  5
1d1
100
AcDbEntity
  8
Layer_1
 62
7
100
AcDbSpline
 70
8
 71
3
 72
8
 73
4
 74
0
 40
0
 40
0
 40
0
 40
0
 40
1
 40
1
 40
1
 40
1
 10
17.799619
 20
182.441058
 30
0.0
 10
18.820836
 20
181.851276
 30
0.0
 10
20.079164
 20
181.851276
 30
0.0
 10
21.100381
 20
182.441058
 30
0.0
  0
SPLINE
  5
1d2
100
AcDbEntity
  8
Layer_1
 62
7
100
AcDbSpline
 70
8
 71
3
 72
8
 73
4
 74
0
 40
0
 40
0
 40
0
 40
0
 40
1
 40
1
 40
1
 40
1
 10
21.100381
 20
182.441058
 30
0.0
 10
22.121599
 20
183.030840
 30
0.0
 10
22.750472
 20
184.120752
 30
0.0
 10
22.750000
 20
185.300043
 30
0.0
  0
LWPOLYLINE
  5
1d3
100
AcDbEntity
  8
Layer_1
 62
7
100
AcDbPolyline
 90
1
 70
1
 10
39.600000
 20
149.500040
 30
0.0
  0
SPLINE
  5
1d4
100
AcDbEntity
  8
Layer_1
 62
7
100
AcDbSpline
 70
8
 71
3
 72
8
 73
4
 74
0
 40
0
 40
0
 40
0
 40
0
 40
1
 40
1
 40
1
 40
1
 10
58.350002
 20
149.500040
 30
0.0
 10
58.350002
 20
150.035939
 30
0.0
 10
58.064103
 20
150.531130
 30
0.0
 10
57.600001
 20
150.799079
 30
0.0
  0
SPLINE
  5
1d5
100
AcDbEntity
  8
Layer_1
 62
7
100
AcDbSpline
 70
8
 71
3
 72
8
 73
4
 74
0
 40
0
 40
0
 40
0
 40
0
 40
1
 40
1
 40
1
 40
1
 10
57.600001
 20
150.799079
 30
0.0
 10
57.135899
 20
151.067028
 30
0.0
 10
56.564102
 20
151.067028
 30
0.0
 10
56.100000
 20
150.799079
 30
0.0
  0
SPLINE
  5
1d6
100
AcDbEntity
  8
Layer_1
 62
7
100
AcDbSpline
 70
8
 71
3
 72
8
 73
4
 74
0
 40
0
 40
0
 40
0
 40
0
 40
1
 40
1
 40
1
 40
1
 10
56.100000
 20
150.799079
 30
0.0
 10
55.635898
 20
150.531130
 30
0.0
 10
55.350000
 20
150.035939
 30
0.0
 10
55.350000
 20
149.500040
 30
0.0
  0
SPLINE
  5
1d7
100
AcDbEntity
  8
Layer_1
 62
7
100
AcDbSpline
 70
8
 71
3
 72
8
 73
4
 74
0
 40
0
 40
0
 40
0
 40
0
 40
1
 40
1
 40
1
 40
1
 10
55.350000
 20
149.500040
 30
0.0
 10
55.350000
 20
148.964141
 30
0.0
 10
55.635898
 20
148.468951
 30
0.0
 10
56.100000
 20
148.201001
 30
0.0
  0
SPLINE
  5
1d8
100
AcDbEntity
  8
Layer_1
 62
7
100
AcDbSpline
 70
8
 71
3
 72
8
 73
4
 74
0
 40
0
 40
0
 40
0
 40
0
 40
1
 40
1
 40
1
 40
1
 10
56.100000
 20
148.201001
 30
0.0
 10
56.564102
 20
147.933052
 30
0.0
 10
57.135899
 20
147.933052
 30
0.0
 10
57.600001
 20
148.201001
 30
0.0
  0
SPLINE
  5
1d9
100
AcDbEntity
  8
Layer_1
 62
7
100
AcDbSpline
 70
8
 71
3
 72
8
 73
4
 74
0
 40
0
 40
0
 40
0
 40
0
 40
1
 40
1
 40
1
 40
1
 10
57.600001
 20
148.201001
 30
0.0
 10
58.064103
 20
148.468951
 30
0.0
 10
58.350002
 20
148.964141
 30
0.0
 10
58.350002
 20
149.500040
 30
0.0
  0
LWPOLYLINE
  5
1da
100
AcDbEntity
  8
Layer_1
 62
7
100
AcDbPolyline
 90
1
 70
1
 10
22.750000
 20
185.300043
 30
0.0
  0
LWPOLYLINE
  5
1db
100
AcDbEntity
  8
Layer_1
 62
7
100
AcDbPolyline
 90
1
 70
1
 10
58.350002
 20
149.500040
 30
0.0
  0
SPLINE
  5
1dc
100
AcDbEntity
  8
Layer_1
 62
7
100
AcDbSpline
 70
8
 71
3
 72
8
 73
4
 74
0
 40
0
 40
0
 40
0
 40
0
 40
1
 40
1
 40
1
 40
1
 10
24.027247
 20
164.000053
 30
0.0
 10
23.482341
 20
164.066429
 30
0.0
 10
22.988670
 20
164.353855
 30
0.0
 10
22.661940
 20
164.794962
 30
0.0
  0
SPLINE
  5
1dd
100
AcDbEntity
  8
Layer_1
 62
7
100
AcDbSpline
 70
8
 71
3
 72
8
 73
4
 74
0
 40
0
 40
0
 40
0
 40
0
 40
1
 40
1
 40
1
 40
1
 10
22.661940
 20
164.794962
 30
0.0
 10
22.335210
 20
165.236069
 30
0.0
 10
22.204146
 20
165.792079
 30
0.0
 10
22.299467
 20
166.332673
 30
0.0
  0
SPLINE
  5
1de
100
AcDbEntity
  8
Layer_1
 62
7
100
AcDbSpline
 70
8
 71
3
 72
8
 73
4
 74
0
 40
0
 40
0
 40
0
 40
0
 40
1
 40
1
 40
1
 40
1
 10
22.299467
 20
166.332673
 30
0.0
 10
22.299467
 20
166.332673
 30
0.0
 10
26.039233
 20
187.541937
 30
0.0
 10
26.039233
 20
187.541937
 30
0.0
  0
SPLINE
  5
1df
100
AcDbEntity
  8
Layer_1
 62
7
100
AcDbSpline
 70
8
 71
3
 72
8
 73
4
 74
0
 40
0
 40
0
 40
0
 40
0
 40
1
 40
1
 40
1
 40
1
 10
26.039233
 20
187.541937
 30
0.0
 10
26.217040
 20
188.550328
 30
0.0
 10
26.649955
 20
189.496436
 30
0.0
 10
27.296777
 20
190.290217
 30
0.0
  0
LWPOLYLINE
  5
1e0
100
AcDbEntity
  8
Layer_1
 62
7
100
AcDbPolyline
 90
6
 70
1
 10
28.032551
 20
159.900044
 30
0.0
 10
46.770385
 20
159.900044
 30
0.0
 10
51.276660
 20
163.560475
 30
0.0
 10
48.167451
 20
167.100044
 30
0.0
 10
29.429615
 20
167.100044
 30
0.0
 10
24.923340
 20
163.439586
 30
0.0
  0
LWPOLYLINE
  5
1e1
100
AcDbEntity
  8
Layer_1
 62
7
100
AcDbPolyline
 90
4
 70
0
 10
27.296777
 20
190.290217
 30
0.0
 10
32.234487
 20
184.669065
 30
0.0
 10
29.352753
 20
168.325938
 30
0.0
 10
24.027247
 20
164.000053
 30
0.0
  0
SPLINE
  5
1e2
100
AcDbEntity
  8
Layer_1
 62
7
100
AcDbSpline
 70
8
 71
3
 72
8
 73
4
 74
0
 40
0
 40
0
 40
0
 40
0
 40
1
 40
1
 40
1
 40
1
 10
71.950000
 20
166.400036
 30
0.0
 10
71.950000
 20
166.757302
 30
0.0
 10
71.759401
 20
167.087429
 30
0.0
 10
71.450000
 20
167.266062
 30
0.0
  0
SPLINE
  5
1e3
100
AcDbEntity
  8
Layer_1
 62
7
100
AcDbSpline
 70
8
 71
3
 72
8
 73
4
 74
0
 40
0
 40
0
 40
0
 40
0
 40
1
 40
1
 40
1
 40
1
 10
71.450000
 20
167.266062
 30
0.0
 10
71.140599
 20
167.444695
 30
0.0
 10
70.759400
 20
167.444695
 30
0.0
 10
70.449999
 20
167.266062
 30
0.0
  0
SPLINE
  5
1e4
100
AcDbEntity
  8
Layer_1
 62
7
100
AcDbSpline
 70
8
 71
3
 72
8
 73
4
 74
0
 40
0
 40
0
 40
0
 40
0
 40
1
 40
1
 40
1
 40
1
 10
70.449999
 20
167.266062
 30
0.0
 10
70.140598
 20
167.087429
 30
0.0
 10
69.949999
 20
166.757302
 30
0.0
 10
69.949999
 20
166.400036
 30
0.0
  0
SPLINE
  5
1e5
100
AcDbEntity
  8
Layer_1
 62
7
100
AcDbSpline
 70
8
 71
3
 72
8
 73
4
 74
0
 40
0
 40
0
 40
0
 40
0
 40
1
 40
1
 40
1
 40
1
 10
69.949999
 20
166.400036
 30
0.0
 10
69.949999
 20
166.400036
 30
0.0
 10
69.949999
 20
160.600052
 30
0.0
 10
69.949999
 20
160.600052
 30
0.0
  0
SPLINE
  5
1e6
100
AcDbEntity
  8
Layer_1
 62
7
100
AcDbSpline
 70
8
 71
3
 72
8
 73
4
 74
0
 40
0
 40
0
 40
0
 40
0
 40
1
 40
1
 40
1
 40
1
 10
69.949999
 20
160.600052
 30
0.0
 10
69.949998
 20
160.306039
 30
0.0
 10
70.079384
 20
160.026924
 30
0.0
 10
70.303753
 20
159.836920
 30
0.0
  0
SPLINE
  5
1e7
100
AcDbEntity
  8
Layer_1
 62
7
100
AcDbSpline
 70
8
 71
3
 72
8
 73
4
 74
0
 40
0
 40
0
 40
0
 40
0
 40
1
 40
1
 40
1
 40
1
 10
70.303753
 20
159.836920
 30
0.0
 10
70.528123
 20
159.646916
 30
0.0
 10
70.824739
 20
159.565277
 30
0.0
 10
71.114734
 20
159.613712
 30
0.0
  0
SPLINE
  5
1e8
100
AcDbEntity
  8
Layer_1
 62
7
100
AcDbSpline
 70
8
 71
3
 72
8
 73
4
 74
0
 40
0
 40
0
 40
0
 40
0
 40
1
 40
1
 40
1
 40
1
 10
71.114734
 20
159.613712
 30
0.0
 10
71.114734
 20
159.613712
 30
0.0
 10
67.514300
 20
139.194625
 30
0.0
 10
67.514300
 20
139.194625
 30
0.0
  0
SPLINE
  5
1e9
100
AcDbEntity
  8
Layer_1
 62
7
100
AcDbSpline
 70
8
 71
3
 72
8
 73
4
 74
0
 40
0
 40
0
 40
0
 40
0
 40
1
 40
1
 40
1
 40
1
 10
67.514300
 20
139.194625
 30
0.0
 10
67.371139
 20
138.382715
 30
0.0
 10
67.482351
 20
137.546401
 30
0.0
 10
67.832718
 20
136.800120
 30
0.0
  0
LWPOLYLINE
  5
1ea
100
AcDbEntity
  8
Layer_1
 62
7
100
AcDbPolyline
 90
2
 70
0
 10
71.950000
 20
161.959269
 30
0.0
 10
71.950000
 20
166.400036
 30
0.0
  0
SPLINE
  5
1eb
100
AcDbEntity
  8
Layer_1
 62
7
100
AcDbSpline
 70
8
 71
3
 72
8
 73
4
 74
0
 40
0
 40
0
 40
0
 40
0
 40
1
 40
1
 40
1
 40
1
 10
73.978431
 20
163.000034
 30
0.0
 10
73.191674
 20
162.933558
 30
0.0
 10
72.462841
 20
162.559602
 30
0.0
 10
71.950000
 20
161.959269
 30
0.0
  0
LWPOLYLINE
  5
1ec
100
AcDbEntity
  8
Layer_1
 62
7
100
AcDbPolyline
 90
4
 70
0
 10
67.832718
 20
136.800120
 30
0.0
 10
74.790461
 20
142.451911
 30
0.0
 10
77.672194
 20
158.795011
 30
0.0
 10
73.978431
 20
163.000034
 30
0.0
  0
LWPOLYLINE
  5
1ed
100
AcDbEntity
  8
Layer_1
 62
7
100
AcDbPolyline
 90
1
 70
1
 10
71.950000
 20
161.959269
 30
0.0
  0
SPLINE
  5
1ee
100
AcDbEntity
  8
Layer_1
 62
7
100
AcDbSpline
 70
8
 71
3
 72
8
 73
4
 74
0
 40
0
 40
0
 40
0
 40
0
 40
1
 40
1
 40
1
 40
1
 10
104.250010
 20
160.600052
 30
0.0
 10
104.252130
 20
160.049274
 30
0.0
 10
104.699221
 20
159.603901
 30
0.0
 10
105.250003
 20
159.603901
 30
0.0
  0
SPLINE
  5
1ef
100
AcDbEntity
  8
Layer_1
 62
7
100
AcDbSpline
 70
8
 71
3
 72
8
 73
4
 74
0
 40
0
 40
0
 40
0
 40
0
 40
1
 40
1
 40
1
 40
1
 10
105.250003
 20
159.603901
 30
0.0
 10
105.800785
 20
159.603901
 30
0.0
 10
106.247876
 20
160.049274
 30
0.0
 10
106.249996
 20
160.600052
 30
0.0
  0
SPLINE
  5
1f0
100
AcDbEntity
  8
Layer_1
 62
7
100
AcDbSpline
 70
8
 71
3
 72
8
 73
4
 74
0
 40
0
 40
0
 40
0
 40
0
 40
1
 40
1
 40
1
 40
1
 10
106.249996
 20
160.600052
 30
0.0
 10
106.249996
 20
160.600052
 30
0.0
 10
106.249996
 20
166.400036
 30
0.0
 10
106.249996
 20
166.400036
 30
0.0
  0
SPLINE
  5
1f1
100
AcDbEntity
  8
Layer_1
 62
7
100
AcDbSpline
 70
8
 71
3
 72
8
 73
4
 74
0
 40
0
 40
0
 40
0
 40
0
 40
1
 40
1
 40
1
 40
1
 10
106.249996
 20
166.400036
 30
0.0
 10
106.249996
 20
166.694046
 30
0.0
 10
106.120612
 20
166.973158
 30
0.0
 10
105.896246
 20
167.163162
 30
0.0
  0
SPLINE
  5
1f2
100
AcDbEntity
  8
Layer_1
 62
7
100
AcDbSpline
 70
8
 71
3
 72
8
 73
4
 74
0
 40
0
 40
0
 40
0
 40
0
 40
1
 40
1
 40
1
 40
1
 10
105.896246
 20
167.163162
 30
0.0
 10
105.671879
 20
167.353166
 30
0.0
 10
105.375267
 20
167.434806
 30
0.0
 10
105.085273
 20
167.386376
 30
0.0
  0
SPLINE
  5
1f3
100
AcDbEntity
  8
Layer_1
 62
7
100
AcDbSpline
 70
8
 71
3
 72
8
 73
4
 74
0
 40
0
 40
0
 40
0
 40
0
 40
1
 40
1
 40
1
 40
1
 10
105.085273
 20
167.386376
 30
0.0
 10
105.085273
 20
167.386376
 30
0.0
 10
108.685697
 20
187.805436
 30
0.0
 10
108.685697
 20
187.805436
 30
0.0
  0
SPLINE
  5
1f4
100
AcDbEntity
  8
Layer_1
 62
7
100
AcDbSpline
 70
8
 71
3
 72
8
 73
4
 74
0
 40
0
 40
0
 40
0
 40
0
 40
1
 40
1
 40
1
 40
1
 10
108.685697
 20
187.805436
 30
0.0
 10
108.828856
 20
188.617347
 30
0.0
 10
108.717641
 20
189.453661
 30
0.0
 10
108.367271
 20
190.199941
 30
0.0
  0
LWPOLYLINE
  5
1f5
100
AcDbEntity
  8
Layer_1
 62
7
100
AcDbPolyline
 90
2
 70
0
 10
104.250010
 20
165.040792
 30
0.0
 10
104.250010
 20
160.600052
 30
0.0
  0
SPLINE
  5
1f6
100
AcDbEntity
  8
Layer_1
 62
7
100
AcDbSpline
 70
8
 71
3
 72
8
 73
4
 74
0
 40
0
 40
0
 40
0
 40
0
 40
1
 40
1
 40
1
 40
1
 10
102.221569
 20
164.000053
 30
0.0
 10
103.008326
 20
164.066520
 30
0.0
 10
103.737162
 20
164.440467
 30
0.0
 10
104.250010
 20
165.040792
 30
0.0
  0
LWPOLYLINE
  5
1f7
100
AcDbEntity
  8
Layer_1
 62
7
100
AcDbPolyline
 90
4
 70
0
 10
108.367271
 20
190.199941
 30
0.0
 10
101.409539
 20
184.548177
 30
0.0
 10
98.527806
 20
168.205050
 30
0.0
 10
102.221569
 20
164.000053
 30
0.0
  0
SPLINE
  5
1f8
100
AcDbEntity
  8
Layer_1
 62
7
100
AcDbSpline
 70
8
 71
3
 72
8
 73
4
 74
0
 40
0
 40
0
 40
0
 40
0
 40
1
 40
1
 40
1
 40
1
 10
21.950000
 20
161.959269
 30
0.0
 10
21.950000
 20
161.959269
 30
0.0
 10
21.950000
 20
166.400036
 30
0.0
 10
21.950000
 20
166.400036
 30
0.0
  0
SPLINE
  5
1f9
100
AcDbEntity
  8
Layer_1
 62
7
100
AcDbSpline
 70
8
 71
3
 72
8
 73
4
 74
0
 40
0
 40
0
 40
0
 40
0
 40
1
 40
1
 40
1
 40
1
 10
21.950000
 20
166.400036
 30
0.0
 10
21.949305
 20
166.951828
 30
0.0
 10
21.501794
 20
167.398776
 30
0.0
 10
20.950001
 20
167.398776
 30
0.0
  0
SPLINE
  5
1fa
100
AcDbEntity
  8
Layer_1
 62
7
100
AcDbSpline
 70
8
 71
3
 72
8
 73
4
 74
0
 40
0
 40
0
 40
0
 40
0
 40
1
 40
1
 40
1
 40
1
 10
20.950001
 20
167.398776
 30
0.0
 10
20.398208
 20
167.398776
 30
0.0
 10
19.950697
 20
166.951828
 30
0.0
 10
19.950002
 20
166.400036
 30
0.0
  0
SPLINE
  5
1fb
100
AcDbEntity
  8
Layer_1
 62
7
100
AcDbSpline
 70
8
 71
3
 72
8
 73
4
 74
0
 40
0
 40
0
 40
0
 40
0
 40
1
 40
1
 40
1
 40
1
 10
19.950002
 20
166.400036
 30
0.0
 10
19.950002
 20
166.400036
 30
0.0
 10
19.950002
 20
160.600052
 30
0.0
 10
19.950002
 20
160.600052
 30
0.0
  0
SPLINE
  5
1fc
100
AcDbEntity
  8
Layer_1
 62
7
100
AcDbSpline
 70
8
 71
3
 72
8
 73
4
 74
0
 40
0
 40
0
 40
0
 40
0
 40
1
 40
1
 40
1
 40
1
 10
19.950002
 20
160.600052
 30
0.0
 10
19.950001
 20
160.306040
 30
0.0
 10
20.079386
 20
160.026925
 30
0.0
 10
20.303755
 20
159.836921
 30
0.0
  0
SPLINE
  5
1fd
100
AcDbEntity
  8
Layer_1
 62
7
100
AcDbSpline
 70
8
 71
3
 72
8
 73
4
 74
0
 40
0
 40
0
 40
0
 40
0
 40
1
 40
1
 40
1
 40
1
 10
20.303755
 20
159.836921
 30
0.0
 10
20.528124
 20
159.646917
 30
0.0
 10
20.824739
 20
159.565278
 30
0.0
 10
21.114734
 20
159.613712
 30
0.0
  0
SPLINE
  5
1fe
100
AcDbEntity
  8
Layer_1
 62
7
100
AcDbSpline
 70
8
 71
3
 72
8
 73
4
 74
0
 40
0
 40
0
 40
0
 40
0
 40
1
 40
1
 40
1
 40
1
 10
21.114734
 20
159.613712
 30
0.0
 10
21.114734
 20
159.613712
 30
0.0
 10
17.514303
 20
139.194625
 30
0.0
 10
17.514303
 20
139.194625
 30
0.0
  0
SPLINE
  5
1ff
100
AcDbEntity
  8
Layer_1
 62
7
100
AcDbSpline
 70
8
 71
3
 72
8
 73
4
 74
0
 40
0
 40
0
 40
0
 40
0
 40
1
 40
1
 40
1
 40
1
 10
17.514303
 20
139.194625
 30
0.0
 10
17.371141
 20
138.382715
 30
0.0
 10
17.482352
 20
137.546402
 30
0.0
 10
17.832718
 20
136.800120
 30
0.0
  0
LWPOLYLINE
  5
200
100
AcDbEntity
  8
Layer_1
 62
7
100
AcDbPolyline
 90
1
 70
1
 10
104.250010
 20
165.040792
 30
0.0
  0
SPLINE
  5
201
100
AcDbEntity
  8
Layer_1
 62
7
100
AcDbSpline
 70
8
 71
3
 72
8
 73
4
 74
0
 40
0
 40
0
 40
0
 40
0
 40
1
 40
1
 40
1
 40
1
 10
23.978431
 20
163.000034
 30
0.0
 10
23.191674
 20
162.933558
 30
0.0
 10
22.462842
 20
162.559602
 30
0.0
 10
21.950000
 20
161.959269
 30
0.0
  0
LWPOLYLINE
  5
202
100
AcDbEntity
  8
Layer_1
 62
7
100
AcDbPolyline
 90
4
 70
0
 10
17.832718
 20
136.800120
 30
0.0
 10
24.790461
 20
142.451911
 30
0.0
 10
27.672194
 20
158.795011
 30
0.0
 10
23.978431
 20
163.000034
 30
0.0
  0
LWPOLYLINE
  5
203
100
AcDbEntity
  8
Layer_1
 62
7
100
AcDbPolyline
 90
1
 70
1
 10
21.950000
 20
161.959269
 30
0.0
  0
SPLINE
  5
204
100
AcDbEntity
  8
Layer_1
 62
7
100
AcDbSpline
 70
8
 71
3
 72
8
 73
4
 74
0
 40
0
 40
0
 40
0
 40
0
 40
1
 40
1
 40
1
 40
1
 10
54.250000
 20
160.600052
 30
0.0
 10
54.250000
 20
160.242786
 30
0.0
 10
54.440599
 20
159.912659
 30
0.0
 10
54.750000
 20
159.734026
 30
0.0
  0
SPLINE
  5
205
100
AcDbEntity
  8
Layer_1
 62
7
100
AcDbSpline
 70
8
 71
3
 72
8
 73
4
 74
0
 40
0
 40
0
 40
0
 40
0
 40
1
 40
1
 40
1
 40
1
 10
54.750000
 20
159.734026
 30
0.0
 10
55.059401
 20
159.555393
 30
0.0
 10
55.440599
 20
159.555393
 30
0.0
 10
55.750001
 20
159.734026
 30
0.0
  0
SPLINE
  5
206
100
AcDbEntity
  8
Layer_1
 62
7
100
AcDbSpline
 70
8
 71
3
 72
8
 73
4
 74
0
 40
0
 40
0
 40
0
 40
0
 40
1
 40
1
 40
1
 40
1
 10
55.750001
 20
159.734026
 30
0.0
 10
56.059402
 20
159.912659
 30
0.0
 10
56.250001
 20
160.242786
 30
0.0
 10
56.250001
 20
160.600052
 30
0.0
  0
SPLINE
  5
207
100
AcDbEntity
  8
Layer_1
 62
7
100
AcDbSpline
 70
8
 71
3
 72
8
 73
4
 74
0
 40
0
 40
0
 40
0
 40
0
 40
1
 40
1
 40
1
 40
1
 10
56.250001
 20
160.600052
 30
0.0
 10
56.250001
 20
160.600052
 30
0.0
 10
56.250001
 20
166.400036
 30
0.0
 10
56.250001
 20
166.400036
 30
0.0
  0
SPLINE
  5
208
100
AcDbEntity
  8
Layer_1
 62
7
100
AcDbSpline
 70
8
 71
3
 72
8
 73
4
 74
0
 40
0
 40
0
 40
0
 40
0
 40
1
 40
1
 40
1
 40
1
 10
56.250001
 20
166.400036
 30
0.0
 10
56.250002
 20
166.694048
 30
0.0
 10
56.120616
 20
166.973163
 30
0.0
 10
55.896247
 20
167.163168
 30
0.0
  0
SPLINE
  5
209
100
AcDbEntity
  8
Layer_1
 62
7
100
AcDbSpline
 70
8
 71
3
 72
8
 73
4
 74
0
 40
0
 40
0
 40
0
 40
0
 40
1
 40
1
 40
1
 40
1
 10
55.896247
 20
167.163168
 30
0.0
 10
55.671877
 20
167.353172
 30
0.0
 10
55.375261
 20
167.434810
 30
0.0
 10
55.085266
 20
167.386376
 30
0.0
  0
SPLINE
  5
20a
100
AcDbEntity
  8
Layer_1
 62
7
100
AcDbSpline
 70
8
 71
3
 72
8
 73
4
 74
0
 40
0
 40
0
 40
0
 40
0
 40
1
 40
1
 40
1
 40
1
 10
55.085266
 20
167.386376
 30
0.0
 10
55.085266
 20
167.386376
 30
0.0
 10
58.685700
 20
187.805436
 30
0.0
 10
58.685700
 20
187.805436
 30
0.0
  0
SPLINE
  5
20b
100
AcDbEntity
  8
Layer_1
 62
7
100
AcDbSpline
 70
8
 71
3
 72
8
 73
4
 74
0
 40
0
 40
0
 40
0
 40
0
 40
1
 40
1
 40
1
 40
1
 10
58.685700
 20
187.805436
 30
0.0
 10
58.828861
 20
188.617346
 30
0.0
 10
58.717649
 20
189.453660
 30
0.0
 10
58.367282
 20
190.199941
 30
0.0
  0
LWPOLYLINE
  5
20c
100
AcDbEntity
  8
Layer_1
 62
7
100
AcDbPolyline
 90
2
 70
0
 10
54.250000
 20
165.040792
 30
0.0
 10
54.250000
 20
160.600052
 30
0.0
  0
SPLINE
  5
20d
100
AcDbEntity
  8
Layer_1
 62
7
100
AcDbSpline
 70
8
 71
3
 72
8
 73
4
 74
0
 40
0
 40
0
 40
0
 40
0
 40
1
 40
1
 40
1
 40
1
 10
48.527806
 20
168.205050
 30
0.0
 10
48.527806
 20
168.205050
 30
0.0
 10
52.221569
 20
164.000053
 30
0.0
 10
52.221569
 20
164.000053
 30
0.0
  0
SPLINE
  5
20e
100
AcDbEntity
  8
Layer_1
 62
7
100
AcDbSpline
 70
8
 71
3
 72
8
 73
4
 74
0
 40
0
 40
0
 40
0
 40
0
 40
1
 40
1
 40
1
 40
1
 10
52.221569
 20
164.000053
 30
0.0
 10
53.008322
 20
164.066523
 30
0.0
 10
53.737154
 20
164.440469
 30
0.0
 10
54.250000
 20
165.040792
 30
0.0
  0
LWPOLYLINE
  5
20f
100
AcDbEntity
  8
Layer_1
 62
7
100
AcDbPolyline
 90
3
 70
0
 10
58.367282
 20
190.199941
 30
0.0
 10
51.409539
 20
184.548177
 30
0.0
 10
48.527806
 20
168.205050
 30
0.0
  0
SPLINE
  5
210
100
AcDbEntity
  8
Layer_1
 62
1
100
AcDbSpline
 70
8
 71
3
 72
8
 73
4
 74
0
 40
0
 40
0
 40
0
 40
0
 40
1
 40
1
 40
1
 40
1
 10
17.100000
 20
119.500028
 30
0.0
 10
17.100392
 20
119.857554
 30
0.0
 10
16.909878
 20
120.188090
 30
0.0
 10
16.600317
 20
120.366966
 30
0.0
  0
SPLINE
  5
211
100
AcDbEntity
  8
Layer_1
 62
1
100
AcDbSpline
 70
8
 71
3
 72
8
 73
4
 74
0
 40
0
 40
0
 40
0
 40
0
 40
1
 40
1
 40
1
 40
1
 10
16.600317
 20
120.366966
 30
0.0
 10
16.290755
 20
120.545843
 30
0.0
 10
15.909246
 20
120.545843
 30
0.0
 10
15.599684
 20
120.366966
 30
0.0
  0
SPLINE
  5
212
100
AcDbEntity
  8
Layer_1
 62
1
100
AcDbSpline
 70
8
 71
3
 72
8
 73
4
 74
0
 40
0
 40
0
 40
0
 40
0
 40
1
 40
1
 40
1
 40
1
 10
15.599684
 20
120.366966
 30
0.0
 10
15.290122
 20
120.188090
 30
0.0
 10
15.099609
 20
119.857554
 30
0.0
 10
15.100001
 20
119.500028
 30
0.0
  0
SPLINE
  5
213
100
AcDbEntity
  8
Layer_1
 62
1
100
AcDbSpline
 70
8
 71
3
 72
8
 73
4
 74
0
 40
0
 40
0
 40
0
 40
0
 40
1
 40
1
 40
1
 40
1
 10
15.100001
 20
119.500028
 30
0.0
 10
15.099609
 20
119.142502
 30
0.0
 10
15.290122
 20
118.811966
 30
0.0
 10
15.599684
 20
118.633090
 30
0.0
  0
SPLINE
  5
214
100
AcDbEntity
  8
Layer_1
 62
1
100
AcDbSpline
 70
8
 71
3
 72
8
 73
4
 74
0
 40
0
 40
0
 40
0
 40
0
 40
1
 40
1
 40
1
 40
1
 10
15.599684
 20
118.633090
 30
0.0
 10
15.909246
 20
118.454213
 30
0.0
 10
16.290755
 20
118.454213
 30
0.0
 10
16.600317
 20
118.633090
 30
0.0
  0
SPLINE
  5
215
100
AcDbEntity
  8
Layer_1
 62
1
100
AcDbSpline
 70
8
 71
3
 72
8
 73
4
 74
0
 40
0
 40
0
 40
0
 40
0
 40
1
 40
1
 40
1
 40
1
 10
16.600317
 20
118.633090
 30
0.0
 10
16.909878
 20
118.811966
 30
0.0
 10
17.100392
 20
119.142502
 30
0.0
 10
17.100000
 20
119.500028
 30
0.0
  0
LWPOLYLINE
  5
216
100
AcDbEntity
  8
Layer_1
 62
7
100
AcDbPolyline
 90
1
 70
1
 10
54.250000
 20
165.040792
 30
0.0
  0
SPLINE
  5
217
100
AcDbEntity
  8
Layer_1
 62
1
100
AcDbSpline
 70
8
 71
3
 72
8
 73
4
 74
0
 40
0
 40
0
 40
0
 40
0
 40
1
 40
1
 40
1
 40
1
 10
111.099993
 20
119.500028
 30
0.0
 10
111.101136
 20
119.858053
 30
0.0
 10
110.910789
 20
120.189371
 30
0.0
 10
110.600920
 20
120.368714
 30
0.0
  0
SPLINE
  5
218
100
AcDbEntity
  8
Layer_1
 62
1
100
AcDbSpline
 70
8
 71
3
 72
8
 73
4
 74
0
 40
0
 40
0
 40
0
 40
0
 40
1
 40
1
 40
1
 40
1
 10
110.600920
 20
120.368714
 30
0.0
 10
110.291050
 20
120.548058
 30
0.0
 10
109.908945
 20
120.548058
 30
0.0
 10
109.599076
 20
120.368714
 30
0.0
  0
SPLINE
  5
219
100
AcDbEntity
  8
Layer_1
 62
1
100
AcDbSpline
 70
8
 71
3
 72
8
 73
4
 74
0
 40
0
 40
0
 40
0
 40
0
 40
1
 40
1
 40
1
 40
1
 10
109.599076
 20
120.368714
 30
0.0
 10
109.289207
 20
120.189371
 30
0.0
 10
109.098859
 20
119.858053
 30
0.0
 10
109.100003
 20
119.500028
 30
0.0
  0
SPLINE
  5
21a
100
AcDbEntity
  8
Layer_1
 62
1
100
AcDbSpline
 70
8
 71
3
 72
8
 73
4
 74
0
 40
0
 40
0
 40
0
 40
0
 40
1
 40
1
 40
1
 40
1
 10
109.100003
 20
119.500028
 30
0.0
 10
109.098859
 20
119.142003
 30
0.0
 10
109.289207
 20
118.810685
 30
0.0
 10
109.599076
 20
118.631342
 30
0.0
  0
SPLINE
  5
21b
100
AcDbEntity
  8
Layer_1
 62
1
100
AcDbSpline
 70
8
 71
3
 72
8
 73
4
 74
0
 40
0
 40
0
 40
0
 40
0
 40
1
 40
1
 40
1
 40
1
 10
109.599076
 20
118.631342
 30
0.0
 10
109.908945
 20
118.451998
 30
0.0
 10
110.291050
 20
118.451998
 30
0.0
 10
110.600920
 20
118.631342
 30
0.0
  0
SPLINE
  5
21c
100
AcDbEntity
  8
Layer_1
 62
1
100
AcDbSpline
 70
8
 71
3
 72
8
 73
4
 74
0
 40
0
 40
0
 40
0
 40
0
 40
1
 40
1
 40
1
 40
1
 10
110.600920
 20
118.631342
 30
0.0
 10
110.910789
 20
118.810685
 30
0.0
 10
111.101136
 20
119.142003
 30
0.0
 10
111.099993
 20
119.500028
 30
0.0
  0
LWPOLYLINE
  5
21d
100
AcDbEntity
  8
Layer_1
 62
1
100
AcDbPolyline
 90
1
 70
1
 10
17.100000
 20
119.500028
 30
0.0
  0
SPLINE
  5
21e
100
AcDbEntity
  8
Layer_1
 62
1
100
AcDbSpline
 70
8
 71
3
 72
8
 73
4
 74
0
 40
0
 40
0
 40
0
 40
0
 40
1
 40
1
 40
1
 40
1
 10
6.600000
 20
119.500028
 30
0.0
 10
6.600438
 20
120.036218
 30
0.0
 10
6.314635
 20
120.531865
 30
0.0
 10
5.850354
 20
120.800087
 30
0.0
  0
SPLINE
  5
21f
100
AcDbEntity
  8
Layer_1
 62
1
100
AcDbSpline
 70
8
 71
3
 72
8
 73
4
 74
0
 40
0
 40
0
 40
0
 40
0
 40
1
 40
1
 40
1
 40
1
 10
5.850354
 20
120.800087
 30
0.0
 10
5.386073
 20
121.068308
 30
0.0
 10
4.813928
 20
121.068308
 30
0.0
 10
4.349647
 20
120.800087
 30
0.0
  0
SPLINE
  5
220
100
AcDbEntity
  8
Layer_1
 62
1
100
AcDbSpline
 70
8
 71
3
 72
8
 73
4
 74
0
 40
0
 40
0
 40
0
 40
0
 40
1
 40
1
 40
1
 40
1
 10
4.349647
 20
120.800087
 30
0.0
 10
3.885366
 20
120.531865
 30
0.0
 10
3.599563
 20
120.036218
 30
0.0
 10
3.600001
 20
119.500028
 30
0.0
  0
SPLINE
  5
221
100
AcDbEntity
  8
Layer_1
 62
1
100
AcDbSpline
 70
8
 71
3
 72
8
 73
4
 74
0
 40
0
 40
0
 40
0
 40
0
 40
1
 40
1
 40
1
 40
1
 10
3.600001
 20
119.500028
 30
0.0
 10
3.599563
 20
118.963838
 30
0.0
 10
3.885366
 20
118.468191
 30
0.0
 10
4.349647
 20
118.199969
 30
0.0
  0
SPLINE
  5
222
100
AcDbEntity
  8
Layer_1
 62
1
100
AcDbSpline
 70
8
 71
3
 72
8
 73
4
 74
0
 40
0
 40
0
 40
0
 40
0
 40
1
 40
1
 40
1
 40
1
 10
4.349647
 20
118.199969
 30
0.0
 10
4.813928
 20
117.931748
 30
0.0
 10
5.386073
 20
117.931748
 30
0.0
 10
5.850354
 20
118.199969
 30
0.0
  0
SPLINE
  5
223
100
AcDbEntity
  8
Layer_1
 62
1
100
AcDbSpline
 70
8
 71
3
 72
8
 73
4
 74
0
 40
0
 40
0
 40
0
 40
0
 40
1
 40
1
 40
1
 40
1
 10
5.850354
 20
118.199969
 30
0.0
 10
6.314635
 20
118.468191
 30
0.0
 10
6.600438
 20
118.963838
 30
0.0
 10
6.600000
 20
119.500028
 30
0.0
  0
LWPOLYLINE
  5
224
100
AcDbEntity
  8
Layer_1
 62
1
100
AcDbPolyline
 90
1
 70
1
 10
111.099993
 20
119.500028
 30
0.0
  0
SPLINE
  5
225
100
AcDbEntity
  8
Layer_1
 62
1
100
AcDbSpline
 70
8
 71
3
 72
8
 73
4
 74
0
 40
0
 40
0
 40
0
 40
0
 40
1
 40
1
 40
1
 40
1
 10
122.600003
 20
119.500028
 30
0.0
 10
122.600003
 20
120.035928
 30
0.0
 10
122.314104
 20
120.531120
 30
0.0
 10
121.850000
 20
120.799070
 30
0.0
  0
SPLINE
  5
226
100
AcDbEntity
  8
Layer_1
 62
1
100
AcDbSpline
 70
8
 71
3
 72
8
 73
4
 74
0
 40
0
 40
0
 40
0
 40
0
 40
1
 40
1
 40
1
 40
1
 10
121.850000
 20
120.799070
 30
0.0
 10
121.385897
 20
121.067021
 30
0.0
 10
120.814099
 20
121.067021
 30
0.0
 10
120.349995
 20
120.799070
 30
0.0
  0
SPLINE
  5
227
100
AcDbEntity
  8
Layer_1
 62
1
100
AcDbSpline
 70
8
 71
3
 72
8
 73
4
 74
0
 40
0
 40
0
 40
0
 40
0
 40
1
 40
1
 40
1
 40
1
 10
120.349995
 20
120.799070
 30
0.0
 10
119.885892
 20
120.531120
 30
0.0
 10
119.599993
 20
120.035928
 30
0.0
 10
119.599993
 20
119.500028
 30
0.0
  0
SPLINE
  5
228
100
AcDbEntity
  8
Layer_1
 62
1
100
AcDbSpline
 70
8
 71
3
 72
8
 73
4
 74
0
 40
0
 40
0
 40
0
 40
0
 40
1
 40
1
 40
1
 40
1
 10
119.599993
 20
119.500028
 30
0.0
 10
119.599993
 20
118.964128
 30
0.0
 10
119.885892
 20
118.468936
 30
0.0
 10
120.349995
 20
118.200986
 30
0.0
  0
SPLINE
  5
229
100
AcDbEntity
  8
Layer_1
 62
1
100
AcDbSpline
 70
8
 71
3
 72
8
 73
4
 74
0
 40
0
 40
0
 40
0
 40
0
 40
1
 40
1
 40
1
 40
1
 10
120.349995
 20
118.200986
 30
0.0
 10
120.814099
 20
117.933035
 30
0.0
 10
121.385897
 20
117.933035
 30
0.0
 10
121.850000
 20
118.200986
 30
0.0
  0
SPLINE
  5
22a
100
AcDbEntity
  8
Layer_1
 62
1
100
AcDbSpline
 70
8
 71
3
 72
8
 73
4
 74
0
 40
0
 40
0
 40
0
 40
0
 40
1
 40
1
 40
1
 40
1
 10
121.850000
 20
118.200986
 30
0.0
 10
122.314104
 20
118.468936
 30
0.0
 10
122.600003
 20
118.964128
 30
0.0
 10
122.600003
 20
119.500028
 30
0.0
  0
LWPOLYLINE
  5
22b
100
AcDbEntity
  8
Layer_1
 62
1
100
AcDbPolyline
 90
1
 70
1
 10
6.600000
 20
119.500028
 30
0.0
  0
SPLINE
  5
22c
100
AcDbEntity
  8
Layer_1
 62
1
100
AcDbSpline
 70
8
 71
3
 72
8
 73
4
 74
0
 40
0
 40
0
 40
0
 40
0
 40
1
 40
1
 40
1
 40
1
 10
120.100003
 20
124.500038
 30
0.0
 10
123.413703
 20
124.500028
 30
0.0
 10
126.099993
 20
121.813738
 30
0.0
 10
126.099993
 20
118.500038
 30
0.0
  0
LWPOLYLINE
  5
22d
100
AcDbEntity
  8
Layer_1
 62
1
100
AcDbPolyline
 90
1
 70
1
 10
122.600003
 20
119.500028
 30
0.0
  0
SPLINE
  5
22e
100
AcDbEntity
  8
Layer_1
 62
1
100
AcDbSpline
 70
8
 71
3
 72
8
 73
4
 74
0
 40
0
 40
0
 40
0
 40
0
 40
1
 40
1
 40
1
 40
1
 10
0.100000
 20
118.500038
 30
0.0
 10
0.100000
 20
121.813748
 30
0.0
 10
2.786292
 20
124.500038
 30
0.0
 10
6.100001
 20
124.500038
 30
0.0
  0
SPLINE
  5
22f
100
AcDbEntity
  8
Layer_1
 62
1
100
AcDbSpline
 70
8
 71
3
 72
8
 73
4
 74
0
 40
0
 40
0
 40
0
 40
0
 40
1
 40
1
 40
1
 40
1
 10
111.099993
 20
83.099998
 30
0.0
 10
111.101136
 20
83.458023
 30
0.0
 10
110.910789
 20
83.789341
 30
0.0
 10
110.600920
 20
83.968684
 30
0.0
  0
SPLINE
  5
230
100
AcDbEntity
  8
Layer_1
 62
1
100
AcDbSpline
 70
8
 71
3
 72
8
 73
4
 74
0
 40
0
 40
0
 40
0
 40
0
 40
1
 40
1
 40
1
 40
1
 10
110.600920
 20
83.968684
 30
0.0
 10
110.291050
 20
84.148028
 30
0.0
 10
109.908945
 20
84.148028
 30
0.0
 10
109.599076
 20
83.968684
 30
0.0
  0
SPLINE
  5
231
100
AcDbEntity
  8
Layer_1
 62
1
100
AcDbSpline
 70
8
 71
3
 72
8
 73
4
 74
0
 40
0
 40
0
 40
0
 40
0
 40
1
 40
1
 40
1
 40
1
 10
109.599076
 20
83.968684
 30
0.0
 10
109.289207
 20
83.789341
 30
0.0
 10
109.098859
 20
83.458023
 30
0.0
 10
109.100003
 20
83.099998
 30
0.0
  0
SPLINE
  5
232
100
AcDbEntity
  8
Layer_1
 62
1
100
AcDbSpline
 70
8
 71
3
 72
8
 73
4
 74
0
 40
0
 40
0
 40
0
 40
0
 40
1
 40
1
 40
1
 40
1
 10
109.100003
 20
83.099998
 30
0.0
 10
109.098859
 20
82.741973
 30
0.0
 10
109.289207
 20
82.410655
 30
0.0
 10
109.599076
 20
82.231312
 30
0.0
  0
SPLINE
  5
233
100
AcDbEntity
  8
Layer_1
 62
1
100
AcDbSpline
 70
8
 71
3
 72
8
 73
4
 74
0
 40
0
 40
0
 40
0
 40
0
 40
1
 40
1
 40
1
 40
1
 10
109.599076
 20
82.231312
 30
0.0
 10
109.908945
 20
82.051968
 30
0.0
 10
110.291050
 20
82.051968
 30
0.0
 10
110.600920
 20
82.231312
 30
0.0
  0
SPLINE
  5
234
100
AcDbEntity
  8
Layer_1
 62
1
100
AcDbSpline
 70
8
 71
3
 72
8
 73
4
 74
0
 40
0
 40
0
 40
0
 40
0
 40
1
 40
1
 40
1
 40
1
 10
110.600920
 20
82.231312
 30
0.0
 10
110.910789
 20
82.410655
 30
0.0
 10
111.101136
 20
82.741973
 30
0.0
 10
111.099993
 20
83.099998
 30
0.0
  0
LWPOLYLINE
  5
235
100
AcDbEntity
  8
Layer_1
 62
1
100
AcDbPolyline
 90
8
 70
0
 10
126.099993
 20
118.500038
 30
0.0
 10
126.099993
 20
101.300028
 30
0.0
 10
116.100013
 20
101.300028
 30
0.0
 10
116.100013
 20
114.500038
 30
0.0
 10
10.100001
 20
114.500038
 30
0.0
 10
10.100001
 20
101.300028
 30
0.0
 10
0.100000
 20
101.300028
 30
0.0
 10
0.100000
 20
118.500038
 30
0.0
  0
SPLINE
  5
236
100
AcDbEntity
  8
Layer_1
 62
1
100
AcDbSpline
 70
8
 71
3
 72
8
 73
4
 74
0
 40
0
 40
0
 40
0
 40
0
 40
1
 40
1
 40
1
 40
1
 10
17.100000
 20
83.099998
 30
0.0
 10
17.100392
 20
83.457524
 30
0.0
 10
16.909878
 20
83.788060
 30
0.0
 10
16.600317
 20
83.966936
 30
0.0
  0
SPLINE
  5
237
100
AcDbEntity
  8
Layer_1
 62
1
100
AcDbSpline
 70
8
 71
3
 72
8
 73
4
 74
0
 40
0
 40
0
 40
0
 40
0
 40
1
 40
1
 40
1
 40
1
 10
16.600317
 20
83.966936
 30
0.0
 10
16.290755
 20
84.145813
 30
0.0
 10
15.909246
 20
84.145813
 30
0.0
 10
15.599684
 20
83.966936
 30
0.0
  0
SPLINE
  5
238
100
AcDbEntity
  8
Layer_1
 62
1
100
AcDbSpline
 70
8
 71
3
 72
8
 73
4
 74
0
 40
0
 40
0
 40
0
 40
0
 40
1
 40
1
 40
1
 40
1
 10
15.599684
 20
83.966936
 30
0.0
 10
15.290122
 20
83.788060
 30
0.0
 10
15.099609
 20
83.457524
 30
0.0
 10
15.100001
 20
83.099998
 30
0.0
  0
SPLINE
  5
239
100
AcDbEntity
  8
Layer_1
 62
1
100
AcDbSpline
 70
8
 71
3
 72
8
 73
4
 74
0
 40
0
 40
0
 40
0
 40
0
 40
1
 40
1
 40
1
 40
1
 10
15.100001
 20
83.099998
 30
0.0
 10
15.099609
 20
82.742472
 30
0.0
 10
15.290122
 20
82.411936
 30
0.0
 10
15.599684
 20
82.233060
 30
0.0
  0
SPLINE
  5
23a
100
AcDbEntity
  8
Layer_1
 62
1
100
AcDbSpline
 70
8
 71
3
 72
8
 73
4
 74
0
 40
0
 40
0
 40
0
 40
0
 40
1
 40
1
 40
1
 40
1
 10
15.599684
 20
82.233060
 30
0.0
 10
15.909246
 20
82.054183
 30
0.0
 10
16.290755
 20
82.054183
 30
0.0
 10
16.600317
 20
82.233060
 30
0.0
  0
SPLINE
  5
23b
100
AcDbEntity
  8
Layer_1
 62
1
100
AcDbSpline
 70
8
 71
3
 72
8
 73
4
 74
0
 40
0
 40
0
 40
0
 40
0
 40
1
 40
1
 40
1
 40
1
 10
16.600317
 20
82.233060
 30
0.0
 10
16.909878
 20
82.411936
 30
0.0
 10
17.100392
 20
82.742472
 30
0.0
 10
17.100000
 20
83.099998
 30
0.0
  0
LWPOLYLINE
  5
23c
100
AcDbEntity
  8
Layer_1
 62
1
100
AcDbPolyline
 90
1
 70
1
 10
111.099993
 20
83.099998
 30
0.0
  0
LWPOLYLINE
  5
23d
100
AcDbEntity
  8
Layer_1
 62
1
100
AcDbPolyline
 90
1
 70
1
 10
17.100000
 20
83.099998
 30
0.0
  0
LWPOLYLINE
  5
23e
100
AcDbEntity
  8
Layer_1
 62
1
100
AcDbPolyline
 90
4
 70
0
 10
10.100001
 20
101.300028
 30
0.0
 10
10.100001
 20
88.100018
 30
0.0
 10
116.100013
 20
88.100018
 30
0.0
 10
116.100013
 20
101.300028
 30
0.0
  0
SPLINE
  5
23f
100
AcDbEntity
  8
Layer_1
 62
1
100
AcDbSpline
 70
8
 71
3
 72
8
 73
4
 74
0
 40
0
 40
0
 40
0
 40
0
 40
1
 40
1
 40
1
 40
1
 10
126.099993
 20
84.100018
 30
0.0
 10
126.100003
 20
80.786308
 30
0.0
 10
123.413713
 20
78.100018
 30
0.0
 10
120.100003
 20
78.100008
 30
0.0
  0
LWPOLYLINE
  5
240
100
AcDbEntity
  8
Layer_1
 62
1
100
AcDbPolyline
 90
2
 70
0
 10
126.099993
 20
101.300028
 30
0.0
 10
126.099993
 20
84.100018
 30
0.0
  0
SPLINE
  5
241
100
AcDbEntity
  8
Layer_1
 62
1
100
AcDbSpline
 70
8
 71
3
 72
8
 73
4
 74
0
 40
0
 40
0
 40
0
 40
0
 40
1
 40
1
 40
1
 40
1
 10
6.100001
 20
78.100008
 30
0.0
 10
2.786288
 20
78.100008
 30
0.0
 10
0.099994
 20
80.786308
 30
0.0
 10
0.100000
 20
84.100018
 30
0.0
  0
LWPOLYLINE
  5
242
100
AcDbEntity
  8
Layer_1
 62
1
100
AcDbPolyline
 90
2
 70
0
 10
120.100003
 20
78.100008
 30
0.0
 10
6.100001
 20
78.100008
 30
0.0
  0
SPLINE
  5
243
100
AcDbEntity
  8
Layer_1
 62
1
100
AcDbSpline
 70
8
 71
3
 72
8
 73
4
 74
0
 40
0
 40
0
 40
0
 40
0
 40
1
 40
1
 40
1
 40
1
 10
122.600003
 20
83.099998
 30
0.0
 10
122.600003
 20
83.635898
 30
0.0
 10
122.314104
 20
84.131090
 30
0.0
 10
121.850000
 20
84.399040
 30
0.0
  0
SPLINE
  5
244
100
AcDbEntity
  8
Layer_1
 62
1
100
AcDbSpline
 70
8
 71
3
 72
8
 73
4
 74
0
 40
0
 40
0
 40
0
 40
0
 40
1
 40
1
 40
1
 40
1
 10
121.850000
 20
84.399040
 30
0.0
 10
121.385897
 20
84.666991
 30
0.0
 10
120.814099
 20
84.666991
 30
0.0
 10
120.349995
 20
84.399040
 30
0.0
  0
SPLINE
  5
245
100
AcDbEntity
  8
Layer_1
 62
1
100
AcDbSpline
 70
8
 71
3
 72
8
 73
4
 74
0
 40
0
 40
0
 40
0
 40
0
 40
1
 40
1
 40
1
 40
1
 10
120.349995
 20
84.399040
 30
0.0
 10
119.885892
 20
84.131090
 30
0.0
 10
119.599993
 20
83.635898
 30
0.0
 10
119.599993
 20
83.099998
 30
0.0
  0
SPLINE
  5
246
100
AcDbEntity
  8
Layer_1
 62
1
100
AcDbSpline
 70
8
 71
3
 72
8
 73
4
 74
0
 40
0
 40
0
 40
0
 40
0
 40
1
 40
1
 40
1
 40
1
 10
119.599993
 20
83.099998
 30
0.0
 10
119.599993
 20
82.564098
 30
0.0
 10
119.885892
 20
82.068906
 30
0.0
 10
120.349995
 20
81.800956
 30
0.0
  0
SPLINE
  5
247
100
AcDbEntity
  8
Layer_1
 62
1
100
AcDbSpline
 70
8
 71
3
 72
8
 73
4
 74
0
 40
0
 40
0
 40
0
 40
0
 40
1
 40
1
 40
1
 40
1
 10
120.349995
 20
81.800956
 30
0.0
 10
120.814099
 20
81.533005
 30
0.0
 10
121.385897
 20
81.533005
 30
0.0
 10
121.850000
 20
81.800956
 30
0.0
  0
SPLINE
  5
248
100
AcDbEntity
  8
Layer_1
 62
1
100
AcDbSpline
 70
8
 71
3
 72
8
 73
4
 74
0
 40
0
 40
0
 40
0
 40
0
 40
1
 40
1
 40
1
 40
1
 10
121.850000
 20
81.800956
 30
0.0
 10
122.314104
 20
82.068906
 30
0.0
 10
122.600003
 20
82.564098
 30
0.0
 10
122.600003
 20
83.099998
 30
0.0
  0
LWPOLYLINE
  5
249
100
AcDbEntity
  8
Layer_1
 62
1
100
AcDbPolyline
 90
2
 70
0
 10
0.100000
 20
84.100018
 30
0.0
 10
0.100000
 20
101.300028
 30
0.0
  0
SPLINE
  5
24a
100
AcDbEntity
  8
Layer_1
 62
1
100
AcDbSpline
 70
8
 71
3
 72
8
 73
4
 74
0
 40
0
 40
0
 40
0
 40
0
 40
1
 40
1
 40
1
 40
1
 10
6.600000
 20
83.099998
 30
0.0
 10
6.600438
 20
83.636188
 30
0.0
 10
6.314635
 20
84.131835
 30
0.0
 10
5.850354
 20
84.400057
 30
0.0
  0
SPLINE
  5
24b
100
AcDbEntity
  8
Layer_1
 62
1
100
AcDbSpline
 70
8
 71
3
 72
8
 73
4
 74
0
 40
0
 40
0
 40
0
 40
0
 40
1
 40
1
 40
1
 40
1
 10
5.850354
 20
84.400057
 30
0.0
 10
5.386073
 20
84.668278
 30
0.0
 10
4.813928
 20
84.668278
 30
0.0
 10
4.349647
 20
84.400057
 30
0.0
  0
SPLINE
  5
24c
100
AcDbEntity
  8
Layer_1
 62
1
100
AcDbSpline
 70
8
 71
3
 72
8
 73
4
 74
0
 40
0
 40
0
 40
0
 40
0
 40
1
 40
1
 40
1
 40
1
 10
4.349647
 20
84.400057
 30
0.0
 10
3.885366
 20
84.131835
 30
0.0
 10
3.599563
 20
83.636188
 30
0.0
 10
3.600001
 20
83.099998
 30
0.0
  0
SPLINE
  5
24d
100
AcDbEntity
  8
Layer_1
 62
1
100
AcDbSpline
 70
8
 71
3
 72
8
 73
4
 74
0
 40
0
 40
0
 40
0
 40
0
 40
1
 40
1
 40
1
 40
1
 10
3.600001
 20
83.099998
 30
0.0
 10
3.599563
 20
82.563808
 30
0.0
 10
3.885366
 20
82.068161
 30
0.0
 10
4.349647
 20
81.799939
 30
0.0
  0
SPLINE
  5
24e
100
AcDbEntity
  8
Layer_1
 62
1
100
AcDbSpline
 70
8
 71
3
 72
8
 73
4
 74
0
 40
0
 40
0
 40
0
 40
0
 40
1
 40
1
 40
1
 40
1
 10
4.349647
 20
81.799939
 30
0.0
 10
4.813928
 20
81.531718
 30
0.0
 10
5.386073
 20
81.531718
 30
0.0
 10
5.850354
 20
81.799939
 30
0.0
  0
SPLINE
  5
24f
100
AcDbEntity
  8
Layer_1
 62
1
100
AcDbSpline
 70
8
 71
3
 72
8
 73
4
 74
0
 40
0
 40
0
 40
0
 40
0
 40
1
 40
1
 40
1
 40
1
 10
5.850354
 20
81.799939
 30
0.0
 10
6.314635
 20
82.068161
 30
0.0
 10
6.600438
 20
82.563808
 30
0.0
 10
6.600000
 20
83.099998
 30
0.0
  0
LWPOLYLINE
  5
250
100
AcDbEntity
  8
Layer_1
 62
1
100
AcDbPolyline
 90
1
 70
1
 10
122.600003
 20
83.099998
 30
0.0
  0
SPLINE
  5
251
100
AcDbEntity
  8
Layer_1
 62
5
100
AcDbSpline
 70
8
 71
3
 72
8
 73
4
 74
0
 40
0
 40
0
 40
0
 40
0
 40
1
 40
1
 40
1
 40
1
 10
57.850006
 20
53.100007
 30
0.0
 10
57.850006
 20
53.457273
 30
0.0
 10
57.659407
 20
53.787400
 30
0.0
 10
57.350006
 20
53.966033
 30
0.0
  0
SPLINE
  5
252
100
AcDbEntity
  8
Layer_1
 62
5
100
AcDbSpline
 70
8
 71
3
 72
8
 73
4
 74
0
 40
0
 40
0
 40
0
 40
0
 40
1
 40
1
 40
1
 40
1
 10
57.350006
 20
53.966033
 30
0.0
 10
57.040604
 20
54.144666
 30
0.0
 10
56.659406
 20
54.144666
 30
0.0
 10
56.350005
 20
53.966033
 30
0.0
  0
SPLINE
  5
253
100
AcDbEntity
  8
Layer_1
 62
5
100
AcDbSpline
 70
8
 71
3
 72
8
 73
4
 74
0
 40
0
 40
0
 40
0
 40
0
 40
1
 40
1
 40
1
 40
1
 10
56.350005
 20
53.966033
 30
0.0
 10
56.040604
 20
53.787400
 30
0.0
 10
55.850005
 20
53.457273
 30
0.0
 10
55.850005
 20
53.100007
 30
0.0
  0
SPLINE
  5
254
100
AcDbEntity
  8
Layer_1
 62
5
100
AcDbSpline
 70
8
 71
3
 72
8
 73
4
 74
0
 40
0
 40
0
 40
0
 40
0
 40
1
 40
1
 40
1
 40
1
 10
55.850005
 20
53.100007
 30
0.0
 10
55.850005
 20
52.742742
 30
0.0
 10
56.040604
 20
52.412614
 30
0.0
 10
56.350005
 20
52.233981
 30
0.0
  0
SPLINE
  5
255
100
AcDbEntity
  8
Layer_1
 62
5
100
AcDbSpline
 70
8
 71
3
 72
8
 73
4
 74
0
 40
0
 40
0
 40
0
 40
0
 40
1
 40
1
 40
1
 40
1
 10
56.350005
 20
52.233981
 30
0.0
 10
56.659406
 20
52.055348
 30
0.0
 10
57.040604
 20
52.055348
 30
0.0
 10
57.350006
 20
52.233981
 30
0.0
  0
SPLINE
  5
256
100
AcDbEntity
  8
Layer_1
 62
5
100
AcDbSpline
 70
8
 71
3
 72
8
 73
4
 74
0
 40
0
 40
0
 40
0
 40
0
 40
1
 40
1
 40
1
 40
1
 10
57.350006
 20
52.233981
 30
0.0
 10
57.659407
 20
52.412614
 30
0.0
 10
57.850006
 20
52.742742
 30
0.0
 10
57.850006
 20
53.100007
 30
0.0
  0
LWPOLYLINE
  5
257
100
AcDbEntity
  8
Layer_1
 62
1
100
AcDbPolyline
 90
1
 70
1
 10
6.600000
 20
83.099998
 30
0.0
  0
SPLINE
  5
258
100
AcDbEntity
  8
Layer_1
 62
5
100
AcDbSpline
 70
8
 71
3
 72
8
 73
4
 74
0
 40
0
 40
0
 40
0
 40
0
 40
1
 40
1
 40
1
 40
1
 10
70.350005
 20
25.100000
 30
0.0
 10
70.350455
 20
25.457566
 30
0.0
 10
70.159955
 20
25.788163
 30
0.0
 10
69.850369
 20
25.967076
 30
0.0
  0
SPLINE
  5
259
100
AcDbEntity
  8
Layer_1
 62
5
100
AcDbSpline
 70
8
 71
3
 72
8
 73
4
 74
0
 40
0
 40
0
 40
0
 40
0
 40
1
 40
1
 40
1
 40
1
 10
69.850369
 20
25.967076
 30
0.0
 10
69.540783
 20
26.145988
 30
0.0
 10
69.159228
 20
26.145988
 30
0.0
 10
68.849642
 20
25.967076
 30
0.0
  0
SPLINE
  5
25a
100
AcDbEntity
  8
Layer_1
 62
5
100
AcDbSpline
 70
8
 71
3
 72
8
 73
4
 74
0
 40
0
 40
0
 40
0
 40
0
 40
1
 40
1
 40
1
 40
1
 10
68.849642
 20
25.967076
 30
0.0
 10
68.540056
 20
25.788163
 30
0.0
 10
68.349556
 20
25.457566
 30
0.0
 10
68.350006
 20
25.100000
 30
0.0
  0
SPLINE
  5
25b
100
AcDbEntity
  8
Layer_1
 62
5
100
AcDbSpline
 70
8
 71
3
 72
8
 73
4
 74
0
 40
0
 40
0
 40
0
 40
0
 40
1
 40
1
 40
1
 40
1
 10
68.350006
 20
25.100000
 30
0.0
 10
68.349556
 20
24.742435
 30
0.0
 10
68.540056
 20
24.411838
 30
0.0
 10
68.849642
 20
24.232925
 30
0.0
  0
SPLINE
  5
25c
100
AcDbEntity
  8
Layer_1
 62
5
100
AcDbSpline
 70
8
 71
3
 72
8
 73
4
 74
0
 40
0
 40
0
 40
0
 40
0
 40
1
 40
1
 40
1
 40
1
 10
68.849642
 20
24.232925
 30
0.0
 10
69.159228
 20
24.054012
 30
0.0
 10
69.540783
 20
24.054012
 30
0.0
 10
69.850369
 20
24.232925
 30
0.0
  0
SPLINE
  5
25d
100
AcDbEntity
  8
Layer_1
 62
5
100
AcDbSpline
 70
8
 71
3
 72
8
 73
4
 74
0
 40
0
 40
0
 40
0
 40
0
 40
1
 40
1
 40
1
 40
1
 10
69.850369
 20
24.232925
 30
0.0
 10
70.159955
 20
24.411838
 30
0.0
 10
70.350455
 20
24.742435
 30
0.0
 10
70.350005
 20
25.100000
 30
0.0
  0
LWPOLYLINE
  5
25e
100
AcDbEntity
  8
Layer_1
 62
5
100
AcDbPolyline
 90
1
 70
1
 10
57.850006
 20
53.100007
 30
0.0
  0
SPLINE
  5
25f
100
AcDbEntity
  8
Layer_1
 62
5
100
AcDbSpline
 70
8
 71
3
 72
8
 73
4
 74
0
 40
0
 40
0
 40
0
 40
0
 40
1
 40
1
 40
1
 40
1
 10
20.350007
 20
25.100000
 30
0.0
 10
20.350007
 20
25.457268
 30
0.0
 10
20.159407
 20
25.787397
 30
0.0
 10
19.850004
 20
25.966031
 30
0.0
  0
SPLINE
  5
260
100
AcDbEntity
  8
Layer_1
 62
5
100
AcDbSpline
 70
8
 71
3
 72
8
 73
4
 74
0
 40
0
 40
0
 40
0
 40
0
 40
1
 40
1
 40
1
 40
1
 10
19.850004
 20
25.966031
 30
0.0
 10
19.540602
 20
26.144665
 30
0.0
 10
19.159401
 20
26.144665
 30
0.0
 10
18.849999
 20
25.966031
 30
0.0
  0
SPLINE
  5
261
100
AcDbEntity
  8
Layer_1
 62
5
100
AcDbSpline
 70
8
 71
3
 72
8
 73
4
 74
0
 40
0
 40
0
 40
0
 40
0
 40
1
 40
1
 40
1
 40
1
 10
18.849999
 20
25.966031
 30
0.0
 10
18.540596
 20
25.787397
 30
0.0
 10
18.349996
 20
25.457268
 30
0.0
 10
18.349996
 20
25.100000
 30
0.0
  0
SPLINE
  5
262
100
AcDbEntity
  8
Layer_1
 62
5
100
AcDbSpline
 70
8
 71
3
 72
8
 73
4
 74
0
 40
0
 40
0
 40
0
 40
0
 40
1
 40
1
 40
1
 40
1
 10
18.349996
 20
25.100000
 30
0.0
 10
18.349996
 20
24.742732
 30
0.0
 10
18.540596
 20
24.412604
 30
0.0
 10
18.849999
 20
24.233970
 30
0.0
  0
SPLINE
  5
263
100
AcDbEntity
  8
Layer_1
 62
5
100
AcDbSpline
 70
8
 71
3
 72
8
 73
4
 74
0
 40
0
 40
0
 40
0
 40
0
 40
1
 40
1
 40
1
 40
1
 10
18.849999
 20
24.233970
 30
0.0
 10
19.159401
 20
24.055336
 30
0.0
 10
19.540602
 20
24.055336
 30
0.0
 10
19.850004
 20
24.233970
 30
0.0
  0
SPLINE
  5
264
100
AcDbEntity
  8
Layer_1
 62
5
100
AcDbSpline
 70
8
 71
3
 72
8
 73
4
 74
0
 40
0
 40
0
 40
0
 40
0
 40
1
 40
1
 40
1
 40
1
 10
19.850004
 20
24.233970
 30
0.0
 10
20.159407
 20
24.412604
 30
0.0
 10
20.350007
 20
24.742732
 30
0.0
 10
20.350007
 20
25.100000
 30
0.0
  0
LWPOLYLINE
  5
265
100
AcDbEntity
  8
Layer_1
 62
5
100
AcDbPolyline
 90
1
 70
1
 10
70.350005
 20
25.100000
 30
0.0
  0
SPLINE
  5
266
100
AcDbEntity
  8
Layer_1
 62
5
100
AcDbSpline
 70
8
 71
3
 72
8
 73
4
 74
0
 40
0
 40
0
 40
0
 40
0
 40
1
 40
1
 40
1
 40
1
 10
107.850006
 20
53.100007
 30
0.0
 10
107.850006
 20
53.457273
 30
0.0
 10
107.659407
 20
53.787400
 30
0.0
 10
107.350006
 20
53.966033
 30
0.0
  0
SPLINE
  5
267
100
AcDbEntity
  8
Layer_1
 62
5
100
AcDbSpline
 70
8
 71
3
 72
8
 73
4
 74
0
 40
0
 40
0
 40
0
 40
0
 40
1
 40
1
 40
1
 40
1
 10
107.350006
 20
53.966033
 30
0.0
 10
107.040604
 20
54.144666
 30
0.0
 10
106.659406
 20
54.144666
 30
0.0
 10
106.350005
 20
53.966033
 30
0.0
  0
SPLINE
  5
268
100
AcDbEntity
  8
Layer_1
 62
5
100
AcDbSpline
 70
8
 71
3
 72
8
 73
4
 74
0
 40
0
 40
0
 40
0
 40
0
 40
1
 40
1
 40
1
 40
1
 10
106.350005
 20
53.966033
 30
0.0
 10
106.040604
 20
53.787400
 30
0.0
 10
105.850005
 20
53.457273
 30
0.0
 10
105.850005
 20
53.100007
 30
0.0
  0
SPLINE
  5
269
100
AcDbEntity
  8
Layer_1
 62
5
100
AcDbSpline
 70
8
 71
3
 72
8
 73
4
 74
0
 40
0
 40
0
 40
0
 40
0
 40
1
 40
1
 40
1
 40
1
 10
105.850005
 20
53.100007
 30
0.0
 10
105.850005
 20
52.742742
 30
0.0
 10
106.040604
 20
52.412614
 30
0.0
 10
106.350005
 20
52.233981
 30
0.0
  0
SPLINE
  5
26a
100
AcDbEntity
  8
Layer_1
 62
5
100
AcDbSpline
 70
8
 71
3
 72
8
 73
4
 74
0
 40
0
 40
0
 40
0
 40
0
 40
1
 40
1
 40
1
 40
1
 10
106.350005
 20
52.233981
 30
0.0
 10
106.659406
 20
52.055348
 30
0.0
 10
107.040604
 20
52.055348
 30
0.0
 10
107.350006
 20
52.233981
 30
0.0
  0
SPLINE
  5
26b
100
AcDbEntity
  8
Layer_1
 62
5
100
AcDbSpline
 70
8
 71
3
 72
8
 73
4
 74
0
 40
0
 40
0
 40
0
 40
0
 40
1
 40
1
 40
1
 40
1
 10
107.350006
 20
52.233981
 30
0.0
 10
107.659407
 20
52.412614
 30
0.0
 10
107.850006
 20
52.742742
 30
0.0
 10
107.850006
 20
53.100007
 30
0.0
  0
LWPOLYLINE
  5
26c
100
AcDbEntity
  8
Layer_1
 62
5
100
AcDbPolyline
 90
1
 70
1
 10
20.350007
 20
25.100000
 30
0.0
  0
SPLINE
  5
26d
100
AcDbEntity
  8
Layer_1
 62
5
100
AcDbSpline
 70
8
 71
3
 72
8
 73
4
 74
0
 40
0
 40
0
 40
0
 40
0
 40
1
 40
1
 40
1
 40
1
 10
17.600008
 20
5.099988
 30
0.0
 10
17.600008
 20
5.635887
 30
0.0
 10
17.314109
 20
6.131078
 30
0.0
 10
16.850007
 20
6.399028
 30
0.0
  0
SPLINE
  5
26e
100
AcDbEntity
  8
Layer_1
 62
5
100
AcDbSpline
 70
8
 71
3
 72
8
 73
4
 74
0
 40
0
 40
0
 40
0
 40
0
 40
1
 40
1
 40
1
 40
1
 10
16.850007
 20
6.399028
 30
0.0
 10
16.385904
 20
6.666977
 30
0.0
 10
15.814107
 20
6.666977
 30
0.0
 10
15.350004
 20
6.399028
 30
0.0
  0
SPLINE
  5
26f
100
AcDbEntity
  8
Layer_1
 62
5
100
AcDbSpline
 70
8
 71
3
 72
8
 73
4
 74
0
 40
0
 40
0
 40
0
 40
0
 40
1
 40
1
 40
1
 40
1
 10
15.350004
 20
6.399028
 30
0.0
 10
14.885902
 20
6.131078
 30
0.0
 10
14.600003
 20
5.635887
 30
0.0
 10
14.600003
 20
5.099988
 30
0.0
  0
SPLINE
  5
270
100
AcDbEntity
  8
Layer_1
 62
5
100
AcDbSpline
 70
8
 71
3
 72
8
 73
4
 74
0
 40
0
 40
0
 40
0
 40
0
 40
1
 40
1
 40
1
 40
1
 10
14.600003
 20
5.099988
 30
0.0
 10
14.600003
 20
4.564088
 30
0.0
 10
14.885902
 20
4.068897
 30
0.0
 10
15.350004
 20
3.800947
 30
0.0
  0
SPLINE
  5
271
100
AcDbEntity
  8
Layer_1
 62
5
100
AcDbSpline
 70
8
 71
3
 72
8
 73
4
 74
0
 40
0
 40
0
 40
0
 40
0
 40
1
 40
1
 40
1
 40
1
 10
15.350004
 20
3.800947
 30
0.0
 10
15.814107
 20
3.532998
 30
0.0
 10
16.385904
 20
3.532998
 30
0.0
 10
16.850007
 20
3.800947
 30
0.0
  0
SPLINE
  5
272
100
AcDbEntity
  8
Layer_1
 62
5
100
AcDbSpline
 70
8
 71
3
 72
8
 73
4
 74
0
 40
0
 40
0
 40
0
 40
0
 40
1
 40
1
 40
1
 40
1
 10
16.850007
 20
3.800947
 30
0.0
 10
17.314109
 20
4.068897
 30
0.0
 10
17.600008
 20
4.564088
 30
0.0
 10
17.600008
 20
5.099988
 30
0.0
  0
LWPOLYLINE
  5
273
100
AcDbEntity
  8
Layer_1
 62
5
100
AcDbPolyline
 90
1
 70
1
 10
107.850006
 20
53.100007
 30
0.0
  0
SPLINE
  5
274
100
AcDbEntity
  8
Layer_1
 62
5
100
AcDbSpline
 70
8
 71
3
 72
8
 73
4
 74
0
 40
0
 40
0
 40
0
 40
0
 40
1
 40
1
 40
1
 40
1
 10
111.600006
 20
73.099994
 30
0.0
 10
111.600006
 20
73.635892
 30
0.0
 10
111.314108
 20
74.131083
 30
0.0
 10
110.850006
 20
74.399032
 30
0.0
  0
SPLINE
  5
275
100
AcDbEntity
  8
Layer_1
 62
5
100
AcDbSpline
 70
8
 71
3
 72
8
 73
4
 74
0
 40
0
 40
0
 40
0
 40
0
 40
1
 40
1
 40
1
 40
1
 10
110.850006
 20
74.399032
 30
0.0
 10
110.385904
 20
74.666982
 30
0.0
 10
109.814107
 20
74.666982
 30
0.0
 10
109.350005
 20
74.399032
 30
0.0
  0
SPLINE
  5
276
100
AcDbEntity
  8
Layer_1
 62
5
100
AcDbSpline
 70
8
 71
3
 72
8
 73
4
 74
0
 40
0
 40
0
 40
0
 40
0
 40
1
 40
1
 40
1
 40
1
 10
109.350005
 20
74.399032
 30
0.0
 10
108.885903
 20
74.131083
 30
0.0
 10
108.600004
 20
73.635892
 30
0.0
 10
108.600004
 20
73.099994
 30
0.0
  0
SPLINE
  5
277
100
AcDbEntity
  8
Layer_1
 62
5
100
AcDbSpline
 70
8
 71
3
 72
8
 73
4
 74
0
 40
0
 40
0
 40
0
 40
0
 40
1
 40
1
 40
1
 40
1
 10
108.600004
 20
73.099994
 30
0.0
 10
108.600004
 20
72.564095
 30
0.0
 10
108.885903
 20
72.068904
 30
0.0
 10
109.350005
 20
71.800955
 30
0.0
  0
SPLINE
  5
278
100
AcDbEntity
  8
Layer_1
 62
5
100
AcDbSpline
 70
8
 71
3
 72
8
 73
4
 74
0
 40
0
 40
0
 40
0
 40
0
 40
1
 40
1
 40
1
 40
1
 10
109.350005
 20
71.800955
 30
0.0
 10
109.814107
 20
71.533005
 30
0.0
 10
110.385904
 20
71.533005
 30
0.0
 10
110.850006
 20
71.800955
 30
0.0
  0
SPLINE
  5
279
100
AcDbEntity
  8
Layer_1
 62
5
100
AcDbSpline
 70
8
 71
3
 72
8
 73
4
 74
0
 40
0
 40
0
 40
0
 40
0
 40
1
 40
1
 40
1
 40
1
 10
110.850006
 20
71.800955
 30
0.0
 10
111.314108
 20
72.068904
 30
0.0
 10
111.600006
 20
72.564095
 30
0.0
 10
111.600006
 20
73.099994
 30
0.0
  0
LWPOLYLINE
  5
27a
100
AcDbEntity
  8
Layer_1
 62
5
100
AcDbPolyline
 90
1
 70
1
 10
17.600008
 20
5.099988
 30
0.0
  0
SPLINE
  5
27b
100
AcDbEntity
  8
Layer_1
 62
5
100
AcDbSpline
 70
8
 71
3
 72
8
 73
4
 74
0
 40
0
 40
0
 40
0
 40
0
 40
1
 40
1
 40
1
 40
1
 10
17.600008
 20
73.099994
 30
0.0
 10
17.600008
 20
73.635893
 30
0.0
 10
17.314109
 20
74.131084
 30
0.0
 10
16.850007
 20
74.399034
 30
0.0
  0
SPLINE
  5
27c
100
AcDbEntity
  8
Layer_1
 62
5
100
AcDbSpline
 70
8
 71
3
 72
8
 73
4
 74
0
 40
0
 40
0
 40
0
 40
0
 40
1
 40
1
 40
1
 40
1
 10
16.850007
 20
74.399034
 30
0.0
 10
16.385904
 20
74.666983
 30
0.0
 10
15.814107
 20
74.666983
 30
0.0
 10
15.350004
 20
74.399034
 30
0.0
  0
SPLINE
  5
27d
100
AcDbEntity
  8
Layer_1
 62
5
100
AcDbSpline
 70
8
 71
3
 72
8
 73
4
 74
0
 40
0
 40
0
 40
0
 40
0
 40
1
 40
1
 40
1
 40
1
 10
15.350004
 20
74.399034
 30
0.0
 10
14.885902
 20
74.131084
 30
0.0
 10
14.600003
 20
73.635893
 30
0.0
 10
14.600003
 20
73.099994
 30
0.0
  0
SPLINE
  5
27e
100
AcDbEntity
  8
Layer_1
 62
5
100
AcDbSpline
 70
8
 71
3
 72
8
 73
4
 74
0
 40
0
 40
0
 40
0
 40
0
 40
1
 40
1
 40
1
 40
1
 10
14.600003
 20
73.099994
 30
0.0
 10
14.600003
 20
72.564094
 30
0.0
 10
14.885902
 20
72.068903
 30
0.0
 10
15.350004
 20
71.800953
 30
0.0
  0
SPLINE
  5
27f
100
AcDbEntity
  8
Layer_1
 62
5
100
AcDbSpline
 70
8
 71
3
 72
8
 73
4
 74
0
 40
0
 40
0
 40
0
 40
0
 40
1
 40
1
 40
1
 40
1
 10
15.350004
 20
71.800953
 30
0.0
 10
15.814107
 20
71.533004
 30
0.0
 10
16.385904
 20
71.533004
 30
0.0
 10
16.850007
 20
71.800953
 30
0.0
  0
SPLINE
  5
280
100
AcDbEntity
  8
Layer_1
 62
5
100
AcDbSpline
 70
8
 71
3
 72
8
 73
4
 74
0
 40
0
 40
0
 40
0
 40
0
 40
1
 40
1
 40
1
 40
1
 10
16.850007
 20
71.800953
 30
0.0
 10
17.314109
 20
72.068903
 30
0.0
 10
17.600008
 20
72.564094
 30
0.0
 10
17.600008
 20
73.099994
 30
0.0
  0
LWPOLYLINE
  5
281
100
AcDbEntity
  8
Layer_1
 62
5
100
AcDbPolyline
 90
1
 70
1
 10
111.600006
 20
73.099994
 30
0.0
  0
SPLINE
  5
282
100
AcDbEntity
  8
Layer_1
 62
5
100
AcDbSpline
 70
8
 71
3
 72
8
 73
4
 74
0
 40
0
 40
0
 40
0
 40
0
 40
1
 40
1
 40
1
 40
1
 10
111.600006
 20
5.099988
 30
0.0
 10
111.600006
 20
5.635886
 30
0.0
 10
111.314108
 20
6.131077
 30
0.0
 10
110.850006
 20
6.399026
 30
0.0
  0
SPLINE
  5
283
100
AcDbEntity
  8
Layer_1
 62
5
100
AcDbSpline
 70
8
 71
3
 72
8
 73
4
 74
0
 40
0
 40
0
 40
0
 40
0
 40
1
 40
1
 40
1
 40
1
 10
110.850006
 20
6.399026
 30
0.0
 10
110.385904
 20
6.666976
 30
0.0
 10
109.814107
 20
6.666976
 30
0.0
 10
109.350005
 20
6.399026
 30
0.0
  0
SPLINE
  5
284
100
AcDbEntity
  8
Layer_1
 62
5
100
AcDbSpline
 70
8
 71
3
 72
8
 73
4
 74
0
 40
0
 40
0
 40
0
 40
0
 40
1
 40
1
 40
1
 40
1
 10
109.350005
 20
6.399026
 30
0.0
 10
108.885903
 20
6.131077
 30
0.0
 10
108.600004
 20
5.635886
 30
0.0
 10
108.600004
 20
5.099988
 30
0.0
  0
SPLINE
  5
285
100
AcDbEntity
  8
Layer_1
 62
5
100
AcDbSpline
 70
8
 71
3
 72
8
 73
4
 74
0
 40
0
 40
0
 40
0
 40
0
 40
1
 40
1
 40
1
 40
1
 10
108.600004
 20
5.099988
 30
0.0
 10
108.600004
 20
4.564089
 30
0.0
 10
108.885903
 20
4.068898
 30
0.0
 10
109.350005
 20
3.800949
 30
0.0
  0
SPLINE
  5
286
100
AcDbEntity
  8
Layer_1
 62
5
100
AcDbSpline
 70
8
 71
3
 72
8
 73
4
 74
0
 40
0
 40
0
 40
0
 40
0
 40
1
 40
1
 40
1
 40
1
 10
109.350005
 20
3.800949
 30
0.0
 10
109.814107
 20
3.532999
 30
0.0
 10
110.385904
 20
3.532999
 30
0.0
 10
110.850006
 20
3.800949
 30
0.0
  0
SPLINE
  5
287
100
AcDbEntity
  8
Layer_1
 62
5
100
AcDbSpline
 70
8
 71
3
 72
8
 73
4
 74
0
 40
0
 40
0
 40
0
 40
0
 40
1
 40
1
 40
1
 40
1
 10
110.850006
 20
3.800949
 30
0.0
 10
111.314108
 20
4.068898
 30
0.0
 10
111.600006
 20
4.564089
 30
0.0
 10
111.600006
 20
5.099988
 30
0.0
  0
LWPOLYLINE
  5
288
100
AcDbEntity
  8
Layer_1
 62
5
100
AcDbPolyline
 90
1
 70
1
 10
17.600008
 20
73.099994
 30
0.0
  0
SPLINE
  5
289
100
AcDbEntity
  8
Layer_1
 62
5
100
AcDbSpline
 70
8
 71
3
 72
8
 73
4
 74
0
 40
0
 40
0
 40
0
 40
0
 40
1
 40
1
 40
1
 40
1
 10
120.100005
 20
78.100010
 30
0.0
 10
123.413718
 20
78.100010
 30
0.0
 10
126.100012
 20
75.413722
 30
0.0
 10
126.100006
 20
72.100001
 30
0.0
  0
LWPOLYLINE
  5
28a
100
AcDbEntity
  8
Layer_1
 62
5
100
AcDbPolyline
 90
1
 70
1
 10
111.600006
 20
5.099988
 30
0.0
  0
SPLINE
  5
28b
100
AcDbEntity
  8
Layer_1
 62
5
100
AcDbSpline
 70
8
 71
3
 72
8
 73
4
 74
0
 40
0
 40
0
 40
0
 40
0
 40
1
 40
1
 40
1
 40
1
 10
126.100006
 20
6.100007
 30
0.0
 10
126.100012
 20
2.786286
 30
0.0
 10
123.413718
 20
0.099998
 30
0.0
 10
120.100005
 20
0.099998
 30
0.0
  0
LWPOLYLINE
  5
28c
100
AcDbEntity
  8
Layer_1
 62
5
100
AcDbPolyline
 90
6
 70
0
 10
126.100006
 20
72.100001
 30
0.0
 10
126.100006
 20
54.899994
 30
0.0
 10
114.700005
 20
54.899994
 30
0.0
 10
114.700005
 20
23.300013
 30
0.0
 10
126.100006
 20
23.300013
 30
0.0
 10
126.100006
 20
6.100007
 30
0.0
  0
SPLINE
  5
28d
100
AcDbEntity
  8
Layer_1
 62
5
100
AcDbSpline
 70
8
 71
3
 72
8
 73
4
 74
0
 40
0
 40
0
 40
0
 40
0
 40
1
 40
1
 40
1
 40
1
 10
6.099999
 20
0.099998
 30
0.0
 10
2.786305
 20
0.099998
 30
0.0
 10
0.100016
 20
2.786312
 30
0.0
 10
0.100016
 20
6.100007
 30
0.0
  0
LWPOLYLINE
  5
28e
100
AcDbEntity
  8
Layer_1
 62
5
100
AcDbPolyline
 90
2
 70
0
 10
120.100005
 20
0.099998
 30
0.0
 10
6.099999
 20
0.099998
 30
0.0
  0
SPLINE
  5
28f
100
AcDbEntity
  8
Layer_1
 62
5
100
AcDbSpline
 70
8
 71
3
 72
8
 73
4
 74
0
 40
0
 40
0
 40
0
 40
0
 40
1
 40
1
 40
1
 40
1
 10
0.100016
 20
72.100001
 30
0.0
 10
0.100016
 20
75.413695
 30
0.0
 10
2.786305
 20
78.100010
 30
0.0
 10
6.099999
 20
78.100010
 30
0.0
  0
SPLINE
  5
290
100
AcDbEntity
  8
Layer_1
 62
5
100
AcDbSpline
 70
8
 71
3
 72
8
 73
4
 74
0
 40
0
 40
0
 40
0
 40
0
 40
1
 40
1
 40
1
 40
1
 10
7.600001
 20
5.099988
 30
0.0
 10
7.601795
 20
5.994344
 30
0.0
 10
7.125691
 20
6.821532
 30
0.0
 10
6.351453
 20
7.269228
 30
0.0
  0
SPLINE
  5
291
100
AcDbEntity
  8
Layer_1
 62
5
100
AcDbSpline
 70
8
 71
3
 72
8
 73
4
 74
0
 40
0
 40
0
 40
0
 40
0
 40
1
 40
1
 40
1
 40
1
 10
6.351453
 20
7.269228
 30
0.0
 10
5.577216
 20
7.716925
 30
0.0
 10
4.622797
 20
7.716925
 30
0.0
 10
3.848559
 20
7.269228
 30
0.0
  0
SPLINE
  5
292
100
AcDbEntity
  8
Layer_1
 62
5
100
AcDbSpline
 70
8
 71
3
 72
8
 73
4
 74
0
 40
0
 40
0
 40
0
 40
0
 40
1
 40
1
 40
1
 40
1
 10
3.848559
 20
7.269228
 30
0.0
 10
3.074322
 20
6.821532
 30
0.0
 10
2.598218
 20
5.994344
 30
0.0
 10
2.600011
 20
5.099988
 30
0.0
  0
SPLINE
  5
293
100
AcDbEntity
  8
Layer_1
 62
5
100
AcDbSpline
 70
8
 71
3
 72
8
 73
4
 74
0
 40
0
 40
0
 40
0
 40
0
 40
1
 40
1
 40
1
 40
1
 10
2.600011
 20
5.099988
 30
0.0
 10
2.598218
 20
4.205631
 30
0.0
 10
3.074322
 20
3.378443
 30
0.0
 10
3.848559
 20
2.930747
 30
0.0
  0
SPLINE
  5
294
100
AcDbEntity
  8
Layer_1
 62
5
100
AcDbSpline
 70
8
 71
3
 72
8
 73
4
 74
0
 40
0
 40
0
 40
0
 40
0
 40
1
 40
1
 40
1
 40
1
 10
3.848559
 20
2.930747
 30
0.0
 10
4.622797
 20
2.483050
 30
0.0
 10
5.577216
 20
2.483050
 30
0.0
 10
6.351453
 20
2.930747
 30
0.0
  0
SPLINE
  5
295
100
AcDbEntity
  8
Layer_1
 62
5
100
AcDbSpline
 70
8
 71
3
 72
8
 73
4
 74
0
 40
0
 40
0
 40
0
 40
0
 40
1
 40
1
 40
1
 40
1
 10
6.351453
 20
2.930747
 30
0.0
 10
7.125691
 20
3.378443
 30
0.0
 10
7.601795
 20
4.205631
 30
0.0
 10
7.600001
 20
5.099988
 30
0.0
  0
LWPOLYLINE
  5
296
100
AcDbEntity
  8
Layer_1
 62
5
100
AcDbPolyline
 90
6
 70
0
 10
0.100016
 20
6.100007
 30
0.0
 10
0.100016
 20
23.300013
 30
0.0
 10
11.500013
 20
23.300013
 30
0.0
 10
11.500013
 20
54.899994
 30
0.0
 10
0.100016
 20
54.899994
 30
0.0
 10
0.100016
 20
72.100001
 30
0.0
  0
SPLINE
  5
297
100
AcDbEntity
  8
Layer_1
 62
5
100
AcDbSpline
 70
8
 71
3
 72
8
 73
4
 74
0
 40
0
 40
0
 40
0
 40
0
 40
1
 40
1
 40
1
 40
1
 10
123.600006
 20
73.099994
 30
0.0
 10
123.600006
 20
73.993158
 30
0.0
 10
123.123509
 20
74.818475
 30
0.0
 10
122.350006
 20
75.265057
 30
0.0
  0
SPLINE
  5
298
100
AcDbEntity
  8
Layer_1
 62
5
100
AcDbSpline
 70
8
 71
3
 72
8
 73
4
 74
0
 40
0
 40
0
 40
0
 40
0
 40
1
 40
1
 40
1
 40
1
 10
122.350006
 20
75.265057
 30
0.0
 10
121.576503
 20
75.711639
 30
0.0
 10
120.623508
 20
75.711639
 30
0.0
 10
119.850006
 20
75.265057
 30
0.0
  0
SPLINE
  5
299
100
AcDbEntity
  8
Layer_1
 62
5
100
AcDbSpline
 70
8
 71
3
 72
8
 73
4
 74
0
 40
0
 40
0
 40
0
 40
0
 40
1
 40
1
 40
1
 40
1
 10
119.850006
 20
75.265057
 30
0.0
 10
119.076503
 20
74.818475
 30
0.0
 10
118.600005
 20
73.993158
 30
0.0
 10
118.600005
 20
73.099994
 30
0.0
  0
SPLINE
  5
29a
100
AcDbEntity
  8
Layer_1
 62
5
100
AcDbSpline
 70
8
 71
3
 72
8
 73
4
 74
0
 40
0
 40
0
 40
0
 40
0
 40
1
 40
1
 40
1
 40
1
 10
118.600005
 20
73.099994
 30
0.0
 10
118.600005
 20
72.206829
 30
0.0
 10
119.076503
 20
71.381512
 30
0.0
 10
119.850006
 20
70.934930
 30
0.0
  0
SPLINE
  5
29b
100
AcDbEntity
  8
Layer_1
 62
5
100
AcDbSpline
 70
8
 71
3
 72
8
 73
4
 74
0
 40
0
 40
0
 40
0
 40
0
 40
1
 40
1
 40
1
 40
1
 10
119.850006
 20
70.934930
 30
0.0
 10
120.623508
 20
70.488348
 30
0.0
 10
121.576503
 20
70.488348
 30
0.0
 10
122.350006
 20
70.934930
 30
0.0
  0
SPLINE
  5
29c
100
AcDbEntity
  8
Layer_1
 62
5
100
AcDbSpline
 70
8
 71
3
 72
8
 73
4
 74
0
 40
0
 40
0
 40
0
 40
0
 40
1
 40
1
 40
1
 40
1
 10
122.350006
 20
70.934930
 30
0.0
 10
123.123509
 20
71.381512
 30
0.0
 10
123.600006
 20
72.206829
 30
0.0
 10
123.600006
 20
73.099994
 30
0.0
  0
LWPOLYLINE
  5
29d
100
AcDbEntity
  8
Layer_1
 62
5
100
AcDbPolyline
 90
1
 70
1
 10
7.600001
 20
5.099988
 30
0.0
  0
SPLINE
  5
29e
100
AcDbEntity
  8
Layer_1
 62
5
100
AcDbSpline
 70
8
 71
3
 72
8
 73
4
 74
0
 40
0
 40
0
 40
0
 40
0
 40
1
 40
1
 40
1
 40
1
 10
7.600001
 20
73.099994
 30
0.0
 10
7.601795
 20
73.994350
 30
0.0
 10
7.125691
 20
74.821538
 30
0.0
 10
6.351453
 20
75.269235
 30
0.0
  0
SPLINE
  5
29f
100
AcDbEntity
  8
Layer_1
 62
5
100
AcDbSpline
 70
8
 71
3
 72
8
 73
4
 74
0
 40
0
 40
0
 40
0
 40
0
 40
1
 40
1
 40
1
 40
1
 10
6.351453
 20
75.269235
 30
0.0
 10
5.577216
 20
75.716931
 30
0.0
 10
4.622797
 20
75.716931
 30
0.0
 10
3.848559
 20
75.269235
 30
0.0
  0
SPLINE
  5
2a0
100
AcDbEntity
  8
Layer_1
 62
5
100
AcDbSpline
 70
8
 71
3
 72
8
 73
4
 74
0
 40
0
 40
0
 40
0
 40
0
 40
1
 40
1
 40
1
 40
1
 10
3.848559
 20
75.269235
 30
0.0
 10
3.074322
 20
74.821538
 30
0.0
 10
2.598218
 20
73.994350
 30
0.0
 10
2.600011
 20
73.099994
 30
0.0
  0
SPLINE
  5
2a1
100
AcDbEntity
  8
Layer_1
 62
5
100
AcDbSpline
 70
8
 71
3
 72
8
 73
4
 74
0
 40
0
 40
0
 40
0
 40
0
 40
1
 40
1
 40
1
 40
1
 10
2.600011
 20
73.099994
 30
0.0
 10
2.598218
 20
72.205637
 30
0.0
 10
3.074322
 20
71.378449
 30
0.0
 10
3.848559
 20
70.930753
 30
0.0
  0
SPLINE
  5
2a2
100
AcDbEntity
  8
Layer_1
 62
5
100
AcDbSpline
 70
8
 71
3
 72
8
 73
4
 74
0
 40
0
 40
0
 40
0
 40
0
 40
1
 40
1
 40
1
 40
1
 10
3.848559
 20
70.930753
 30
0.0
 10
4.622797
 20
70.483056
 30
0.0
 10
5.577216
 20
70.483056
 30
0.0
 10
6.351453
 20
70.930753
 30
0.0
  0
SPLINE
  5
2a3
100
AcDbEntity
  8
Layer_1
 62
5
100
AcDbSpline
 70
8
 71
3
 72
8
 73
4
 74
0
 40
0
 40
0
 40
0
 40
0
 40
1
 40
1
 40
1
 40
1
 10
6.351453
 20
70.930753
 30
0.0
 10
7.125691
 20
71.378449
 30
0.0
 10
7.601795
 20
72.205637
 30
0.0
 10
7.600001
 20
73.099994
 30
0.0
  0
LWPOLYLINE
  5
2a4
100
AcDbEntity
  8
Layer_1
 62
5
100
AcDbPolyline
 90
1
 70
1
 10
123.600006
 20
73.099994
 30
0.0
  0
SPLINE
  5
2a5
100
AcDbEntity
  8
Layer_1
 62
5
100
AcDbSpline
 70
8
 71
3
 72
8
 73
4
 74
0
 40
0
 40
0
 40
0
 40
0
 40
1
 40
1
 40
1
 40
1
 10
123.600006
 20
5.099988
 30
0.0
 10
123.600006
 20
5.993152
 30
0.0
 10
123.123509
 20
6.818469
 30
0.0
 10
122.350006
 20
7.265051
 30
0.0
  0
SPLINE
  5
2a6
100
AcDbEntity
  8
Layer_1
 62
5
100
AcDbSpline
 70
8
 71
3
 72
8
 73
4
 74
0
 40
0
 40
0
 40
0
 40
0
 40
1
 40
1
 40
1
 40
1
 10
122.350006
 20
7.265051
 30
0.0
 10
121.576503
 20
7.711633
 30
0.0
 10
120.623508
 20
7.711633
 30
0.0
 10
119.850006
 20
7.265051
 30
0.0
  0
SPLINE
  5
2a7
100
AcDbEntity
  8
Layer_1
 62
5
100
AcDbSpline
 70
8
 71
3
 72
8
 73
4
 74
0
 40
0
 40
0
 40
0
 40
0
 40
1
 40
1
 40
1
 40
1
 10
119.850006
 20
7.265051
 30
0.0
 10
119.076503
 20
6.818469
 30
0.0
 10
118.600005
 20
5.993152
 30
0.0
 10
118.600005
 20
5.099988
 30
0.0
  0
SPLINE
  5
2a8
100
AcDbEntity
  8
Layer_1
 62
5
100
AcDbSpline
 70
8
 71
3
 72
8
 73
4
 74
0
 40
0
 40
0
 40
0
 40
0
 40
1
 40
1
 40
1
 40
1
 10
118.600005
 20
5.099988
 30
0.0
 10
118.600005
 20
4.206823
 30
0.0
 10
119.076503
 20
3.381506
 30
0.0
 10
119.850006
 20
2.934924
 30
0.0
  0
SPLINE
  5
2a9
100
AcDbEntity
  8
Layer_1
 62
5
100
AcDbSpline
 70
8
 71
3
 72
8
 73
4
 74
0
 40
0
 40
0
 40
0
 40
0
 40
1
 40
1
 40
1
 40
1
 10
119.850006
 20
2.934924
 30
0.0
 10
120.623508
 20
2.488342
 30
0.0
 10
121.576503
 20
2.488342
 30
0.0
 10
122.350006
 20
2.934924
 30
0.0
  0
SPLINE
  5
2aa
100
AcDbEntity
  8
Layer_1
 62
5
100
AcDbSpline
 70
8
 71
3
 72
8
 73
4
 74
0
 40
0
 40
0
 40
0
 40
0
 40
1
 40
1
 40
1
 40
1
 10
122.350006
 20
2.934924
 30
0.0
 10
123.123509
 20
3.381506
 30
0.0
 10
123.600006
 20
4.206823
 30
0.0
 10
123.600006
 20
5.099988
 30
0.0
  0
LWPOLYLINE
  5
2ab
100
AcDbEntity
  8
Layer_1
 62
5
100
AcDbPolyline
 90
1
 70
1
 10
7.600001
 20
73.099994
 30
0.0
  0
LWPOLYLINE
  5
2ac
100
AcDbEntity
  8
Layer_1
 62
5
100
AcDbPolyline
 90
1
 70
1
 10
123.600006
 20
5.099988
 30
0.0
  0
ENDSEC
  0
SECTION
  2
OBJECTS
  0
DICTIONARY
  5
C
330
0
100
AcDbDictionary
  3
ACAD_GROUP
350
D
  3
ACAD_MLINESTYLE
350
17
  0
DICTIONARY
  5
D
330
C
100
AcDbDictionary
  0
DICTIONARY
  5
1A
330
C
100
AcDbDictionary
  0
DICTIONARY
  5
17
330
C
100
AcDbDictionary
  3
STANDARD
350
18
  0
DICTIONARY
  5
19
330
C
100
AcDbDictionary
  0
ENDSEC
  0
EOF
