0
SECTION
2
HEADER
9
$INSUNITS
70
4
9
$ACADVER
1
AC1014
9
$HANDSEED
5
FFFF
0
ENDSEC
0
SECTION
2
TABLES
0
TABLE
2
VPORT
5
8
100
AcDbSymbolTable
0
ENDTAB
0
TABLE
2
LTYPE
5
5
100
AcDbSymbolTable
0
LTYPE
5
14
100
AcDbSymbolTableRecord
100
AcDbLinetypeTableRecord
2
BYBLOCK
70
0
0
LTYPE
5
15
100
AcDbSymbolTableRecord
100
AcDbLinetypeTableRecord
2
BYLAYER
70
0
0
ENDTAB
0
TABLE
2
LAYER
5
2
100
AcDbSymbolTable
70
2
0
LAYER
5
50
100
AcDbSymbolTableRecord
100
AcDbLayerTableRecord
2
0
70
0
6
CONTINUOUS
0
ENDTAB
0
TABLE
2
STYLE
5
3
100
AcDbSymbolTable
70
1
0
STYLE
5
11
100
AcDbSymbolTableRecord
100
AcDbTextStyleTableRecord
2
STANDARD
70
0
0
ENDTAB
0
TABLE
2
VIEW
5
6
100
AcDbSymbolTable
70
0
0
ENDTAB
0
TABLE
2
UCS
5
7
100
AcDbSymbolTable
70
0
0
ENDTAB
0
TABLE
2
APPID
5
9
100
AcDbSymbolTable
70
2
0
APPID
5
12
100
AcDbSymbolTableRecord
100
AcDbRegAppTableRecord
2
ACAD
70
0
0
ENDTAB
0
TABLE
2
DIMSTYLE
5
A
100
AcDbSymbolTable
70
1
0
ENDTAB
0
TABLE
2
BLOCK_RECORD
5
1
100
AcDbSymbolTable
70
1
0
BLOCK_RECORD
5
1F
100
AcDbSymbolTableRecord
100
AcDbBlockTableRecord
2
*MODEL_SPACE
0
BLOCK_RECORD
5
1B
100
AcDbSymbolTableRecord
100
AcDbBlockTableRecord
2
*PAPER_SPACE
0
ENDTAB
0
ENDSEC
0
SECTION
2
BLOCKS
0
BLOCK
5
20
100
AcDbEntity
100
AcDbBlockBegin
2
*MODEL_SPACE
0
ENDBLK
5
21
100
AcDbEntity
100
AcDbBlockEnd
0
BLOCK
5
1C
100
AcDbEntity
100
AcDbBlockBegin
2
*PAPER_SPACE
0
ENDBLK
5
1D
100
AcDbEntity
100
AcDbBlockEnd
0
ENDSEC
0
SECTION
2
ENTITIES
0
CIRCLE
5
100
100
AcDbEntity
8
0
100
AcDbCircle
10
307.30000000000007
20
356.19999999999999
30
0
40
1.4999999999999858
210
0
220
-0
230
1
0
CIRCLE
5
101
100
AcDbEntity
8
0
100
AcDbCircle
10
142.70000000000019
20
379.79999999999995
30
0
40
1.5000000000000036
210
0
220
-0
230
1
0
CIRCLE
5
102
100
AcDbEntity
8
0
100
AcDbCircle
10
307.30000000000007
20
379.79999999999995
30
0
40
1.4999999999999858
210
0
220
-0
230
1
0
CIRCLE
5
103
100
AcDbEntity
8
0
100
AcDbCircle
10
142.70000000000019
20
356.19999999999999
30
0
40
1.5000000000000036
210
0
220
-0
230
1
0
CIRCLE
5
104
100
AcDbEntity
8
0
100
AcDbCircle
10
297.00000000000011
20
333.99999999999989
30
0
40
1.0000000000000142
210
0
220
0
230
1
0
CIRCLE
5
105
100
AcDbEntity
8
0
100
AcDbCircle
10
225.00000000000014
20
333.99999999999989
30
0
40
1.5000000000000142
210
0
220
0
230
1
0
CIRCLE
5
106
100
AcDbEntity
8
0
100
AcDbCircle
10
153.00000000000017
20
401.99999999999989
30
0
40
0.99999999999999645
210
0
220
0
230
1
0
CIRCLE
5
107
100
AcDbEntity
8
0
100
AcDbCircle
10
153.00000000000017
20
333.99999999999989
30
0
40
0.99999999999999645
210
0
220
0
230
1
0
CIRCLE
5
108
100
AcDbEntity
8
0
100
AcDbCircle
10
225.00000000000014
20
401.99999999999989
30
0
40
1.5000000000000142
210
0
220
0
230
1
0
CIRCLE
5
109
100
AcDbEntity
8
0
100
AcDbCircle
10
297.00000000000011
20
401.99999999999989
30
0
40
1.0000000000000142
210
0
220
0
230
1
0
CIRCLE
5
110
100
AcDbEntity
8
0
100
AcDbCircle
10
142.00000000000017
20
333.99999999999989
30
0
40
1.5000000000000036
210
0
220
0
230
1
0
CIRCLE
5
111
100
AcDbEntity
8
0
100
AcDbCircle
10
308.00000000000011
20
333.99999999999989
30
0
40
1.4999999999999858
210
0
220
0
230
1
0
CIRCLE
5
112
100
AcDbEntity
8
0
100
AcDbCircle
10
142.00000000000017
20
401.99999999999989
30
0
40
1.5000000000000036
210
0
220
0
230
1
0
CIRCLE
5
113
100
AcDbEntity
8
0
100
AcDbCircle
10
308.00000000000011
20
401.99999999999989
30
0
40
1.4999999999999858
210
0
220
0
230
1
0
LWPOLYLINE
5
114
100
AcDbEntity
8
0
100
AcDbPolyline
90
8
70
1
43
0.0
10
143.00000000000017
20
328.99999999999983
42
-0.41421356237309853
10
137.00000000000017
20
334.99999999999994
10
137.0000000000002
20
400.99999999999994
42
-0.41421356237308898
10
143.00000000000014
20
406.99999999999989
10
307.00000000000011
20
406.99999999999989
42
-0.41421356237308815
10
313.00000000000011
20
400.99999999999994
10
313.00000000000017
20
335
42
-0.41421356237309681
10
307.00000000000017
20
328.99999999999989
0
LWPOLYLINE
5
115
100
AcDbEntity
8
0
100
AcDbPolyline
90
10
70
1
43
0.0
10
191.14999999999986
20
369.54076473442882
10
191.14999999999992
20
365.10000000000002
42
0.99999999999999989
10
193.14999999999995
20
365.10000000000002
10
193.14999999999992
20
370.90000000000003
42
0.46355765119481285
10
191.98526625843709
20
371.88633807307167
10
195.58569908221753
20
392.30540728933227
42
0.15458156081626842
10
195.26728261042933
20
394.69991236981116
10
188.3095390617882
20
389.04813843759001
10
185.42780566578077
20
372.70501621982805
10
189.12156993116491
20
368.49999999999994
42
0.19739002005078302
0
LWPOLYLINE
5
116
100
AcDbEntity
8
0
100
AcDbPolyline
90
10
70
1
43
0.0
10
158.84999999999991
20
366.45923526557084
10
158.84999999999991
20
370.90000000000003
42
0.99999999999999989
10
156.84999999999988
20
370.90000000000003
10
156.84999999999991
20
365.10000000000002
42
0.46355765119489095
10
158.01473374156296
20
364.11366192692844
10
154.41430091778255
20
343.69459271066773
42
0.15458156081627705
10
154.73271738957072
20
341.30008763018878
10
161.69046093821194
20
346.95186156240999
10
164.57219433421932
20
363.29498378017195
10
160.87843006883514
20
367.5
42
0.19739002005082926
0
LWPOLYLINE
5
117
100
AcDbEntity
8
0
100
AcDbPolyline
90
10
70
1
43
0.0
10
241.14999999999986
20
369.54076473442888
10
241.14999999999992
20
365.10000000000002
42
0.99999999999999989
10
243.14999999999995
20
365.10000000000002
10
243.14999999999992
20
370.90000000000003
42
0.46355765119484482
10
241.98526625843698
20
371.88633807307167
10
245.58569908221739
20
392.30540728933221
42
0.15458156081626026
10
245.26728261042919
20
394.6999123698111
10
238.30953906178806
20
389.04813843758996
10
235.42780566578062
20
372.70501621982794
10
239.12156993116474
20
368.49999999999989
42
0.19739002005082129
0
LWPOLYLINE
5
118
100
AcDbEntity
8
0
100
AcDbPolyline
90
10
70
1
43
0.0
10
208.84999999999991
20
366.4592352655709
10
208.84999999999991
20
370.90000000000003
42
0.99999999999999989
10
206.84999999999988
20
370.90000000000003
10
206.84999999999991
20
365.10000000000002
42
0.46355765119482351
10
208.01473374156279
20
364.11366192692839
10
204.41430091778241
20
343.69459271066768
42
0.15458156081625632
10
204.73271738957061
20
341.30008763018873
10
211.6904609382118
20
346.95186156240993
10
214.5721943342192
20
363.29498378017183
10
210.87843006883503
20
367.49999999999994
42
0.19739002005083703
0
LWPOLYLINE
5
119
100
AcDbEntity
8
0
100
AcDbPolyline
90
10
70
1
43
0.0
10
291.14999999999986
20
369.54076473442882
10
291.14999999999992
20
365.10000000000002
42
0.99999999999999989
10
293.14999999999992
20
365.10000000000002
10
293.14999999999992
20
370.90000000000003
42
0.46355765119481285
10
291.98526625843709
20
371.88633807307167
10
295.58569908221745
20
392.30540728933221
42
0.15458156081626026
10
295.26728261042928
20
394.6999123698111
10
288.30953906178814
20
389.04813843758996
10
285.42780566578068
20
372.70501621982794
10
289.1215699311648
20
368.49999999999989
42
0.19739002005080108
0
LWPOLYLINE
5
120
100
AcDbEntity
8
0
100
AcDbPolyline
90
10
70
1
43
0.0
10
258.84999999999991
20
366.45923526557084
10
258.84999999999991
20
370.90000000000003
42
0.99999999999999989
10
256.84999999999991
20
370.90000000000003
10
256.84999999999991
20
365.10000000000002
42
0.46355765119486581
10
258.01473374156296
20
364.11366192692844
10
254.41430091778247
20
343.69459271066768
42
0.15458156081625632
10
254.73271738957067
20
341.30008763018873
10
261.69046093821186
20
346.95186156240993
10
264.57219433421926
20
363.29498378017183
10
260.87843006883509
20
367.49999999999994
42
0.19739002005086653
0
LWPOLYLINE
5
121
100
AcDbEntity
8
0
100
AcDbPolyline
90
6
70
1
43
0.0
10
285.10654450828144
20
340.48768981581691
10
280.08874525898676
20
346.19999999999993
10
262.35091008431755
20
346.19999999999993
10
255.27193656916339
20
340.44975098605835
42
0.22347937751591979
10
258.35353192983132
20
338.99999999999989
10
281.15191977239073
20
338.99999999999989
42
0.18187316544874321
0
LWPOLYLINE
5
122
100
AcDbEntity
8
0
100
AcDbPolyline
90
6
70
1
43
0.0
10
264.89345549171838
20
395.51231018418292
10
269.91125474101312
20
389.7999999999999
10
287.64908991568245
20
389.7999999999999
10
294.72806343083653
20
395.55024901394148
42
0.2234793775159285
10
291.64646807016862
20
396.99999999999989
10
268.84808022760916
20
396.99999999999994
42
0.18187316544872276
0
LWPOLYLINE
5
123
100
AcDbEntity
8
0
100
AcDbPolyline
90
6
70
1
43
0.0
10
287.06076629046402
20
343.95811093399834
10
290.80053246557884
20
365.16737885254804
42
0.42991751857593291
10
289.07275465264985
20
367.49999999999994
10
283.74724630108341
20
363.17409044803208
10
280.865512905076
20
346.83096823027006
10
285.80322339451902
20
341.20983184874638
42
0.12799325713695694
0
CIRCLE
5
124
100
AcDbEntity
8
0
100
AcDbCircle
10
293.64999999999998
20
346.19999999999993
30
0
40
3.3000000000000007
210
0
220
-0
230
1
0
CIRCLE
5
125
100
AcDbEntity
8
0
100
AcDbCircle
10
256.24999999999994
20
381.99999999999989
30
0
40
1.499999999999998
210
0
220
-0
230
1
0
CIRCLE
5
126
100
AcDbEntity
8
0
100
AcDbCircle
10
274.99999999999994
20
381.99999999999989
30
0
40
1.4999999999999991
210
0
220
-0
230
1
0
CIRCLE
5
127
100
AcDbEntity
8
0
100
AcDbCircle
10
274.99999999999994
20
353.99999999999989
30
0
40
1.4999999999999991
210
0
220
-0
230
1
0
CIRCLE
5
128
100
AcDbEntity
8
0
100
AcDbCircle
10
256.34999999999997
20
389.7999999999999
30
0
40
3.2999999999999998
210
0
220
-0
230
1
0
CIRCLE
5
129
100
AcDbEntity
8
0
100
AcDbCircle
10
293.74999999999994
20
353.99999999999989
30
0
40
1.4999999999999947
210
0
220
-0
230
1
0
LWPOLYLINE
5
130
100
AcDbEntity
8
0
100
AcDbPolyline
90
6
70
1
43
0.0
10
264.93254943101812
20
364.39999999999992
10
283.67038460568745
20
364.39999999999992
10
288.1766598887088
20
368.06044666606977
10
285.06745056898183
20
371.59999999999991
10
266.3296153943125
20
371.59999999999991
10
261.82334011129115
20
367.93955333393001
0
LWPOLYLINE
5
131
100
AcDbEntity
8
0
100
AcDbPolyline
90
6
70
1
43
0.0
10
260.92724534735009
20
368.49999999999989
42
-0.42991751857594335
10
259.1994675344211
20
370.83262114745173
10
262.93923370953576
20
392.04188906600154
42
-0.12799325713694115
10
264.19677660548081
20
394.7901681512534
10
269.13448709492388
20
389.16903176972971
10
266.25275369891648
20
372.82590955196775
0
LWPOLYLINE
5
132
100
AcDbEntity
8
0
100
AcDbPolyline
90
6
70
1
43
0.0
10
235.10654450828139
20
340.48768981581691
10
230.08874525898671
20
346.19999999999993
10
212.35091008431743
20
346.19999999999993
10
205.2719365691633
20
340.44975098605835
42
0.22347937751591979
10
208.35353192983123
20
338.99999999999989
10
231.15191977239067
20
338.99999999999989
42
0.18187316544874321
0
LWPOLYLINE
5
133
100
AcDbEntity
8
0
100
AcDbPolyline
90
6
70
1
43
0.0
10
214.89345549171833
20
395.51231018418292
10
219.91125474101307
20
389.7999999999999
10
237.64908991568237
20
389.7999999999999
10
244.72806343083647
20
395.55024901394148
42
0.2234793775159285
10
241.64646807016854
20
396.99999999999989
10
218.84808022760907
20
396.99999999999994
42
0.18187316544872276
0
LWPOLYLINE
5
134
100
AcDbEntity
8
0
100
AcDbPolyline
90
6
70
1
43
0.0
10
237.06076629046393
20
343.95811093399834
10
240.80053246557873
20
365.16737885254804
42
0.42991751857593291
10
239.07275465264976
20
367.49999999999994
10
233.74724630108335
20
363.17409044803208
10
230.86551290507595
20
346.83096823027006
10
235.80322339451897
20
341.20983184874638
42
0.12799325713695694
0
CIRCLE
5
135
100
AcDbEntity
8
0
100
AcDbCircle
10
243.64999999999986
20
346.19999999999993
30
0
40
3.3000000000000007
210
0
220
-0
230
1
0
CIRCLE
5
136
100
AcDbEntity
8
0
100
AcDbCircle
10
206.24999999999989
20
381.99999999999989
30
0
40
1.499999999999998
210
0
220
-0
230
1
0
CIRCLE
5
137
100
AcDbEntity
8
0
100
AcDbCircle
10
224.99999999999989
20
381.99999999999989
30
0
40
1.4999999999999991
210
0
220
-0
230
1
0
CIRCLE
5
138
100
AcDbEntity
8
0
100
AcDbCircle
10
224.99999999999989
20
353.99999999999989
30
0
40
1.4999999999999991
210
0
220
-0
230
1
0
CIRCLE
5
139
100
AcDbEntity
8
0
100
AcDbCircle
10
206.34999999999991
20
389.7999999999999
30
0
40
3.2999999999999998
210
0
220
-0
230
1
0
CIRCLE
5
140
100
AcDbEntity
8
0
100
AcDbCircle
10
243.74999999999989
20
353.99999999999989
30
0
40
1.4999999999999947
210
0
220
-0
230
1
0
LWPOLYLINE
5
141
100
AcDbEntity
8
0
100
AcDbPolyline
90
6
70
1
43
0.0
10
214.93254943101803
20
364.39999999999992
10
233.67038460568736
20
364.39999999999992
10
238.17665988870871
20
368.06044666606977
10
235.06745056898177
20
371.59999999999991
10
216.32961539431244
20
371.59999999999991
10
211.82334011129109
20
367.93955333393001
0
LWPOLYLINE
5
142
100
AcDbEntity
8
0
100
AcDbPolyline
90
6
70
1
43
0.0
10
210.92724534735004
20
368.49999999999989
42
-0.42991751857594335
10
209.19946753442102
20
370.83262114745173
10
212.9392337095357
20
392.04188906600154
42
-0.12799325713694115
10
214.19677660548075
20
394.7901681512534
10
219.13448709492383
20
389.16903176972971
10
216.25275369891642
20
372.82590955196775
0
LWPOLYLINE
5
143
100
AcDbEntity
8
0
100
AcDbPolyline
90
6
70
1
43
0.0
10
185.10654450828153
20
340.48768981581696
10
180.08874525898682
20
346.19999999999999
10
162.3509100843176
20
346.19999999999999
10
155.27193656916347
20
340.4497509860584
42
0.22347937751593533
10
158.35353192983138
20
339
10
181.15191977239081
20
339
42
0.18187316544874321
0
LWPOLYLINE
5
144
100
AcDbEntity
8
0
100
AcDbPolyline
90
6
70
1
43
0.0
10
164.89345549171847
20
395.51231018418298
10
169.91125474101321
20
389.79999999999995
10
187.64908991568251
20
389.79999999999995
10
194.72806343083661
20
395.55024901394154
42
0.2234793775159335
10
191.64646807016868
20
396.99999999999994
10
168.84808022760922
20
397
42
0.18187316544872068
0
LWPOLYLINE
5
145
100
AcDbEntity
8
0
100
AcDbPolyline
90
6
70
1
43
0.0
10
187.06076629046407
20
343.95811093399846
10
190.8005324655789
20
365.16737885254815
42
0.42991751857590538
10
189.07275465264991
20
367.5
10
183.74724630108349
20
363.17409044803213
10
180.86551290507606
20
346.83096823027017
10
185.80322339451911
20
341.20983184874649
42
0.12799325713695694
0
CIRCLE
5
146
100
AcDbEntity
8
0
100
AcDbCircle
10
193.65000000000003
20
346.19999999999999
30
0
40
3.3000000000000007
210
0
220
-0
230
1
0
CIRCLE
5
147
100
AcDbEntity
8
0
100
AcDbCircle
10
156.25000000000003
20
381.99999999999994
30
0
40
1.499999999999998
210
0
220
-0
230
1
0
CIRCLE
5
148
100
AcDbEntity
8
0
100
AcDbCircle
10
175.00000000000003
20
381.99999999999994
30
0
40
1.4999999999999991
210
0
220
-0
230
1
0
CIRCLE
5
149
100
AcDbEntity
8
0
100
AcDbCircle
10
175.00000000000003
20
354
30
0
40
1.4999999999999991
210
0
220
-0
230
1
0
CIRCLE
5
150
100
AcDbEntity
8
0
100
AcDbCircle
10
156.35000000000002
20
389.79999999999995
30
0
40
3.2999999999999998
210
0
220
-0
230
1
0
CIRCLE
5
151
100
AcDbEntity
8
0
100
AcDbCircle
10
193.75000000000003
20
354
30
0
40
1.4999999999999947
210
0
220
-0
230
1
0
LWPOLYLINE
5
152
100
AcDbEntity
8
0
100
AcDbPolyline
90
6
70
1
43
0.0
10
164.93254943101817
20
364.39999999999998
10
183.6703846056875
20
364.39999999999998
10
188.17665988870885
20
368.06044666606988
10
185.06745056898188
20
371.59999999999997
10
166.32961539431255
20
371.59999999999997
10
161.8233401112912
20
367.93955333393006
0
LWPOLYLINE
5
153
100
AcDbEntity
8
0
100
AcDbPolyline
90
6
70
1
43
0.0
10
160.92724534735021
20
368.49999999999994
42
-0.42991751857592808
10
159.19946753442116
20
370.83262114745185
10
162.93923370953581
20
392.0418890660016
42
-0.12799325713694049
10
164.19677660548089
20
394.79016815125351
10
169.13448709492397
20
389.16903176972983
10
166.25275369891656
20
372.82590955196781
0
ENDSEC
0
SECTION
2
OBJECTS
0
DICTIONARY
5
C
100
AcDbDictionary
3
ACAD_GROUP
350
D
3
ACAD_MLINESTYLE
350
17
0
DICTIONARY
5
D
100
AcDbDictionary
0
DICTIONARY
5
1A
330
C
100
AcDbDictionary
0
DICTIONARY
5
17
100
AcDbDictionary
0
ENDSEC
0
EOF
