<?xml version="1.0" encoding="UTF-8" standalone="no"?>
<svg
   xmlns:dc="http://purl.org/dc/elements/1.1/"
   xmlns:cc="http://creativecommons.org/ns#"
   xmlns:rdf="http://www.w3.org/1999/02/22-rdf-syntax-ns#"
   xmlns:svg="http://www.w3.org/2000/svg"
   xmlns="http://www.w3.org/2000/svg"
   xmlns:sodipodi="http://sodipodi.sourceforge.net/DTD/sodipodi-0.dtd"
   xmlns:inkscape="http://www.inkscape.org/namespaces/inkscape"
   sodipodi:docname="4digitos_226x202.svg"
   inkscape:version="1.0 (4035a4fb49, 2020-05-01)"
   id="svg8"
   version="1.1"
   viewBox="0 0 226.26459 202.66458"
   height="202.66458mm"
   width="226.26459mm">
  <defs
     id="defs2">
    <marker
       id="DistanceX"
       orient="auto"
       refX="0"
       refY="0"
       style="overflow:visible">
      <path
         d="M 3,-3 -3,3 M 0,-5 V 5"
         style="stroke:#000000;stroke-width:0.5"
         id="path833" />
    </marker>
    <pattern
       id="Hatch"
       patternUnits="userSpaceOnUse"
       width="8"
       height="8"
       x="0"
       y="0">
      <path
         d="M8 4 l-4,4"
         stroke="#000000"
         stroke-width="0.25"
         linecap="square"
         id="path836" />
      <path
         d="M6 2 l-4,4"
         stroke="#000000"
         stroke-width="0.25"
         linecap="square"
         id="path838" />
      <path
         d="M4 0 l-4,4"
         stroke="#000000"
         stroke-width="0.25"
         linecap="square"
         id="path840" />
    </pattern>
    <symbol
       id="*MODEL_SPACE" />
    <symbol
       id="*PAPER_SPACE" />
    <marker
       id="DistanceX-4"
       orient="auto"
       refX="0"
       refY="0"
       style="overflow:visible">
      <path
         d="M 3,-3 -3,3 M 0,-5 V 5"
         style="stroke:#000000;stroke-width:0.5"
         id="path1073" />
    </marker>
    <pattern
       id="Hatch-1"
       patternUnits="userSpaceOnUse"
       width="8"
       height="8"
       x="0"
       y="0">
      <path
         d="M8 4 l-4,4"
         stroke="#000000"
         stroke-width="0.25"
         linecap="square"
         id="path1076" />
      <path
         d="M6 2 l-4,4"
         stroke="#000000"
         stroke-width="0.25"
         linecap="square"
         id="path1078" />
      <path
         d="M4 0 l-4,4"
         stroke="#000000"
         stroke-width="0.25"
         linecap="square"
         id="path1080" />
    </pattern>
    <symbol
       id="*MODEL_SPACE-2" />
    <symbol
       id="*PAPER_SPACE-4" />
    <marker
       id="DistanceX-45"
       orient="auto"
       refX="0"
       refY="0"
       style="overflow:visible">
      <path
         d="M 3,-3 -3,3 M 0,-5 V 5"
         style="stroke:#000000;stroke-width:0.5"
         id="path1182" />
    </marker>
    <pattern
       id="Hatch-8"
       patternUnits="userSpaceOnUse"
       width="8"
       height="8"
       x="0"
       y="0">
      <path
         d="M8 4 l-4,4"
         stroke="#000000"
         stroke-width="0.25"
         linecap="square"
         id="path1185" />
      <path
         d="M6 2 l-4,4"
         stroke="#000000"
         stroke-width="0.25"
         linecap="square"
         id="path1187" />
      <path
         d="M4 0 l-4,4"
         stroke="#000000"
         stroke-width="0.25"
         linecap="square"
         id="path1189" />
    </pattern>
    <symbol
       id="*MODEL_SPACE-6" />
    <symbol
       id="*PAPER_SPACE-42" />
  </defs>
  <sodipodi:namedview
     inkscape:window-maximized="1"
     inkscape:window-y="-8"
     inkscape:window-x="-8"
     inkscape:window-height="1057"
     inkscape:window-width="1920"
     fit-margin-bottom="0"
     fit-margin-right="0"
     fit-margin-left="0"
     fit-margin-top="0"
     inkscape:snap-smooth-nodes="true"
     showgrid="false"
     inkscape:document-rotation="0"
     inkscape:current-layer="layer1"
     inkscape:document-units="mm"
     inkscape:cy="494.63285"
     inkscape:cx="434.89099"
     inkscape:zoom="0.49497475"
     inkscape:pageshadow="2"
     inkscape:pageopacity="0.0"
     borderopacity="1.0"
     bordercolor="#666666"
     pagecolor="#ffffff"
     id="base" />
  <metadata
     id="metadata5">
    <rdf:RDF>
      <cc:Work
         rdf:about="">
        <dc:format>image/svg+xml</dc:format>
        <dc:type
           rdf:resource="http://purl.org/dc/dcmitype/StillImage" />
        <dc:title></dc:title>
      </cc:Work>
    </rdf:RDF>
  </metadata>
  <g
     transform="translate(14.102522,-46.290328)"
     id="layer1"
     inkscape:groupmode="layer"
     inkscape:label="Capa 1">
    <g
       transform="matrix(0.26458333,0,0,0.26458333,-125.97023,-59.577379)"
       inkscape:label="0"
       id="g981">
      <path
         d="m 1261.6063,592.62992 a 5.6693,5.6693 0 1 0 -11.3386,0 5.6693,5.6693 0 1 0 11.3386,0 z"
         style="fill:none;stroke:#000000"
         id="path847" />
      <path
         d="m 450.51968,503.43307 a 5.6692915,5.6692915 0 1 0 -11.33858,0 5.6692915,5.6692915 0 1 0 11.33858,0 z"
         style="fill:none;stroke:#000000"
         id="path849" />
      <path
         d="m 1261.6063,503.43307 a 5.6693,5.6693 0 1 0 -11.3386,0 5.6693,5.6693 0 1 0 11.3386,0 z"
         style="fill:none;stroke:#000000"
         id="path851" />
      <path
         d="m 450.51968,592.62992 a 5.6692915,5.6692915 0 1 0 -11.33858,0 5.6692915,5.6692915 0 1 0 11.33858,0 z"
         style="fill:none;stroke:#000000"
         id="path853" />
      <path
         d="m 1264.252,676.53543 a 5.6693,5.6693 0 1 0 -11.3386,0 5.6693,5.6693 0 1 0 11.3386,0 z"
         style="fill:none;stroke:#000000"
         id="path855" />
      <path
         d="m 447.87402,676.53543 a 5.669295,5.669295 0 1 0 -11.33859,0 5.669295,5.669295 0 1 0 11.33859,0 z"
         style="fill:none;stroke:#000000"
         id="path857" />
      <path
         d="m 447.87402,419.52756 a 5.669295,5.669295 0 1 0 -11.33859,0 5.669295,5.669295 0 1 0 11.33859,0 z"
         style="fill:none;stroke:#000000"
         id="path859" />
      <path
         d="m 506.45669,676.53543 a 3.779528,3.779528 0 1 0 -7.55905,0 3.779528,3.779528 0 1 0 7.55905,0 z"
         style="fill:none;stroke:#000000"
         id="path861" />
      <path
         d="m 1201.8898,419.52756 a 3.77955,3.77955 0 1 0 -7.5591,0 3.77955,3.77955 0 1 0 7.5591,0 z"
         style="fill:none;stroke:#000000"
         id="path863" />
      <path
         d="m 1201.8898,676.53543 a 3.77955,3.77955 0 1 0 -7.5591,0 3.77955,3.77955 0 1 0 7.5591,0 z"
         style="fill:none;stroke:#000000"
         id="path865" />
      <path
         d="m 856.06299,419.52756 a 5.6692915,5.6692915 0 1 0 -11.33858,0 5.6692915,5.6692915 0 1 0 11.33858,0 z"
         style="fill:none;stroke:#000000"
         id="path867" />
      <path
         d="m 506.45669,419.52756 a 3.779528,3.779528 0 1 0 -7.55905,0 3.779528,3.779528 0 1 0 7.55905,0 z"
         style="fill:none;stroke:#000000"
         id="path869" />
      <path
         d="m 856.06299,676.53543 a 5.6692915,5.6692915 0 1 0 -11.33858,0 5.6692915,5.6692915 0 1 0 11.33858,0 z"
         style="fill:none;stroke:#000000"
         id="path871" />
      <path
         d="m 1264.252,419.52756 a 5.6693,5.6693 0 1 0 -11.3386,0 5.6693,5.6693 0 1 0 11.3386,0 z"
         style="fill:none;stroke:#000000"
         id="path873" />
      <path
         d="M 445.98425,695.43307 A 22.677165,22.677165 0 0 1 423.30709,672.75591 V 423.30709 a 22.677165,22.677165 0 0 1 22.67716,-22.67717 h 808.81895 a 22.677165,22.677165 0 0 1 22.6771,22.67717 v 249.44882 a 22.677165,22.677165 0 0 1 -22.6771,22.67716 z"
         style="fill:none;stroke:#000000"
         id="path875" />
      <path
         d="m 627.9685,542.20813 v 16.784 a 3.77953,3.77953 0 0 0 7.55906,0 v -21.92126 a 3.779528,3.779528 0 0 0 -4.40214,-3.7279 l 13.60793,-77.17443 a 15.11811,15.11811 0 0 0 -1.20346,-9.0501 l -26.29699,21.36104 -10.89159,61.76928 13.96069,15.89297 a 11.338583,11.338583 0 0 0 7.6665,-3.9336 z"
         style="fill:none;stroke:#000000"
         id="path877" />
      <path
         d="m 505.88976,553.85486 v -16.78399 a 3.779528,3.779528 0 0 0 -7.55905,0 v 21.92126 a 3.779528,3.779528 0 0 0 4.40214,3.72789 l -13.60793,77.17443 a 15.11811,15.11811 0 0 0 1.20346,9.0501 l 26.29698,-21.36103 10.8916,-61.76928 -13.96069,-15.89298 a 11.338583,11.338583 0 0 0 -7.66651,3.9336 z"
         style="fill:none;stroke:#000000"
         id="path879" />
      <path
         d="m 816.94488,542.20813 v 16.784 a 3.77953,3.77953 0 0 0 7.55906,0 v -21.92126 a 3.779528,3.779528 0 0 0 -4.40215,-3.7279 l 13.60794,-77.17443 a 15.11811,15.11811 0 0 0 -1.20347,-9.0501 l -26.29698,21.36104 -10.89159,61.76928 13.96068,15.89297 a 11.338583,11.338583 0 0 0 7.66651,-3.9336 z"
         style="fill:none;stroke:#000000"
         id="path881" />
      <path
         d="m 694.86614,553.85486 v -16.78399 a 3.779528,3.779528 0 0 0 -7.55905,0 v 21.92126 a 3.779528,3.779528 0 0 0 4.40214,3.72789 l -13.60793,77.17443 a 15.11811,15.11811 0 0 0 1.20346,9.0501 l 26.29698,-21.36103 10.89159,-61.76928 -13.96068,-15.89298 a 11.338583,11.338583 0 0 0 -7.66651,3.9336 z"
         style="fill:none;stroke:#000000"
         id="path883" />
      <path
         d="m 1005.9213,542.20813 v 16.784 a 3.779528,3.779528 0 0 0 7.559,0 v -21.92126 a 3.779528,3.779528 0 0 0 -4.4021,-3.7279 l 13.6079,-77.17443 a 15.11811,15.11811 0 0 0 -1.2035,-9.0501 l -26.29694,21.36104 -10.89159,61.76928 13.96068,15.89297 a 11.338583,11.338583 0 0 0 7.66655,-3.9336 z"
         style="fill:none;stroke:#000000"
         id="path885" />
      <path
         d="m 883.84252,553.85486 v -16.78399 a 3.77953,3.77953 0 0 0 -7.55906,0 v 21.92126 a 3.779528,3.779528 0 0 0 4.40215,3.72789 l -13.60794,77.17443 a 15.11811,15.11811 0 0 0 1.20347,9.0501 l 26.29698,-21.36103 10.89159,-61.76928 -13.96068,-15.89298 a 11.338583,11.338583 0 0 0 -7.66651,3.9336 z"
         style="fill:none;stroke:#000000"
         id="path887" />
      <path
         d="m 1194.8976,542.20813 v 16.784 a 3.77955,3.77955 0 0 0 7.5591,0 v -21.92126 a 3.779528,3.779528 0 0 0 -4.4021,-3.7279 l 13.6079,-77.17443 a 15.11811,15.11811 0 0 0 -1.2035,-9.0501 l -26.297,21.36104 -10.8916,61.76928 13.9607,15.89297 a 11.338583,11.338583 0 0 0 7.6665,-3.9336 z"
         style="fill:none;stroke:#000000"
         id="path889" />
      <path
         d="m 1072.8189,553.85486 v -16.78399 a 3.77955,3.77955 0 0 0 -7.5591,0 v 21.92126 a 3.779528,3.779528 0 0 0 4.4022,3.72789 l -13.6079,77.17443 a 15.11811,15.11811 0 0 0 1.2034,9.0501 l 26.297,-21.36103 10.8916,-61.76928 -13.9607,-15.89298 a 11.338583,11.338583 0 0 0 -7.6665,3.9336 z"
         style="fill:none;stroke:#000000"
         id="path891" />
      <path
         d="m 1172.0562,652.01503 -18.9649,-21.58983 h -67.0406 l -26.7552,21.73322 a 15.11811,15.11811 0 0 0 11.647,5.47937 h 86.1671 a 22.677165,22.677165 0 0 0 14.9466,-5.62276 z"
         style="fill:none;stroke:#000000"
         id="path893" />
      <path
         d="m 1095.6603,444.04796 18.9649,21.58983 h 67.0407 l 26.7551,-21.73322 a 15.11811,15.11811 0 0 0 -11.6469,-5.47937 h -86.1672 a 22.677165,22.677165 0 0 0 -14.9466,5.62276 z"
         style="fill:none;stroke:#000000"
         id="path895" />
      <path
         d="m 1179.4423,638.89848 14.1345,-80.16101 a 7.559055,7.559055 0 0 0 -6.5302,-8.81621 l -20.1279,16.34989 -10.8916,61.76928 18.6622,21.24524 a 22.677165,22.677165 0 0 0 4.753,-10.38719 z"
         style="fill:none;stroke:#000000"
         id="path897" />
      <path
         d="m 1216.8189,630.4252 a 12.47245,12.47245 0 1 0 -24.9449,0 12.47245,12.47245 0 1 0 24.9449,0 z"
         style="fill:none;stroke:#000000"
         id="path899" />
      <path
         d="m 1068.6614,495.11811 a 5.6693,5.6693 0 1 0 -11.3386,0 5.6693,5.6693 0 1 0 11.3386,0 z"
         style="fill:none;stroke:#000000"
         id="path901" />
      <path
         d="m 1139.5276,495.11811 a 5.6693,5.6693 0 1 0 -11.3386,0 5.6693,5.6693 0 1 0 11.3386,0 z"
         style="fill:none;stroke:#000000"
         id="path903" />
      <path
         d="m 1139.5276,600.94488 a 5.6693,5.6693 0 1 0 -11.3386,0 5.6693,5.6693 0 1 0 11.3386,0 z"
         style="fill:none;stroke:#000000"
         id="path905" />
      <path
         d="m 1075.8425,465.63779 a 12.47245,12.47245 0 1 0 -24.9449,0 12.47245,12.47245 0 1 0 24.9449,0 z"
         style="fill:none;stroke:#000000"
         id="path907" />
      <path
         d="m 1210.3937,600.94488 a 5.6693,5.6693 0 1 0 -11.3386,0 5.6693,5.6693 0 1 0 11.3386,0 z"
         style="fill:none;stroke:#000000"
         id="path909" />
      <path
         d="m 1095.8081,561.63779 h 70.8201 l 17.0316,-13.83475 -11.7513,-13.37784 h -70.8202 l -17.0316,13.83476 z"
         style="fill:none;stroke:#000000"
         id="path911" />
      <path
         d="m 1080.6699,546.14173 a 7.559055,7.559055 0 0 1 -6.5302,-8.8162 l 14.1346,-80.16102 a 22.677165,22.677165 0 0 1 4.7529,-10.38719 l 18.6622,21.24524 -10.8916,61.76928 z"
         style="fill:none;stroke:#000000"
         id="path913" />
      <path
         d="M 983.07985,652.01503 964.11494,630.4252 h -67.04063 l -26.75518,21.73322 a 15.11811,15.11811 0 0 0 11.64697,5.47937 h 86.16714 a 22.677165,22.677165 0 0 0 14.94661,-5.62276 z"
         style="fill:none;stroke:#000000"
         id="path915" />
      <path
         d="m 906.68393,444.04796 18.96491,21.58983 h 67.04063 l 26.75513,-21.73322 a 15.11811,15.11811 0 0 0 -11.6469,-5.47937 h -86.16716 a 22.677165,22.677165 0 0 0 -14.94661,5.62276 z"
         style="fill:none;stroke:#000000"
         id="path917" />
      <path
         d="m 990.46589,638.89848 14.13451,-80.16101 a 7.559055,7.559055 0 0 0 -6.53015,-8.81621 l -20.1279,16.34989 -10.89159,61.76928 18.66221,21.24524 a 22.677165,22.677165 0 0 0 4.75292,-10.38719 z"
         style="fill:none;stroke:#000000"
         id="path919" />
      <path
         d="m 1027.8425,630.4252 a 12.47245,12.47245 0 1 0 -24.9449,0 12.47245,12.47245 0 1 0 24.9449,0 z"
         style="fill:none;stroke:#000000"
         id="path921" />
      <path
         d="m 879.68504,495.11811 a 5.669291,5.669291 0 1 0 -11.33858,0 5.669291,5.669291 0 1 0 11.33858,0 z"
         style="fill:none;stroke:#000000"
         id="path923" />
      <path
         d="m 950.55118,495.11811 a 5.6692915,5.6692915 0 1 0 -11.33858,0 5.6692915,5.6692915 0 1 0 11.33858,0 z"
         style="fill:none;stroke:#000000"
         id="path925" />
      <path
         d="m 950.55118,600.94488 a 5.6692915,5.6692915 0 1 0 -11.33858,0 5.6692915,5.6692915 0 1 0 11.33858,0 z"
         style="fill:none;stroke:#000000"
         id="path927" />
      <path
         d="m 886.86614,465.63779 a 12.472441,12.472441 0 1 0 -24.94488,0 12.472441,12.472441 0 1 0 24.94488,0 z"
         style="fill:none;stroke:#000000"
         id="path929" />
      <path
         d="m 1021.4173,600.94488 a 5.6693,5.6693 0 1 0 -11.3386,0 5.6693,5.6693 0 1 0 11.3386,0 z"
         style="fill:none;stroke:#000000"
         id="path931" />
      <path
         d="m 906.83168,561.63779 h 70.82017 L 994.68344,547.80304 982.9321,534.4252 h -70.82017 l -17.03159,13.83476 z"
         style="fill:none;stroke:#000000"
         id="path933" />
      <path
         d="m 891.69353,546.14173 a 7.559055,7.559055 0 0 1 -6.53019,-8.8162 l 14.13455,-80.16102 a 22.677165,22.677165 0 0 1 4.75292,-10.38719 l 18.66221,21.24524 -10.89159,61.76928 z"
         style="fill:none;stroke:#000000"
         id="path935" />
      <path
         d="M 794.10347,652.01503 775.13856,630.4252 h -67.04063 l -26.75518,21.73322 a 15.11811,15.11811 0 0 0 11.64698,5.47937 h 86.16713 a 22.677165,22.677165 0 0 0 14.94661,-5.62276 z"
         style="fill:none;stroke:#000000"
         id="path937" />
      <path
         d="m 717.70755,444.04796 18.96491,21.58983 h 67.04064 l 26.75517,-21.73322 A 15.11811,15.11811 0 0 0 818.8213,438.4252 h -86.16714 a 22.677165,22.677165 0 0 0 -14.94661,5.62276 z"
         style="fill:none;stroke:#000000"
         id="path939" />
      <path
         d="m 801.48951,638.89848 14.13455,-80.16101 a 7.559055,7.559055 0 0 0 -6.53018,-8.81621 l -20.12791,16.34989 -10.89159,61.76928 18.66221,21.24524 a 22.677165,22.677165 0 0 0 4.75292,-10.38719 z"
         style="fill:none;stroke:#000000"
         id="path941" />
      <path
         d="m 838.86614,630.4252 a 12.472441,12.472441 0 1 0 -24.94488,0 12.472441,12.472441 0 1 0 24.94488,0 z"
         style="fill:none;stroke:#000000"
         id="path943" />
      <path
         d="m 690.70866,495.11811 a 5.669291,5.669291 0 1 0 -11.33858,0 5.669291,5.669291 0 1 0 11.33858,0 z"
         style="fill:none;stroke:#000000"
         id="path945" />
      <path
         d="m 761.5748,495.11811 a 5.6692915,5.6692915 0 1 0 -11.33858,0 5.6692915,5.6692915 0 1 0 11.33858,0 z"
         style="fill:none;stroke:#000000"
         id="path947" />
      <path
         d="m 761.5748,600.94488 a 5.6692915,5.6692915 0 1 0 -11.33858,0 5.6692915,5.6692915 0 1 0 11.33858,0 z"
         style="fill:none;stroke:#000000"
         id="path949" />
      <path
         d="m 697.88976,465.63779 a 12.472441,12.472441 0 1 0 -24.94488,0 12.472441,12.472441 0 1 0 24.94488,0 z"
         style="fill:none;stroke:#000000"
         id="path951" />
      <path
         d="m 832.44095,600.94488 a 5.669295,5.669295 0 1 0 -11.33859,0 5.669295,5.669295 0 1 0 11.33859,0 z"
         style="fill:none;stroke:#000000"
         id="path953" />
      <path
         d="m 717.85531,561.63779 h 70.82016 l 17.03159,-13.83475 -11.75134,-13.37784 h -70.82017 l -17.03159,13.83476 z"
         style="fill:none;stroke:#000000"
         id="path955" />
      <path
         d="m 702.71715,546.14173 a 7.559055,7.559055 0 0 1 -6.53019,-8.8162 l 14.13455,-80.16102 a 22.677165,22.677165 0 0 1 4.75292,-10.38719 l 18.66221,21.24524 -10.89159,61.76928 z"
         style="fill:none;stroke:#000000"
         id="path957" />
      <path
         d="M 605.1271,652.01503 586.16219,630.4252 h -67.04064 l -26.75518,21.73322 a 15.11811,15.11811 0 0 0 11.64698,5.47937 h 86.16713 a 22.677165,22.677165 0 0 0 14.94662,-5.62276 z"
         style="fill:none;stroke:#000000"
         id="path959" />
      <path
         d="m 528.73117,444.04796 18.96491,21.58983 h 67.04064 l 26.75517,-21.73322 a 15.11811,15.11811 0 0 0 -11.64697,-5.47937 h -86.16714 a 22.677165,22.677165 0 0 0 -14.94661,5.62276 z"
         style="fill:none;stroke:#000000"
         id="path961" />
      <path
         d="m 612.51313,638.89848 14.13455,-80.16101 a 7.559055,7.559055 0 0 0 -6.53018,-8.81621 l -20.12791,16.34989 -10.89159,61.76928 18.66221,21.24524 a 22.677165,22.677165 0 0 0 4.75292,-10.38719 z"
         style="fill:none;stroke:#000000"
         id="path963" />
      <path
         d="m 649.88976,630.4252 a 12.472441,12.472441 0 1 0 -24.94488,0 12.472441,12.472441 0 1 0 24.94488,0 z"
         style="fill:none;stroke:#000000"
         id="path965" />
      <path
         d="m 501.73228,495.11811 a 5.669291,5.669291 0 1 0 -11.33858,0 5.669291,5.669291 0 1 0 11.33858,0 z"
         style="fill:none;stroke:#000000"
         id="path967" />
      <path
         d="m 572.59843,495.11811 a 5.669295,5.669295 0 1 0 -11.33859,0 5.669295,5.669295 0 1 0 11.33859,0 z"
         style="fill:none;stroke:#000000"
         id="path969" />
      <path
         d="m 572.59843,600.94488 a 5.669295,5.669295 0 1 0 -11.33859,0 5.669295,5.669295 0 1 0 11.33859,0 z"
         style="fill:none;stroke:#000000"
         id="path971" />
      <path
         d="m 508.91339,465.63779 a 12.472445,12.472445 0 1 0 -24.94489,0 12.472445,12.472445 0 1 0 24.94489,0 z"
         style="fill:none;stroke:#000000"
         id="path973" />
      <path
         d="m 643.46457,600.94488 a 5.669295,5.669295 0 1 0 -11.33859,0 5.669295,5.669295 0 1 0 11.33859,0 z"
         style="fill:none;stroke:#000000"
         id="path975" />
      <path
         d="m 528.87893,561.63779 h 70.82016 l 17.03159,-13.83475 -11.75134,-13.37784 h -70.82016 l -17.0316,13.83476 z"
         style="fill:none;stroke:#000000"
         id="path977" />
      <path
         d="m 513.74077,546.14173 a 7.559055,7.559055 0 0 1 -6.53018,-8.8162 l 14.13455,-80.16102 a 22.677165,22.677165 0 0 1 4.75291,-10.38719 l 18.66222,21.24524 -10.89159,61.76928 z"
         style="fill:none;stroke:#000000"
         id="path979" />
    </g>
    <g
       id="g1172">
      <path
         d="m 208.52978,129.42262 a 1.5000009,1.5000009 0 1 0 -3,0 1.5000009,1.5000009 0 1 0 3,0 z"
         style="fill:none;stroke:#000000;stroke-width:0.264583"
         id="path1087" />
      <path
         d="m 8.0297863,129.42262 a 1.000006,1.000006 0 1 0 -2.0000119,0 1.000006,1.000006 0 1 0 2.0000119,0 z"
         style="fill:none;stroke:#000000;stroke-width:0.264583"
         id="path1089" />
      <path
         d="m 100.52978,129.42262 a 1.5,1.5 0 1 0 -2.999997,0 1.5,1.5 0 1 0 2.999997,0 z"
         style="fill:none;stroke:#000000;stroke-width:0.264583"
         id="path1091" />
      <path
         d="m 192.02978,129.42262 a 1.0000001,1.0000001 0 1 0 -2,0 1.0000001,1.0000001 0 1 0 2,0 z"
         style="fill:none;stroke:#000000;stroke-width:0.264583"
         id="path1093" />
      <path
         d="m -7.4702196,129.42262 a 1.5000023,1.5000023 0 1 0 -3.0000044,0 1.5000023,1.5000023 0 1 0 3.0000044,0 z"
         style="fill:none;stroke:#000000;stroke-width:0.264583"
         id="path1095" />
      <path
         sodipodi:nodetypes="csccccccsc"
         d="m 206.02978,124.42262 c 3.31371,0 6,2.68629 6,6 v 17.2 h -10 v -13.2 H -3.9702055 v 13.2 H -13.970212 v -17.2 c 0,-3.3137 2.686281,-5.99999 5.9999828,-6"
         style="fill:none;stroke:#000000;stroke-width:0.264583"
         id="path1097" />
    </g>
    <g
       transform="translate(0,-31.6)"
       id="g1180">
      <path
         d="m -7.4702196,197.42262 a 1.5000023,1.5000023 0 1 0 -3.0000044,0 1.5000023,1.5000023 0 1 0 3.0000044,0 z"
         style="fill:none;stroke:#000000;stroke-width:0.264583"
         id="path1099" />
      <path
         d="m 208.52978,197.42262 a 1.5000009,1.5000009 0 1 0 -3,0 1.5000009,1.5000009 0 1 0 3,0 z"
         style="fill:none;stroke:#000000;stroke-width:0.264583"
         id="path1101" />
      <path
         d="m 192.02978,197.42262 a 1.0000001,1.0000001 0 1 0 -2,0 1.0000001,1.0000001 0 1 0 2,0 z"
         style="fill:none;stroke:#000000;stroke-width:0.264583"
         id="path1103" />
      <path
         d="m 8.0297863,197.42262 a 1.000006,1.000006 0 1 0 -2.0000119,0 1.000006,1.000006 0 1 0 2.0000119,0 z"
         style="fill:none;stroke:#000000;stroke-width:0.264583"
         id="path1105" />
      <path
         d="m 100.52978,197.42262 a 1.5,1.5 0 1 0 -2.999997,0 1.5,1.5 0 1 0 2.999997,0 z"
         style="fill:none;stroke:#000000;stroke-width:0.264583"
         id="path1107" />
      <path
         sodipodi:nodetypes="cccccsscsc"
         d="m -3.9702055,179.22262 v 13.2 H 202.02978 v -13.2 m 10,0 v 17.2 c 0,3.31371 -2.68629,6 -6,6 H -7.9702292 c -3.3137018,-1e-5 -5.9999828,-2.6863 -5.9999828,-6 v -17.2"
         style="fill:none;stroke:#000000;stroke-width:0.264583"
         id="path1109" />
    </g>
    <g
       transform="matrix(0.26458333,0,0,0.26458333,324.02978,64.822622)"
       inkscape:label="0"
       id="g1234">
      <path
         d="m -1249.1339,676.53543 a 9.448819,9.448819 0 1 0 -18.8976,0 9.448819,9.448819 0 1 0 18.8976,0 z"
         style="fill:none;stroke:#000000"
         id="path1196" />
      <path
         d="m -1011.9685,600.94488 a 3.77955,3.77955 0 1 0 -7.5591,0 3.77955,3.77955 0 1 0 7.5591,0 z"
         style="fill:none;stroke:#000000"
         id="path1198" />
      <path
         d="m -822.99213,600.94488 a 3.779528,3.779528 0 1 0 -7.55905,0 3.779528,3.779528 0 1 0 7.55905,0 z"
         style="fill:none;stroke:#000000"
         id="path1200" />
      <path
         d="m -432.75591,676.53543 a 9.448819,9.448819 0 1 0 -18.89763,0 9.448819,9.448819 0 1 0 18.89763,0 z"
         style="fill:none;stroke:#000000"
         id="path1202" />
      <path
         d="m -432.75591,419.52756 a 9.448819,9.448819 0 1 0 -18.89763,0 9.448819,9.448819 0 1 0 18.89763,0 z"
         style="fill:none;stroke:#000000"
         id="path1204" />
      <path
         d="m -497.00787,676.53543 a 5.669295,5.669295 0 1 0 -11.33859,0 5.669295,5.669295 0 1 0 11.33859,0 z"
         style="fill:none;stroke:#000000"
         id="path1206" />
      <path
         d="m -870.23622,495.11811 a 3.77953,3.77953 0 1 0 -7.55906,0 3.77953,3.77953 0 1 0 7.55906,0 z"
         style="fill:none;stroke:#000000"
         id="path1208" />
      <path
         d="m -1059.2126,495.11811 a 3.77955,3.77955 0 1 0 -7.5591,0 3.77955,3.77955 0 1 0 7.5591,0 z"
         style="fill:none;stroke:#000000"
         id="path1210" />
      <path
         d="m -1192.4409,419.52756 a 5.6693,5.6693 0 1 0 -11.3386,0 5.6693,5.6693 0 1 0 11.3386,0 z"
         style="fill:none;stroke:#000000"
         id="path1212" />
      <path
         d="m -1192.4409,676.53543 a 5.6693,5.6693 0 1 0 -11.3386,0 5.6693,5.6693 0 1 0 11.3386,0 z"
         style="fill:none;stroke:#000000"
         id="path1214" />
      <path
         d="m -840.94488,419.52756 a 9.44882,9.44882 0 1 0 -18.89764,0 9.44882,9.44882 0 1 0 18.89764,0 z"
         style="fill:none;stroke:#000000"
         id="path1216" />
      <path
         d="m -681.25984,495.11811 a 3.77953,3.77953 0 1 0 -7.55906,0 3.77953,3.77953 0 1 0 7.55906,0 z"
         style="fill:none;stroke:#000000"
         id="path1218" />
      <path
         d="m -492.28346,495.11811 a 3.77953,3.77953 0 1 0 -7.55906,0 3.77953,3.77953 0 1 0 7.55906,0 z"
         style="fill:none;stroke:#000000"
         id="path1220" />
      <path
         d="m -497.00787,419.52756 a 5.669295,5.669295 0 1 0 -11.33859,0 5.669295,5.669295 0 1 0 11.33859,0 z"
         style="fill:none;stroke:#000000"
         id="path1222" />
      <path
         d="m -634.01575,600.94488 a 3.779528,3.779528 0 1 0 -7.55905,0 3.779528,3.779528 0 1 0 7.55905,0 z"
         style="fill:none;stroke:#000000"
         id="path1224" />
      <path
         d="m -840.94488,676.53543 a 9.44882,9.44882 0 1 0 -18.89764,0 9.44882,9.44882 0 1 0 18.89764,0 z"
         style="fill:none;stroke:#000000"
         id="path1226" />
      <path
         d="m -1200.9449,600.94488 a 3.779528,3.779528 0 1 0 -7.559,0 3.779528,3.779528 0 1 0 7.559,0 z"
         style="fill:none;stroke:#000000"
         id="path1228" />
      <path
         d="m -1249.1339,419.52756 a 9.448819,9.448819 0 1 0 -18.8976,0 9.448819,9.448819 0 1 0 18.8976,0 z"
         style="fill:none;stroke:#000000"
         id="path1230" />
      <path
         sodipodi:nodetypes="csccccsscsccccsc"
         d="m -445.98425,400.62992 c 12.52425,0 22.67716,10.15292 22.67716,22.67717 v 65.00787 h -43.08661 v 119.43307 h 43.08661 v 65.00788 c 0,12.52425 -10.15291,22.67716 -22.67716,22.67716 h -808.81895 c -12.5242,-4e-5 -22.6771,-10.15293 -22.6771,-22.67716 v -65.00788 h 43.0866 V 488.31496 h -43.0866 v -65.00787 c 0,-12.52423 10.1529,-22.67713 22.6771,-22.67717"
         style="fill:none;stroke:#000000"
         id="path1232" />
    </g>
  </g>
</svg>
