0
SECTION
2
HEADER
9
$INSUNITS
70
4
9
$ACADVER
1
AC1014
9
$HANDSEED
5
FFFF
0
ENDSEC
0
SECTION
2
TABLES
0
TABLE
2
VPORT
5
8
100
AcDbSymbolTable
0
ENDTAB
0
TABLE
2
LTYPE
5
5
100
AcDbSymbolTable
0
LTYPE
5
14
100
AcDbSymbolTableRecord
100
AcDbLinetypeTableRecord
2
BYBLOCK
70
0
0
LTYPE
5
15
100
AcDbSymbolTableRecord
100
AcDbLinetypeTableRecord
2
BYLAYER
70
0
0
ENDTAB
0
TABLE
2
LAYER
5
2
100
AcDbSymbolTable
70
2
0
LAYER
5
50
100
AcDbSymbolTableRecord
100
AcDbLayerTableRecord
2
0
70
0
6
CONTINUOUS
0
ENDTAB
0
TABLE
2
STYLE
5
3
100
AcDbSymbolTable
70
1
0
STYLE
5
11
100
AcDbSymbolTableRecord
100
AcDbTextStyleTableRecord
2
STANDARD
70
0
0
ENDTAB
0
TABLE
2
VIEW
5
6
100
AcDbSymbolTable
70
0
0
ENDTAB
0
TABLE
2
UCS
5
7
100
AcDbSymbolTable
70
0
0
ENDTAB
0
TABLE
2
APPID
5
9
100
AcDbSymbolTable
70
2
0
APPID
5
12
100
AcDbSymbolTableRecord
100
AcDbRegAppTableRecord
2
ACAD
70
0
0
ENDTAB
0
TABLE
2
DIMSTYLE
5
A
100
AcDbSymbolTable
70
1
0
ENDTAB
0
TABLE
2
BLOCK_RECORD
5
1
100
AcDbSymbolTable
70
1
0
BLOCK_RECORD
5
1F
100
AcDbSymbolTableRecord
100
AcDbBlockTableRecord
2
*MODEL_SPACE
0
BLOCK_RECORD
5
1B
100
AcDbSymbolTableRecord
100
AcDbBlockTableRecord
2
*PAPER_SPACE
0
ENDTAB
0
ENDSEC
0
SECTION
2
BLOCKS
0
BLOCK
5
20
100
AcDbEntity
100
AcDbBlockBegin
2
*MODEL_SPACE
0
ENDBLK
5
21
100
AcDbEntity
100
AcDbBlockEnd
0
BLOCK
5
1C
100
AcDbEntity
100
AcDbBlockBegin
2
*PAPER_SPACE
0
ENDBLK
5
1D
100
AcDbEntity
100
AcDbBlockEnd
0
ENDSEC
0
SECTION
2
ENTITIES
0
CIRCLE
5
100
100
AcDbEntity
8
0
100
AcDbCircle
10
332.30000000000024
20
140.19999999999999
30
0
40
1.4999999999999858
210
0
220
-0
230
1
0
CIRCLE
5
101
100
AcDbEntity
8
0
100
AcDbCircle
10
117.70000000000026
20
163.79999999999995
30
0
40
1.5000000000000036
210
0
220
-0
230
1
0
CIRCLE
5
102
100
AcDbEntity
8
0
100
AcDbCircle
10
332.30000000000024
20
163.79999999999998
30
0
40
1.4999999999999858
210
0
220
-0
230
1
0
CIRCLE
5
103
100
AcDbEntity
8
0
100
AcDbCircle
10
117.70000000000026
20
140.19999999999996
30
0
40
1.5000000000000036
210
0
220
-0
230
1
0
CIRCLE
5
104
100
AcDbEntity
8
0
100
AcDbCircle
10
333.00000000000023
20
117.99999999999997
30
0
40
1.4999999999999858
210
0
220
0
230
1
0
CIRCLE
5
105
100
AcDbEntity
8
0
100
AcDbCircle
10
117.00000000000024
20
117.99999999999997
30
0
40
1.5000000000000036
210
0
220
0
230
1
0
CIRCLE
5
106
100
AcDbEntity
8
0
100
AcDbCircle
10
117.00000000000024
20
186
30
0
40
1.5000000000000036
210
0
220
0
230
1
0
CIRCLE
5
107
100
AcDbEntity
8
0
100
AcDbCircle
10
133.00000000000023
20
117.99999999999997
30
0
40
0.99999999999999645
210
0
220
0
230
1
0
CIRCLE
5
108
100
AcDbEntity
8
0
100
AcDbCircle
10
317.00000000000023
20
186
30
0
40
1.0000000000000142
210
0
220
0
230
1
0
CIRCLE
5
109
100
AcDbEntity
8
0
100
AcDbCircle
10
317.00000000000023
20
117.99999999999997
30
0
40
1.0000000000000142
210
0
220
0
230
1
0
CIRCLE
5
110
100
AcDbEntity
8
0
100
AcDbCircle
10
225.00000000000026
20
186
30
0
40
1.4999999999999858
210
0
220
0
230
1
0
CIRCLE
5
111
100
AcDbEntity
8
0
100
AcDbCircle
10
133.00000000000023
20
186
30
0
40
0.99999999999999645
210
0
220
0
230
1
0
CIRCLE
5
112
100
AcDbEntity
8
0
100
AcDbCircle
10
225.00000000000026
20
117.99999999999997
30
0
40
1.4999999999999858
210
0
220
0
230
1
0
CIRCLE
5
113
100
AcDbEntity
8
0
100
AcDbCircle
10
333.00000000000023
20
186
30
0
40
1.4999999999999858
210
0
220
0
230
1
0
LWPOLYLINE
5
114
100
AcDbEntity
8
0
100
AcDbPolyline
90
8
70
1
43
0.0
10
118.00000000000024
20
113
42
-0.41421356237309936
10
112.00000000000024
20
118.99999999999999
10
112.00000000000028
20
185
42
-0.41421356237309331
10
118.00000000000026
20
191
10
332.00000000000017
20
190.99999999999997
42
-0.41421356237309681
10
338.00000000000023
20
185
10
338.00000000000034
20
119
42
-0.41421356237309853
10
332.00000000000023
20
112.99999999999997
0
LWPOLYLINE
5
115
100
AcDbEntity
8
0
100
AcDbPolyline
90
10
70
1
43
0.0
10
166.14999999999986
20
153.5407647344289
10
166.14999999999992
20
149.10000000000008
42
0.99999999999999989
10
168.14999999999995
20
149.10000000000008
10
168.14999999999992
20
154.90000000000006
42
0.46355765119480141
10
166.98526625843712
20
155.88633807307173
10
170.5856990822175
20
176.30540728933229
42
0.15458156081629348
10
170.26728261042933
20
178.69991236981122
10
163.3095390617882
20
173.04813843759007
10
160.42780566578077
20
156.70501621982802
10
164.12156993116491
20
152.5
42
0.19739002005081974
0
LWPOLYLINE
5
116
100
AcDbEntity
8
0
100
AcDbPolyline
90
10
70
1
43
0.0
10
133.84999999999991
20
150.45923526557084
10
133.84999999999991
20
154.90000000000006
42
0.99999999999999989
10
131.84999999999988
20
154.90000000000006
10
131.84999999999991
20
149.10000000000008
42
0.46355765119489006
10
133.01473374156296
20
148.11366192692847
10
129.41430091778255
20
127.69459271066773
42
0.15458156081626476
10
129.73271738957072
20
125.30008763018881
10
136.69046093821194
20
130.95186156241002
10
139.57219433421932
20
147.29498378017198
10
135.87843006883517
20
151.50000000000003
42
0.19739002005083983
0
LWPOLYLINE
5
117
100
AcDbEntity
8
0
100
AcDbPolyline
90
10
70
1
43
0.0
10
216.14999999999986
20
153.54076473442893
10
216.14999999999992
20
149.10000000000008
42
0.99999999999999989
10
218.14999999999995
20
149.10000000000008
10
218.14999999999992
20
154.90000000000006
42
0.46355765119481196
10
216.98526625843709
20
155.88633807307173
10
220.5856990822175
20
176.30540728933229
42
0.15458156081629348
10
220.26728261042933
20
178.69991236981122
10
213.3095390617882
20
173.04813843759007
10
210.42780566578077
20
156.70501621982805
10
214.12156993116491
20
152.50000000000003
42
0.19739002005081974
0
LWPOLYLINE
5
118
100
AcDbEntity
8
0
100
AcDbPolyline
90
10
70
1
43
0.0
10
183.84999999999991
20
150.45923526557087
10
183.84999999999991
20
154.90000000000006
42
0.99999999999999989
10
181.84999999999988
20
154.90000000000006
10
181.84999999999988
20
149.10000000000008
42
0.46355765119486053
10
183.01473374156296
20
148.11366192692847
10
179.41430091778255
20
127.69459271066776
42
0.15458156081625515
10
179.73271738957072
20
125.30008763018883
10
186.69046093821194
20
130.95186156241004
10
189.57219433421932
20
147.294983780172
10
185.87843006883517
20
151.50000000000006
42
0.19739002005085554
0
LWPOLYLINE
5
119
100
AcDbEntity
8
0
100
AcDbPolyline
90
10
70
1
43
0.0
10
266.14999999999986
20
153.5407647344289
10
266.14999999999992
20
149.10000000000008
42
0.99999999999999989
10
268.14999999999992
20
149.10000000000008
10
268.14999999999992
20
154.90000000000006
42
0.46355765119480141
10
266.98526625843715
20
155.88633807307173
10
270.5856990822175
20
176.30540728933229
42
0.15458156081629348
10
270.26728261042933
20
178.69991236981122
10
263.3095390617882
20
173.04813843759007
10
260.4278056657808
20
156.70501621982802
10
264.12156993116491
20
152.5
42
0.19739002005081974
0
LWPOLYLINE
5
120
100
AcDbEntity
8
0
100
AcDbPolyline
90
10
70
1
43
0.0
10
233.84999999999991
20
150.45923526557087
10
233.84999999999991
20
154.90000000000006
42
0.99999999999999989
10
231.84999999999988
20
154.90000000000006
10
231.84999999999988
20
149.10000000000008
42
0.46355765119486053
10
233.01473374156296
20
148.11366192692847
10
229.41430091778255
20
127.69459271066773
42
0.15458156081625377
10
229.73271738957072
20
125.30008763018881
10
236.69046093821194
20
130.95186156241002
10
239.57219433421932
20
147.29498378017198
10
235.87843006883517
20
151.50000000000003
42
0.19739002005085438
0
LWPOLYLINE
5
121
100
AcDbEntity
8
0
100
AcDbPolyline
90
10
70
1
43
0.0
10
316.14999999999986
20
153.5407647344289
10
316.14999999999992
20
149.10000000000008
42
0.99999999999999989
10
318.14999999999992
20
149.10000000000008
10
318.14999999999992
20
154.90000000000006
42
0.46355765119480141
10
316.98526625843715
20
155.88633807307173
10
320.5856990822175
20
176.30540728933227
42
0.15458156081629765
10
320.26728261042933
20
178.69991236981119
10
313.3095390617882
20
173.04813843759004
10
310.4278056657808
20
156.705016219828
10
314.12156993116491
20
152.5
42
0.19739002005081974
0
LWPOLYLINE
5
122
100
AcDbEntity
8
0
100
AcDbPolyline
90
10
70
1
43
0.0
10
283.84999999999991
20
150.45923526557084
10
283.84999999999991
20
154.90000000000006
42
0.99999999999999989
10
281.84999999999991
20
154.90000000000006
10
281.84999999999991
20
149.10000000000008
42
0.46355765119486053
10
283.01473374156296
20
148.11366192692847
10
279.41430091778255
20
127.69459271066772
42
0.15458156081625515
10
279.73271738957072
20
125.30008763018878
10
286.69046093821191
20
130.95186156241002
10
289.57219433421932
20
147.29498378017195
10
285.8784300688352
20
151.50000000000003
42
0.19739002005085554
0
LWPOLYLINE
5
123
100
AcDbEntity
8
0
100
AcDbPolyline
90
6
70
1
43
0.0
10
310.1065445082815
20
124.48768981581701
10
305.08874525898682
20
130.19999999999999
10
287.3509100843176
20
130.20000000000002
10
280.27193656916347
20
124.44975098605843
42
0.22347937751592159
10
283.35353192983138
20
123
10
306.15191977239084
20
123
42
0.18187316544873289
0
LWPOLYLINE
5
124
100
AcDbEntity
8
0
100
AcDbPolyline
90
6
70
1
43
0.0
10
289.8934554917185
20
179.51231018418298
10
294.91125474101318
20
173.80000000000001
10
312.64908991568251
20
173.80000000000001
10
319.72806343083664
20
179.55024901394157
42
0.22347937751595678
10
316.64646807016868
20
181
10
293.84808022760922
20
181
42
0.18187316544873733
0
LWPOLYLINE
5
125
100
AcDbEntity
8
0
100
AcDbPolyline
90
6
70
1
43
0.0
10
312.06076629046407
20
127.95811093399841
10
315.8005324655789
20
149.16737885254815
42
0.42991751857593002
10
314.07275465264991
20
151.5
10
308.74724630108352
20
147.17409044803216
10
305.86551290507606
20
130.8309682302702
10
310.80322339451914
20
125.20983184874649
42
0.1279932571369507
0
CIRCLE
5
126
100
AcDbEntity
8
0
100
AcDbCircle
10
318.65000000000003
20
130.19999999999999
30
0
40
3.3000000000000007
210
0
220
-0
230
1
0
CIRCLE
5
127
100
AcDbEntity
8
0
100
AcDbCircle
10
281.25000000000006
20
166
30
0
40
1.499999999999998
210
0
220
-0
230
1
0
CIRCLE
5
128
100
AcDbEntity
8
0
100
AcDbCircle
10
300.00000000000006
20
166
30
0
40
1.4999999999999991
210
0
220
-0
230
1
0
CIRCLE
5
129
100
AcDbEntity
8
0
100
AcDbCircle
10
300.00000000000006
20
138
30
0
40
1.4999999999999991
210
0
220
-0
230
1
0
CIRCLE
5
130
100
AcDbEntity
8
0
100
AcDbCircle
10
281.35000000000002
20
173.80000000000001
30
0
40
3.2999999999999998
210
0
220
-0
230
1
0
CIRCLE
5
131
100
AcDbEntity
8
0
100
AcDbCircle
10
318.75000000000006
20
138
30
0
40
1.4999999999999947
210
0
220
-0
230
1
0
LWPOLYLINE
5
132
100
AcDbEntity
8
0
100
AcDbPolyline
90
6
70
1
43
0.0
10
289.93254943101817
20
148.40000000000001
10
308.6703846056875
20
148.40000000000001
10
313.17665988870885
20
152.06044666606988
10
310.06745056898188
20
155.59999999999999
10
291.32961539431255
20
155.60000000000002
10
286.8233401112912
20
151.93955333393012
0
LWPOLYLINE
5
133
100
AcDbEntity
8
0
100
AcDbPolyline
90
6
70
1
43
0.0
10
285.92724534735021
20
152.5
42
-0.4299175185759323
10
284.19946753442116
20
154.83262114745185
10
287.9392337095361
20
176.0418890660016
42
-0.12799325713694748
10
289.19677660548092
20
178.79016815125345
10
294.13448709492394
20
173.16903176972986
10
291.25275369891659
20
156.82590955196784
0
LWPOLYLINE
5
134
100
AcDbEntity
8
0
100
AcDbPolyline
90
6
70
1
43
0.0
10
260.1065445082815
20
124.48768981581702
10
255.08874525898682
20
130.20000000000002
10
237.3509100843176
20
130.20000000000005
10
230.27193656916347
20
124.44975098605845
42
0.22347937751592076
10
233.35353192983138
20
123.00000000000003
10
256.15191977239084
20
123.00000000000003
42
0.18187316544873389
0
LWPOLYLINE
5
135
100
AcDbEntity
8
0
100
AcDbPolyline
90
6
70
1
43
0.0
10
239.89345549171847
20
179.51231018418301
10
244.91125474101321
20
173.80000000000001
10
262.64908991568251
20
173.80000000000001
10
269.72806343083664
20
179.5502490139416
42
0.22347937751595426
10
266.64646807016868
20
181
10
243.84808022760922
20
181.00000000000006
42
0.18187316544873539
0
LWPOLYLINE
5
136
100
AcDbEntity
8
0
100
AcDbPolyline
90
6
70
1
43
0.0
10
262.06076629046407
20
127.95811093399843
10
265.8005324655789
20
149.16737885254818
42
0.42991751857593002
10
264.07275465264991
20
151.50000000000003
10
258.74724630108352
20
147.17409044803219
10
255.86551290507606
20
130.83096823027023
10
260.80322339451914
20
125.2098318487465
42
0.12799325713695092
0
CIRCLE
5
137
100
AcDbEntity
8
0
100
AcDbCircle
10
268.65000000000003
20
130.20000000000002
30
0
40
3.3000000000000007
210
0
220
-0
230
1
0
CIRCLE
5
138
100
AcDbEntity
8
0
100
AcDbCircle
10
231.25000000000003
20
166
30
0
40
1.499999999999998
210
0
220
-0
230
1
0
CIRCLE
5
139
100
AcDbEntity
8
0
100
AcDbCircle
10
250.00000000000003
20
166
30
0
40
1.4999999999999991
210
0
220
-0
230
1
0
CIRCLE
5
140
100
AcDbEntity
8
0
100
AcDbCircle
10
250.00000000000003
20
138.00000000000003
30
0
40
1.4999999999999991
210
0
220
-0
230
1
0
CIRCLE
5
141
100
AcDbEntity
8
0
100
AcDbCircle
10
231.35000000000005
20
173.80000000000001
30
0
40
3.2999999999999998
210
0
220
-0
230
1
0
CIRCLE
5
142
100
AcDbEntity
8
0
100
AcDbCircle
10
268.75000000000006
20
138.00000000000003
30
0
40
1.4999999999999947
210
0
220
-0
230
1
0
LWPOLYLINE
5
143
100
AcDbEntity
8
0
100
AcDbPolyline
90
6
70
1
43
0.0
10
239.93254943101817
20
148.40000000000003
10
258.6703846056875
20
148.40000000000003
10
263.17665988870885
20
152.06044666606994
10
260.06745056898188
20
155.60000000000002
10
241.32961539431255
20
155.60000000000002
10
236.8233401112912
20
151.93955333393012
0
LWPOLYLINE
5
144
100
AcDbEntity
8
0
100
AcDbPolyline
90
6
70
1
43
0.0
10
235.92724534735021
20
152.50000000000003
42
-0.4299175185759323
10
234.19946753442116
20
154.83262114745187
10
237.93923370953598
20
176.04188906600157
42
-0.12799325713694826
10
239.19677660548092
20
178.79016815125351
10
244.13448709492397
20
173.16903176972986
10
241.25275369891656
20
156.82590955196784
0
LWPOLYLINE
5
145
100
AcDbEntity
8
0
100
AcDbPolyline
90
6
70
1
43
0.0
10
210.10654450828153
20
124.48768981581705
10
205.08874525898682
20
130.20000000000005
10
187.3509100843176
20
130.20000000000005
10
180.27193656916347
20
124.44975098605846
42
0.22347937751592159
10
183.35353192983138
20
123.00000000000004
10
206.15191977239084
20
123.00000000000004
42
0.18187316544873289
0
LWPOLYLINE
5
146
100
AcDbEntity
8
0
100
AcDbPolyline
90
6
70
1
43
0.0
10
189.89345549171847
20
179.51231018418301
10
194.91125474101321
20
173.80000000000007
10
212.64908991568251
20
173.80000000000001
10
219.72806343083661
20
179.5502490139416
42
0.22347937751595426
10
216.64646807016868
20
181.00000000000006
10
193.84808022760922
20
181.00000000000006
42
0.18187316544874046
0
LWPOLYLINE
5
147
100
AcDbEntity
8
0
100
AcDbPolyline
90
6
70
1
43
0.0
10
212.06076629046407
20
127.95811093399846
10
215.8005324655789
20
149.16737885254821
42
0.42991751857593002
10
214.07275465264991
20
151.50000000000003
10
208.74724630108349
20
147.17409044803222
10
205.86551290507606
20
130.83096823027023
10
210.80322339451911
20
125.20983184874652
42
0.1279932571369507
0
CIRCLE
5
148
100
AcDbEntity
8
0
100
AcDbCircle
10
218.65000000000003
20
130.20000000000005
30
0
40
3.3000000000000007
210
0
220
-0
230
1
0
CIRCLE
5
149
100
AcDbEntity
8
0
100
AcDbCircle
10
181.25000000000003
20
166.00000000000006
30
0
40
1.499999999999998
210
0
220
-0
230
1
0
CIRCLE
5
150
100
AcDbEntity
8
0
100
AcDbCircle
10
200.00000000000003
20
166.00000000000006
30
0
40
1.4999999999999991
210
0
220
-0
230
1
0
CIRCLE
5
151
100
AcDbEntity
8
0
100
AcDbCircle
10
200.00000000000003
20
138.00000000000006
30
0
40
1.4999999999999991
210
0
220
-0
230
1
0
CIRCLE
5
152
100
AcDbEntity
8
0
100
AcDbCircle
10
181.35000000000005
20
173.80000000000007
30
0
40
3.2999999999999998
210
0
220
-0
230
1
0
CIRCLE
5
153
100
AcDbEntity
8
0
100
AcDbCircle
10
218.75000000000003
20
138.00000000000006
30
0
40
1.4999999999999947
210
0
220
-0
230
1
0
LWPOLYLINE
5
154
100
AcDbEntity
8
0
100
AcDbPolyline
90
6
70
1
43
0.0
10
189.93254943101817
20
148.40000000000006
10
208.6703846056875
20
148.40000000000003
10
213.17665988870885
20
152.06044666606994
10
210.06745056898188
20
155.60000000000005
10
191.32961539431255
20
155.60000000000005
10
186.8233401112912
20
151.93955333393015
0
LWPOLYLINE
5
155
100
AcDbEntity
8
0
100
AcDbPolyline
90
6
70
1
43
0.0
10
185.92724534735021
20
152.50000000000003
42
-0.4299175185759323
10
184.19946753442116
20
154.8326211474519
10
187.93923370953604
20
176.0418890660016
42
-0.12799325713695028
10
189.19677660548089
20
178.79016815125354
10
194.13448709492397
20
173.16903176972986
10
191.25275369891656
20
156.82590955196787
0
LWPOLYLINE
5
156
100
AcDbEntity
8
0
100
AcDbPolyline
90
6
70
1
43
0.0
10
160.10654450828153
20
124.48768981581702
10
155.08874525898682
20
130.20000000000002
10
137.3509100843176
20
130.20000000000005
10
130.27193656916347
20
124.44975098605843
42
0.22347937751592675
10
133.35353192983138
20
123.00000000000003
10
156.15191977239087
20
123.00000000000003
42
0.18187316544872975
0
LWPOLYLINE
5
157
100
AcDbEntity
8
0
100
AcDbPolyline
90
6
70
1
43
0.0
10
139.8934554917185
20
179.51231018418301
10
144.91125474101318
20
173.80000000000001
10
162.64908991568251
20
173.80000000000001
10
169.72806343083661
20
179.5502490139416
42
0.22347937751595426
10
166.64646807016868
20
181
10
143.84808022760919
20
181.00000000000006
42
0.18187316544873675
0
LWPOLYLINE
5
158
100
AcDbEntity
8
0
100
AcDbPolyline
90
6
70
1
43
0.0
10
162.06076629046407
20
127.95811093399843
10
165.8005324655789
20
149.16737885254818
42
0.42991751857593002
10
164.07275465264991
20
151.50000000000003
10
158.74724630108349
20
147.17409044803219
10
155.86551290507606
20
130.83096823027023
10
160.80322339451911
20
125.2098318487465
42
0.12799325713694931
0
CIRCLE
5
159
100
AcDbEntity
8
0
100
AcDbCircle
10
168.65000000000003
20
130.20000000000002
30
0
40
3.3000000000000007
210
0
220
-0
230
1
0
CIRCLE
5
160
100
AcDbEntity
8
0
100
AcDbCircle
10
131.25000000000003
20
166
30
0
40
1.499999999999998
210
0
220
-0
230
1
0
CIRCLE
5
161
100
AcDbEntity
8
0
100
AcDbCircle
10
150.00000000000003
20
166
30
0
40
1.4999999999999991
210
0
220
-0
230
1
0
CIRCLE
5
162
100
AcDbEntity
8
0
100
AcDbCircle
10
150.00000000000003
20
138.00000000000003
30
0
40
1.4999999999999991
210
0
220
-0
230
1
0
CIRCLE
5
163
100
AcDbEntity
8
0
100
AcDbCircle
10
131.35000000000002
20
173.80000000000001
30
0
40
3.2999999999999998
210
0
220
-0
230
1
0
CIRCLE
5
164
100
AcDbEntity
8
0
100
AcDbCircle
10
168.75000000000003
20
138.00000000000003
30
0
40
1.4999999999999947
210
0
220
-0
230
1
0
LWPOLYLINE
5
165
100
AcDbEntity
8
0
100
AcDbPolyline
90
6
70
1
43
0.0
10
139.9325494310182
20
148.40000000000003
10
158.6703846056875
20
148.40000000000003
10
163.17665988870885
20
152.06044666606994
10
160.06745056898188
20
155.60000000000002
10
141.32961539431258
20
155.60000000000002
10
136.8233401112912
20
151.93955333393012
0
LWPOLYLINE
5
166
100
AcDbEntity
8
0
100
AcDbPolyline
90
6
70
1
43
0.0
10
135.92724534735018
20
152.50000000000003
42
-0.4299175185759328
10
134.19946753442116
20
154.83262114745187
10
137.93923370953598
20
176.0418890660016
42
-0.12799325713695098
10
139.19677660548092
20
178.79016815125354
10
144.13448709492394
20
173.16903176972986
10
141.25275369891656
20
156.82590955196784
0
ENDSEC
0
SECTION
2
OBJECTS
0
DICTIONARY
5
C
100
AcDbDictionary
3
ACAD_GROUP
350
D
3
ACAD_MLINESTYLE
350
17
0
DICTIONARY
5
D
100
AcDbDictionary
0
DICTIONARY
5
1A
330
C
100
AcDbDictionary
0
DICTIONARY
5
17
100
AcDbDictionary
0
ENDSEC
0
EOF
